<svg width="20" height="20" viewBox="-2 -2 24 20" fill="none"><path fill-rule="evenodd" clip-rule="evenodd" d="M7.927.4a.49.49 0 0 1 .48-.4h3.186c.236 0 .438.169.48.4l.455 2.506a.488.488 0 0 0 .766.308l2.036-1.47a.49.49 0 0 1 .63.05l2.246 2.246c.17.169.19.436.05.63l-1.47 2.036a.488.488 0 0 0 .308.766l2.505.455a.49.49 0 0 1 .401.48v3.186a.49.49 0 0 1-.4.48l-2.506.455a.488.488 0 0 0-.308.766l1.47 2.036a.49.49 0 0 1-.05.63l-2.246 2.246a.49.49 0 0 1-.63.05l-2.036-1.47a.488.488 0 0 0-.766.308l-.455 2.505a.49.49 0 0 1-.48.401H8.407a.49.49 0 0 1-.48-.4l-.455-2.506a.488.488 0 0 0-.766-.308l-2.036 1.47a.49.49 0 0 1-.63-.05L1.794 15.96a.49.49 0 0 1-.05-.63l1.47-2.036a.488.488 0 0 0-.308-.766L.4 12.073a.49.49 0 0 1-.401-.48V8.407c0-.236.169-.438.4-.48l2.506-.455a.488.488 0 0 0 .308-.766L1.744 4.67a.49.49 0 0 1 .05-.63L4.04 1.794a.486.486 0 0 1 .63-.05l2.036 1.47c.291.21.702.045.766-.308zM10 13.17a3.17 3.17 0 1 0 0-6.34 3.17 3.17 0 0 0 0 6.34" fill="#000"/></svg>