<svg width="1024" height="1024" viewBox="0 0 1024 1024" fill="none" xmlns="http://www.w3.org/2000/svg">
<path d="M183.967 650.759L402.8 536.904C409.834 533.245 418.499 536.151 421.905 543.311L567.921 850.295C569.143 852.865 571.12 855.002 573.587 856.42L648.766 899.629C652.955 902.037 658.089 902.115 662.348 899.835L878.311 784.254C884.488 780.948 887.27 773.585 884.823 767.021L651.969 142.319C650.722 138.975 648.245 136.233 645.045 134.654L583.454 104.268C579.49 102.313 574.836 102.344 570.898 104.352L348.274 217.911C345.86 219.142 343.856 221.047 342.505 223.395C269.03 351.056 196.899 481.042 121.953 607.91C117.897 614.775 120.369 623.641 127.4 627.403L170.899 650.683C174.975 652.864 179.865 652.893 183.967 650.759Z" fill="black"/>
</svg>
