<svg width="1024" height="1024" viewBox="0 0 1024 1024" fill="none" xmlns="http://www.w3.org/2000/svg">
<g clip-path="url(#clip0_5_51)">
<path d="M549.942 147.654C550.71 147.253 551.622 147.238 552.401 147.616L603.336 172.292L408 273.428L620.951 850.575C620.77 850.513 620.594 850.432 620.427 850.331L611.056 844.665L556.813 814.105C556.193 813.735 555.697 813.189 555.387 812.537L368.704 420.869C368.103 419.786 367.239 418.845 366.179 418.121C365.12 417.396 363.894 416.906 362.596 416.69C361.269 416.608 359.94 416.82 358.719 417.308C357.499 417.796 356.421 418.545 355.578 419.495L185.574 622.969C184.48 624.279 182.624 624.655 181.107 623.874L149.612 607.316C147.334 605.949 146.879 604.126 148.246 601.847L349.473 253.061C349.511 252.991 349.551 252.921 349.595 252.853C349.789 252.53 350.052 252.272 350.383 252.075C350.458 252.026 350.536 251.979 350.618 251.936L549.942 147.654Z" fill="white"/>
</g>
<defs>
<clipPath id="clip0_5_51">
<rect width="1024" height="1024" fill="white"/>
</clipPath>
</defs>
</svg>
