<svg width="1024" height="1024" viewBox="0 0 1024 1024" fill="none" xmlns="http://www.w3.org/2000/svg">
<path d="M574.705 114.7C575.547 114.26 576.548 114.244 577.404 114.658L637.924 143.979C638.615 144.314 639.152 144.9 639.423 145.618L639.651 146.239L422 258.929L653.386 886.037C652.916 886.006 652.451 885.866 652.034 885.614L641.747 879.393L582.243 845.87C581.563 845.464 581.019 844.865 580.68 844.15L375.866 414.448C375.207 413.259 374.26 412.227 373.098 411.432C371.936 410.637 370.591 410.099 369.167 409.863C367.711 409.773 366.253 410.005 364.913 410.54C363.574 411.075 362.392 411.898 361.467 412.94L174.954 636.174C173.754 637.611 171.717 638.022 170.053 637.165L135.5 619C133 617.5 132.5 615.5 134 613L354.773 230.336C354.794 230.297 354.816 230.259 354.839 230.221L354.878 230.155C355.092 229.78 355.392 229.485 355.768 229.261C355.85 229.208 355.936 229.157 356.026 229.11L574.705 114.7Z" fill="white"/>
</svg>
