<svg width="1024" height="1024" viewBox="0 0 1024 1024" fill="none" xmlns="http://www.w3.org/2000/svg">
<path d="M648.061 410.859C638.145 434.714 636.306 461.401 642.849 486.501C648.968 506.607 659.897 524.739 674.597 539.172C696.947 560.99 726.386 573.084 756.939 573C787.492 572.915 816.869 560.658 839.109 538.717L842.28 535.397C852.301 524.554 860.174 511.74 865.442 497.694C870.711 483.648 873.272 468.648 872.977 453.56C872.682 438.472 869.538 423.595 863.725 409.786C857.912 395.978 849.546 383.511 839.109 373.107C820.35 354.821 796.551 343.215 771.115 339.947C745.679 336.679 719.907 341.917 697.484 354.913C675.441 367.169 658.018 386.892 648.061 410.859Z" fill="white"/>
</svg>
