<svg width="16" height="16" viewBox="0 0 16 16" fill="none" xmlns="http://www.w3.org/2000/svg">
<path d="M8 2.66667C9.09848 2.66667 10 3.56819 10 4.66667V6.66667H6V4.66667C6 3.56819 6.90153 2.66667 8 2.66667ZM11.3333 6.66667V4.66667C11.3333 2.83181 9.83486 1.33334 8 1.33334C6.16515 1.33334 4.66667 2.83181 4.66667 4.66667V6.66667H4.00001C3.26363 6.66667 2.66667 7.26362 2.66667 8V13.3333C2.66667 14.0697 3.26363 14.6667 4.00001 14.6667H12C12.7364 14.6667 13.3333 14.0697 13.3333 13.3333V8C13.3333 7.26362 12.7364 6.66667 12 6.66667H11.3333Z" fill="#A1999D"/>
</svg>
