<?xml version="1.0" encoding="utf-8"?>
<!-- Generator: Adobe Illustrator 21.0.0, SVG Export Plug-In . SVG Version: 6.00 Build 0)  -->
<svg version="1.1" id="Layer_1" xmlns="http://www.w3.org/2000/svg" xmlns:xlink="http://www.w3.org/1999/xlink" x="0px" y="0px"
	 viewBox="0 0 900.9 251.4" style="enable-background:new 0 0 900.9 251.4;" xml:space="preserve">
<style type="text/css">
	.st0{fill:#1173B6;}
	.st1{fill:#585D67;}
</style>
<path class="st0" d="M141.7,14.5C133.3,1.7,131.3,0,114.2,0l0,0c-0.1,0-0.1,0-0.2,0c-0.1,0-0.1,0-0.2,0l0,0
	c-17.1,0-19,1.7-27.5,14.5C78.4,26.5,0,170.1,0,174.1c0,5.8,1.5,11.3,6.9,19.1c5.5,7.9,15,12.3,21.9,5.3c4.7-4.7,55-91.4,79.3-124.2
	l0,0c2.9-4.1,8.9-4.1,11.9,0l0,0c24.3,32.8,74.6,119.5,79.3,124.2c6.9,7,16.4,2.6,21.9-5.3c5.4-7.8,6.9-13.3,6.9-19.1
	C228,170.1,149.6,26.4,141.7,14.5z"/>
<g>
	<path class="st1" d="M320.8,2h115.9v28.8h-81.8v49.1H424v28.9h-69.1v56.8h84.7v28.8H320.8V2z"/>
	<path class="st1" d="M501.3,118.9L461.6,55l36.8-5c0,0,24.5,48.4,26.4,51.8L553.7,50h35l-39.4,68.9c-1.1,1.9-1,4.2,0.1,6l42.6,65.5
		l-37.3,4l-29.8-54.1c-2.2,4.1-30.9,54.1-30.9,54.1h-38.2l45.4-69.3C502.4,123.2,502.5,120.8,501.3,118.9z"/>
	<path class="st1" d="M645.5,206.1v40.3l-33.8,5V49.9h27.9l2.4,15.3h1.2c6.1-5.1,12.8-9.5,20.3-13.2s15.2-5.6,23.2-5.6
		c9,0,17,1.7,24,5.1s12.9,8.4,17.8,14.9c4.9,6.5,8.6,14.2,11.2,23.2c2.5,9,3.8,19.1,3.8,30.3c0,12.4-1.7,23.4-5.1,33.1
		c-3.4,9.7-8,17.8-13.7,24.4C719,184,712.4,189,705,192.5c-7.5,3.5-15.2,5.3-23.2,5.3c-6.3,0-12.5-1.4-18.8-4.1
		c-6.3-2.7-12.4-6.7-18.2-11.8L645.5,206.1z M645.5,157.9L645.5,157.9c5.3,4.5,10.4,7.7,15.3,9.4c4.9,1.8,9.5,2.6,13.8,2.6
		c9.6,0,17.6-4.2,24.1-12.5s9.7-20.7,9.7-37.2c0-14.5-2.5-25.8-7.4-33.8s-12.8-12.1-23.8-12.1c-10.2,0-20.8,5.4-31.8,16.2v67.4
		H645.5z"/>
	<path class="st1" d="M763.7,122.3c0-12,1.9-22.6,5.6-32.1c3.7-9.4,8.8-17.4,15.1-23.8c6.4-6.5,13.7-11.4,21.9-14.9
		c8.2-3.4,16.9-5.1,25.9-5.1s17.7,1.7,26,5.1s15.6,8.4,21.9,14.9c6.3,6.5,11.3,14.4,15.1,23.8c3.8,9.4,5.7,20.1,5.7,32.1
		s-1.9,22.6-5.7,32.1c-3.8,9.4-8.9,17.4-15.1,23.8c-6.3,6.5-13.6,11.4-21.9,14.7c-8.3,3.3-17,5-26,5s-17.6-1.7-25.9-5
		s-15.5-8.2-21.9-14.7s-11.4-14.4-15.1-23.8C765.6,144.9,763.7,134.3,763.7,122.3z M798.4,122.3c0,14.5,3,26.1,9,34.9
		c6,8.7,14.3,13.1,24.9,13.1c10.6,0,18.9-4.4,25-13.1c6.1-8.7,9.1-20.3,9.1-34.9c0-14.7-3-26.4-9.1-35.1c-6.1-8.7-14.4-13.1-25-13.1
		s-18.9,4.4-24.9,13.1S798.4,107.6,798.4,122.3z"/>
</g>
</svg>
