<svg width="75" height="26" fill="none" xmlns="http://www.w3.org/2000/svg"><path d="M32.445 17.523V4.193h8.41v2.38h-5.847v2.99h5.316v2.285h-5.316v3.294h5.847v2.38h-8.41zm9.647 0l3.493-5.218-3.284-4.875h2.563l2.259 3.39h.038l2.26-3.39h2.562L48.7 12.305l3.493 5.218h-2.639l-2.392-3.618h-.038l-2.392 3.618h-2.64zm14.082-6.094v2.076c0 .584.196 1.079.589 1.485.392.394.917.59 1.576.59.72 0 1.31-.266 1.765-.8.468-.533.703-1.3.703-2.304 0-1.003-.228-1.77-.684-2.304-.456-.533-1.05-.8-1.784-.8-.659 0-1.184.203-1.576.61a1.971 1.971 0 00-.589 1.447zm-2.468 10.379V7.43h2.354v.97h.038a3.07 3.07 0 01.095-.132 1.75 1.75 0 01.285-.305c.164-.14.342-.267.532-.381a3.14 3.14 0 01.759-.305 3.99 3.99 0 011.044-.133c1.19 0 2.228.482 3.114 1.447.898.953 1.348 2.248 1.348 3.885 0 1.65-.43 2.952-1.291 3.904s-1.905 1.428-3.133 1.428a3.77 3.77 0 01-1.025-.133 3.178 3.178 0 01-.74-.305 6.284 6.284 0 01-.494-.361 2.209 2.209 0 01-.304-.324l-.076-.133h-.038v5.256h-2.468zm13.942-7.028c.405.534.962.8 1.67.8.71 0 1.267-.266 1.672-.8.405-.545.607-1.313.607-2.304 0-.99-.209-1.752-.626-2.285-.405-.546-.956-.819-1.652-.819s-1.253.267-1.67.8c-.406.533-.608 1.301-.608 2.304s.202 1.771.607 2.305zm5.05 1.62c-.886.939-2.012 1.409-3.38 1.409-1.366 0-2.492-.47-3.378-1.41-.886-.94-1.33-2.247-1.33-3.923 0-1.65.456-2.951 1.368-3.904.91-.952 2.025-1.428 3.34-1.428 1.317 0 2.431.476 3.342 1.428.912.953 1.367 2.254 1.367 3.904 0 1.676-.443 2.984-1.329 3.923z" fill="#000020"/><path d="M.204 6.76l2.202 1.28L13.75 1.484 11.524.204.204 6.76z" fill="#fff"/><path fillRule="evenodd" clipRule="evenodd" d="M11.422.027a.203.203 0 01.204 0l2.225 1.28a.203.203 0 010 .354L2.508 8.216a.204.204 0 01-.204 0L.101 6.936a.204.204 0 010-.353L11.423.027zm.103.412L.609 6.759l1.797 1.046 10.936-6.32L11.525.439z" fill="#000020"/><path d="M.204 6.76v13.112l2.225 1.28L2.406 8.04.204 6.76z" fill="#fff"/><path fillRule="evenodd" clipRule="evenodd" d="M.102 6.583a.204.204 0 01.204 0l2.202 1.281a.204.204 0 01.101.176l.023 13.112a.204.204 0 01-.305.177L.102 20.048A.204.204 0 010 19.872V6.76c0-.073.039-.14.102-.177zm.305.53v12.64L2.225 20.8 2.201 8.158.407 7.113z" fill="#000020"/><path d="M2.406 8.04L13.75 1.484v13.112L2.429 21.152 2.406 8.04z" fill="#000020"/><path fillRule="evenodd" clipRule="evenodd" d="M13.851 1.308a.203.203 0 01.102.176v13.112c0 .073-.039.14-.101.176L2.53 21.328a.204.204 0 01-.306-.175L2.202 8.04c0-.073.039-.14.102-.177l11.344-6.556a.203.203 0 01.203 0zM2.61 8.158l.023 12.641 10.914-6.32V1.837L2.61 8.157z" fill="#000020"/><path d="M4.101 9.004l2.203 1.28 11.344-6.556-2.226-1.28-11.32 6.556z" fill="#fff"/><path fillRule="evenodd" clipRule="evenodd" d="M15.32 2.272a.203.203 0 01.204 0l2.225 1.28a.203.203 0 010 .353L6.406 10.46a.204.204 0 01-.204 0L4 9.18a.204.204 0 010-.352l11.322-6.556zm.103.41L4.507 9.005l1.797 1.045L17.24 3.73l-1.817-1.046z" fill="#000020"/><path d="M4.101 9.004v13.112l2.226 1.28-.023-13.112L4.1 9.005z" fill="#fff"/><path fillRule="evenodd" clipRule="evenodd" d="M4 8.827a.204.204 0 01.204 0l2.202 1.281a.204.204 0 01.101.176l.023 13.112a.204.204 0 01-.305.177L4 22.292a.204.204 0 01-.102-.177V9.005c0-.073.039-.14.102-.177zm.305.53v12.64l1.818 1.047L6.1 10.402 4.305 9.357z" fill="#000020"/><path d="M6.304 10.284L17.648 3.73v13.11L6.327 23.396l-.023-13.112z" fill="#000020"/><path fillRule="evenodd" clipRule="evenodd" d="M17.75 3.552a.203.203 0 01.101.176V16.84c0 .073-.038.14-.101.177L6.429 23.572a.203.203 0 01-.306-.175L6.1 10.285c0-.073.039-.14.102-.177l11.344-6.556a.204.204 0 01.203 0zm-11.243 6.85l.023 12.642 10.914-6.321V4.081l-10.937 6.32z" fill="#000020"/><path d="M6.308 12.478l4.128 13.319 2.356-.771L8.499 11.69l-2.191.787z" fill="#fff"/><path fillRule="evenodd" clipRule="evenodd" d="M8.589 11.509c.05.024.087.068.104.12l4.293 13.335a.204.204 0 01-.131.255l-2.355.771a.204.204 0 01-.258-.133L6.113 12.539a.204.204 0 01.126-.252L8.43 11.5a.204.204 0 01.159.009zm-2.03 1.095l4.01 12.935 1.967-.644-4.166-12.94-1.81.65z" fill="#000020"/><path d="M17.646 6.419l4.129 13.318 2.355-.77-4.293-13.335-2.19.787z" fill="#fff"/><path fillRule="evenodd" clipRule="evenodd" d="M19.927 5.45a.2.2 0 01.104.12l4.293 13.334a.204.204 0 01-.13.256l-2.356.77a.203.203 0 01-.257-.133L17.45 6.48a.204.204 0 01.127-.252l2.19-.787a.204.204 0 01.16.01zm-2.029 1.095l4.01 12.934 1.967-.643-4.167-12.941-1.81.65z" fill="#000020"/><path d="M8.499 11.691l11.338-6.059 4.293 13.335-11.338 6.059L8.499 11.69z" fill="#fff"/><path fillRule="evenodd" clipRule="evenodd" d="M19.914 5.443a.203.203 0 01.117.127l4.293 13.334a.203.203 0 01-.098.242l-11.338 6.06a.204.204 0 01-.29-.118L8.305 11.754a.203.203 0 01.098-.242l11.338-6.06a.203.203 0 01.173-.009zm-11.17 6.348l4.167 12.94 10.973-5.864-4.166-12.94L8.745 11.79z" fill="#000020"/><path d="M8.499 11.691l-2.191.787L17.646 6.42l2.191-.787L8.5 11.692z" fill="#fff"/><path fillRule="evenodd" clipRule="evenodd" d="M20.023 5.55a.203.203 0 01-.09.262L8.595 11.87a.194.194 0 01-.027.012l-2.192.787a.204.204 0 01-.164-.371l11.338-6.06a.202.202 0 01.027-.012l2.192-.787c.1-.036.211.012.255.11z" fill="#000020"/><path d="M14.946 10.606l-.765.39-.764.391-.618 9.256 1.503.672 1.145-7.405 5.993 3.757.48-1.686-6.974-5.375z" fill="#000020"/><path fillRule="evenodd" clipRule="evenodd" d="M14.854 10.425a.204.204 0 01.216.02l6.974 5.375a.204.204 0 01.072.217l-.48 1.686a.204.204 0 01-.304.116L15.6 14.246l-1.098 7.1a.203.203 0 01-.284.155l-1.503-.672a.204.204 0 01-.12-.2l.618-9.255a.204.204 0 01.11-.168l1.53-.781zm-1.241 1.091l-.602 9 1.13.505 1.105-7.142a.204.204 0 01.309-.142l5.763 3.613.369-1.292-6.763-5.212-1.311.67z" fill="#000020"/></svg>