<svg id="Capa_1" enable-background="new 0 0 512 512" height="512" viewBox="0 0 512 512" width="512" xmlns="http://www.w3.org/2000/svg"><g><g><g><path d="m197.621 264.997 28.374-70.933c2.467-6.167 8.692-9.977 15.304-9.37 6.613.607 12.041 5.488 13.343 12l22.246 111.233 13.399-33.497c2.278-5.697 7.796-9.433 13.933-9.433h178.3c106.915-188.595-102.09-319.962-226.52-163.307-124.703-156.82-333.37-24.983-226.52 163.307z"/><path d="m314.38 295.009-28.374 70.933c-.57 1.427-4.799 10.336-15.304 9.37-6.613-.607-12.041-5.488-13.343-12l-22.246-111.232-13.399 33.497c-2.278 5.697-7.796 9.433-13.933 9.433h-159.951c71.462 105.118 197.892 181.168 200.45 182.703 4.752 2.851 10.689 2.851 15.441 0 2.558-1.535 128.988-77.586 200.45-182.703h-149.791z"/></g></g></g></svg>