<svg 
  xmlns="http://www.w3.org/2000/svg" 
  xmlns:xlink="http://www.w3.org/1999/xlink"
  id="Layer_1" 
  x="0" 
  y="0" 
  version="1.1" 
  viewBox="0 0 20 20" 
  style="enable-background:new 0 0 20 20" 
  xml:space="preserve"
>
  <path 
    d="M3.6,7.1c0.9-0.3,1.9-0.4,2.8-0.3c1.1,0.1,2.5,0,3.3-0.8l2.1-2.1c0.4-0.4,0.4-1,0-1.4c-0.4-0.4-0.4-1,0-1.4L12,1    c0.3-0.3,0.8-0.3,1.1,0l6,6c0.3,0.3,0.3,0.8,0,1.1L19,8.2c-0.4,0.4-1.1,0.4-1.5,0c-0.4-0.4-1.1-0.4-1.5,0l-2.1,2.1  c-0.8,0.8-0.9,2.2-0.8,3.3c0.1,0.9,0,1.9-0.3,2.8c-0.4,1-1.7,1.1-2.4,0.3l-2.8-2.8l-4.2,4.2c-0.4,0.4-1,0.4-1.4,0   c-0.4-0.4-0.4-1,0-1.4l4.2-4.2L3.3,9.6C2.6,8.8,2.6,7.5,3.6,7.1z"/>
</svg>
