<svg fill="none" height="200" viewBox="0 0 1280 200" width="1280" xmlns="http://www.w3.org/2000/svg"
     xmlns:xlink="http://www.w3.org/1999/xlink">
    <linearGradient id="a">
        <stop offset="0" stop-color="#fff"/>
        <stop offset="1" stop-color="#fff" stop-opacity="0"/>
    </linearGradient>
    <linearGradient id="b" gradientUnits="userSpaceOnUse" x1="1001.15" x2="1001.15" xlink:href="#a" y1="41.7198"
                    y2="156.574"/>
    <linearGradient id="c" gradientUnits="userSpaceOnUse" x1="1001.15" x2="1001.15" xlink:href="#a" y1="136.237"
                    y2="62.0559"/>
    <linearGradient id="d" gradientUnits="userSpaceOnUse" x1="1001.15" x2="1001.15" xlink:href="#a" y1="83.0358"
                    y2="115.258"/>
    <linearGradient id="e" gradientUnits="userSpaceOnUse" x1="924.194" x2="806.128" xlink:href="#a" y1="157"
                    y2="42.1455"/>
    <linearGradient id="f" gradientUnits="userSpaceOnUse" x1="510.494" x2="510.494" y1="8.1263" y2="289.411">
        <stop offset="0" stop-color="#03c"/>
        <stop offset="1" stop-color="#03c" stop-opacity="0"/>
    </linearGradient>
    <linearGradient id="g" gradientUnits="userSpaceOnUse" x1="729" x2="729" xlink:href="#a" y1="156.5" y2="41.5"/>
    <clipPath id="h">
        <path d="m0 0h1280v200h-1280z" transform="matrix(-1 -0 0 -1 1280 200)"/>
    </clipPath>
    <mask id="i" height="118" maskUnits="userSpaceOnUse" width="116" x="809" y="39">
        <path d="m809.34 157h114.854v-4.761h-114.854z" fill="#03c"/>
        <path d="m809.34 147.645h114.854v-4.762h-114.854z" fill="#03c"/>
        <path d="m809.34 138.29h114.854v-4.761h-114.854z" fill="#03c"/>
        <path d="m809.34 128.934h114.854v-4.761h-114.854z" fill="#03c"/>
        <path d="m809.34 119.579h114.854v-4.761h-114.854z" fill="#03c"/>
        <path d="m809.34 110.224h114.854v-4.761h-114.854z" fill="#03c"/>
        <path d="m809.34 100.869h114.854v-4.7611l-114.854-.0001z" fill="#03c"/>
        <path d="m809.34 91.5134h114.854v-4.761h-114.854z" fill="#03c"/>
        <path d="m809.34 82.1579h114.854v-4.761l-114.854-.0001z" fill="#03c"/>
        <path d="m809.34 72.803h114.854v-4.761h-114.854z" fill="#03c"/>
        <path d="m809.34 63.4476h114.854v-4.7611h-114.854z" fill="#03c"/>
        <path d="m809.34 54.0926 114.854.0001v-4.7611h-114.854z" fill="#03c"/>
        <path d="m809.34 44.7372h114.854v-4.7611h-114.854z" fill="#03c"/>
    </mask>
    <mask id="j" height="200" maskUnits="userSpaceOnUse" width="200" x="-10" y="0">
        <path
                d="m90 199c54.676 0 99-44.324 99-99 0-54.6762-44.324-98.99999-99-98.99999-54.6762-.00001-98.99998 44.32379-98.99999 98.99999 0 54.676 44.32379 99 98.99999 99z"
                fill="#d9d9d9" fill-opacity=".66" stroke="#fff" stroke-opacity=".66" stroke-width="2"/>
    </mask>
    <g clip-path="url(#h)">
        <g stroke-dasharray="4.15 4.15" stroke-opacity=".66" stroke-width="2">
            <path
                    d="m1001.15 42.294c-31.402 0-56.856 25.454-56.856 56.853s25.454 56.853 56.856 56.853c31.4 0 56.85-25.454 56.85-56.853s-25.45-56.853-56.85-56.853z"
                    stroke="url(#b)"/>
            <path
                    d="m1001.15 62.63c-20.171 0-36.52 16.349-36.52 36.5165s16.349 36.5165 36.52 36.5165c20.16 0 36.51-16.349 36.51-36.5165s-16.35-36.5165-36.51-36.5165z"
                    stroke="url(#c)"/>
            <path
                    d="m1001.15 83.6103c-8.584 0-15.54 6.9561-15.54 15.5369s6.956 15.5368 15.54 15.5368c8.58 0 15.53-6.956 15.53-15.5368s-6.95-15.5369-15.53-15.5369z"
                    stroke="url(#d)"/>
        </g>
        <g mask="url(#i)">
            <path
                    d="m866.767 42.1455c-31.716 0-57.427 25.711-57.427 57.4272 0 31.7163 25.711 57.4273 57.427 57.4273s57.427-25.711 57.427-57.4273c0-31.7162-25.711-57.4272-57.427-57.4272z"
                    fill="url(#e)" fill-opacity=".66"/>
        </g>
        <path d="m0 201h1280v-200.99989319l-1279.99998243-.0001119z" fill="url(#f)"/>
        <path d="m729 53c-25.405 0-46 20.5949-46 46 0 25.405 20.595 46 46 46s46-20.595 46-46c0-25.4051-20.595-46-46-46z"
              stroke="url(#g)" stroke-opacity=".2" stroke-width="40"/>
    </g>
</svg>
