<svg fill="none" height="311" viewBox="0 0 524 311" width="524" xmlns="http://www.w3.org/2000/svg"><path d="m138.818 134.767v-134.76694503l83.043-.00000363v134.76694866z" fill="#000"/><path d="m.999983 231.523h167.855017v-96.756h-167.855021z" fill="#006cff"/><path d="m9.83445 231.523h3.53375v-96.756h-3.53375z" fill="#fff"/><path d="m9.83445 231.523h3.53375v-96.756h-3.53375z" fill="#f51010"/><path d="m16.902 231.523h3.5338v-96.756h-3.5338z" fill="#f51010"/><path d="m23.9696 231.523h3.5337v-96.756h-3.5337z" fill="#f51010"/><path d="m31.0371 231.523h3.5338v-96.756h-3.5338z" fill="#f51010"/><path d="m38.1047 231.523h3.5338v-96.756h-3.5338z" fill="#f51010"/><path d="m45.1723 231.523h3.5338v-96.756h-3.5338z" fill="#f51010"/><path d="m52.2398 231.523h3.5338v-96.756h-3.5338z" fill="#f51010"/><path d="m59.3074 231.523h3.5338v-96.756h-3.5338z" fill="#f51010"/><path d="m66.375 231.523h3.5337v-96.756h-3.5338z" fill="#f51010"/><path d="m73.4425 231.523h3.5338v-96.756h-3.5338z" fill="#f51010"/><path d="m80.5101 231.523h3.5338v-96.756h-3.5338z" fill="#f51010"/><path d="m87.5777 231.523h3.5338v-96.756h-3.5338z" fill="#f51010"/><path d="m94.6453 231.523h3.5338v-96.756h-3.5338z" fill="#f51010"/><path d="m101.713 231.523h3.534v-96.756h-3.534z" fill="#f51010"/><path d="m108.78 231.523h3.534v-96.756h-3.534z" fill="#f51010"/><path d="m115.848 231.523h3.534v-96.756h-3.534z" fill="#f51010"/><path d="m122.916 231.523h3.533v-96.756h-3.533z" fill="#f51010"/><path d="m129.983 231.523h3.534v-96.756h-3.534z" fill="#f51010"/><path d="m137.051 231.523h3.534v-96.756h-3.534z" fill="#f51010"/><path d="m144.118 231.523h3.534v-96.756h-3.534z" fill="#f51010"/><path d="m151.186 231.523h3.534v-96.756h-3.534z" fill="#f51010"/><path d="m158.253 231.523h3.534v-96.756h-3.534z" fill="#f51010"/><path d="m165.321 231.523h3.534v-96.756h-3.534z" fill="#f51010"/><path d="m61.0743 134.767h136.9337l-59.19-96.7558h-77.7437z" fill="#f3ad0d"/><path d="m395.017 146.861h-167.855v-84.6609h167.855z" fill="#f3ad0d"/><path d="m386.182 146.861h-3.533v-84.6609h3.533z" fill="#fff"/><g fill="#000"><path d="m386.182 146.861h-3.533v-84.6609h3.533z"/><path d="m379.115 146.861h-3.534v-84.6609h3.534z"/><path d="m372.047 146.861h-3.534v-84.6609h3.534z"/><path d="m364.98 146.861h-3.534v-84.6609h3.534z"/><path d="m357.912 146.861h-3.534v-84.6609h3.534z"/><path d="m350.845 146.861h-3.534v-84.6609h3.534z"/><path d="m343.777 146.861h-3.534v-84.6609h3.534z"/><path d="m336.709 146.861h-3.533v-84.6609h3.533z"/><path d="m329.642 146.861h-3.534v-84.6609h3.534z"/><path d="m322.574 146.861h-3.534v-84.6609h3.534z"/><path d="m315.507 146.861h-3.534v-84.6609h3.534z"/><path d="m308.439 146.861h-3.534v-84.6609h3.534z"/><path d="m301.372 146.861h-3.534v-84.6609h3.534z"/><path d="m294.304 146.861h-3.534v-84.6609h3.534z"/><path d="m287.236 146.861h-3.533v-84.6609h3.533z"/><path d="m280.169 146.861h-3.534v-84.6609h3.534z"/><path d="m271.5 146.861h-1.933v-84.6609h3.534z"/><path d="m266.034 146.861h-3.534v-84.6609h3.534z"/><path d="m258.966 146.861h-3.534v-84.6609h3.534z"/><path d="m251.899 146.861h-3.534v-84.6609h3.534z"/><path d="m244.831 146.861h-3.534v-84.6609h3.534z"/><path d="m237.763 146.861h-3.533v-84.6609h3.533z"/><path d="m230.696 146.861h-3.534v-84.6609h3.534z"/></g><path d="m197.125 311v-260.8944h75.976v260.8944z" fill="#f51010"/><path d="m197.125 311v-164.139l75.976 82.934v81.205z" fill="#006cff"/><path d="m273.101 229.795-1.601-2.795v-80.139h84.645v82.934z" fill="#f51010"/><path d="m273.101 311v-81.205h83.044v81.205z" fill="#000"/><path d="m356.145 146.861v-134.7665h83.044v134.7665z" fill="#000"/><path d="m356.145 311v-164.139h75.977v164.139z" fill="#f51010"/><path d="m356.145 302.362v-3.456h75.977v3.456z" fill="#fff"/><path d="m356.145 302.362v-3.456h75.977v3.456z" fill="#000"/><path d="m356.145 295.451v-3.456h75.977v3.456z" fill="#000"/><path d="m356.145 288.54v-3.456h75.977v3.456z" fill="#000"/><path d="m356.145 281.628v-3.455h75.977v3.455z" fill="#000"/><path d="m356.145 274.717v-3.455h75.977v3.455z" fill="#000"/><path d="m356.145 267.806v-3.455h75.977v3.455z" fill="#000"/><path d="m356.145 260.895v-3.455h75.977v3.455z" fill="#000"/><path d="m356.145 253.984v-3.455h75.977v3.455z" fill="#000"/><path d="m356.145 247.073v-3.455h75.977v3.455z" fill="#000"/><path d="m356.145 240.162v-3.455h75.977v3.455z" fill="#000"/><path d="m356.145 233.251v-3.456h75.977v3.456z" fill="#000"/><path d="m356.145 226.34v-3.456h75.977v3.456z" fill="#000"/><path d="m356.145 219.429v-3.456h75.977v3.456z" fill="#000"/><path d="m356.145 212.518v-3.456h75.977v3.456z" fill="#000"/><path d="m356.145 205.607v-3.456h75.977v3.456z" fill="#000"/><path d="m356.145 198.695v-3.455h75.977v3.455z" fill="#000"/><path d="m356.145 191.784v-3.455h75.977v3.455z" fill="#000"/><path d="m356.145 184.873v-3.455h75.977v3.455z" fill="#000"/><path d="m356.145 177.962v-3.456h75.977v3.456z" fill="#000"/><path d="m356.145 171.051v-3.456h75.977v3.456z" fill="#000"/><path d="m356.145 164.139v-3.455h75.977v3.455z" fill="#000"/><path d="m356.145 157.228v-3.455h75.977v3.455z" fill="#000"/><path d="m356.145 150.317v-3.456h75.977v3.456z" fill="#000"/><path d="m524 311h-167.855l76.86-82.932h90.995z" fill="#f3ad0d"/><path d="m524 146.861h-83.927-83.928l76.86-82.9331h90.995z" fill="#f51010"/><path d="m138.818 214.245v-79.478h58.307v79.478z" fill="#fff"/><path d="m197.125 311h-197.008409l-.000017-79.477h90.994926 106.8885z" fill="#f51010"/><path d="m228.929 311h-167.8547l76.8597-96.755h90.995z" fill="#f3ad0d"/></svg>