<svg width="209" height="147" viewBox="0 0 209 147" fill="none" xmlns="http://www.w3.org/2000/svg">
  <g id="1492c671d412c9fba8d37da98e0b7506">
    <g id="6207f5a15fd0a3938c7cbd7a044eb42d">
      <path id="e46e3e19db8d7c45983de01f4fe62f04" d="M183.128 144.263L119.366 135.302C114.444 134.61 111.014 130.059 111.706 125.137L124.35 35.1756C125.041 30.2535 129.592 26.824 134.514 27.5158L173.361 32.9753C175.724 33.3075 177.859 34.565 179.296 36.4713L200.71 64.8888C202.146 66.7951 202.767 69.194 202.435 71.5577L193.293 136.603C192.601 141.526 188.05 144.955 183.128 144.263Z" stroke="#E1E4E8" stroke-width="2"></path>
      <path id="a330036a2dc96b9427c15f35cc66ac18" d="M201.743 66.6946L201.604 67.6848C201.959 67.7348 202.315 67.5902 202.534 67.306C202.754 67.0217 202.804 66.6415 202.666 66.31L201.743 66.6946ZM177.281 34.5723L177.778 33.7045C177.49 33.5396 177.139 33.5283 176.841 33.6742C176.543 33.8202 176.337 34.1045 176.291 34.4331L177.281 34.5723ZM188.264 64.6235L188.418 63.6353L188.41 63.6342L188.403 63.6332L188.264 64.6235ZM189.883 50.5392L189.079 51.1347L189.087 51.1443L189.883 50.5392ZM179.56 36.6142L180.364 36.0187L180.327 35.969L180.284 35.9242L179.56 36.6142ZM199.944 63.7779L199.148 64.383L199.172 64.4145L199.198 64.444L199.944 63.7779ZM175.814 54.9321C176.313 50.8155 176.922 45.7995 177.409 41.7908C177.653 39.7865 177.866 38.034 178.02 36.7717C178.096 36.1406 178.158 35.6321 178.202 35.276C178.224 35.0979 178.241 34.9582 178.253 34.8604C178.266 34.755 178.272 34.7114 178.272 34.7114L176.291 34.4331C176.265 34.6209 174.826 46.47 173.828 54.6911L175.814 54.9321ZM201.882 65.7043C201.126 65.5981 197.767 65.0819 194.583 64.5902C192.994 64.3447 191.452 64.106 190.308 63.9287C189.736 63.84 189.264 63.7667 188.934 63.7155C188.769 63.6899 188.64 63.6699 188.552 63.6562C188.508 63.6494 188.475 63.6442 188.452 63.6407C188.441 63.6389 188.432 63.6376 188.426 63.6367C188.423 63.6362 188.421 63.6359 188.42 63.6357C188.419 63.6356 188.419 63.6355 188.418 63.6354C188.418 63.6354 188.418 63.6354 188.418 63.6354C188.418 63.6353 188.418 63.6353 188.264 64.6235C188.111 65.6116 188.111 65.6116 188.111 65.6117C188.111 65.6117 188.111 65.6117 188.111 65.6117C188.112 65.6118 188.112 65.6119 188.113 65.612C188.114 65.6122 188.116 65.6125 188.119 65.613C188.125 65.6139 188.134 65.6152 188.145 65.617C188.168 65.6205 188.201 65.6257 188.245 65.6325C188.333 65.6462 188.462 65.6662 188.627 65.6918C188.957 65.743 189.43 65.8164 190.002 65.9051C191.146 66.0825 192.688 66.3212 194.277 66.5667C197.451 67.0568 200.83 67.5762 201.604 67.6848L201.882 65.7043ZM188.403 63.6332L181.789 62.7036L181.51 64.6842L188.125 65.6138L188.403 63.6332ZM176.784 35.4401C177.025 35.578 177.507 35.997 178.004 36.4726C178.234 36.6933 178.443 36.9022 178.595 37.0562C178.671 37.1331 178.732 37.1958 178.774 37.2391C178.795 37.2607 178.811 37.2773 178.821 37.2884C178.827 37.294 178.831 37.2981 178.833 37.3008C178.835 37.3021 178.835 37.3031 178.836 37.3036C178.836 37.3039 178.836 37.3041 178.837 37.3042C178.837 37.3043 178.837 37.3043 178.837 37.3043C178.837 37.3043 178.837 37.3043 178.837 37.3043C178.837 37.3042 178.837 37.3042 179.56 36.6142C180.284 35.9242 180.284 35.9241 180.284 35.9241C180.284 35.924 180.284 35.924 180.284 35.9239C180.284 35.9238 180.284 35.9237 180.284 35.9236C180.283 35.9233 180.283 35.9229 180.282 35.9224C180.281 35.9214 180.28 35.92 180.278 35.9183C180.275 35.9147 180.27 35.9097 180.264 35.9033C180.252 35.8904 180.234 35.8718 180.211 35.8482C180.165 35.8011 180.1 35.7338 180.019 35.652C179.858 35.4887 179.635 35.2657 179.387 35.0283C178.927 34.5878 178.27 33.9858 177.778 33.7045L176.784 35.4401ZM178.757 37.2097L189.079 51.1347L190.686 49.9437L180.364 36.0187L178.757 37.2097ZM189.087 51.1443L199.148 64.383L200.74 63.1729L190.679 49.9341L189.087 51.1443ZM199.944 63.7779C199.198 64.444 199.198 64.4439 199.198 64.4438C199.198 64.4437 199.198 64.4436 199.197 64.4435C199.197 64.4434 199.197 64.4433 199.197 64.4432C199.197 64.443 199.197 64.4428 199.197 64.4428C199.197 64.4426 199.197 64.4428 199.197 64.4432C199.198 64.4441 199.2 64.4462 199.203 64.4494C199.208 64.4557 199.217 64.4665 199.23 64.4817C199.256 64.512 199.296 64.5594 199.346 64.6225C199.448 64.7488 199.593 64.9369 199.759 65.1749C200.094 65.6543 200.503 66.3196 200.82 67.0792L202.666 66.31C202.278 65.3788 201.787 64.5857 201.399 64.0296C201.204 63.7498 201.031 63.5257 200.905 63.3693C200.842 63.2911 200.791 63.2295 200.754 63.1862C200.736 63.1645 200.721 63.1473 200.71 63.1349C200.705 63.1287 200.7 63.1236 200.697 63.1198C200.695 63.1179 200.694 63.1162 200.692 63.1149C200.692 63.1143 200.691 63.1137 200.691 63.1132C200.691 63.1129 200.69 63.1127 200.69 63.1125C200.69 63.1124 200.69 63.1122 200.69 63.1122C200.69 63.112 200.69 63.1119 199.944 63.7779ZM173.828 54.6911C173.237 59.5602 176.655 64.0017 181.51 64.6842L181.789 62.7036C178.011 62.1727 175.354 58.7181 175.814 54.9321L173.828 54.6911Z" fill="#E1E4E8"></path>
    </g>
    <g id="ab5c9121b80cc7354eb034d1154b32c1">
      <path id="ac95faff23b84743588276fd0943cff8" d="M89.6333 135.302L25.8714 144.263C20.9492 144.955 16.3982 141.526 15.7064 136.603L3.06315 46.6419C2.37138 41.7197 5.80082 37.1687 10.723 36.477L49.5692 31.0175C51.9329 30.6853 54.3318 31.3057 56.2381 32.7422L84.6555 54.1563C86.5619 55.5928 87.8194 57.7277 88.1516 60.0914L97.2932 125.137C97.985 130.059 94.5555 134.61 89.6333 135.302Z" stroke="#E1E4E8" stroke-width="2"></path>
      <path id="4532e87fd1f2374eca95778f1af42aac" d="M86.1465 55.6076L86.2856 56.5978C86.6413 56.5479 86.9429 56.3109 87.0756 55.9772C87.2084 55.6434 87.152 55.2641 86.9278 54.9834L86.1465 55.6076ZM53.7783 31.4722L54.0168 30.501C53.6946 30.4219 53.3541 30.5077 53.1079 30.7302C52.8617 30.9527 52.7419 31.2828 52.7881 31.6113L53.7783 31.4722ZM72.619 57.332L72.4941 56.3398L72.4869 56.3407L72.4798 56.3417L72.619 57.332ZM70.2927 43.3471L69.6846 44.1411L69.6941 44.1482L70.2927 43.3471ZM56.532 32.8068L57.14 32.0129L57.0909 31.9753L57.0375 31.944L56.532 32.8068ZM83.6131 53.2998L83.0146 54.1009L83.0463 54.1246L83.0797 54.1457L83.6131 53.2998ZM57.9796 51.4478C57.3252 47.3529 56.5279 42.3634 55.8911 38.3758C55.5728 36.382 55.2945 34.6387 55.0943 33.3829C54.9943 32.755 54.9137 32.2491 54.8574 31.8948C54.8293 31.7176 54.8072 31.5786 54.7919 31.4813C54.7753 31.3764 54.7686 31.333 54.7686 31.333L52.7881 31.6113C52.8144 31.7992 54.6977 43.5857 56.0047 51.7634L57.9796 51.4478ZM86.0073 54.6173C85.2515 54.7235 81.8797 55.1534 78.6836 55.5583C77.0885 55.7604 75.5411 55.9558 74.3925 56.1006C73.8182 56.173 73.3436 56.2328 73.0125 56.2745C72.847 56.2954 72.7174 56.3117 72.6292 56.3228C72.5851 56.3283 72.5513 56.3326 72.5286 56.3355C72.5172 56.3369 72.5086 56.338 72.5028 56.3387C72.4999 56.3391 72.4978 56.3393 72.4963 56.3395C72.4956 56.3396 72.495 56.3397 72.4947 56.3397C72.4945 56.3397 72.4944 56.3398 72.4943 56.3398C72.4942 56.3398 72.4941 56.3398 72.619 57.332C72.7438 58.3241 72.7438 58.3241 72.7439 58.3241C72.744 58.3241 72.7441 58.3241 72.7443 58.3241C72.7447 58.324 72.7452 58.324 72.746 58.3239C72.7474 58.3237 72.7496 58.3234 72.7525 58.3231C72.7583 58.3223 72.7669 58.3212 72.7783 58.3198C72.801 58.3169 72.8348 58.3127 72.879 58.3071C72.9672 58.296 73.0969 58.2797 73.2625 58.2589C73.5936 58.2171 74.0683 58.1573 74.6427 58.0849C75.7916 57.94 77.3394 57.7446 78.935 57.5424C82.1204 57.1389 85.5123 56.7065 86.2856 56.5978L86.0073 54.6173ZM72.4798 56.3417L65.8653 57.2713L66.1437 59.2518L72.7581 58.3222L72.4798 56.3417ZM53.5398 32.4433C53.8094 32.5095 54.3881 32.7794 54.9966 33.0998C55.2788 33.2484 55.5375 33.3915 55.726 33.4977C55.82 33.5507 55.896 33.5942 55.9482 33.6242C55.9742 33.6392 55.9942 33.6509 56.0075 33.6586C56.0142 33.6624 56.0191 33.6653 56.0223 33.6672C56.0239 33.6681 56.025 33.6688 56.0257 33.6692C56.0261 33.6694 56.0263 33.6695 56.0264 33.6696C56.0265 33.6696 56.0265 33.6696 56.0265 33.6696C56.0265 33.6696 56.0265 33.6696 56.0265 33.6696C56.0264 33.6696 56.0264 33.6696 56.532 32.8068C57.0375 31.944 57.0375 31.944 57.0374 31.9439C57.0374 31.9439 57.0373 31.9439 57.0373 31.9438C57.0371 31.9438 57.037 31.9437 57.0368 31.9436C57.0364 31.9434 57.036 31.9431 57.0354 31.9427C57.0342 31.942 57.0326 31.9411 57.0305 31.9399C57.0263 31.9374 57.0203 31.9339 57.0125 31.9294C56.9971 31.9205 56.9748 31.9075 56.9463 31.8911C56.8895 31.8584 56.808 31.8118 56.7079 31.7553C56.508 31.6428 56.232 31.49 55.9283 31.3301C55.3648 31.0334 54.5667 30.636 54.0168 30.501L53.5398 32.4433ZM55.9239 33.6007L69.6846 44.141L70.9008 42.5533L57.14 32.0129L55.9239 33.6007ZM69.6941 44.1482L83.0146 54.1009L84.2117 52.4987L70.8912 42.546L69.6941 44.1482ZM83.6131 53.2998C83.0797 54.1457 83.0796 54.1456 83.0794 54.1455C83.0794 54.1455 83.0793 54.1454 83.0792 54.1453C83.079 54.1452 83.0789 54.1452 83.0788 54.1451C83.0785 54.1449 83.0784 54.1448 83.0783 54.1448C83.0782 54.1447 83.0783 54.1448 83.0788 54.1451C83.0799 54.1458 83.0822 54.1473 83.0857 54.1495C83.0928 54.1541 83.1048 54.1619 83.1213 54.1729C83.1544 54.195 83.2056 54.2296 83.2717 54.2763C83.4042 54.3697 83.5955 54.5105 83.8209 54.6935C84.275 55.062 84.8516 55.5888 85.3651 56.2317L86.9278 54.9834C86.2982 54.1953 85.6081 53.5681 85.0813 53.1406C84.8163 52.9255 84.5886 52.7577 84.4247 52.6421C84.3426 52.5842 84.2763 52.5391 84.2289 52.5076C84.2052 52.4919 84.1862 52.4795 84.1724 52.4705C84.1654 52.466 84.1598 52.4624 84.1555 52.4596C84.1533 52.4583 84.1515 52.4571 84.15 52.4562C84.1492 52.4557 84.1486 52.4553 84.148 52.4549C84.1477 52.4547 84.1475 52.4545 84.1472 52.4544C84.1471 52.4543 84.1469 52.4542 84.1469 52.4542C84.1467 52.4541 84.1465 52.454 83.6131 53.2998ZM56.0047 51.7634C56.7788 56.6068 61.2877 59.9343 66.1437 59.2518L65.8653 57.2713C62.0875 57.8022 58.5815 55.2138 57.9796 51.4478L56.0047 51.7634Z" fill="#E1E4E8"></path>
    </g>
    <g id="5db864c1535f92afd6828f7d960181f4">
      <g id="884acebe20a348fa2ce507b89ee08c33" filter="url(#14fa04df679ff4e0c40e1e4228e931e9)">
        <path d="M77.3291 121.846H141.718C147.241 121.846 151.718 117.368 151.718 111.846V46.1606C151.718 43.5085 150.664 40.9649 148.789 39.0896L123.628 13.9289C121.753 12.0536 119.209 11 116.557 11H77.3291C71.8063 11 67.3291 15.4772 67.3291 21V111.846C67.3291 117.368 71.8062 121.846 77.3291 121.846Z" fill="url(#508d73e3129c24aeb8d93641eed2dfb8)"></path>
      </g>
      <g id="d4f8cbc13dac470d797052695f3003e3" filter="url(#12854b99b57994cc688795036312252f)">
        <path d="M121.376 11.8022L121.376 32.7913C121.376 37.2096 124.958 40.7913 129.376 40.7913H135.906H150.435L121.376 11.8022Z" fill="url(#f7beb0fa7b728966de0f23300a639c0a)"></path>
      </g>
    </g>
    <path id="f9810cee8f76fc90b6f44e2b39d795fb" d="M90.1007 61.8833C89.5233 62.8833 90.245 64.1333 91.3997 64.1333H94.7842L95.9618 100.463V100.466C95.9618 100.984 96.2242 101.44 96.6232 101.71C96.7915 101.824 96.9841 101.904 97.1916 101.942C97.2792 101.958 97.3696 101.966 97.4619 101.966C98.2903 101.966 98.9619 101.295 98.9619 100.466L99.5929 84.3674C100.639 82.2203 102.874 80.7837 105.462 80.7837H113.585C118.832 80.7837 122.42 77.2495 123.5 71.1371C124.579 65.0246 124.348 64.1372 124.348 64.1372H127.647C128.802 64.1372 129.523 62.8872 128.946 61.8872L122.884 51.3872C122.307 50.3872 120.863 50.3872 120.286 51.3872L114.224 61.8872C113.646 62.8872 114.368 64.1372 115.523 64.1372H119.06C119.06 64.1372 119.145 67.5127 118.891 71.1371C118.637 74.7614 117.175 77.2495 113.585 77.2495H105.462C103.319 77.2495 101.342 78.0237 99.7521 79.2972L100.228 64.1333H103.524C104.679 64.1333 105.4 62.8833 104.823 61.8833L98.7609 51.3833C98.1836 50.3833 96.7402 50.3833 96.1628 51.3833L90.1007 61.8833Z" fill="#596068"></path>
  </g>
  <defs>
    <filter id="14fa04df679ff4e0c40e1e4228e931e9" x="61.3291" y="7" width="96.3886" height="122.846" filterUnits="userSpaceOnUse" color-interpolation-filters="sRGB">
      <feFlood flood-opacity="0" result="BackgroundImageFix"></feFlood>
      <feColorMatrix in="SourceAlpha" type="matrix" values="0 0 0 0 0 0 0 0 0 0 0 0 0 0 0 0 0 0 127 0" result="hardAlpha"></feColorMatrix>
      <feOffset dy="2"></feOffset>
      <feGaussianBlur stdDeviation="3"></feGaussianBlur>
      <feColorMatrix type="matrix" values="0 0 0 0 0 0 0 0 0 0 0 0 0 0 0 0 0 0 0.15 0"></feColorMatrix>
      <feBlend mode="normal" in2="BackgroundImageFix" result="effect1_dropShadow"></feBlend>
      <feBlend mode="normal" in="SourceGraphic" in2="effect1_dropShadow" result="shape"></feBlend>
    </filter>
    <filter id="12854b99b57994cc688795036312252f" x="106.376" y="0.802246" width="53.0592" height="52.9891" filterUnits="userSpaceOnUse" color-interpolation-filters="sRGB">
      <feFlood flood-opacity="0" result="BackgroundImageFix"></feFlood>
      <feColorMatrix in="SourceAlpha" type="matrix" values="0 0 0 0 0 0 0 0 0 0 0 0 0 0 0 0 0 0 127 0" result="hardAlpha"></feColorMatrix>
      <feOffset dx="-3" dy="1"></feOffset>
      <feGaussianBlur stdDeviation="6"></feGaussianBlur>
      <feColorMatrix type="matrix" values="0 0 0 0 0 0 0 0 0 0 0 0 0 0 0 0 0 0 0.2 0"></feColorMatrix>
      <feBlend mode="normal" in2="BackgroundImageFix" result="effect1_dropShadow"></feBlend>
      <feBlend mode="normal" in="SourceGraphic" in2="effect1_dropShadow" result="shape"></feBlend>
    </filter>
    <linearGradient id="508d73e3129c24aeb8d93641eed2dfb8" x1="109.523" y1="11" x2="109.523" y2="121.846" gradientUnits="userSpaceOnUse">
      <stop stop-color="#ECECEC"></stop>
      <stop offset="1" stop-color="#F9F9F9"></stop>
    </linearGradient>
    <linearGradient id="f7beb0fa7b728966de0f23300a639c0a" x1="137.616" y1="24.9053" x2="127.801" y2="34.5539" gradientUnits="userSpaceOnUse">
      <stop stop-color="#E6E6E6"></stop>
      <stop offset="1" stop-color="#FDFDFD"></stop>
    </linearGradient>
  </defs>
</svg>
