<svg width="256" height="256" viewBox="0 0 256 256" fill="none" xmlns="http://www.w3.org/2000/svg">
<path d="M115 136.758C115.047 137.332 115.249 137.909 115.778 138.684C116.406 139.604 117.485 140.109 118.273 139.298C118.804 138.751 124.55 128.708 127.319 124.901C127.395 124.792 127.496 124.703 127.613 124.642C127.731 124.58 127.862 124.548 127.995 124.548C128.127 124.548 128.258 124.58 128.376 124.642C128.493 124.703 128.595 124.792 128.671 124.901C131.44 128.708 137.186 138.751 137.716 139.298C138.504 140.109 139.583 139.604 140.211 138.684C140.829 137.779 141 137.146 141 136.468C141 136.006 132.052 119.353 131.15 117.966C130.284 116.634 130.019 116.344 128.554 116.296H127.436C125.97 116.344 125.706 116.633 124.838 117.966C123.956 119.324 115.358 135.321 115 136.418V136.758Z" fill="black"/>
</svg>
