<svg
  width="145"
  height="145"
  viewBox="60 15 145 145"
  fill="none"
  xmlns="http://www.w3.org/2000/svg"
>
  <path
    d="M137 120.5L87 126H85L110.5 111.5L179.62 101.085C182.191 100.697 184.807 100.713 187.373 101.132L192.416 101.956C198.884 103.012 201.408 110.97 196.731 115.561L189.771 122.391C184.056 128.001 176.788 131.766 168.908 133.199L153.5 136L137 120.5Z"
    fill="#0587F0"
  />

  <g>
    <path
      d="M86.5 127.5L129 47.5L141.102 49.0128C148.427 49.9283 154.651 54.8033 157.295 61.6945L177.113 113.351C180.448 122.045 175.139 131.645 166.003 133.442L155.95 135.42C154.135 135.777 152.271 135.102 151.104 133.667L128.667 106.052C127.58 104.713 126.123 103.723 124.479 103.204C120.432 101.926 116.05 103.712 114.048 107.453L108.946 116.992C107.069 120.502 103.805 123.063 99.9495 124.051L86.5 127.5Z"
      fill="#0587F0"
    />
    <path
      d="M73.5748 106.891L103.985 60.2839C108.922 52.7168 117.613 48.4677 126.617 49.2181C136.022 50.0018 144.149 56.1005 147.529 64.9123L166.063 113.223C169.462 122.081 164.233 131.897 154.986 134.02C147.506 135.736 139.889 131.759 137.022 124.641L131.109 109.96C128.889 104.449 123.801 100.621 117.891 100.014C111.834 99.3932 105.948 102.262 102.706 107.417L94.5735 120.345C91.1353 125.811 84.093 127.748 78.343 124.809C71.7475 121.438 69.5272 113.094 73.5748 106.891Z"
      fill="#C9E7FF"
      stroke="#0587F0"
      stroke-width="3"
      stroke-linecap="round"
      stroke-linejoin="round"
    />
    <ellipse cx="129.5" cy="78.5" rx="3.5" ry="5.5" fill="#0587F0" />
    <path
      d="M106.5 93C109.333 88.1667 118 81.9 130 95.5"
      stroke="#0587F0"
      stroke-width="3"
      stroke-linecap="round"
    />
    <path
      d="M128.5 64C128.166 66.5 129.4 71.6 137 72"
      stroke="#0587F0"
      stroke-width="3"
      stroke-linecap="round"
    />
    <path
      d="M117 63C115.833 65.1667 111.8 69.2 105 68"
      stroke="#0587F0"
      stroke-width="3"
      stroke-linecap="round"
    />
    <path
      d="M128.5 48.5C128.333 44.5 128.7 36.4 131.5 36"
      stroke="#0587F0"
      stroke-width="3"
      stroke-linecap="round"
    />
    <ellipse cx="110.5" cy="76.5" rx="3.5" ry="5.5" fill="#0587F0" />
    <circle cx="137" cy="34" r="5" stroke="#0587F0" stroke-width="3" />
    <mask
      id="path-15-outside-1_139_974"
      maskUnits="userSpaceOnUse"
      x="112.999"
      y="135"
      width="26"
      height="28"
      fill="black"
    >
      <rect fill="white" x="112.999" y="135" width="26" height="28" />
      <path d="M126.612 139.16C127.363 138.84 128.234 139.008 128.812 139.586L135.079 145.854C135.563 146.337 135.766 147.034 135.618 147.701L134.062 154.7C133.932 155.288 133.543 155.786 133.005 156.056L126.067 159.524C125.336 159.89 124.455 159.774 123.844 159.23L116.671 152.854C116.163 152.402 115.919 151.724 116.023 151.053L117.078 144.254C117.184 143.572 117.635 142.993 118.27 142.722L126.612 139.16ZM125.861 144.136C122.824 144.136 120.361 146.598 120.361 149.636C120.362 152.673 122.824 155.136 125.861 155.136C128.899 155.136 131.361 152.673 131.361 149.636C131.361 146.598 128.899 144.136 125.861 144.136Z" />
    </mask>
  </g>
</svg>
