<svg width="82" height="46" viewBox="0 0 82 46" fill="none" xmlns="http://www.w3.org/2000/svg">
  <path fill-rule="evenodd" clip-rule="evenodd" d="M0 0H12V6H0V0ZM28 8H40V14H28V8ZM42 0H54V6H42V0ZM56 0H68V6H56V0ZM56 8H68V14H56V8ZM42 8H54V14H42V8ZM42 24H54V30H42V24ZM56 16H68V22H56V16ZM70 16H82V22H70V16ZM70 0H82V6H70V0ZM28 32H40V38H28V32ZM14 16H26V22H14V16ZM0 24H12V30H0V24ZM0 32H12V38H0V32ZM14 32H26V38H14V32ZM28 40H40V46H28V40ZM14 40H26V46H14V40ZM42 40H54V46H42V40ZM56 32H68V38H56V32ZM56 24H68V30H56V24ZM70 32H82V38H70V32ZM70 40H82V46H70V40ZM14 24H26V30H14V24ZM28 16H40V22H28V16ZM14 8H26V14H14V8ZM0 8H12V14H0V8Z" fill="#F0F1F2"></path>
</svg>