<svg width="16" height="32" viewBox="0 0 16 32" fill="none" xmlns="http://www.w3.org/2000/svg">
  <path id="829179781795218199ea8823c81f9e76" fill-rule="evenodd" clip-rule="evenodd" d="M0 24H4V26H0V24ZM0 28H6V30H0V28ZM0 20H2V22H0V20ZM0 0H4V2H0V0ZM0 4H2V6H0V4ZM16 24H10V26H16V24ZM16 28H8V30H16V28ZM16 20H12V22H16V20ZM16 0H10V2H16V0ZM16 4H12V6H16V4ZM14 16H16V18H14V16ZM14 8H16V10H14V8ZM2 8H12V10H2V8ZM2 16H12V18H2V16ZM0 12H14V14H0V12ZM4 4H10V6H4V4ZM4 20H10V22H4V20ZM6 0H8V2H6V0ZM6 24H8V26H6V24Z" fill="#E1F0FF"></path>
</svg>