<?xml version="1.0" encoding="UTF-8"?>
<svg width="178" height="193" viewBox="0 0 178 193" xmlns="http://www.w3.org/2000/svg">
    <path fill="color(display-p3 0.109 0.122 0.135)" stroke="none" d="M 163.678421 74.787498 C 161.994766 72.420021 159.728729 70.527893 157.099823 69.294418 C 151.739319 66.776176 145.456604 67.225929 140.508743 70.482109 C 138.087173 72.078651 136.119751 74.275368 134.797913 76.858536 C 132.135666 82.538872 133.296417 89.278267 137.705246 93.738617 C 143.599121 94.203857 149.465042 92.545235 154.244431 89.06208 C 159.004211 85.597809 162.352173 80.52803 163.671005 74.787498 Z M 113.474998 9.649994 L 102.720833 3.800613 L 55.921665 29.64035 L 66.75 35.341263 L 113.474998 9.649994 Z M 117.806335 7.868454 C 118.36808 8.008484 118.8172 8.429886 118.993004 8.981918 L 134.671844 54.871384 C 135.008942 55.628082 134.679276 56.51564 133.930176 56.868195 C 127.962692 60.109497 123.263763 65.272835 120.595001 71.521347 C 117.937965 77.752441 117.480209 84.703377 119.297073 91.229614 C 121.477112 98.347069 126.083488 104.47319 132.313339 108.54023 C 138.558167 112.622925 146.048996 114.404457 153.480499 113.587921 C 154.312515 113.538727 155.087387 114.012352 155.42366 114.775612 L 171.621658 161.875031 C 171.834442 162.652298 171.534225 163.479355 170.872574 163.938644 L 121.091911 192.814423 L 119.00042 192.740189 L 100.792503 181.123077 L 66.675835 103.306961 L 14.722083 132.628113 C 14.092367 132.945099 13.356022 132.972183 12.70475 132.702347 L 0.897417 126.036423 C 0.102755 125.609222 -0.222238 124.636658 0.15575 123.816925 L 50.626167 28.801544 L 101.764084 0.222702 C 102.323601 -0.07164 102.991982 -0.07164 103.551498 0.222702 L 117.813751 7.868454 Z M 55.4025 33.396423 L 52.954998 32.141922 L 4.301667 124.039612 L 13.179417 128.99823 L 55.135502 74.549965 C 55.55328 74.040115 56.191399 73.763626 56.848751 73.807663 C 57.490826 73.923447 58.042137 74.332481 58.3395 74.913689 L 104.026169 179.326706 L 116.234001 186.801743 L 65.110916 38.651962 L 55.40992 33.396423 Z M 130.644577 88.193573 C 129.527176 84.097427 129.841171 79.742149 131.534592 75.849007 C 133.235046 71.937592 136.210434 68.71888 139.974747 66.718605 C 147.829666 62.368179 157.588974 63.566315 164.160507 69.687851 C 167.760422 73.117577 169.842575 77.84433 169.944244 82.817726 C 170.045914 87.791115 168.158661 92.599152 164.70192 96.173386 L 164.160507 96.715271 C 156.278641 104.14637 143.987122 104.178841 136.066177 96.789497 C 133.555832 94.434074 131.689453 91.474907 130.644577 88.193573 Z"/>
</svg>
