<svg width="327" height="48" viewBox="0 0 327 48" fill="none" xmlns="http://www.w3.org/2000/svg">
<g clip-path="url(#clip0_105_159)">
<rect width="48" height="48" rx="10" fill="#FFB224"/>
<g opacity="0.4">
<rect x="-28" y="-28" width="64" height="64" rx="10" fill="url(#paint0_radial_105_159)"/>
</g>
<path opacity="0.4" d="M14 22C14 22 14.1213 21.1508 17.636 17.636C21.1508 14.1213 26.8492 14.1213 30.364 17.636C31.6092 18.8813 32.4133 20.4007 32.7762 22M34 26C34 26 33.8787 26.8492 30.364 30.364C26.8492 33.8787 21.1508 33.8787 17.636 30.364C16.3908 29.1187 15.5867 27.5993 15.2238 26" stroke="white" stroke-width="2" stroke-linecap="round" stroke-linejoin="round"/>
<path d="M34 32V26H28M14 16V22H20" stroke="white" stroke-width="2" stroke-linecap="round" stroke-linejoin="round"/>
</g>
<path d="M69.5781 32.5V16.5H79.9844V18.9297H72.4766V23.2734H79.4453V25.7031H72.4766V30.0703H80.0469V32.5H69.5781ZM85.1189 20.5L87.5408 24.9297L90.0017 20.5H92.9939L89.3767 26.5L93.0564 32.5H90.0798L87.5408 28.1797L85.0252 32.5H82.0252L85.6814 26.5L82.1189 20.5H85.1189ZM95.1714 37V20.5H97.9527V22.4844H98.1167C98.2626 22.1927 98.4683 21.8828 98.7339 21.5547C98.9995 21.2214 99.3589 20.9375 99.812 20.7031C100.265 20.4635 100.843 20.3438 101.546 20.3438C102.473 20.3438 103.309 20.5807 104.054 21.0547C104.804 21.5234 105.398 22.2187 105.835 23.1406C106.278 24.0573 106.5 25.1823 106.5 26.5156C106.5 27.8333 106.283 28.9531 105.851 29.875C105.419 30.7969 104.83 31.5 104.085 31.9844C103.341 32.4688 102.497 32.7109 101.554 32.7109C100.867 32.7109 100.296 32.5964 99.8433 32.3672C99.3902 32.138 99.0256 31.862 98.7495 31.5391C98.4787 31.2109 98.2678 30.901 98.1167 30.6094H97.9995V37H95.1714ZM97.9448 26.5C97.9448 27.276 98.0542 27.9557 98.273 28.5391C98.4969 29.1224 98.8172 29.5781 99.2339 29.9062C99.6558 30.2292 100.166 30.3906 100.765 30.3906C101.39 30.3906 101.914 30.224 102.335 29.8906C102.757 29.5521 103.075 29.0911 103.289 28.5078C103.507 27.9193 103.617 27.25 103.617 26.5C103.617 25.7552 103.51 25.0937 103.296 24.5156C103.083 23.9375 102.765 23.4844 102.343 23.1562C101.921 22.8281 101.395 22.6641 100.765 22.6641C100.161 22.6641 99.648 22.8229 99.2261 23.1406C98.8042 23.4583 98.4839 23.9036 98.2652 24.4766C98.0516 25.0495 97.9448 25.724 97.9448 26.5ZM114.146 32.7344C112.974 32.7344 111.958 32.4766 111.099 31.9609C110.24 31.4453 109.573 30.724 109.099 29.7969C108.63 28.8698 108.396 27.7865 108.396 26.5469C108.396 25.3073 108.63 24.2214 109.099 23.2891C109.573 22.3568 110.24 21.6328 111.099 21.1172C111.958 20.6016 112.974 20.3438 114.146 20.3438C115.318 20.3438 116.333 20.6016 117.193 21.1172C118.052 21.6328 118.716 22.3568 119.185 23.2891C119.659 24.2214 119.896 25.3073 119.896 26.5469C119.896 27.7865 119.659 28.8698 119.185 29.7969C118.716 30.724 118.052 31.4453 117.193 31.9609C116.333 32.4766 115.318 32.7344 114.146 32.7344ZM114.161 30.4687C114.797 30.4687 115.328 30.2943 115.755 29.9453C116.182 29.5911 116.5 29.1172 116.708 28.5234C116.922 27.9297 117.029 27.2682 117.029 26.5391C117.029 25.8047 116.922 25.1406 116.708 24.5469C116.5 23.9479 116.182 23.4714 115.755 23.1172C115.328 22.763 114.797 22.5859 114.161 22.5859C113.51 22.5859 112.969 22.763 112.536 23.1172C112.109 23.4714 111.789 23.9479 111.575 24.5469C111.367 25.1406 111.263 25.8047 111.263 26.5391C111.263 27.2682 111.367 27.9297 111.575 28.5234C111.789 29.1172 112.109 29.5911 112.536 29.9453C112.969 30.2943 113.51 30.4687 114.161 30.4687ZM136.554 20.8984C136.481 20.2161 136.173 19.6849 135.632 19.3047C135.095 18.9245 134.397 18.7344 133.538 18.7344C132.934 18.7344 132.415 18.8255 131.983 19.0078C131.551 19.1901 131.22 19.4375 130.991 19.75C130.762 20.0625 130.645 20.4193 130.639 20.8203C130.639 21.1536 130.715 21.4427 130.866 21.6875C131.022 21.9323 131.233 22.1406 131.499 22.3125C131.764 22.4792 132.059 22.6198 132.382 22.7344C132.705 22.849 133.03 22.9453 133.358 23.0234L134.858 23.3984C135.462 23.5391 136.043 23.7292 136.6 23.9687C137.163 24.2083 137.665 24.5104 138.108 24.875C138.556 25.2396 138.91 25.6797 139.171 26.1953C139.431 26.7109 139.561 27.3151 139.561 28.0078C139.561 28.9453 139.322 29.7708 138.843 30.4844C138.363 31.1927 137.671 31.7474 136.764 32.1484C135.863 32.5443 134.772 32.7422 133.491 32.7422C132.246 32.7422 131.165 32.5495 130.249 32.1641C129.337 31.7786 128.624 31.2161 128.108 30.4766C127.598 29.737 127.322 28.8359 127.28 27.7734H130.132C130.173 28.3307 130.345 28.7943 130.647 29.1641C130.949 29.5339 131.343 29.8099 131.827 29.9922C132.317 30.1745 132.863 30.2656 133.468 30.2656C134.098 30.2656 134.65 30.1719 135.124 29.9844C135.603 29.7917 135.978 29.526 136.249 29.1875C136.52 28.8437 136.658 28.4427 136.663 27.9844C136.658 27.5677 136.535 27.224 136.296 26.9531C136.056 26.6771 135.72 26.4479 135.288 26.2656C134.861 26.0781 134.361 25.9115 133.788 25.7656L131.968 25.2969C130.65 24.9583 129.608 24.4453 128.843 23.7578C128.082 23.0651 127.702 22.1458 127.702 21C127.702 20.0573 127.957 19.2318 128.468 18.5234C128.983 17.8151 129.684 17.2656 130.569 16.875C131.455 16.4792 132.457 16.2812 133.577 16.2812C134.712 16.2812 135.707 16.4792 136.561 16.875C137.421 17.2656 138.095 17.8099 138.585 18.5078C139.074 19.2005 139.327 19.9974 139.343 20.8984H136.554ZM147.245 32.7344C146.047 32.7344 145.018 32.4714 144.159 31.9453C143.305 31.4193 142.646 30.6927 142.182 29.7656C141.724 28.8333 141.495 27.7604 141.495 26.5469C141.495 25.3281 141.729 24.2526 142.198 23.3203C142.667 22.3828 143.328 21.6536 144.182 21.1328C145.042 20.6068 146.057 20.3438 147.229 20.3438C148.203 20.3438 149.065 20.5234 149.815 20.8828C150.57 21.237 151.172 21.7396 151.62 22.3906C152.068 23.0365 152.323 23.7917 152.385 24.6562H149.682C149.573 24.0781 149.312 23.5964 148.901 23.2109C148.495 22.8203 147.95 22.625 147.268 22.625C146.69 22.625 146.182 22.7812 145.745 23.0937C145.307 23.401 144.966 23.8437 144.721 24.4219C144.482 25 144.362 25.6927 144.362 26.5C144.362 27.3177 144.482 28.0208 144.721 28.6094C144.961 29.1927 145.297 29.6432 145.729 29.9609C146.167 30.2734 146.68 30.4297 147.268 30.4297C147.685 30.4297 148.057 30.3516 148.385 30.1953C148.719 30.0339 148.997 29.8021 149.221 29.5C149.445 29.1979 149.599 28.8307 149.682 28.3984H152.385C152.318 29.2474 152.068 30 151.635 30.6562C151.203 31.3073 150.614 31.8177 149.87 32.1875C149.125 32.5521 148.25 32.7344 147.245 32.7344ZM154.698 32.5V20.5H157.44V22.5H157.565C157.784 21.8073 158.159 21.2734 158.69 20.8984C159.226 20.5182 159.838 20.3281 160.526 20.3281C160.682 20.3281 160.856 20.3359 161.049 20.3516C161.247 20.362 161.411 20.3802 161.541 20.4062V23.0078C161.422 22.9661 161.231 22.9297 160.971 22.8984C160.716 22.862 160.468 22.8437 160.229 22.8437C159.713 22.8437 159.25 22.9557 158.838 23.1797C158.432 23.3984 158.112 23.7031 157.877 24.0937C157.643 24.4844 157.526 24.9349 157.526 25.4453V32.5H154.698ZM168.229 32.7344C167.025 32.7344 165.986 32.4844 165.111 31.9844C164.242 31.4792 163.572 30.7656 163.104 29.8437C162.635 28.9167 162.4 27.8255 162.4 26.5703C162.4 25.3359 162.635 24.2526 163.104 23.3203C163.578 22.3828 164.239 21.6536 165.088 21.1328C165.937 20.6068 166.934 20.3438 168.08 20.3438C168.82 20.3438 169.518 20.4635 170.174 20.7031C170.835 20.9375 171.419 21.3021 171.924 21.7969C172.434 22.2917 172.835 22.9219 173.127 23.6875C173.419 24.4479 173.565 25.3542 173.565 26.4062V27.2734H163.729V25.3672H170.854C170.848 24.8255 170.731 24.3437 170.502 23.9219C170.273 23.4948 169.953 23.1589 169.541 22.9141C169.135 22.6693 168.661 22.5469 168.119 22.5469C167.541 22.5469 167.033 22.6875 166.596 22.9687C166.158 23.2448 165.817 23.6094 165.572 24.0625C165.333 24.5104 165.21 25.0026 165.205 25.5391V27.2031C165.205 27.901 165.333 28.5 165.588 29C165.843 29.4948 166.2 29.875 166.658 30.1406C167.117 30.401 167.653 30.5312 168.268 30.5312C168.679 30.5312 169.052 30.474 169.385 30.3594C169.718 30.2396 170.007 30.0651 170.252 29.8359C170.497 29.6068 170.682 29.3229 170.807 28.9844L173.447 29.2812C173.281 29.9792 172.963 30.5885 172.494 31.1094C172.031 31.625 171.437 32.026 170.713 32.3125C169.989 32.5937 169.161 32.7344 168.229 32.7344ZM181.26 32.7344C180.056 32.7344 179.017 32.4844 178.142 31.9844C177.273 31.4792 176.603 30.7656 176.135 29.8437C175.666 28.9167 175.431 27.8255 175.431 26.5703C175.431 25.3359 175.666 24.2526 176.135 23.3203C176.609 22.3828 177.27 21.6536 178.119 21.1328C178.968 20.6068 179.965 20.3438 181.111 20.3438C181.851 20.3438 182.549 20.4635 183.205 20.7031C183.866 20.9375 184.45 21.3021 184.955 21.7969C185.465 22.2917 185.866 22.9219 186.158 23.6875C186.45 24.4479 186.596 25.3542 186.596 26.4062V27.2734H176.76V25.3672H183.885C183.879 24.8255 183.762 24.3437 183.533 23.9219C183.304 23.4948 182.984 23.1589 182.572 22.9141C182.166 22.6693 181.692 22.5469 181.15 22.5469C180.572 22.5469 180.064 22.6875 179.627 22.9687C179.189 23.2448 178.848 23.6094 178.603 24.0625C178.364 24.5104 178.241 25.0026 178.236 25.5391V27.2031C178.236 27.901 178.364 28.5 178.619 29C178.874 29.4948 179.231 29.875 179.689 30.1406C180.148 30.401 180.684 30.5312 181.299 30.5312C181.71 30.5312 182.083 30.474 182.416 30.3594C182.749 30.2396 183.038 30.0651 183.283 29.8359C183.528 29.6068 183.713 29.3229 183.838 28.9844L186.478 29.2812C186.312 29.9792 185.994 30.5885 185.525 31.1094C185.062 31.625 184.468 32.026 183.744 32.3125C183.02 32.5937 182.192 32.7344 181.26 32.7344ZM191.806 25.4687V32.5H188.978V20.5H191.681V22.5391H191.822C192.098 21.8672 192.538 21.3333 193.142 20.9375C193.752 20.5417 194.504 20.3438 195.4 20.3438C196.228 20.3438 196.949 20.5208 197.564 20.875C198.184 21.2292 198.663 21.7422 199.002 22.4141C199.345 23.0859 199.515 23.901 199.509 24.8594V32.5H196.681V25.2969C196.681 24.4948 196.473 23.8672 196.056 23.4141C195.645 22.9609 195.074 22.7344 194.345 22.7344C193.851 22.7344 193.41 22.8437 193.025 23.0625C192.645 23.276 192.345 23.5859 192.127 23.9922C191.913 24.3984 191.806 24.8906 191.806 25.4687ZM222.243 24.5C222.243 26.224 221.92 27.7005 221.275 28.9297C220.634 30.1536 219.759 31.0911 218.65 31.7422C217.545 32.3932 216.293 32.7187 214.892 32.7187C213.491 32.7187 212.235 32.3932 211.126 31.7422C210.022 31.0859 209.147 30.1458 208.501 28.9219C207.86 27.6927 207.54 26.2187 207.54 24.5C207.54 22.776 207.86 21.3021 208.501 20.0781C209.147 18.849 210.022 17.9089 211.126 17.2578C212.235 16.6068 213.491 16.2812 214.892 16.2812C216.293 16.2812 217.545 16.6068 218.65 17.2578C219.759 17.9089 220.634 18.849 221.275 20.0781C221.92 21.3021 222.243 22.776 222.243 24.5ZM219.329 24.5C219.329 23.2865 219.139 22.263 218.759 21.4297C218.384 20.5911 217.863 19.9583 217.196 19.5313C216.53 19.099 215.762 18.8828 214.892 18.8828C214.022 18.8828 213.254 19.099 212.587 19.5313C211.92 19.9583 211.397 20.5911 211.017 21.4297C210.642 22.263 210.454 23.2865 210.454 24.5C210.454 25.7135 210.642 26.7396 211.017 27.5781C211.397 28.4115 211.92 29.0443 212.587 29.4766C213.254 29.9036 214.022 30.1172 214.892 30.1172C215.762 30.1172 216.53 29.9036 217.196 29.4766C217.863 29.0443 218.384 28.4115 218.759 27.5781C219.139 26.7396 219.329 25.7135 219.329 24.5ZM224.849 32.5V20.5H227.591V22.5H227.716C227.934 21.8073 228.309 21.2734 228.841 20.8984C229.377 20.5182 229.989 20.3281 230.677 20.3281C230.833 20.3281 231.007 20.3359 231.2 20.3516C231.398 20.362 231.562 20.3802 231.692 20.4062V23.0078C231.572 22.9661 231.382 22.9297 231.122 22.8984C230.867 22.862 230.619 22.8437 230.38 22.8437C229.864 22.8437 229.401 22.9557 228.989 23.1797C228.583 23.3984 228.263 23.7031 228.028 24.0937C227.794 24.4844 227.677 24.9349 227.677 25.4453V32.5H224.849ZM233.561 32.5V20.5H236.389V32.5H233.561ZM234.983 18.7969C234.535 18.7969 234.15 18.6484 233.827 18.3516C233.504 18.0495 233.342 17.6875 233.342 17.2656C233.342 16.8385 233.504 16.4766 233.827 16.1797C234.15 15.8776 234.535 15.7266 234.983 15.7266C235.436 15.7266 235.822 15.8776 236.139 16.1797C236.462 16.4766 236.624 16.8385 236.624 17.2656C236.624 17.6875 236.462 18.0495 236.139 18.3516C235.822 18.6484 235.436 18.7969 234.983 18.7969ZM244.6 32.7344C243.397 32.7344 242.358 32.4844 241.483 31.9844C240.613 31.4792 239.944 30.7656 239.475 29.8437C239.006 28.9167 238.772 27.8255 238.772 26.5703C238.772 25.3359 239.006 24.2526 239.475 23.3203C239.949 22.3828 240.61 21.6536 241.459 21.1328C242.308 20.6068 243.306 20.3438 244.452 20.3438C245.191 20.3438 245.889 20.4635 246.545 20.7031C247.207 20.9375 247.79 21.3021 248.295 21.7969C248.806 22.2917 249.207 22.9219 249.498 23.6875C249.79 24.4479 249.936 25.3542 249.936 26.4062V27.2734H240.1V25.3672H247.225C247.22 24.8255 247.103 24.3437 246.873 23.9219C246.644 23.4948 246.324 23.1589 245.913 22.9141C245.506 22.6693 245.032 22.5469 244.491 22.5469C243.913 22.5469 243.405 22.6875 242.967 22.9687C242.53 23.2448 242.189 23.6094 241.944 24.0625C241.704 24.5104 241.582 25.0026 241.577 25.5391V27.2031C241.577 27.901 241.704 28.5 241.959 29C242.215 29.4948 242.571 29.875 243.03 30.1406C243.488 30.401 244.024 30.5312 244.639 30.5312C245.051 30.5312 245.423 30.474 245.756 30.3594C246.09 30.2396 246.379 30.0651 246.623 29.8359C246.868 29.6068 247.053 29.3229 247.178 28.9844L249.819 29.2812C249.652 29.9792 249.334 30.5885 248.866 31.1094C248.402 31.625 247.808 32.026 247.084 32.3125C246.36 32.5937 245.532 32.7344 244.6 32.7344ZM255.147 25.4687V32.5H252.319V20.5H255.022V22.5391H255.162C255.438 21.8672 255.878 21.3333 256.483 20.9375C257.092 20.5417 257.845 20.3438 258.74 20.3438C259.569 20.3438 260.29 20.5208 260.904 20.875C261.524 21.2292 262.003 21.7422 262.342 22.4141C262.686 23.0859 262.855 23.901 262.85 24.8594V32.5H260.022V25.2969C260.022 24.4948 259.813 23.8672 259.397 23.4141C258.985 22.9609 258.415 22.7344 257.686 22.7344C257.191 22.7344 256.751 22.8437 256.365 23.0625C255.985 23.276 255.686 23.5859 255.467 23.9922C255.253 24.3984 255.147 24.8906 255.147 25.4687ZM271.707 20.5V22.6875H264.809V20.5H271.707ZM266.512 17.625H269.34V28.8906C269.34 29.2708 269.397 29.5625 269.512 29.7656C269.631 29.9635 269.788 30.099 269.98 30.1719C270.173 30.2448 270.387 30.2812 270.621 30.2812C270.798 30.2812 270.96 30.2682 271.105 30.2422C271.256 30.2161 271.371 30.1927 271.449 30.1719L271.926 32.3828C271.775 32.4349 271.559 32.4922 271.277 32.5547C271.001 32.6172 270.663 32.6536 270.262 32.6641C269.553 32.6849 268.915 32.5781 268.348 32.3437C267.78 32.1042 267.329 31.7344 266.996 31.2344C266.668 30.7344 266.506 30.1094 266.512 29.3594V17.625ZM277.515 32.7422C276.755 32.7422 276.07 32.6068 275.461 32.3359C274.856 32.0599 274.377 31.6536 274.023 31.1172C273.674 30.5807 273.5 29.9193 273.5 29.1328C273.5 28.4557 273.625 27.8958 273.875 27.4531C274.125 27.0104 274.466 26.6562 274.898 26.3906C275.33 26.125 275.817 25.9245 276.359 25.7891C276.906 25.6484 277.471 25.5469 278.054 25.4844C278.758 25.4115 279.328 25.3464 279.765 25.2891C280.203 25.2266 280.521 25.1328 280.718 25.0078C280.922 24.8776 281.023 24.6771 281.023 24.4062V24.3594C281.023 23.7708 280.849 23.3151 280.5 22.9922C280.151 22.6693 279.648 22.5078 278.992 22.5078C278.299 22.5078 277.75 22.6589 277.343 22.9609C276.942 23.263 276.672 23.6198 276.531 24.0312L273.89 23.6562C274.099 22.9271 274.442 22.3177 274.922 21.8281C275.401 21.3333 275.987 20.9635 276.679 20.7187C277.372 20.4688 278.138 20.3438 278.976 20.3438C279.554 20.3438 280.13 20.4115 280.703 20.5469C281.276 20.6823 281.799 20.9062 282.273 21.2187C282.747 21.526 283.127 21.9453 283.414 22.4766C283.705 23.0078 283.851 23.6719 283.851 24.4687V32.5H281.133V30.8516H281.039C280.867 31.1849 280.625 31.4974 280.312 31.7891C280.005 32.0755 279.617 32.3073 279.148 32.4844C278.685 32.6563 278.14 32.7422 277.515 32.7422ZM278.25 30.6641C278.817 30.6641 279.31 30.5521 279.726 30.3281C280.143 30.099 280.463 29.7969 280.687 29.4219C280.916 29.0469 281.031 28.638 281.031 28.1953V26.7812C280.942 26.8542 280.791 26.9219 280.578 26.9844C280.369 27.0469 280.135 27.1016 279.875 27.1484C279.614 27.1953 279.356 27.237 279.101 27.2734C278.846 27.3099 278.625 27.3411 278.437 27.3672C278.015 27.4245 277.638 27.5182 277.304 27.6484C276.971 27.7786 276.708 27.9609 276.515 28.1953C276.323 28.4245 276.226 28.7214 276.226 29.0859C276.226 29.6068 276.416 30 276.797 30.2656C277.177 30.5312 277.661 30.6641 278.25 30.6641ZM292.677 20.5V22.6875H285.779V20.5H292.677ZM287.482 17.625H290.31V28.8906C290.31 29.2708 290.367 29.5625 290.482 29.7656C290.602 29.9635 290.758 30.099 290.951 30.1719C291.143 30.2448 291.357 30.2812 291.591 30.2812C291.768 30.2812 291.93 30.2682 292.076 30.2422C292.227 30.2161 292.341 30.1927 292.419 30.1719L292.896 32.3828C292.745 32.4349 292.529 32.4922 292.247 32.5547C291.971 32.6172 291.633 32.6536 291.232 32.6641C290.524 32.6849 289.886 32.5781 289.318 32.3437C288.75 32.1042 288.3 31.7344 287.966 31.2344C287.638 30.7344 287.477 30.1094 287.482 29.3594V17.625ZM295.032 32.5V20.5H297.861V32.5H295.032ZM296.454 18.7969C296.006 18.7969 295.621 18.6484 295.298 18.3516C294.975 18.0495 294.814 17.6875 294.814 17.2656C294.814 16.8385 294.975 16.4766 295.298 16.1797C295.621 15.8776 296.006 15.7266 296.454 15.7266C296.907 15.7266 297.293 15.8776 297.611 16.1797C297.933 16.4766 298.095 16.8385 298.095 17.2656C298.095 17.6875 297.933 18.0495 297.611 18.3516C297.293 18.6484 296.907 18.7969 296.454 18.7969ZM305.993 32.7344C304.821 32.7344 303.806 32.4766 302.946 31.9609C302.087 31.4453 301.42 30.724 300.946 29.7969C300.477 28.8698 300.243 27.7865 300.243 26.5469C300.243 25.3073 300.477 24.2214 300.946 23.2891C301.42 22.3568 302.087 21.6328 302.946 21.1172C303.806 20.6016 304.821 20.3438 305.993 20.3438C307.165 20.3438 308.181 20.6016 309.04 21.1172C309.899 21.6328 310.563 22.3568 311.032 23.2891C311.506 24.2214 311.743 25.3073 311.743 26.5469C311.743 27.7865 311.506 28.8698 311.032 29.7969C310.563 30.724 309.899 31.4453 309.04 31.9609C308.181 32.4766 307.165 32.7344 305.993 32.7344ZM306.009 30.4687C306.644 30.4687 307.175 30.2943 307.602 29.9453C308.03 29.5911 308.347 29.1172 308.556 28.5234C308.769 27.9297 308.876 27.2682 308.876 26.5391C308.876 25.8047 308.769 25.1406 308.556 24.5469C308.347 23.9479 308.03 23.4714 307.602 23.1172C307.175 22.763 306.644 22.5859 306.009 22.5859C305.358 22.5859 304.816 22.763 304.384 23.1172C303.957 23.4714 303.636 23.9479 303.423 24.5469C303.214 25.1406 303.11 25.8047 303.11 26.5391C303.11 27.2682 303.214 27.9297 303.423 28.5234C303.636 29.1172 303.957 29.5911 304.384 29.9453C304.816 30.2943 305.358 30.4687 306.009 30.4687ZM316.962 25.4687V32.5H314.134V20.5H316.837V22.5391H316.977C317.253 21.8672 317.693 21.3333 318.298 20.9375C318.907 20.5417 319.66 20.3438 320.555 20.3438C321.384 20.3438 322.105 20.5208 322.719 20.875C323.339 21.2292 323.818 21.7422 324.157 22.4141C324.501 23.0859 324.67 23.901 324.665 24.8594V32.5H321.837V25.2969C321.837 24.4948 321.628 23.8672 321.212 23.4141C320.8 22.9609 320.23 22.7344 319.501 22.7344C319.006 22.7344 318.566 22.8437 318.18 23.0625C317.8 23.276 317.501 23.5859 317.282 23.9922C317.068 24.3984 316.962 24.8906 316.962 25.4687Z" fill="#FFB224"/>
<defs>
<radialGradient id="paint0_radial_105_159" cx="0" cy="0" r="1" gradientUnits="userSpaceOnUse" gradientTransform="translate(4 4) rotate(90) scale(32)">
<stop stop-color="white"/>
<stop offset="1" stop-color="white" stop-opacity="0"/>
</radialGradient>
<clipPath id="clip0_105_159">
<rect width="48" height="48" rx="10" fill="white"/>
</clipPath>
</defs>
</svg>
