<svg width="216" height="48" viewBox="0 0 216 48" fill="none" xmlns="http://www.w3.org/2000/svg">
<g clip-path="url(#clip0_107_167)">
<rect width="48" height="48" rx="10" fill="#D6409F"/>
<g opacity="0.4">
<rect x="-28" y="-28" width="64" height="64" rx="10" fill="url(#paint0_radial_107_167)"/>
</g>
<path opacity="0.12" d="M24.3578 26.3212C24.2266 26.3868 24.161 26.4196 24.0922 26.4325C24.0313 26.4439 23.9687 26.4439 23.9078 26.4325C23.839 26.4196 23.7734 26.3868 23.6422 26.3212L19.3578 24.179C19.2266 24.1134 19.161 24.0806 19.0922 24.0677C19.0313 24.0562 18.9687 24.0562 18.9078 24.0677C18.839 24.0806 18.7734 24.1134 18.6422 24.179L14 26.5001L23.6422 31.3212C23.7734 31.3868 23.839 31.4196 23.9078 31.4325C23.9687 31.4439 24.0313 31.4439 24.0922 31.4325C24.161 31.4196 24.2266 31.3868 24.3578 31.3212L34 26.5001L29.3578 24.179C29.2266 24.1134 29.161 24.0806 29.0922 24.0677C29.0313 24.0562 28.9687 24.0562 28.9078 24.0677C28.839 24.0806 28.7734 24.1134 28.6422 24.179L24.3578 26.3212Z" fill="white"/>
<path d="M19 24.0001L14 26.5001L23.6422 31.3212C23.7734 31.3868 23.839 31.4196 23.9078 31.4325C23.9687 31.4439 24.0313 31.4439 24.0922 31.4325C24.161 31.4196 24.2266 31.3868 24.3578 31.3212L34 26.5001L29 24.0001M14 21.5001L23.6422 16.679C23.7734 16.6134 23.839 16.5806 23.9078 16.5677C23.9687 16.5562 24.0313 16.5562 24.0922 16.5677C24.161 16.5806 24.2266 16.6134 24.3578 16.679L34 21.5001L24.3578 26.3212C24.2266 26.3868 24.161 26.4196 24.0922 26.4325C24.0313 26.4439 23.9687 26.4439 23.9078 26.4325C23.839 26.4196 23.7734 26.3868 23.6422 26.3212L14 21.5001Z" stroke="white" stroke-width="2" stroke-linecap="round" stroke-linejoin="round"/>
</g>
<path d="M69.5781 32.5V16.5H79.9844V18.9297H72.4766V23.2734H79.4453V25.7031H72.4766V30.0703H80.0469V32.5H69.5781ZM85.1189 20.5L87.5408 24.9297L90.0017 20.5H92.9939L89.3767 26.5L93.0564 32.5H90.0798L87.5408 28.1797L85.0252 32.5H82.0252L85.6814 26.5L82.1189 20.5H85.1189ZM95.1714 37V20.5H97.9527V22.4844H98.1167C98.2626 22.1927 98.4683 21.8828 98.7339 21.5547C98.9995 21.2214 99.3589 20.9375 99.812 20.7031C100.265 20.4635 100.843 20.3438 101.546 20.3438C102.473 20.3438 103.309 20.5807 104.054 21.0547C104.804 21.5234 105.398 22.2187 105.835 23.1406C106.278 24.0573 106.5 25.1823 106.5 26.5156C106.5 27.8333 106.283 28.9531 105.851 29.875C105.419 30.7969 104.83 31.5 104.085 31.9844C103.341 32.4688 102.497 32.7109 101.554 32.7109C100.867 32.7109 100.296 32.5964 99.8433 32.3672C99.3902 32.138 99.0256 31.862 98.7495 31.5391C98.4787 31.2109 98.2678 30.901 98.1167 30.6094H97.9995V37H95.1714ZM97.9448 26.5C97.9448 27.276 98.0542 27.9557 98.273 28.5391C98.4969 29.1224 98.8172 29.5781 99.2339 29.9062C99.6558 30.2292 100.166 30.3906 100.765 30.3906C101.39 30.3906 101.914 30.224 102.335 29.8906C102.757 29.5521 103.075 29.0911 103.289 28.5078C103.507 27.9193 103.617 27.25 103.617 26.5C103.617 25.7552 103.51 25.0937 103.296 24.5156C103.083 23.9375 102.765 23.4844 102.343 23.1562C101.921 22.8281 101.395 22.6641 100.765 22.6641C100.161 22.6641 99.648 22.8229 99.2261 23.1406C98.8042 23.4583 98.4839 23.9036 98.2652 24.4766C98.0516 25.0495 97.9448 25.724 97.9448 26.5ZM114.146 32.7344C112.974 32.7344 111.958 32.4766 111.099 31.9609C110.24 31.4453 109.573 30.724 109.099 29.7969C108.63 28.8698 108.396 27.7865 108.396 26.5469C108.396 25.3073 108.63 24.2214 109.099 23.2891C109.573 22.3568 110.24 21.6328 111.099 21.1172C111.958 20.6016 112.974 20.3438 114.146 20.3438C115.318 20.3438 116.333 20.6016 117.193 21.1172C118.052 21.6328 118.716 22.3568 119.185 23.2891C119.659 24.2214 119.896 25.3073 119.896 26.5469C119.896 27.7865 119.659 28.8698 119.185 29.7969C118.716 30.724 118.052 31.4453 117.193 31.9609C116.333 32.4766 115.318 32.7344 114.146 32.7344ZM114.161 30.4687C114.797 30.4687 115.328 30.2943 115.755 29.9453C116.182 29.5911 116.5 29.1172 116.708 28.5234C116.922 27.9297 117.029 27.2682 117.029 26.5391C117.029 25.8047 116.922 25.1406 116.708 24.5469C116.5 23.9479 116.182 23.4714 115.755 23.1172C115.328 22.763 114.797 22.5859 114.161 22.5859C113.51 22.5859 112.969 22.763 112.536 23.1172C112.109 23.4714 111.789 23.9479 111.575 24.5469C111.367 25.1406 111.263 25.8047 111.263 26.5391C111.263 27.2682 111.367 27.9297 111.575 28.5234C111.789 29.1172 112.109 29.5911 112.536 29.9453C112.969 30.2943 113.51 30.4687 114.161 30.4687ZM137.944 16.5H140.843V26.9531C140.843 28.099 140.572 29.1068 140.03 29.9766C139.494 30.8464 138.738 31.526 137.764 32.0156C136.79 32.5 135.652 32.7422 134.35 32.7422C133.043 32.7422 131.902 32.5 130.929 32.0156C129.955 31.526 129.199 30.8464 128.663 29.9766C128.126 29.1068 127.858 28.099 127.858 26.9531V16.5H130.757V26.7109C130.757 27.3776 130.902 27.9714 131.194 28.4922C131.491 29.013 131.908 29.4219 132.444 29.7188C132.981 30.0104 133.616 30.1562 134.35 30.1562C135.085 30.1562 135.72 30.0104 136.257 29.7188C136.798 29.4219 137.215 29.013 137.507 28.4922C137.798 27.9714 137.944 27.3776 137.944 26.7109V16.5ZM143.858 37V20.5H146.639V22.4844H146.803C146.949 22.1927 147.155 21.8828 147.42 21.5547C147.686 21.2214 148.045 20.9375 148.499 20.7031C148.952 20.4635 149.53 20.3438 150.233 20.3438C151.16 20.3438 151.996 20.5807 152.741 21.0547C153.491 21.5234 154.085 22.2187 154.522 23.1406C154.965 24.0573 155.186 25.1823 155.186 26.5156C155.186 27.8333 154.97 28.9531 154.538 29.875C154.105 30.7969 153.517 31.5 152.772 31.9844C152.027 32.4688 151.183 32.7109 150.241 32.7109C149.553 32.7109 148.983 32.5964 148.53 32.3672C148.077 32.138 147.712 31.862 147.436 31.5391C147.165 31.2109 146.954 30.901 146.803 30.6094H146.686V37H143.858ZM146.631 26.5C146.631 27.276 146.741 27.9557 146.96 28.5391C147.183 29.1224 147.504 29.5781 147.92 29.9062C148.342 30.2292 148.853 30.3906 149.452 30.3906C150.077 30.3906 150.6 30.224 151.022 29.8906C151.444 29.5521 151.762 29.0911 151.975 28.5078C152.194 27.9193 152.303 27.25 152.303 26.5C152.303 25.7552 152.197 25.0937 151.983 24.5156C151.769 23.9375 151.452 23.4844 151.03 23.1562C150.608 22.8281 150.082 22.6641 149.452 22.6641C148.848 22.6641 148.335 22.8229 147.913 23.1406C147.491 23.4583 147.17 23.9036 146.952 24.4766C146.738 25.0495 146.631 25.724 146.631 26.5ZM162.051 32.7109C161.108 32.7109 160.265 32.4688 159.52 31.9844C158.775 31.5 158.187 30.7969 157.754 29.875C157.322 28.9531 157.106 27.8333 157.106 26.5156C157.106 25.1823 157.325 24.0573 157.762 23.1406C158.205 22.2187 158.801 21.5234 159.551 21.0547C160.301 20.5807 161.137 20.3438 162.059 20.3438C162.762 20.3438 163.34 20.4635 163.793 20.7031C164.246 20.9375 164.606 21.2214 164.871 21.5547C165.137 21.8828 165.343 22.1927 165.489 22.4844H165.606V16.5H168.442V32.5H165.66V30.6094H165.489C165.343 30.901 165.132 31.2109 164.856 31.5391C164.58 31.862 164.215 32.138 163.762 32.3672C163.309 32.5964 162.739 32.7109 162.051 32.7109ZM162.84 30.3906C163.439 30.3906 163.95 30.2292 164.371 29.9062C164.793 29.5781 165.114 29.1224 165.332 28.5391C165.551 27.9557 165.66 27.276 165.66 26.5C165.66 25.724 165.551 25.0495 165.332 24.4766C165.119 23.9036 164.801 23.4583 164.379 23.1406C163.963 22.8229 163.45 22.6641 162.84 22.6641C162.21 22.6641 161.684 22.8281 161.262 23.1562C160.84 23.4844 160.522 23.9375 160.309 24.5156C160.095 25.0937 159.989 25.7552 159.989 26.5C159.989 27.25 160.095 27.9193 160.309 28.5078C160.528 29.0911 160.848 29.5521 161.27 29.8906C161.697 30.224 162.22 30.3906 162.84 30.3906ZM174.899 32.7422C174.138 32.7422 173.453 32.6068 172.844 32.3359C172.24 32.0599 171.76 31.6536 171.406 31.1172C171.057 30.5807 170.883 29.9193 170.883 29.1328C170.883 28.4557 171.008 27.8958 171.258 27.4531C171.508 27.0104 171.849 26.6562 172.281 26.3906C172.714 26.125 173.201 25.9245 173.742 25.7891C174.289 25.6484 174.854 25.5469 175.438 25.4844C176.141 25.4115 176.711 25.3464 177.149 25.2891C177.586 25.2266 177.904 25.1328 178.102 25.0078C178.305 24.8776 178.406 24.6771 178.406 24.4062V24.3594C178.406 23.7708 178.232 23.3151 177.883 22.9922C177.534 22.6693 177.031 22.5078 176.375 22.5078C175.682 22.5078 175.133 22.6589 174.727 22.9609C174.326 23.263 174.055 23.6198 173.914 24.0312L171.274 23.6562C171.482 22.9271 171.826 22.3177 172.305 21.8281C172.784 21.3333 173.37 20.9635 174.063 20.7187C174.755 20.4688 175.521 20.3438 176.359 20.3438C176.938 20.3438 177.513 20.4115 178.086 20.5469C178.659 20.6823 179.182 20.9062 179.656 21.2187C180.13 21.526 180.51 21.9453 180.797 22.4766C181.089 23.0078 181.234 23.6719 181.234 24.4687V32.5H178.516V30.8516H178.422C178.25 31.1849 178.008 31.4974 177.695 31.7891C177.388 32.0755 177 32.3073 176.531 32.4844C176.068 32.6563 175.524 32.7422 174.899 32.7422ZM175.633 30.6641C176.201 30.6641 176.693 30.5521 177.109 30.3281C177.526 30.099 177.846 29.7969 178.07 29.4219C178.3 29.0469 178.414 28.638 178.414 28.1953V26.7812C178.326 26.8542 178.175 26.9219 177.961 26.9844C177.753 27.0469 177.518 27.1016 177.258 27.1484C176.997 27.1953 176.74 27.237 176.484 27.2734C176.229 27.3099 176.008 27.3411 175.82 27.3672C175.399 27.4245 175.021 27.5182 174.688 27.6484C174.354 27.7786 174.091 27.9609 173.899 28.1953C173.706 28.4245 173.609 28.7214 173.609 29.0859C173.609 29.6068 173.8 30 174.18 30.2656C174.56 30.5312 175.044 30.6641 175.633 30.6641ZM190.06 20.5V22.6875H183.162V20.5H190.06ZM184.865 17.625H187.693V28.8906C187.693 29.2708 187.75 29.5625 187.865 29.7656C187.985 29.9635 188.141 30.099 188.334 30.1719C188.527 30.2448 188.74 30.2812 188.974 30.2812C189.152 30.2812 189.313 30.2682 189.459 30.2422C189.61 30.2161 189.724 30.1927 189.803 30.1719L190.279 32.3828C190.128 32.4349 189.912 32.4922 189.631 32.5547C189.355 32.6172 189.016 32.6536 188.615 32.6641C187.907 32.6849 187.269 32.5781 186.701 32.3437C186.133 32.1042 185.683 31.7344 185.349 31.2344C185.021 30.7344 184.86 30.1094 184.865 29.3594V17.625ZM197.599 32.7344C196.396 32.7344 195.357 32.4844 194.482 31.9844C193.612 31.4792 192.943 30.7656 192.474 29.8437C192.005 28.9167 191.771 27.8255 191.771 26.5703C191.771 25.3359 192.005 24.2526 192.474 23.3203C192.948 22.3828 193.61 21.6536 194.459 21.1328C195.308 20.6068 196.305 20.3438 197.451 20.3438C198.19 20.3438 198.888 20.4635 199.545 20.7031C200.206 20.9375 200.789 21.3021 201.295 21.7969C201.805 22.2917 202.206 22.9219 202.498 23.6875C202.789 24.4479 202.935 25.3542 202.935 26.4062V27.2734H193.099V25.3672H200.224C200.219 24.8255 200.102 24.3437 199.873 23.9219C199.643 23.4948 199.323 23.1589 198.912 22.9141C198.505 22.6693 198.032 22.5469 197.49 22.5469C196.912 22.5469 196.404 22.6875 195.966 22.9687C195.529 23.2448 195.188 23.6094 194.943 24.0625C194.703 24.5104 194.581 25.0026 194.576 25.5391V27.2031C194.576 27.901 194.703 28.5 194.959 29C195.214 29.4948 195.571 29.875 196.029 30.1406C196.487 30.401 197.024 30.5312 197.638 30.5312C198.05 30.5312 198.422 30.474 198.755 30.3594C199.089 30.2396 199.378 30.0651 199.623 29.8359C199.867 29.6068 200.052 29.3229 200.177 28.9844L202.818 29.2812C202.651 29.9792 202.334 30.5885 201.865 31.1094C201.401 31.625 200.808 32.026 200.084 32.3125C199.36 32.5937 198.532 32.7344 197.599 32.7344ZM214.802 23.6719L212.224 23.9531C212.151 23.6927 212.023 23.4479 211.841 23.2188C211.664 22.9896 211.425 22.8047 211.122 22.6641C210.82 22.5234 210.451 22.4531 210.013 22.4531C209.425 22.4531 208.93 22.5807 208.529 22.8359C208.133 23.0911 207.938 23.4219 207.943 23.8281C207.938 24.1771 208.065 24.4609 208.326 24.6797C208.591 24.8984 209.029 25.0781 209.638 25.2188L211.685 25.6562C212.82 25.901 213.664 26.2891 214.216 26.8203C214.773 27.3516 215.055 28.0469 215.06 28.9062C215.055 29.6615 214.833 30.3281 214.396 30.9062C213.964 31.4792 213.362 31.9271 212.591 32.25C211.82 32.5729 210.935 32.7344 209.935 32.7344C208.466 32.7344 207.284 32.4271 206.388 31.8125C205.492 31.1927 204.958 30.3307 204.786 29.2266L207.544 28.9609C207.669 29.5026 207.935 29.9115 208.341 30.1875C208.747 30.4635 209.276 30.6016 209.927 30.6016C210.599 30.6016 211.138 30.4635 211.544 30.1875C211.956 29.9115 212.161 29.5703 212.161 29.1641C212.161 28.8203 212.029 28.5365 211.763 28.3125C211.503 28.0885 211.096 27.9167 210.544 27.7969L208.497 27.3672C207.346 27.1276 206.495 26.724 205.943 26.1562C205.391 25.5833 205.117 24.8594 205.122 23.9844C205.117 23.2448 205.318 22.6042 205.724 22.0625C206.135 21.5156 206.706 21.0937 207.435 20.7969C208.169 20.4948 209.016 20.3438 209.974 20.3438C211.38 20.3438 212.487 20.6432 213.294 21.2422C214.107 21.8411 214.609 22.651 214.802 23.6719Z" fill="#D6409F"/>
<defs>
<radialGradient id="paint0_radial_107_167" cx="0" cy="0" r="1" gradientUnits="userSpaceOnUse" gradientTransform="translate(4 4) rotate(90) scale(32)">
<stop stop-color="white"/>
<stop offset="1" stop-color="white" stop-opacity="0"/>
</radialGradient>
<clipPath id="clip0_107_167">
<rect width="48" height="48" rx="10" fill="white"/>
</clipPath>
</defs>
</svg>
