<svg width="208" height="48" viewBox="0 0 208 48" fill="none" xmlns="http://www.w3.org/2000/svg">
<g clip-path="url(#clip0_107_139)">
<rect width="48" height="48" rx="10" fill="#93C926"/>
<g opacity="0.4">
<rect x="-28" y="-28" width="64" height="64" rx="10" fill="url(#paint0_radial_107_139)"/>
</g>
<path opacity="0.4" d="M19.7574 28.2426C17.4142 25.8995 17.4142 22.1005 19.7574 19.7573M16.9289 31.0711C13.0237 27.1658 13.0237 20.8342 16.9289 16.929M28.2426 19.7574C30.5858 22.1005 30.5858 25.8995 28.2426 28.2427M31.0711 16.929C34.9763 20.8342 34.9763 27.1659 31.0711 31.0711" stroke="white" stroke-width="2" stroke-linecap="round" stroke-linejoin="round"/>
<path d="M24 26C25.1046 26 26 25.1046 26 24C26 22.8954 25.1046 22 24 22C22.8954 22 22 22.8954 22 24C22 25.1046 22.8954 26 24 26Z" stroke="white" stroke-width="2" stroke-linecap="round" stroke-linejoin="round"/>
</g>
<path d="M69.5781 32.5V16.5H79.9844V18.9297H72.4766V23.2734H79.4453V25.7031H72.4766V30.0703H80.0469V32.5H69.5781ZM85.1189 20.5L87.5408 24.9297L90.0017 20.5H92.9939L89.3767 26.5L93.0564 32.5H90.0798L87.5408 28.1797L85.0252 32.5H82.0252L85.6814 26.5L82.1189 20.5H85.1189ZM95.1714 37V20.5H97.9527V22.4844H98.1167C98.2626 22.1927 98.4683 21.8828 98.7339 21.5547C98.9995 21.2214 99.3589 20.9375 99.812 20.7031C100.265 20.4635 100.843 20.3438 101.546 20.3438C102.473 20.3438 103.309 20.5807 104.054 21.0547C104.804 21.5234 105.398 22.2187 105.835 23.1406C106.278 24.0573 106.5 25.1823 106.5 26.5156C106.5 27.8333 106.283 28.9531 105.851 29.875C105.419 30.7969 104.83 31.5 104.085 31.9844C103.341 32.4688 102.497 32.7109 101.554 32.7109C100.867 32.7109 100.296 32.5964 99.8433 32.3672C99.3902 32.138 99.0256 31.862 98.7495 31.5391C98.4787 31.2109 98.2678 30.901 98.1167 30.6094H97.9995V37H95.1714ZM97.9448 26.5C97.9448 27.276 98.0542 27.9557 98.273 28.5391C98.4969 29.1224 98.8172 29.5781 99.2339 29.9062C99.6558 30.2292 100.166 30.3906 100.765 30.3906C101.39 30.3906 101.914 30.224 102.335 29.8906C102.757 29.5521 103.075 29.0911 103.289 28.5078C103.507 27.9193 103.617 27.25 103.617 26.5C103.617 25.7552 103.51 25.0937 103.296 24.5156C103.083 23.9375 102.765 23.4844 102.343 23.1562C101.921 22.8281 101.395 22.6641 100.765 22.6641C100.161 22.6641 99.648 22.8229 99.2261 23.1406C98.8042 23.4583 98.4839 23.9036 98.2652 24.4766C98.0516 25.0495 97.9448 25.724 97.9448 26.5ZM114.146 32.7344C112.974 32.7344 111.958 32.4766 111.099 31.9609C110.24 31.4453 109.573 30.724 109.099 29.7969C108.63 28.8698 108.396 27.7865 108.396 26.5469C108.396 25.3073 108.63 24.2214 109.099 23.2891C109.573 22.3568 110.24 21.6328 111.099 21.1172C111.958 20.6016 112.974 20.3438 114.146 20.3438C115.318 20.3438 116.333 20.6016 117.193 21.1172C118.052 21.6328 118.716 22.3568 119.185 23.2891C119.659 24.2214 119.896 25.3073 119.896 26.5469C119.896 27.7865 119.659 28.8698 119.185 29.7969C118.716 30.724 118.052 31.4453 117.193 31.9609C116.333 32.4766 115.318 32.7344 114.146 32.7344ZM114.161 30.4687C114.797 30.4687 115.328 30.2943 115.755 29.9453C116.182 29.5911 116.5 29.1172 116.708 28.5234C116.922 27.9297 117.029 27.2682 117.029 26.5391C117.029 25.8047 116.922 25.1406 116.708 24.5469C116.5 23.9479 116.182 23.4714 115.755 23.1172C115.328 22.763 114.797 22.5859 114.161 22.5859C113.51 22.5859 112.969 22.763 112.536 23.1172C112.109 23.4714 111.789 23.9479 111.575 24.5469C111.367 25.1406 111.263 25.8047 111.263 26.5391C111.263 27.2682 111.367 27.9297 111.575 28.5234C111.789 29.1172 112.109 29.5911 112.536 29.9453C112.969 30.2943 113.51 30.4687 114.161 30.4687ZM141.554 21.8984H138.632C138.548 21.4193 138.395 20.9948 138.171 20.625C137.947 20.25 137.668 19.9323 137.335 19.6719C137.001 19.4115 136.621 19.2161 136.194 19.0859C135.772 18.9505 135.317 18.8828 134.827 18.8828C133.957 18.8828 133.186 19.1016 132.514 19.5391C131.843 19.9714 131.317 20.6068 130.936 21.4453C130.556 22.2786 130.366 23.2969 130.366 24.5C130.366 25.724 130.556 26.7552 130.936 27.5937C131.322 28.4271 131.848 29.0573 132.514 29.4844C133.186 29.9062 133.955 30.1172 134.819 30.1172C135.298 30.1172 135.746 30.0547 136.163 29.9297C136.585 29.7995 136.962 29.6094 137.296 29.3594C137.634 29.1094 137.918 28.8021 138.147 28.4375C138.382 28.0729 138.543 27.6562 138.632 27.1875L141.554 27.2031C141.444 27.9635 141.207 28.6771 140.843 29.3438C140.483 30.0104 140.012 30.599 139.429 31.1094C138.845 31.6146 138.163 32.0104 137.382 32.2969C136.6 32.5781 135.733 32.7187 134.78 32.7187C133.374 32.7187 132.119 32.3932 131.014 31.7422C129.91 31.0911 129.04 30.151 128.405 28.9219C127.77 27.6927 127.452 26.2187 127.452 24.5C127.452 22.776 127.772 21.3021 128.413 20.0781C129.054 18.849 129.926 17.9089 131.03 17.2578C132.134 16.6068 133.384 16.2812 134.78 16.2812C135.671 16.2812 136.499 16.4062 137.264 16.6562C138.03 16.9062 138.712 17.2734 139.311 17.7578C139.91 18.237 140.402 18.8255 140.788 19.5234C141.179 20.2161 141.434 21.0078 141.554 21.8984ZM149.385 32.7344C148.182 32.7344 147.143 32.4844 146.268 31.9844C145.398 31.4792 144.729 30.7656 144.26 29.8437C143.792 28.9167 143.557 27.8255 143.557 26.5703C143.557 25.3359 143.792 24.2526 144.26 23.3203C144.734 22.3828 145.396 21.6536 146.245 21.1328C147.094 20.6068 148.091 20.3438 149.237 20.3438C149.976 20.3438 150.674 20.4635 151.331 20.7031C151.992 20.9375 152.575 21.3021 153.081 21.7969C153.591 22.2917 153.992 22.9219 154.284 23.6875C154.575 24.4479 154.721 25.3542 154.721 26.4062V27.2734H144.885V25.3672H152.01C152.005 24.8255 151.888 24.3437 151.659 23.9219C151.43 23.4948 151.109 23.1589 150.698 22.9141C150.292 22.6693 149.818 22.5469 149.276 22.5469C148.698 22.5469 148.19 22.6875 147.753 22.9687C147.315 23.2448 146.974 23.6094 146.729 24.0625C146.489 24.5104 146.367 25.0026 146.362 25.5391V27.2031C146.362 27.901 146.489 28.5 146.745 29C147 29.4948 147.357 29.875 147.815 30.1406C148.273 30.401 148.81 30.5312 149.424 30.5312C149.836 30.5312 150.208 30.474 150.542 30.3594C150.875 30.2396 151.164 30.0651 151.409 29.8359C151.654 29.6068 151.838 29.3229 151.963 28.9844L154.604 29.2812C154.437 29.9792 154.12 30.5885 153.651 31.1094C153.187 31.625 152.594 32.026 151.87 32.3125C151.146 32.5937 150.318 32.7344 149.385 32.7344ZM159.932 16.5V32.5H157.104V16.5H159.932ZM165.658 16.5V32.5H162.83V16.5H165.658ZM176.205 27.4531V20.5H179.033V32.5H176.291V30.3672H176.166C175.895 31.0391 175.45 31.5885 174.83 32.0156C174.215 32.4427 173.458 32.6563 172.556 32.6563C171.77 32.6563 171.075 32.4818 170.471 32.1328C169.872 31.7786 169.403 31.2656 169.064 30.5938C168.726 29.9167 168.556 29.099 168.556 28.1406V20.5H171.385V27.7031C171.385 28.4635 171.593 29.0677 172.01 29.5156C172.426 29.9635 172.973 30.1875 173.65 30.1875C174.067 30.1875 174.471 30.0859 174.861 29.8828C175.252 29.6797 175.572 29.3776 175.822 28.9766C176.077 28.5703 176.205 28.0625 176.205 27.4531ZM184.759 16.5V32.5H181.931V16.5H184.759ZM191.111 32.7422C190.35 32.7422 189.665 32.6068 189.056 32.3359C188.452 32.0599 187.973 31.6536 187.619 31.1172C187.27 30.5807 187.095 29.9193 187.095 29.1328C187.095 28.4557 187.22 27.8958 187.47 27.4531C187.72 27.0104 188.061 26.6562 188.494 26.3906C188.926 26.125 189.413 25.9245 189.954 25.7891C190.501 25.6484 191.066 25.5469 191.65 25.4844C192.353 25.4115 192.923 25.3464 193.361 25.2891C193.798 25.2266 194.116 25.1328 194.314 25.0078C194.517 24.8776 194.619 24.6771 194.619 24.4062V24.3594C194.619 23.7708 194.444 23.3151 194.095 22.9922C193.746 22.6693 193.244 22.5078 192.587 22.5078C191.895 22.5078 191.345 22.6589 190.939 22.9609C190.538 23.263 190.267 23.6198 190.126 24.0312L187.486 23.6562C187.694 22.9271 188.038 22.3177 188.517 21.8281C188.996 21.3333 189.582 20.9635 190.275 20.7187C190.967 20.4688 191.733 20.3438 192.572 20.3438C193.15 20.3438 193.725 20.4115 194.298 20.5469C194.871 20.6823 195.395 20.9062 195.869 21.2187C196.342 21.526 196.723 21.9453 197.009 22.4766C197.301 23.0078 197.447 23.6719 197.447 24.4687V32.5H194.728V30.8516H194.634C194.462 31.1849 194.22 31.4974 193.908 31.7891C193.6 32.0755 193.212 32.3073 192.744 32.4844C192.28 32.6563 191.736 32.7422 191.111 32.7422ZM191.845 30.6641C192.413 30.6641 192.905 30.5521 193.322 30.3281C193.738 30.099 194.059 29.7969 194.283 29.4219C194.512 29.0469 194.626 28.638 194.626 28.1953V26.7812C194.538 26.8542 194.387 26.9219 194.173 26.9844C193.965 27.0469 193.73 27.1016 193.47 27.1484C193.21 27.1953 192.952 27.237 192.697 27.2734C192.441 27.3099 192.22 27.3411 192.033 27.3672C191.611 27.4245 191.233 27.5182 190.9 27.6484C190.566 27.7786 190.303 27.9609 190.111 28.1953C189.918 28.4245 189.822 28.7214 189.822 29.0859C189.822 29.6068 190.012 30 190.392 30.2656C190.772 30.5312 191.257 30.6641 191.845 30.6641ZM200.28 32.5V20.5H203.023V22.5H203.148C203.366 21.8073 203.741 21.2734 204.273 20.8984C204.809 20.5182 205.421 20.3281 206.109 20.3281C206.265 20.3281 206.439 20.3359 206.632 20.3516C206.83 20.362 206.994 20.3802 207.124 20.4062V23.0078C207.004 22.9661 206.814 22.9297 206.554 22.8984C206.299 22.862 206.051 22.8437 205.812 22.8437C205.296 22.8437 204.832 22.9557 204.421 23.1797C204.015 23.3984 203.694 23.7031 203.46 24.0937C203.226 24.4844 203.109 24.9349 203.109 25.4453V32.5H200.28Z" fill="#93C926"/>
<defs>
<radialGradient id="paint0_radial_107_139" cx="0" cy="0" r="1" gradientUnits="userSpaceOnUse" gradientTransform="translate(4 4) rotate(90) scale(32)">
<stop stop-color="white"/>
<stop offset="1" stop-color="white" stop-opacity="0"/>
</radialGradient>
<clipPath id="clip0_107_139">
<rect width="48" height="48" rx="10" fill="white"/>
</clipPath>
</defs>
</svg>
