<svg width="244" height="48" viewBox="0 0 244 48" fill="none" xmlns="http://www.w3.org/2000/svg">
<g clip-path="url(#clip0_571_169)">
<rect width="48" height="48" rx="10" fill="#147D6F"/>
<g opacity="0.4">
<rect x="-28" y="-28" width="64" height="64" rx="10" fill="url(#paint0_radial_571_169)"/>
</g>
<path opacity="0.66" d="M25.2694 33.9999C22.675 32.382 20.9471 29.5024 20.9471 26.2187C20.9471 24.5315 22.3145 23.164 24.0007 23.164C25.6869 23.164 27.0543 24.5315 27.0543 26.2187C27.0543 27.9059 28.4218 29.2733 30.108 29.2733C31.7942 29.2733 33.1616 27.9059 33.1616 26.2187C33.1616 21.1571 29.0602 17.0547 24.0017 17.0547C18.9432 17.0547 14.8418 21.1571 14.8418 26.2187C14.8418 27.3469 14.9681 28.4455 15.2002 29.5045" stroke="white" stroke-width="2" stroke-linecap="round" stroke-linejoin="round"/>
<path d="M20.0999 33.221C18.71 31.2375 17.8924 28.8243 17.8924 26.2187C17.8924 22.8443 20.6263 20.1093 23.9987 20.1093C27.371 20.1093 30.1049 22.8443 30.1049 26.2187M30.4359 32.3117C30.3259 32.3178 30.218 32.328 30.107 32.328C26.7347 32.328 24.0007 29.593 24.0007 26.2187M32.5253 17.8631C30.443 15.4978 27.3985 14 23.9997 14C20.6009 14 17.5564 15.4978 15.4741 17.8631" stroke="white" stroke-width="2" stroke-linecap="round" stroke-linejoin="round"/>
</g>
<path d="M69.5781 32.5V16.5H79.9844V18.9297H72.4766V23.2734H79.4453V25.7031H72.4766V30.0703H80.0469V32.5H69.5781ZM85.1189 20.5L87.5408 24.9297L90.0017 20.5H92.9939L89.3767 26.5L93.0564 32.5H90.0798L87.5408 28.1797L85.0252 32.5H82.0252L85.6814 26.5L82.1189 20.5H85.1189ZM95.1714 37V20.5H97.9527V22.4844H98.1167C98.2626 22.1927 98.4683 21.8828 98.7339 21.5547C98.9995 21.2214 99.3589 20.9375 99.812 20.7031C100.265 20.4635 100.843 20.3438 101.546 20.3438C102.473 20.3438 103.309 20.5807 104.054 21.0547C104.804 21.5234 105.398 22.2187 105.835 23.1406C106.278 24.0573 106.5 25.1823 106.5 26.5156C106.5 27.8333 106.283 28.9531 105.851 29.875C105.419 30.7969 104.83 31.5 104.085 31.9844C103.341 32.4688 102.497 32.7109 101.554 32.7109C100.867 32.7109 100.296 32.5964 99.8433 32.3672C99.3902 32.138 99.0256 31.862 98.7495 31.5391C98.4787 31.2109 98.2678 30.901 98.1167 30.6094H97.9995V37H95.1714ZM97.9448 26.5C97.9448 27.276 98.0542 27.9557 98.273 28.5391C98.4969 29.1224 98.8172 29.5781 99.2339 29.9062C99.6558 30.2292 100.166 30.3906 100.765 30.3906C101.39 30.3906 101.914 30.224 102.335 29.8906C102.757 29.5521 103.075 29.0911 103.289 28.5078C103.507 27.9193 103.617 27.25 103.617 26.5C103.617 25.7552 103.51 25.0937 103.296 24.5156C103.083 23.9375 102.765 23.4844 102.343 23.1562C101.921 22.8281 101.395 22.6641 100.765 22.6641C100.161 22.6641 99.648 22.8229 99.2261 23.1406C98.8042 23.4583 98.4839 23.9036 98.2652 24.4766C98.0516 25.0495 97.9448 25.724 97.9448 26.5ZM114.146 32.7344C112.974 32.7344 111.958 32.4766 111.099 31.9609C110.24 31.4453 109.573 30.724 109.099 29.7969C108.63 28.8698 108.396 27.7865 108.396 26.5469C108.396 25.3073 108.63 24.2214 109.099 23.2891C109.573 22.3568 110.24 21.6328 111.099 21.1172C111.958 20.6016 112.974 20.3438 114.146 20.3438C115.318 20.3438 116.333 20.6016 117.193 21.1172C118.052 21.6328 118.716 22.3568 119.185 23.2891C119.659 24.2214 119.896 25.3073 119.896 26.5469C119.896 27.7865 119.659 28.8698 119.185 29.7969C118.716 30.724 118.052 31.4453 117.193 31.9609C116.333 32.4766 115.318 32.7344 114.146 32.7344ZM114.161 30.4687C114.797 30.4687 115.328 30.2943 115.755 29.9453C116.182 29.5911 116.5 29.1172 116.708 28.5234C116.922 27.9297 117.029 27.2682 117.029 26.5391C117.029 25.8047 116.922 25.1406 116.708 24.5469C116.5 23.9479 116.182 23.4714 115.755 23.1172C115.328 22.763 114.797 22.5859 114.161 22.5859C113.51 22.5859 112.969 22.763 112.536 23.1172C112.109 23.4714 111.789 23.9479 111.575 24.5469C111.367 25.1406 111.263 25.8047 111.263 26.5391C111.263 27.2682 111.367 27.9297 111.575 28.5234C111.789 29.1172 112.109 29.5911 112.536 29.9453C112.969 30.2943 113.51 30.4687 114.161 30.4687ZM127.858 32.5V16.5H138.108V18.9297H130.757V23.2734H137.405V25.7031H130.757V32.5H127.858ZM140.614 32.5V20.5H143.442V32.5H140.614ZM142.036 18.7969C141.588 18.7969 141.202 18.6484 140.879 18.3516C140.557 18.0495 140.395 17.6875 140.395 17.2656C140.395 16.8385 140.557 16.4766 140.879 16.1797C141.202 15.8776 141.588 15.7266 142.036 15.7266C142.489 15.7266 142.874 15.8776 143.192 16.1797C143.515 16.4766 143.676 16.8385 143.676 17.2656C143.676 17.6875 143.515 18.0495 143.192 18.3516C142.874 18.6484 142.489 18.7969 142.036 18.7969ZM149.168 25.4687V32.5H146.34V20.5H149.043V22.5391H149.184C149.46 21.8672 149.9 21.3333 150.504 20.9375C151.114 20.5417 151.866 20.3438 152.762 20.3438C153.59 20.3438 154.312 20.5208 154.926 20.875C155.546 21.2292 156.025 21.7422 156.364 22.4141C156.707 23.0859 156.877 23.901 156.871 24.8594V32.5H154.043V25.2969C154.043 24.4948 153.835 23.8672 153.418 23.4141C153.007 22.9609 152.437 22.7344 151.707 22.7344C151.213 22.7344 150.772 22.8437 150.387 23.0625C150.007 23.276 149.707 23.5859 149.489 23.9922C149.275 24.3984 149.168 24.8906 149.168 25.4687ZM164.955 37.25C163.94 37.25 163.067 37.112 162.338 36.8359C161.609 36.5651 161.023 36.2005 160.58 35.7422C160.137 35.2839 159.83 34.776 159.658 34.2188L162.205 33.6016C162.32 33.8359 162.486 34.0677 162.705 34.2969C162.924 34.5313 163.218 34.724 163.588 34.875C163.963 35.0313 164.434 35.1094 165.002 35.1094C165.804 35.1094 166.468 34.9141 166.994 34.5234C167.52 34.138 167.783 33.5026 167.783 32.6172V30.3437H167.643C167.497 30.6354 167.283 30.9349 167.002 31.2422C166.726 31.5495 166.359 31.8073 165.9 32.0156C165.447 32.224 164.877 32.3281 164.19 32.3281C163.268 32.3281 162.432 32.112 161.682 31.6797C160.937 31.2422 160.343 30.5911 159.9 29.7266C159.463 28.8568 159.244 27.7682 159.244 26.4609C159.244 25.1432 159.463 24.0312 159.9 23.125C160.343 22.2135 160.94 21.5234 161.69 21.0547C162.44 20.5807 163.275 20.3438 164.197 20.3438C164.9 20.3438 165.479 20.4635 165.932 20.7031C166.39 20.9375 166.755 21.2214 167.025 21.5547C167.296 21.8828 167.502 22.1927 167.643 22.4844H167.799V20.5H170.588V32.6953C170.588 33.7214 170.343 34.5703 169.854 35.2422C169.364 35.9141 168.695 36.4167 167.846 36.75C166.997 37.0833 166.033 37.25 164.955 37.25ZM164.979 30.1094C165.578 30.1094 166.088 29.9635 166.51 29.6719C166.932 29.3802 167.252 28.9609 167.471 28.4141C167.69 27.8672 167.799 27.2109 167.799 26.4453C167.799 25.6901 167.69 25.0286 167.471 24.4609C167.257 23.8932 166.94 23.4531 166.518 23.1406C166.101 22.8229 165.588 22.6641 164.979 22.6641C164.348 22.6641 163.822 22.8281 163.4 23.1562C162.979 23.4844 162.661 23.9349 162.447 24.5078C162.234 25.0755 162.127 25.7214 162.127 26.4453C162.127 27.1797 162.234 27.8229 162.447 28.375C162.666 28.9219 162.986 29.349 163.408 29.6562C163.835 29.9583 164.359 30.1094 164.979 30.1094ZM178.789 32.7344C177.586 32.7344 176.547 32.4844 175.672 31.9844C174.802 31.4792 174.133 30.7656 173.664 29.8437C173.195 28.9167 172.961 27.8255 172.961 26.5703C172.961 25.3359 173.195 24.2526 173.664 23.3203C174.138 22.3828 174.799 21.6536 175.648 21.1328C176.497 20.6068 177.495 20.3438 178.64 20.3438C179.38 20.3438 180.078 20.4635 180.734 20.7031C181.396 20.9375 181.979 21.3021 182.484 21.7969C182.995 22.2917 183.396 22.9219 183.687 23.6875C183.979 24.4479 184.125 25.3542 184.125 26.4062V27.2734H174.289V25.3672H181.414C181.409 24.8255 181.292 24.3437 181.062 23.9219C180.833 23.4948 180.513 23.1589 180.101 22.9141C179.695 22.6693 179.221 22.5469 178.68 22.5469C178.101 22.5469 177.594 22.6875 177.156 22.9687C176.719 23.2448 176.377 23.6094 176.133 24.0625C175.893 24.5104 175.771 25.0026 175.765 25.5391V27.2031C175.765 27.901 175.893 28.5 176.148 29C176.403 29.4948 176.76 29.875 177.219 30.1406C177.677 30.401 178.213 30.5312 178.828 30.5312C179.239 30.5312 179.612 30.474 179.945 30.3594C180.278 30.2396 180.568 30.0651 180.812 29.8359C181.057 29.6068 181.242 29.3229 181.367 28.9844L184.008 29.2812C183.841 29.9792 183.523 30.5885 183.055 31.1094C182.591 31.625 181.997 32.026 181.273 32.3125C180.549 32.5937 179.721 32.7344 178.789 32.7344ZM186.507 32.5V20.5H189.25V22.5H189.375C189.593 21.8073 189.968 21.2734 190.5 20.8984C191.036 20.5182 191.648 20.3281 192.336 20.3281C192.492 20.3281 192.666 20.3359 192.859 20.3516C193.057 20.362 193.221 20.3802 193.351 20.4062V23.0078C193.231 22.9661 193.041 22.9297 192.781 22.8984C192.526 22.862 192.278 22.8437 192.039 22.8437C191.523 22.8437 191.06 22.9557 190.648 23.1797C190.242 23.3984 189.921 23.7031 189.687 24.0937C189.453 24.4844 189.336 24.9349 189.336 25.4453V32.5H186.507ZM195.22 37V20.5H198.001V22.4844H198.165C198.311 22.1927 198.517 21.8828 198.783 21.5547C199.048 21.2214 199.408 20.9375 199.861 20.7031C200.314 20.4635 200.892 20.3438 201.595 20.3438C202.522 20.3438 203.358 20.5807 204.103 21.0547C204.853 21.5234 205.447 22.2187 205.884 23.1406C206.327 24.0573 206.548 25.1823 206.548 26.5156C206.548 27.8333 206.332 28.9531 205.9 29.875C205.467 30.7969 204.879 31.5 204.134 31.9844C203.389 32.4688 202.546 32.7109 201.603 32.7109C200.915 32.7109 200.345 32.5964 199.892 32.3672C199.439 32.138 199.074 31.862 198.798 31.5391C198.527 31.2109 198.316 30.901 198.165 30.6094H198.048V37H195.22ZM197.994 26.5C197.994 27.276 198.103 27.9557 198.322 28.5391C198.546 29.1224 198.866 29.5781 199.283 29.9062C199.704 30.2292 200.215 30.3906 200.814 30.3906C201.439 30.3906 201.962 30.224 202.384 29.8906C202.806 29.5521 203.124 29.0911 203.337 28.5078C203.556 27.9193 203.665 27.25 203.665 26.5C203.665 25.7552 203.559 25.0937 203.345 24.5156C203.132 23.9375 202.814 23.4844 202.392 23.1562C201.97 22.8281 201.444 22.6641 200.814 22.6641C200.21 22.6641 199.697 22.8229 199.275 23.1406C198.853 23.4583 198.533 23.9036 198.314 24.4766C198.1 25.0495 197.994 25.724 197.994 26.5ZM208.96 32.5V20.5H211.702V22.5H211.827C212.046 21.8073 212.421 21.2734 212.952 20.8984C213.489 20.5182 214.101 20.3281 214.788 20.3281C214.944 20.3281 215.119 20.3359 215.312 20.3516C215.51 20.362 215.674 20.3802 215.804 20.4062V23.0078C215.684 22.9661 215.494 22.9297 215.234 22.8984C214.978 22.862 214.731 22.8437 214.491 22.8437C213.976 22.8437 213.512 22.9557 213.101 23.1797C212.694 23.3984 212.374 23.7031 212.14 24.0937C211.905 24.4844 211.788 24.9349 211.788 25.4453V32.5H208.96ZM217.673 32.5V20.5H220.501V32.5H217.673ZM219.095 18.7969C218.647 18.7969 218.261 18.6484 217.938 18.3516C217.615 18.0495 217.454 17.6875 217.454 17.2656C217.454 16.8385 217.615 16.4766 217.938 16.1797C218.261 15.8776 218.647 15.7266 219.095 15.7266C219.548 15.7266 219.933 15.8776 220.251 16.1797C220.574 16.4766 220.735 16.8385 220.735 17.2656C220.735 17.6875 220.574 18.0495 220.251 18.3516C219.933 18.6484 219.548 18.7969 219.095 18.7969ZM226.227 25.4687V32.5H223.399V20.5H226.102V22.5391H226.243C226.519 21.8672 226.959 21.3333 227.563 20.9375C228.173 20.5417 228.925 20.3438 229.821 20.3438C230.649 20.3438 231.37 20.5208 231.985 20.875C232.605 21.2292 233.084 21.7422 233.423 22.4141C233.766 23.0859 233.936 23.901 233.93 24.8594V32.5H231.102V25.2969C231.102 24.4948 230.894 23.8672 230.477 23.4141C230.066 22.9609 229.495 22.7344 228.766 22.7344C228.271 22.7344 227.831 22.8437 227.446 23.0625C227.066 23.276 226.766 23.5859 226.548 23.9922C226.334 24.3984 226.227 24.8906 226.227 25.4687ZM242.788 20.5V22.6875H235.889V20.5H242.788ZM237.592 17.625H240.42V28.8906C240.42 29.2708 240.478 29.5625 240.592 29.7656C240.712 29.9635 240.868 30.099 241.061 30.1719C241.254 30.2448 241.467 30.2812 241.702 30.2812C241.879 30.2812 242.04 30.2682 242.186 30.2422C242.337 30.2161 242.452 30.1927 242.53 30.1719L243.006 32.3828C242.855 32.4349 242.639 32.4922 242.358 32.5547C242.082 32.6172 241.743 32.6536 241.342 32.6641C240.634 32.6849 239.996 32.5781 239.428 32.3437C238.86 32.1042 238.41 31.7344 238.077 31.2344C237.748 30.7344 237.587 30.1094 237.592 29.3594V17.625Z" fill="#147D6F"/>
<defs>
<radialGradient id="paint0_radial_571_169" cx="0" cy="0" r="1" gradientUnits="userSpaceOnUse" gradientTransform="translate(4 4) rotate(90) scale(32)">
<stop stop-color="white"/>
<stop offset="1" stop-color="white" stop-opacity="0"/>
</radialGradient>
<clipPath id="clip0_571_169">
<rect width="48" height="48" rx="10" fill="white"/>
</clipPath>
</defs>
</svg>
