<svg width="205" height="48" viewBox="0 0 205 48" fill="none" xmlns="http://www.w3.org/2000/svg">
<g clip-path="url(#clip0_45_172)">
<rect width="48" height="48" rx="10" fill="#87BE22"/>
<g opacity="0.4">
<rect x="-28" y="-28" width="64" height="64" rx="10" fill="url(#paint0_radial_45_172)"/>
</g>
<path opacity="0.4" d="M21.5 30L25.5 24H19.5L23.5 18M34 25V23" stroke="white" stroke-width="2" stroke-linecap="round" stroke-linejoin="round"/>
<path d="M26 30H26.2C27.8802 30 28.7202 30 29.362 29.673C29.9265 29.3854 30.3854 28.9265 30.673 28.362C31 27.7202 31 26.8802 31 25.2V22C31 21.07 31 20.605 30.8978 20.2235C30.6204 19.1883 29.8117 18.3796 28.7765 18.1022C28.395 18 27.93 18 27 18M19 18H18.8C17.1198 18 16.2798 18 15.638 18.327C15.0735 18.6146 14.6146 19.0735 14.327 19.638C14 20.2798 14 21.1198 14 22.8V26C14 26.93 14 27.395 14.1022 27.7765C14.3796 28.8117 15.1883 29.6204 16.2235 29.8978C16.605 30 17.07 30 18 30" stroke="white" stroke-width="2" stroke-linecap="round" stroke-linejoin="round"/>
</g>
<path d="M69.5781 32.5V16.5H79.9844V18.9297H72.4766V23.2734H79.4453V25.7031H72.4766V30.0703H80.0469V32.5H69.5781ZM85.1189 20.5L87.5408 24.9297L90.0017 20.5H92.9939L89.3767 26.5L93.0564 32.5H90.0798L87.5408 28.1797L85.0252 32.5H82.0252L85.6814 26.5L82.1189 20.5H85.1189ZM95.1714 37V20.5H97.9527V22.4844H98.1167C98.2626 22.1927 98.4683 21.8828 98.7339 21.5547C98.9995 21.2214 99.3589 20.9375 99.812 20.7031C100.265 20.4635 100.843 20.3438 101.546 20.3438C102.473 20.3438 103.309 20.5807 104.054 21.0547C104.804 21.5234 105.398 22.2187 105.835 23.1406C106.278 24.0573 106.5 25.1823 106.5 26.5156C106.5 27.8333 106.283 28.9531 105.851 29.875C105.419 30.7969 104.83 31.5 104.085 31.9844C103.341 32.4688 102.497 32.7109 101.554 32.7109C100.867 32.7109 100.296 32.5964 99.8433 32.3672C99.3902 32.138 99.0256 31.862 98.7495 31.5391C98.4787 31.2109 98.2678 30.901 98.1167 30.6094H97.9995V37H95.1714ZM97.9448 26.5C97.9448 27.276 98.0542 27.9557 98.273 28.5391C98.4969 29.1224 98.8172 29.5781 99.2339 29.9062C99.6558 30.2292 100.166 30.3906 100.765 30.3906C101.39 30.3906 101.914 30.224 102.335 29.8906C102.757 29.5521 103.075 29.0911 103.289 28.5078C103.507 27.9193 103.617 27.25 103.617 26.5C103.617 25.7552 103.51 25.0937 103.296 24.5156C103.083 23.9375 102.765 23.4844 102.343 23.1562C101.921 22.8281 101.395 22.6641 100.765 22.6641C100.161 22.6641 99.648 22.8229 99.2261 23.1406C98.8042 23.4583 98.4839 23.9036 98.2652 24.4766C98.0516 25.0495 97.9448 25.724 97.9448 26.5ZM114.146 32.7344C112.974 32.7344 111.958 32.4766 111.099 31.9609C110.24 31.4453 109.573 30.724 109.099 29.7969C108.63 28.8698 108.396 27.7865 108.396 26.5469C108.396 25.3073 108.63 24.2214 109.099 23.2891C109.573 22.3568 110.24 21.6328 111.099 21.1172C111.958 20.6016 112.974 20.3438 114.146 20.3438C115.318 20.3438 116.333 20.6016 117.193 21.1172C118.052 21.6328 118.716 22.3568 119.185 23.2891C119.659 24.2214 119.896 25.3073 119.896 26.5469C119.896 27.7865 119.659 28.8698 119.185 29.7969C118.716 30.724 118.052 31.4453 117.193 31.9609C116.333 32.4766 115.318 32.7344 114.146 32.7344ZM114.161 30.4687C114.797 30.4687 115.328 30.2943 115.755 29.9453C116.182 29.5911 116.5 29.1172 116.708 28.5234C116.922 27.9297 117.029 27.2682 117.029 26.5391C117.029 25.8047 116.922 25.1406 116.708 24.5469C116.5 23.9479 116.182 23.4714 115.755 23.1172C115.328 22.763 114.797 22.5859 114.161 22.5859C113.51 22.5859 112.969 22.763 112.536 23.1172C112.109 23.4714 111.789 23.9479 111.575 24.5469C111.367 25.1406 111.263 25.8047 111.263 26.5391C111.263 27.2682 111.367 27.9297 111.575 28.5234C111.789 29.1172 112.109 29.5911 112.536 29.9453C112.969 30.2943 113.51 30.4687 114.161 30.4687ZM127.858 32.5V16.5H133.983C135.139 16.5 136.1 16.6823 136.866 17.0469C137.637 17.4062 138.212 17.8984 138.593 18.5234C138.978 19.1484 139.171 19.8568 139.171 20.6484C139.171 21.2995 139.046 21.8568 138.796 22.3203C138.546 22.7786 138.21 23.151 137.788 23.4375C137.366 23.724 136.895 23.9297 136.374 24.0547V24.2109C136.942 24.2422 137.486 24.4167 138.007 24.7344C138.533 25.0469 138.962 25.4896 139.296 26.0625C139.629 26.6354 139.796 27.3281 139.796 28.1406C139.796 28.9687 139.595 29.7135 139.194 30.375C138.793 31.0312 138.189 31.5495 137.382 31.9297C136.574 32.3099 135.559 32.5 134.335 32.5H127.858ZM130.757 30.0781H133.874C134.926 30.0781 135.684 29.8776 136.147 29.4766C136.616 29.0703 136.85 28.5495 136.85 27.9141C136.85 27.4401 136.733 27.013 136.499 26.6328C136.264 26.2474 135.931 25.9453 135.499 25.7266C135.067 25.5026 134.551 25.3906 133.952 25.3906H130.757V30.0781ZM130.757 23.3047H133.624C134.124 23.3047 134.574 23.2135 134.975 23.0312C135.376 22.8437 135.692 22.5807 135.921 22.2422C136.155 21.8984 136.272 21.4922 136.272 21.0234C136.272 20.4036 136.054 19.8932 135.616 19.4922C135.184 19.0911 134.54 18.8906 133.686 18.8906H130.757V23.3047ZM145.635 32.7422C144.875 32.7422 144.19 32.6068 143.581 32.3359C142.976 32.0599 142.497 31.6536 142.143 31.1172C141.794 30.5807 141.62 29.9193 141.62 29.1328C141.62 28.4557 141.745 27.8958 141.995 27.4531C142.245 27.0104 142.586 26.6562 143.018 26.3906C143.45 26.125 143.937 25.9245 144.479 25.7891C145.026 25.6484 145.591 25.5469 146.174 25.4844C146.878 25.4115 147.448 25.3464 147.885 25.2891C148.323 25.2266 148.641 25.1328 148.838 25.0078C149.042 24.8776 149.143 24.6771 149.143 24.4062V24.3594C149.143 23.7708 148.969 23.3151 148.62 22.9922C148.271 22.6693 147.768 22.5078 147.112 22.5078C146.419 22.5078 145.87 22.6589 145.463 22.9609C145.062 23.263 144.792 23.6198 144.651 24.0312L142.01 23.6562C142.219 22.9271 142.562 22.3177 143.042 21.8281C143.521 21.3333 144.107 20.9635 144.799 20.7187C145.492 20.4688 146.258 20.3438 147.096 20.3438C147.674 20.3438 148.25 20.4115 148.823 20.5469C149.396 20.6823 149.919 20.9062 150.393 21.2187C150.867 21.526 151.247 21.9453 151.534 22.4766C151.825 23.0078 151.971 23.6719 151.971 24.4687V32.5H149.253V30.8516H149.159C148.987 31.1849 148.745 31.4974 148.432 31.7891C148.125 32.0755 147.737 32.3073 147.268 32.4844C146.805 32.6563 146.26 32.7422 145.635 32.7422ZM146.37 30.6641C146.937 30.6641 147.43 30.5521 147.846 30.3281C148.263 30.099 148.583 29.7969 148.807 29.4219C149.036 29.0469 149.151 28.638 149.151 28.1953V26.7812C149.062 26.8542 148.911 26.9219 148.698 26.9844C148.489 27.0469 148.255 27.1016 147.995 27.1484C147.734 27.1953 147.476 27.237 147.221 27.2734C146.966 27.3099 146.745 27.3411 146.557 27.3672C146.135 27.4245 145.758 27.5182 145.424 27.6484C145.091 27.7786 144.828 27.9609 144.635 28.1953C144.443 28.4245 144.346 28.7214 144.346 29.0859C144.346 29.6068 144.536 30 144.917 30.2656C145.297 30.5312 145.781 30.6641 146.37 30.6641ZM160.797 20.5V22.6875H153.899V20.5H160.797ZM155.602 17.625H158.43V28.8906C158.43 29.2708 158.487 29.5625 158.602 29.7656C158.722 29.9635 158.878 30.099 159.071 30.1719C159.263 30.2448 159.477 30.2812 159.711 30.2812C159.888 30.2812 160.05 30.2682 160.196 30.2422C160.347 30.2161 160.461 30.1927 160.539 30.1719L161.016 32.3828C160.865 32.4349 160.649 32.4922 160.368 32.5547C160.091 32.6172 159.753 32.6536 159.352 32.6641C158.644 32.6849 158.006 32.5781 157.438 32.3437C156.87 32.1042 156.42 31.7344 156.086 31.2344C155.758 30.7344 155.597 30.1094 155.602 29.3594V17.625ZM169.145 20.5V22.6875H162.246V20.5H169.145ZM163.949 17.625H166.777V28.8906C166.777 29.2708 166.835 29.5625 166.949 29.7656C167.069 29.9635 167.225 30.099 167.418 30.1719C167.611 30.2448 167.824 30.2812 168.059 30.2812C168.236 30.2812 168.397 30.2682 168.543 30.2422C168.694 30.2161 168.809 30.1927 168.887 30.1719L169.363 32.3828C169.212 32.4349 168.996 32.4922 168.715 32.5547C168.439 32.6172 168.1 32.6536 167.699 32.6641C166.991 32.6849 166.353 32.5781 165.785 32.3437C165.218 32.1042 164.767 31.7344 164.434 31.2344C164.106 30.7344 163.944 30.1094 163.949 29.3594V17.625ZM176.683 32.7344C175.48 32.7344 174.441 32.4844 173.566 31.9844C172.696 31.4792 172.027 30.7656 171.558 29.8437C171.09 28.9167 170.855 27.8255 170.855 26.5703C170.855 25.3359 171.09 24.2526 171.558 23.3203C172.032 22.3828 172.694 21.6536 173.543 21.1328C174.392 20.6068 175.389 20.3438 176.535 20.3438C177.275 20.3438 177.973 20.4635 178.629 20.7031C179.29 20.9375 179.874 21.3021 180.379 21.7969C180.889 22.2917 181.29 22.9219 181.582 23.6875C181.874 24.4479 182.019 25.3542 182.019 26.4062V27.2734H172.183V25.3672H179.308C179.303 24.8255 179.186 24.3437 178.957 23.9219C178.728 23.4948 178.407 23.1589 177.996 22.9141C177.59 22.6693 177.116 22.5469 176.574 22.5469C175.996 22.5469 175.488 22.6875 175.051 22.9687C174.613 23.2448 174.272 23.6094 174.027 24.0625C173.788 24.5104 173.665 25.0026 173.66 25.5391V27.2031C173.66 27.901 173.788 28.5 174.043 29C174.298 29.4948 174.655 29.875 175.113 30.1406C175.571 30.401 176.108 30.5312 176.723 30.5312C177.134 30.5312 177.506 30.474 177.84 30.3594C178.173 30.2396 178.462 30.0651 178.707 29.8359C178.952 29.6068 179.137 29.3229 179.262 28.9844L181.902 29.2812C181.736 29.9792 181.418 30.5885 180.949 31.1094C180.486 31.625 179.892 32.026 179.168 32.3125C178.444 32.5937 177.616 32.7344 176.683 32.7344ZM184.402 32.5V20.5H187.144V22.5H187.269C187.488 21.8073 187.863 21.2734 188.394 20.8984C188.931 20.5182 189.543 20.3281 190.23 20.3281C190.386 20.3281 190.561 20.3359 190.754 20.3516C190.951 20.362 191.115 20.3802 191.246 20.4062V23.0078C191.126 22.9661 190.936 22.9297 190.675 22.8984C190.42 22.862 190.173 22.8437 189.933 22.8437C189.418 22.8437 188.954 22.9557 188.543 23.1797C188.136 23.3984 187.816 23.7031 187.582 24.0937C187.347 24.4844 187.23 24.9349 187.23 25.4453V32.5H184.402ZM195.238 37C194.852 37 194.495 36.9688 194.167 36.9063C193.844 36.849 193.587 36.7813 193.394 36.7031L194.05 34.5C194.462 34.6198 194.829 34.6771 195.152 34.6719C195.475 34.6667 195.758 34.5651 196.003 34.3672C196.253 34.1745 196.464 33.8516 196.636 33.3984L196.878 32.75L192.527 20.5H195.527L198.292 29.5625H198.417L201.191 20.5H204.199L199.394 33.9531C199.17 34.5885 198.873 35.1328 198.503 35.5859C198.133 36.0443 197.68 36.3932 197.144 36.6328C196.613 36.8776 195.977 37 195.238 37Z" fill="#87BE22"/>
<defs>
<radialGradient id="paint0_radial_45_172" cx="0" cy="0" r="1" gradientUnits="userSpaceOnUse" gradientTransform="translate(4 4) rotate(90) scale(32)">
<stop stop-color="white"/>
<stop offset="1" stop-color="white" stop-opacity="0"/>
</radialGradient>
<clipPath id="clip0_45_172">
<rect width="48" height="48" rx="10" fill="white"/>
</clipPath>
</defs>
</svg>
