<svg width="255" height="48" viewBox="0 0 255 48" fill="none" xmlns="http://www.w3.org/2000/svg">
<g clip-path="url(#clip0_37_160)">
<rect width="48" height="48" rx="10" fill="#00B1CC"/>
<g opacity="0.4">
<rect x="-28" y="-28" width="64" height="64" rx="10" fill="url(#paint0_radial_37_160)"/>
</g>
<path opacity="0.4" d="M26.1112 18.7222H32.1405C32.5878 18.7222 32.8115 18.7222 32.9423 18.8162C33.0564 18.8983 33.1307 19.0246 33.147 19.1642C33.1657 19.3242 33.0571 19.5197 32.8399 19.9107L31.3703 22.5559C31.2915 22.6977 31.2521 22.7686 31.2367 22.8437C31.223 22.9101 31.223 22.9787 31.2367 23.0451C31.2521 23.1202 31.2915 23.1911 31.3703 23.3329L32.8399 25.9781C33.0571 26.3691 33.1657 26.5646 33.147 26.7246C33.1307 26.8642 33.0564 26.9905 32.9423 27.0726C32.8115 27.1666 32.5878 27.1666 32.1405 27.1666H24.5446C23.9845 27.1666 23.7045 27.1666 23.4906 27.0576C23.3024 26.9617 23.1494 26.8088 23.0536 26.6206C22.9446 26.4067 22.9446 26.1267 22.9446 25.5666V22.9444" stroke="white" stroke-width="2" stroke-linecap="round" stroke-linejoin="round"/>
<path d="M19.25 33.5002L15.0278 16.6113M16.6112 22.9444H24.5111C25.0712 22.9444 25.3512 22.9444 25.5651 22.8355C25.7533 22.7396 25.9062 22.5866 26.0021 22.3984C26.1111 22.1845 26.1111 21.9045 26.1111 21.3444V16.1C26.1111 15.5399 26.1111 15.2599 26.0021 15.046C25.9062 14.8578 25.7533 14.7049 25.5651 14.609C25.3512 14.5 25.0712 14.5 24.5111 14.5H16.5492C15.8507 14.5 15.5014 14.5 15.2626 14.6447C15.0532 14.7716 14.8976 14.9708 14.8253 15.2047C14.7429 15.4716 14.8276 15.8104 14.997 16.4881L16.6112 22.9444Z" stroke="white" stroke-width="2" stroke-linecap="round" stroke-linejoin="round"/>
</g>
<path d="M69.5781 32.5V16.5H79.9844V18.9297H72.4766V23.2734H79.4453V25.7031H72.4766V30.0703H80.0469V32.5H69.5781ZM85.1189 20.5L87.5408 24.9297L90.0017 20.5H92.9939L89.3767 26.5L93.0564 32.5H90.0798L87.5408 28.1797L85.0252 32.5H82.0252L85.6814 26.5L82.1189 20.5H85.1189ZM95.1714 37V20.5H97.9527V22.4844H98.1167C98.2626 22.1927 98.4683 21.8828 98.7339 21.5547C98.9995 21.2214 99.3589 20.9375 99.812 20.7031C100.265 20.4635 100.843 20.3438 101.546 20.3438C102.473 20.3438 103.309 20.5807 104.054 21.0547C104.804 21.5234 105.398 22.2187 105.835 23.1406C106.278 24.0573 106.5 25.1823 106.5 26.5156C106.5 27.8333 106.283 28.9531 105.851 29.875C105.419 30.7969 104.83 31.5 104.085 31.9844C103.341 32.4688 102.497 32.7109 101.554 32.7109C100.867 32.7109 100.296 32.5964 99.8433 32.3672C99.3902 32.138 99.0256 31.862 98.7495 31.5391C98.4787 31.2109 98.2678 30.901 98.1167 30.6094H97.9995V37H95.1714ZM97.9448 26.5C97.9448 27.276 98.0542 27.9557 98.273 28.5391C98.4969 29.1224 98.8172 29.5781 99.2339 29.9062C99.6558 30.2292 100.166 30.3906 100.765 30.3906C101.39 30.3906 101.914 30.224 102.335 29.8906C102.757 29.5521 103.075 29.0911 103.289 28.5078C103.507 27.9193 103.617 27.25 103.617 26.5C103.617 25.7552 103.51 25.0937 103.296 24.5156C103.083 23.9375 102.765 23.4844 102.343 23.1562C101.921 22.8281 101.395 22.6641 100.765 22.6641C100.161 22.6641 99.648 22.8229 99.2261 23.1406C98.8042 23.4583 98.4839 23.9036 98.2652 24.4766C98.0516 25.0495 97.9448 25.724 97.9448 26.5ZM114.146 32.7344C112.974 32.7344 111.958 32.4766 111.099 31.9609C110.24 31.4453 109.573 30.724 109.099 29.7969C108.63 28.8698 108.396 27.7865 108.396 26.5469C108.396 25.3073 108.63 24.2214 109.099 23.2891C109.573 22.3568 110.24 21.6328 111.099 21.1172C111.958 20.6016 112.974 20.3438 114.146 20.3438C115.318 20.3438 116.333 20.6016 117.193 21.1172C118.052 21.6328 118.716 22.3568 119.185 23.2891C119.659 24.2214 119.896 25.3073 119.896 26.5469C119.896 27.7865 119.659 28.8698 119.185 29.7969C118.716 30.724 118.052 31.4453 117.193 31.9609C116.333 32.4766 115.318 32.7344 114.146 32.7344ZM114.161 30.4687C114.797 30.4687 115.328 30.2943 115.755 29.9453C116.182 29.5911 116.5 29.1172 116.708 28.5234C116.922 27.9297 117.029 27.2682 117.029 26.5391C117.029 25.8047 116.922 25.1406 116.708 24.5469C116.5 23.9479 116.182 23.4714 115.755 23.1172C115.328 22.763 114.797 22.5859 114.161 22.5859C113.51 22.5859 112.969 22.763 112.536 23.1172C112.109 23.4714 111.789 23.9479 111.575 24.5469C111.367 25.1406 111.263 25.8047 111.263 26.5391C111.263 27.2682 111.367 27.9297 111.575 28.5234C111.789 29.1172 112.109 29.5911 112.536 29.9453C112.969 30.2943 113.51 30.4687 114.161 30.4687ZM127.858 32.5V16.5H130.757V30.0703H137.804V32.5H127.858ZM145.419 32.7344C144.247 32.7344 143.231 32.4766 142.372 31.9609C141.512 31.4453 140.846 30.724 140.372 29.7969C139.903 28.8698 139.669 27.7865 139.669 26.5469C139.669 25.3073 139.903 24.2214 140.372 23.2891C140.846 22.3568 141.512 21.6328 142.372 21.1172C143.231 20.6016 144.247 20.3438 145.419 20.3438C146.59 20.3438 147.606 20.6016 148.465 21.1172C149.325 21.6328 149.989 22.3568 150.458 23.2891C150.932 24.2214 151.169 25.3073 151.169 26.5469C151.169 27.7865 150.932 28.8698 150.458 29.7969C149.989 30.724 149.325 31.4453 148.465 31.9609C147.606 32.4766 146.59 32.7344 145.419 32.7344ZM145.434 30.4687C146.07 30.4687 146.601 30.2943 147.028 29.9453C147.455 29.5911 147.773 29.1172 147.981 28.5234C148.195 27.9297 148.301 27.2682 148.301 26.5391C148.301 25.8047 148.195 25.1406 147.981 24.5469C147.773 23.9479 147.455 23.4714 147.028 23.1172C146.601 22.763 146.07 22.5859 145.434 22.5859C144.783 22.5859 144.241 22.763 143.809 23.1172C143.382 23.4714 143.062 23.9479 142.848 24.5469C142.64 25.1406 142.536 25.8047 142.536 26.5391C142.536 27.2682 142.64 27.9297 142.848 28.5234C143.062 29.1172 143.382 29.5911 143.809 29.9453C144.241 30.2943 144.783 30.4687 145.434 30.4687ZM158.793 32.7344C157.595 32.7344 156.567 32.4714 155.707 31.9453C154.853 31.4193 154.194 30.6927 153.731 29.7656C153.272 28.8333 153.043 27.7604 153.043 26.5469C153.043 25.3281 153.278 24.2526 153.746 23.3203C154.215 22.3828 154.877 21.6536 155.731 21.1328C156.59 20.6068 157.606 20.3438 158.778 20.3438C159.752 20.3438 160.614 20.5234 161.364 20.8828C162.119 21.237 162.72 21.7396 163.168 22.3906C163.616 23.0365 163.871 23.7917 163.934 24.6562H161.231C161.121 24.0781 160.861 23.5964 160.45 23.2109C160.043 22.8203 159.499 22.625 158.817 22.625C158.239 22.625 157.731 22.7812 157.293 23.0937C156.856 23.401 156.515 23.8437 156.27 24.4219C156.03 25 155.91 25.6927 155.91 26.5C155.91 27.3177 156.03 28.0208 156.27 28.6094C156.509 29.1927 156.845 29.6432 157.278 29.9609C157.715 30.2734 158.228 30.4297 158.817 30.4297C159.233 30.4297 159.606 30.3516 159.934 30.1953C160.267 30.0339 160.546 29.8021 160.77 29.5C160.994 29.1979 161.147 28.8307 161.231 28.3984H163.934C163.866 29.2474 163.616 30 163.184 30.6562C162.752 31.3073 162.163 31.8177 161.418 32.1875C160.673 32.5521 159.798 32.7344 158.793 32.7344ZM169.699 32.7422C168.939 32.7422 168.254 32.6068 167.645 32.3359C167.04 32.0599 166.561 31.6536 166.207 31.1172C165.858 30.5807 165.684 29.9193 165.684 29.1328C165.684 28.4557 165.809 27.8958 166.059 27.4531C166.309 27.0104 166.65 26.6562 167.082 26.3906C167.514 26.125 168.001 25.9245 168.543 25.7891C169.09 25.6484 169.655 25.5469 170.238 25.4844C170.941 25.4115 171.512 25.3464 171.949 25.2891C172.387 25.2266 172.705 25.1328 172.902 25.0078C173.106 24.8776 173.207 24.6771 173.207 24.4062V24.3594C173.207 23.7708 173.033 23.3151 172.684 22.9922C172.335 22.6693 171.832 22.5078 171.176 22.5078C170.483 22.5078 169.934 22.6589 169.527 22.9609C169.126 23.263 168.856 23.6198 168.715 24.0312L166.074 23.6562C166.283 22.9271 166.626 22.3177 167.106 21.8281C167.585 21.3333 168.171 20.9635 168.863 20.7187C169.556 20.4688 170.322 20.3438 171.16 20.3438C171.738 20.3438 172.314 20.4115 172.887 20.5469C173.46 20.6823 173.983 20.9062 174.457 21.2187C174.931 21.526 175.311 21.9453 175.598 22.4766C175.889 23.0078 176.035 23.6719 176.035 24.4687V32.5H173.316V30.8516H173.223C173.051 31.1849 172.809 31.4974 172.496 31.7891C172.189 32.0755 171.801 32.3073 171.332 32.4844C170.869 32.6563 170.324 32.7422 169.699 32.7422ZM170.434 30.6641C171.001 30.6641 171.494 30.5521 171.91 30.3281C172.327 30.099 172.647 29.7969 172.871 29.4219C173.1 29.0469 173.215 28.638 173.215 28.1953V26.7812C173.126 26.8542 172.975 26.9219 172.762 26.9844C172.553 27.0469 172.319 27.1016 172.059 27.1484C171.798 27.1953 171.54 27.237 171.285 27.2734C171.03 27.3099 170.809 27.3411 170.621 27.3672C170.199 27.4245 169.822 27.5182 169.488 27.6484C169.155 27.7786 168.892 27.9609 168.699 28.1953C168.507 28.4245 168.41 28.7214 168.41 29.0859C168.41 29.6068 168.6 30 168.981 30.2656C169.361 30.5312 169.845 30.6641 170.434 30.6641ZM181.697 16.5V32.5H178.869V16.5H181.697ZM184.595 32.5V20.5H187.423V32.5H184.595ZM186.017 18.7969C185.569 18.7969 185.184 18.6484 184.861 18.3516C184.538 18.0495 184.377 17.6875 184.377 17.2656C184.377 16.8385 184.538 16.4766 184.861 16.1797C185.184 15.8776 185.569 15.7266 186.017 15.7266C186.47 15.7266 186.856 15.8776 187.173 16.1797C187.496 16.4766 187.658 16.8385 187.658 17.2656C187.658 17.6875 187.496 18.0495 187.173 18.3516C186.856 18.6484 186.47 18.7969 186.017 18.7969ZM190.165 32.5V30.7031L196.353 22.9453V22.8437H190.369V20.5H199.814V22.4297L193.923 30.0547V30.1562H200.017V32.5H190.165ZM206.118 32.7422C205.358 32.7422 204.673 32.6068 204.064 32.3359C203.459 32.0599 202.98 31.6536 202.626 31.1172C202.277 30.5807 202.103 29.9193 202.103 29.1328C202.103 28.4557 202.228 27.8958 202.478 27.4531C202.728 27.0104 203.069 26.6562 203.501 26.3906C203.933 26.125 204.42 25.9245 204.962 25.7891C205.509 25.6484 206.074 25.5469 206.657 25.4844C207.36 25.4115 207.931 25.3464 208.368 25.2891C208.806 25.2266 209.123 25.1328 209.321 25.0078C209.525 24.8776 209.626 24.6771 209.626 24.4062V24.3594C209.626 23.7708 209.452 23.3151 209.103 22.9922C208.754 22.6693 208.251 22.5078 207.595 22.5078C206.902 22.5078 206.353 22.6589 205.946 22.9609C205.545 23.263 205.275 23.6198 205.134 24.0312L202.493 23.6562C202.702 22.9271 203.045 22.3177 203.525 21.8281C204.004 21.3333 204.59 20.9635 205.282 20.7187C205.975 20.4688 206.741 20.3438 207.579 20.3438C208.157 20.3438 208.733 20.4115 209.306 20.5469C209.879 20.6823 210.402 20.9062 210.876 21.2187C211.35 21.526 211.73 21.9453 212.017 22.4766C212.308 23.0078 212.454 23.6719 212.454 24.4687V32.5H209.735V30.8516H209.642C209.47 31.1849 209.228 31.4974 208.915 31.7891C208.608 32.0755 208.22 32.3073 207.751 32.4844C207.288 32.6563 206.743 32.7422 206.118 32.7422ZM206.853 30.6641C207.42 30.6641 207.913 30.5521 208.329 30.3281C208.746 30.099 209.066 29.7969 209.29 29.4219C209.519 29.0469 209.634 28.638 209.634 28.1953V26.7812C209.545 26.8542 209.394 26.9219 209.181 26.9844C208.972 27.0469 208.738 27.1016 208.478 27.1484C208.217 27.1953 207.959 27.237 207.704 27.2734C207.449 27.3099 207.228 27.3411 207.04 27.3672C206.618 27.4245 206.241 27.5182 205.907 27.6484C205.574 27.7786 205.311 27.9609 205.118 28.1953C204.926 28.4245 204.829 28.7214 204.829 29.0859C204.829 29.6068 205.019 30 205.4 30.2656C205.78 30.5312 206.264 30.6641 206.853 30.6641ZM221.28 20.5V22.6875H214.382V20.5H221.28ZM216.085 17.625H218.913V28.8906C218.913 29.2708 218.97 29.5625 219.085 29.7656C219.205 29.9635 219.361 30.099 219.554 30.1719C219.746 30.2448 219.96 30.2812 220.194 30.2812C220.371 30.2812 220.533 30.2682 220.679 30.2422C220.83 30.2161 220.944 30.1927 221.022 30.1719L221.499 32.3828C221.348 32.4349 221.132 32.4922 220.85 32.5547C220.574 32.6172 220.236 32.6536 219.835 32.6641C219.127 32.6849 218.488 32.5781 217.921 32.3437C217.353 32.1042 216.903 31.7344 216.569 31.2344C216.241 30.7344 216.08 30.1094 216.085 29.3594V17.625ZM223.635 32.5V20.5H226.464V32.5H223.635ZM225.057 18.7969C224.609 18.7969 224.224 18.6484 223.901 18.3516C223.578 18.0495 223.417 17.6875 223.417 17.2656C223.417 16.8385 223.578 16.4766 223.901 16.1797C224.224 15.8776 224.609 15.7266 225.057 15.7266C225.51 15.7266 225.896 15.8776 226.214 16.1797C226.536 16.4766 226.698 16.8385 226.698 17.2656C226.698 17.6875 226.536 18.0495 226.214 18.3516C225.896 18.6484 225.51 18.7969 225.057 18.7969ZM234.596 32.7344C233.424 32.7344 232.409 32.4766 231.549 31.9609C230.69 31.4453 230.023 30.724 229.549 29.7969C229.08 28.8698 228.846 27.7865 228.846 26.5469C228.846 25.3073 229.08 24.2214 229.549 23.2891C230.023 22.3568 230.69 21.6328 231.549 21.1172C232.409 20.6016 233.424 20.3438 234.596 20.3438C235.768 20.3438 236.784 20.6016 237.643 21.1172C238.502 21.6328 239.166 22.3568 239.635 23.2891C240.109 24.2214 240.346 25.3073 240.346 26.5469C240.346 27.7865 240.109 28.8698 239.635 29.7969C239.166 30.724 238.502 31.4453 237.643 31.9609C236.784 32.4766 235.768 32.7344 234.596 32.7344ZM234.612 30.4687C235.247 30.4687 235.778 30.2943 236.205 29.9453C236.633 29.5911 236.95 29.1172 237.159 28.5234C237.372 27.9297 237.479 27.2682 237.479 26.5391C237.479 25.8047 237.372 25.1406 237.159 24.5469C236.95 23.9479 236.633 23.4714 236.205 23.1172C235.778 22.763 235.247 22.5859 234.612 22.5859C233.961 22.5859 233.419 22.763 232.987 23.1172C232.56 23.4714 232.239 23.9479 232.026 24.5469C231.817 25.1406 231.713 25.8047 231.713 26.5391C231.713 27.2682 231.817 27.9297 232.026 28.5234C232.239 29.1172 232.56 29.5911 232.987 29.9453C233.419 30.2943 233.961 30.4687 234.612 30.4687ZM245.565 25.4687V32.5H242.736V20.5H245.44V22.5391H245.58C245.856 21.8672 246.296 21.3333 246.901 20.9375C247.51 20.5417 248.263 20.3438 249.158 20.3438C249.986 20.3438 250.708 20.5208 251.322 20.875C251.942 21.2292 252.421 21.7422 252.76 22.4141C253.104 23.0859 253.273 23.901 253.268 24.8594V32.5H250.44V25.2969C250.44 24.4948 250.231 23.8672 249.815 23.4141C249.403 22.9609 248.833 22.7344 248.104 22.7344C247.609 22.7344 247.169 22.8437 246.783 23.0625C246.403 23.276 246.104 23.5859 245.885 23.9922C245.671 24.3984 245.565 24.8906 245.565 25.4687Z" fill="#00B1CC"/>
<defs>
<radialGradient id="paint0_radial_37_160" cx="0" cy="0" r="1" gradientUnits="userSpaceOnUse" gradientTransform="translate(4 4) rotate(90) scale(32)">
<stop stop-color="white"/>
<stop offset="1" stop-color="white" stop-opacity="0"/>
</radialGradient>
<clipPath id="clip0_37_160">
<rect width="48" height="48" rx="10" fill="white"/>
</clipPath>
</defs>
</svg>
