<svg width="275" height="48" viewBox="0 0 275 48" fill="none" xmlns="http://www.w3.org/2000/svg">
<g clip-path="url(#clip0_16_40)">
<rect width="48" height="48" rx="10" fill="#697177"/>
<g opacity="0.4">
<rect x="-28" y="-28" width="64" height="64" rx="10" fill="url(#paint0_radial_16_40)"/>
</g>
<path opacity="0.12" d="M21 22.6C21 22.0399 21 21.7599 21.109 21.546C21.2049 21.3578 21.3578 21.2049 21.546 21.109C21.7599 21 22.0399 21 22.6 21H25.4C25.9601 21 26.2401 21 26.454 21.109C26.6422 21.2049 26.7951 21.3578 26.891 21.546C27 21.7599 27 22.0399 27 22.6V25.4C27 25.9601 27 26.2401 26.891 26.454C26.7951 26.6422 26.6422 26.7951 26.454 26.891C26.2401 27 25.9601 27 25.4 27H22.6C22.0399 27 21.7599 27 21.546 26.891C21.3578 26.7951 21.2049 26.6422 21.109 26.454C21 26.2401 21 25.9601 21 25.4V22.6Z" fill="white"/>
<path d="M21 14V16M27 14V16M21 32V34M27 32V34M32 21H34M32 26H34M14 21H16M14 26H16M20.8 32H27.2C28.8802 32 29.7202 32 30.362 31.673C30.9265 31.3854 31.3854 30.9265 31.673 30.362C32 29.7202 32 28.8802 32 27.2V20.8C32 19.1198 32 18.2798 31.673 17.638C31.3854 17.0735 30.9265 16.6146 30.362 16.327C29.7202 16 28.8802 16 27.2 16H20.8C19.1198 16 18.2798 16 17.638 16.327C17.0735 16.6146 16.6146 17.0735 16.327 17.638C16 18.2798 16 19.1198 16 20.8V27.2C16 28.8802 16 29.7202 16.327 30.362C16.6146 30.9265 17.0735 31.3854 17.638 31.673C18.2798 32 19.1198 32 20.8 32ZM22.6 27H25.4C25.9601 27 26.2401 27 26.454 26.891C26.6422 26.7951 26.7951 26.6422 26.891 26.454C27 26.2401 27 25.9601 27 25.4V22.6C27 22.0399 27 21.7599 26.891 21.546C26.7951 21.3578 26.6422 21.2049 26.454 21.109C26.2401 21 25.9601 21 25.4 21H22.6C22.0399 21 21.7599 21 21.546 21.109C21.3578 21.2049 21.2049 21.3578 21.109 21.546C21 21.7599 21 22.0399 21 22.6V25.4C21 25.9601 21 26.2401 21.109 26.454C21.2049 26.6422 21.3578 26.7951 21.546 26.891C21.7599 27 22.0399 27 22.6 27Z" stroke="white" stroke-width="2" stroke-linecap="round" stroke-linejoin="round"/>
</g>
<path d="M69.5781 32.5V16.5H79.9844V18.9297H72.4766V23.2734H79.4453V25.7031H72.4766V30.0703H80.0469V32.5H69.5781ZM85.1189 20.5L87.5408 24.9297L90.0017 20.5H92.9939L89.3767 26.5L93.0564 32.5H90.0798L87.5408 28.1797L85.0252 32.5H82.0252L85.6814 26.5L82.1189 20.5H85.1189ZM95.1714 37V20.5H97.9527V22.4844H98.1167C98.2626 22.1927 98.4683 21.8828 98.7339 21.5547C98.9995 21.2214 99.3589 20.9375 99.812 20.7031C100.265 20.4635 100.843 20.3438 101.546 20.3438C102.473 20.3438 103.309 20.5807 104.054 21.0547C104.804 21.5234 105.398 22.2187 105.835 23.1406C106.278 24.0573 106.5 25.1823 106.5 26.5156C106.5 27.8333 106.283 28.9531 105.851 29.875C105.419 30.7969 104.83 31.5 104.085 31.9844C103.341 32.4688 102.497 32.7109 101.554 32.7109C100.867 32.7109 100.296 32.5964 99.8433 32.3672C99.3902 32.138 99.0256 31.862 98.7495 31.5391C98.4787 31.2109 98.2678 30.901 98.1167 30.6094H97.9995V37H95.1714ZM97.9448 26.5C97.9448 27.276 98.0542 27.9557 98.273 28.5391C98.4969 29.1224 98.8172 29.5781 99.2339 29.9062C99.6558 30.2292 100.166 30.3906 100.765 30.3906C101.39 30.3906 101.914 30.224 102.335 29.8906C102.757 29.5521 103.075 29.0911 103.289 28.5078C103.507 27.9193 103.617 27.25 103.617 26.5C103.617 25.7552 103.51 25.0937 103.296 24.5156C103.083 23.9375 102.765 23.4844 102.343 23.1562C101.921 22.8281 101.395 22.6641 100.765 22.6641C100.161 22.6641 99.648 22.8229 99.2261 23.1406C98.8042 23.4583 98.4839 23.9036 98.2652 24.4766C98.0516 25.0495 97.9448 25.724 97.9448 26.5ZM114.146 32.7344C112.974 32.7344 111.958 32.4766 111.099 31.9609C110.24 31.4453 109.573 30.724 109.099 29.7969C108.63 28.8698 108.396 27.7865 108.396 26.5469C108.396 25.3073 108.63 24.2214 109.099 23.2891C109.573 22.3568 110.24 21.6328 111.099 21.1172C111.958 20.6016 112.974 20.3438 114.146 20.3438C115.318 20.3438 116.333 20.6016 117.193 21.1172C118.052 21.6328 118.716 22.3568 119.185 23.2891C119.659 24.2214 119.896 25.3073 119.896 26.5469C119.896 27.7865 119.659 28.8698 119.185 29.7969C118.716 30.724 118.052 31.4453 117.193 31.9609C116.333 32.4766 115.318 32.7344 114.146 32.7344ZM114.161 30.4687C114.797 30.4687 115.328 30.2943 115.755 29.9453C116.182 29.5911 116.5 29.1172 116.708 28.5234C116.922 27.9297 117.029 27.2682 117.029 26.5391C117.029 25.8047 116.922 25.1406 116.708 24.5469C116.5 23.9479 116.182 23.4714 115.755 23.1172C115.328 22.763 114.797 22.5859 114.161 22.5859C113.51 22.5859 112.969 22.763 112.536 23.1172C112.109 23.4714 111.789 23.9479 111.575 24.5469C111.367 25.1406 111.263 25.8047 111.263 26.5391C111.263 27.2682 111.367 27.9297 111.575 28.5234C111.789 29.1172 112.109 29.5911 112.536 29.9453C112.969 30.2943 113.51 30.4687 114.161 30.4687ZM127.858 16.5H131.405L136.155 28.0937H136.343L141.093 16.5H144.639V32.5H141.858V21.5078H141.71L137.288 32.4531H135.21L130.788 21.4844H130.639V32.5H127.858V16.5ZM152.895 32.7344C151.723 32.7344 150.708 32.4766 149.848 31.9609C148.989 31.4453 148.322 30.724 147.848 29.7969C147.379 28.8698 147.145 27.7865 147.145 26.5469C147.145 25.3073 147.379 24.2214 147.848 23.2891C148.322 22.3568 148.989 21.6328 149.848 21.1172C150.708 20.6016 151.723 20.3438 152.895 20.3438C154.067 20.3438 155.083 20.6016 155.942 21.1172C156.801 21.6328 157.465 22.3568 157.934 23.2891C158.408 24.2214 158.645 25.3073 158.645 26.5469C158.645 27.7865 158.408 28.8698 157.934 29.7969C157.465 30.724 156.801 31.4453 155.942 31.9609C155.083 32.4766 154.067 32.7344 152.895 32.7344ZM152.911 30.4687C153.546 30.4687 154.077 30.2943 154.504 29.9453C154.932 29.5911 155.249 29.1172 155.458 28.5234C155.671 27.9297 155.778 27.2682 155.778 26.5391C155.778 25.8047 155.671 25.1406 155.458 24.5469C155.249 23.9479 154.932 23.4714 154.504 23.1172C154.077 22.763 153.546 22.5859 152.911 22.5859C152.26 22.5859 151.718 22.763 151.286 23.1172C150.859 23.4714 150.538 23.9479 150.325 24.5469C150.116 25.1406 150.012 25.8047 150.012 26.5391C150.012 27.2682 150.116 27.9297 150.325 28.5234C150.538 29.1172 150.859 29.5911 151.286 29.9453C151.718 30.2943 152.26 30.4687 152.911 30.4687ZM165.489 32.7109C164.546 32.7109 163.702 32.4688 162.957 31.9844C162.213 31.5 161.624 30.7969 161.192 29.875C160.759 28.9531 160.543 27.8333 160.543 26.5156C160.543 25.1823 160.762 24.0573 161.2 23.1406C161.642 22.2187 162.239 21.5234 162.989 21.0547C163.739 20.5807 164.575 20.3438 165.496 20.3438C166.2 20.3438 166.778 20.4635 167.231 20.7031C167.684 20.9375 168.043 21.2214 168.309 21.5547C168.575 21.8828 168.78 22.1927 168.926 22.4844H169.043V16.5H171.879V32.5H169.098V30.6094H168.926C168.78 30.901 168.569 31.2109 168.293 31.5391C168.017 31.862 167.653 32.138 167.2 32.3672C166.746 32.5964 166.176 32.7109 165.489 32.7109ZM166.278 30.3906C166.877 30.3906 167.387 30.2292 167.809 29.9062C168.231 29.5781 168.551 29.1224 168.77 28.5391C168.989 27.9557 169.098 27.276 169.098 26.5C169.098 25.724 168.989 25.0495 168.77 24.4766C168.556 23.9036 168.239 23.4583 167.817 23.1406C167.4 22.8229 166.887 22.6641 166.278 22.6641C165.647 22.6641 165.121 22.8281 164.7 23.1562C164.278 23.4844 163.96 23.9375 163.746 24.5156C163.533 25.0937 163.426 25.7552 163.426 26.5C163.426 27.25 163.533 27.9193 163.746 28.5078C163.965 29.0911 164.285 29.5521 164.707 29.8906C165.134 30.224 165.658 30.3906 166.278 30.3906ZM182.531 27.4531V20.5H185.359V32.5H182.617V30.3672H182.492C182.221 31.0391 181.776 31.5885 181.156 32.0156C180.542 32.4427 179.784 32.6563 178.883 32.6563C178.096 32.6563 177.401 32.4818 176.797 32.1328C176.198 31.7786 175.729 31.2656 175.391 30.5938C175.052 29.9167 174.883 29.099 174.883 28.1406V20.5H177.711V27.7031C177.711 28.4635 177.919 29.0677 178.336 29.5156C178.753 29.9635 179.3 30.1875 179.977 30.1875C180.393 30.1875 180.797 30.0859 181.188 29.8828C181.578 29.6797 181.899 29.3776 182.149 28.9766C182.404 28.5703 182.531 28.0625 182.531 27.4531ZM191.086 16.5V32.5H188.258V16.5H191.086ZM199.296 32.7344C198.093 32.7344 197.054 32.4844 196.179 31.9844C195.31 31.4792 194.64 30.7656 194.171 29.8437C193.703 28.9167 193.468 27.8255 193.468 26.5703C193.468 25.3359 193.703 24.2526 194.171 23.3203C194.645 22.3828 195.307 21.6536 196.156 21.1328C197.005 20.6068 198.002 20.3438 199.148 20.3438C199.888 20.3438 200.586 20.4635 201.242 20.7031C201.903 20.9375 202.487 21.3021 202.992 21.7969C203.502 22.2917 203.903 22.9219 204.195 23.6875C204.487 24.4479 204.632 25.3542 204.632 26.4062V27.2734H194.796V25.3672H201.921C201.916 24.8255 201.799 24.3437 201.57 23.9219C201.341 23.4948 201.02 23.1589 200.609 22.9141C200.203 22.6693 199.729 22.5469 199.187 22.5469C198.609 22.5469 198.101 22.6875 197.664 22.9687C197.226 23.2448 196.885 23.6094 196.64 24.0625C196.401 24.5104 196.278 25.0026 196.273 25.5391V27.2031C196.273 27.901 196.401 28.5 196.656 29C196.911 29.4948 197.268 29.875 197.726 30.1406C198.185 30.401 198.721 30.5312 199.336 30.5312C199.747 30.5312 200.119 30.474 200.453 30.3594C200.786 30.2396 201.075 30.0651 201.32 29.8359C201.565 29.6068 201.75 29.3229 201.875 28.9844L204.515 29.2812C204.349 29.9792 204.031 30.5885 203.562 31.1094C203.099 31.625 202.505 32.026 201.781 32.3125C201.057 32.5937 200.229 32.7344 199.296 32.7344ZM216.499 23.6719L213.921 23.9531C213.848 23.6927 213.721 23.4479 213.538 23.2188C213.361 22.9896 213.122 22.8047 212.82 22.6641C212.518 22.5234 212.148 22.4531 211.71 22.4531C211.122 22.4531 210.627 22.5807 210.226 22.8359C209.83 23.0911 209.635 23.4219 209.64 23.8281C209.635 24.1771 209.762 24.4609 210.023 24.6797C210.288 24.8984 210.726 25.0781 211.335 25.2188L213.382 25.6562C214.518 25.901 215.361 26.2891 215.913 26.8203C216.471 27.3516 216.752 28.0469 216.757 28.9062C216.752 29.6615 216.531 30.3281 216.093 30.9062C215.661 31.4792 215.059 31.9271 214.288 32.25C213.518 32.5729 212.632 32.7344 211.632 32.7344C210.163 32.7344 208.981 32.4271 208.085 31.8125C207.189 31.1927 206.656 30.3307 206.484 29.2266L209.242 28.9609C209.367 29.5026 209.632 29.9115 210.038 30.1875C210.445 30.4635 210.973 30.6016 211.624 30.6016C212.296 30.6016 212.835 30.4635 213.242 30.1875C213.653 29.9115 213.859 29.5703 213.859 29.1641C213.859 28.8203 213.726 28.5365 213.46 28.3125C213.2 28.0885 212.794 27.9167 212.242 27.7969L210.195 27.3672C209.044 27.1276 208.192 26.724 207.64 26.1562C207.088 25.5833 206.814 24.8594 206.82 23.9844C206.814 23.2448 207.015 22.6042 207.421 22.0625C207.833 21.5156 208.403 21.0937 209.132 20.7969C209.867 20.4948 210.713 20.3438 211.671 20.3438C213.077 20.3438 214.184 20.6432 214.992 21.2422C215.804 21.8411 216.307 22.651 216.499 23.6719ZM238.347 21.8984H235.425C235.341 21.4193 235.188 20.9948 234.964 20.625C234.74 20.25 234.461 19.9323 234.128 19.6719C233.794 19.4115 233.414 19.2161 232.987 19.0859C232.565 18.9505 232.11 18.8828 231.62 18.8828C230.75 18.8828 229.979 19.1016 229.307 19.5391C228.636 19.9714 228.11 20.6068 227.729 21.4453C227.349 22.2786 227.159 23.2969 227.159 24.5C227.159 25.724 227.349 26.7552 227.729 27.5937C228.115 28.4271 228.641 29.0573 229.307 29.4844C229.979 29.9062 230.748 30.1172 231.612 30.1172C232.091 30.1172 232.539 30.0547 232.956 29.9297C233.378 29.7995 233.755 29.6094 234.089 29.3594C234.427 29.1094 234.711 28.8021 234.94 28.4375C235.175 28.0729 235.336 27.6562 235.425 27.1875L238.347 27.2031C238.237 27.9635 238 28.6771 237.636 29.3438C237.276 30.0104 236.805 30.599 236.222 31.1094C235.638 31.6146 234.956 32.0104 234.175 32.2969C233.393 32.5781 232.526 32.7187 231.573 32.7187C230.167 32.7187 228.912 32.3932 227.807 31.7422C226.703 31.0911 225.834 30.151 225.198 28.9219C224.563 27.6927 224.245 26.2187 224.245 24.5C224.245 22.776 224.565 21.3021 225.206 20.0781C225.847 18.849 226.719 17.9089 227.823 17.2578C228.927 16.6068 230.177 16.2812 231.573 16.2812C232.464 16.2812 233.292 16.4062 234.057 16.6562C234.823 16.9062 235.505 17.2734 236.104 17.7578C236.703 18.237 237.196 18.8255 237.581 19.5234C237.972 20.2161 238.227 21.0078 238.347 21.8984ZM246.1 32.7344C244.928 32.7344 243.913 32.4766 243.053 31.9609C242.194 31.4453 241.527 30.724 241.053 29.7969C240.585 28.8698 240.35 27.7865 240.35 26.5469C240.35 25.3073 240.585 24.2214 241.053 23.2891C241.527 22.3568 242.194 21.6328 243.053 21.1172C243.913 20.6016 244.928 20.3438 246.1 20.3438C247.272 20.3438 248.288 20.6016 249.147 21.1172C250.006 21.6328 250.671 22.3568 251.139 23.2891C251.613 24.2214 251.85 25.3073 251.85 26.5469C251.85 27.7865 251.613 28.8698 251.139 29.7969C250.671 30.724 250.006 31.4453 249.147 31.9609C248.288 32.4766 247.272 32.7344 246.1 32.7344ZM246.116 30.4687C246.751 30.4687 247.283 30.2943 247.71 29.9453C248.137 29.5911 248.454 29.1172 248.663 28.5234C248.876 27.9297 248.983 27.2682 248.983 26.5391C248.983 25.8047 248.876 25.1406 248.663 24.5469C248.454 23.9479 248.137 23.4714 247.71 23.1172C247.283 22.763 246.751 22.5859 246.116 22.5859C245.465 22.5859 244.923 22.763 244.491 23.1172C244.064 23.4714 243.743 23.9479 243.53 24.5469C243.322 25.1406 243.217 25.8047 243.217 26.5391C243.217 27.2682 243.322 27.9297 243.53 28.5234C243.743 29.1172 244.064 29.5911 244.491 29.9453C244.923 30.2943 245.465 30.4687 246.116 30.4687ZM254.241 32.5V20.5H256.983V22.5H257.108C257.327 21.8073 257.702 21.2734 258.233 20.8984C258.769 20.5182 259.381 20.3281 260.069 20.3281C260.225 20.3281 260.399 20.3359 260.592 20.3516C260.79 20.362 260.954 20.3802 261.084 20.4062V23.0078C260.965 22.9661 260.774 22.9297 260.514 22.8984C260.259 22.862 260.011 22.8437 259.772 22.8437C259.256 22.8437 258.793 22.9557 258.381 23.1797C257.975 23.3984 257.655 23.7031 257.42 24.0937C257.186 24.4844 257.069 24.9349 257.069 25.4453V32.5H254.241ZM267.772 32.7344C266.569 32.7344 265.529 32.4844 264.654 31.9844C263.785 31.4792 263.115 30.7656 262.647 29.8437C262.178 28.9167 261.944 27.8255 261.944 26.5703C261.944 25.3359 262.178 24.2526 262.647 23.3203C263.121 22.3828 263.782 21.6536 264.631 21.1328C265.48 20.6068 266.477 20.3438 267.623 20.3438C268.363 20.3438 269.061 20.4635 269.717 20.7031C270.378 20.9375 270.962 21.3021 271.467 21.7969C271.977 22.2917 272.378 22.9219 272.67 23.6875C272.962 24.4479 273.108 25.3542 273.108 26.4062V27.2734H263.272V25.3672H270.397C270.391 24.8255 270.274 24.3437 270.045 23.9219C269.816 23.4948 269.496 23.1589 269.084 22.9141C268.678 22.6693 268.204 22.5469 267.662 22.5469C267.084 22.5469 266.576 22.6875 266.139 22.9687C265.701 23.2448 265.36 23.6094 265.115 24.0625C264.876 24.5104 264.753 25.0026 264.748 25.5391V27.2031C264.748 27.901 264.876 28.5 265.131 29C265.386 29.4948 265.743 29.875 266.201 30.1406C266.66 30.401 267.196 30.5312 267.811 30.5312C268.222 30.5312 268.595 30.474 268.928 30.3594C269.261 30.2396 269.55 30.0651 269.795 29.8359C270.04 29.6068 270.225 29.3229 270.35 28.9844L272.99 29.2812C272.824 29.9792 272.506 30.5885 272.037 31.1094C271.574 31.625 270.98 32.026 270.256 32.3125C269.532 32.5937 268.704 32.7344 267.772 32.7344Z" fill="#697177"/>
<defs>
<radialGradient id="paint0_radial_16_40" cx="0" cy="0" r="1" gradientUnits="userSpaceOnUse" gradientTransform="translate(4 4) rotate(90) scale(32)">
<stop stop-color="white"/>
<stop offset="1" stop-color="white" stop-opacity="0"/>
</radialGradient>
<clipPath id="clip0_16_40">
<rect width="48" height="48" rx="10" fill="white"/>
</clipPath>
</defs>
</svg>
