<svg width="263" height="48" viewBox="0 0 263 48" fill="none" xmlns="http://www.w3.org/2000/svg">
<g clip-path="url(#clip0_16_54)">
<rect width="48" height="48" rx="10" fill="#8445BC"/>
<g opacity="0.4">
<rect x="-28" y="-28" width="64" height="64" rx="10" fill="url(#paint0_radial_16_54)"/>
</g>
<path opacity="0.4" d="M23 16H19.8C18.1198 16 17.2798 16 16.638 16.327C16.0735 16.6146 15.6146 17.0735 15.327 17.638C15 18.2798 15 19.1198 15 20.8V26C15 26.93 15 27.395 15.1022 27.7765C15.3796 28.8117 16.1883 29.6204 17.2235 29.8978C17.605 30 18.07 30 19 30V32.3355C19 32.8684 19 33.1348 19.1092 33.2716C19.2042 33.3906 19.3483 33.4599 19.5005 33.4597C19.6756 33.4595 19.8837 33.2931 20.2998 32.9602L22.6852 31.0518C23.1725 30.662 23.4162 30.4671 23.6875 30.3285C23.9282 30.2055 24.1844 30.1156 24.4492 30.0613C24.7477 30 25.0597 30 25.6837 30H27.2C28.8802 30 29.7202 30 30.362 29.673C30.9265 29.3854 31.3854 28.9265 31.673 28.362C32 27.7202 32 26.8802 32 25.2V25" stroke="white" stroke-width="2" stroke-linecap="round" stroke-linejoin="round"/>
<path d="M32.1213 15.8787C33.2929 17.0503 33.2929 18.9497 32.1213 20.1213C30.9497 21.2929 29.0503 21.2929 27.8787 20.1213C26.7071 18.9497 26.7071 17.0503 27.8787 15.8787C29.0503 14.7071 30.9497 14.7071 32.1213 15.8787Z" stroke="white" stroke-width="2" stroke-linecap="round" stroke-linejoin="round"/>
</g>
<path d="M69.5781 32.5V16.5H79.9844V18.9297H72.4766V23.2734H79.4453V25.7031H72.4766V30.0703H80.0469V32.5H69.5781ZM85.1189 20.5L87.5408 24.9297L90.0017 20.5H92.9939L89.3767 26.5L93.0564 32.5H90.0798L87.5408 28.1797L85.0252 32.5H82.0252L85.6814 26.5L82.1189 20.5H85.1189ZM95.1714 37V20.5H97.9527V22.4844H98.1167C98.2626 22.1927 98.4683 21.8828 98.7339 21.5547C98.9995 21.2214 99.3589 20.9375 99.812 20.7031C100.265 20.4635 100.843 20.3438 101.546 20.3438C102.473 20.3438 103.309 20.5807 104.054 21.0547C104.804 21.5234 105.398 22.2187 105.835 23.1406C106.278 24.0573 106.5 25.1823 106.5 26.5156C106.5 27.8333 106.283 28.9531 105.851 29.875C105.419 30.7969 104.83 31.5 104.085 31.9844C103.341 32.4688 102.497 32.7109 101.554 32.7109C100.867 32.7109 100.296 32.5964 99.8433 32.3672C99.3902 32.138 99.0256 31.862 98.7495 31.5391C98.4787 31.2109 98.2678 30.901 98.1167 30.6094H97.9995V37H95.1714ZM97.9448 26.5C97.9448 27.276 98.0542 27.9557 98.273 28.5391C98.4969 29.1224 98.8172 29.5781 99.2339 29.9062C99.6558 30.2292 100.166 30.3906 100.765 30.3906C101.39 30.3906 101.914 30.224 102.335 29.8906C102.757 29.5521 103.075 29.0911 103.289 28.5078C103.507 27.9193 103.617 27.25 103.617 26.5C103.617 25.7552 103.51 25.0937 103.296 24.5156C103.083 23.9375 102.765 23.4844 102.343 23.1562C101.921 22.8281 101.395 22.6641 100.765 22.6641C100.161 22.6641 99.648 22.8229 99.2261 23.1406C98.8042 23.4583 98.4839 23.9036 98.2652 24.4766C98.0516 25.0495 97.9448 25.724 97.9448 26.5ZM114.146 32.7344C112.974 32.7344 111.958 32.4766 111.099 31.9609C110.24 31.4453 109.573 30.724 109.099 29.7969C108.63 28.8698 108.396 27.7865 108.396 26.5469C108.396 25.3073 108.63 24.2214 109.099 23.2891C109.573 22.3568 110.24 21.6328 111.099 21.1172C111.958 20.6016 112.974 20.3438 114.146 20.3438C115.318 20.3438 116.333 20.6016 117.193 21.1172C118.052 21.6328 118.716 22.3568 119.185 23.2891C119.659 24.2214 119.896 25.3073 119.896 26.5469C119.896 27.7865 119.659 28.8698 119.185 29.7969C118.716 30.724 118.052 31.4453 117.193 31.9609C116.333 32.4766 115.318 32.7344 114.146 32.7344ZM114.161 30.4687C114.797 30.4687 115.328 30.2943 115.755 29.9453C116.182 29.5911 116.5 29.1172 116.708 28.5234C116.922 27.9297 117.029 27.2682 117.029 26.5391C117.029 25.8047 116.922 25.1406 116.708 24.5469C116.5 23.9479 116.182 23.4714 115.755 23.1172C115.328 22.763 114.797 22.5859 114.161 22.5859C113.51 22.5859 112.969 22.763 112.536 23.1172C112.109 23.4714 111.789 23.9479 111.575 24.5469C111.367 25.1406 111.263 25.8047 111.263 26.5391C111.263 27.2682 111.367 27.9297 111.575 28.5234C111.789 29.1172 112.109 29.5911 112.536 29.9453C112.969 30.2943 113.51 30.4687 114.161 30.4687ZM141.007 16.5V32.5H138.429L130.889 21.6016H130.757V32.5H127.858V16.5H130.452L137.983 27.4062H138.124V16.5H141.007ZM149.264 32.7344C148.092 32.7344 147.077 32.4766 146.217 31.9609C145.358 31.4453 144.691 30.724 144.217 29.7969C143.749 28.8698 143.514 27.7865 143.514 26.5469C143.514 25.3073 143.749 24.2214 144.217 23.2891C144.691 22.3568 145.358 21.6328 146.217 21.1172C147.077 20.6016 148.092 20.3438 149.264 20.3438C150.436 20.3438 151.452 20.6016 152.311 21.1172C153.17 21.6328 153.835 22.3568 154.303 23.2891C154.777 24.2214 155.014 25.3073 155.014 26.5469C155.014 27.7865 154.777 28.8698 154.303 29.7969C153.835 30.724 153.17 31.4453 152.311 31.9609C151.452 32.4766 150.436 32.7344 149.264 32.7344ZM149.28 30.4687C149.915 30.4687 150.447 30.2943 150.874 29.9453C151.301 29.5911 151.618 29.1172 151.827 28.5234C152.04 27.9297 152.147 27.2682 152.147 26.5391C152.147 25.8047 152.04 25.1406 151.827 24.5469C151.618 23.9479 151.301 23.4714 150.874 23.1172C150.447 22.763 149.915 22.5859 149.28 22.5859C148.629 22.5859 148.087 22.763 147.655 23.1172C147.228 23.4714 146.907 23.9479 146.694 24.5469C146.486 25.1406 146.381 25.8047 146.381 26.5391C146.381 27.2682 146.486 27.9297 146.694 28.5234C146.907 29.1172 147.228 29.5911 147.655 29.9453C148.087 30.2943 148.629 30.4687 149.28 30.4687ZM163.397 20.5V22.6875H156.498V20.5H163.397ZM158.201 17.625H161.03V28.8906C161.03 29.2708 161.087 29.5625 161.201 29.7656C161.321 29.9635 161.478 30.099 161.67 30.1719C161.863 30.2448 162.076 30.2812 162.311 30.2812C162.488 30.2812 162.649 30.2682 162.795 30.2422C162.946 30.2161 163.061 30.1927 163.139 30.1719L163.616 32.3828C163.465 32.4349 163.248 32.4922 162.967 32.5547C162.691 32.6172 162.353 32.6536 161.951 32.6641C161.243 32.6849 160.605 32.5781 160.037 32.3437C159.47 32.1042 159.019 31.7344 158.686 31.2344C158.358 30.7344 158.196 30.1094 158.201 29.3594V17.625ZM165.752 32.5V20.5H168.58V32.5H165.752ZM167.174 18.7969C166.726 18.7969 166.341 18.6484 166.018 18.3516C165.695 18.0495 165.533 17.6875 165.533 17.2656C165.533 16.8385 165.695 16.4766 166.018 16.1797C166.341 15.8776 166.726 15.7266 167.174 15.7266C167.627 15.7266 168.012 15.8776 168.33 16.1797C168.653 16.4766 168.815 16.8385 168.815 17.2656C168.815 17.6875 168.653 18.0495 168.33 18.3516C168.012 18.6484 167.627 18.7969 167.174 18.7969ZM177.556 20.5V22.6875H170.463V20.5H177.556ZM172.236 32.5V19.3672C172.236 18.5599 172.403 17.888 172.736 17.3516C173.075 16.8151 173.528 16.4141 174.096 16.1484C174.663 15.8828 175.293 15.75 175.986 15.75C176.476 15.75 176.911 15.7891 177.291 15.8672C177.671 15.9453 177.952 16.0156 178.135 16.0781L177.572 18.2656C177.452 18.2292 177.301 18.1927 177.119 18.1562C176.937 18.1146 176.734 18.0937 176.51 18.0937C175.984 18.0937 175.611 18.2214 175.392 18.4766C175.179 18.7266 175.072 19.0859 175.072 19.5547V32.5H172.236ZM179.761 32.5V20.5H182.589V32.5H179.761ZM181.183 18.7969C180.735 18.7969 180.35 18.6484 180.027 18.3516C179.704 18.0495 179.543 17.6875 179.543 17.2656C179.543 16.8385 179.704 16.4766 180.027 16.1797C180.35 15.8776 180.735 15.7266 181.183 15.7266C181.636 15.7266 182.022 15.8776 182.339 16.1797C182.662 16.4766 182.824 16.8385 182.824 17.2656C182.824 17.6875 182.662 18.0495 182.339 18.3516C182.022 18.6484 181.636 18.7969 181.183 18.7969ZM190.722 32.7344C189.524 32.7344 188.495 32.4714 187.636 31.9453C186.782 31.4193 186.123 30.6927 185.66 29.7656C185.201 28.8333 184.972 27.7604 184.972 26.5469C184.972 25.3281 185.206 24.2526 185.675 23.3203C186.144 22.3828 186.805 21.6536 187.66 21.1328C188.519 20.6068 189.535 20.3438 190.706 20.3438C191.68 20.3438 192.542 20.5234 193.292 20.8828C194.048 21.237 194.649 21.7396 195.097 22.3906C195.545 23.0365 195.8 23.7917 195.863 24.6562H193.16C193.05 24.0781 192.79 23.5964 192.378 23.2109C191.972 22.8203 191.428 22.625 190.745 22.625C190.167 22.625 189.66 22.7812 189.222 23.0937C188.785 23.401 188.443 23.8437 188.199 24.4219C187.959 25 187.839 25.6927 187.839 26.5C187.839 27.3177 187.959 28.0208 188.199 28.6094C188.438 29.1927 188.774 29.6432 189.206 29.9609C189.644 30.2734 190.157 30.4297 190.745 30.4297C191.162 30.4297 191.535 30.3516 191.863 30.1953C192.196 30.0339 192.475 29.8021 192.699 29.5C192.923 29.1979 193.076 28.8307 193.16 28.3984H195.863C195.795 29.2474 195.545 30 195.113 30.6562C194.68 31.3073 194.092 31.8177 193.347 32.1875C192.602 32.5521 191.727 32.7344 190.722 32.7344ZM201.628 32.7422C200.868 32.7422 200.183 32.6068 199.573 32.3359C198.969 32.0599 198.49 31.6536 198.136 31.1172C197.787 30.5807 197.612 29.9193 197.612 29.1328C197.612 28.4557 197.737 27.8958 197.987 27.4531C198.237 27.0104 198.579 26.6562 199.011 26.3906C199.443 26.125 199.93 25.9245 200.472 25.7891C201.019 25.6484 201.584 25.5469 202.167 25.4844C202.87 25.4115 203.441 25.3464 203.878 25.2891C204.316 25.2266 204.633 25.1328 204.831 25.0078C205.034 24.8776 205.136 24.6771 205.136 24.4062V24.3594C205.136 23.7708 204.961 23.3151 204.612 22.9922C204.263 22.6693 203.761 22.5078 203.105 22.5078C202.412 22.5078 201.862 22.6589 201.456 22.9609C201.055 23.263 200.784 23.6198 200.644 24.0312L198.003 23.6562C198.211 22.9271 198.555 22.3177 199.034 21.8281C199.513 21.3333 200.099 20.9635 200.792 20.7187C201.485 20.4688 202.25 20.3438 203.089 20.3438C203.667 20.3438 204.243 20.4115 204.816 20.5469C205.388 20.6823 205.912 20.9062 206.386 21.2187C206.86 21.526 207.24 21.9453 207.526 22.4766C207.818 23.0078 207.964 23.6719 207.964 24.4687V32.5H205.245V30.8516H205.151C204.98 31.1849 204.737 31.4974 204.425 31.7891C204.118 32.0755 203.73 32.3073 203.261 32.4844C202.797 32.6563 202.253 32.7422 201.628 32.7422ZM202.362 30.6641C202.93 30.6641 203.422 30.5521 203.839 30.3281C204.256 30.099 204.576 29.7969 204.8 29.4219C205.029 29.0469 205.144 28.638 205.144 28.1953V26.7812C205.055 26.8542 204.904 26.9219 204.691 26.9844C204.482 27.0469 204.248 27.1016 203.987 27.1484C203.727 27.1953 203.469 27.237 203.214 27.2734C202.959 27.3099 202.737 27.3411 202.55 27.3672C202.128 27.4245 201.75 27.5182 201.417 27.6484C201.084 27.7786 200.821 27.9609 200.628 28.1953C200.435 28.4245 200.339 28.7214 200.339 29.0859C200.339 29.6068 200.529 30 200.909 30.2656C201.29 30.5312 201.774 30.6641 202.362 30.6641ZM216.79 20.5V22.6875H209.891V20.5H216.79ZM211.595 17.625H214.423V28.8906C214.423 29.2708 214.48 29.5625 214.595 29.7656C214.714 29.9635 214.871 30.099 215.063 30.1719C215.256 30.2448 215.47 30.2812 215.704 30.2812C215.881 30.2812 216.043 30.2682 216.188 30.2422C216.339 30.2161 216.454 30.1927 216.532 30.1719L217.009 32.3828C216.858 32.4349 216.641 32.4922 216.36 32.5547C216.084 32.6172 215.746 32.6536 215.345 32.6641C214.636 32.6849 213.998 32.5781 213.431 32.3437C212.863 32.1042 212.412 31.7344 212.079 31.2344C211.751 30.7344 211.589 30.1094 211.595 29.3594V17.625ZM219.145 32.5V20.5H221.973V32.5H219.145ZM220.567 18.7969C220.119 18.7969 219.734 18.6484 219.411 18.3516C219.088 18.0495 218.926 17.6875 218.926 17.2656C218.926 16.8385 219.088 16.4766 219.411 16.1797C219.734 15.8776 220.119 15.7266 220.567 15.7266C221.02 15.7266 221.406 15.8776 221.723 16.1797C222.046 16.4766 222.208 16.8385 222.208 17.2656C222.208 17.6875 222.046 18.0495 221.723 18.3516C221.406 18.6484 221.02 18.7969 220.567 18.7969ZM230.106 32.7344C228.934 32.7344 227.918 32.4766 227.059 31.9609C226.2 31.4453 225.533 30.724 225.059 29.7969C224.59 28.8698 224.356 27.7865 224.356 26.5469C224.356 25.3073 224.59 24.2214 225.059 23.2891C225.533 22.3568 226.2 21.6328 227.059 21.1172C227.918 20.6016 228.934 20.3438 230.106 20.3438C231.278 20.3438 232.293 20.6016 233.153 21.1172C234.012 21.6328 234.676 22.3568 235.145 23.2891C235.619 24.2214 235.856 25.3073 235.856 26.5469C235.856 27.7865 235.619 28.8698 235.145 29.7969C234.676 30.724 234.012 31.4453 233.153 31.9609C232.293 32.4766 231.278 32.7344 230.106 32.7344ZM230.121 30.4687C230.757 30.4687 231.288 30.2943 231.715 29.9453C232.142 29.5911 232.46 29.1172 232.668 28.5234C232.882 27.9297 232.989 27.2682 232.989 26.5391C232.989 25.8047 232.882 25.1406 232.668 24.5469C232.46 23.9479 232.142 23.4714 231.715 23.1172C231.288 22.763 230.757 22.5859 230.121 22.5859C229.47 22.5859 228.929 22.763 228.496 23.1172C228.069 23.4714 227.749 23.9479 227.536 24.5469C227.327 25.1406 227.223 25.8047 227.223 26.5391C227.223 27.2682 227.327 27.9297 227.536 28.5234C227.749 29.1172 228.069 29.5911 228.496 29.9453C228.929 30.2943 229.47 30.4687 230.121 30.4687ZM241.074 25.4687V32.5H238.246V20.5H240.949V22.5391H241.09C241.366 21.8672 241.806 21.3333 242.41 20.9375C243.02 20.5417 243.772 20.3438 244.668 20.3438C245.496 20.3438 246.218 20.5208 246.832 20.875C247.452 21.2292 247.931 21.7422 248.27 22.4141C248.613 23.0859 248.783 23.901 248.777 24.8594V32.5H245.949V25.2969C245.949 24.4948 245.741 23.8672 245.324 23.4141C244.913 22.9609 244.343 22.7344 243.613 22.7344C243.119 22.7344 242.679 22.8437 242.293 23.0625C241.913 23.276 241.613 23.5859 241.395 23.9922C241.181 24.3984 241.074 24.8906 241.074 25.4687ZM261.127 23.6719L258.549 23.9531C258.476 23.6927 258.348 23.4479 258.166 23.2188C257.989 22.9896 257.749 22.8047 257.447 22.6641C257.145 22.5234 256.775 22.4531 256.338 22.4531C255.749 22.4531 255.254 22.5807 254.853 22.8359C254.458 23.0911 254.262 23.4219 254.268 23.8281C254.262 24.1771 254.39 24.4609 254.65 24.6797C254.916 24.8984 255.353 25.0781 255.963 25.2188L258.01 25.6562C259.145 25.901 259.989 26.2891 260.541 26.8203C261.098 27.3516 261.379 28.0469 261.385 28.9062C261.379 29.6615 261.158 30.3281 260.721 30.9062C260.288 31.4792 259.687 31.9271 258.916 32.25C258.145 32.5729 257.26 32.7344 256.26 32.7344C254.791 32.7344 253.609 32.4271 252.713 31.8125C251.817 31.1927 251.283 30.3307 251.111 29.2266L253.869 28.9609C253.994 29.5026 254.26 29.9115 254.666 30.1875C255.072 30.4635 255.601 30.6016 256.252 30.6016C256.924 30.6016 257.463 30.4635 257.869 30.1875C258.281 29.9115 258.486 29.5703 258.486 29.1641C258.486 28.8203 258.353 28.5365 258.088 28.3125C257.827 28.0885 257.421 27.9167 256.869 27.7969L254.822 27.3672C253.671 27.1276 252.82 26.724 252.268 26.1562C251.715 25.5833 251.442 24.8594 251.447 23.9844C251.442 23.2448 251.643 22.6042 252.049 22.0625C252.46 21.5156 253.031 21.0937 253.76 20.7969C254.494 20.4948 255.34 20.3438 256.299 20.3438C257.705 20.3438 258.812 20.6432 259.619 21.2422C260.432 21.8411 260.934 22.651 261.127 23.6719Z" fill="#8445BC"/>
<defs>
<radialGradient id="paint0_radial_16_54" cx="0" cy="0" r="1" gradientUnits="userSpaceOnUse" gradientTransform="translate(4 4) rotate(90) scale(32)">
<stop stop-color="white"/>
<stop offset="1" stop-color="white" stop-opacity="0"/>
</radialGradient>
<clipPath id="clip0_16_54">
<rect width="48" height="48" rx="10" fill="white"/>
</clipPath>
</defs>
</svg>
