<svg width="250" height="48" viewBox="0 0 250 48" fill="none" xmlns="http://www.w3.org/2000/svg">
<g clip-path="url(#clip0_45_36)">
<rect width="48" height="48" rx="10" fill="#644FC1"/>
<g opacity="0.4">
<rect x="-28" y="-28" width="64" height="64" rx="10" fill="url(#paint0_radial_45_36)"/>
</g>
<path opacity="0.4" d="M26 14.2695V18.4001C26 18.9601 26 19.2401 26.109 19.4541C26.2049 19.6422 26.3578 19.7952 26.546 19.8911C26.7599 20.0001 27.0399 20.0001 27.6 20.0001H31.7305M26 14H20.8C19.1198 14 18.2798 14 17.638 14.327C17.0735 14.6146 16.6146 15.0735 16.327 15.638C16 16.2798 16 17.1198 16 18.8V29.2C16 30.8802 16 31.7202 16.327 32.362C16.6146 32.9265 17.0735 33.3854 17.638 33.673C18.2798 34 19.1198 34 20.8 34H27.2C28.8802 34 29.7202 34 30.362 33.673C30.9265 33.3854 31.3854 32.9265 31.673 32.362C32 31.7202 32 30.8802 32 29.2V20L26 14Z" stroke="white" stroke-width="2" stroke-linecap="round" stroke-linejoin="round"/>
<path d="M28 25H20M28 29H20M22 21H20" stroke="white" stroke-width="2" stroke-linecap="round" stroke-linejoin="round"/>
</g>
<path d="M69.5781 32.5V16.5H79.9844V18.9297H72.4766V23.2734H79.4453V25.7031H72.4766V30.0703H80.0469V32.5H69.5781ZM85.1189 20.5L87.5408 24.9297L90.0017 20.5H92.9939L89.3767 26.5L93.0564 32.5H90.0798L87.5408 28.1797L85.0252 32.5H82.0252L85.6814 26.5L82.1189 20.5H85.1189ZM95.1714 37V20.5H97.9527V22.4844H98.1167C98.2626 22.1927 98.4683 21.8828 98.7339 21.5547C98.9995 21.2214 99.3589 20.9375 99.812 20.7031C100.265 20.4635 100.843 20.3438 101.546 20.3438C102.473 20.3438 103.309 20.5807 104.054 21.0547C104.804 21.5234 105.398 22.2187 105.835 23.1406C106.278 24.0573 106.5 25.1823 106.5 26.5156C106.5 27.8333 106.283 28.9531 105.851 29.875C105.419 30.7969 104.83 31.5 104.085 31.9844C103.341 32.4688 102.497 32.7109 101.554 32.7109C100.867 32.7109 100.296 32.5964 99.8433 32.3672C99.3902 32.138 99.0256 31.862 98.7495 31.5391C98.4787 31.2109 98.2678 30.901 98.1167 30.6094H97.9995V37H95.1714ZM97.9448 26.5C97.9448 27.276 98.0542 27.9557 98.273 28.5391C98.4969 29.1224 98.8172 29.5781 99.2339 29.9062C99.6558 30.2292 100.166 30.3906 100.765 30.3906C101.39 30.3906 101.914 30.224 102.335 29.8906C102.757 29.5521 103.075 29.0911 103.289 28.5078C103.507 27.9193 103.617 27.25 103.617 26.5C103.617 25.7552 103.51 25.0937 103.296 24.5156C103.083 23.9375 102.765 23.4844 102.343 23.1562C101.921 22.8281 101.395 22.6641 100.765 22.6641C100.161 22.6641 99.648 22.8229 99.2261 23.1406C98.8042 23.4583 98.4839 23.9036 98.2652 24.4766C98.0516 25.0495 97.9448 25.724 97.9448 26.5ZM114.146 32.7344C112.974 32.7344 111.958 32.4766 111.099 31.9609C110.24 31.4453 109.573 30.724 109.099 29.7969C108.63 28.8698 108.396 27.7865 108.396 26.5469C108.396 25.3073 108.63 24.2214 109.099 23.2891C109.573 22.3568 110.24 21.6328 111.099 21.1172C111.958 20.6016 112.974 20.3438 114.146 20.3438C115.318 20.3438 116.333 20.6016 117.193 21.1172C118.052 21.6328 118.716 22.3568 119.185 23.2891C119.659 24.2214 119.896 25.3073 119.896 26.5469C119.896 27.7865 119.659 28.8698 119.185 29.7969C118.716 30.724 118.052 31.4453 117.193 31.9609C116.333 32.4766 115.318 32.7344 114.146 32.7344ZM114.161 30.4687C114.797 30.4687 115.328 30.2943 115.755 29.9453C116.182 29.5911 116.5 29.1172 116.708 28.5234C116.922 27.9297 117.029 27.2682 117.029 26.5391C117.029 25.8047 116.922 25.1406 116.708 24.5469C116.5 23.9479 116.182 23.4714 115.755 23.1172C115.328 22.763 114.797 22.5859 114.161 22.5859C113.51 22.5859 112.969 22.763 112.536 23.1172C112.109 23.4714 111.789 23.9479 111.575 24.5469C111.367 25.1406 111.263 25.8047 111.263 26.5391C111.263 27.2682 111.367 27.9297 111.575 28.5234C111.789 29.1172 112.109 29.5911 112.536 29.9453C112.969 30.2943 113.51 30.4687 114.161 30.4687ZM127.858 32.5V16.5H138.108V18.9297H130.757V23.2734H137.405V25.7031H130.757V32.5H127.858ZM140.614 32.5V20.5H143.442V32.5H140.614ZM142.036 18.7969C141.588 18.7969 141.202 18.6484 140.879 18.3516C140.557 18.0495 140.395 17.6875 140.395 17.2656C140.395 16.8385 140.557 16.4766 140.879 16.1797C141.202 15.8776 141.588 15.7266 142.036 15.7266C142.489 15.7266 142.874 15.8776 143.192 16.1797C143.515 16.4766 143.676 16.8385 143.676 17.2656C143.676 17.6875 143.515 18.0495 143.192 18.3516C142.874 18.6484 142.489 18.7969 142.036 18.7969ZM149.168 16.5V32.5H146.34V16.5H149.168ZM157.379 32.7344C156.176 32.7344 155.137 32.4844 154.262 31.9844C153.392 31.4792 152.723 30.7656 152.254 29.8437C151.785 28.9167 151.551 27.8255 151.551 26.5703C151.551 25.3359 151.785 24.2526 152.254 23.3203C152.728 22.3828 153.389 21.6536 154.238 21.1328C155.087 20.6068 156.085 20.3438 157.231 20.3438C157.97 20.3438 158.668 20.4635 159.324 20.7031C159.986 20.9375 160.569 21.3021 161.074 21.7969C161.585 22.2917 161.986 22.9219 162.277 23.6875C162.569 24.4479 162.715 25.3542 162.715 26.4062V27.2734H152.879V25.3672H160.004C159.999 24.8255 159.882 24.3437 159.652 23.9219C159.423 23.4948 159.103 23.1589 158.691 22.9141C158.285 22.6693 157.811 22.5469 157.27 22.5469C156.691 22.5469 156.184 22.6875 155.746 22.9687C155.309 23.2448 154.968 23.6094 154.723 24.0625C154.483 24.5104 154.361 25.0026 154.356 25.5391V27.2031C154.356 27.901 154.483 28.5 154.738 29C154.994 29.4948 155.35 29.875 155.809 30.1406C156.267 30.401 156.803 30.5312 157.418 30.5312C157.83 30.5312 158.202 30.474 158.535 30.3594C158.869 30.2396 159.158 30.0651 159.402 29.8359C159.647 29.6068 159.832 29.3229 159.957 28.9844L162.598 29.2812C162.431 29.9792 162.113 30.5885 161.645 31.1094C161.181 31.625 160.587 32.026 159.863 32.3125C159.139 32.5937 158.311 32.7344 157.379 32.7344ZM179.365 20.8984C179.292 20.2161 178.985 19.6849 178.443 19.3047C177.907 18.9245 177.209 18.7344 176.349 18.7344C175.745 18.7344 175.227 18.8255 174.795 19.0078C174.362 19.1901 174.032 19.4375 173.802 19.75C173.573 20.0625 173.456 20.4193 173.451 20.8203C173.451 21.1536 173.526 21.4427 173.677 21.6875C173.834 21.9323 174.045 22.1406 174.31 22.3125C174.576 22.4792 174.87 22.6198 175.193 22.7344C175.516 22.849 175.841 22.9453 176.17 23.0234L177.67 23.3984C178.274 23.5391 178.854 23.7292 179.412 23.9687C179.974 24.2083 180.477 24.5104 180.92 24.875C181.367 25.2396 181.722 25.6797 181.982 26.1953C182.242 26.7109 182.373 27.3151 182.373 28.0078C182.373 28.9453 182.133 29.7708 181.654 30.4844C181.175 31.1927 180.482 31.7474 179.576 32.1484C178.675 32.5443 177.584 32.7422 176.302 32.7422C175.058 32.7422 173.977 32.5495 173.06 32.1641C172.149 31.7786 171.435 31.2161 170.92 30.4766C170.409 29.737 170.133 28.8359 170.091 27.7734H172.943C172.985 28.3307 173.157 28.7943 173.459 29.1641C173.761 29.5339 174.154 29.8099 174.638 29.9922C175.128 30.1745 175.675 30.2656 176.279 30.2656C176.909 30.2656 177.461 30.1719 177.935 29.9844C178.414 29.7917 178.789 29.526 179.06 29.1875C179.331 28.8437 179.469 28.4427 179.474 27.9844C179.469 27.5677 179.347 27.224 179.107 26.9531C178.867 26.6771 178.532 26.4479 178.099 26.2656C177.672 26.0781 177.172 25.9115 176.599 25.7656L174.779 25.2969C173.461 24.9583 172.42 24.4453 171.654 23.7578C170.893 23.0651 170.513 22.1458 170.513 21C170.513 20.0573 170.768 19.2318 171.279 18.5234C171.795 17.8151 172.495 17.2656 173.38 16.875C174.266 16.4792 175.268 16.2812 176.388 16.2812C177.524 16.2812 178.518 16.4792 179.373 16.875C180.232 17.2656 180.907 17.8099 181.396 18.5078C181.886 19.2005 182.138 19.9974 182.154 20.8984H179.365ZM186.579 37C186.194 37 185.837 36.9688 185.509 36.9063C185.186 36.849 184.928 36.7813 184.736 36.7031L185.392 34.5C185.803 34.6198 186.171 34.6771 186.494 34.6719C186.816 34.6667 187.1 34.5651 187.345 34.3672C187.595 34.1745 187.806 33.8516 187.978 33.3984L188.22 32.75L183.869 20.5H186.869L189.634 29.5625H189.759L192.533 20.5H195.54L190.736 33.9531C190.512 34.5885 190.215 35.1328 189.845 35.5859C189.475 36.0443 189.022 36.3932 188.486 36.6328C187.954 36.8776 187.319 37 186.579 37ZM206.972 23.6719L204.394 23.9531C204.321 23.6927 204.193 23.4479 204.011 23.2188C203.834 22.9896 203.594 22.8047 203.292 22.6641C202.99 22.5234 202.62 22.4531 202.183 22.4531C201.594 22.4531 201.099 22.5807 200.698 22.8359C200.303 23.0911 200.107 23.4219 200.112 23.8281C200.107 24.1771 200.235 24.4609 200.495 24.6797C200.761 24.8984 201.198 25.0781 201.808 25.2188L203.855 25.6562C204.99 25.901 205.834 26.2891 206.386 26.8203C206.943 27.3516 207.224 28.0469 207.23 28.9062C207.224 29.6615 207.003 30.3281 206.566 30.9062C206.133 31.4792 205.532 31.9271 204.761 32.25C203.99 32.5729 203.105 32.7344 202.105 32.7344C200.636 32.7344 199.454 32.4271 198.558 31.8125C197.662 31.1927 197.128 30.3307 196.956 29.2266L199.714 28.9609C199.839 29.5026 200.105 29.9115 200.511 30.1875C200.917 30.4635 201.446 30.6016 202.097 30.6016C202.769 30.6016 203.308 30.4635 203.714 30.1875C204.125 29.9115 204.331 29.5703 204.331 29.1641C204.331 28.8203 204.198 28.5365 203.933 28.3125C203.672 28.0885 203.266 27.9167 202.714 27.7969L200.667 27.3672C199.516 27.1276 198.665 26.724 198.112 26.1562C197.56 25.5833 197.287 24.8594 197.292 23.9844C197.287 23.2448 197.487 22.6042 197.894 22.0625C198.305 21.5156 198.875 21.0937 199.605 20.7969C200.339 20.4948 201.185 20.3438 202.144 20.3438C203.55 20.3438 204.657 20.6432 205.464 21.2422C206.276 21.8411 206.779 22.651 206.972 23.6719ZM215.544 20.5V22.6875H208.645V20.5H215.544ZM210.349 17.625H213.177V28.8906C213.177 29.2708 213.234 29.5625 213.349 29.7656C213.468 29.9635 213.625 30.099 213.817 30.1719C214.01 30.2448 214.224 30.2812 214.458 30.2812C214.635 30.2812 214.796 30.2682 214.942 30.2422C215.093 30.2161 215.208 30.1927 215.286 30.1719L215.763 32.3828C215.612 32.4349 215.395 32.4922 215.114 32.5547C214.838 32.6172 214.5 32.6536 214.099 32.6641C213.39 32.6849 212.752 32.5781 212.184 32.3437C211.617 32.1042 211.166 31.7344 210.833 31.2344C210.505 30.7344 210.343 30.1094 210.349 29.3594V17.625ZM223.083 32.7344C221.88 32.7344 220.84 32.4844 219.965 31.9844C219.096 31.4792 218.426 30.7656 217.958 29.8437C217.489 28.9167 217.255 27.8255 217.255 26.5703C217.255 25.3359 217.489 24.2526 217.958 23.3203C218.432 22.3828 219.093 21.6536 219.942 21.1328C220.791 20.6068 221.788 20.3438 222.934 20.3438C223.674 20.3438 224.372 20.4635 225.028 20.7031C225.689 20.9375 226.273 21.3021 226.778 21.7969C227.288 22.2917 227.689 22.9219 227.981 23.6875C228.273 24.4479 228.419 25.3542 228.419 26.4062V27.2734H218.583V25.3672H225.708C225.702 24.8255 225.585 24.3437 225.356 23.9219C225.127 23.4948 224.807 23.1589 224.395 22.9141C223.989 22.6693 223.515 22.5469 222.973 22.5469C222.395 22.5469 221.887 22.6875 221.45 22.9687C221.012 23.2448 220.671 23.6094 220.426 24.0625C220.187 24.5104 220.064 25.0026 220.059 25.5391V27.2031C220.059 27.901 220.187 28.5 220.442 29C220.697 29.4948 221.054 29.875 221.512 30.1406C221.971 30.401 222.507 30.5312 223.122 30.5312C223.533 30.5312 223.906 30.474 224.239 30.3594C224.572 30.2396 224.861 30.0651 225.106 29.8359C225.351 29.6068 225.536 29.3229 225.661 28.9844L228.301 29.2812C228.135 29.9792 227.817 30.5885 227.348 31.1094C226.885 31.625 226.291 32.026 225.567 32.3125C224.843 32.5937 224.015 32.7344 223.083 32.7344ZM230.801 32.5V20.5H233.504V22.5391H233.645C233.895 21.8516 234.309 21.3151 234.887 20.9297C235.465 20.5391 236.155 20.3438 236.957 20.3438C237.77 20.3438 238.455 20.5417 239.012 20.9375C239.575 21.3281 239.97 21.862 240.2 22.5391H240.325C240.59 21.8724 241.038 21.3411 241.668 20.9453C242.304 20.5443 243.056 20.3438 243.926 20.3438C245.03 20.3438 245.931 20.6927 246.629 21.3906C247.327 22.0885 247.676 23.1068 247.676 24.4453V32.5H244.84V24.8828C244.84 24.138 244.642 23.5937 244.246 23.25C243.851 22.901 243.366 22.7266 242.793 22.7266C242.111 22.7266 241.577 22.9401 241.192 23.3672C240.812 23.7891 240.621 24.3385 240.621 25.0156V32.5H237.848V24.7656C237.848 24.1458 237.661 23.651 237.286 23.2812C236.916 22.9115 236.431 22.7266 235.832 22.7266C235.426 22.7266 235.056 22.8307 234.723 23.0391C234.39 23.2422 234.124 23.5312 233.926 23.9062C233.728 24.276 233.629 24.7083 233.629 25.2031V32.5H230.801Z" fill="#644FC1"/>
<defs>
<radialGradient id="paint0_radial_45_36" cx="0" cy="0" r="1" gradientUnits="userSpaceOnUse" gradientTransform="translate(4 4) rotate(90) scale(32)">
<stop stop-color="white"/>
<stop offset="1" stop-color="white" stop-opacity="0"/>
</radialGradient>
<clipPath id="clip0_45_36">
<rect width="48" height="48" rx="10" fill="white"/>
</clipPath>
</defs>
</svg>
