<svg width="169" height="48" viewBox="0 0 169 48" fill="none" xmlns="http://www.w3.org/2000/svg">
<g clip-path="url(#clip0_85_133)">
<rect width="48" height="48" rx="10" fill="#F7CE00"/>
<g opacity="0.4">
<rect x="-28" y="-28" width="64" height="64" rx="10" fill="url(#paint0_radial_85_133)"/>
</g>
<path opacity="0.4" d="M22.7425 17.0923C23.1489 17.0322 23.5681 17 23.9999 17C29.1049 17 32.4548 21.5048 33.5802 23.2868C33.7164 23.5025 33.7845 23.6103 33.8226 23.7767C33.8513 23.9016 33.8512 24.0987 33.8226 24.2236C33.7845 24.3899 33.7159 24.4985 33.5787 24.7156C33.2789 25.1901 32.8217 25.8571 32.216 26.5805M18.7238 18.715C16.5618 20.1817 15.094 22.2194 14.4206 23.2853C14.2838 23.5019 14.2154 23.6102 14.1773 23.7765C14.1486 23.9014 14.1486 24.0984 14.1772 24.2234C14.2153 24.3897 14.2834 24.4975 14.4196 24.7132C15.5451 26.4952 18.8949 31 23.9999 31C26.0583 31 27.8314 30.2676 29.2883 29.2766" stroke="white" stroke-width="2" stroke-linecap="round" stroke-linejoin="round"/>
<path d="M15 15L33 33M21.8787 21.8787C21.3358 22.4216 21 23.1716 21 24C21 25.6569 22.3431 27 24 27C24.8284 27 25.5784 26.6642 26.1213 26.1213" stroke="white" stroke-width="2" stroke-linecap="round" stroke-linejoin="round"/>
</g>
<path d="M69.5781 32.5V16.5H79.9844V18.9297H72.4766V23.2734H79.4453V25.7031H72.4766V30.0703H80.0469V32.5H69.5781ZM85.1189 20.5L87.5408 24.9297L90.0017 20.5H92.9939L89.3767 26.5L93.0564 32.5H90.0798L87.5408 28.1797L85.0252 32.5H82.0252L85.6814 26.5L82.1189 20.5H85.1189ZM95.1714 37V20.5H97.9527V22.4844H98.1167C98.2626 22.1927 98.4683 21.8828 98.7339 21.5547C98.9995 21.2214 99.3589 20.9375 99.812 20.7031C100.265 20.4635 100.843 20.3438 101.546 20.3438C102.473 20.3438 103.309 20.5807 104.054 21.0547C104.804 21.5234 105.398 22.2187 105.835 23.1406C106.278 24.0573 106.5 25.1823 106.5 26.5156C106.5 27.8333 106.283 28.9531 105.851 29.875C105.419 30.7969 104.83 31.5 104.085 31.9844C103.341 32.4688 102.497 32.7109 101.554 32.7109C100.867 32.7109 100.296 32.5964 99.8433 32.3672C99.3902 32.138 99.0256 31.862 98.7495 31.5391C98.4787 31.2109 98.2678 30.901 98.1167 30.6094H97.9995V37H95.1714ZM97.9448 26.5C97.9448 27.276 98.0542 27.9557 98.273 28.5391C98.4969 29.1224 98.8172 29.5781 99.2339 29.9062C99.6558 30.2292 100.166 30.3906 100.765 30.3906C101.39 30.3906 101.914 30.224 102.335 29.8906C102.757 29.5521 103.075 29.0911 103.289 28.5078C103.507 27.9193 103.617 27.25 103.617 26.5C103.617 25.7552 103.51 25.0937 103.296 24.5156C103.083 23.9375 102.765 23.4844 102.343 23.1562C101.921 22.8281 101.395 22.6641 100.765 22.6641C100.161 22.6641 99.648 22.8229 99.2261 23.1406C98.8042 23.4583 98.4839 23.9036 98.2652 24.4766C98.0516 25.0495 97.9448 25.724 97.9448 26.5ZM114.146 32.7344C112.974 32.7344 111.958 32.4766 111.099 31.9609C110.24 31.4453 109.573 30.724 109.099 29.7969C108.63 28.8698 108.396 27.7865 108.396 26.5469C108.396 25.3073 108.63 24.2214 109.099 23.2891C109.573 22.3568 110.24 21.6328 111.099 21.1172C111.958 20.6016 112.974 20.3438 114.146 20.3438C115.318 20.3438 116.333 20.6016 117.193 21.1172C118.052 21.6328 118.716 22.3568 119.185 23.2891C119.659 24.2214 119.896 25.3073 119.896 26.5469C119.896 27.7865 119.659 28.8698 119.185 29.7969C118.716 30.724 118.052 31.4453 117.193 31.9609C116.333 32.4766 115.318 32.7344 114.146 32.7344ZM114.161 30.4687C114.797 30.4687 115.328 30.2943 115.755 29.9453C116.182 29.5911 116.5 29.1172 116.708 28.5234C116.922 27.9297 117.029 27.2682 117.029 26.5391C117.029 25.8047 116.922 25.1406 116.708 24.5469C116.5 23.9479 116.182 23.4714 115.755 23.1172C115.328 22.763 114.797 22.5859 114.161 22.5859C113.51 22.5859 112.969 22.763 112.536 23.1172C112.109 23.4714 111.789 23.9479 111.575 24.5469C111.367 25.1406 111.263 25.8047 111.263 26.5391C111.263 27.2682 111.367 27.9297 111.575 28.5234C111.789 29.1172 112.109 29.5911 112.536 29.9453C112.969 30.2943 113.51 30.4687 114.161 30.4687ZM127.858 32.5V16.5H133.983C135.139 16.5 136.1 16.6823 136.866 17.0469C137.637 17.4062 138.212 17.8984 138.593 18.5234C138.978 19.1484 139.171 19.8568 139.171 20.6484C139.171 21.2995 139.046 21.8568 138.796 22.3203C138.546 22.7786 138.21 23.151 137.788 23.4375C137.366 23.724 136.895 23.9297 136.374 24.0547V24.2109C136.942 24.2422 137.486 24.4167 138.007 24.7344C138.533 25.0469 138.962 25.4896 139.296 26.0625C139.629 26.6354 139.796 27.3281 139.796 28.1406C139.796 28.9687 139.595 29.7135 139.194 30.375C138.793 31.0312 138.189 31.5495 137.382 31.9297C136.574 32.3099 135.559 32.5 134.335 32.5H127.858ZM130.757 30.0781H133.874C134.926 30.0781 135.684 29.8776 136.147 29.4766C136.616 29.0703 136.85 28.5495 136.85 27.9141C136.85 27.4401 136.733 27.013 136.499 26.6328C136.264 26.2474 135.931 25.9453 135.499 25.7266C135.067 25.5026 134.551 25.3906 133.952 25.3906H130.757V30.0781ZM130.757 23.3047H133.624C134.124 23.3047 134.574 23.2135 134.975 23.0312C135.376 22.8437 135.692 22.5807 135.921 22.2422C136.155 21.8984 136.272 21.4922 136.272 21.0234C136.272 20.4036 136.054 19.8932 135.616 19.4922C135.184 19.0911 134.54 18.8906 133.686 18.8906H130.757V23.3047ZM145.01 16.5V32.5H142.182V16.5H145.01ZM155.557 27.4531V20.5H158.385V32.5H155.643V30.3672H155.518C155.247 31.0391 154.802 31.5885 154.182 32.0156C153.567 32.4427 152.81 32.6563 151.909 32.6563C151.122 32.6563 150.427 32.4818 149.823 32.1328C149.224 31.7786 148.755 31.2656 148.416 30.5938C148.078 29.9167 147.909 29.099 147.909 28.1406V20.5H150.737V27.7031C150.737 28.4635 150.945 29.0677 151.362 29.5156C151.778 29.9635 152.325 30.1875 153.002 30.1875C153.419 30.1875 153.823 30.0859 154.213 29.8828C154.604 29.6797 154.924 29.3776 155.174 28.9766C155.429 28.5703 155.557 28.0625 155.557 27.4531ZM161.283 32.5V20.5H164.025V22.5H164.15C164.369 21.8073 164.744 21.2734 165.275 20.8984C165.812 20.5182 166.424 20.3281 167.111 20.3281C167.268 20.3281 167.442 20.3359 167.635 20.3516C167.833 20.362 167.997 20.3802 168.127 20.4062V23.0078C168.007 22.9661 167.817 22.9297 167.557 22.8984C167.302 22.862 167.054 22.8437 166.815 22.8437C166.299 22.8437 165.835 22.9557 165.424 23.1797C165.018 23.3984 164.697 23.7031 164.463 24.0937C164.229 24.4844 164.111 24.9349 164.111 25.4453V32.5H161.283Z" fill="#F7CE00"/>
<defs>
<radialGradient id="paint0_radial_85_133" cx="0" cy="0" r="1" gradientUnits="userSpaceOnUse" gradientTransform="translate(4 4) rotate(90) scale(32)">
<stop stop-color="white"/>
<stop offset="1" stop-color="white" stop-opacity="0"/>
</radialGradient>
<clipPath id="clip0_85_133">
<rect width="48" height="48" rx="10" fill="white"/>
</clipPath>
</defs>
</svg>
