<svg width="200" height="48" viewBox="0 0 200 48" fill="none" xmlns="http://www.w3.org/2000/svg">
<g clip-path="url(#clip0_45_273)">
<rect width="48" height="48" rx="10" fill="#2EBDE5"/>
<g opacity="0.4">
<rect x="-28" y="-28" width="64" height="64" rx="10" fill="url(#paint0_radial_45_273)"/>
</g>
<path opacity="0.4" d="M34 23V20.2C34 19.0799 34 18.5198 33.782 18.092C33.5903 17.7157 33.2843 17.4097 32.908 17.218C32.4802 17 31.9201 17 30.8 17H17.2C16.0799 17 15.5198 17 15.092 17.218C14.7157 17.4097 14.4097 17.7157 14.218 18.092C14 18.5198 14 19.0799 14 20.2V23.8C14 24.9201 14 25.4802 14.218 25.908C14.4097 26.2843 14.7157 26.5903 15.092 26.782C15.5198 27 16.0799 27 17.2 27H23M24 22H24.005M29 22H29.005M19 22H19.005M24.25 22C24.25 22.1381 24.1381 22.25 24 22.25C23.8619 22.25 23.75 22.1381 23.75 22C23.75 21.8619 23.8619 21.75 24 21.75C24.1381 21.75 24.25 21.8619 24.25 22ZM29.25 22C29.25 22.1381 29.1381 22.25 29 22.25C28.8619 22.25 28.75 22.1381 28.75 22C28.75 21.8619 28.8619 21.75 29 21.75C29.1381 21.75 29.25 21.8619 29.25 22ZM19.25 22C19.25 22.1381 19.1381 22.25 19 22.25C18.8619 22.25 18.75 22.1381 18.75 22C18.75 21.8619 18.8619 21.75 19 21.75C19.1381 21.75 19.25 21.8619 19.25 22Z" stroke="white" stroke-width="2" stroke-linecap="round" stroke-linejoin="round"/>
<path d="M31.25 29V27.25C31.25 26.2835 30.4665 25.5 29.5 25.5C28.5335 25.5 27.75 26.2835 27.75 27.25V29M27.6 33H31.4C31.9601 33 32.2401 33 32.454 32.891C32.6422 32.7951 32.7951 32.6422 32.891 32.454C33 32.2401 33 31.9601 33 31.4V30.6C33 30.0399 33 29.7599 32.891 29.546C32.7951 29.3578 32.6422 29.2049 32.454 29.109C32.2401 29 31.9601 29 31.4 29H27.6C27.0399 29 26.7599 29 26.546 29.109C26.3578 29.2049 26.2049 29.3578 26.109 29.546C26 29.7599 26 30.0399 26 30.6V31.4C26 31.9601 26 32.2401 26.109 32.454C26.2049 32.6422 26.3578 32.7951 26.546 32.891C26.7599 33 27.0399 33 27.6 33Z" stroke="white" stroke-width="2" stroke-linecap="round" stroke-linejoin="round"/>
</g>
<path d="M69.5781 32.5V16.5H79.9844V18.9297H72.4766V23.2734H79.4453V25.7031H72.4766V30.0703H80.0469V32.5H69.5781ZM85.1189 20.5L87.5408 24.9297L90.0017 20.5H92.9939L89.3767 26.5L93.0564 32.5H90.0798L87.5408 28.1797L85.0252 32.5H82.0252L85.6814 26.5L82.1189 20.5H85.1189ZM95.1714 37V20.5H97.9527V22.4844H98.1167C98.2626 22.1927 98.4683 21.8828 98.7339 21.5547C98.9995 21.2214 99.3589 20.9375 99.812 20.7031C100.265 20.4635 100.843 20.3438 101.546 20.3438C102.473 20.3438 103.309 20.5807 104.054 21.0547C104.804 21.5234 105.398 22.2187 105.835 23.1406C106.278 24.0573 106.5 25.1823 106.5 26.5156C106.5 27.8333 106.283 28.9531 105.851 29.875C105.419 30.7969 104.83 31.5 104.085 31.9844C103.341 32.4688 102.497 32.7109 101.554 32.7109C100.867 32.7109 100.296 32.5964 99.8433 32.3672C99.3902 32.138 99.0256 31.862 98.7495 31.5391C98.4787 31.2109 98.2678 30.901 98.1167 30.6094H97.9995V37H95.1714ZM97.9448 26.5C97.9448 27.276 98.0542 27.9557 98.273 28.5391C98.4969 29.1224 98.8172 29.5781 99.2339 29.9062C99.6558 30.2292 100.166 30.3906 100.765 30.3906C101.39 30.3906 101.914 30.224 102.335 29.8906C102.757 29.5521 103.075 29.0911 103.289 28.5078C103.507 27.9193 103.617 27.25 103.617 26.5C103.617 25.7552 103.51 25.0937 103.296 24.5156C103.083 23.9375 102.765 23.4844 102.343 23.1562C101.921 22.8281 101.395 22.6641 100.765 22.6641C100.161 22.6641 99.648 22.8229 99.2261 23.1406C98.8042 23.4583 98.4839 23.9036 98.2652 24.4766C98.0516 25.0495 97.9448 25.724 97.9448 26.5ZM114.146 32.7344C112.974 32.7344 111.958 32.4766 111.099 31.9609C110.24 31.4453 109.573 30.724 109.099 29.7969C108.63 28.8698 108.396 27.7865 108.396 26.5469C108.396 25.3073 108.63 24.2214 109.099 23.2891C109.573 22.3568 110.24 21.6328 111.099 21.1172C111.958 20.6016 112.974 20.3438 114.146 20.3438C115.318 20.3438 116.333 20.6016 117.193 21.1172C118.052 21.6328 118.716 22.3568 119.185 23.2891C119.659 24.2214 119.896 25.3073 119.896 26.5469C119.896 27.7865 119.659 28.8698 119.185 29.7969C118.716 30.724 118.052 31.4453 117.193 31.9609C116.333 32.4766 115.318 32.7344 114.146 32.7344ZM114.161 30.4687C114.797 30.4687 115.328 30.2943 115.755 29.9453C116.182 29.5911 116.5 29.1172 116.708 28.5234C116.922 27.9297 117.029 27.2682 117.029 26.5391C117.029 25.8047 116.922 25.1406 116.708 24.5469C116.5 23.9479 116.182 23.4714 115.755 23.1172C115.328 22.763 114.797 22.5859 114.161 22.5859C113.51 22.5859 112.969 22.763 112.536 23.1172C112.109 23.4714 111.789 23.9479 111.575 24.5469C111.367 25.1406 111.263 25.8047 111.263 26.5391C111.263 27.2682 111.367 27.9297 111.575 28.5234C111.789 29.1172 112.109 29.5911 112.536 29.9453C112.969 30.2943 113.51 30.4687 114.161 30.4687ZM141.554 21.8984H138.632C138.548 21.4193 138.395 20.9948 138.171 20.625C137.947 20.25 137.668 19.9323 137.335 19.6719C137.001 19.4115 136.621 19.2161 136.194 19.0859C135.772 18.9505 135.317 18.8828 134.827 18.8828C133.957 18.8828 133.186 19.1016 132.514 19.5391C131.843 19.9714 131.317 20.6068 130.936 21.4453C130.556 22.2786 130.366 23.2969 130.366 24.5C130.366 25.724 130.556 26.7552 130.936 27.5937C131.322 28.4271 131.848 29.0573 132.514 29.4844C133.186 29.9062 133.955 30.1172 134.819 30.1172C135.298 30.1172 135.746 30.0547 136.163 29.9297C136.585 29.7995 136.962 29.6094 137.296 29.3594C137.634 29.1094 137.918 28.8021 138.147 28.4375C138.382 28.0729 138.543 27.6562 138.632 27.1875L141.554 27.2031C141.444 27.9635 141.207 28.6771 140.843 29.3438C140.483 30.0104 140.012 30.599 139.429 31.1094C138.845 31.6146 138.163 32.0104 137.382 32.2969C136.6 32.5781 135.733 32.7187 134.78 32.7187C133.374 32.7187 132.119 32.3932 131.014 31.7422C129.91 31.0911 129.04 30.151 128.405 28.9219C127.77 27.6927 127.452 26.2187 127.452 24.5C127.452 22.776 127.772 21.3021 128.413 20.0781C129.054 18.849 129.926 17.9089 131.03 17.2578C132.134 16.6068 133.384 16.2812 134.78 16.2812C135.671 16.2812 136.499 16.4062 137.264 16.6562C138.03 16.9062 138.712 17.2734 139.311 17.7578C139.91 18.237 140.402 18.8255 140.788 19.5234C141.179 20.2161 141.434 21.0078 141.554 21.8984ZM144.073 32.5V20.5H146.815V22.5H146.94C147.159 21.8073 147.534 21.2734 148.065 20.8984C148.601 20.5182 149.213 20.3281 149.901 20.3281C150.057 20.3281 150.232 20.3359 150.424 20.3516C150.622 20.362 150.786 20.3802 150.917 20.4062V23.0078C150.797 22.9661 150.607 22.9297 150.346 22.8984C150.091 22.862 149.844 22.8437 149.604 22.8437C149.088 22.8437 148.625 22.9557 148.213 23.1797C147.807 23.3984 147.487 23.7031 147.253 24.0937C147.018 24.4844 146.901 24.9349 146.901 25.4453V32.5H144.073ZM154.909 37C154.523 37 154.166 36.9688 153.838 36.9063C153.515 36.849 153.257 36.7813 153.065 36.7031L153.721 34.5C154.132 34.6198 154.5 34.6771 154.823 34.6719C155.145 34.6667 155.429 34.5651 155.674 34.3672C155.924 34.1745 156.135 33.8516 156.307 33.3984L156.549 32.75L152.198 20.5H155.198L157.963 29.5625H158.088L160.862 20.5H163.869L159.065 33.9531C158.841 34.5885 158.544 35.1328 158.174 35.5859C157.804 36.0443 157.351 36.3932 156.815 36.6328C156.284 36.8776 155.648 37 154.909 37ZM165.816 37V20.5H168.598V22.4844H168.762C168.908 22.1927 169.113 21.8828 169.379 21.5547C169.645 21.2214 170.004 20.9375 170.457 20.7031C170.91 20.4635 171.488 20.3438 172.191 20.3438C173.119 20.3438 173.955 20.5807 174.699 21.0547C175.449 21.5234 176.043 22.2187 176.481 23.1406C176.923 24.0573 177.145 25.1823 177.145 26.5156C177.145 27.8333 176.928 28.9531 176.496 29.875C176.064 30.7969 175.475 31.5 174.731 31.9844C173.986 32.4688 173.142 32.7109 172.199 32.7109C171.512 32.7109 170.941 32.5964 170.488 32.3672C170.035 32.138 169.671 31.862 169.395 31.5391C169.124 31.2109 168.913 30.901 168.762 30.6094H168.645V37H165.816ZM168.59 26.5C168.59 27.276 168.699 27.9557 168.918 28.5391C169.142 29.1224 169.462 29.5781 169.879 29.9062C170.301 30.2292 170.811 30.3906 171.41 30.3906C172.035 30.3906 172.559 30.224 172.981 29.8906C173.402 29.5521 173.72 29.0911 173.934 28.5078C174.152 27.9193 174.262 27.25 174.262 26.5C174.262 25.7552 174.155 25.0937 173.941 24.5156C173.728 23.9375 173.41 23.4844 172.988 23.1562C172.566 22.8281 172.04 22.6641 171.41 22.6641C170.806 22.6641 170.293 22.8229 169.871 23.1406C169.449 23.4583 169.129 23.9036 168.91 24.4766C168.697 25.0495 168.59 25.724 168.59 26.5ZM185.549 20.5V22.6875H178.65V20.5H185.549ZM180.353 17.625H183.181V28.8906C183.181 29.2708 183.239 29.5625 183.353 29.7656C183.473 29.9635 183.629 30.099 183.822 30.1719C184.015 30.2448 184.228 30.2812 184.463 30.2812C184.64 30.2812 184.801 30.2682 184.947 30.2422C185.098 30.2161 185.213 30.1927 185.291 30.1719L185.767 32.3828C185.616 32.4349 185.4 32.4922 185.119 32.5547C184.843 32.6172 184.504 32.6536 184.103 32.6641C183.395 32.6849 182.757 32.5781 182.189 32.3437C181.622 32.1042 181.171 31.7344 180.838 31.2344C180.51 30.7344 180.348 30.1094 180.353 29.3594V17.625ZM193.009 32.7344C191.838 32.7344 190.822 32.4766 189.963 31.9609C189.103 31.4453 188.436 30.724 187.963 29.7969C187.494 28.8698 187.259 27.7865 187.259 26.5469C187.259 25.3073 187.494 24.2214 187.963 23.2891C188.436 22.3568 189.103 21.6328 189.963 21.1172C190.822 20.6016 191.838 20.3438 193.009 20.3438C194.181 20.3438 195.197 20.6016 196.056 21.1172C196.916 21.6328 197.58 22.3568 198.048 23.2891C198.522 24.2214 198.759 25.3073 198.759 26.5469C198.759 27.7865 198.522 28.8698 198.048 29.7969C197.58 30.724 196.916 31.4453 196.056 31.9609C195.197 32.4766 194.181 32.7344 193.009 32.7344ZM193.025 30.4687C193.66 30.4687 194.192 30.2943 194.619 29.9453C195.046 29.5911 195.364 29.1172 195.572 28.5234C195.785 27.9297 195.892 27.2682 195.892 26.5391C195.892 25.8047 195.785 25.1406 195.572 24.5469C195.364 23.9479 195.046 23.4714 194.619 23.1172C194.192 22.763 193.66 22.5859 193.025 22.5859C192.374 22.5859 191.832 22.763 191.4 23.1172C190.973 23.4714 190.653 23.9479 190.439 24.5469C190.231 25.1406 190.127 25.8047 190.127 26.5391C190.127 27.2682 190.231 27.9297 190.439 28.5234C190.653 29.1172 190.973 29.5911 191.4 29.9453C191.832 30.2943 192.374 30.4687 193.025 30.4687Z" fill="#2EBDE5"/>
<defs>
<radialGradient id="paint0_radial_45_273" cx="0" cy="0" r="1" gradientUnits="userSpaceOnUse" gradientTransform="translate(4 4) rotate(90) scale(32)">
<stop stop-color="white"/>
<stop offset="1" stop-color="white" stop-opacity="0"/>
</radialGradient>
<clipPath id="clip0_45_273">
<rect width="48" height="48" rx="10" fill="white"/>
</clipPath>
</defs>
</svg>
