<svg width="208" height="48" viewBox="0 0 208 48" fill="none" xmlns="http://www.w3.org/2000/svg">
<g clip-path="url(#clip0_37_141)">
<rect width="48" height="48" rx="10" fill="#FFA01C"/>
<g opacity="0.4">
<rect x="-28" y="-28" width="64" height="64" rx="10" fill="url(#paint0_radial_37_141)"/>
</g>
<path opacity="0.4" d="M14 24C14.6 24.5 15.2 25 16.5 25C19 25 19 23 21.5 23C22.8 23 23.4 23.5 24 24C24.6 24.5 25.2 25 26.5 25C29 25 29 23 31.5 23C32.8 23 33.4 23.5 34 24" stroke="white" stroke-width="2" stroke-linecap="round" stroke-linejoin="round"/>
<path d="M14 18C14.6 18.5 15.2 19 16.5 19C19 19 19 17 21.5 17C22.8 17 23.4 17.5 24 18C24.6 18.5 25.2 19 26.5 19C29 19 29 17 31.5 17C32.8 17 33.4 17.5 34 18M14 30C14.6 30.5 15.2 31 16.5 31C19 31 19 29 21.5 29C22.8 29 23.4 29.5 24 30C24.6 30.5 25.2 31 26.5 31C29 31 29 29 31.5 29C32.8 29 33.4 29.5 34 30" stroke="white" stroke-width="2" stroke-linecap="round" stroke-linejoin="round"/>
</g>
<path d="M69.5781 32.5V16.5H79.9844V18.9297H72.4766V23.2734H79.4453V25.7031H72.4766V30.0703H80.0469V32.5H69.5781ZM85.1189 20.5L87.5408 24.9297L90.0017 20.5H92.9939L89.3767 26.5L93.0564 32.5H90.0798L87.5408 28.1797L85.0252 32.5H82.0252L85.6814 26.5L82.1189 20.5H85.1189ZM95.1714 37V20.5H97.9527V22.4844H98.1167C98.2626 22.1927 98.4683 21.8828 98.7339 21.5547C98.9995 21.2214 99.3589 20.9375 99.812 20.7031C100.265 20.4635 100.843 20.3438 101.546 20.3438C102.473 20.3438 103.309 20.5807 104.054 21.0547C104.804 21.5234 105.398 22.2187 105.835 23.1406C106.278 24.0573 106.5 25.1823 106.5 26.5156C106.5 27.8333 106.283 28.9531 105.851 29.875C105.419 30.7969 104.83 31.5 104.085 31.9844C103.341 32.4688 102.497 32.7109 101.554 32.7109C100.867 32.7109 100.296 32.5964 99.8433 32.3672C99.3902 32.138 99.0256 31.862 98.7495 31.5391C98.4787 31.2109 98.2678 30.901 98.1167 30.6094H97.9995V37H95.1714ZM97.9448 26.5C97.9448 27.276 98.0542 27.9557 98.273 28.5391C98.4969 29.1224 98.8172 29.5781 99.2339 29.9062C99.6558 30.2292 100.166 30.3906 100.765 30.3906C101.39 30.3906 101.914 30.224 102.335 29.8906C102.757 29.5521 103.075 29.0911 103.289 28.5078C103.507 27.9193 103.617 27.25 103.617 26.5C103.617 25.7552 103.51 25.0937 103.296 24.5156C103.083 23.9375 102.765 23.4844 102.343 23.1562C101.921 22.8281 101.395 22.6641 100.765 22.6641C100.161 22.6641 99.648 22.8229 99.2261 23.1406C98.8042 23.4583 98.4839 23.9036 98.2652 24.4766C98.0516 25.0495 97.9448 25.724 97.9448 26.5ZM114.146 32.7344C112.974 32.7344 111.958 32.4766 111.099 31.9609C110.24 31.4453 109.573 30.724 109.099 29.7969C108.63 28.8698 108.396 27.7865 108.396 26.5469C108.396 25.3073 108.63 24.2214 109.099 23.2891C109.573 22.3568 110.24 21.6328 111.099 21.1172C111.958 20.6016 112.974 20.3438 114.146 20.3438C115.318 20.3438 116.333 20.6016 117.193 21.1172C118.052 21.6328 118.716 22.3568 119.185 23.2891C119.659 24.2214 119.896 25.3073 119.896 26.5469C119.896 27.7865 119.659 28.8698 119.185 29.7969C118.716 30.724 118.052 31.4453 117.193 31.9609C116.333 32.4766 115.318 32.7344 114.146 32.7344ZM114.161 30.4687C114.797 30.4687 115.328 30.2943 115.755 29.9453C116.182 29.5911 116.5 29.1172 116.708 28.5234C116.922 27.9297 117.029 27.2682 117.029 26.5391C117.029 25.8047 116.922 25.1406 116.708 24.5469C116.5 23.9479 116.182 23.4714 115.755 23.1172C115.328 22.763 114.797 22.5859 114.161 22.5859C113.51 22.5859 112.969 22.763 112.536 23.1172C112.109 23.4714 111.789 23.9479 111.575 24.5469C111.367 25.1406 111.263 25.8047 111.263 26.5391C111.263 27.2682 111.367 27.9297 111.575 28.5234C111.789 29.1172 112.109 29.5911 112.536 29.9453C112.969 30.2943 113.51 30.4687 114.161 30.4687ZM127.858 32.5V16.5H130.757V23.2734H138.171V16.5H141.077V32.5H138.171V25.7031H130.757V32.5H127.858ZM147.547 32.7422C146.787 32.7422 146.102 32.6068 145.493 32.3359C144.889 32.0599 144.409 31.6536 144.055 31.1172C143.706 30.5807 143.532 29.9193 143.532 29.1328C143.532 28.4557 143.657 27.8958 143.907 27.4531C144.157 27.0104 144.498 26.6562 144.93 26.3906C145.363 26.125 145.85 25.9245 146.391 25.7891C146.938 25.6484 147.503 25.5469 148.086 25.4844C148.79 25.4115 149.36 25.3464 149.797 25.2891C150.235 25.2266 150.553 25.1328 150.751 25.0078C150.954 24.8776 151.055 24.6771 151.055 24.4062V24.3594C151.055 23.7708 150.881 23.3151 150.532 22.9922C150.183 22.6693 149.68 22.5078 149.024 22.5078C148.331 22.5078 147.782 22.6589 147.376 22.9609C146.975 23.263 146.704 23.6198 146.563 24.0312L143.922 23.6562C144.131 22.9271 144.475 22.3177 144.954 21.8281C145.433 21.3333 146.019 20.9635 146.711 20.7187C147.404 20.4688 148.17 20.3438 149.008 20.3438C149.586 20.3438 150.162 20.4115 150.735 20.5469C151.308 20.6823 151.831 20.9062 152.305 21.2187C152.779 21.526 153.159 21.9453 153.446 22.4766C153.738 23.0078 153.883 23.6719 153.883 24.4687V32.5H151.165V30.8516H151.071C150.899 31.1849 150.657 31.4974 150.344 31.7891C150.037 32.0755 149.649 32.3073 149.18 32.4844C148.717 32.6563 148.172 32.7422 147.547 32.7422ZM148.282 30.6641C148.85 30.6641 149.342 30.5521 149.758 30.3281C150.175 30.099 150.495 29.7969 150.719 29.4219C150.948 29.0469 151.063 28.638 151.063 28.1953V26.7812C150.975 26.8542 150.823 26.9219 150.61 26.9844C150.402 27.0469 150.167 27.1016 149.907 27.1484C149.646 27.1953 149.389 27.237 149.133 27.2734C148.878 27.3099 148.657 27.3411 148.469 27.3672C148.047 27.4245 147.67 27.5182 147.336 27.6484C147.003 27.7786 146.74 27.9609 146.547 28.1953C146.355 28.4245 146.258 28.7214 146.258 29.0859C146.258 29.6068 146.448 30 146.829 30.2656C147.209 30.5312 147.693 30.6641 148.282 30.6641ZM156.717 37V20.5H159.498V22.4844H159.662C159.808 22.1927 160.014 21.8828 160.28 21.5547C160.545 21.2214 160.905 20.9375 161.358 20.7031C161.811 20.4635 162.389 20.3438 163.092 20.3438C164.019 20.3438 164.855 20.5807 165.6 21.0547C166.35 21.5234 166.944 22.2187 167.381 23.1406C167.824 24.0573 168.045 25.1823 168.045 26.5156C168.045 27.8333 167.829 28.9531 167.397 29.875C166.965 30.7969 166.376 31.5 165.631 31.9844C164.886 32.4688 164.043 32.7109 163.1 32.7109C162.412 32.7109 161.842 32.5964 161.389 32.3672C160.936 32.138 160.571 31.862 160.295 31.5391C160.024 31.2109 159.813 30.901 159.662 30.6094H159.545V37H156.717ZM159.491 26.5C159.491 27.276 159.6 27.9557 159.819 28.5391C160.043 29.1224 160.363 29.5781 160.78 29.9062C161.201 30.2292 161.712 30.3906 162.311 30.3906C162.936 30.3906 163.459 30.224 163.881 29.8906C164.303 29.5521 164.621 29.0911 164.834 28.5078C165.053 27.9193 165.162 27.25 165.162 26.5C165.162 25.7552 165.056 25.0937 164.842 24.5156C164.629 23.9375 164.311 23.4844 163.889 23.1562C163.467 22.8281 162.941 22.6641 162.311 22.6641C161.707 22.6641 161.194 22.8229 160.772 23.1406C160.35 23.4583 160.03 23.9036 159.811 24.4766C159.597 25.0495 159.491 25.724 159.491 26.5ZM176.449 20.5V22.6875H169.551V20.5H176.449ZM171.254 17.625H174.082V28.8906C174.082 29.2708 174.139 29.5625 174.254 29.7656C174.374 29.9635 174.53 30.099 174.723 30.1719C174.915 30.2448 175.129 30.2812 175.363 30.2812C175.54 30.2812 175.702 30.2682 175.848 30.2422C175.999 30.2161 176.113 30.1927 176.191 30.1719L176.668 32.3828C176.517 32.4349 176.301 32.4922 176.02 32.5547C175.744 32.6172 175.405 32.6536 175.004 32.6641C174.296 32.6849 173.658 32.5781 173.09 32.3437C172.522 32.1042 172.072 31.7344 171.738 31.2344C171.41 30.7344 171.249 30.1094 171.254 29.3594V17.625ZM178.805 32.5V20.5H181.633V32.5H178.805ZM180.226 18.7969C179.778 18.7969 179.393 18.6484 179.07 18.3516C178.747 18.0495 178.586 17.6875 178.586 17.2656C178.586 16.8385 178.747 16.4766 179.07 16.1797C179.393 15.8776 179.778 15.7266 180.226 15.7266C180.68 15.7266 181.065 15.8776 181.383 16.1797C181.706 16.4766 181.867 16.8385 181.867 17.2656C181.867 17.6875 181.706 18.0495 181.383 18.3516C181.065 18.6484 180.68 18.7969 180.226 18.7969ZM189.765 32.7344C188.567 32.7344 187.539 32.4714 186.679 31.9453C185.825 31.4193 185.166 30.6927 184.703 29.7656C184.244 28.8333 184.015 27.7604 184.015 26.5469C184.015 25.3281 184.25 24.2526 184.718 23.3203C185.187 22.3828 185.849 21.6536 186.703 21.1328C187.562 20.6068 188.578 20.3438 189.75 20.3438C190.724 20.3438 191.586 20.5234 192.336 20.8828C193.091 21.237 193.692 21.7396 194.14 22.3906C194.588 23.0365 194.843 23.7917 194.906 24.6562H192.203C192.093 24.0781 191.833 23.5964 191.421 23.2109C191.015 22.8203 190.471 22.625 189.789 22.625C189.211 22.625 188.703 22.7812 188.265 23.0937C187.828 23.401 187.487 23.8437 187.242 24.4219C187.002 25 186.882 25.6927 186.882 26.5C186.882 27.3177 187.002 28.0208 187.242 28.6094C187.481 29.1927 187.817 29.6432 188.25 29.9609C188.687 30.2734 189.2 30.4297 189.789 30.4297C190.205 30.4297 190.578 30.3516 190.906 30.1953C191.239 30.0339 191.518 29.8021 191.742 29.5C191.966 29.1979 192.119 28.8307 192.203 28.3984H194.906C194.838 29.2474 194.588 30 194.156 30.6562C193.724 31.3073 193.135 31.8177 192.39 32.1875C191.645 32.5521 190.77 32.7344 189.765 32.7344ZM206.702 23.6719L204.124 23.9531C204.051 23.6927 203.924 23.4479 203.742 23.2188C203.564 22.9896 203.325 22.8047 203.023 22.6641C202.721 22.5234 202.351 22.4531 201.913 22.4531C201.325 22.4531 200.83 22.5807 200.429 22.8359C200.033 23.0911 199.838 23.4219 199.843 23.8281C199.838 24.1771 199.966 24.4609 200.226 24.6797C200.492 24.8984 200.929 25.0781 201.538 25.2188L203.585 25.6562C204.721 25.901 205.564 26.2891 206.117 26.8203C206.674 27.3516 206.955 28.0469 206.96 28.9062C206.955 29.6615 206.734 30.3281 206.296 30.9062C205.864 31.4792 205.262 31.9271 204.492 32.25C203.721 32.5729 202.835 32.7344 201.835 32.7344C200.367 32.7344 199.184 32.4271 198.288 31.8125C197.393 31.1927 196.859 30.3307 196.687 29.2266L199.445 28.9609C199.57 29.5026 199.835 29.9115 200.242 30.1875C200.648 30.4635 201.176 30.6016 201.827 30.6016C202.499 30.6016 203.038 30.4635 203.445 30.1875C203.856 29.9115 204.062 29.5703 204.062 29.1641C204.062 28.8203 203.929 28.5365 203.663 28.3125C203.403 28.0885 202.997 27.9167 202.445 27.7969L200.398 27.3672C199.247 27.1276 198.395 26.724 197.843 26.1562C197.291 25.5833 197.018 24.8594 197.023 23.9844C197.018 23.2448 197.218 22.6042 197.624 22.0625C198.036 21.5156 198.606 21.0937 199.335 20.7969C200.07 20.4948 200.916 20.3438 201.874 20.3438C203.281 20.3438 204.387 20.6432 205.195 21.2422C206.007 21.8411 206.51 22.651 206.702 23.6719Z" fill="#FFA01C"/>
<defs>
<radialGradient id="paint0_radial_37_141" cx="0" cy="0" r="1" gradientUnits="userSpaceOnUse" gradientTransform="translate(4 4) rotate(90) scale(32)">
<stop stop-color="white"/>
<stop offset="1" stop-color="white" stop-opacity="0"/>
</radialGradient>
<clipPath id="clip0_37_141">
<rect width="48" height="48" rx="10" fill="white"/>
</clipPath>
</defs>
</svg>
