<svg width="230" height="48" viewBox="0 0 230 48" fill="none" xmlns="http://www.w3.org/2000/svg">
<g clip-path="url(#clip0_301_119)">
<rect width="48" height="48" rx="10" fill="#FF6B08" fill-opacity="0.965"/>
<g opacity="0.4">
<rect x="-28" y="-28" width="64" height="64" rx="10" fill="url(#paint0_radial_301_119)"/>
</g>
<path opacity="0.4" d="M28 16C28.93 16 29.395 16 29.7765 16.1022C30.8117 16.3796 31.6204 17.1883 31.8978 18.2235C32 18.605 32 19.07 32 20V29.2C32 30.8802 32 31.7202 31.673 32.362C31.3854 32.9265 30.9265 33.3854 30.362 33.673C29.7202 34 28.8802 34 27.2 34H20.8C19.1198 34 18.2798 34 17.638 33.673C17.0735 33.3854 16.6146 32.9265 16.327 32.362C16 31.7202 16 30.8802 16 29.2V20C16 19.07 16 18.605 16.1022 18.2235C16.3796 17.1883 17.1883 16.3796 18.2235 16.1022C18.605 16 19.07 16 20 16" stroke="white" stroke-width="2" stroke-linecap="round" stroke-linejoin="round"/>
<path d="M24 23V29M24 29L21 26M24 29L27 26M21.6 18H26.4C26.9601 18 27.2401 18 27.454 17.891C27.6422 17.7951 27.7951 17.6422 27.891 17.454C28 17.2401 28 16.9601 28 16.4V15.6C28 15.0399 28 14.7599 27.891 14.546C27.7951 14.3578 27.6422 14.2049 27.454 14.109C27.2401 14 26.9601 14 26.4 14H21.6C21.0399 14 20.7599 14 20.546 14.109C20.3578 14.2049 20.2049 14.3578 20.109 14.546C20 14.7599 20 15.0399 20 15.6V16.4C20 16.9601 20 17.2401 20.109 17.454C20.2049 17.6422 20.3578 17.7951 20.546 17.891C20.7599 18 21.0399 18 21.6 18Z" stroke="white" stroke-width="2" stroke-linecap="round" stroke-linejoin="round"/>
</g>
<path d="M69.5781 32.5V16.5H79.9844V18.9297H72.4766V23.2734H79.4453V25.7031H72.4766V30.0703H80.0469V32.5H69.5781ZM85.1189 20.5L87.5408 24.9297L90.0017 20.5H92.9939L89.3767 26.5L93.0564 32.5H90.0798L87.5408 28.1797L85.0252 32.5H82.0252L85.6814 26.5L82.1189 20.5H85.1189ZM95.1714 37V20.5H97.9527V22.4844H98.1167C98.2626 22.1927 98.4683 21.8828 98.7339 21.5547C98.9995 21.2214 99.3589 20.9375 99.812 20.7031C100.265 20.4635 100.843 20.3438 101.546 20.3438C102.473 20.3438 103.309 20.5807 104.054 21.0547C104.804 21.5234 105.398 22.2187 105.835 23.1406C106.278 24.0573 106.5 25.1823 106.5 26.5156C106.5 27.8333 106.283 28.9531 105.851 29.875C105.419 30.7969 104.83 31.5 104.085 31.9844C103.341 32.4688 102.497 32.7109 101.554 32.7109C100.867 32.7109 100.296 32.5964 99.8433 32.3672C99.3902 32.138 99.0256 31.862 98.7495 31.5391C98.4787 31.2109 98.2678 30.901 98.1167 30.6094H97.9995V37H95.1714ZM97.9448 26.5C97.9448 27.276 98.0542 27.9557 98.273 28.5391C98.4969 29.1224 98.8172 29.5781 99.2339 29.9062C99.6558 30.2292 100.166 30.3906 100.765 30.3906C101.39 30.3906 101.914 30.224 102.335 29.8906C102.757 29.5521 103.075 29.0911 103.289 28.5078C103.507 27.9193 103.617 27.25 103.617 26.5C103.617 25.7552 103.51 25.0937 103.296 24.5156C103.083 23.9375 102.765 23.4844 102.343 23.1562C101.921 22.8281 101.395 22.6641 100.765 22.6641C100.161 22.6641 99.648 22.8229 99.2261 23.1406C98.8042 23.4583 98.4839 23.9036 98.2652 24.4766C98.0516 25.0495 97.9448 25.724 97.9448 26.5ZM114.146 32.7344C112.974 32.7344 111.958 32.4766 111.099 31.9609C110.24 31.4453 109.573 30.724 109.099 29.7969C108.63 28.8698 108.396 27.7865 108.396 26.5469C108.396 25.3073 108.63 24.2214 109.099 23.2891C109.573 22.3568 110.24 21.6328 111.099 21.1172C111.958 20.6016 112.974 20.3438 114.146 20.3438C115.318 20.3438 116.333 20.6016 117.193 21.1172C118.052 21.6328 118.716 22.3568 119.185 23.2891C119.659 24.2214 119.896 25.3073 119.896 26.5469C119.896 27.7865 119.659 28.8698 119.185 29.7969C118.716 30.724 118.052 31.4453 117.193 31.9609C116.333 32.4766 115.318 32.7344 114.146 32.7344ZM114.161 30.4687C114.797 30.4687 115.328 30.2943 115.755 29.9453C116.182 29.5911 116.5 29.1172 116.708 28.5234C116.922 27.9297 117.029 27.2682 117.029 26.5391C117.029 25.8047 116.922 25.1406 116.708 24.5469C116.5 23.9479 116.182 23.4714 115.755 23.1172C115.328 22.763 114.797 22.5859 114.161 22.5859C113.51 22.5859 112.969 22.763 112.536 23.1172C112.109 23.4714 111.789 23.9479 111.575 24.5469C111.367 25.1406 111.263 25.8047 111.263 26.5391C111.263 27.2682 111.367 27.9297 111.575 28.5234C111.789 29.1172 112.109 29.5911 112.536 29.9453C112.969 30.2943 113.51 30.4687 114.161 30.4687ZM141.554 21.8984H138.632C138.548 21.4193 138.395 20.9948 138.171 20.625C137.947 20.25 137.668 19.9323 137.335 19.6719C137.001 19.4115 136.621 19.2161 136.194 19.0859C135.772 18.9505 135.317 18.8828 134.827 18.8828C133.957 18.8828 133.186 19.1016 132.514 19.5391C131.843 19.9714 131.317 20.6068 130.936 21.4453C130.556 22.2786 130.366 23.2969 130.366 24.5C130.366 25.724 130.556 26.7552 130.936 27.5937C131.322 28.4271 131.848 29.0573 132.514 29.4844C133.186 29.9062 133.955 30.1172 134.819 30.1172C135.298 30.1172 135.746 30.0547 136.163 29.9297C136.585 29.7995 136.962 29.6094 137.296 29.3594C137.634 29.1094 137.918 28.8021 138.147 28.4375C138.382 28.0729 138.543 27.6562 138.632 27.1875L141.554 27.2031C141.444 27.9635 141.207 28.6771 140.843 29.3438C140.483 30.0104 140.012 30.599 139.429 31.1094C138.845 31.6146 138.163 32.0104 137.382 32.2969C136.6 32.5781 135.733 32.7187 134.78 32.7187C133.374 32.7187 132.119 32.3932 131.014 31.7422C129.91 31.0911 129.04 30.151 128.405 28.9219C127.77 27.6927 127.452 26.2187 127.452 24.5C127.452 22.776 127.772 21.3021 128.413 20.0781C129.054 18.849 129.926 17.9089 131.03 17.2578C132.134 16.6068 133.384 16.2812 134.78 16.2812C135.671 16.2812 136.499 16.4062 137.264 16.6562C138.03 16.9062 138.712 17.2734 139.311 17.7578C139.91 18.237 140.402 18.8255 140.788 19.5234C141.179 20.2161 141.434 21.0078 141.554 21.8984ZM146.901 16.5V32.5H144.073V16.5H146.901ZM149.799 32.5V20.5H152.627V32.5H149.799ZM151.221 18.7969C150.773 18.7969 150.388 18.6484 150.065 18.3516C149.742 18.0495 149.58 17.6875 149.58 17.2656C149.58 16.8385 149.742 16.4766 150.065 16.1797C150.388 15.8776 150.773 15.7266 151.221 15.7266C151.674 15.7266 152.06 15.8776 152.377 16.1797C152.7 16.4766 152.862 16.8385 152.862 17.2656C152.862 17.6875 152.7 18.0495 152.377 18.3516C152.06 18.6484 151.674 18.7969 151.221 18.7969ZM155.525 37V20.5H158.307V22.4844H158.471C158.617 22.1927 158.822 21.8828 159.088 21.5547C159.354 21.2214 159.713 20.9375 160.166 20.7031C160.619 20.4635 161.197 20.3438 161.9 20.3438C162.828 20.3438 163.663 20.5807 164.408 21.0547C165.158 21.5234 165.752 22.2187 166.19 23.1406C166.632 24.0573 166.854 25.1823 166.854 26.5156C166.854 27.8333 166.637 28.9531 166.205 29.875C165.773 30.7969 165.184 31.5 164.44 31.9844C163.695 32.4688 162.851 32.7109 161.908 32.7109C161.221 32.7109 160.65 32.5964 160.197 32.3672C159.744 32.138 159.38 31.862 159.104 31.5391C158.833 31.2109 158.622 30.901 158.471 30.6094H158.354V37H155.525ZM158.299 26.5C158.299 27.276 158.408 27.9557 158.627 28.5391C158.851 29.1224 159.171 29.5781 159.588 29.9062C160.01 30.2292 160.52 30.3906 161.119 30.3906C161.744 30.3906 162.268 30.224 162.69 29.8906C163.111 29.5521 163.429 29.0911 163.643 28.5078C163.861 27.9193 163.971 27.25 163.971 26.5C163.971 25.7552 163.864 25.0937 163.65 24.5156C163.437 23.9375 163.119 23.4844 162.697 23.1562C162.275 22.8281 161.749 22.6641 161.119 22.6641C160.515 22.6641 160.002 22.8229 159.58 23.1406C159.158 23.4583 158.838 23.9036 158.619 24.4766C158.406 25.0495 158.299 25.724 158.299 26.5ZM169.39 32.5V16.5H172.219V22.4844H172.336C172.482 22.1927 172.687 21.8828 172.953 21.5547C173.219 21.2214 173.578 20.9375 174.031 20.7031C174.484 20.4635 175.062 20.3438 175.765 20.3438C176.693 20.3438 177.528 20.5807 178.273 21.0547C179.023 21.5234 179.617 22.2187 180.055 23.1406C180.497 24.0573 180.719 25.1823 180.719 26.5156C180.719 27.8333 180.502 28.9531 180.07 29.875C179.638 30.7969 179.049 31.5 178.305 31.9844C177.56 32.4688 176.716 32.7109 175.773 32.7109C175.086 32.7109 174.515 32.5964 174.062 32.3672C173.609 32.138 173.245 31.862 172.969 31.5391C172.698 31.2109 172.487 30.901 172.336 30.6094H172.172V32.5H169.39ZM172.164 26.5C172.164 27.276 172.273 27.9557 172.492 28.5391C172.716 29.1224 173.036 29.5781 173.453 29.9062C173.875 30.2292 174.385 30.3906 174.984 30.3906C175.609 30.3906 176.133 30.224 176.555 29.8906C176.976 29.5521 177.294 29.0911 177.508 28.5078C177.726 27.9193 177.836 27.25 177.836 26.5C177.836 25.7552 177.729 25.0937 177.515 24.5156C177.302 23.9375 176.984 23.4844 176.562 23.1562C176.14 22.8281 175.614 22.6641 174.984 22.6641C174.38 22.6641 173.867 22.8229 173.445 23.1406C173.023 23.4583 172.703 23.9036 172.484 24.4766C172.271 25.0495 172.164 25.724 172.164 26.5ZM188.347 32.7344C187.175 32.7344 186.16 32.4766 185.3 31.9609C184.441 31.4453 183.774 30.724 183.3 29.7969C182.832 28.8698 182.597 27.7865 182.597 26.5469C182.597 25.3073 182.832 24.2214 183.3 23.2891C183.774 22.3568 184.441 21.6328 185.3 21.1172C186.16 20.6016 187.175 20.3438 188.347 20.3438C189.519 20.3438 190.535 20.6016 191.394 21.1172C192.254 21.6328 192.918 22.3568 193.386 23.2891C193.86 24.2214 194.097 25.3073 194.097 26.5469C194.097 27.7865 193.86 28.8698 193.386 29.7969C192.918 30.724 192.254 31.4453 191.394 31.9609C190.535 32.4766 189.519 32.7344 188.347 32.7344ZM188.363 30.4687C188.998 30.4687 189.53 30.2943 189.957 29.9453C190.384 29.5911 190.701 29.1172 190.91 28.5234C191.123 27.9297 191.23 27.2682 191.23 26.5391C191.23 25.8047 191.123 25.1406 190.91 24.5469C190.701 23.9479 190.384 23.4714 189.957 23.1172C189.53 22.763 188.998 22.5859 188.363 22.5859C187.712 22.5859 187.17 22.763 186.738 23.1172C186.311 23.4714 185.99 23.9479 185.777 24.5469C185.569 25.1406 185.464 25.8047 185.464 26.5391C185.464 27.2682 185.569 27.9297 185.777 28.5234C185.99 29.1172 186.311 29.5911 186.738 29.9453C187.17 30.2943 187.712 30.4687 188.363 30.4687ZM199.941 32.7422C199.18 32.7422 198.495 32.6068 197.886 32.3359C197.282 32.0599 196.803 31.6536 196.449 31.1172C196.1 30.5807 195.925 29.9193 195.925 29.1328C195.925 28.4557 196.05 27.8958 196.3 27.4531C196.55 27.0104 196.891 26.6562 197.324 26.3906C197.756 26.125 198.243 25.9245 198.785 25.7891C199.331 25.6484 199.897 25.5469 200.48 25.4844C201.183 25.4115 201.753 25.3464 202.191 25.2891C202.628 25.2266 202.946 25.1328 203.144 25.0078C203.347 24.8776 203.449 24.6771 203.449 24.4062V24.3594C203.449 23.7708 203.274 23.3151 202.925 22.9922C202.576 22.6693 202.074 22.5078 201.417 22.5078C200.725 22.5078 200.175 22.6589 199.769 22.9609C199.368 23.263 199.097 23.6198 198.956 24.0312L196.316 23.6562C196.524 22.9271 196.868 22.3177 197.347 21.8281C197.826 21.3333 198.412 20.9635 199.105 20.7187C199.798 20.4688 200.563 20.3438 201.402 20.3438C201.98 20.3438 202.555 20.4115 203.128 20.5469C203.701 20.6823 204.225 20.9062 204.699 21.2187C205.173 21.526 205.553 21.9453 205.839 22.4766C206.131 23.0078 206.277 23.6719 206.277 24.4687V32.5H203.558V30.8516H203.464C203.292 31.1849 203.05 31.4974 202.738 31.7891C202.43 32.0755 202.042 32.3073 201.574 32.4844C201.11 32.6563 200.566 32.7422 199.941 32.7422ZM200.675 30.6641C201.243 30.6641 201.735 30.5521 202.152 30.3281C202.568 30.099 202.889 29.7969 203.113 29.4219C203.342 29.0469 203.456 28.638 203.456 28.1953V26.7812C203.368 26.8542 203.217 26.9219 203.003 26.9844C202.795 27.0469 202.561 27.1016 202.3 27.1484C202.04 27.1953 201.782 27.237 201.527 27.2734C201.272 27.3099 201.05 27.3411 200.863 27.3672C200.441 27.4245 200.063 27.5182 199.73 27.6484C199.397 27.7786 199.133 27.9609 198.941 28.1953C198.748 28.4245 198.652 28.7214 198.652 29.0859C198.652 29.6068 198.842 30 199.222 30.2656C199.602 30.5312 200.087 30.6641 200.675 30.6641ZM209.11 32.5V20.5H211.853V22.5H211.978C212.196 21.8073 212.571 21.2734 213.103 20.8984C213.639 20.5182 214.251 20.3281 214.939 20.3281C215.095 20.3281 215.269 20.3359 215.462 20.3516C215.66 20.362 215.824 20.3802 215.954 20.4062V23.0078C215.834 22.9661 215.644 22.9297 215.384 22.8984C215.129 22.862 214.881 22.8437 214.642 22.8437C214.126 22.8437 213.663 22.9557 213.251 23.1797C212.845 23.3984 212.525 23.7031 212.29 24.0937C212.056 24.4844 211.939 24.9349 211.939 25.4453V32.5H209.11ZM221.782 32.7109C220.839 32.7109 219.996 32.4688 219.251 31.9844C218.506 31.5 217.918 30.7969 217.485 29.875C217.053 28.9531 216.837 27.8333 216.837 26.5156C216.837 25.1823 217.056 24.0573 217.493 23.1406C217.936 22.2187 218.532 21.5234 219.282 21.0547C220.032 20.5807 220.868 20.3438 221.79 20.3438C222.493 20.3438 223.071 20.4635 223.524 20.7031C223.977 20.9375 224.337 21.2214 224.602 21.5547C224.868 21.8828 225.074 22.1927 225.22 22.4844H225.337V16.5H228.173V32.5H225.391V30.6094H225.22C225.074 30.901 224.863 31.2109 224.587 31.5391C224.311 31.862 223.946 32.138 223.493 32.3672C223.04 32.5964 222.47 32.7109 221.782 32.7109ZM222.571 30.3906C223.17 30.3906 223.681 30.2292 224.102 29.9062C224.524 29.5781 224.845 29.1224 225.063 28.5391C225.282 27.9557 225.391 27.276 225.391 26.5C225.391 25.724 225.282 25.0495 225.063 24.4766C224.85 23.9036 224.532 23.4583 224.11 23.1406C223.694 22.8229 223.181 22.6641 222.571 22.6641C221.941 22.6641 221.415 22.8281 220.993 23.1562C220.571 23.4844 220.253 23.9375 220.04 24.5156C219.826 25.0937 219.72 25.7552 219.72 26.5C219.72 27.25 219.826 27.9193 220.04 28.5078C220.259 29.0911 220.579 29.5521 221.001 29.8906C221.428 30.224 221.951 30.3906 222.571 30.3906Z" fill="#FF6B08" fill-opacity="0.965"/>
<defs>
<radialGradient id="paint0_radial_301_119" cx="0" cy="0" r="1" gradientUnits="userSpaceOnUse" gradientTransform="translate(4 4) rotate(90) scale(32)">
<stop stop-color="white"/>
<stop offset="1" stop-color="white" stop-opacity="0"/>
</radialGradient>
<clipPath id="clip0_301_119">
<rect width="48" height="48" rx="10" fill="white"/>
</clipPath>
</defs>
</svg>
