<svg width="177" height="48" viewBox="0 0 177 48" fill="none" xmlns="http://www.w3.org/2000/svg">
<g clip-path="url(#clip0_105_128)">
<rect width="48" height="48" rx="10" fill="#0E9888"/>
<g opacity="0.4">
<rect x="-28" y="-28" width="64" height="64" rx="10" fill="url(#paint0_radial_105_128)"/>
</g>
<path opacity="0.12" d="M14 23.8C14 22.1198 14 21.2798 14.327 20.638C14.6146 20.0735 15.0735 19.6146 15.638 19.327C16.2798 19 17.1198 19 18.8 19H29.2C30.8802 19 31.7202 19 32.362 19.327C32.9265 19.6146 33.3854 20.0735 33.673 20.638C34 21.2798 34 22.1198 34 23.8V26C34 26.93 34 27.395 33.8978 27.7765C33.6204 28.8117 32.8117 29.6204 31.7765 29.8978C31.395 30 30.93 30 30 30V29.2C30 28.0799 30 27.5198 29.782 27.092C29.5903 26.7157 29.2843 26.4097 28.908 26.218C28.4802 26 27.9201 26 26.8 26H21.2C20.0799 26 19.5198 26 19.092 26.218C18.7157 26.4097 18.4097 26.7157 18.218 27.092C18 27.5198 18 28.0799 18 29.2V30C17.07 30 16.605 30 16.2235 29.8978C15.1883 29.6204 14.3796 28.8117 14.1022 27.7765C14 27.395 14 26.93 14 26V23.8Z" fill="white"/>
<path d="M30 19V17.2C30 16.0799 30 15.5198 29.782 15.092C29.5903 14.7157 29.2843 14.4097 28.908 14.218C28.4802 14 27.9201 14 26.8 14H21.2C20.0799 14 19.5198 14 19.092 14.218C18.7157 14.4097 18.4097 14.7157 18.218 15.092C18 15.5198 18 16.0799 18 17.2V19M18 30C17.07 30 16.605 30 16.2235 29.8978C15.1883 29.6204 14.3796 28.8117 14.1022 27.7765C14 27.395 14 26.93 14 26V23.8C14 22.1198 14 21.2798 14.327 20.638C14.6146 20.0735 15.0735 19.6146 15.638 19.327C16.2798 19 17.1198 19 18.8 19H29.2C30.8802 19 31.7202 19 32.362 19.327C32.9265 19.6146 33.3854 20.0735 33.673 20.638C34 21.2798 34 22.1198 34 23.8V26C34 26.93 34 27.395 33.8978 27.7765C33.6204 28.8117 32.8117 29.6204 31.7765 29.8978C31.395 30 30.93 30 30 30M27 22.5H30M21.2 34H26.8C27.9201 34 28.4802 34 28.908 33.782C29.2843 33.5903 29.5903 33.2843 29.782 32.908C30 32.4802 30 31.9201 30 30.8V29.2C30 28.0799 30 27.5198 29.782 27.092C29.5903 26.7157 29.2843 26.4097 28.908 26.218C28.4802 26 27.9201 26 26.8 26H21.2C20.0799 26 19.5198 26 19.092 26.218C18.7157 26.4097 18.4097 26.7157 18.218 27.092C18 27.5198 18 28.0799 18 29.2V30.8C18 31.9201 18 32.4802 18.218 32.908C18.4097 33.2843 18.7157 33.5903 19.092 33.782C19.5198 34 20.0799 34 21.2 34Z" stroke="white" stroke-width="2" stroke-linecap="round" stroke-linejoin="round"/>
</g>
<path d="M69.5781 32.5V16.5H79.9844V18.9297H72.4766V23.2734H79.4453V25.7031H72.4766V30.0703H80.0469V32.5H69.5781ZM85.1189 20.5L87.5408 24.9297L90.0017 20.5H92.9939L89.3767 26.5L93.0564 32.5H90.0798L87.5408 28.1797L85.0252 32.5H82.0252L85.6814 26.5L82.1189 20.5H85.1189ZM95.1714 37V20.5H97.9527V22.4844H98.1167C98.2626 22.1927 98.4683 21.8828 98.7339 21.5547C98.9995 21.2214 99.3589 20.9375 99.812 20.7031C100.265 20.4635 100.843 20.3438 101.546 20.3438C102.473 20.3438 103.309 20.5807 104.054 21.0547C104.804 21.5234 105.398 22.2187 105.835 23.1406C106.278 24.0573 106.5 25.1823 106.5 26.5156C106.5 27.8333 106.283 28.9531 105.851 29.875C105.419 30.7969 104.83 31.5 104.085 31.9844C103.341 32.4688 102.497 32.7109 101.554 32.7109C100.867 32.7109 100.296 32.5964 99.8433 32.3672C99.3902 32.138 99.0256 31.862 98.7495 31.5391C98.4787 31.2109 98.2678 30.901 98.1167 30.6094H97.9995V37H95.1714ZM97.9448 26.5C97.9448 27.276 98.0542 27.9557 98.273 28.5391C98.4969 29.1224 98.8172 29.5781 99.2339 29.9062C99.6558 30.2292 100.166 30.3906 100.765 30.3906C101.39 30.3906 101.914 30.224 102.335 29.8906C102.757 29.5521 103.075 29.0911 103.289 28.5078C103.507 27.9193 103.617 27.25 103.617 26.5C103.617 25.7552 103.51 25.0937 103.296 24.5156C103.083 23.9375 102.765 23.4844 102.343 23.1562C101.921 22.8281 101.395 22.6641 100.765 22.6641C100.161 22.6641 99.648 22.8229 99.2261 23.1406C98.8042 23.4583 98.4839 23.9036 98.2652 24.4766C98.0516 25.0495 97.9448 25.724 97.9448 26.5ZM114.146 32.7344C112.974 32.7344 111.958 32.4766 111.099 31.9609C110.24 31.4453 109.573 30.724 109.099 29.7969C108.63 28.8698 108.396 27.7865 108.396 26.5469C108.396 25.3073 108.63 24.2214 109.099 23.2891C109.573 22.3568 110.24 21.6328 111.099 21.1172C111.958 20.6016 112.974 20.3438 114.146 20.3438C115.318 20.3438 116.333 20.6016 117.193 21.1172C118.052 21.6328 118.716 22.3568 119.185 23.2891C119.659 24.2214 119.896 25.3073 119.896 26.5469C119.896 27.7865 119.659 28.8698 119.185 29.7969C118.716 30.724 118.052 31.4453 117.193 31.9609C116.333 32.4766 115.318 32.7344 114.146 32.7344ZM114.161 30.4687C114.797 30.4687 115.328 30.2943 115.755 29.9453C116.182 29.5911 116.5 29.1172 116.708 28.5234C116.922 27.9297 117.029 27.2682 117.029 26.5391C117.029 25.8047 116.922 25.1406 116.708 24.5469C116.5 23.9479 116.182 23.4714 115.755 23.1172C115.328 22.763 114.797 22.5859 114.161 22.5859C113.51 22.5859 112.969 22.763 112.536 23.1172C112.109 23.4714 111.789 23.9479 111.575 24.5469C111.367 25.1406 111.263 25.8047 111.263 26.5391C111.263 27.2682 111.367 27.9297 111.575 28.5234C111.789 29.1172 112.109 29.5911 112.536 29.9453C112.969 30.2943 113.51 30.4687 114.161 30.4687ZM127.858 32.5V16.5H133.858C135.087 16.5 136.119 16.7292 136.952 17.1875C137.79 17.6458 138.423 18.276 138.85 19.0781C139.283 19.875 139.499 20.7812 139.499 21.7969C139.499 22.8229 139.283 23.7344 138.85 24.5313C138.418 25.3281 137.78 25.9557 136.936 26.4141C136.093 26.8672 135.054 27.0937 133.819 27.0937H129.843V24.7109H133.429C134.147 24.7109 134.736 24.5859 135.194 24.3359C135.652 24.0859 135.991 23.7422 136.21 23.3047C136.434 22.8672 136.546 22.3646 136.546 21.7969C136.546 21.2292 136.434 20.7292 136.21 20.2969C135.991 19.8646 135.65 19.5286 135.186 19.2891C134.728 19.0443 134.137 18.9219 133.413 18.9219H130.757V32.5H127.858ZM141.881 32.5V20.5H144.624V22.5H144.749C144.967 21.8073 145.342 21.2734 145.874 20.8984C146.41 20.5182 147.022 20.3281 147.71 20.3281C147.866 20.3281 148.04 20.3359 148.233 20.3516C148.431 20.362 148.595 20.3802 148.725 20.4062V23.0078C148.605 22.9661 148.415 22.9297 148.155 22.8984C147.9 22.862 147.652 22.8437 147.413 22.8437C146.897 22.8437 146.433 22.9557 146.022 23.1797C145.616 23.3984 145.295 23.7031 145.061 24.0937C144.827 24.4844 144.71 24.9349 144.71 25.4453V32.5H141.881ZM150.594 32.5V20.5H153.422V32.5H150.594ZM152.016 18.7969C151.568 18.7969 151.183 18.6484 150.86 18.3516C150.537 18.0495 150.375 17.6875 150.375 17.2656C150.375 16.8385 150.537 16.4766 150.86 16.1797C151.183 15.8776 151.568 15.7266 152.016 15.7266C152.469 15.7266 152.854 15.8776 153.172 16.1797C153.495 16.4766 153.657 16.8385 153.657 17.2656C153.657 17.6875 153.495 18.0495 153.172 18.3516C152.854 18.6484 152.469 18.7969 152.016 18.7969ZM159.149 25.4687V32.5H156.32V20.5H159.024V22.5391H159.164C159.44 21.8672 159.88 21.3333 160.484 20.9375C161.094 20.5417 161.846 20.3438 162.742 20.3438C163.57 20.3438 164.292 20.5208 164.906 20.875C165.526 21.2292 166.005 21.7422 166.344 22.4141C166.688 23.0859 166.857 23.901 166.852 24.8594V32.5H164.024V25.2969C164.024 24.4948 163.815 23.8672 163.399 23.4141C162.987 22.9609 162.417 22.7344 161.688 22.7344C161.193 22.7344 160.753 22.8437 160.367 23.0625C159.987 23.276 159.688 23.5859 159.469 23.9922C159.255 24.3984 159.149 24.8906 159.149 25.4687ZM175.709 20.5V22.6875H168.81V20.5H175.709ZM170.514 17.625H173.342V28.8906C173.342 29.2708 173.399 29.5625 173.514 29.7656C173.633 29.9635 173.79 30.099 173.982 30.1719C174.175 30.2448 174.389 30.2812 174.623 30.2812C174.8 30.2812 174.961 30.2682 175.107 30.2422C175.258 30.2161 175.373 30.1927 175.451 30.1719L175.928 32.3828C175.777 32.4349 175.56 32.4922 175.279 32.5547C175.003 32.6172 174.665 32.6536 174.264 32.6641C173.555 32.6849 172.917 32.5781 172.349 32.3437C171.782 32.1042 171.331 31.7344 170.998 31.2344C170.67 30.7344 170.508 30.1094 170.514 29.3594V17.625Z" fill="#0E9888"/>
<defs>
<radialGradient id="paint0_radial_105_128" cx="0" cy="0" r="1" gradientUnits="userSpaceOnUse" gradientTransform="translate(4 4) rotate(90) scale(32)">
<stop stop-color="white"/>
<stop offset="1" stop-color="white" stop-opacity="0"/>
</radialGradient>
<clipPath id="clip0_105_128">
<rect width="48" height="48" rx="10" fill="white"/>
</clipPath>
</defs>
</svg>
