<svg width="209" height="48" viewBox="0 0 209 48" fill="none" xmlns="http://www.w3.org/2000/svg">
<g clip-path="url(#clip0_107_72)">
<rect width="48" height="48" rx="10" fill="#12A594"/>
<g opacity="0.4">
<rect x="-28" y="-28" width="64" height="64" rx="10" fill="url(#paint0_radial_107_72)"/>
</g>
<path opacity="0.4" d="M19 23C18.07 23 17.605 23 17.2235 23.1022C16.1883 23.3796 15.3796 24.1883 15.1022 25.2235C15 25.605 15 26.07 15 27V28.2C15 29.8802 15 30.7202 15.327 31.362C15.6146 31.9265 16.0735 32.3854 16.638 32.673C17.2798 33 18.1198 33 19.8 33H28.2C29.8802 33 30.7202 33 31.362 32.673C31.9265 32.3854 32.3854 31.9265 32.673 31.362C33 30.7202 33 29.8802 33 28.2V27C33 26.07 33 25.605 32.8978 25.2235C32.6204 24.1883 31.8117 23.3796 30.7765 23.1022C30.395 23 29.93 23 29 23" stroke="white" stroke-width="2" stroke-linecap="round" stroke-linejoin="round"/>
<path d="M28 19L24 15M24 15L20 19M24 15V27" stroke="white" stroke-width="2" stroke-linecap="round" stroke-linejoin="round"/>
</g>
<path d="M69.5781 32.5V16.5H79.9844V18.9297H72.4766V23.2734H79.4453V25.7031H72.4766V30.0703H80.0469V32.5H69.5781ZM85.1189 20.5L87.5408 24.9297L90.0017 20.5H92.9939L89.3767 26.5L93.0564 32.5H90.0798L87.5408 28.1797L85.0252 32.5H82.0252L85.6814 26.5L82.1189 20.5H85.1189ZM95.1714 37V20.5H97.9527V22.4844H98.1167C98.2626 22.1927 98.4683 21.8828 98.7339 21.5547C98.9995 21.2214 99.3589 20.9375 99.812 20.7031C100.265 20.4635 100.843 20.3438 101.546 20.3438C102.473 20.3438 103.309 20.5807 104.054 21.0547C104.804 21.5234 105.398 22.2187 105.835 23.1406C106.278 24.0573 106.5 25.1823 106.5 26.5156C106.5 27.8333 106.283 28.9531 105.851 29.875C105.419 30.7969 104.83 31.5 104.085 31.9844C103.341 32.4688 102.497 32.7109 101.554 32.7109C100.867 32.7109 100.296 32.5964 99.8433 32.3672C99.3902 32.138 99.0256 31.862 98.7495 31.5391C98.4787 31.2109 98.2678 30.901 98.1167 30.6094H97.9995V37H95.1714ZM97.9448 26.5C97.9448 27.276 98.0542 27.9557 98.273 28.5391C98.4969 29.1224 98.8172 29.5781 99.2339 29.9062C99.6558 30.2292 100.166 30.3906 100.765 30.3906C101.39 30.3906 101.914 30.224 102.335 29.8906C102.757 29.5521 103.075 29.0911 103.289 28.5078C103.507 27.9193 103.617 27.25 103.617 26.5C103.617 25.7552 103.51 25.0937 103.296 24.5156C103.083 23.9375 102.765 23.4844 102.343 23.1562C101.921 22.8281 101.395 22.6641 100.765 22.6641C100.161 22.6641 99.648 22.8229 99.2261 23.1406C98.8042 23.4583 98.4839 23.9036 98.2652 24.4766C98.0516 25.0495 97.9448 25.724 97.9448 26.5ZM114.146 32.7344C112.974 32.7344 111.958 32.4766 111.099 31.9609C110.24 31.4453 109.573 30.724 109.099 29.7969C108.63 28.8698 108.396 27.7865 108.396 26.5469C108.396 25.3073 108.63 24.2214 109.099 23.2891C109.573 22.3568 110.24 21.6328 111.099 21.1172C111.958 20.6016 112.974 20.3438 114.146 20.3438C115.318 20.3438 116.333 20.6016 117.193 21.1172C118.052 21.6328 118.716 22.3568 119.185 23.2891C119.659 24.2214 119.896 25.3073 119.896 26.5469C119.896 27.7865 119.659 28.8698 119.185 29.7969C118.716 30.724 118.052 31.4453 117.193 31.9609C116.333 32.4766 115.318 32.7344 114.146 32.7344ZM114.161 30.4687C114.797 30.4687 115.328 30.2943 115.755 29.9453C116.182 29.5911 116.5 29.1172 116.708 28.5234C116.922 27.9297 117.029 27.2682 117.029 26.5391C117.029 25.8047 116.922 25.1406 116.708 24.5469C116.5 23.9479 116.182 23.4714 115.755 23.1172C115.328 22.763 114.797 22.5859 114.161 22.5859C113.51 22.5859 112.969 22.763 112.536 23.1172C112.109 23.4714 111.789 23.9479 111.575 24.5469C111.367 25.1406 111.263 25.8047 111.263 26.5391C111.263 27.2682 111.367 27.9297 111.575 28.5234C111.789 29.1172 112.109 29.5911 112.536 29.9453C112.969 30.2943 113.51 30.4687 114.161 30.4687ZM136.554 20.8984C136.481 20.2161 136.173 19.6849 135.632 19.3047C135.095 18.9245 134.397 18.7344 133.538 18.7344C132.934 18.7344 132.415 18.8255 131.983 19.0078C131.551 19.1901 131.22 19.4375 130.991 19.75C130.762 20.0625 130.645 20.4193 130.639 20.8203C130.639 21.1536 130.715 21.4427 130.866 21.6875C131.022 21.9323 131.233 22.1406 131.499 22.3125C131.764 22.4792 132.059 22.6198 132.382 22.7344C132.705 22.849 133.03 22.9453 133.358 23.0234L134.858 23.3984C135.462 23.5391 136.043 23.7292 136.6 23.9687C137.163 24.2083 137.665 24.5104 138.108 24.875C138.556 25.2396 138.91 25.6797 139.171 26.1953C139.431 26.7109 139.561 27.3151 139.561 28.0078C139.561 28.9453 139.322 29.7708 138.843 30.4844C138.363 31.1927 137.671 31.7474 136.764 32.1484C135.863 32.5443 134.772 32.7422 133.491 32.7422C132.246 32.7422 131.165 32.5495 130.249 32.1641C129.337 31.7786 128.624 31.2161 128.108 30.4766C127.598 29.737 127.322 28.8359 127.28 27.7734H130.132C130.173 28.3307 130.345 28.7943 130.647 29.1641C130.949 29.5339 131.343 29.8099 131.827 29.9922C132.317 30.1745 132.863 30.2656 133.468 30.2656C134.098 30.2656 134.65 30.1719 135.124 29.9844C135.603 29.7917 135.978 29.526 136.249 29.1875C136.52 28.8437 136.658 28.4427 136.663 27.9844C136.658 27.5677 136.535 27.224 136.296 26.9531C136.056 26.6771 135.72 26.4479 135.288 26.2656C134.861 26.0781 134.361 25.9115 133.788 25.7656L131.968 25.2969C130.65 24.9583 129.608 24.4453 128.843 23.7578C128.082 23.0651 127.702 22.1458 127.702 21C127.702 20.0573 127.957 19.2318 128.468 18.5234C128.983 17.8151 129.684 17.2656 130.569 16.875C131.455 16.4792 132.457 16.2812 133.577 16.2812C134.712 16.2812 135.707 16.4792 136.561 16.875C137.421 17.2656 138.095 17.8099 138.585 18.5078C139.074 19.2005 139.327 19.9974 139.343 20.8984H136.554ZM144.838 25.4687V32.5H142.01V16.5H144.776V22.5391H144.917C145.198 21.862 145.633 21.3281 146.221 20.9375C146.815 20.5417 147.57 20.3438 148.487 20.3438C149.32 20.3438 150.047 20.5182 150.667 20.8672C151.286 21.2161 151.766 21.7266 152.104 22.3984C152.448 23.0703 152.62 23.8906 152.62 24.8594V32.5H149.792V25.2969C149.792 24.4896 149.583 23.862 149.167 23.4141C148.755 22.9609 148.177 22.7344 147.432 22.7344C146.932 22.7344 146.484 22.8437 146.088 23.0625C145.698 23.276 145.391 23.5859 145.167 23.9922C144.948 24.3984 144.838 24.8906 144.838 25.4687ZM158.946 32.7422C158.185 32.7422 157.5 32.6068 156.891 32.3359C156.287 32.0599 155.808 31.6536 155.453 31.1172C155.104 30.5807 154.93 29.9193 154.93 29.1328C154.93 28.4557 155.055 27.8958 155.305 27.4531C155.555 27.0104 155.896 26.6562 156.328 26.3906C156.761 26.125 157.248 25.9245 157.789 25.7891C158.336 25.6484 158.901 25.5469 159.485 25.4844C160.188 25.4115 160.758 25.3464 161.196 25.2891C161.633 25.2266 161.951 25.1328 162.149 25.0078C162.352 24.8776 162.453 24.6771 162.453 24.4062V24.3594C162.453 23.7708 162.279 23.3151 161.93 22.9922C161.581 22.6693 161.078 22.5078 160.422 22.5078C159.729 22.5078 159.18 22.6589 158.774 22.9609C158.373 23.263 158.102 23.6198 157.961 24.0312L155.321 23.6562C155.529 22.9271 155.873 22.3177 156.352 21.8281C156.831 21.3333 157.417 20.9635 158.11 20.7187C158.802 20.4688 159.568 20.3438 160.407 20.3438C160.985 20.3438 161.56 20.4115 162.133 20.5469C162.706 20.6823 163.229 20.9062 163.703 21.2187C164.177 21.526 164.558 21.9453 164.844 22.4766C165.136 23.0078 165.282 23.6719 165.282 24.4687V32.5H162.563V30.8516H162.469C162.297 31.1849 162.055 31.4974 161.743 31.7891C161.435 32.0755 161.047 32.3073 160.578 32.4844C160.115 32.6563 159.571 32.7422 158.946 32.7422ZM159.68 30.6641C160.248 30.6641 160.74 30.5521 161.157 30.3281C161.573 30.099 161.894 29.7969 162.118 29.4219C162.347 29.0469 162.461 28.638 162.461 28.1953V26.7812C162.373 26.8542 162.222 26.9219 162.008 26.9844C161.8 27.0469 161.565 27.1016 161.305 27.1484C161.045 27.1953 160.787 27.237 160.532 27.2734C160.276 27.3099 160.055 27.3411 159.868 27.3672C159.446 27.4245 159.068 27.5182 158.735 27.6484C158.401 27.7786 158.138 27.9609 157.946 28.1953C157.753 28.4245 157.657 28.7214 157.657 29.0859C157.657 29.6068 157.847 30 158.227 30.2656C158.607 30.5312 159.091 30.6641 159.68 30.6641ZM168.115 32.5V20.5H170.857V22.5H170.982C171.201 21.8073 171.576 21.2734 172.107 20.8984C172.644 20.5182 173.256 20.3281 173.943 20.3281C174.1 20.3281 174.274 20.3359 174.467 20.3516C174.665 20.362 174.829 20.3802 174.959 20.4062V23.0078C174.839 22.9661 174.649 22.9297 174.389 22.8984C174.134 22.862 173.886 22.8437 173.647 22.8437C173.131 22.8437 172.667 22.9557 172.256 23.1797C171.85 23.3984 171.529 23.7031 171.295 24.0937C171.061 24.4844 170.943 24.9349 170.943 25.4453V32.5H168.115ZM176.828 32.5V20.5H179.656V32.5H176.828ZM178.25 18.7969C177.802 18.7969 177.417 18.6484 177.094 18.3516C176.771 18.0495 176.609 17.6875 176.609 17.2656C176.609 16.8385 176.771 16.4766 177.094 16.1797C177.417 15.8776 177.802 15.7266 178.25 15.7266C178.703 15.7266 179.088 15.8776 179.406 16.1797C179.729 16.4766 179.89 16.8385 179.89 17.2656C179.89 17.6875 179.729 18.0495 179.406 18.3516C179.088 18.6484 178.703 18.7969 178.25 18.7969ZM185.382 25.4687V32.5H182.554V20.5H185.257V22.5391H185.398C185.674 21.8672 186.114 21.3333 186.718 20.9375C187.328 20.5417 188.08 20.3438 188.976 20.3438C189.804 20.3438 190.526 20.5208 191.14 20.875C191.76 21.2292 192.239 21.7422 192.578 22.4141C192.921 23.0859 193.091 23.901 193.086 24.8594V32.5H190.257V25.2969C190.257 24.4948 190.049 23.8672 189.632 23.4141C189.221 22.9609 188.651 22.7344 187.921 22.7344C187.427 22.7344 186.987 22.8437 186.601 23.0625C186.221 23.276 185.921 23.5859 185.703 23.9922C185.489 24.3984 185.382 24.8906 185.382 25.4687ZM201.169 37.25C200.154 37.25 199.281 37.112 198.552 36.8359C197.823 36.5651 197.237 36.2005 196.794 35.7422C196.352 35.2839 196.044 34.776 195.872 34.2188L198.419 33.6016C198.534 33.8359 198.701 34.0677 198.919 34.2969C199.138 34.5313 199.432 34.724 199.802 34.875C200.177 35.0313 200.648 35.1094 201.216 35.1094C202.018 35.1094 202.682 34.9141 203.208 34.5234C203.734 34.138 203.997 33.5026 203.997 32.6172V30.3437H203.857C203.711 30.6354 203.497 30.9349 203.216 31.2422C202.94 31.5495 202.573 31.8073 202.115 32.0156C201.661 32.224 201.091 32.3281 200.404 32.3281C199.482 32.3281 198.646 32.112 197.896 31.6797C197.151 31.2422 196.557 30.5911 196.115 29.7266C195.677 28.8568 195.458 27.7682 195.458 26.4609C195.458 25.1432 195.677 24.0312 196.115 23.125C196.557 22.2135 197.154 21.5234 197.904 21.0547C198.654 20.5807 199.49 20.3438 200.411 20.3438C201.115 20.3438 201.693 20.4635 202.146 20.7031C202.604 20.9375 202.969 21.2214 203.24 21.5547C203.51 21.8828 203.716 22.1927 203.857 22.4844H204.013V20.5H206.802V32.6953C206.802 33.7214 206.557 34.5703 206.068 35.2422C205.578 35.9141 204.909 36.4167 204.06 36.75C203.211 37.0833 202.247 37.25 201.169 37.25ZM201.193 30.1094C201.792 30.1094 202.302 29.9635 202.724 29.6719C203.146 29.3802 203.466 28.9609 203.685 28.4141C203.904 27.8672 204.013 27.2109 204.013 26.4453C204.013 25.6901 203.904 25.0286 203.685 24.4609C203.471 23.8932 203.154 23.4531 202.732 23.1406C202.315 22.8229 201.802 22.6641 201.193 22.6641C200.563 22.6641 200.036 22.8281 199.615 23.1562C199.193 23.4844 198.875 23.9349 198.661 24.5078C198.448 25.0755 198.341 25.7214 198.341 26.4453C198.341 27.1797 198.448 27.8229 198.661 28.375C198.88 28.9219 199.201 29.349 199.622 29.6562C200.05 29.9583 200.573 30.1094 201.193 30.1094Z" fill="#12A594"/>
<defs>
<radialGradient id="paint0_radial_107_72" cx="0" cy="0" r="1" gradientUnits="userSpaceOnUse" gradientTransform="translate(4 4) rotate(90) scale(32)">
<stop stop-color="white"/>
<stop offset="1" stop-color="white" stop-opacity="0"/>
</radialGradient>
<clipPath id="clip0_107_72">
<rect width="48" height="48" rx="10" fill="white"/>
</clipPath>
</defs>
</svg>
