<svg width="175" height="48" viewBox="0 0 175 48" fill="none" xmlns="http://www.w3.org/2000/svg">
<g clip-path="url(#clip0_37_84)">
<rect width="48" height="48" rx="10" fill="#46A758"/>
<g opacity="0.4">
<rect x="-28" y="-28" width="64" height="64" rx="10" fill="url(#paint0_radial_37_84)"/>
</g>
<path opacity="0.4" d="M22 27L18.9247 30.1137C18.4958 30.548 18.2813 30.7652 18.097 30.7805C17.937 30.7938 17.7804 30.7295 17.676 30.6076C17.5556 30.4672 17.5556 30.162 17.5556 29.5515V27.9916C17.5556 27.444 17.1071 27.0477 16.5652 26.9683V26.9683C15.2537 26.7762 14.2238 25.7463 14.0317 24.4348C14 24.2186 14 23.9605 14 23.4444V18.8C14 17.1198 14 16.2798 14.327 15.638C14.6146 15.0735 15.0735 14.6146 15.638 14.327C16.2798 14 17.1198 14 18.8 14H26.2C27.8802 14 28.7202 14 29.362 14.327C29.9265 14.6146 30.3854 15.0735 30.673 15.638C31 16.2798 31 17.1198 31 18.8V23" stroke="white" stroke-width="2" stroke-linecap="round" stroke-linejoin="round"/>
<path d="M34 26.2C34 25.0799 34 24.5198 33.782 24.092C33.5903 23.7157 33.2843 23.4097 32.908 23.218C32.4802 23 31.9201 23 30.8 23H25.2C24.0799 23 23.5198 23 23.092 23.218C22.7157 23.4097 22.4097 23.7157 22.218 24.092C22 24.5198 22 25.0799 22 26.2V28.7143C22 29.8344 22 30.3944 22.218 30.8223C22.4097 31.1986 22.7157 31.5046 23.092 31.6963C23.5198 31.9143 24.0799 31.9143 25.2 31.9143H26.9969C27.3695 31.9143 27.5558 31.9143 27.7356 31.9474C27.8951 31.9768 28.0504 32.0255 28.1982 32.0924C28.3647 32.1678 28.5177 32.2742 28.8236 32.4869L31 34V31.9143C31.9319 31.9143 32.3978 31.9143 32.7654 31.762C33.2554 31.5591 33.6448 31.1697 33.8478 30.6797C34 30.3121 34 29.8462 34 28.9143V26.2Z" stroke="white" stroke-width="2" stroke-linecap="round" stroke-linejoin="round"/>
</g>
<path d="M69.5781 32.5V16.5H79.9844V18.9297H72.4766V23.2734H79.4453V25.7031H72.4766V30.0703H80.0469V32.5H69.5781ZM85.1189 20.5L87.5408 24.9297L90.0017 20.5H92.9939L89.3767 26.5L93.0564 32.5H90.0798L87.5408 28.1797L85.0252 32.5H82.0252L85.6814 26.5L82.1189 20.5H85.1189ZM95.1714 37V20.5H97.9527V22.4844H98.1167C98.2626 22.1927 98.4683 21.8828 98.7339 21.5547C98.9995 21.2214 99.3589 20.9375 99.812 20.7031C100.265 20.4635 100.843 20.3438 101.546 20.3438C102.473 20.3438 103.309 20.5807 104.054 21.0547C104.804 21.5234 105.398 22.2187 105.835 23.1406C106.278 24.0573 106.5 25.1823 106.5 26.5156C106.5 27.8333 106.283 28.9531 105.851 29.875C105.419 30.7969 104.83 31.5 104.085 31.9844C103.341 32.4688 102.497 32.7109 101.554 32.7109C100.867 32.7109 100.296 32.5964 99.8433 32.3672C99.3902 32.138 99.0256 31.862 98.7495 31.5391C98.4787 31.2109 98.2678 30.901 98.1167 30.6094H97.9995V37H95.1714ZM97.9448 26.5C97.9448 27.276 98.0542 27.9557 98.273 28.5391C98.4969 29.1224 98.8172 29.5781 99.2339 29.9062C99.6558 30.2292 100.166 30.3906 100.765 30.3906C101.39 30.3906 101.914 30.224 102.335 29.8906C102.757 29.5521 103.075 29.0911 103.289 28.5078C103.507 27.9193 103.617 27.25 103.617 26.5C103.617 25.7552 103.51 25.0937 103.296 24.5156C103.083 23.9375 102.765 23.4844 102.343 23.1562C101.921 22.8281 101.395 22.6641 100.765 22.6641C100.161 22.6641 99.648 22.8229 99.2261 23.1406C98.8042 23.4583 98.4839 23.9036 98.2652 24.4766C98.0516 25.0495 97.9448 25.724 97.9448 26.5ZM114.146 32.7344C112.974 32.7344 111.958 32.4766 111.099 31.9609C110.24 31.4453 109.573 30.724 109.099 29.7969C108.63 28.8698 108.396 27.7865 108.396 26.5469C108.396 25.3073 108.63 24.2214 109.099 23.2891C109.573 22.3568 110.24 21.6328 111.099 21.1172C111.958 20.6016 112.974 20.3438 114.146 20.3438C115.318 20.3438 116.333 20.6016 117.193 21.1172C118.052 21.6328 118.716 22.3568 119.185 23.2891C119.659 24.2214 119.896 25.3073 119.896 26.5469C119.896 27.7865 119.659 28.8698 119.185 29.7969C118.716 30.724 118.052 31.4453 117.193 31.9609C116.333 32.4766 115.318 32.7344 114.146 32.7344ZM114.161 30.4687C114.797 30.4687 115.328 30.2943 115.755 29.9453C116.182 29.5911 116.5 29.1172 116.708 28.5234C116.922 27.9297 117.029 27.2682 117.029 26.5391C117.029 25.8047 116.922 25.1406 116.708 24.5469C116.5 23.9479 116.182 23.4714 115.755 23.1172C115.328 22.763 114.797 22.5859 114.161 22.5859C113.51 22.5859 112.969 22.763 112.536 23.1172C112.109 23.4714 111.789 23.9479 111.575 24.5469C111.367 25.1406 111.263 25.8047 111.263 26.5391C111.263 27.2682 111.367 27.9297 111.575 28.5234C111.789 29.1172 112.109 29.5911 112.536 29.9453C112.969 30.2943 113.51 30.4687 114.161 30.4687ZM136.554 20.8984C136.481 20.2161 136.173 19.6849 135.632 19.3047C135.095 18.9245 134.397 18.7344 133.538 18.7344C132.934 18.7344 132.415 18.8255 131.983 19.0078C131.551 19.1901 131.22 19.4375 130.991 19.75C130.762 20.0625 130.645 20.4193 130.639 20.8203C130.639 21.1536 130.715 21.4427 130.866 21.6875C131.022 21.9323 131.233 22.1406 131.499 22.3125C131.764 22.4792 132.059 22.6198 132.382 22.7344C132.705 22.849 133.03 22.9453 133.358 23.0234L134.858 23.3984C135.462 23.5391 136.043 23.7292 136.6 23.9687C137.163 24.2083 137.665 24.5104 138.108 24.875C138.556 25.2396 138.91 25.6797 139.171 26.1953C139.431 26.7109 139.561 27.3151 139.561 28.0078C139.561 28.9453 139.322 29.7708 138.843 30.4844C138.363 31.1927 137.671 31.7474 136.764 32.1484C135.863 32.5443 134.772 32.7422 133.491 32.7422C132.246 32.7422 131.165 32.5495 130.249 32.1641C129.337 31.7786 128.624 31.2161 128.108 30.4766C127.598 29.737 127.322 28.8359 127.28 27.7734H130.132C130.173 28.3307 130.345 28.7943 130.647 29.1641C130.949 29.5339 131.343 29.8099 131.827 29.9922C132.317 30.1745 132.863 30.2656 133.468 30.2656C134.098 30.2656 134.65 30.1719 135.124 29.9844C135.603 29.7917 135.978 29.526 136.249 29.1875C136.52 28.8437 136.658 28.4427 136.663 27.9844C136.658 27.5677 136.535 27.224 136.296 26.9531C136.056 26.6771 135.72 26.4479 135.288 26.2656C134.861 26.0781 134.361 25.9115 133.788 25.7656L131.968 25.2969C130.65 24.9583 129.608 24.4453 128.843 23.7578C128.082 23.0651 127.702 22.1458 127.702 21C127.702 20.0573 127.957 19.2318 128.468 18.5234C128.983 17.8151 129.684 17.2656 130.569 16.875C131.455 16.4792 132.457 16.2812 133.577 16.2812C134.712 16.2812 135.707 16.4792 136.561 16.875C137.421 17.2656 138.095 17.8099 138.585 18.5078C139.074 19.2005 139.327 19.9974 139.343 20.8984H136.554ZM142.135 16.5H145.682L150.432 28.0937H150.62L155.37 16.5H158.917V32.5H156.135V21.5078H155.987L151.565 32.4531H149.487L145.065 21.4844H144.917V32.5H142.135V16.5ZM170.758 20.8984C170.685 20.2161 170.378 19.6849 169.836 19.3047C169.3 18.9245 168.602 18.7344 167.743 18.7344C167.138 18.7344 166.62 18.8255 166.188 19.0078C165.756 19.1901 165.425 19.4375 165.196 19.75C164.966 20.0625 164.849 20.4193 164.844 20.8203C164.844 21.1536 164.92 21.4427 165.071 21.6875C165.227 21.9323 165.438 22.1406 165.703 22.3125C165.969 22.4792 166.263 22.6198 166.586 22.7344C166.909 22.849 167.235 22.9453 167.563 23.0234L169.063 23.3984C169.667 23.5391 170.248 23.7292 170.805 23.9687C171.368 24.2083 171.87 24.5104 172.313 24.875C172.761 25.2396 173.115 25.6797 173.375 26.1953C173.636 26.7109 173.766 27.3151 173.766 28.0078C173.766 28.9453 173.526 29.7708 173.047 30.4844C172.568 31.1927 171.875 31.7474 170.969 32.1484C170.068 32.5443 168.977 32.7422 167.696 32.7422C166.451 32.7422 165.37 32.5495 164.453 32.1641C163.542 31.7786 162.828 31.2161 162.313 30.4766C161.802 29.737 161.526 28.8359 161.485 27.7734H164.336C164.378 28.3307 164.55 28.7943 164.852 29.1641C165.154 29.5339 165.547 29.8099 166.032 29.9922C166.521 30.1745 167.068 30.2656 167.672 30.2656C168.302 30.2656 168.854 30.1719 169.328 29.9844C169.808 29.7917 170.183 29.526 170.453 29.1875C170.724 28.8437 170.862 28.4427 170.868 27.9844C170.862 27.5677 170.74 27.224 170.5 26.9531C170.261 26.6771 169.925 26.4479 169.493 26.2656C169.065 26.0781 168.565 25.9115 167.993 25.7656L166.172 25.2969C164.854 24.9583 163.813 24.4453 163.047 23.7578C162.287 23.0651 161.907 22.1458 161.907 21C161.907 20.0573 162.162 19.2318 162.672 18.5234C163.188 17.8151 163.888 17.2656 164.774 16.875C165.659 16.4792 166.662 16.2812 167.782 16.2812C168.917 16.2812 169.912 16.4792 170.766 16.875C171.625 17.2656 172.3 17.8099 172.789 18.5078C173.279 19.2005 173.532 19.9974 173.547 20.8984H170.758Z" fill="#46A758"/>
<defs>
<radialGradient id="paint0_radial_37_84" cx="0" cy="0" r="1" gradientUnits="userSpaceOnUse" gradientTransform="translate(4 4) rotate(90) scale(32)">
<stop stop-color="white"/>
<stop offset="1" stop-color="white" stop-opacity="0"/>
</radialGradient>
<clipPath id="clip0_37_84">
<rect width="48" height="48" rx="10" fill="white"/>
</clipPath>
</defs>
</svg>
