<svg width="242" height="48" viewBox="0 0 242 48" fill="none" xmlns="http://www.w3.org/2000/svg">
<g clip-path="url(#clip0_85_91)">
<rect width="48" height="48" rx="10" fill="#EBBC00"/>
<g opacity="0.4">
<rect x="-28" y="-28" width="64" height="64" rx="10" fill="url(#paint0_radial_85_91)"/>
</g>
<path opacity="0.12" d="M27.5 28.874C29.0141 27.7848 30 26.0075 30 24C30 20.6863 27.3137 18 24 18C20.6863 18 18 20.6863 18 24C18 26.0075 18.9859 27.7848 20.5 28.874V30.8C20.5 31.9201 20.5 32.4802 20.718 32.908C20.9097 33.2843 21.2157 33.5903 21.592 33.782C22.0198 34 22.5799 34 23.7 34H24.3C25.4201 34 25.9802 34 26.408 33.782C26.7843 33.5903 27.0903 33.2843 27.282 32.908C27.5 32.4802 27.5 31.9201 27.5 30.8V28.874Z" fill="white"/>
<path d="M24 14V15M15 24H14M17.5 17.5L16.8999 16.8999M30.5 17.5L31.1002 16.8999M34 24H33M22 25.5H26M24 25.5V30.5M27.5 28.874C29.0141 27.7848 30 26.0075 30 24C30 20.6863 27.3137 18 24 18C20.6863 18 18 20.6863 18 24C18 26.0075 18.9859 27.7848 20.5 28.874V30.8C20.5 31.9201 20.5 32.4802 20.718 32.908C20.9097 33.2843 21.2157 33.5903 21.592 33.782C22.0198 34 22.5799 34 23.7 34H24.3C25.4201 34 25.9802 34 26.408 33.782C26.7843 33.5903 27.0903 33.2843 27.282 32.908C27.5 32.4802 27.5 31.9201 27.5 30.8V28.874Z" stroke="white" stroke-width="2" stroke-linecap="round" stroke-linejoin="round"/>
</g>
<path d="M69.5781 32.5V16.5H79.9844V18.9297H72.4766V23.2734H79.4453V25.7031H72.4766V30.0703H80.0469V32.5H69.5781ZM85.1189 20.5L87.5408 24.9297L90.0017 20.5H92.9939L89.3767 26.5L93.0564 32.5H90.0798L87.5408 28.1797L85.0252 32.5H82.0252L85.6814 26.5L82.1189 20.5H85.1189ZM95.1714 37V20.5H97.9527V22.4844H98.1167C98.2626 22.1927 98.4683 21.8828 98.7339 21.5547C98.9995 21.2214 99.3589 20.9375 99.812 20.7031C100.265 20.4635 100.843 20.3438 101.546 20.3438C102.473 20.3438 103.309 20.5807 104.054 21.0547C104.804 21.5234 105.398 22.2187 105.835 23.1406C106.278 24.0573 106.5 25.1823 106.5 26.5156C106.5 27.8333 106.283 28.9531 105.851 29.875C105.419 30.7969 104.83 31.5 104.085 31.9844C103.341 32.4688 102.497 32.7109 101.554 32.7109C100.867 32.7109 100.296 32.5964 99.8433 32.3672C99.3902 32.138 99.0256 31.862 98.7495 31.5391C98.4787 31.2109 98.2678 30.901 98.1167 30.6094H97.9995V37H95.1714ZM97.9448 26.5C97.9448 27.276 98.0542 27.9557 98.273 28.5391C98.4969 29.1224 98.8172 29.5781 99.2339 29.9062C99.6558 30.2292 100.166 30.3906 100.765 30.3906C101.39 30.3906 101.914 30.224 102.335 29.8906C102.757 29.5521 103.075 29.0911 103.289 28.5078C103.507 27.9193 103.617 27.25 103.617 26.5C103.617 25.7552 103.51 25.0937 103.296 24.5156C103.083 23.9375 102.765 23.4844 102.343 23.1562C101.921 22.8281 101.395 22.6641 100.765 22.6641C100.161 22.6641 99.648 22.8229 99.2261 23.1406C98.8042 23.4583 98.4839 23.9036 98.2652 24.4766C98.0516 25.0495 97.9448 25.724 97.9448 26.5ZM114.146 32.7344C112.974 32.7344 111.958 32.4766 111.099 31.9609C110.24 31.4453 109.573 30.724 109.099 29.7969C108.63 28.8698 108.396 27.7865 108.396 26.5469C108.396 25.3073 108.63 24.2214 109.099 23.2891C109.573 22.3568 110.24 21.6328 111.099 21.1172C111.958 20.6016 112.974 20.3438 114.146 20.3438C115.318 20.3438 116.333 20.6016 117.193 21.1172C118.052 21.6328 118.716 22.3568 119.185 23.2891C119.659 24.2214 119.896 25.3073 119.896 26.5469C119.896 27.7865 119.659 28.8698 119.185 29.7969C118.716 30.724 118.052 31.4453 117.193 31.9609C116.333 32.4766 115.318 32.7344 114.146 32.7344ZM114.161 30.4687C114.797 30.4687 115.328 30.2943 115.755 29.9453C116.182 29.5911 116.5 29.1172 116.708 28.5234C116.922 27.9297 117.029 27.2682 117.029 26.5391C117.029 25.8047 116.922 25.1406 116.708 24.5469C116.5 23.9479 116.182 23.4714 115.755 23.1172C115.328 22.763 114.797 22.5859 114.161 22.5859C113.51 22.5859 112.969 22.763 112.536 23.1172C112.109 23.4714 111.789 23.9479 111.575 24.5469C111.367 25.1406 111.263 25.8047 111.263 26.5391C111.263 27.2682 111.367 27.9297 111.575 28.5234C111.789 29.1172 112.109 29.5911 112.536 29.9453C112.969 30.2943 113.51 30.4687 114.161 30.4687ZM127.858 32.5V16.5H133.983C135.139 16.5 136.1 16.6823 136.866 17.0469C137.637 17.4062 138.212 17.8984 138.593 18.5234C138.978 19.1484 139.171 19.8568 139.171 20.6484C139.171 21.2995 139.046 21.8568 138.796 22.3203C138.546 22.7786 138.21 23.151 137.788 23.4375C137.366 23.724 136.895 23.9297 136.374 24.0547V24.2109C136.942 24.2422 137.486 24.4167 138.007 24.7344C138.533 25.0469 138.962 25.4896 139.296 26.0625C139.629 26.6354 139.796 27.3281 139.796 28.1406C139.796 28.9687 139.595 29.7135 139.194 30.375C138.793 31.0312 138.189 31.5495 137.382 31.9297C136.574 32.3099 135.559 32.5 134.335 32.5H127.858ZM130.757 30.0781H133.874C134.926 30.0781 135.684 29.8776 136.147 29.4766C136.616 29.0703 136.85 28.5495 136.85 27.9141C136.85 27.4401 136.733 27.013 136.499 26.6328C136.264 26.2474 135.931 25.9453 135.499 25.7266C135.067 25.5026 134.551 25.3906 133.952 25.3906H130.757V30.0781ZM130.757 23.3047H133.624C134.124 23.3047 134.574 23.2135 134.975 23.0312C135.376 22.8437 135.692 22.5807 135.921 22.2422C136.155 21.8984 136.272 21.4922 136.272 21.0234C136.272 20.4036 136.054 19.8932 135.616 19.4922C135.184 19.0911 134.54 18.8906 133.686 18.8906H130.757V23.3047ZM142.182 32.5V20.5H144.924V22.5H145.049C145.268 21.8073 145.643 21.2734 146.174 20.8984C146.711 20.5182 147.323 20.3281 148.01 20.3281C148.167 20.3281 148.341 20.3359 148.534 20.3516C148.732 20.362 148.896 20.3802 149.026 20.4062V23.0078C148.906 22.9661 148.716 22.9297 148.456 22.8984C148.2 22.862 147.953 22.8437 147.713 22.8437C147.198 22.8437 146.734 22.9557 146.323 23.1797C145.917 23.3984 145.596 23.7031 145.362 24.0937C145.128 24.4844 145.01 24.9349 145.01 25.4453V32.5H142.182ZM150.895 32.5V20.5H153.723V32.5H150.895ZM152.317 18.7969C151.869 18.7969 151.483 18.6484 151.16 18.3516C150.838 18.0495 150.676 17.6875 150.676 17.2656C150.676 16.8385 150.838 16.4766 151.16 16.1797C151.483 15.8776 151.869 15.7266 152.317 15.7266C152.77 15.7266 153.155 15.8776 153.473 16.1797C153.796 16.4766 153.957 16.8385 153.957 17.2656C153.957 17.6875 153.796 18.0495 153.473 18.3516C153.155 18.6484 152.77 18.7969 152.317 18.7969ZM161.84 37.25C160.824 37.25 159.952 37.112 159.223 36.8359C158.494 36.5651 157.908 36.2005 157.465 35.7422C157.022 35.2839 156.715 34.776 156.543 34.2188L159.09 33.6016C159.205 33.8359 159.371 34.0677 159.59 34.2969C159.809 34.5313 160.103 34.724 160.473 34.875C160.848 35.0313 161.319 35.1094 161.887 35.1094C162.689 35.1094 163.353 34.9141 163.879 34.5234C164.405 34.138 164.668 33.5026 164.668 32.6172V30.3437H164.527C164.382 30.6354 164.168 30.9349 163.887 31.2422C163.611 31.5495 163.244 31.8073 162.785 32.0156C162.332 32.224 161.762 32.3281 161.074 32.3281C160.152 32.3281 159.316 32.112 158.566 31.6797C157.822 31.2422 157.228 30.5911 156.785 29.7266C156.348 28.8568 156.129 27.7682 156.129 26.4609C156.129 25.1432 156.348 24.0312 156.785 23.125C157.228 22.2135 157.824 21.5234 158.574 21.0547C159.324 20.5807 160.16 20.3438 161.082 20.3438C161.785 20.3438 162.363 20.4635 162.816 20.7031C163.275 20.9375 163.639 21.2214 163.91 21.5547C164.181 21.8828 164.387 22.1927 164.527 22.4844H164.684V20.5H167.473V32.6953C167.473 33.7214 167.228 34.5703 166.738 35.2422C166.249 35.9141 165.58 36.4167 164.731 36.75C163.882 37.0833 162.918 37.25 161.84 37.25ZM161.863 30.1094C162.462 30.1094 162.973 29.9635 163.395 29.6719C163.816 29.3802 164.137 28.9609 164.356 28.4141C164.574 27.8672 164.684 27.2109 164.684 26.4453C164.684 25.6901 164.574 25.0286 164.356 24.4609C164.142 23.8932 163.824 23.4531 163.402 23.1406C162.986 22.8229 162.473 22.6641 161.863 22.6641C161.233 22.6641 160.707 22.8281 160.285 23.1562C159.863 23.4844 159.546 23.9349 159.332 24.5078C159.119 25.0755 159.012 25.7214 159.012 26.4453C159.012 27.1797 159.119 27.8229 159.332 28.375C159.551 28.9219 159.871 29.349 160.293 29.6562C160.72 29.9583 161.244 30.1094 161.863 30.1094ZM173.189 25.4687V32.5H170.361V16.5H173.127V22.5391H173.267C173.549 21.862 173.984 21.3281 174.572 20.9375C175.166 20.5417 175.921 20.3438 176.838 20.3438C177.671 20.3438 178.398 20.5182 179.017 20.8672C179.637 21.2161 180.116 21.7266 180.455 22.3984C180.799 23.0703 180.971 23.8906 180.971 24.8594V32.5H178.142V25.2969C178.142 24.4896 177.934 23.862 177.517 23.4141C177.106 22.9609 176.528 22.7344 175.783 22.7344C175.283 22.7344 174.835 22.8437 174.439 23.0625C174.049 23.276 173.741 23.5859 173.517 23.9922C173.299 24.3984 173.189 24.8906 173.189 25.4687ZM189.836 20.5V22.6875H182.937V20.5H189.836ZM184.64 17.625H187.468V28.8906C187.468 29.2708 187.526 29.5625 187.64 29.7656C187.76 29.9635 187.916 30.099 188.109 30.1719C188.302 30.2448 188.515 30.2812 188.75 30.2812C188.927 30.2812 189.088 30.2682 189.234 30.2422C189.385 30.2161 189.5 30.1927 189.578 30.1719L190.054 32.3828C189.903 32.4349 189.687 32.4922 189.406 32.5547C189.13 32.6172 188.791 32.6536 188.39 32.6641C187.682 32.6849 187.044 32.5781 186.476 32.3437C185.908 32.1042 185.458 31.7344 185.125 31.2344C184.796 30.7344 184.635 30.1094 184.64 29.3594V17.625ZM195.019 25.4687V32.5H192.191V20.5H194.894V22.5391H195.035C195.311 21.8672 195.751 21.3333 196.355 20.9375C196.964 20.5417 197.717 20.3438 198.613 20.3438C199.441 20.3438 200.162 20.5208 200.777 20.875C201.397 21.2292 201.876 21.7422 202.214 22.4141C202.558 23.0859 202.727 23.901 202.722 24.8594V32.5H199.894V25.2969C199.894 24.4948 199.686 23.8672 199.269 23.4141C198.857 22.9609 198.287 22.7344 197.558 22.7344C197.063 22.7344 196.623 22.8437 196.238 23.0625C195.857 23.276 195.558 23.5859 195.339 23.9922C195.126 24.3984 195.019 24.8906 195.019 25.4687ZM210.9 32.7344C209.696 32.7344 208.657 32.4844 207.782 31.9844C206.913 31.4792 206.243 30.7656 205.775 29.8437C205.306 28.9167 205.071 27.8255 205.071 26.5703C205.071 25.3359 205.306 24.2526 205.775 23.3203C206.248 22.3828 206.91 21.6536 207.759 21.1328C208.608 20.6068 209.605 20.3438 210.751 20.3438C211.491 20.3438 212.189 20.4635 212.845 20.7031C213.506 20.9375 214.09 21.3021 214.595 21.7969C215.105 22.2917 215.506 22.9219 215.798 23.6875C216.09 24.4479 216.235 25.3542 216.235 26.4062V27.2734H206.4V25.3672H213.525C213.519 24.8255 213.402 24.3437 213.173 23.9219C212.944 23.4948 212.623 23.1589 212.212 22.9141C211.806 22.6693 211.332 22.5469 210.79 22.5469C210.212 22.5469 209.704 22.6875 209.267 22.9687C208.829 23.2448 208.488 23.6094 208.243 24.0625C208.004 24.5104 207.881 25.0026 207.876 25.5391V27.2031C207.876 27.901 208.004 28.5 208.259 29C208.514 29.4948 208.871 29.875 209.329 30.1406C209.788 30.401 210.324 30.5312 210.939 30.5312C211.35 30.5312 211.722 30.474 212.056 30.3594C212.389 30.2396 212.678 30.0651 212.923 29.8359C213.168 29.6068 213.353 29.3229 213.478 28.9844L216.118 29.2812C215.952 29.9792 215.634 30.5885 215.165 31.1094C214.702 31.625 214.108 32.026 213.384 32.3125C212.66 32.5937 211.832 32.7344 210.9 32.7344ZM228.102 23.6719L225.524 23.9531C225.451 23.6927 225.324 23.4479 225.141 23.2188C224.964 22.9896 224.725 22.8047 224.423 22.6641C224.121 22.5234 223.751 22.4531 223.313 22.4531C222.725 22.4531 222.23 22.5807 221.829 22.8359C221.433 23.0911 221.238 23.4219 221.243 23.8281C221.238 24.1771 221.365 24.4609 221.626 24.6797C221.891 24.8984 222.329 25.0781 222.938 25.2188L224.985 25.6562C226.121 25.901 226.964 26.2891 227.516 26.8203C228.074 27.3516 228.355 28.0469 228.36 28.9062C228.355 29.6615 228.134 30.3281 227.696 30.9062C227.264 31.4792 226.662 31.9271 225.891 32.25C225.121 32.5729 224.235 32.7344 223.235 32.7344C221.766 32.7344 220.584 32.4271 219.688 31.8125C218.793 31.1927 218.259 30.3307 218.087 29.2266L220.845 28.9609C220.97 29.5026 221.235 29.9115 221.641 30.1875C222.048 30.4635 222.576 30.6016 223.227 30.6016C223.899 30.6016 224.438 30.4635 224.845 30.1875C225.256 29.9115 225.462 29.5703 225.462 29.1641C225.462 28.8203 225.329 28.5365 225.063 28.3125C224.803 28.0885 224.397 27.9167 223.845 27.7969L221.798 27.3672C220.647 27.1276 219.795 26.724 219.243 26.1562C218.691 25.5833 218.418 24.8594 218.423 23.9844C218.418 23.2448 218.618 22.6042 219.024 22.0625C219.436 21.5156 220.006 21.0937 220.735 20.7969C221.47 20.4948 222.316 20.3438 223.274 20.3438C224.681 20.3438 225.787 20.6432 226.595 21.2422C227.407 21.8411 227.91 22.651 228.102 23.6719ZM240.167 23.6719L237.589 23.9531C237.516 23.6927 237.388 23.4479 237.206 23.2188C237.029 22.9896 236.789 22.8047 236.487 22.6641C236.185 22.5234 235.815 22.4531 235.378 22.4531C234.789 22.4531 234.294 22.5807 233.893 22.8359C233.497 23.0911 233.302 23.4219 233.307 23.8281C233.302 24.1771 233.43 24.4609 233.69 24.6797C233.956 24.8984 234.393 25.0781 235.003 25.2188L237.049 25.6562C238.185 25.901 239.029 26.2891 239.581 26.8203C240.138 27.3516 240.419 28.0469 240.424 28.9062C240.419 29.6615 240.198 30.3281 239.76 30.9062C239.328 31.4792 238.727 31.9271 237.956 32.25C237.185 32.5729 236.299 32.7344 235.299 32.7344C233.831 32.7344 232.648 32.4271 231.753 31.8125C230.857 31.1927 230.323 30.3307 230.151 29.2266L232.909 28.9609C233.034 29.5026 233.299 29.9115 233.706 30.1875C234.112 30.4635 234.641 30.6016 235.292 30.6016C235.964 30.6016 236.503 30.4635 236.909 30.1875C237.32 29.9115 237.526 29.5703 237.526 29.1641C237.526 28.8203 237.393 28.5365 237.128 28.3125C236.867 28.0885 236.461 27.9167 235.909 27.7969L233.862 27.3672C232.711 27.1276 231.859 26.724 231.307 26.1562C230.755 25.5833 230.482 24.8594 230.487 23.9844C230.482 23.2448 230.682 22.6042 231.089 22.0625C231.5 21.5156 232.07 21.0937 232.799 20.7969C233.534 20.4948 234.38 20.3438 235.339 20.3438C236.745 20.3438 237.852 20.6432 238.659 21.2422C239.471 21.8411 239.974 22.651 240.167 23.6719Z" fill="#EBBC00"/>
<defs>
<radialGradient id="paint0_radial_85_91" cx="0" cy="0" r="1" gradientUnits="userSpaceOnUse" gradientTransform="translate(4 4) rotate(90) scale(32)">
<stop stop-color="white"/>
<stop offset="1" stop-color="white" stop-opacity="0"/>
</radialGradient>
<clipPath id="clip0_85_91">
<rect width="48" height="48" rx="10" fill="white"/>
</clipPath>
</defs>
</svg>
