<svg width="264" height="48" viewBox="0 0 264 48" fill="none" xmlns="http://www.w3.org/2000/svg">
<g clip-path="url(#clip0_45_82)">
<rect width="48" height="48" rx="10" fill="#147D6F"/>
<g opacity="0.4">
<rect x="-28" y="-28" width="64" height="64" rx="10" fill="url(#paint0_radial_45_82)"/>
</g>
<path opacity="0.4" d="M25 19L23.8845 16.7689C23.5634 16.1268 23.4029 15.8057 23.1634 15.5712C22.9516 15.3637 22.6963 15.206 22.4161 15.1093C22.0992 15 21.7402 15 21.0223 15H17.2C16.0799 15 15.5198 15 15.092 15.218C14.7157 15.4097 14.4097 15.7157 14.218 16.092C14 16.5198 14 17.0799 14 18.2V19" stroke="white" stroke-width="2" stroke-linecap="round" stroke-linejoin="round"/>
<path d="M14 19H29.2C30.8802 19 31.7202 19 32.362 19.327C32.9265 19.6146 33.3854 20.0735 33.673 20.638C34 21.2798 34 22.1198 34 23.8V28.2C34 29.8802 34 30.7202 33.673 31.362C33.3854 31.9265 32.9265 32.3854 32.362 32.673C31.7202 33 30.8802 33 29.2 33H18.8C17.1198 33 16.2798 33 15.638 32.673C15.0735 32.3854 14.6146 31.9265 14.327 31.362C14 30.7202 14 29.8802 14 28.2V19Z" stroke="white" stroke-width="2" stroke-linecap="round" stroke-linejoin="round"/>
<path d="M24 29.5C24 29.5 27 28.0701 27 25.9252V23.4229L24.8124 22.6412C24.2868 22.4529 23.712 22.4529 23.1864 22.6412L21 23.4229V25.9252C21 28.0701 24 29.5 24 29.5Z" stroke="white" stroke-width="2" stroke-linecap="round" stroke-linejoin="round"/>
</g>
<path d="M69.5781 32.5V16.5H79.9844V18.9297H72.4766V23.2734H79.4453V25.7031H72.4766V30.0703H80.0469V32.5H69.5781ZM85.1189 20.5L87.5408 24.9297L90.0017 20.5H92.9939L89.3767 26.5L93.0564 32.5H90.0798L87.5408 28.1797L85.0252 32.5H82.0252L85.6814 26.5L82.1189 20.5H85.1189ZM95.1714 37V20.5H97.9527V22.4844H98.1167C98.2626 22.1927 98.4683 21.8828 98.7339 21.5547C98.9995 21.2214 99.3589 20.9375 99.812 20.7031C100.265 20.4635 100.843 20.3438 101.546 20.3438C102.473 20.3438 103.309 20.5807 104.054 21.0547C104.804 21.5234 105.398 22.2187 105.835 23.1406C106.278 24.0573 106.5 25.1823 106.5 26.5156C106.5 27.8333 106.283 28.9531 105.851 29.875C105.419 30.7969 104.83 31.5 104.085 31.9844C103.341 32.4688 102.497 32.7109 101.554 32.7109C100.867 32.7109 100.296 32.5964 99.8433 32.3672C99.3902 32.138 99.0256 31.862 98.7495 31.5391C98.4787 31.2109 98.2678 30.901 98.1167 30.6094H97.9995V37H95.1714ZM97.9448 26.5C97.9448 27.276 98.0542 27.9557 98.273 28.5391C98.4969 29.1224 98.8172 29.5781 99.2339 29.9062C99.6558 30.2292 100.166 30.3906 100.765 30.3906C101.39 30.3906 101.914 30.224 102.335 29.8906C102.757 29.5521 103.075 29.0911 103.289 28.5078C103.507 27.9193 103.617 27.25 103.617 26.5C103.617 25.7552 103.51 25.0937 103.296 24.5156C103.083 23.9375 102.765 23.4844 102.343 23.1562C101.921 22.8281 101.395 22.6641 100.765 22.6641C100.161 22.6641 99.648 22.8229 99.2261 23.1406C98.8042 23.4583 98.4839 23.9036 98.2652 24.4766C98.0516 25.0495 97.9448 25.724 97.9448 26.5ZM114.146 32.7344C112.974 32.7344 111.958 32.4766 111.099 31.9609C110.24 31.4453 109.573 30.724 109.099 29.7969C108.63 28.8698 108.396 27.7865 108.396 26.5469C108.396 25.3073 108.63 24.2214 109.099 23.2891C109.573 22.3568 110.24 21.6328 111.099 21.1172C111.958 20.6016 112.974 20.3438 114.146 20.3438C115.318 20.3438 116.333 20.6016 117.193 21.1172C118.052 21.6328 118.716 22.3568 119.185 23.2891C119.659 24.2214 119.896 25.3073 119.896 26.5469C119.896 27.7865 119.659 28.8698 119.185 29.7969C118.716 30.724 118.052 31.4453 117.193 31.9609C116.333 32.4766 115.318 32.7344 114.146 32.7344ZM114.161 30.4687C114.797 30.4687 115.328 30.2943 115.755 29.9453C116.182 29.5911 116.5 29.1172 116.708 28.5234C116.922 27.9297 117.029 27.2682 117.029 26.5391C117.029 25.8047 116.922 25.1406 116.708 24.5469C116.5 23.9479 116.182 23.4714 115.755 23.1172C115.328 22.763 114.797 22.5859 114.161 22.5859C113.51 22.5859 112.969 22.763 112.536 23.1172C112.109 23.4714 111.789 23.9479 111.575 24.5469C111.367 25.1406 111.263 25.8047 111.263 26.5391C111.263 27.2682 111.367 27.9297 111.575 28.5234C111.789 29.1172 112.109 29.5911 112.536 29.9453C112.969 30.2943 113.51 30.4687 114.161 30.4687ZM136.554 20.8984C136.481 20.2161 136.173 19.6849 135.632 19.3047C135.095 18.9245 134.397 18.7344 133.538 18.7344C132.934 18.7344 132.415 18.8255 131.983 19.0078C131.551 19.1901 131.22 19.4375 130.991 19.75C130.762 20.0625 130.645 20.4193 130.639 20.8203C130.639 21.1536 130.715 21.4427 130.866 21.6875C131.022 21.9323 131.233 22.1406 131.499 22.3125C131.764 22.4792 132.059 22.6198 132.382 22.7344C132.705 22.849 133.03 22.9453 133.358 23.0234L134.858 23.3984C135.462 23.5391 136.043 23.7292 136.6 23.9687C137.163 24.2083 137.665 24.5104 138.108 24.875C138.556 25.2396 138.91 25.6797 139.171 26.1953C139.431 26.7109 139.561 27.3151 139.561 28.0078C139.561 28.9453 139.322 29.7708 138.843 30.4844C138.363 31.1927 137.671 31.7474 136.764 32.1484C135.863 32.5443 134.772 32.7422 133.491 32.7422C132.246 32.7422 131.165 32.5495 130.249 32.1641C129.337 31.7786 128.624 31.2161 128.108 30.4766C127.598 29.737 127.322 28.8359 127.28 27.7734H130.132C130.173 28.3307 130.345 28.7943 130.647 29.1641C130.949 29.5339 131.343 29.8099 131.827 29.9922C132.317 30.1745 132.863 30.2656 133.468 30.2656C134.098 30.2656 134.65 30.1719 135.124 29.9844C135.603 29.7917 135.978 29.526 136.249 29.1875C136.52 28.8437 136.658 28.4427 136.663 27.9844C136.658 27.5677 136.535 27.224 136.296 26.9531C136.056 26.6771 135.72 26.4479 135.288 26.2656C134.861 26.0781 134.361 25.9115 133.788 25.7656L131.968 25.2969C130.65 24.9583 129.608 24.4453 128.843 23.7578C128.082 23.0651 127.702 22.1458 127.702 21C127.702 20.0573 127.957 19.2318 128.468 18.5234C128.983 17.8151 129.684 17.2656 130.569 16.875C131.455 16.4792 132.457 16.2812 133.577 16.2812C134.712 16.2812 135.707 16.4792 136.561 16.875C137.421 17.2656 138.095 17.8099 138.585 18.5078C139.074 19.2005 139.327 19.9974 139.343 20.8984H136.554ZM147.323 32.7344C146.12 32.7344 145.081 32.4844 144.206 31.9844C143.336 31.4792 142.667 30.7656 142.198 29.8437C141.729 28.9167 141.495 27.8255 141.495 26.5703C141.495 25.3359 141.729 24.2526 142.198 23.3203C142.672 22.3828 143.333 21.6536 144.182 21.1328C145.031 20.6068 146.029 20.3438 147.174 20.3438C147.914 20.3438 148.612 20.4635 149.268 20.7031C149.93 20.9375 150.513 21.3021 151.018 21.7969C151.529 22.2917 151.93 22.9219 152.221 23.6875C152.513 24.4479 152.659 25.3542 152.659 26.4062V27.2734H142.823V25.3672H149.948C149.943 24.8255 149.825 24.3437 149.596 23.9219C149.367 23.4948 149.047 23.1589 148.635 22.9141C148.229 22.6693 147.755 22.5469 147.213 22.5469C146.635 22.5469 146.128 22.6875 145.69 22.9687C145.253 23.2448 144.911 23.6094 144.667 24.0625C144.427 24.5104 144.305 25.0026 144.299 25.5391V27.2031C144.299 27.901 144.427 28.5 144.682 29C144.937 29.4948 145.294 29.875 145.753 30.1406C146.211 30.401 146.747 30.5312 147.362 30.5312C147.773 30.5312 148.146 30.474 148.479 30.3594C148.812 30.2396 149.101 30.0651 149.346 29.8359C149.591 29.6068 149.776 29.3229 149.901 28.9844L152.542 29.2812C152.375 29.9792 152.057 30.5885 151.588 31.1094C151.125 31.625 150.531 32.026 149.807 32.3125C149.083 32.5937 148.255 32.7344 147.323 32.7344ZM160.276 32.7344C159.078 32.7344 158.049 32.4714 157.19 31.9453C156.336 31.4193 155.677 30.6927 155.213 29.7656C154.755 28.8333 154.526 27.7604 154.526 26.5469C154.526 25.3281 154.76 24.2526 155.229 23.3203C155.698 22.3828 156.359 21.6536 157.213 21.1328C158.073 20.6068 159.088 20.3438 160.26 20.3438C161.234 20.3438 162.096 20.5234 162.846 20.8828C163.601 21.237 164.203 21.7396 164.651 22.3906C165.099 23.0365 165.354 23.7917 165.416 24.6562H162.713C162.604 24.0781 162.343 23.5964 161.932 23.2109C161.526 22.8203 160.981 22.625 160.299 22.625C159.721 22.625 159.213 22.7812 158.776 23.0937C158.338 23.401 157.997 23.8437 157.752 24.4219C157.513 25 157.393 25.6927 157.393 26.5C157.393 27.3177 157.513 28.0208 157.752 28.6094C157.992 29.1927 158.328 29.6432 158.76 29.9609C159.198 30.2734 159.711 30.4297 160.299 30.4297C160.716 30.4297 161.088 30.3516 161.416 30.1953C161.75 30.0339 162.028 29.8021 162.252 29.5C162.476 29.1979 162.63 28.8307 162.713 28.3984H165.416C165.349 29.2474 165.099 30 164.666 30.6562C164.234 31.3073 163.645 31.8177 162.901 32.1875C162.156 32.5521 161.281 32.7344 160.276 32.7344ZM175.377 27.4531V20.5H178.205V32.5H175.463V30.3672H175.338C175.067 31.0391 174.622 31.5885 174.002 32.0156C173.387 32.4427 172.63 32.6563 171.729 32.6563C170.942 32.6563 170.247 32.4818 169.643 32.1328C169.044 31.7786 168.575 31.2656 168.236 30.5938C167.898 29.9167 167.729 29.099 167.729 28.1406V20.5H170.557V27.7031C170.557 28.4635 170.765 29.0677 171.182 29.5156C171.598 29.9635 172.145 30.1875 172.822 30.1875C173.239 30.1875 173.643 30.0859 174.033 29.8828C174.424 29.6797 174.744 29.3776 174.994 28.9766C175.249 28.5703 175.377 28.0625 175.377 27.4531ZM181.103 32.5V20.5H183.846V22.5H183.971C184.189 21.8073 184.564 21.2734 185.096 20.8984C185.632 20.5182 186.244 20.3281 186.931 20.3281C187.088 20.3281 187.262 20.3359 187.455 20.3516C187.653 20.362 187.817 20.3802 187.947 20.4062V23.0078C187.827 22.9661 187.637 22.9297 187.377 22.8984C187.122 22.862 186.874 22.8437 186.635 22.8437C186.119 22.8437 185.655 22.9557 185.244 23.1797C184.838 23.3984 184.517 23.7031 184.283 24.0937C184.049 24.4844 183.931 24.9349 183.931 25.4453V32.5H181.103ZM194.634 32.7344C193.431 32.7344 192.392 32.4844 191.517 31.9844C190.647 31.4792 189.978 30.7656 189.509 29.8437C189.041 28.9167 188.806 27.8255 188.806 26.5703C188.806 25.3359 189.041 24.2526 189.509 23.3203C189.983 22.3828 190.645 21.6536 191.494 21.1328C192.343 20.6068 193.34 20.3438 194.486 20.3438C195.226 20.3438 195.923 20.4635 196.58 20.7031C197.241 20.9375 197.824 21.3021 198.33 21.7969C198.84 22.2917 199.241 22.9219 199.533 23.6875C199.824 24.4479 199.97 25.3542 199.97 26.4062V27.2734H190.134V25.3672H197.259C197.254 24.8255 197.137 24.3437 196.908 23.9219C196.679 23.4948 196.358 23.1589 195.947 22.9141C195.541 22.6693 195.067 22.5469 194.525 22.5469C193.947 22.5469 193.439 22.6875 193.002 22.9687C192.564 23.2448 192.223 23.6094 191.978 24.0625C191.739 24.5104 191.616 25.0026 191.611 25.5391V27.2031C191.611 27.901 191.739 28.5 191.994 29C192.249 29.4948 192.606 29.875 193.064 30.1406C193.522 30.401 194.059 30.5312 194.673 30.5312C195.085 30.5312 195.457 30.474 195.791 30.3594C196.124 30.2396 196.413 30.0651 196.658 29.8359C196.903 29.6068 197.088 29.3229 197.213 28.9844L199.853 29.2812C199.686 29.9792 199.369 30.5885 198.9 31.1094C198.436 31.625 197.843 32.026 197.119 32.3125C196.395 32.5937 195.567 32.7344 194.634 32.7344ZM216.62 20.8984C216.547 20.2161 216.24 19.6849 215.698 19.3047C215.162 18.9245 214.464 18.7344 213.605 18.7344C213 18.7344 212.482 18.8255 212.05 19.0078C211.618 19.1901 211.287 19.4375 211.058 19.75C210.829 20.0625 210.711 20.4193 210.706 20.8203C210.706 21.1536 210.782 21.4427 210.933 21.6875C211.089 21.9323 211.3 22.1406 211.566 22.3125C211.831 22.4792 212.125 22.6198 212.448 22.7344C212.771 22.849 213.097 22.9453 213.425 23.0234L214.925 23.3984C215.529 23.5391 216.11 23.7292 216.667 23.9687C217.23 24.2083 217.732 24.5104 218.175 24.875C218.623 25.2396 218.977 25.6797 219.237 26.1953C219.498 26.7109 219.628 27.3151 219.628 28.0078C219.628 28.9453 219.388 29.7708 218.909 30.4844C218.43 31.1927 217.737 31.7474 216.831 32.1484C215.93 32.5443 214.839 32.7422 213.558 32.7422C212.313 32.7422 211.232 32.5495 210.316 32.1641C209.404 31.7786 208.691 31.2161 208.175 30.4766C207.665 29.737 207.388 28.8359 207.347 27.7734H210.198C210.24 28.3307 210.412 28.7943 210.714 29.1641C211.016 29.5339 211.409 29.8099 211.894 29.9922C212.383 30.1745 212.93 30.2656 213.534 30.2656C214.165 30.2656 214.717 30.1719 215.191 29.9844C215.67 29.7917 216.045 29.526 216.316 29.1875C216.586 28.8437 216.724 28.4427 216.73 27.9844C216.724 27.5677 216.602 27.224 216.362 26.9531C216.123 26.6771 215.787 26.4479 215.355 26.2656C214.928 26.0781 214.428 25.9115 213.855 25.7656L212.034 25.2969C210.717 24.9583 209.675 24.4453 208.909 23.7578C208.149 23.0651 207.769 22.1458 207.769 21C207.769 20.0573 208.024 19.2318 208.534 18.5234C209.05 17.8151 209.75 17.2656 210.636 16.875C211.521 16.4792 212.524 16.2812 213.644 16.2812C214.779 16.2812 215.774 16.4792 216.628 16.875C217.487 17.2656 218.162 17.8099 218.651 18.5078C219.141 19.2005 219.394 19.9974 219.409 20.8984H216.62ZM228.069 20.5V22.6875H221.171V20.5H228.069ZM222.874 17.625H225.702V28.8906C225.702 29.2708 225.759 29.5625 225.874 29.7656C225.994 29.9635 226.15 30.099 226.343 30.1719C226.535 30.2448 226.749 30.2812 226.983 30.2812C227.16 30.2812 227.322 30.2682 227.468 30.2422C227.619 30.2161 227.733 30.1927 227.811 30.1719L228.288 32.3828C228.137 32.4349 227.921 32.4922 227.64 32.5547C227.363 32.6172 227.025 32.6536 226.624 32.6641C225.916 32.6849 225.278 32.5781 224.71 32.3437C224.142 32.1042 223.692 31.7344 223.358 31.2344C223.03 30.7344 222.869 30.1094 222.874 29.3594V17.625ZM235.53 32.7344C234.358 32.7344 233.342 32.4766 232.483 31.9609C231.624 31.4453 230.957 30.724 230.483 29.7969C230.014 28.8698 229.78 27.7865 229.78 26.5469C229.78 25.3073 230.014 24.2214 230.483 23.2891C230.957 22.3568 231.624 21.6328 232.483 21.1172C233.342 20.6016 234.358 20.3438 235.53 20.3438C236.702 20.3438 237.717 20.6016 238.577 21.1172C239.436 21.6328 240.1 22.3568 240.569 23.2891C241.043 24.2214 241.28 25.3073 241.28 26.5469C241.28 27.7865 241.043 28.8698 240.569 29.7969C240.1 30.724 239.436 31.4453 238.577 31.9609C237.717 32.4766 236.702 32.7344 235.53 32.7344ZM235.546 30.4687C236.181 30.4687 236.712 30.2943 237.139 29.9453C237.566 29.5911 237.884 29.1172 238.092 28.5234C238.306 27.9297 238.413 27.2682 238.413 26.5391C238.413 25.8047 238.306 25.1406 238.092 24.5469C237.884 23.9479 237.566 23.4714 237.139 23.1172C236.712 22.763 236.181 22.5859 235.546 22.5859C234.895 22.5859 234.353 22.763 233.921 23.1172C233.493 23.4714 233.173 23.9479 232.96 24.5469C232.751 25.1406 232.647 25.8047 232.647 26.5391C232.647 27.2682 232.751 27.9297 232.96 28.5234C233.173 29.1172 233.493 29.5911 233.921 29.9453C234.353 30.2943 234.895 30.4687 235.546 30.4687ZM243.67 32.5V20.5H246.413V22.5H246.538C246.756 21.8073 247.131 21.2734 247.663 20.8984C248.199 20.5182 248.811 20.3281 249.498 20.3281C249.655 20.3281 249.829 20.3359 250.022 20.3516C250.22 20.362 250.384 20.3802 250.514 20.4062V23.0078C250.394 22.9661 250.204 22.9297 249.944 22.8984C249.689 22.862 249.441 22.8437 249.202 22.8437C248.686 22.8437 248.222 22.9557 247.811 23.1797C247.405 23.3984 247.084 23.7031 246.85 24.0937C246.616 24.4844 246.498 24.9349 246.498 25.4453V32.5H243.67ZM257.201 32.7344C255.998 32.7344 254.959 32.4844 254.084 31.9844C253.214 31.4792 252.545 30.7656 252.076 29.8437C251.608 28.9167 251.373 27.8255 251.373 26.5703C251.373 25.3359 251.608 24.2526 252.076 23.3203C252.55 22.3828 253.212 21.6536 254.061 21.1328C254.91 20.6068 255.907 20.3438 257.053 20.3438C257.792 20.3438 258.49 20.4635 259.147 20.7031C259.808 20.9375 260.391 21.3021 260.897 21.7969C261.407 22.2917 261.808 22.9219 262.1 23.6875C262.391 24.4479 262.537 25.3542 262.537 26.4062V27.2734H252.701V25.3672H259.826C259.821 24.8255 259.704 24.3437 259.475 23.9219C259.246 23.4948 258.925 23.1589 258.514 22.9141C258.108 22.6693 257.634 22.5469 257.092 22.5469C256.514 22.5469 256.006 22.6875 255.569 22.9687C255.131 23.2448 254.79 23.6094 254.545 24.0625C254.305 24.5104 254.183 25.0026 254.178 25.5391V27.2031C254.178 27.901 254.305 28.5 254.561 29C254.816 29.4948 255.173 29.875 255.631 30.1406C256.089 30.401 256.626 30.5312 257.24 30.5312C257.652 30.5312 258.024 30.474 258.358 30.3594C258.691 30.2396 258.98 30.0651 259.225 29.8359C259.47 29.6068 259.654 29.3229 259.779 28.9844L262.42 29.2812C262.253 29.9792 261.936 30.5885 261.467 31.1094C261.003 31.625 260.41 32.026 259.686 32.3125C258.962 32.5937 258.134 32.7344 257.201 32.7344Z" fill="#147D6F"/>
<defs>
<radialGradient id="paint0_radial_45_82" cx="0" cy="0" r="1" gradientUnits="userSpaceOnUse" gradientTransform="translate(4 4) rotate(90) scale(32)">
<stop stop-color="white"/>
<stop offset="1" stop-color="white" stop-opacity="0"/>
</radialGradient>
<clipPath id="clip0_45_82">
<rect width="48" height="48" rx="10" fill="white"/>
</clipPath>
</defs>
</svg>
