<svg width="308" height="48" viewBox="0 0 308 48" fill="none" xmlns="http://www.w3.org/2000/svg">
<g clip-path="url(#clip0_109_83)">
<rect width="48" height="48" rx="10" fill="#F2555A"/>
<g opacity="0.4">
<rect x="-28" y="-28" width="64" height="64" rx="10" fill="url(#paint0_radial_109_83)"/>
</g>
<path opacity="0.12" d="M27.2 14H20.8C19.1198 14 18.2798 14 17.638 14.327C17.0735 14.6146 16.6146 15.0735 16.327 15.638C16 16.2798 16 17.1198 16 18.8V29.2C16 30.8802 16 31.7202 16.327 32.362C16.6146 32.9265 17.0735 33.3854 17.638 33.673C18.2798 34 19.1198 34 20.7999 34H24.5L32 24.5V18.8C32 17.1198 32 16.2798 31.673 15.638C31.3854 15.0735 30.9265 14.6146 30.362 14.327C29.7202 14 28.8802 14 27.2 14Z" fill="white"/>
<path d="M32 24.5V18.8C32 17.1198 32 16.2798 31.673 15.638C31.3854 15.0735 30.9265 14.6146 30.362 14.327C29.7202 14 28.8802 14 27.2 14H20.8C19.1198 14 18.2798 14 17.638 14.327C17.0735 14.6146 16.6146 15.0735 16.327 15.638C16 16.2798 16 17.1198 16 18.8V29.2C16 30.8802 16 31.7202 16.327 32.362C16.6146 32.9265 17.0735 33.3854 17.638 33.673C18.2798 34 19.1198 34 20.7999 34H24.5M26 23H20M22 27H20M28 19H20M27 31L30 34M30 34L33 31M30 34V28" stroke="white" stroke-width="2" stroke-linecap="round" stroke-linejoin="round"/>
</g>
<path d="M69.5781 32.5V16.5H79.9844V18.9297H72.4766V23.2734H79.4453V25.7031H72.4766V30.0703H80.0469V32.5H69.5781ZM85.1189 20.5L87.5408 24.9297L90.0017 20.5H92.9939L89.3767 26.5L93.0564 32.5H90.0798L87.5408 28.1797L85.0252 32.5H82.0252L85.6814 26.5L82.1189 20.5H85.1189ZM95.1714 37V20.5H97.9527V22.4844H98.1167C98.2626 22.1927 98.4683 21.8828 98.7339 21.5547C98.9995 21.2214 99.3589 20.9375 99.812 20.7031C100.265 20.4635 100.843 20.3438 101.546 20.3438C102.473 20.3438 103.309 20.5807 104.054 21.0547C104.804 21.5234 105.398 22.2187 105.835 23.1406C106.278 24.0573 106.5 25.1823 106.5 26.5156C106.5 27.8333 106.283 28.9531 105.851 29.875C105.419 30.7969 104.83 31.5 104.085 31.9844C103.341 32.4688 102.497 32.7109 101.554 32.7109C100.867 32.7109 100.296 32.5964 99.8433 32.3672C99.3902 32.138 99.0256 31.862 98.7495 31.5391C98.4787 31.2109 98.2678 30.901 98.1167 30.6094H97.9995V37H95.1714ZM97.9448 26.5C97.9448 27.276 98.0542 27.9557 98.273 28.5391C98.4969 29.1224 98.8172 29.5781 99.2339 29.9062C99.6558 30.2292 100.166 30.3906 100.765 30.3906C101.39 30.3906 101.914 30.224 102.335 29.8906C102.757 29.5521 103.075 29.0911 103.289 28.5078C103.507 27.9193 103.617 27.25 103.617 26.5C103.617 25.7552 103.51 25.0937 103.296 24.5156C103.083 23.9375 102.765 23.4844 102.343 23.1562C101.921 22.8281 101.395 22.6641 100.765 22.6641C100.161 22.6641 99.648 22.8229 99.2261 23.1406C98.8042 23.4583 98.4839 23.9036 98.2652 24.4766C98.0516 25.0495 97.9448 25.724 97.9448 26.5ZM114.146 32.7344C112.974 32.7344 111.958 32.4766 111.099 31.9609C110.24 31.4453 109.573 30.724 109.099 29.7969C108.63 28.8698 108.396 27.7865 108.396 26.5469C108.396 25.3073 108.63 24.2214 109.099 23.2891C109.573 22.3568 110.24 21.6328 111.099 21.1172C111.958 20.6016 112.974 20.3438 114.146 20.3438C115.318 20.3438 116.333 20.6016 117.193 21.1172C118.052 21.6328 118.716 22.3568 119.185 23.2891C119.659 24.2214 119.896 25.3073 119.896 26.5469C119.896 27.7865 119.659 28.8698 119.185 29.7969C118.716 30.724 118.052 31.4453 117.193 31.9609C116.333 32.4766 115.318 32.7344 114.146 32.7344ZM114.161 30.4687C114.797 30.4687 115.328 30.2943 115.755 29.9453C116.182 29.5911 116.5 29.1172 116.708 28.5234C116.922 27.9297 117.029 27.2682 117.029 26.5391C117.029 25.8047 116.922 25.1406 116.708 24.5469C116.5 23.9479 116.182 23.4714 115.755 23.1172C115.328 22.763 114.797 22.5859 114.161 22.5859C113.51 22.5859 112.969 22.763 112.536 23.1172C112.109 23.4714 111.789 23.9479 111.575 24.5469C111.367 25.1406 111.263 25.8047 111.263 26.5391C111.263 27.2682 111.367 27.9297 111.575 28.5234C111.789 29.1172 112.109 29.5911 112.536 29.9453C112.969 30.2943 113.51 30.4687 114.161 30.4687ZM133.28 32.5H127.858V16.5H133.389C134.978 16.5 136.343 16.8203 137.483 17.4609C138.629 18.0964 139.509 19.0104 140.124 20.2031C140.738 21.3958 141.046 22.8229 141.046 24.4844C141.046 26.151 140.736 27.5833 140.116 28.7812C139.501 29.9792 138.613 30.8984 137.452 31.5391C136.296 32.1797 134.905 32.5 133.28 32.5ZM130.757 29.9922H133.139C134.254 29.9922 135.184 29.7891 135.929 29.3828C136.673 28.9714 137.233 28.3594 137.608 27.5469C137.983 26.7292 138.171 25.7083 138.171 24.4844C138.171 23.2604 137.983 22.2448 137.608 21.4375C137.233 20.625 136.679 20.0182 135.944 19.6172C135.215 19.2109 134.309 19.0078 133.225 19.0078H130.757V29.9922ZM148.899 32.7344C147.727 32.7344 146.711 32.4766 145.852 31.9609C144.993 31.4453 144.326 30.724 143.852 29.7969C143.383 28.8698 143.149 27.7865 143.149 26.5469C143.149 25.3073 143.383 24.2214 143.852 23.2891C144.326 22.3568 144.993 21.6328 145.852 21.1172C146.711 20.6016 147.727 20.3438 148.899 20.3438C150.071 20.3438 151.086 20.6016 151.946 21.1172C152.805 21.6328 153.469 22.3568 153.938 23.2891C154.412 24.2214 154.649 25.3073 154.649 26.5469C154.649 27.7865 154.412 28.8698 153.938 29.7969C153.469 30.724 152.805 31.4453 151.946 31.9609C151.086 32.4766 150.071 32.7344 148.899 32.7344ZM148.915 30.4687C149.55 30.4687 150.081 30.2943 150.508 29.9453C150.935 29.5911 151.253 29.1172 151.461 28.5234C151.675 27.9297 151.782 27.2682 151.782 26.5391C151.782 25.8047 151.675 25.1406 151.461 24.5469C151.253 23.9479 150.935 23.4714 150.508 23.1172C150.081 22.763 149.55 22.5859 148.915 22.5859C148.264 22.5859 147.722 22.763 147.29 23.1172C146.863 23.4714 146.542 23.9479 146.329 24.5469C146.12 25.1406 146.016 25.8047 146.016 26.5391C146.016 27.2682 146.12 27.9297 146.329 28.5234C146.542 29.1172 146.863 29.5911 147.29 29.9453C147.722 30.2943 148.264 30.4687 148.915 30.4687ZM162.274 32.7344C161.076 32.7344 160.047 32.4714 159.188 31.9453C158.334 31.4193 157.675 30.6927 157.211 29.7656C156.753 28.8333 156.524 27.7604 156.524 26.5469C156.524 25.3281 156.758 24.2526 157.227 23.3203C157.696 22.3828 158.357 21.6536 159.211 21.1328C160.071 20.6068 161.086 20.3438 162.258 20.3438C163.232 20.3438 164.094 20.5234 164.844 20.8828C165.599 21.237 166.201 21.7396 166.649 22.3906C167.097 23.0365 167.352 23.7917 167.414 24.6562H164.711C164.602 24.0781 164.341 23.5964 163.93 23.2109C163.524 22.8203 162.979 22.625 162.297 22.625C161.719 22.625 161.211 22.7812 160.774 23.0937C160.336 23.401 159.995 23.8437 159.75 24.4219C159.511 25 159.391 25.6927 159.391 26.5C159.391 27.3177 159.511 28.0208 159.75 28.6094C159.99 29.1927 160.326 29.6432 160.758 29.9609C161.196 30.2734 161.709 30.4297 162.297 30.4297C162.714 30.4297 163.086 30.3516 163.414 30.1953C163.748 30.0339 164.026 29.8021 164.25 29.5C164.474 29.1979 164.628 28.8307 164.711 28.3984H167.414C167.347 29.2474 167.097 30 166.664 30.6562C166.232 31.3073 165.644 31.8177 164.899 32.1875C164.154 32.5521 163.279 32.7344 162.274 32.7344ZM177.375 27.4531V20.5H180.203V32.5H177.461V30.3672H177.336C177.065 31.0391 176.62 31.5885 176 32.0156C175.385 32.4427 174.628 32.6563 173.727 32.6563C172.94 32.6563 172.245 32.4818 171.641 32.1328C171.042 31.7786 170.573 31.2656 170.234 30.5938C169.896 29.9167 169.727 29.099 169.727 28.1406V20.5H172.555V27.7031C172.555 28.4635 172.763 29.0677 173.18 29.5156C173.596 29.9635 174.143 30.1875 174.82 30.1875C175.237 30.1875 175.641 30.0859 176.031 29.8828C176.422 29.6797 176.742 29.3776 176.992 28.9766C177.247 28.5703 177.375 28.0625 177.375 27.4531ZM183.101 32.5V20.5H185.805V22.5391H185.945C186.195 21.8516 186.609 21.3151 187.187 20.9297C187.765 20.5391 188.456 20.3438 189.258 20.3438C190.07 20.3438 190.755 20.5417 191.312 20.9375C191.875 21.3281 192.271 21.862 192.5 22.5391H192.625C192.89 21.8724 193.338 21.3411 193.969 20.9453C194.604 20.5443 195.357 20.3438 196.226 20.3438C197.331 20.3438 198.232 20.6927 198.93 21.3906C199.627 22.0885 199.976 23.1068 199.976 24.4453V32.5H197.14V24.8828C197.14 24.138 196.943 23.5937 196.547 23.25C196.151 22.901 195.667 22.7266 195.094 22.7266C194.411 22.7266 193.877 22.9401 193.492 23.3672C193.112 23.7891 192.922 24.3385 192.922 25.0156V32.5H190.148V24.7656C190.148 24.1458 189.961 23.651 189.586 23.2812C189.216 22.9115 188.732 22.7266 188.133 22.7266C187.726 22.7266 187.357 22.8307 187.023 23.0391C186.69 23.2422 186.424 23.5312 186.226 23.9062C186.028 24.276 185.93 24.7083 185.93 25.2031V32.5H183.101ZM208.148 32.7344C206.945 32.7344 205.906 32.4844 205.031 31.9844C204.161 31.4792 203.492 30.7656 203.023 29.8437C202.554 28.9167 202.32 27.8255 202.32 26.5703C202.32 25.3359 202.554 24.2526 203.023 23.3203C203.497 22.3828 204.158 21.6536 205.007 21.1328C205.856 20.6068 206.854 20.3438 208 20.3438C208.739 20.3438 209.437 20.4635 210.093 20.7031C210.755 20.9375 211.338 21.3021 211.843 21.7969C212.354 22.2917 212.755 22.9219 213.046 23.6875C213.338 24.4479 213.484 25.3542 213.484 26.4062V27.2734H203.648V25.3672H210.773C210.768 24.8255 210.651 24.3437 210.421 23.9219C210.192 23.4948 209.872 23.1589 209.461 22.9141C209.054 22.6693 208.58 22.5469 208.039 22.5469C207.461 22.5469 206.953 22.6875 206.515 22.9687C206.078 23.2448 205.737 23.6094 205.492 24.0625C205.252 24.5104 205.13 25.0026 205.125 25.5391V27.2031C205.125 27.901 205.252 28.5 205.507 29C205.763 29.4948 206.119 29.875 206.578 30.1406C207.036 30.401 207.573 30.5312 208.187 30.5312C208.599 30.5312 208.971 30.474 209.304 30.3594C209.638 30.2396 209.927 30.0651 210.171 29.8359C210.416 29.6068 210.601 29.3229 210.726 28.9844L213.367 29.2812C213.2 29.9792 212.882 30.5885 212.414 31.1094C211.95 31.625 211.356 32.026 210.632 32.3125C209.908 32.5937 209.08 32.7344 208.148 32.7344ZM218.695 25.4687V32.5H215.867V20.5H218.57V22.5391H218.71C218.986 21.8672 219.426 21.3333 220.031 20.9375C220.64 20.5417 221.393 20.3438 222.288 20.3438C223.117 20.3438 223.838 20.5208 224.452 20.875C225.072 21.2292 225.551 21.7422 225.89 22.4141C226.234 23.0859 226.403 23.901 226.398 24.8594V32.5H223.57V25.2969C223.57 24.4948 223.361 23.8672 222.945 23.4141C222.533 22.9609 221.963 22.7344 221.234 22.7344C220.739 22.7344 220.299 22.8437 219.913 23.0625C219.533 23.276 219.234 23.5859 219.015 23.9922C218.801 24.3984 218.695 24.8906 218.695 25.4687ZM235.255 20.5V22.6875H228.357V20.5H235.255ZM230.06 17.625H232.888V28.8906C232.888 29.2708 232.945 29.5625 233.06 29.7656C233.179 29.9635 233.336 30.099 233.528 30.1719C233.721 30.2448 233.935 30.2812 234.169 30.2812C234.346 30.2812 234.508 30.2682 234.653 30.2422C234.804 30.2161 234.919 30.1927 234.997 30.1719L235.474 32.3828C235.323 32.4349 235.107 32.4922 234.825 32.5547C234.549 32.6172 234.211 32.6536 233.81 32.6641C233.101 32.6849 232.463 32.5781 231.896 32.3437C231.328 32.1042 230.877 31.7344 230.544 31.2344C230.216 30.7344 230.054 30.1094 230.06 29.3594V17.625ZM243.182 32.5V16.5H249.182C250.411 16.5 251.443 16.7292 252.276 17.1875C253.115 17.6458 253.747 18.276 254.174 19.0781C254.607 19.875 254.823 20.7812 254.823 21.7969C254.823 22.8229 254.607 23.7344 254.174 24.5313C253.742 25.3281 253.104 25.9557 252.26 26.4141C251.417 26.8672 250.378 27.0937 249.143 27.0937H245.167V24.7109H248.753C249.471 24.7109 250.06 24.5859 250.518 24.3359C250.977 24.0859 251.315 23.7422 251.534 23.3047C251.758 22.8672 251.87 22.3646 251.87 21.7969C251.87 21.2292 251.758 20.7292 251.534 20.2969C251.315 19.8646 250.974 19.5286 250.51 19.2891C250.052 19.0443 249.461 18.9219 248.737 18.9219H246.081V32.5H243.182ZM257.205 32.5V20.5H260.034V32.5H257.205ZM258.627 18.7969C258.179 18.7969 257.794 18.6484 257.471 18.3516C257.148 18.0495 256.987 17.6875 256.987 17.2656C256.987 16.8385 257.148 16.4766 257.471 16.1797C257.794 15.8776 258.179 15.7266 258.627 15.7266C259.08 15.7266 259.466 15.8776 259.784 16.1797C260.107 16.4766 260.268 16.8385 260.268 17.2656C260.268 17.6875 260.107 18.0495 259.784 18.3516C259.466 18.6484 259.08 18.7969 258.627 18.7969ZM268.166 32.7344C266.968 32.7344 265.94 32.4714 265.08 31.9453C264.226 31.4193 263.567 30.6927 263.104 29.7656C262.645 28.8333 262.416 27.7604 262.416 26.5469C262.416 25.3281 262.651 24.2526 263.119 23.3203C263.588 22.3828 264.25 21.6536 265.104 21.1328C265.963 20.6068 266.979 20.3438 268.151 20.3438C269.125 20.3438 269.986 20.5234 270.736 20.8828C271.492 21.237 272.093 21.7396 272.541 22.3906C272.989 23.0365 273.244 23.7917 273.307 24.6562H270.604C270.494 24.0781 270.234 23.5964 269.822 23.2109C269.416 22.8203 268.872 22.625 268.19 22.625C267.611 22.625 267.104 22.7812 266.666 23.0937C266.229 23.401 265.888 23.8437 265.643 24.4219C265.403 25 265.283 25.6927 265.283 26.5C265.283 27.3177 265.403 28.0208 265.643 28.6094C265.882 29.1927 266.218 29.6432 266.651 29.9609C267.088 30.2734 267.601 30.4297 268.19 30.4297C268.606 30.4297 268.979 30.3516 269.307 30.1953C269.64 30.0339 269.919 29.8021 270.143 29.5C270.367 29.1979 270.52 28.8307 270.604 28.3984H273.307C273.239 29.2474 272.989 30 272.557 30.6562C272.125 31.3073 271.536 31.8177 270.791 32.1875C270.046 32.5521 269.171 32.7344 268.166 32.7344ZM278.197 28.7344L278.189 25.3203H278.643L282.955 20.5H286.26L280.955 26.4062H280.369L278.197 28.7344ZM275.619 32.5V16.5H278.447V32.5H275.619ZM283.15 32.5L279.244 27.0391L281.15 25.0469L286.533 32.5H283.15ZM292.953 32.7344C291.75 32.7344 290.711 32.4844 289.836 31.9844C288.966 31.4792 288.297 30.7656 287.828 29.8437C287.359 28.9167 287.125 27.8255 287.125 26.5703C287.125 25.3359 287.359 24.2526 287.828 23.3203C288.302 22.3828 288.963 21.6536 289.812 21.1328C290.661 20.6068 291.659 20.3438 292.804 20.3438C293.544 20.3438 294.242 20.4635 294.898 20.7031C295.56 20.9375 296.143 21.3021 296.648 21.7969C297.159 22.2917 297.56 22.9219 297.851 23.6875C298.143 24.4479 298.289 25.3542 298.289 26.4062V27.2734H288.453V25.3672H295.578C295.573 24.8255 295.455 24.3437 295.226 23.9219C294.997 23.4948 294.677 23.1589 294.265 22.9141C293.859 22.6693 293.385 22.5469 292.843 22.5469C292.265 22.5469 291.758 22.6875 291.32 22.9687C290.883 23.2448 290.541 23.6094 290.297 24.0625C290.057 24.5104 289.935 25.0026 289.929 25.5391V27.2031C289.929 27.901 290.057 28.5 290.312 29C290.567 29.4948 290.924 29.875 291.383 30.1406C291.841 30.401 292.377 30.5312 292.992 30.5312C293.403 30.5312 293.776 30.474 294.109 30.3594C294.442 30.2396 294.731 30.0651 294.976 29.8359C295.221 29.6068 295.406 29.3229 295.531 28.9844L298.172 29.2812C298.005 29.9792 297.687 30.5885 297.218 31.1094C296.755 31.625 296.161 32.026 295.437 32.3125C294.713 32.5937 293.885 32.7344 292.953 32.7344ZM300.671 32.5V20.5H303.414V22.5H303.539C303.757 21.8073 304.132 21.2734 304.664 20.8984C305.2 20.5182 305.812 20.3281 306.499 20.3281C306.656 20.3281 306.83 20.3359 307.023 20.3516C307.221 20.362 307.385 20.3802 307.515 20.4062V23.0078C307.395 22.9661 307.205 22.9297 306.945 22.8984C306.69 22.862 306.442 22.8437 306.203 22.8437C305.687 22.8437 305.223 22.9557 304.812 23.1797C304.406 23.3984 304.085 23.7031 303.851 24.0937C303.617 24.4844 303.499 24.9349 303.499 25.4453V32.5H300.671Z" fill="#F2555A"/>
<defs>
<radialGradient id="paint0_radial_109_83" cx="0" cy="0" r="1" gradientUnits="userSpaceOnUse" gradientTransform="translate(4 4) rotate(90) scale(32)">
<stop stop-color="white"/>
<stop offset="1" stop-color="white" stop-opacity="0"/>
</radialGradient>
<clipPath id="clip0_109_83">
<rect width="48" height="48" rx="10" fill="white"/>
</clipPath>
</defs>
</svg>
