<svg width="214" height="48" viewBox="0 0 214 48" fill="none" xmlns="http://www.w3.org/2000/svg">
<g clip-path="url(#clip0_45_256)">
<rect width="48" height="48" rx="10" fill="#3E63DD"/>
<g opacity="0.4">
<rect x="-28" y="-28" width="64" height="64" rx="10" fill="url(#paint0_radial_45_256)"/>
</g>
<path opacity="0.4" d="M29.7453 28C30.5362 26.8661 31 25.4872 31 24C31 23.4851 30.9444 22.9832 30.8389 22.5M18.2547 28C17.4638 26.8662 17 25.4872 17 24C17 20.134 20.134 17 24 17C24.4221 17 24.8355 17.0374 25.2371 17.109" stroke="white" stroke-width="2" stroke-linecap="round" stroke-linejoin="round"/>
<path d="M28.4999 19.5L23.9999 24M34 24C34 29.5228 29.5228 34 24 34C18.4772 34 14 29.5228 14 24C14 18.4772 18.4772 14 24 14C29.5228 14 34 18.4772 34 24ZM25 24C25 24.5523 24.5523 25 24 25C23.4477 25 23 24.5523 23 24C23 23.4477 23.4477 23 24 23C24.5523 23 25 23.4477 25 24Z" stroke="white" stroke-width="2" stroke-linecap="round" stroke-linejoin="round"/>
</g>
<path d="M69.5781 32.5V16.5H79.9844V18.9297H72.4766V23.2734H79.4453V25.7031H72.4766V30.0703H80.0469V32.5H69.5781ZM85.1189 20.5L87.5408 24.9297L90.0017 20.5H92.9939L89.3767 26.5L93.0564 32.5H90.0798L87.5408 28.1797L85.0252 32.5H82.0252L85.6814 26.5L82.1189 20.5H85.1189ZM95.1714 37V20.5H97.9527V22.4844H98.1167C98.2626 22.1927 98.4683 21.8828 98.7339 21.5547C98.9995 21.2214 99.3589 20.9375 99.812 20.7031C100.265 20.4635 100.843 20.3438 101.546 20.3438C102.473 20.3438 103.309 20.5807 104.054 21.0547C104.804 21.5234 105.398 22.2187 105.835 23.1406C106.278 24.0573 106.5 25.1823 106.5 26.5156C106.5 27.8333 106.283 28.9531 105.851 29.875C105.419 30.7969 104.83 31.5 104.085 31.9844C103.341 32.4688 102.497 32.7109 101.554 32.7109C100.867 32.7109 100.296 32.5964 99.8433 32.3672C99.3902 32.138 99.0256 31.862 98.7495 31.5391C98.4787 31.2109 98.2678 30.901 98.1167 30.6094H97.9995V37H95.1714ZM97.9448 26.5C97.9448 27.276 98.0542 27.9557 98.273 28.5391C98.4969 29.1224 98.8172 29.5781 99.2339 29.9062C99.6558 30.2292 100.166 30.3906 100.765 30.3906C101.39 30.3906 101.914 30.224 102.335 29.8906C102.757 29.5521 103.075 29.0911 103.289 28.5078C103.507 27.9193 103.617 27.25 103.617 26.5C103.617 25.7552 103.51 25.0937 103.296 24.5156C103.083 23.9375 102.765 23.4844 102.343 23.1562C101.921 22.8281 101.395 22.6641 100.765 22.6641C100.161 22.6641 99.648 22.8229 99.2261 23.1406C98.8042 23.4583 98.4839 23.9036 98.2652 24.4766C98.0516 25.0495 97.9448 25.724 97.9448 26.5ZM114.146 32.7344C112.974 32.7344 111.958 32.4766 111.099 31.9609C110.24 31.4453 109.573 30.724 109.099 29.7969C108.63 28.8698 108.396 27.7865 108.396 26.5469C108.396 25.3073 108.63 24.2214 109.099 23.2891C109.573 22.3568 110.24 21.6328 111.099 21.1172C111.958 20.6016 112.974 20.3438 114.146 20.3438C115.318 20.3438 116.333 20.6016 117.193 21.1172C118.052 21.6328 118.716 22.3568 119.185 23.2891C119.659 24.2214 119.896 25.3073 119.896 26.5469C119.896 27.7865 119.659 28.8698 119.185 29.7969C118.716 30.724 118.052 31.4453 117.193 31.9609C116.333 32.4766 115.318 32.7344 114.146 32.7344ZM114.161 30.4687C114.797 30.4687 115.328 30.2943 115.755 29.9453C116.182 29.5911 116.5 29.1172 116.708 28.5234C116.922 27.9297 117.029 27.2682 117.029 26.5391C117.029 25.8047 116.922 25.1406 116.708 24.5469C116.5 23.9479 116.182 23.4714 115.755 23.1172C115.328 22.763 114.797 22.5859 114.161 22.5859C113.51 22.5859 112.969 22.763 112.536 23.1172C112.109 23.4714 111.789 23.9479 111.575 24.5469C111.367 25.1406 111.263 25.8047 111.263 26.5391C111.263 27.2682 111.367 27.9297 111.575 28.5234C111.789 29.1172 112.109 29.5911 112.536 29.9453C112.969 30.2943 113.51 30.4687 114.161 30.4687ZM136.554 20.8984C136.481 20.2161 136.173 19.6849 135.632 19.3047C135.095 18.9245 134.397 18.7344 133.538 18.7344C132.934 18.7344 132.415 18.8255 131.983 19.0078C131.551 19.1901 131.22 19.4375 130.991 19.75C130.762 20.0625 130.645 20.4193 130.639 20.8203C130.639 21.1536 130.715 21.4427 130.866 21.6875C131.022 21.9323 131.233 22.1406 131.499 22.3125C131.764 22.4792 132.059 22.6198 132.382 22.7344C132.705 22.849 133.03 22.9453 133.358 23.0234L134.858 23.3984C135.462 23.5391 136.043 23.7292 136.6 23.9687C137.163 24.2083 137.665 24.5104 138.108 24.875C138.556 25.2396 138.91 25.6797 139.171 26.1953C139.431 26.7109 139.561 27.3151 139.561 28.0078C139.561 28.9453 139.322 29.7708 138.843 30.4844C138.363 31.1927 137.671 31.7474 136.764 32.1484C135.863 32.5443 134.772 32.7422 133.491 32.7422C132.246 32.7422 131.165 32.5495 130.249 32.1641C129.337 31.7786 128.624 31.2161 128.108 30.4766C127.598 29.737 127.322 28.8359 127.28 27.7734H130.132C130.173 28.3307 130.345 28.7943 130.647 29.1641C130.949 29.5339 131.343 29.8099 131.827 29.9922C132.317 30.1745 132.863 30.2656 133.468 30.2656C134.098 30.2656 134.65 30.1719 135.124 29.9844C135.603 29.7917 135.978 29.526 136.249 29.1875C136.52 28.8437 136.658 28.4427 136.663 27.9844C136.658 27.5677 136.535 27.224 136.296 26.9531C136.056 26.6771 135.72 26.4479 135.288 26.2656C134.861 26.0781 134.361 25.9115 133.788 25.7656L131.968 25.2969C130.65 24.9583 129.608 24.4453 128.843 23.7578C128.082 23.0651 127.702 22.1458 127.702 21C127.702 20.0573 127.957 19.2318 128.468 18.5234C128.983 17.8151 129.684 17.2656 130.569 16.875C131.455 16.4792 132.457 16.2812 133.577 16.2812C134.712 16.2812 135.707 16.4792 136.561 16.875C137.421 17.2656 138.095 17.8099 138.585 18.5078C139.074 19.2005 139.327 19.9974 139.343 20.8984H136.554ZM147.323 32.7344C146.12 32.7344 145.081 32.4844 144.206 31.9844C143.336 31.4792 142.667 30.7656 142.198 29.8437C141.729 28.9167 141.495 27.8255 141.495 26.5703C141.495 25.3359 141.729 24.2526 142.198 23.3203C142.672 22.3828 143.333 21.6536 144.182 21.1328C145.031 20.6068 146.029 20.3438 147.174 20.3438C147.914 20.3438 148.612 20.4635 149.268 20.7031C149.93 20.9375 150.513 21.3021 151.018 21.7969C151.529 22.2917 151.93 22.9219 152.221 23.6875C152.513 24.4479 152.659 25.3542 152.659 26.4062V27.2734H142.823V25.3672H149.948C149.943 24.8255 149.825 24.3437 149.596 23.9219C149.367 23.4948 149.047 23.1589 148.635 22.9141C148.229 22.6693 147.755 22.5469 147.213 22.5469C146.635 22.5469 146.128 22.6875 145.69 22.9687C145.253 23.2448 144.911 23.6094 144.667 24.0625C144.427 24.5104 144.305 25.0026 144.299 25.5391V27.2031C144.299 27.901 144.427 28.5 144.682 29C144.937 29.4948 145.294 29.875 145.753 30.1406C146.211 30.401 146.747 30.5312 147.362 30.5312C147.773 30.5312 148.146 30.474 148.479 30.3594C148.812 30.2396 149.101 30.0651 149.346 29.8359C149.591 29.6068 149.776 29.3229 149.901 28.9844L152.542 29.2812C152.375 29.9792 152.057 30.5885 151.588 31.1094C151.125 31.625 150.531 32.026 149.807 32.3125C149.083 32.5937 148.255 32.7344 147.323 32.7344ZM157.869 25.4687V32.5H155.041V20.5H157.744V22.5391H157.885C158.161 21.8672 158.601 21.3333 159.205 20.9375C159.815 20.5417 160.567 20.3438 161.463 20.3438C162.291 20.3438 163.013 20.5208 163.627 20.875C164.247 21.2292 164.726 21.7422 165.065 22.4141C165.409 23.0859 165.578 23.901 165.573 24.8594V32.5H162.744V25.2969C162.744 24.4948 162.536 23.8672 162.119 23.4141C161.708 22.9609 161.138 22.7344 160.409 22.7344C159.914 22.7344 159.474 22.8437 159.088 23.0625C158.708 23.276 158.409 23.5859 158.19 23.9922C157.976 24.3984 157.869 24.8906 157.869 25.4687ZM177.922 23.6719L175.344 23.9531C175.271 23.6927 175.143 23.4479 174.961 23.2188C174.784 22.9896 174.544 22.8047 174.242 22.6641C173.94 22.5234 173.57 22.4531 173.133 22.4531C172.544 22.4531 172.05 22.5807 171.649 22.8359C171.253 23.0911 171.057 23.4219 171.063 23.8281C171.057 24.1771 171.185 24.4609 171.445 24.6797C171.711 24.8984 172.149 25.0781 172.758 25.2188L174.805 25.6562C175.94 25.901 176.784 26.2891 177.336 26.8203C177.893 27.3516 178.175 28.0469 178.18 28.9062C178.175 29.6615 177.953 30.3281 177.516 30.9062C177.083 31.4792 176.482 31.9271 175.711 32.25C174.94 32.5729 174.055 32.7344 173.055 32.7344C171.586 32.7344 170.404 32.4271 169.508 31.8125C168.612 31.1927 168.078 30.3307 167.906 29.2266L170.664 28.9609C170.789 29.5026 171.055 29.9115 171.461 30.1875C171.867 30.4635 172.396 30.6016 173.047 30.6016C173.719 30.6016 174.258 30.4635 174.664 30.1875C175.076 29.9115 175.281 29.5703 175.281 29.1641C175.281 28.8203 175.149 28.5365 174.883 28.3125C174.622 28.0885 174.216 27.9167 173.664 27.7969L171.617 27.3672C170.466 27.1276 169.615 26.724 169.063 26.1562C168.51 25.5833 168.237 24.8594 168.242 23.9844C168.237 23.2448 168.438 22.6042 168.844 22.0625C169.255 21.5156 169.826 21.0937 170.555 20.7969C171.289 20.4948 172.135 20.3438 173.094 20.3438C174.5 20.3438 175.607 20.6432 176.414 21.2422C177.227 21.8411 177.729 22.651 177.922 23.6719ZM185.736 32.7344C184.564 32.7344 183.549 32.4766 182.689 31.9609C181.83 31.4453 181.163 30.724 180.689 29.7969C180.221 28.8698 179.986 27.7865 179.986 26.5469C179.986 25.3073 180.221 24.2214 180.689 23.2891C181.163 22.3568 181.83 21.6328 182.689 21.1172C183.549 20.6016 184.564 20.3438 185.736 20.3438C186.908 20.3438 187.924 20.6016 188.783 21.1172C189.642 21.6328 190.306 22.3568 190.775 23.2891C191.249 24.2214 191.486 25.3073 191.486 26.5469C191.486 27.7865 191.249 28.8698 190.775 29.7969C190.306 30.724 189.642 31.4453 188.783 31.9609C187.924 32.4766 186.908 32.7344 185.736 32.7344ZM185.752 30.4687C186.387 30.4687 186.918 30.2943 187.346 29.9453C187.773 29.5911 188.09 29.1172 188.299 28.5234C188.512 27.9297 188.619 27.2682 188.619 26.5391C188.619 25.8047 188.512 25.1406 188.299 24.5469C188.09 23.9479 187.773 23.4714 187.346 23.1172C186.918 22.763 186.387 22.5859 185.752 22.5859C185.101 22.5859 184.559 22.763 184.127 23.1172C183.7 23.4714 183.379 23.9479 183.166 24.5469C182.958 25.1406 182.853 25.8047 182.853 26.5391C182.853 27.2682 182.958 27.9297 183.166 28.5234C183.379 29.1172 183.7 29.5911 184.127 29.9453C184.559 30.2943 185.101 30.4687 185.752 30.4687ZM193.877 32.5V20.5H196.619V22.5H196.744C196.963 21.8073 197.338 21.2734 197.869 20.8984C198.405 20.5182 199.017 20.3281 199.705 20.3281C199.861 20.3281 200.035 20.3359 200.228 20.3516C200.426 20.362 200.59 20.3802 200.72 20.4062V23.0078C200.601 22.9661 200.41 22.9297 200.15 22.8984C199.895 22.862 199.647 22.8437 199.408 22.8437C198.892 22.8437 198.429 22.9557 198.017 23.1797C197.611 23.3984 197.291 23.7031 197.056 24.0937C196.822 24.4844 196.705 24.9349 196.705 25.4453V32.5H193.877ZM212.074 23.6719L209.495 23.9531C209.423 23.6927 209.295 23.4479 209.113 23.2188C208.936 22.9896 208.696 22.8047 208.394 22.6641C208.092 22.5234 207.722 22.4531 207.285 22.4531C206.696 22.4531 206.201 22.5807 205.8 22.8359C205.404 23.0911 205.209 23.4219 205.214 23.8281C205.209 24.1771 205.337 24.4609 205.597 24.6797C205.863 24.8984 206.3 25.0781 206.91 25.2188L208.956 25.6562C210.092 25.901 210.936 26.2891 211.488 26.8203C212.045 27.3516 212.326 28.0469 212.331 28.9062C212.326 29.6615 212.105 30.3281 211.667 30.9062C211.235 31.4792 210.633 31.9271 209.863 32.25C209.092 32.5729 208.206 32.7344 207.206 32.7344C205.738 32.7344 204.555 32.4271 203.66 31.8125C202.764 31.1927 202.23 30.3307 202.058 29.2266L204.816 28.9609C204.941 29.5026 205.206 29.9115 205.613 30.1875C206.019 30.4635 206.548 30.6016 207.199 30.6016C207.87 30.6016 208.41 30.4635 208.816 30.1875C209.227 29.9115 209.433 29.5703 209.433 29.1641C209.433 28.8203 209.3 28.5365 209.035 28.3125C208.774 28.0885 208.368 27.9167 207.816 27.7969L205.769 27.3672C204.618 27.1276 203.766 26.724 203.214 26.1562C202.662 25.5833 202.389 24.8594 202.394 23.9844C202.389 23.2448 202.589 22.6042 202.995 22.0625C203.407 21.5156 203.977 21.0937 204.706 20.7969C205.441 20.4948 206.287 20.3438 207.245 20.3438C208.652 20.3438 209.758 20.6432 210.566 21.2422C211.378 21.8411 211.881 22.651 212.074 23.6719Z" fill="#3E63DD"/>
<defs>
<radialGradient id="paint0_radial_45_256" cx="0" cy="0" r="1" gradientUnits="userSpaceOnUse" gradientTransform="translate(4 4) rotate(90) scale(32)">
<stop stop-color="white"/>
<stop offset="1" stop-color="white" stop-opacity="0"/>
</radialGradient>
<clipPath id="clip0_45_256">
<rect width="48" height="48" rx="10" fill="white"/>
</clipPath>
</defs>
</svg>
