<svg width="266" height="48" viewBox="0 0 266 48" fill="none" xmlns="http://www.w3.org/2000/svg">
<g clip-path="url(#clip0_107_88)">
<rect width="48" height="48" rx="10" fill="#F0C000"/>
<g opacity="0.4">
<rect x="-28" y="-28" width="64" height="64" rx="10" fill="url(#paint0_radial_107_88)"/>
</g>
<path opacity="0.12" d="M23.2827 15.4533C23.5131 14.9864 23.6284 14.7529 23.7848 14.6783C23.9209 14.6134 24.0791 14.6134 24.2152 14.6783C24.3717 14.7529 24.4869 14.9864 24.7174 15.4533L26.9041 19.8833C26.9721 20.0211 27.0061 20.0901 27.0558 20.1436C27.0999 20.191 27.1527 20.2293 27.2113 20.2566C27.2776 20.2874 27.3536 20.2985 27.5057 20.3208L32.397 21.0357C32.9121 21.111 33.1696 21.1486 33.2888 21.2744C33.3925 21.3839 33.4412 21.5343 33.4215 21.6838C33.3988 21.8556 33.2124 22.0372 32.8395 22.4004L29.3014 25.8464C29.1912 25.9538 29.136 26.0076 29.1004 26.0715C29.0689 26.128 29.0487 26.1902 29.0409 26.2545C29.0321 26.3271 29.0451 26.403 29.0711 26.5547L29.906 31.4221C29.994 31.9355 30.038 32.1922 29.9553 32.3445C29.8833 32.477 29.7554 32.57 29.6071 32.5975C29.4366 32.6291 29.2061 32.5078 28.7451 32.2654L24.3724 29.9658C24.2361 29.8942 24.168 29.8584 24.0962 29.8443C24.0327 29.8318 23.9673 29.8318 23.9038 29.8443C23.832 29.8584 23.7639 29.8942 23.6277 29.9658L19.2549 32.2654C18.7939 32.5078 18.5634 32.6291 18.393 32.5975C18.2447 32.57 18.1167 32.477 18.0447 32.3445C17.962 32.1922 18.006 31.9355 18.0941 31.4221L18.9289 26.5547C18.9549 26.403 18.9679 26.3271 18.9591 26.2545C18.9513 26.1902 18.9311 26.128 18.8996 26.0715C18.864 26.0076 18.8089 25.9538 18.6986 25.8464L15.1606 22.4004C14.7877 22.0372 14.6012 21.8556 14.5785 21.6838C14.5588 21.5343 14.6076 21.3839 14.7113 21.2744C14.8304 21.1486 15.088 21.111 15.603 21.0357L20.4943 20.3208C20.6464 20.2985 20.7225 20.2874 20.7887 20.2566C20.8474 20.2293 20.9002 20.191 20.9442 20.1436C20.9939 20.0901 21.0279 20.0211 21.096 19.8833L23.2827 15.4533Z" fill="white"/>
<path d="M23.2827 15.4533C23.5131 14.9864 23.6284 14.7529 23.7848 14.6783C23.9209 14.6134 24.0791 14.6134 24.2152 14.6783C24.3717 14.7529 24.4869 14.9864 24.7174 15.4533L26.9041 19.8833C26.9721 20.0211 27.0061 20.0901 27.0558 20.1436C27.0999 20.191 27.1527 20.2293 27.2113 20.2566C27.2776 20.2874 27.3536 20.2985 27.5057 20.3208L32.397 21.0357C32.9121 21.111 33.1696 21.1486 33.2888 21.2744C33.3925 21.3839 33.4412 21.5343 33.4215 21.6838C33.3988 21.8556 33.2124 22.0372 32.8395 22.4004L29.3014 25.8464C29.1912 25.9538 29.136 26.0076 29.1004 26.0715C29.0689 26.128 29.0487 26.1902 29.0409 26.2545C29.0321 26.3271 29.0451 26.403 29.0711 26.5547L29.906 31.4221C29.994 31.9355 30.038 32.1922 29.9553 32.3445C29.8833 32.477 29.7554 32.57 29.6071 32.5975C29.4366 32.6291 29.2061 32.5078 28.7451 32.2654L24.3724 29.9658C24.2361 29.8942 24.168 29.8584 24.0962 29.8443C24.0327 29.8318 23.9673 29.8318 23.9038 29.8443C23.832 29.8584 23.7639 29.8942 23.6277 29.9658L19.2549 32.2654C18.7939 32.5078 18.5634 32.6291 18.393 32.5975C18.2447 32.57 18.1167 32.477 18.0447 32.3445C17.962 32.1922 18.006 31.9355 18.0941 31.4221L18.9289 26.5547C18.9549 26.403 18.9679 26.3271 18.9591 26.2545C18.9513 26.1902 18.9311 26.128 18.8996 26.0715C18.864 26.0076 18.8089 25.9538 18.6986 25.8464L15.1606 22.4004C14.7877 22.0372 14.6012 21.8556 14.5785 21.6838C14.5588 21.5343 14.6076 21.3839 14.7113 21.2744C14.8304 21.1486 15.088 21.111 15.603 21.0357L20.4943 20.3208C20.6464 20.2985 20.7225 20.2874 20.7887 20.2566C20.8474 20.2293 20.9002 20.191 20.9442 20.1436C20.9939 20.0901 21.0279 20.0211 21.096 19.8833L23.2827 15.4533Z" stroke="white" stroke-width="2" stroke-linecap="round" stroke-linejoin="round"/>
</g>
<path d="M69.5781 32.5V16.5H79.9844V18.9297H72.4766V23.2734H79.4453V25.7031H72.4766V30.0703H80.0469V32.5H69.5781ZM85.1189 20.5L87.5408 24.9297L90.0017 20.5H92.9939L89.3767 26.5L93.0564 32.5H90.0798L87.5408 28.1797L85.0252 32.5H82.0252L85.6814 26.5L82.1189 20.5H85.1189ZM95.1714 37V20.5H97.9527V22.4844H98.1167C98.2626 22.1927 98.4683 21.8828 98.7339 21.5547C98.9995 21.2214 99.3589 20.9375 99.812 20.7031C100.265 20.4635 100.843 20.3438 101.546 20.3438C102.473 20.3438 103.309 20.5807 104.054 21.0547C104.804 21.5234 105.398 22.2187 105.835 23.1406C106.278 24.0573 106.5 25.1823 106.5 26.5156C106.5 27.8333 106.283 28.9531 105.851 29.875C105.419 30.7969 104.83 31.5 104.085 31.9844C103.341 32.4688 102.497 32.7109 101.554 32.7109C100.867 32.7109 100.296 32.5964 99.8433 32.3672C99.3902 32.138 99.0256 31.862 98.7495 31.5391C98.4787 31.2109 98.2678 30.901 98.1167 30.6094H97.9995V37H95.1714ZM97.9448 26.5C97.9448 27.276 98.0542 27.9557 98.273 28.5391C98.4969 29.1224 98.8172 29.5781 99.2339 29.9062C99.6558 30.2292 100.166 30.3906 100.765 30.3906C101.39 30.3906 101.914 30.224 102.335 29.8906C102.757 29.5521 103.075 29.0911 103.289 28.5078C103.507 27.9193 103.617 27.25 103.617 26.5C103.617 25.7552 103.51 25.0937 103.296 24.5156C103.083 23.9375 102.765 23.4844 102.343 23.1562C101.921 22.8281 101.395 22.6641 100.765 22.6641C100.161 22.6641 99.648 22.8229 99.2261 23.1406C98.8042 23.4583 98.4839 23.9036 98.2652 24.4766C98.0516 25.0495 97.9448 25.724 97.9448 26.5ZM114.146 32.7344C112.974 32.7344 111.958 32.4766 111.099 31.9609C110.24 31.4453 109.573 30.724 109.099 29.7969C108.63 28.8698 108.396 27.7865 108.396 26.5469C108.396 25.3073 108.63 24.2214 109.099 23.2891C109.573 22.3568 110.24 21.6328 111.099 21.1172C111.958 20.6016 112.974 20.3438 114.146 20.3438C115.318 20.3438 116.333 20.6016 117.193 21.1172C118.052 21.6328 118.716 22.3568 119.185 23.2891C119.659 24.2214 119.896 25.3073 119.896 26.5469C119.896 27.7865 119.659 28.8698 119.185 29.7969C118.716 30.724 118.052 31.4453 117.193 31.9609C116.333 32.4766 115.318 32.7344 114.146 32.7344ZM114.161 30.4687C114.797 30.4687 115.328 30.2943 115.755 29.9453C116.182 29.5911 116.5 29.1172 116.708 28.5234C116.922 27.9297 117.029 27.2682 117.029 26.5391C117.029 25.8047 116.922 25.1406 116.708 24.5469C116.5 23.9479 116.182 23.4714 115.755 23.1172C115.328 22.763 114.797 22.5859 114.161 22.5859C113.51 22.5859 112.969 22.763 112.536 23.1172C112.109 23.4714 111.789 23.9479 111.575 24.5469C111.367 25.1406 111.263 25.8047 111.263 26.5391C111.263 27.2682 111.367 27.9297 111.575 28.5234C111.789 29.1172 112.109 29.5911 112.536 29.9453C112.969 30.2943 113.51 30.4687 114.161 30.4687ZM136.554 20.8984C136.481 20.2161 136.173 19.6849 135.632 19.3047C135.095 18.9245 134.397 18.7344 133.538 18.7344C132.934 18.7344 132.415 18.8255 131.983 19.0078C131.551 19.1901 131.22 19.4375 130.991 19.75C130.762 20.0625 130.645 20.4193 130.639 20.8203C130.639 21.1536 130.715 21.4427 130.866 21.6875C131.022 21.9323 131.233 22.1406 131.499 22.3125C131.764 22.4792 132.059 22.6198 132.382 22.7344C132.705 22.849 133.03 22.9453 133.358 23.0234L134.858 23.3984C135.462 23.5391 136.043 23.7292 136.6 23.9687C137.163 24.2083 137.665 24.5104 138.108 24.875C138.556 25.2396 138.91 25.6797 139.171 26.1953C139.431 26.7109 139.561 27.3151 139.561 28.0078C139.561 28.9453 139.322 29.7708 138.843 30.4844C138.363 31.1927 137.671 31.7474 136.764 32.1484C135.863 32.5443 134.772 32.7422 133.491 32.7422C132.246 32.7422 131.165 32.5495 130.249 32.1641C129.337 31.7786 128.624 31.2161 128.108 30.4766C127.598 29.737 127.322 28.8359 127.28 27.7734H130.132C130.173 28.3307 130.345 28.7943 130.647 29.1641C130.949 29.5339 131.343 29.8099 131.827 29.9922C132.317 30.1745 132.863 30.2656 133.468 30.2656C134.098 30.2656 134.65 30.1719 135.124 29.9844C135.603 29.7917 135.978 29.526 136.249 29.1875C136.52 28.8437 136.658 28.4427 136.663 27.9844C136.658 27.5677 136.535 27.224 136.296 26.9531C136.056 26.6771 135.72 26.4479 135.288 26.2656C134.861 26.0781 134.361 25.9115 133.788 25.7656L131.968 25.2969C130.65 24.9583 129.608 24.4453 128.843 23.7578C128.082 23.0651 127.702 22.1458 127.702 21C127.702 20.0573 127.957 19.2318 128.468 18.5234C128.983 17.8151 129.684 17.2656 130.569 16.875C131.455 16.4792 132.457 16.2812 133.577 16.2812C134.712 16.2812 135.707 16.4792 136.561 16.875C137.421 17.2656 138.095 17.8099 138.585 18.5078C139.074 19.2005 139.327 19.9974 139.343 20.8984H136.554ZM148.003 20.5V22.6875H141.104V20.5H148.003ZM142.807 17.625H145.635V28.8906C145.635 29.2708 145.693 29.5625 145.807 29.7656C145.927 29.9635 146.083 30.099 146.276 30.1719C146.469 30.2448 146.682 30.2812 146.917 30.2812C147.094 30.2812 147.255 30.2682 147.401 30.2422C147.552 30.2161 147.667 30.1927 147.745 30.1719L148.221 32.3828C148.07 32.4349 147.854 32.4922 147.573 32.5547C147.297 32.6172 146.958 32.6536 146.557 32.6641C145.849 32.6849 145.211 32.5781 144.643 32.3437C144.075 32.1042 143.625 31.7344 143.292 31.2344C142.963 30.7344 142.802 30.1094 142.807 29.3594V17.625ZM155.463 32.7344C154.291 32.7344 153.276 32.4766 152.416 31.9609C151.557 31.4453 150.89 30.724 150.416 29.7969C149.948 28.8698 149.713 27.7865 149.713 26.5469C149.713 25.3073 149.948 24.2214 150.416 23.2891C150.89 22.3568 151.557 21.6328 152.416 21.1172C153.276 20.6016 154.291 20.3438 155.463 20.3438C156.635 20.3438 157.651 20.6016 158.51 21.1172C159.369 21.6328 160.034 22.3568 160.502 23.2891C160.976 24.2214 161.213 25.3073 161.213 26.5469C161.213 27.7865 160.976 28.8698 160.502 29.7969C160.034 30.724 159.369 31.4453 158.51 31.9609C157.651 32.4766 156.635 32.7344 155.463 32.7344ZM155.479 30.4687C156.114 30.4687 156.645 30.2943 157.073 29.9453C157.5 29.5911 157.817 29.1172 158.026 28.5234C158.239 27.9297 158.346 27.2682 158.346 26.5391C158.346 25.8047 158.239 25.1406 158.026 24.5469C157.817 23.9479 157.5 23.4714 157.073 23.1172C156.645 22.763 156.114 22.5859 155.479 22.5859C154.828 22.5859 154.286 22.763 153.854 23.1172C153.427 23.4714 153.106 23.9479 152.893 24.5469C152.685 25.1406 152.58 25.8047 152.58 26.5391C152.58 27.2682 152.685 27.9297 152.893 28.5234C153.106 29.1172 153.427 29.5911 153.854 29.9453C154.286 30.2943 154.828 30.4687 155.479 30.4687ZM163.604 32.5V20.5H166.346V22.5H166.471C166.69 21.8073 167.065 21.2734 167.596 20.8984C168.132 20.5182 168.744 20.3281 169.432 20.3281C169.588 20.3281 169.762 20.3359 169.955 20.3516C170.153 20.362 170.317 20.3802 170.447 20.4062V23.0078C170.328 22.9661 170.137 22.9297 169.877 22.8984C169.622 22.862 169.374 22.8437 169.135 22.8437C168.619 22.8437 168.156 22.9557 167.744 23.1797C167.338 23.3984 167.018 23.7031 166.783 24.0937C166.549 24.4844 166.432 24.9349 166.432 25.4453V32.5H163.604ZM177.135 32.7344C175.931 32.7344 174.892 32.4844 174.017 31.9844C173.148 31.4792 172.478 30.7656 172.01 29.8437C171.541 28.9167 171.306 27.8255 171.306 26.5703C171.306 25.3359 171.541 24.2526 172.01 23.3203C172.484 22.3828 173.145 21.6536 173.994 21.1328C174.843 20.6068 175.84 20.3438 176.986 20.3438C177.726 20.3438 178.424 20.4635 179.08 20.7031C179.741 20.9375 180.325 21.3021 180.83 21.7969C181.34 22.2917 181.741 22.9219 182.033 23.6875C182.325 24.4479 182.471 25.3542 182.471 26.4062V27.2734H172.635V25.3672H179.76C179.754 24.8255 179.637 24.3437 179.408 23.9219C179.179 23.4948 178.859 23.1589 178.447 22.9141C178.041 22.6693 177.567 22.5469 177.025 22.5469C176.447 22.5469 175.939 22.6875 175.502 22.9687C175.064 23.2448 174.723 23.6094 174.478 24.0625C174.239 24.5104 174.116 25.0026 174.111 25.5391V27.2031C174.111 27.901 174.239 28.5 174.494 29C174.749 29.4948 175.106 29.875 175.564 30.1406C176.023 30.401 176.559 30.5312 177.174 30.5312C177.585 30.5312 177.958 30.474 178.291 30.3594C178.624 30.2396 178.913 30.0651 179.158 29.8359C179.403 29.6068 179.588 29.3229 179.713 28.9844L182.353 29.2812C182.187 29.9792 181.869 30.5885 181.4 31.1094C180.937 31.625 180.343 32.026 179.619 32.3125C178.895 32.5937 178.067 32.7344 177.135 32.7344ZM190.425 32.5V16.5H196.425C197.654 16.5 198.686 16.7135 199.519 17.1406C200.357 17.5677 200.99 18.1667 201.417 18.9375C201.85 19.7031 202.066 20.5964 202.066 21.6172C202.066 22.6432 201.847 23.5339 201.41 24.2891C200.977 25.0391 200.339 25.6198 199.495 26.0312C198.652 26.4375 197.615 26.6406 196.386 26.6406H192.113V24.2344H195.995C196.714 24.2344 197.303 24.1354 197.761 23.9375C198.219 23.7344 198.558 23.4401 198.777 23.0547C199.001 22.6641 199.113 22.1849 199.113 21.6172C199.113 21.0495 199.001 20.5651 198.777 20.1641C198.553 19.7578 198.212 19.4505 197.753 19.2422C197.295 19.0286 196.704 18.9219 195.98 18.9219H193.324V32.5H190.425ZM198.691 25.25L202.652 32.5H199.417L195.527 25.25H198.691ZM209.739 32.7344C208.536 32.7344 207.497 32.4844 206.622 31.9844C205.752 31.4792 205.083 30.7656 204.614 29.8437C204.146 28.9167 203.911 27.8255 203.911 26.5703C203.911 25.3359 204.146 24.2526 204.614 23.3203C205.088 22.3828 205.75 21.6536 206.599 21.1328C207.448 20.6068 208.445 20.3438 209.591 20.3438C210.331 20.3438 211.028 20.4635 211.685 20.7031C212.346 20.9375 212.929 21.3021 213.435 21.7969C213.945 22.2917 214.346 22.9219 214.638 23.6875C214.929 24.4479 215.075 25.3542 215.075 26.4062V27.2734H205.239V25.3672H212.364C212.359 24.8255 212.242 24.3437 212.013 23.9219C211.784 23.4948 211.463 23.1589 211.052 22.9141C210.646 22.6693 210.172 22.5469 209.63 22.5469C209.052 22.5469 208.544 22.6875 208.107 22.9687C207.669 23.2448 207.328 23.6094 207.083 24.0625C206.844 24.5104 206.721 25.0026 206.716 25.5391V27.2031C206.716 27.901 206.844 28.5 207.099 29C207.354 29.4948 207.711 29.875 208.169 30.1406C208.627 30.401 209.164 30.5312 209.778 30.5312C210.19 30.5312 210.562 30.474 210.896 30.3594C211.229 30.2396 211.518 30.0651 211.763 29.8359C212.008 29.6068 212.193 29.3229 212.318 28.9844L214.958 29.2812C214.791 29.9792 214.474 30.5885 214.005 31.1094C213.541 31.625 212.948 32.026 212.224 32.3125C211.5 32.5937 210.672 32.7344 209.739 32.7344ZM227.833 20.5L223.559 32.5H220.434L216.161 20.5H219.177L221.934 29.4141H222.059L224.825 20.5H227.833ZM229.78 32.5V20.5H232.608V32.5H229.78ZM231.202 18.7969C230.754 18.7969 230.368 18.6484 230.046 18.3516C229.723 18.0495 229.561 17.6875 229.561 17.2656C229.561 16.8385 229.723 16.4766 230.046 16.1797C230.368 15.8776 230.754 15.7266 231.202 15.7266C231.655 15.7266 232.04 15.8776 232.358 16.1797C232.681 16.4766 232.842 16.8385 232.842 17.2656C232.842 17.6875 232.681 18.0495 232.358 18.3516C232.04 18.6484 231.655 18.7969 231.202 18.7969ZM240.819 32.7344C239.616 32.7344 238.577 32.4844 237.702 31.9844C236.832 31.4792 236.163 30.7656 235.694 29.8437C235.225 28.9167 234.991 27.8255 234.991 26.5703C234.991 25.3359 235.225 24.2526 235.694 23.3203C236.168 22.3828 236.829 21.6536 237.678 21.1328C238.527 20.6068 239.524 20.3438 240.67 20.3438C241.41 20.3438 242.108 20.4635 242.764 20.7031C243.426 20.9375 244.009 21.3021 244.514 21.7969C245.024 22.2917 245.426 22.9219 245.717 23.6875C246.009 24.4479 246.155 25.3542 246.155 26.4062V27.2734H236.319V25.3672H243.444C243.439 24.8255 243.321 24.3437 243.092 23.9219C242.863 23.4948 242.543 23.1589 242.131 22.9141C241.725 22.6693 241.251 22.5469 240.709 22.5469C240.131 22.5469 239.623 22.6875 239.186 22.9687C238.748 23.2448 238.407 23.6094 238.163 24.0625C237.923 24.5104 237.801 25.0026 237.795 25.5391V27.2031C237.795 27.901 237.923 28.5 238.178 29C238.433 29.4948 238.79 29.875 239.248 30.1406C239.707 30.401 240.243 30.5312 240.858 30.5312C241.269 30.5312 241.642 30.474 241.975 30.3594C242.308 30.2396 242.597 30.0651 242.842 29.8359C243.087 29.6068 243.272 29.3229 243.397 28.9844L246.038 29.2812C245.871 29.9792 245.553 30.5885 245.084 31.1094C244.621 31.625 244.027 32.026 243.303 32.3125C242.579 32.5937 241.751 32.7344 240.819 32.7344ZM250.949 32.5L247.559 20.5H250.442L252.551 28.9375H252.66L254.817 20.5H257.668L259.824 28.8906H259.942L262.02 20.5H264.91L261.512 32.5H258.567L256.317 24.3906H256.152L253.902 32.5H250.949Z" fill="#F0C000"/>
<defs>
<radialGradient id="paint0_radial_107_88" cx="0" cy="0" r="1" gradientUnits="userSpaceOnUse" gradientTransform="translate(4 4) rotate(90) scale(32)">
<stop stop-color="white"/>
<stop offset="1" stop-color="white" stop-opacity="0"/>
</radialGradient>
<clipPath id="clip0_107_88">
<rect width="48" height="48" rx="10" fill="white"/>
</clipPath>
</defs>
</svg>
