<svg width="207" height="48" viewBox="0 0 207 48" fill="none" xmlns="http://www.w3.org/2000/svg">
<g clip-path="url(#clip0_105_99)">
<rect width="48" height="48" rx="10" fill="#3DB9CF"/>
<g opacity="0.4">
<rect x="-28" y="-28" width="64" height="64" rx="10" fill="url(#paint0_radial_105_99)"/>
</g>
<path opacity="0.4" d="M34 20V24" stroke="white" stroke-width="2" stroke-linecap="round" stroke-linejoin="round"/>
<path d="M22.25 17.5H18.8C17.1198 17.5 16.2798 17.5 15.638 17.827C15.0735 18.1146 14.6146 18.5736 14.327 19.1381C14 19.7798 14 20.6199 14 22.3L14 23.5C14 24.4319 14 24.8979 14.1522 25.2654C14.3552 25.7555 14.7446 26.1448 15.2346 26.3478C15.6022 26.5 16.0681 26.5 17 26.5V30.75C17 30.9822 17 31.0983 17.0096 31.1961C17.1032 32.1456 17.8544 32.8969 18.804 32.9904C18.9017 33 19.0178 33 19.25 33C19.4822 33 19.5983 33 19.696 32.9904C20.6456 32.8969 21.3968 32.1456 21.4904 31.1961C21.5 31.0983 21.5 30.9822 21.5 30.75V26.5H22.25C24.0164 26.5 26.1772 27.4469 27.8443 28.3557C28.8168 28.8858 29.3031 29.1509 29.6216 29.1119C29.9169 29.0757 30.1402 28.9431 30.3133 28.7011C30.5 28.4402 30.5 27.918 30.5 26.8737V17.1263C30.5 16.082 30.5 15.5599 30.3133 15.2989C30.1402 15.0569 29.9169 14.9243 29.6216 14.8882C29.3031 14.8492 28.8168 15.1142 27.8443 15.6444C26.1772 16.5531 24.0164 17.5 22.25 17.5Z" stroke="white" stroke-width="2" stroke-linecap="round" stroke-linejoin="round"/>
</g>
<path d="M69.5781 32.5V16.5H79.9844V18.9297H72.4766V23.2734H79.4453V25.7031H72.4766V30.0703H80.0469V32.5H69.5781ZM85.1189 20.5L87.5408 24.9297L90.0017 20.5H92.9939L89.3767 26.5L93.0564 32.5H90.0798L87.5408 28.1797L85.0252 32.5H82.0252L85.6814 26.5L82.1189 20.5H85.1189ZM95.1714 37V20.5H97.9527V22.4844H98.1167C98.2626 22.1927 98.4683 21.8828 98.7339 21.5547C98.9995 21.2214 99.3589 20.9375 99.812 20.7031C100.265 20.4635 100.843 20.3438 101.546 20.3438C102.473 20.3438 103.309 20.5807 104.054 21.0547C104.804 21.5234 105.398 22.2187 105.835 23.1406C106.278 24.0573 106.5 25.1823 106.5 26.5156C106.5 27.8333 106.283 28.9531 105.851 29.875C105.419 30.7969 104.83 31.5 104.085 31.9844C103.341 32.4688 102.497 32.7109 101.554 32.7109C100.867 32.7109 100.296 32.5964 99.8433 32.3672C99.3902 32.138 99.0256 31.862 98.7495 31.5391C98.4787 31.2109 98.2678 30.901 98.1167 30.6094H97.9995V37H95.1714ZM97.9448 26.5C97.9448 27.276 98.0542 27.9557 98.273 28.5391C98.4969 29.1224 98.8172 29.5781 99.2339 29.9062C99.6558 30.2292 100.166 30.3906 100.765 30.3906C101.39 30.3906 101.914 30.224 102.335 29.8906C102.757 29.5521 103.075 29.0911 103.289 28.5078C103.507 27.9193 103.617 27.25 103.617 26.5C103.617 25.7552 103.51 25.0937 103.296 24.5156C103.083 23.9375 102.765 23.4844 102.343 23.1562C101.921 22.8281 101.395 22.6641 100.765 22.6641C100.161 22.6641 99.648 22.8229 99.2261 23.1406C98.8042 23.4583 98.4839 23.9036 98.2652 24.4766C98.0516 25.0495 97.9448 25.724 97.9448 26.5ZM114.146 32.7344C112.974 32.7344 111.958 32.4766 111.099 31.9609C110.24 31.4453 109.573 30.724 109.099 29.7969C108.63 28.8698 108.396 27.7865 108.396 26.5469C108.396 25.3073 108.63 24.2214 109.099 23.2891C109.573 22.3568 110.24 21.6328 111.099 21.1172C111.958 20.6016 112.974 20.3438 114.146 20.3438C115.318 20.3438 116.333 20.6016 117.193 21.1172C118.052 21.6328 118.716 22.3568 119.185 23.2891C119.659 24.2214 119.896 25.3073 119.896 26.5469C119.896 27.7865 119.659 28.8698 119.185 29.7969C118.716 30.724 118.052 31.4453 117.193 31.9609C116.333 32.4766 115.318 32.7344 114.146 32.7344ZM114.161 30.4687C114.797 30.4687 115.328 30.2943 115.755 29.9453C116.182 29.5911 116.5 29.1172 116.708 28.5234C116.922 27.9297 117.029 27.2682 117.029 26.5391C117.029 25.8047 116.922 25.1406 116.708 24.5469C116.5 23.9479 116.182 23.4714 115.755 23.1172C115.328 22.763 114.797 22.5859 114.161 22.5859C113.51 22.5859 112.969 22.763 112.536 23.1172C112.109 23.4714 111.789 23.9479 111.575 24.5469C111.367 25.1406 111.263 25.8047 111.263 26.5391C111.263 27.2682 111.367 27.9297 111.575 28.5234C111.789 29.1172 112.109 29.5911 112.536 29.9453C112.969 30.2943 113.51 30.4687 114.161 30.4687ZM136.554 20.8984C136.481 20.2161 136.173 19.6849 135.632 19.3047C135.095 18.9245 134.397 18.7344 133.538 18.7344C132.934 18.7344 132.415 18.8255 131.983 19.0078C131.551 19.1901 131.22 19.4375 130.991 19.75C130.762 20.0625 130.645 20.4193 130.639 20.8203C130.639 21.1536 130.715 21.4427 130.866 21.6875C131.022 21.9323 131.233 22.1406 131.499 22.3125C131.764 22.4792 132.059 22.6198 132.382 22.7344C132.705 22.849 133.03 22.9453 133.358 23.0234L134.858 23.3984C135.462 23.5391 136.043 23.7292 136.6 23.9687C137.163 24.2083 137.665 24.5104 138.108 24.875C138.556 25.2396 138.91 25.6797 139.171 26.1953C139.431 26.7109 139.561 27.3151 139.561 28.0078C139.561 28.9453 139.322 29.7708 138.843 30.4844C138.363 31.1927 137.671 31.7474 136.764 32.1484C135.863 32.5443 134.772 32.7422 133.491 32.7422C132.246 32.7422 131.165 32.5495 130.249 32.1641C129.337 31.7786 128.624 31.2161 128.108 30.4766C127.598 29.737 127.322 28.8359 127.28 27.7734H130.132C130.173 28.3307 130.345 28.7943 130.647 29.1641C130.949 29.5339 131.343 29.8099 131.827 29.9922C132.317 30.1745 132.863 30.2656 133.468 30.2656C134.098 30.2656 134.65 30.1719 135.124 29.9844C135.603 29.7917 135.978 29.526 136.249 29.1875C136.52 28.8437 136.658 28.4427 136.663 27.9844C136.658 27.5677 136.535 27.224 136.296 26.9531C136.056 26.6771 135.72 26.4479 135.288 26.2656C134.861 26.0781 134.361 25.9115 133.788 25.7656L131.968 25.2969C130.65 24.9583 129.608 24.4453 128.843 23.7578C128.082 23.0651 127.702 22.1458 127.702 21C127.702 20.0573 127.957 19.2318 128.468 18.5234C128.983 17.8151 129.684 17.2656 130.569 16.875C131.455 16.4792 132.457 16.2812 133.577 16.2812C134.712 16.2812 135.707 16.4792 136.561 16.875C137.421 17.2656 138.095 17.8099 138.585 18.5078C139.074 19.2005 139.327 19.9974 139.343 20.8984H136.554ZM142.01 37V20.5H144.792V22.4844H144.956C145.101 22.1927 145.307 21.8828 145.573 21.5547C145.838 21.2214 146.198 20.9375 146.651 20.7031C147.104 20.4635 147.682 20.3438 148.385 20.3438C149.312 20.3438 150.148 20.5807 150.893 21.0547C151.643 21.5234 152.237 22.2187 152.674 23.1406C153.117 24.0573 153.338 25.1823 153.338 26.5156C153.338 27.8333 153.122 28.9531 152.69 29.875C152.258 30.7969 151.669 31.5 150.924 31.9844C150.18 32.4688 149.336 32.7109 148.393 32.7109C147.706 32.7109 147.135 32.5964 146.682 32.3672C146.229 32.138 145.864 31.862 145.588 31.5391C145.318 31.2109 145.107 30.901 144.956 30.6094H144.838V37H142.01ZM144.784 26.5C144.784 27.276 144.893 27.9557 145.112 28.5391C145.336 29.1224 145.656 29.5781 146.073 29.9062C146.495 30.2292 147.005 30.3906 147.604 30.3906C148.229 30.3906 148.753 30.224 149.174 29.8906C149.596 29.5521 149.914 29.0911 150.128 28.5078C150.346 27.9193 150.456 27.25 150.456 26.5C150.456 25.7552 150.349 25.0937 150.135 24.5156C149.922 23.9375 149.604 23.4844 149.182 23.1562C148.76 22.8281 148.234 22.6641 147.604 22.6641C147 22.6641 146.487 22.8229 146.065 23.1406C145.643 23.4583 145.323 23.9036 145.104 24.4766C144.891 25.0495 144.784 25.724 144.784 26.5ZM161.063 32.7344C159.86 32.7344 158.821 32.4844 157.946 31.9844C157.076 31.4792 156.407 30.7656 155.938 29.8437C155.469 28.9167 155.235 27.8255 155.235 26.5703C155.235 25.3359 155.469 24.2526 155.938 23.3203C156.412 22.3828 157.073 21.6536 157.922 21.1328C158.771 20.6068 159.769 20.3438 160.914 20.3438C161.654 20.3438 162.352 20.4635 163.008 20.7031C163.67 20.9375 164.253 21.3021 164.758 21.7969C165.269 22.2917 165.67 22.9219 165.961 23.6875C166.253 24.4479 166.399 25.3542 166.399 26.4062V27.2734H156.563V25.3672H163.688C163.683 24.8255 163.565 24.3437 163.336 23.9219C163.107 23.4948 162.787 23.1589 162.375 22.9141C161.969 22.6693 161.495 22.5469 160.953 22.5469C160.375 22.5469 159.868 22.6875 159.43 22.9687C158.993 23.2448 158.651 23.6094 158.407 24.0625C158.167 24.5104 158.045 25.0026 158.039 25.5391V27.2031C158.039 27.901 158.167 28.5 158.422 29C158.677 29.4948 159.034 29.875 159.493 30.1406C159.951 30.401 160.487 30.5312 161.102 30.5312C161.513 30.5312 161.886 30.474 162.219 30.3594C162.552 30.2396 162.841 30.0651 163.086 29.8359C163.331 29.6068 163.516 29.3229 163.641 28.9844L166.282 29.2812C166.115 29.9792 165.797 30.5885 165.328 31.1094C164.865 31.625 164.271 32.026 163.547 32.3125C162.823 32.5937 161.995 32.7344 161.063 32.7344ZM174.094 32.7344C172.891 32.7344 171.852 32.4844 170.977 31.9844C170.107 31.4792 169.438 30.7656 168.969 29.8437C168.5 28.9167 168.266 27.8255 168.266 26.5703C168.266 25.3359 168.5 24.2526 168.969 23.3203C169.443 22.3828 170.104 21.6536 170.953 21.1328C171.802 20.6068 172.8 20.3438 173.945 20.3438C174.685 20.3438 175.383 20.4635 176.039 20.7031C176.701 20.9375 177.284 21.3021 177.789 21.7969C178.3 22.2917 178.701 22.9219 178.992 23.6875C179.284 24.4479 179.43 25.3542 179.43 26.4062V27.2734H169.594V25.3672H176.719C176.714 24.8255 176.596 24.3437 176.367 23.9219C176.138 23.4948 175.818 23.1589 175.406 22.9141C175 22.6693 174.526 22.5469 173.984 22.5469C173.406 22.5469 172.899 22.6875 172.461 22.9687C172.024 23.2448 171.682 23.6094 171.438 24.0625C171.198 24.5104 171.076 25.0026 171.07 25.5391V27.2031C171.07 27.901 171.198 28.5 171.453 29C171.708 29.4948 172.065 29.875 172.524 30.1406C172.982 30.401 173.518 30.5312 174.133 30.5312C174.544 30.5312 174.917 30.474 175.25 30.3594C175.583 30.2396 175.872 30.0651 176.117 29.8359C176.362 29.6068 176.547 29.3229 176.672 28.9844L179.313 29.2812C179.146 29.9792 178.828 30.5885 178.359 31.1094C177.896 31.625 177.302 32.026 176.578 32.3125C175.854 32.5937 175.026 32.7344 174.094 32.7344ZM187.047 32.7344C185.849 32.7344 184.82 32.4714 183.961 31.9453C183.107 31.4193 182.448 30.6927 181.984 29.7656C181.526 28.8333 181.297 27.7604 181.297 26.5469C181.297 25.3281 181.531 24.2526 182 23.3203C182.469 22.3828 183.13 21.6536 183.984 21.1328C184.844 20.6068 185.859 20.3438 187.031 20.3438C188.005 20.3438 188.867 20.5234 189.617 20.8828C190.372 21.237 190.974 21.7396 191.422 22.3906C191.87 23.0365 192.125 23.7917 192.187 24.6562H189.484C189.375 24.0781 189.114 23.5964 188.703 23.2109C188.297 22.8203 187.752 22.625 187.07 22.625C186.492 22.625 185.984 22.7812 185.547 23.0937C185.109 23.401 184.768 23.8437 184.523 24.4219C184.284 25 184.164 25.6927 184.164 26.5C184.164 27.3177 184.284 28.0208 184.523 28.6094C184.763 29.1927 185.099 29.6432 185.531 29.9609C185.969 30.2734 186.482 30.4297 187.07 30.4297C187.487 30.4297 187.859 30.3516 188.187 30.1953C188.521 30.0339 188.799 29.8021 189.023 29.5C189.247 29.1979 189.401 28.8307 189.484 28.3984H192.187C192.12 29.2474 191.87 30 191.437 30.6562C191.005 31.3073 190.417 31.8177 189.672 32.1875C188.927 32.5521 188.052 32.7344 187.047 32.7344ZM197.328 25.4687V32.5H194.5V16.5H197.265V22.5391H197.406C197.687 21.862 198.122 21.3281 198.711 20.9375C199.304 20.5417 200.06 20.3438 200.976 20.3438C201.81 20.3438 202.536 20.5182 203.156 20.8672C203.776 21.2161 204.255 21.7266 204.593 22.3984C204.937 23.0703 205.109 23.8906 205.109 24.8594V32.5H202.281V25.2969C202.281 24.4896 202.073 23.862 201.656 23.4141C201.244 22.9609 200.666 22.7344 199.921 22.7344C199.421 22.7344 198.974 22.8437 198.578 23.0625C198.187 23.276 197.88 23.5859 197.656 23.9922C197.437 24.3984 197.328 24.8906 197.328 25.4687Z" fill="#3DB9CF"/>
<defs>
<radialGradient id="paint0_radial_105_99" cx="0" cy="0" r="1" gradientUnits="userSpaceOnUse" gradientTransform="translate(4 4) rotate(90) scale(32)">
<stop stop-color="white"/>
<stop offset="1" stop-color="white" stop-opacity="0"/>
</radialGradient>
<clipPath id="clip0_105_99">
<rect width="48" height="48" rx="10" fill="white"/>
</clipPath>
</defs>
</svg>
