<svg width="264" height="48" viewBox="0 0 264 48" fill="none" xmlns="http://www.w3.org/2000/svg">
<g clip-path="url(#clip0_45_228)">
<rect width="48" height="48" rx="10" fill="#F76808"/>
<g opacity="0.4">
<rect x="-28" y="-28" width="64" height="64" rx="10" fill="url(#paint0_radial_45_228)"/>
</g>
<path opacity="0.4" d="M28 17L31 14M31 14L34 17M31 14L31 20" stroke="white" stroke-width="2" stroke-linecap="round" stroke-linejoin="round"/>
<path d="M24.5 15H19.8C18.1198 15 17.2798 15 16.638 15.327C16.0735 15.6146 15.6146 16.0735 15.327 16.638C15 17.2798 15 18.1198 15 19.8V28.2C15 29.8802 15 30.7202 15.327 31.362C15.6146 31.9265 16.0735 32.3854 16.638 32.673C17.2798 33 18.1198 33 19.8 33H29C29.93 33 30.395 33 30.7765 32.8978C31.8117 32.6204 32.6204 31.8117 32.8978 30.7765C33 30.395 33 29.93 33 29M22.5 20.5C22.5 21.6046 21.6046 22.5 20.5 22.5C19.3954 22.5 18.5 21.6046 18.5 20.5C18.5 19.3954 19.3954 18.5 20.5 18.5C21.6046 18.5 22.5 19.3954 22.5 20.5ZM26.99 23.9181L18.5311 31.608C18.0554 32.0406 17.8175 32.2568 17.7964 32.4442C17.7782 32.6066 17.8405 32.7676 17.9632 32.8755C18.1048 33 18.4263 33 19.0693 33H28.456C29.8951 33 30.6147 33 31.1799 32.7582C31.8894 32.4547 32.4547 31.8894 32.7582 31.1799C33 30.6147 33 29.8951 33 28.456C33 27.9717 33 27.7296 32.9471 27.5042C32.8805 27.2208 32.753 26.9554 32.5733 26.7264C32.4303 26.5442 32.2412 26.3929 31.8631 26.0905L29.0658 23.8527C28.6874 23.5499 28.4982 23.3985 28.2898 23.3451C28.1061 23.298 27.9129 23.3041 27.7325 23.3627C27.5279 23.4291 27.3486 23.5921 26.99 23.9181Z" stroke="white" stroke-width="2" stroke-linecap="round" stroke-linejoin="round"/>
</g>
<path d="M69.5781 32.5V16.5H79.9844V18.9297H72.4766V23.2734H79.4453V25.7031H72.4766V30.0703H80.0469V32.5H69.5781ZM85.1189 20.5L87.5408 24.9297L90.0017 20.5H92.9939L89.3767 26.5L93.0564 32.5H90.0798L87.5408 28.1797L85.0252 32.5H82.0252L85.6814 26.5L82.1189 20.5H85.1189ZM95.1714 37V20.5H97.9527V22.4844H98.1167C98.2626 22.1927 98.4683 21.8828 98.7339 21.5547C98.9995 21.2214 99.3589 20.9375 99.812 20.7031C100.265 20.4635 100.843 20.3438 101.546 20.3438C102.473 20.3438 103.309 20.5807 104.054 21.0547C104.804 21.5234 105.398 22.2187 105.835 23.1406C106.278 24.0573 106.5 25.1823 106.5 26.5156C106.5 27.8333 106.283 28.9531 105.851 29.875C105.419 30.7969 104.83 31.5 104.085 31.9844C103.341 32.4688 102.497 32.7109 101.554 32.7109C100.867 32.7109 100.296 32.5964 99.8433 32.3672C99.3902 32.138 99.0256 31.862 98.7495 31.5391C98.4787 31.2109 98.2678 30.901 98.1167 30.6094H97.9995V37H95.1714ZM97.9448 26.5C97.9448 27.276 98.0542 27.9557 98.273 28.5391C98.4969 29.1224 98.8172 29.5781 99.2339 29.9062C99.6558 30.2292 100.166 30.3906 100.765 30.3906C101.39 30.3906 101.914 30.224 102.335 29.8906C102.757 29.5521 103.075 29.0911 103.289 28.5078C103.507 27.9193 103.617 27.25 103.617 26.5C103.617 25.7552 103.51 25.0937 103.296 24.5156C103.083 23.9375 102.765 23.4844 102.343 23.1562C101.921 22.8281 101.395 22.6641 100.765 22.6641C100.161 22.6641 99.648 22.8229 99.2261 23.1406C98.8042 23.4583 98.4839 23.9036 98.2652 24.4766C98.0516 25.0495 97.9448 25.724 97.9448 26.5ZM114.146 32.7344C112.974 32.7344 111.958 32.4766 111.099 31.9609C110.24 31.4453 109.573 30.724 109.099 29.7969C108.63 28.8698 108.396 27.7865 108.396 26.5469C108.396 25.3073 108.63 24.2214 109.099 23.2891C109.573 22.3568 110.24 21.6328 111.099 21.1172C111.958 20.6016 112.974 20.3438 114.146 20.3438C115.318 20.3438 116.333 20.6016 117.193 21.1172C118.052 21.6328 118.716 22.3568 119.185 23.2891C119.659 24.2214 119.896 25.3073 119.896 26.5469C119.896 27.7865 119.659 28.8698 119.185 29.7969C118.716 30.724 118.052 31.4453 117.193 31.9609C116.333 32.4766 115.318 32.7344 114.146 32.7344ZM114.161 30.4687C114.797 30.4687 115.328 30.2943 115.755 29.9453C116.182 29.5911 116.5 29.1172 116.708 28.5234C116.922 27.9297 117.029 27.2682 117.029 26.5391C117.029 25.8047 116.922 25.1406 116.708 24.5469C116.5 23.9479 116.182 23.4714 115.755 23.1172C115.328 22.763 114.797 22.5859 114.161 22.5859C113.51 22.5859 112.969 22.763 112.536 23.1172C112.109 23.4714 111.789 23.9479 111.575 24.5469C111.367 25.1406 111.263 25.8047 111.263 26.5391C111.263 27.2682 111.367 27.9297 111.575 28.5234C111.789 29.1172 112.109 29.5911 112.536 29.9453C112.969 30.2943 113.51 30.4687 114.161 30.4687ZM130.757 16.5V32.5H127.858V16.5H130.757ZM133.76 32.5V20.5H136.463V22.5391H136.604C136.854 21.8516 137.268 21.3151 137.846 20.9297C138.424 20.5391 139.114 20.3438 139.917 20.3438C140.729 20.3438 141.414 20.5417 141.971 20.9375C142.534 21.3281 142.93 21.862 143.159 22.5391H143.284C143.549 21.8724 143.997 21.3411 144.628 20.9453C145.263 20.5443 146.016 20.3438 146.885 20.3438C147.989 20.3438 148.891 20.6927 149.588 21.3906C150.286 22.0885 150.635 23.1068 150.635 24.4453V32.5H147.799V24.8828C147.799 24.138 147.601 23.5937 147.206 23.25C146.81 22.901 146.325 22.7266 145.753 22.7266C145.07 22.7266 144.536 22.9401 144.151 23.3672C143.771 23.7891 143.581 24.3385 143.581 25.0156V32.5H140.807V24.7656C140.807 24.1458 140.62 23.651 140.245 23.2812C139.875 22.9115 139.391 22.7266 138.792 22.7266C138.385 22.7266 138.016 22.8307 137.682 23.0391C137.349 23.2422 137.083 23.5312 136.885 23.9062C136.687 24.276 136.588 24.7083 136.588 25.2031V32.5H133.76ZM156.948 32.7422C156.187 32.7422 155.502 32.6068 154.893 32.3359C154.289 32.0599 153.81 31.6536 153.455 31.1172C153.106 30.5807 152.932 29.9193 152.932 29.1328C152.932 28.4557 153.057 27.8958 153.307 27.4531C153.557 27.0104 153.898 26.6562 154.33 26.3906C154.763 26.125 155.25 25.9245 155.791 25.7891C156.338 25.6484 156.903 25.5469 157.487 25.4844C158.19 25.4115 158.76 25.3464 159.198 25.2891C159.635 25.2266 159.953 25.1328 160.151 25.0078C160.354 24.8776 160.455 24.6771 160.455 24.4062V24.3594C160.455 23.7708 160.281 23.3151 159.932 22.9922C159.583 22.6693 159.08 22.5078 158.424 22.5078C157.731 22.5078 157.182 22.6589 156.776 22.9609C156.375 23.263 156.104 23.6198 155.963 24.0312L153.323 23.6562C153.531 22.9271 153.875 22.3177 154.354 21.8281C154.833 21.3333 155.419 20.9635 156.112 20.7187C156.804 20.4688 157.57 20.3438 158.409 20.3438C158.987 20.3438 159.562 20.4115 160.135 20.5469C160.708 20.6823 161.231 20.9062 161.705 21.2187C162.179 21.526 162.56 21.9453 162.846 22.4766C163.138 23.0078 163.284 23.6719 163.284 24.4687V32.5H160.565V30.8516H160.471C160.299 31.1849 160.057 31.4974 159.744 31.7891C159.437 32.0755 159.049 32.3073 158.58 32.4844C158.117 32.6563 157.573 32.7422 156.948 32.7422ZM157.682 30.6641C158.25 30.6641 158.742 30.5521 159.159 30.3281C159.575 30.099 159.895 29.7969 160.119 29.4219C160.349 29.0469 160.463 28.638 160.463 28.1953V26.7812C160.375 26.8542 160.224 26.9219 160.01 26.9844C159.802 27.0469 159.567 27.1016 159.307 27.1484C159.047 27.1953 158.789 27.237 158.534 27.2734C158.278 27.3099 158.057 27.3411 157.869 27.3672C157.448 27.4245 157.07 27.5182 156.737 27.6484C156.403 27.7786 156.14 27.9609 155.948 28.1953C155.755 28.4245 155.659 28.7214 155.659 29.0859C155.659 29.6068 155.849 30 156.229 30.2656C156.609 30.5312 157.093 30.6641 157.682 30.6641ZM171.336 37.25C170.32 37.25 169.448 37.112 168.719 36.8359C167.99 36.5651 167.404 36.2005 166.961 35.7422C166.518 35.2839 166.211 34.776 166.039 34.2188L168.586 33.6016C168.701 33.8359 168.867 34.0677 169.086 34.2969C169.305 34.5313 169.599 34.724 169.969 34.875C170.344 35.0313 170.815 35.1094 171.383 35.1094C172.185 35.1094 172.849 34.9141 173.375 34.5234C173.901 34.138 174.164 33.5026 174.164 32.6172V30.3437H174.024C173.878 30.6354 173.664 30.9349 173.383 31.2422C173.107 31.5495 172.74 31.8073 172.281 32.0156C171.828 32.224 171.258 32.3281 170.57 32.3281C169.649 32.3281 168.813 32.112 168.063 31.6797C167.318 31.2422 166.724 30.5911 166.281 29.7266C165.844 28.8568 165.625 27.7682 165.625 26.4609C165.625 25.1432 165.844 24.0312 166.281 23.125C166.724 22.2135 167.32 21.5234 168.07 21.0547C168.82 20.5807 169.656 20.3438 170.578 20.3438C171.281 20.3438 171.859 20.4635 172.313 20.7031C172.771 20.9375 173.135 21.2214 173.406 21.5547C173.677 21.8828 173.883 22.1927 174.024 22.4844H174.18V20.5H176.969V32.6953C176.969 33.7214 176.724 34.5703 176.234 35.2422C175.745 35.9141 175.076 36.4167 174.227 36.75C173.378 37.0833 172.414 37.25 171.336 37.25ZM171.359 30.1094C171.958 30.1094 172.469 29.9635 172.891 29.6719C173.313 29.3802 173.633 28.9609 173.852 28.4141C174.07 27.8672 174.18 27.2109 174.18 26.4453C174.18 25.6901 174.07 25.0286 173.852 24.4609C173.638 23.8932 173.32 23.4531 172.899 23.1406C172.482 22.8229 171.969 22.6641 171.359 22.6641C170.729 22.6641 170.203 22.8281 169.781 23.1562C169.359 23.4844 169.042 23.9349 168.828 24.5078C168.615 25.0755 168.508 25.7214 168.508 26.4453C168.508 27.1797 168.615 27.8229 168.828 28.375C169.047 28.9219 169.367 29.349 169.789 29.6562C170.216 29.9583 170.74 30.1094 171.359 30.1094ZM185.17 32.7344C183.967 32.7344 182.928 32.4844 182.053 31.9844C181.183 31.4792 180.514 30.7656 180.045 29.8437C179.576 28.9167 179.342 27.8255 179.342 26.5703C179.342 25.3359 179.576 24.2526 180.045 23.3203C180.519 22.3828 181.18 21.6536 182.029 21.1328C182.878 20.6068 183.875 20.3438 185.021 20.3438C185.761 20.3438 186.459 20.4635 187.115 20.7031C187.777 20.9375 188.36 21.3021 188.865 21.7969C189.375 22.2917 189.777 22.9219 190.068 23.6875C190.36 24.4479 190.506 25.3542 190.506 26.4062V27.2734H180.67V25.3672H187.795C187.79 24.8255 187.672 24.3437 187.443 23.9219C187.214 23.4948 186.894 23.1589 186.482 22.9141C186.076 22.6693 185.602 22.5469 185.06 22.5469C184.482 22.5469 183.974 22.6875 183.537 22.9687C183.099 23.2448 182.758 23.6094 182.514 24.0625C182.274 24.5104 182.152 25.0026 182.146 25.5391V27.2031C182.146 27.901 182.274 28.5 182.529 29C182.784 29.4948 183.141 29.875 183.599 30.1406C184.058 30.401 184.594 30.5312 185.209 30.5312C185.62 30.5312 185.993 30.474 186.326 30.3594C186.659 30.2396 186.948 30.0651 187.193 29.8359C187.438 29.6068 187.623 29.3229 187.748 28.9844L190.389 29.2812C190.222 29.9792 189.904 30.5885 189.435 31.1094C188.972 31.625 188.378 32.026 187.654 32.3125C186.93 32.5937 186.102 32.7344 185.17 32.7344ZM198.46 32.5V16.5H204.46C205.689 16.5 206.721 16.7292 207.554 17.1875C208.393 17.6458 209.025 18.276 209.453 19.0781C209.885 19.875 210.101 20.7812 210.101 21.7969C210.101 22.8229 209.885 23.7344 209.453 24.5313C209.02 25.3281 208.382 25.9557 207.538 26.4141C206.695 26.8672 205.656 27.0937 204.421 27.0937H200.445V24.7109H204.031C204.749 24.7109 205.338 24.5859 205.796 24.3359C206.255 24.0859 206.593 23.7422 206.812 23.3047C207.036 22.8672 207.148 22.3646 207.148 21.7969C207.148 21.2292 207.036 20.7292 206.812 20.2969C206.593 19.8646 206.252 19.5286 205.788 19.2891C205.33 19.0443 204.739 18.9219 204.015 18.9219H201.359V32.5H198.46ZM212.484 32.5V20.5H215.312V32.5H212.484ZM213.905 18.7969C213.457 18.7969 213.072 18.6484 212.749 18.3516C212.426 18.0495 212.265 17.6875 212.265 17.2656C212.265 16.8385 212.426 16.4766 212.749 16.1797C213.072 15.8776 213.457 15.7266 213.905 15.7266C214.359 15.7266 214.744 15.8776 215.062 16.1797C215.385 16.4766 215.546 16.8385 215.546 17.2656C215.546 17.6875 215.385 18.0495 215.062 18.3516C214.744 18.6484 214.359 18.7969 213.905 18.7969ZM223.444 32.7344C222.246 32.7344 221.218 32.4714 220.358 31.9453C219.504 31.4193 218.845 30.6927 218.382 29.7656C217.923 28.8333 217.694 27.7604 217.694 26.5469C217.694 25.3281 217.929 24.2526 218.397 23.3203C218.866 22.3828 219.528 21.6536 220.382 21.1328C221.241 20.6068 222.257 20.3438 223.429 20.3438C224.403 20.3438 225.265 20.5234 226.015 20.8828C226.77 21.237 227.371 21.7396 227.819 22.3906C228.267 23.0365 228.522 23.7917 228.585 24.6562H225.882C225.772 24.0781 225.512 23.5964 225.1 23.2109C224.694 22.8203 224.15 22.625 223.468 22.625C222.89 22.625 222.382 22.7812 221.944 23.0937C221.507 23.401 221.166 23.8437 220.921 24.4219C220.681 25 220.561 25.6927 220.561 26.5C220.561 27.3177 220.681 28.0208 220.921 28.6094C221.16 29.1927 221.496 29.6432 221.929 29.9609C222.366 30.2734 222.879 30.4297 223.468 30.4297C223.884 30.4297 224.257 30.3516 224.585 30.1953C224.918 30.0339 225.197 29.8021 225.421 29.5C225.645 29.1979 225.798 28.8307 225.882 28.3984H228.585C228.517 29.2474 228.267 30 227.835 30.6562C227.403 31.3073 226.814 31.8177 226.069 32.1875C225.324 32.5521 224.449 32.7344 223.444 32.7344ZM233.475 28.7344L233.467 25.3203H233.921L238.233 20.5H241.538L236.233 26.4062H235.647L233.475 28.7344ZM230.897 32.5V16.5H233.725V32.5H230.897ZM238.428 32.5L234.522 27.0391L236.428 25.0469L241.811 32.5H238.428ZM248.231 32.7344C247.028 32.7344 245.989 32.4844 245.114 31.9844C244.244 31.4792 243.575 30.7656 243.106 29.8437C242.637 28.9167 242.403 27.8255 242.403 26.5703C242.403 25.3359 242.637 24.2526 243.106 23.3203C243.58 22.3828 244.241 21.6536 245.09 21.1328C245.939 20.6068 246.937 20.3438 248.082 20.3438C248.822 20.3438 249.52 20.4635 250.176 20.7031C250.838 20.9375 251.421 21.3021 251.926 21.7969C252.437 22.2917 252.838 22.9219 253.129 23.6875C253.421 24.4479 253.567 25.3542 253.567 26.4062V27.2734H243.731V25.3672H250.856C250.851 24.8255 250.733 24.3437 250.504 23.9219C250.275 23.4948 249.955 23.1589 249.543 22.9141C249.137 22.6693 248.663 22.5469 248.121 22.5469C247.543 22.5469 247.036 22.6875 246.598 22.9687C246.161 23.2448 245.819 23.6094 245.575 24.0625C245.335 24.5104 245.213 25.0026 245.207 25.5391V27.2031C245.207 27.901 245.335 28.5 245.59 29C245.845 29.4948 246.202 29.875 246.661 30.1406C247.119 30.401 247.655 30.5312 248.27 30.5312C248.681 30.5312 249.054 30.474 249.387 30.3594C249.72 30.2396 250.01 30.0651 250.254 29.8359C250.499 29.6068 250.684 29.3229 250.809 28.9844L253.45 29.2812C253.283 29.9792 252.965 30.5885 252.496 31.1094C252.033 31.625 251.439 32.026 250.715 32.3125C249.991 32.5937 249.163 32.7344 248.231 32.7344ZM255.949 32.5V20.5H258.692V22.5H258.817C259.035 21.8073 259.41 21.2734 259.942 20.8984C260.478 20.5182 261.09 20.3281 261.777 20.3281C261.934 20.3281 262.108 20.3359 262.301 20.3516C262.499 20.362 262.663 20.3802 262.793 20.4062V23.0078C262.673 22.9661 262.483 22.9297 262.223 22.8984C261.968 22.862 261.72 22.8437 261.481 22.8437C260.965 22.8437 260.501 22.9557 260.09 23.1797C259.684 23.3984 259.363 23.7031 259.129 24.0937C258.895 24.4844 258.777 24.9349 258.777 25.4453V32.5H255.949Z" fill="#F76808"/>
<defs>
<radialGradient id="paint0_radial_45_228" cx="0" cy="0" r="1" gradientUnits="userSpaceOnUse" gradientTransform="translate(4 4) rotate(90) scale(32)">
<stop stop-color="white"/>
<stop offset="1" stop-color="white" stop-opacity="0"/>
</radialGradient>
<clipPath id="clip0_45_228">
<rect width="48" height="48" rx="10" fill="white"/>
</clipPath>
</defs>
</svg>
