<svg width="223" height="48" viewBox="0 0 223 48" fill="none" xmlns="http://www.w3.org/2000/svg">
<g clip-path="url(#clip0_105_62)">
<rect width="48" height="48" rx="10" fill="#CD1D8D"/>
<g opacity="0.4">
<rect x="-28" y="-28" width="64" height="64" rx="10" fill="url(#paint0_radial_105_62)"/>
</g>
<path opacity="0.12" d="M15 20.8C15 19.1198 15 18.2798 15.327 17.638C15.6146 17.0735 16.0735 16.6146 16.638 16.327C17.2798 16 18.1198 16 19.8 16H28.2C29.8802 16 30.7202 16 31.362 16.327C31.9265 16.6146 32.3854 17.0735 32.673 17.638C33 18.2798 33 19.1198 33 20.8V22H15V20.8Z" fill="white"/>
<path d="M33 22H15M28 14V18M20 14V18M22.5 26L24 25V30M22.75 30H25.25M19.8 34H28.2C29.8802 34 30.7202 34 31.362 33.673C31.9265 33.3854 32.3854 32.9265 32.673 32.362C33 31.7202 33 30.8802 33 29.2V20.8C33 19.1198 33 18.2798 32.673 17.638C32.3854 17.0735 31.9265 16.6146 31.362 16.327C30.7202 16 29.8802 16 28.2 16H19.8C18.1198 16 17.2798 16 16.638 16.327C16.0735 16.6146 15.6146 17.0735 15.327 17.638C15 18.2798 15 19.1198 15 20.8V29.2C15 30.8802 15 31.7202 15.327 32.362C15.6146 32.9265 16.0735 33.3854 16.638 33.673C17.2798 34 18.1198 34 19.8 34Z" stroke="white" stroke-width="2" stroke-linecap="round" stroke-linejoin="round"/>
</g>
<path d="M69.5781 32.5V16.5H79.9844V18.9297H72.4766V23.2734H79.4453V25.7031H72.4766V30.0703H80.0469V32.5H69.5781ZM85.1189 20.5L87.5408 24.9297L90.0017 20.5H92.9939L89.3767 26.5L93.0564 32.5H90.0798L87.5408 28.1797L85.0252 32.5H82.0252L85.6814 26.5L82.1189 20.5H85.1189ZM95.1714 37V20.5H97.9527V22.4844H98.1167C98.2626 22.1927 98.4683 21.8828 98.7339 21.5547C98.9995 21.2214 99.3589 20.9375 99.812 20.7031C100.265 20.4635 100.843 20.3438 101.546 20.3438C102.473 20.3438 103.309 20.5807 104.054 21.0547C104.804 21.5234 105.398 22.2187 105.835 23.1406C106.278 24.0573 106.5 25.1823 106.5 26.5156C106.5 27.8333 106.283 28.9531 105.851 29.875C105.419 30.7969 104.83 31.5 104.085 31.9844C103.341 32.4688 102.497 32.7109 101.554 32.7109C100.867 32.7109 100.296 32.5964 99.8433 32.3672C99.3902 32.138 99.0256 31.862 98.7495 31.5391C98.4787 31.2109 98.2678 30.901 98.1167 30.6094H97.9995V37H95.1714ZM97.9448 26.5C97.9448 27.276 98.0542 27.9557 98.273 28.5391C98.4969 29.1224 98.8172 29.5781 99.2339 29.9062C99.6558 30.2292 100.166 30.3906 100.765 30.3906C101.39 30.3906 101.914 30.224 102.335 29.8906C102.757 29.5521 103.075 29.0911 103.289 28.5078C103.507 27.9193 103.617 27.25 103.617 26.5C103.617 25.7552 103.51 25.0937 103.296 24.5156C103.083 23.9375 102.765 23.4844 102.343 23.1562C101.921 22.8281 101.395 22.6641 100.765 22.6641C100.161 22.6641 99.648 22.8229 99.2261 23.1406C98.8042 23.4583 98.4839 23.9036 98.2652 24.4766C98.0516 25.0495 97.9448 25.724 97.9448 26.5ZM114.146 32.7344C112.974 32.7344 111.958 32.4766 111.099 31.9609C110.24 31.4453 109.573 30.724 109.099 29.7969C108.63 28.8698 108.396 27.7865 108.396 26.5469C108.396 25.3073 108.63 24.2214 109.099 23.2891C109.573 22.3568 110.24 21.6328 111.099 21.1172C111.958 20.6016 112.974 20.3438 114.146 20.3438C115.318 20.3438 116.333 20.6016 117.193 21.1172C118.052 21.6328 118.716 22.3568 119.185 23.2891C119.659 24.2214 119.896 25.3073 119.896 26.5469C119.896 27.7865 119.659 28.8698 119.185 29.7969C118.716 30.724 118.052 31.4453 117.193 31.9609C116.333 32.4766 115.318 32.7344 114.146 32.7344ZM114.161 30.4687C114.797 30.4687 115.328 30.2943 115.755 29.9453C116.182 29.5911 116.5 29.1172 116.708 28.5234C116.922 27.9297 117.029 27.2682 117.029 26.5391C117.029 25.8047 116.922 25.1406 116.708 24.5469C116.5 23.9479 116.182 23.4714 115.755 23.1172C115.328 22.763 114.797 22.5859 114.161 22.5859C113.51 22.5859 112.969 22.763 112.536 23.1172C112.109 23.4714 111.789 23.9479 111.575 24.5469C111.367 25.1406 111.263 25.8047 111.263 26.5391C111.263 27.2682 111.367 27.9297 111.575 28.5234C111.789 29.1172 112.109 29.5911 112.536 29.9453C112.969 30.2943 113.51 30.4687 114.161 30.4687ZM141.554 21.8984H138.632C138.548 21.4193 138.395 20.9948 138.171 20.625C137.947 20.25 137.668 19.9323 137.335 19.6719C137.001 19.4115 136.621 19.2161 136.194 19.0859C135.772 18.9505 135.317 18.8828 134.827 18.8828C133.957 18.8828 133.186 19.1016 132.514 19.5391C131.843 19.9714 131.317 20.6068 130.936 21.4453C130.556 22.2786 130.366 23.2969 130.366 24.5C130.366 25.724 130.556 26.7552 130.936 27.5937C131.322 28.4271 131.848 29.0573 132.514 29.4844C133.186 29.9062 133.955 30.1172 134.819 30.1172C135.298 30.1172 135.746 30.0547 136.163 29.9297C136.585 29.7995 136.962 29.6094 137.296 29.3594C137.634 29.1094 137.918 28.8021 138.147 28.4375C138.382 28.0729 138.543 27.6562 138.632 27.1875L141.554 27.2031C141.444 27.9635 141.207 28.6771 140.843 29.3438C140.483 30.0104 140.012 30.599 139.429 31.1094C138.845 31.6146 138.163 32.0104 137.382 32.2969C136.6 32.5781 135.733 32.7187 134.78 32.7187C133.374 32.7187 132.119 32.3932 131.014 31.7422C129.91 31.0911 129.04 30.151 128.405 28.9219C127.77 27.6927 127.452 26.2187 127.452 24.5C127.452 22.776 127.772 21.3021 128.413 20.0781C129.054 18.849 129.926 17.9089 131.03 17.2578C132.134 16.6068 133.384 16.2812 134.78 16.2812C135.671 16.2812 136.499 16.4062 137.264 16.6562C138.03 16.9062 138.712 17.2734 139.311 17.7578C139.91 18.237 140.402 18.8255 140.788 19.5234C141.179 20.2161 141.434 21.0078 141.554 21.8984ZM147.526 32.7422C146.766 32.7422 146.081 32.6068 145.471 32.3359C144.867 32.0599 144.388 31.6536 144.034 31.1172C143.685 30.5807 143.51 29.9193 143.51 29.1328C143.51 28.4557 143.635 27.8958 143.885 27.4531C144.135 27.0104 144.476 26.6562 144.909 26.3906C145.341 26.125 145.828 25.9245 146.37 25.7891C146.917 25.6484 147.482 25.5469 148.065 25.4844C148.768 25.4115 149.338 25.3464 149.776 25.2891C150.213 25.2266 150.531 25.1328 150.729 25.0078C150.932 24.8776 151.034 24.6771 151.034 24.4062V24.3594C151.034 23.7708 150.859 23.3151 150.51 22.9922C150.161 22.6693 149.659 22.5078 149.003 22.5078C148.31 22.5078 147.76 22.6589 147.354 22.9609C146.953 23.263 146.682 23.6198 146.542 24.0312L143.901 23.6562C144.109 22.9271 144.453 22.3177 144.932 21.8281C145.411 21.3333 145.997 20.9635 146.69 20.7187C147.383 20.4688 148.148 20.3438 148.987 20.3438C149.565 20.3438 150.141 20.4115 150.713 20.5469C151.286 20.6823 151.81 20.9062 152.284 21.2187C152.758 21.526 153.138 21.9453 153.424 22.4766C153.716 23.0078 153.862 23.6719 153.862 24.4687V32.5H151.143V30.8516H151.049C150.878 31.1849 150.635 31.4974 150.323 31.7891C150.016 32.0755 149.628 32.3073 149.159 32.4844C148.695 32.6563 148.151 32.7422 147.526 32.7422ZM148.26 30.6641C148.828 30.6641 149.32 30.5521 149.737 30.3281C150.154 30.099 150.474 29.7969 150.698 29.4219C150.927 29.0469 151.042 28.638 151.042 28.1953V26.7812C150.953 26.8542 150.802 26.9219 150.588 26.9844C150.38 27.0469 150.146 27.1016 149.885 27.1484C149.625 27.1953 149.367 27.237 149.112 27.2734C148.857 27.3099 148.635 27.3411 148.448 27.3672C148.026 27.4245 147.648 27.5182 147.315 27.6484C146.982 27.7786 146.719 27.9609 146.526 28.1953C146.333 28.4245 146.237 28.7214 146.237 29.0859C146.237 29.6068 146.427 30 146.807 30.2656C147.187 30.5312 147.672 30.6641 148.26 30.6641ZM159.524 16.5V32.5H156.696V16.5H159.524ZM167.734 32.7344C166.531 32.7344 165.492 32.4844 164.617 31.9844C163.747 31.4792 163.078 30.7656 162.609 29.8437C162.141 28.9167 161.906 27.8255 161.906 26.5703C161.906 25.3359 162.141 24.2526 162.609 23.3203C163.083 22.3828 163.745 21.6536 164.594 21.1328C165.443 20.6068 166.44 20.3438 167.586 20.3438C168.326 20.3438 169.024 20.4635 169.68 20.7031C170.341 20.9375 170.925 21.3021 171.43 21.7969C171.94 22.2917 172.341 22.9219 172.633 23.6875C172.925 24.4479 173.07 25.3542 173.07 26.4062V27.2734H163.234V25.3672H170.359C170.354 24.8255 170.237 24.3437 170.008 23.9219C169.779 23.4948 169.458 23.1589 169.047 22.9141C168.641 22.6693 168.167 22.5469 167.625 22.5469C167.047 22.5469 166.539 22.6875 166.102 22.9687C165.664 23.2448 165.323 23.6094 165.078 24.0625C164.839 24.5104 164.716 25.0026 164.711 25.5391V27.2031C164.711 27.901 164.839 28.5 165.094 29C165.349 29.4948 165.706 29.875 166.164 30.1406C166.622 30.401 167.159 30.5312 167.774 30.5312C168.185 30.5312 168.557 30.474 168.891 30.3594C169.224 30.2396 169.513 30.0651 169.758 29.8359C170.003 29.6068 170.188 29.3229 170.313 28.9844L172.953 29.2812C172.787 29.9792 172.469 30.5885 172 31.1094C171.537 31.625 170.943 32.026 170.219 32.3125C169.495 32.5937 168.667 32.7344 167.734 32.7344ZM178.281 25.4687V32.5H175.453V20.5H178.156V22.5391H178.297C178.573 21.8672 179.013 21.3333 179.617 20.9375C180.226 20.5417 180.979 20.3438 181.875 20.3438C182.703 20.3438 183.424 20.5208 184.039 20.875C184.659 21.2292 185.138 21.7422 185.476 22.4141C185.82 23.0859 185.989 23.901 185.984 24.8594V32.5H183.156V25.2969C183.156 24.4948 182.948 23.8672 182.531 23.4141C182.12 22.9609 181.549 22.7344 180.82 22.7344C180.325 22.7344 179.885 22.8437 179.5 23.0625C179.12 23.276 178.82 23.5859 178.601 23.9922C178.388 24.3984 178.281 24.8906 178.281 25.4687ZM193.302 32.7109C192.36 32.7109 191.516 32.4688 190.771 31.9844C190.026 31.5 189.438 30.7969 189.005 29.875C188.573 28.9531 188.357 27.8333 188.357 26.5156C188.357 25.1823 188.576 24.0573 189.013 23.1406C189.456 22.2187 190.052 21.5234 190.802 21.0547C191.552 20.5807 192.388 20.3438 193.31 20.3438C194.013 20.3438 194.591 20.4635 195.045 20.7031C195.498 20.9375 195.857 21.2214 196.123 21.5547C196.388 21.8828 196.594 22.1927 196.74 22.4844H196.857V16.5H199.693V32.5H196.912V30.6094H196.74C196.594 30.901 196.383 31.2109 196.107 31.5391C195.831 31.862 195.466 32.138 195.013 32.3672C194.56 32.5964 193.99 32.7109 193.302 32.7109ZM194.091 30.3906C194.69 30.3906 195.201 30.2292 195.623 29.9062C196.045 29.5781 196.365 29.1224 196.584 28.5391C196.802 27.9557 196.912 27.276 196.912 26.5C196.912 25.724 196.802 25.0495 196.584 24.4766C196.37 23.9036 196.052 23.4583 195.63 23.1406C195.214 22.8229 194.701 22.6641 194.091 22.6641C193.461 22.6641 192.935 22.8281 192.513 23.1562C192.091 23.4844 191.774 23.9375 191.56 24.5156C191.347 25.0937 191.24 25.7552 191.24 26.5C191.24 27.25 191.347 27.9193 191.56 28.5078C191.779 29.0911 192.099 29.5521 192.521 29.8906C192.948 30.224 193.472 30.3906 194.091 30.3906ZM206.15 32.7422C205.389 32.7422 204.704 32.6068 204.095 32.3359C203.491 32.0599 203.012 31.6536 202.658 31.1172C202.309 30.5807 202.134 29.9193 202.134 29.1328C202.134 28.4557 202.259 27.8958 202.509 27.4531C202.759 27.0104 203.1 26.6562 203.533 26.3906C203.965 26.125 204.452 25.9245 204.994 25.7891C205.54 25.6484 206.105 25.5469 206.689 25.4844C207.392 25.4115 207.962 25.3464 208.4 25.2891C208.837 25.2266 209.155 25.1328 209.353 25.0078C209.556 24.8776 209.658 24.6771 209.658 24.4062V24.3594C209.658 23.7708 209.483 23.3151 209.134 22.9922C208.785 22.6693 208.283 22.5078 207.626 22.5078C206.934 22.5078 206.384 22.6589 205.978 22.9609C205.577 23.263 205.306 23.6198 205.165 24.0312L202.525 23.6562C202.733 22.9271 203.077 22.3177 203.556 21.8281C204.035 21.3333 204.621 20.9635 205.314 20.7187C206.007 20.4688 206.772 20.3438 207.611 20.3438C208.189 20.3438 208.764 20.4115 209.337 20.5469C209.91 20.6823 210.434 20.9062 210.908 21.2187C211.382 21.526 211.762 21.9453 212.048 22.4766C212.34 23.0078 212.486 23.6719 212.486 24.4687V32.5H209.767V30.8516H209.673C209.501 31.1849 209.259 31.4974 208.947 31.7891C208.639 32.0755 208.251 32.3073 207.783 32.4844C207.319 32.6563 206.775 32.7422 206.15 32.7422ZM206.884 30.6641C207.452 30.6641 207.944 30.5521 208.361 30.3281C208.777 30.099 209.098 29.7969 209.322 29.4219C209.551 29.0469 209.665 28.638 209.665 28.1953V26.7812C209.577 26.8542 209.426 26.9219 209.212 26.9844C209.004 27.0469 208.77 27.1016 208.509 27.1484C208.249 27.1953 207.991 27.237 207.736 27.2734C207.48 27.3099 207.259 27.3411 207.072 27.3672C206.65 27.4245 206.272 27.5182 205.939 27.6484C205.605 27.7786 205.342 27.9609 205.15 28.1953C204.957 28.4245 204.861 28.7214 204.861 29.0859C204.861 29.6068 205.051 30 205.431 30.2656C205.811 30.5312 206.296 30.6641 206.884 30.6641ZM215.319 32.5V20.5H218.062V22.5H218.187C218.405 21.8073 218.78 21.2734 219.312 20.8984C219.848 20.5182 220.46 20.3281 221.148 20.3281C221.304 20.3281 221.478 20.3359 221.671 20.3516C221.869 20.362 222.033 20.3802 222.163 20.4062V23.0078C222.043 22.9661 221.853 22.9297 221.593 22.8984C221.338 22.862 221.09 22.8437 220.851 22.8437C220.335 22.8437 219.872 22.9557 219.46 23.1797C219.054 23.3984 218.734 23.7031 218.499 24.0937C218.265 24.4844 218.148 24.9349 218.148 25.4453V32.5H215.319Z" fill="#CD1D8D"/>
<defs>
<radialGradient id="paint0_radial_105_62" cx="0" cy="0" r="1" gradientUnits="userSpaceOnUse" gradientTransform="translate(4 4) rotate(90) scale(32)">
<stop stop-color="white"/>
<stop offset="1" stop-color="white" stop-opacity="0"/>
</radialGradient>
<clipPath id="clip0_105_62">
<rect width="48" height="48" rx="10" fill="white"/>
</clipPath>
</defs>
</svg>
