<svg width="309" height="48" viewBox="0 0 309 48" fill="none" xmlns="http://www.w3.org/2000/svg">
<g clip-path="url(#clip0_16_47)">
<rect width="48" height="48" rx="10" fill="#ED5F00"/>
<g opacity="0.4">
<rect x="-28" y="-28" width="64" height="64" rx="10" fill="url(#paint0_radial_16_47)"/>
</g>
<path opacity="0.4" d="M18.5 18.5H18.51M29.5 18.5H29.51M18.5 29.5H18.51M25 25H25.01M29.5 29.5H29.51M26 28.5V33M33 26H28.5" stroke="white" stroke-width="2" stroke-linecap="round" stroke-linejoin="round"/>
<path d="M29 33H33V29M27.6 22H31.4C31.9601 22 32.2401 22 32.454 21.891C32.6422 21.7951 32.7951 21.6422 32.891 21.454C33 21.2401 33 20.9601 33 20.4V16.6C33 16.0399 33 15.7599 32.891 15.546C32.7951 15.3578 32.6422 15.2049 32.454 15.109C32.2401 15 31.9601 15 31.4 15H27.6C27.0399 15 26.7599 15 26.546 15.109C26.3578 15.2049 26.2049 15.3578 26.109 15.546C26 15.7599 26 16.0399 26 16.6V20.4C26 20.9601 26 21.2401 26.109 21.454C26.2049 21.6422 26.3578 21.7951 26.546 21.891C26.7599 22 27.0399 22 27.6 22ZM16.6 22H20.4C20.9601 22 21.2401 22 21.454 21.891C21.6422 21.7951 21.7951 21.6422 21.891 21.454C22 21.2401 22 20.9601 22 20.4V16.6C22 16.0399 22 15.7599 21.891 15.546C21.7951 15.3578 21.6422 15.2049 21.454 15.109C21.2401 15 20.9601 15 20.4 15H16.6C16.0399 15 15.7599 15 15.546 15.109C15.3578 15.2049 15.2049 15.3578 15.109 15.546C15 15.7599 15 16.0399 15 16.6V20.4C15 20.9601 15 21.2401 15.109 21.454C15.2049 21.6422 15.3578 21.7951 15.546 21.891C15.7599 22 16.0399 22 16.6 22ZM16.6 33H20.4C20.9601 33 21.2401 33 21.454 32.891C21.6422 32.7951 21.7951 32.6422 21.891 32.454C22 32.2401 22 31.9601 22 31.4V27.6C22 27.0399 22 26.7599 21.891 26.546C21.7951 26.3578 21.6422 26.2049 21.454 26.109C21.2401 26 20.9601 26 20.4 26H16.6C16.0399 26 15.7599 26 15.546 26.109C15.3578 26.2049 15.2049 26.3578 15.109 26.546C15 26.7599 15 27.0399 15 27.6V31.4C15 31.9601 15 32.2401 15.109 32.454C15.2049 32.6422 15.3578 32.7951 15.546 32.891C15.7599 33 16.0399 33 16.6 33Z" stroke="white" stroke-width="2" stroke-linecap="round" stroke-linejoin="round"/>
</g>
<path d="M69.5781 32.5V16.5H79.9844V18.9297H72.4766V23.2734H79.4453V25.7031H72.4766V30.0703H80.0469V32.5H69.5781ZM85.1189 20.5L87.5408 24.9297L90.0017 20.5H92.9939L89.3767 26.5L93.0564 32.5H90.0798L87.5408 28.1797L85.0252 32.5H82.0252L85.6814 26.5L82.1189 20.5H85.1189ZM95.1714 37V20.5H97.9527V22.4844H98.1167C98.2626 22.1927 98.4683 21.8828 98.7339 21.5547C98.9995 21.2214 99.3589 20.9375 99.812 20.7031C100.265 20.4635 100.843 20.3438 101.546 20.3438C102.473 20.3438 103.309 20.5807 104.054 21.0547C104.804 21.5234 105.398 22.2187 105.835 23.1406C106.278 24.0573 106.5 25.1823 106.5 26.5156C106.5 27.8333 106.283 28.9531 105.851 29.875C105.419 30.7969 104.83 31.5 104.085 31.9844C103.341 32.4688 102.497 32.7109 101.554 32.7109C100.867 32.7109 100.296 32.5964 99.8433 32.3672C99.3902 32.138 99.0256 31.862 98.7495 31.5391C98.4787 31.2109 98.2678 30.901 98.1167 30.6094H97.9995V37H95.1714ZM97.9448 26.5C97.9448 27.276 98.0542 27.9557 98.273 28.5391C98.4969 29.1224 98.8172 29.5781 99.2339 29.9062C99.6558 30.2292 100.166 30.3906 100.765 30.3906C101.39 30.3906 101.914 30.224 102.335 29.8906C102.757 29.5521 103.075 29.0911 103.289 28.5078C103.507 27.9193 103.617 27.25 103.617 26.5C103.617 25.7552 103.51 25.0937 103.296 24.5156C103.083 23.9375 102.765 23.4844 102.343 23.1562C101.921 22.8281 101.395 22.6641 100.765 22.6641C100.161 22.6641 99.648 22.8229 99.2261 23.1406C98.8042 23.4583 98.4839 23.9036 98.2652 24.4766C98.0516 25.0495 97.9448 25.724 97.9448 26.5ZM114.146 32.7344C112.974 32.7344 111.958 32.4766 111.099 31.9609C110.24 31.4453 109.573 30.724 109.099 29.7969C108.63 28.8698 108.396 27.7865 108.396 26.5469C108.396 25.3073 108.63 24.2214 109.099 23.2891C109.573 22.3568 110.24 21.6328 111.099 21.1172C111.958 20.6016 112.974 20.3438 114.146 20.3438C115.318 20.3438 116.333 20.6016 117.193 21.1172C118.052 21.6328 118.716 22.3568 119.185 23.2891C119.659 24.2214 119.896 25.3073 119.896 26.5469C119.896 27.7865 119.659 28.8698 119.185 29.7969C118.716 30.724 118.052 31.4453 117.193 31.9609C116.333 32.4766 115.318 32.7344 114.146 32.7344ZM114.161 30.4687C114.797 30.4687 115.328 30.2943 115.755 29.9453C116.182 29.5911 116.5 29.1172 116.708 28.5234C116.922 27.9297 117.029 27.2682 117.029 26.5391C117.029 25.8047 116.922 25.1406 116.708 24.5469C116.5 23.9479 116.182 23.4714 115.755 23.1172C115.328 22.763 114.797 22.5859 114.161 22.5859C113.51 22.5859 112.969 22.763 112.536 23.1172C112.109 23.4714 111.789 23.9479 111.575 24.5469C111.367 25.1406 111.263 25.8047 111.263 26.5391C111.263 27.2682 111.367 27.9297 111.575 28.5234C111.789 29.1172 112.109 29.5911 112.536 29.9453C112.969 30.2943 113.51 30.4687 114.161 30.4687ZM127.858 32.5V16.5H133.983C135.139 16.5 136.1 16.6823 136.866 17.0469C137.637 17.4062 138.212 17.8984 138.593 18.5234C138.978 19.1484 139.171 19.8568 139.171 20.6484C139.171 21.2995 139.046 21.8568 138.796 22.3203C138.546 22.7786 138.21 23.151 137.788 23.4375C137.366 23.724 136.895 23.9297 136.374 24.0547V24.2109C136.942 24.2422 137.486 24.4167 138.007 24.7344C138.533 25.0469 138.962 25.4896 139.296 26.0625C139.629 26.6354 139.796 27.3281 139.796 28.1406C139.796 28.9687 139.595 29.7135 139.194 30.375C138.793 31.0312 138.189 31.5495 137.382 31.9297C136.574 32.3099 135.559 32.5 134.335 32.5H127.858ZM130.757 30.0781H133.874C134.926 30.0781 135.684 29.8776 136.147 29.4766C136.616 29.0703 136.85 28.5495 136.85 27.9141C136.85 27.4401 136.733 27.013 136.499 26.6328C136.264 26.2474 135.931 25.9453 135.499 25.7266C135.067 25.5026 134.551 25.3906 133.952 25.3906H130.757V30.0781ZM130.757 23.3047H133.624C134.124 23.3047 134.574 23.2135 134.975 23.0312C135.376 22.8437 135.692 22.5807 135.921 22.2422C136.155 21.8984 136.272 21.4922 136.272 21.0234C136.272 20.4036 136.054 19.8932 135.616 19.4922C135.184 19.0911 134.54 18.8906 133.686 18.8906H130.757V23.3047ZM145.635 32.7422C144.875 32.7422 144.19 32.6068 143.581 32.3359C142.976 32.0599 142.497 31.6536 142.143 31.1172C141.794 30.5807 141.62 29.9193 141.62 29.1328C141.62 28.4557 141.745 27.8958 141.995 27.4531C142.245 27.0104 142.586 26.6562 143.018 26.3906C143.45 26.125 143.937 25.9245 144.479 25.7891C145.026 25.6484 145.591 25.5469 146.174 25.4844C146.878 25.4115 147.448 25.3464 147.885 25.2891C148.323 25.2266 148.641 25.1328 148.838 25.0078C149.042 24.8776 149.143 24.6771 149.143 24.4062V24.3594C149.143 23.7708 148.969 23.3151 148.62 22.9922C148.271 22.6693 147.768 22.5078 147.112 22.5078C146.419 22.5078 145.87 22.6589 145.463 22.9609C145.062 23.263 144.792 23.6198 144.651 24.0312L142.01 23.6562C142.219 22.9271 142.562 22.3177 143.042 21.8281C143.521 21.3333 144.107 20.9635 144.799 20.7187C145.492 20.4688 146.258 20.3438 147.096 20.3438C147.674 20.3438 148.25 20.4115 148.823 20.5469C149.396 20.6823 149.919 20.9062 150.393 21.2187C150.867 21.526 151.247 21.9453 151.534 22.4766C151.825 23.0078 151.971 23.6719 151.971 24.4687V32.5H149.253V30.8516H149.159C148.987 31.1849 148.745 31.4974 148.432 31.7891C148.125 32.0755 147.737 32.3073 147.268 32.4844C146.805 32.6563 146.26 32.7422 145.635 32.7422ZM146.37 30.6641C146.937 30.6641 147.43 30.5521 147.846 30.3281C148.263 30.099 148.583 29.7969 148.807 29.4219C149.036 29.0469 149.151 28.638 149.151 28.1953V26.7812C149.062 26.8542 148.911 26.9219 148.698 26.9844C148.489 27.0469 148.255 27.1016 147.995 27.1484C147.734 27.1953 147.476 27.237 147.221 27.2734C146.966 27.3099 146.745 27.3411 146.557 27.3672C146.135 27.4245 145.758 27.5182 145.424 27.6484C145.091 27.7786 144.828 27.9609 144.635 28.1953C144.443 28.4245 144.346 28.7214 144.346 29.0859C144.346 29.6068 144.536 30 144.917 30.2656C145.297 30.5312 145.781 30.6641 146.37 30.6641ZM154.805 32.5V20.5H157.547V22.5H157.672C157.891 21.8073 158.266 21.2734 158.797 20.8984C159.334 20.5182 159.946 20.3281 160.633 20.3281C160.789 20.3281 160.964 20.3359 161.157 20.3516C161.354 20.362 161.519 20.3802 161.649 20.4062V23.0078C161.529 22.9661 161.339 22.9297 161.078 22.8984C160.823 22.862 160.576 22.8437 160.336 22.8437C159.821 22.8437 159.357 22.9557 158.946 23.1797C158.539 23.3984 158.219 23.7031 157.985 24.0937C157.75 24.4844 157.633 24.9349 157.633 25.4453V32.5H154.805ZM168.258 32.7344C167.06 32.7344 166.031 32.4714 165.172 31.9453C164.318 31.4193 163.659 30.6927 163.195 29.7656C162.737 28.8333 162.508 27.7604 162.508 26.5469C162.508 25.3281 162.742 24.2526 163.211 23.3203C163.68 22.3828 164.341 21.6536 165.195 21.1328C166.055 20.6068 167.07 20.3438 168.242 20.3438C169.216 20.3438 170.078 20.5234 170.828 20.8828C171.583 21.237 172.185 21.7396 172.633 22.3906C173.081 23.0365 173.336 23.7917 173.399 24.6562H170.695C170.586 24.0781 170.326 23.5964 169.914 23.2109C169.508 22.8203 168.964 22.625 168.281 22.625C167.703 22.625 167.195 22.7812 166.758 23.0937C166.32 23.401 165.979 23.8437 165.734 24.4219C165.495 25 165.375 25.6927 165.375 26.5C165.375 27.3177 165.495 28.0208 165.734 28.6094C165.974 29.1927 166.31 29.6432 166.742 29.9609C167.18 30.2734 167.693 30.4297 168.281 30.4297C168.698 30.4297 169.07 30.3516 169.399 30.1953C169.732 30.0339 170.01 29.8021 170.234 29.5C170.458 29.1979 170.612 28.8307 170.695 28.3984H173.399C173.331 29.2474 173.081 30 172.649 30.6562C172.216 31.3073 171.628 31.8177 170.883 32.1875C170.138 32.5521 169.263 32.7344 168.258 32.7344ZM180.945 32.7344C179.773 32.7344 178.758 32.4766 177.898 31.9609C177.039 31.4453 176.372 30.724 175.898 29.7969C175.43 28.8698 175.195 27.7865 175.195 26.5469C175.195 25.3073 175.43 24.2214 175.898 23.2891C176.372 22.3568 177.039 21.6328 177.898 21.1172C178.758 20.6016 179.773 20.3438 180.945 20.3438C182.117 20.3438 183.133 20.6016 183.992 21.1172C184.851 21.6328 185.515 22.3568 185.984 23.2891C186.458 24.2214 186.695 25.3073 186.695 26.5469C186.695 27.7865 186.458 28.8698 185.984 29.7969C185.515 30.724 184.851 31.4453 183.992 31.9609C183.133 32.4766 182.117 32.7344 180.945 32.7344ZM180.961 30.4687C181.596 30.4687 182.127 30.2943 182.555 29.9453C182.982 29.5911 183.299 29.1172 183.508 28.5234C183.721 27.9297 183.828 27.2682 183.828 26.5391C183.828 25.8047 183.721 25.1406 183.508 24.5469C183.299 23.9479 182.982 23.4714 182.555 23.1172C182.127 22.763 181.596 22.5859 180.961 22.5859C180.31 22.5859 179.768 22.763 179.336 23.1172C178.909 23.4714 178.588 23.9479 178.375 24.5469C178.167 25.1406 178.062 25.8047 178.062 26.5391C178.062 27.2682 178.167 27.9297 178.375 28.5234C178.588 29.1172 178.909 29.5911 179.336 29.9453C179.768 30.2943 180.31 30.4687 180.961 30.4687ZM193.539 32.7109C192.596 32.7109 191.752 32.4688 191.007 31.9844C190.263 31.5 189.674 30.7969 189.242 29.875C188.81 28.9531 188.593 27.8333 188.593 26.5156C188.593 25.1823 188.812 24.0573 189.25 23.1406C189.692 22.2187 190.289 21.5234 191.039 21.0547C191.789 20.5807 192.625 20.3438 193.546 20.3438C194.25 20.3438 194.828 20.4635 195.281 20.7031C195.734 20.9375 196.093 21.2214 196.359 21.5547C196.625 21.8828 196.83 22.1927 196.976 22.4844H197.093V16.5H199.929V32.5H197.148V30.6094H196.976C196.83 30.901 196.619 31.2109 196.343 31.5391C196.067 31.862 195.703 32.138 195.25 32.3672C194.796 32.5964 194.226 32.7109 193.539 32.7109ZM194.328 30.3906C194.927 30.3906 195.437 30.2292 195.859 29.9062C196.281 29.5781 196.601 29.1224 196.82 28.5391C197.039 27.9557 197.148 27.276 197.148 26.5C197.148 25.724 197.039 25.0495 196.82 24.4766C196.606 23.9036 196.289 23.4583 195.867 23.1406C195.45 22.8229 194.937 22.6641 194.328 22.6641C193.698 22.6641 193.171 22.8281 192.75 23.1562C192.328 23.4844 192.01 23.9375 191.796 24.5156C191.583 25.0937 191.476 25.7552 191.476 26.5C191.476 27.25 191.583 27.9193 191.796 28.5078C192.015 29.0911 192.336 29.5521 192.757 29.8906C193.185 30.224 193.708 30.3906 194.328 30.3906ZM208.245 32.7344C207.042 32.7344 206.003 32.4844 205.128 31.9844C204.258 31.4792 203.589 30.7656 203.12 29.8437C202.652 28.9167 202.417 27.8255 202.417 26.5703C202.417 25.3359 202.652 24.2526 203.12 23.3203C203.594 22.3828 204.256 21.6536 205.105 21.1328C205.954 20.6068 206.951 20.3438 208.097 20.3438C208.837 20.3438 209.535 20.4635 210.191 20.7031C210.852 20.9375 211.436 21.3021 211.941 21.7969C212.451 22.2917 212.852 22.9219 213.144 23.6875C213.436 24.4479 213.581 25.3542 213.581 26.4062V27.2734H203.745V25.3672H210.87C210.865 24.8255 210.748 24.3437 210.519 23.9219C210.29 23.4948 209.969 23.1589 209.558 22.9141C209.152 22.6693 208.678 22.5469 208.136 22.5469C207.558 22.5469 207.05 22.6875 206.613 22.9687C206.175 23.2448 205.834 23.6094 205.589 24.0625C205.35 24.5104 205.227 25.0026 205.222 25.5391V27.2031C205.222 27.901 205.35 28.5 205.605 29C205.86 29.4948 206.217 29.875 206.675 30.1406C207.133 30.401 207.67 30.5312 208.285 30.5312C208.696 30.5312 209.068 30.474 209.402 30.3594C209.735 30.2396 210.024 30.0651 210.269 29.8359C210.514 29.6068 210.699 29.3229 210.824 28.9844L213.464 29.2812C213.298 29.9792 212.98 30.5885 212.511 31.1094C212.048 31.625 211.454 32.026 210.73 32.3125C210.006 32.5937 209.178 32.7344 208.245 32.7344ZM230.231 20.8984C230.158 20.2161 229.851 19.6849 229.309 19.3047C228.773 18.9245 228.075 18.7344 227.216 18.7344C226.612 18.7344 226.093 18.8255 225.661 19.0078C225.229 19.1901 224.898 19.4375 224.669 19.75C224.44 20.0625 224.322 20.4193 224.317 20.8203C224.317 21.1536 224.393 21.4427 224.544 21.6875C224.7 21.9323 224.911 22.1406 225.177 22.3125C225.442 22.4792 225.737 22.6198 226.059 22.7344C226.382 22.849 226.708 22.9453 227.036 23.0234L228.536 23.3984C229.14 23.5391 229.721 23.7292 230.278 23.9687C230.841 24.2083 231.343 24.5104 231.786 24.875C232.234 25.2396 232.588 25.6797 232.849 26.1953C233.109 26.7109 233.239 27.3151 233.239 28.0078C233.239 28.9453 233 29.7708 232.52 30.4844C232.041 31.1927 231.349 31.7474 230.442 32.1484C229.541 32.5443 228.45 32.7422 227.169 32.7422C225.924 32.7422 224.843 32.5495 223.927 32.1641C223.015 31.7786 222.302 31.2161 221.786 30.4766C221.276 29.737 221 28.8359 220.958 27.7734H223.809C223.851 28.3307 224.023 28.7943 224.325 29.1641C224.627 29.5339 225.02 29.8099 225.505 29.9922C225.994 30.1745 226.541 30.2656 227.145 30.2656C227.776 30.2656 228.328 30.1719 228.802 29.9844C229.281 29.7917 229.656 29.526 229.927 29.1875C230.197 28.8437 230.335 28.4427 230.341 27.9844C230.335 27.5677 230.213 27.224 229.974 26.9531C229.734 26.6771 229.398 26.4479 228.966 26.2656C228.539 26.0781 228.039 25.9115 227.466 25.7656L225.645 25.2969C224.328 24.9583 223.286 24.4453 222.52 23.7578C221.76 23.0651 221.38 22.1458 221.38 21C221.38 20.0573 221.635 19.2318 222.145 18.5234C222.661 17.8151 223.362 17.2656 224.247 16.875C225.132 16.4792 226.135 16.2812 227.255 16.2812C228.39 16.2812 229.385 16.4792 230.239 16.875C231.099 17.2656 231.773 17.8099 232.263 18.5078C232.752 19.2005 233.005 19.9974 233.02 20.8984H230.231ZM240.923 32.7344C239.725 32.7344 238.696 32.4714 237.837 31.9453C236.982 31.4193 236.324 30.6927 235.86 29.7656C235.402 28.8333 235.173 27.7604 235.173 26.5469C235.173 25.3281 235.407 24.2526 235.876 23.3203C236.344 22.3828 237.006 21.6536 237.86 21.1328C238.719 20.6068 239.735 20.3438 240.907 20.3438C241.881 20.3438 242.743 20.5234 243.493 20.8828C244.248 21.237 244.85 21.7396 245.298 22.3906C245.745 23.0365 246.001 23.7917 246.063 24.6562H243.36C243.251 24.0781 242.99 23.5964 242.579 23.2109C242.173 22.8203 241.628 22.625 240.946 22.625C240.368 22.625 239.86 22.7812 239.423 23.0937C238.985 23.401 238.644 23.8437 238.399 24.4219C238.159 25 238.04 25.6927 238.04 26.5C238.04 27.3177 238.159 28.0208 238.399 28.6094C238.639 29.1927 238.975 29.6432 239.407 29.9609C239.844 30.2734 240.357 30.4297 240.946 30.4297C241.363 30.4297 241.735 30.3516 242.063 30.1953C242.396 30.0339 242.675 29.8021 242.899 29.5C243.123 29.1979 243.277 28.8307 243.36 28.3984H246.063C245.995 29.2474 245.745 30 245.313 30.6562C244.881 31.3073 244.292 31.8177 243.548 32.1875C242.803 32.5521 241.928 32.7344 240.923 32.7344ZM251.829 32.7422C251.068 32.7422 250.383 32.6068 249.774 32.3359C249.17 32.0599 248.691 31.6536 248.336 31.1172C247.987 30.5807 247.813 29.9193 247.813 29.1328C247.813 28.4557 247.938 27.8958 248.188 27.4531C248.438 27.0104 248.779 26.6562 249.211 26.3906C249.644 26.125 250.131 25.9245 250.672 25.7891C251.219 25.6484 251.784 25.5469 252.368 25.4844C253.071 25.4115 253.641 25.3464 254.079 25.2891C254.516 25.2266 254.834 25.1328 255.032 25.0078C255.235 24.8776 255.336 24.6771 255.336 24.4062V24.3594C255.336 23.7708 255.162 23.3151 254.813 22.9922C254.464 22.6693 253.961 22.5078 253.305 22.5078C252.612 22.5078 252.063 22.6589 251.657 22.9609C251.256 23.263 250.985 23.6198 250.844 24.0312L248.204 23.6562C248.412 22.9271 248.756 22.3177 249.235 21.8281C249.714 21.3333 250.3 20.9635 250.993 20.7187C251.685 20.4688 252.451 20.3438 253.289 20.3438C253.868 20.3438 254.443 20.4115 255.016 20.5469C255.589 20.6823 256.112 20.9062 256.586 21.2187C257.06 21.526 257.441 21.9453 257.727 22.4766C258.019 23.0078 258.164 23.6719 258.164 24.4687V32.5H255.446V30.8516H255.352C255.18 31.1849 254.938 31.4974 254.625 31.7891C254.318 32.0755 253.93 32.3073 253.461 32.4844C252.998 32.6563 252.454 32.7422 251.829 32.7422ZM252.563 30.6641C253.131 30.6641 253.623 30.5521 254.039 30.3281C254.456 30.099 254.776 29.7969 255 29.4219C255.23 29.0469 255.344 28.638 255.344 28.1953V26.7812C255.256 26.8542 255.105 26.9219 254.891 26.9844C254.683 27.0469 254.448 27.1016 254.188 27.1484C253.927 27.1953 253.67 27.237 253.414 27.2734C253.159 27.3099 252.938 27.3411 252.75 27.3672C252.329 27.4245 251.951 27.5182 251.618 27.6484C251.284 27.7786 251.021 27.9609 250.829 28.1953C250.636 28.4245 250.539 28.7214 250.539 29.0859C250.539 29.6068 250.73 30 251.11 30.2656C251.49 30.5312 251.974 30.6641 252.563 30.6641ZM263.826 25.4687V32.5H260.998V20.5H263.701V22.5391H263.842C264.118 21.8672 264.558 21.3333 265.162 20.9375C265.772 20.5417 266.524 20.3438 267.42 20.3438C268.248 20.3438 268.97 20.5208 269.584 20.875C270.204 21.2292 270.683 21.7422 271.022 22.4141C271.365 23.0859 271.535 23.901 271.529 24.8594V32.5H268.701V25.2969C268.701 24.4948 268.493 23.8672 268.076 23.4141C267.665 22.9609 267.095 22.7344 266.365 22.7344C265.871 22.7344 265.43 22.8437 265.045 23.0625C264.665 23.276 264.365 23.5859 264.147 23.9922C263.933 24.3984 263.826 24.8906 263.826 25.4687ZM277.223 25.4687V32.5H274.394V20.5H277.098V22.5391H277.238C277.514 21.8672 277.954 21.3333 278.559 20.9375C279.168 20.5417 279.92 20.3438 280.816 20.3438C281.644 20.3438 282.366 20.5208 282.98 20.875C283.6 21.2292 284.079 21.7422 284.418 22.4141C284.762 23.0859 284.931 23.901 284.926 24.8594V32.5H282.098V25.2969C282.098 24.4948 281.889 23.8672 281.473 23.4141C281.061 22.9609 280.491 22.7344 279.762 22.7344C279.267 22.7344 278.827 22.8437 278.441 23.0625C278.061 23.276 277.762 23.5859 277.543 23.9922C277.329 24.3984 277.223 24.8906 277.223 25.4687ZM293.103 32.7344C291.9 32.7344 290.861 32.4844 289.986 31.9844C289.116 31.4792 288.447 30.7656 287.978 29.8437C287.509 28.9167 287.275 27.8255 287.275 26.5703C287.275 25.3359 287.509 24.2526 287.978 23.3203C288.452 22.3828 289.114 21.6536 289.963 21.1328C290.812 20.6068 291.809 20.3438 292.955 20.3438C293.694 20.3438 294.392 20.4635 295.049 20.7031C295.71 20.9375 296.293 21.3021 296.799 21.7969C297.309 22.2917 297.71 22.9219 298.002 23.6875C298.293 24.4479 298.439 25.3542 298.439 26.4062V27.2734H288.603V25.3672H295.728C295.723 24.8255 295.606 24.3437 295.377 23.9219C295.147 23.4948 294.827 23.1589 294.416 22.9141C294.009 22.6693 293.536 22.5469 292.994 22.5469C292.416 22.5469 291.908 22.6875 291.47 22.9687C291.033 23.2448 290.692 23.6094 290.447 24.0625C290.207 24.5104 290.085 25.0026 290.08 25.5391V27.2031C290.08 27.901 290.207 28.5 290.463 29C290.718 29.4948 291.075 29.875 291.533 30.1406C291.991 30.401 292.528 30.5312 293.142 30.5312C293.554 30.5312 293.926 30.474 294.259 30.3594C294.593 30.2396 294.882 30.0651 295.127 29.8359C295.371 29.6068 295.556 29.3229 295.681 28.9844L298.322 29.2812C298.155 29.9792 297.838 30.5885 297.369 31.1094C296.905 31.625 296.312 32.026 295.588 32.3125C294.864 32.5937 294.036 32.7344 293.103 32.7344ZM300.822 32.5V20.5H303.564V22.5H303.689C303.908 21.8073 304.283 21.2734 304.814 20.8984C305.35 20.5182 305.962 20.3281 306.65 20.3281C306.806 20.3281 306.981 20.3359 307.173 20.3516C307.371 20.362 307.535 20.3802 307.665 20.4062V23.0078C307.546 22.9661 307.356 22.9297 307.095 22.8984C306.84 22.862 306.593 22.8437 306.353 22.8437C305.837 22.8437 305.374 22.9557 304.962 23.1797C304.556 23.3984 304.236 23.7031 304.001 24.0937C303.767 24.4844 303.65 24.9349 303.65 25.4453V32.5H300.822Z" fill="#ED5F00"/>
<defs>
<radialGradient id="paint0_radial_16_47" cx="0" cy="0" r="1" gradientUnits="userSpaceOnUse" gradientTransform="translate(4 4) rotate(90) scale(32)">
<stop stop-color="white"/>
<stop offset="1" stop-color="white" stop-opacity="0"/>
</radialGradient>
<clipPath id="clip0_16_47">
<rect width="48" height="48" rx="10" fill="white"/>
</clipPath>
</defs>
</svg>
