<svg width="268" height="48" viewBox="0 0 268 48" fill="none" xmlns="http://www.w3.org/2000/svg">
<g clip-path="url(#clip0_37_110)">
<rect width="48" height="48" rx="10" fill="#369EFF"/>
<g opacity="0.4">
<rect x="-28" y="-28" width="64" height="64" rx="10" fill="url(#paint0_radial_37_110)"/>
</g>
<path opacity="0.4" d="M24 34C21 32 20.0772 27.708 20 24C20.0772 20.292 21 16 24 14M14 24C16 21 20.292 20.0772 24 20C27.708 20.0772 32 21 34 24" stroke="white" stroke-width="2" stroke-linecap="round" stroke-linejoin="round"/>
<path d="M34 24C34 29.5228 29.5228 34 24 34M34 24C34 18.4772 29.5228 14 24 14M34 24C32.6372 26.0442 30.2102 27.1239 27.6289 27.6289M24 34C18.4772 34 14 29.5228 14 24M24 34C26.0442 32.6372 27.1239 30.2102 27.6289 27.6289M14 24C14 18.4772 18.4772 14 24 14M14 24C16 27 20.292 27.9228 24 28C25.1813 27.9754 26.422 27.865 27.6289 27.6289M24 14C27 16 27.9228 20.292 28 24C27.9754 25.1813 27.865 26.422 27.6289 27.6289" stroke="white" stroke-width="2" stroke-linecap="round" stroke-linejoin="round"/>
</g>
<path d="M69.5781 32.5V16.5H79.9844V18.9297H72.4766V23.2734H79.4453V25.7031H72.4766V30.0703H80.0469V32.5H69.5781ZM85.1189 20.5L87.5408 24.9297L90.0017 20.5H92.9939L89.3767 26.5L93.0564 32.5H90.0798L87.5408 28.1797L85.0252 32.5H82.0252L85.6814 26.5L82.1189 20.5H85.1189ZM95.1714 37V20.5H97.9527V22.4844H98.1167C98.2626 22.1927 98.4683 21.8828 98.7339 21.5547C98.9995 21.2214 99.3589 20.9375 99.812 20.7031C100.265 20.4635 100.843 20.3438 101.546 20.3438C102.473 20.3438 103.309 20.5807 104.054 21.0547C104.804 21.5234 105.398 22.2187 105.835 23.1406C106.278 24.0573 106.5 25.1823 106.5 26.5156C106.5 27.8333 106.283 28.9531 105.851 29.875C105.419 30.7969 104.83 31.5 104.085 31.9844C103.341 32.4688 102.497 32.7109 101.554 32.7109C100.867 32.7109 100.296 32.5964 99.8433 32.3672C99.3902 32.138 99.0256 31.862 98.7495 31.5391C98.4787 31.2109 98.2678 30.901 98.1167 30.6094H97.9995V37H95.1714ZM97.9448 26.5C97.9448 27.276 98.0542 27.9557 98.273 28.5391C98.4969 29.1224 98.8172 29.5781 99.2339 29.9062C99.6558 30.2292 100.166 30.3906 100.765 30.3906C101.39 30.3906 101.914 30.224 102.335 29.8906C102.757 29.5521 103.075 29.0911 103.289 28.5078C103.507 27.9193 103.617 27.25 103.617 26.5C103.617 25.7552 103.51 25.0937 103.296 24.5156C103.083 23.9375 102.765 23.4844 102.343 23.1562C101.921 22.8281 101.395 22.6641 100.765 22.6641C100.161 22.6641 99.648 22.8229 99.2261 23.1406C98.8042 23.4583 98.4839 23.9036 98.2652 24.4766C98.0516 25.0495 97.9448 25.724 97.9448 26.5ZM114.146 32.7344C112.974 32.7344 111.958 32.4766 111.099 31.9609C110.24 31.4453 109.573 30.724 109.099 29.7969C108.63 28.8698 108.396 27.7865 108.396 26.5469C108.396 25.3073 108.63 24.2214 109.099 23.2891C109.573 22.3568 110.24 21.6328 111.099 21.1172C111.958 20.6016 112.974 20.3438 114.146 20.3438C115.318 20.3438 116.333 20.6016 117.193 21.1172C118.052 21.6328 118.716 22.3568 119.185 23.2891C119.659 24.2214 119.896 25.3073 119.896 26.5469C119.896 27.7865 119.659 28.8698 119.185 29.7969C118.716 30.724 118.052 31.4453 117.193 31.9609C116.333 32.4766 115.318 32.7344 114.146 32.7344ZM114.161 30.4687C114.797 30.4687 115.328 30.2943 115.755 29.9453C116.182 29.5911 116.5 29.1172 116.708 28.5234C116.922 27.9297 117.029 27.2682 117.029 26.5391C117.029 25.8047 116.922 25.1406 116.708 24.5469C116.5 23.9479 116.182 23.4714 115.755 23.1172C115.328 22.763 114.797 22.5859 114.161 22.5859C113.51 22.5859 112.969 22.763 112.536 23.1172C112.109 23.4714 111.789 23.9479 111.575 24.5469C111.367 25.1406 111.263 25.8047 111.263 26.5391C111.263 27.2682 111.367 27.9297 111.575 28.5234C111.789 29.1172 112.109 29.5911 112.536 29.9453C112.969 30.2943 113.51 30.4687 114.161 30.4687ZM131.225 32.5L126.71 16.5H129.827L132.71 28.2578H132.858L135.936 16.5H138.772L141.858 28.2656H141.999L144.882 16.5H147.999L143.483 32.5H140.624L137.421 21.2734H137.296L134.085 32.5H131.225ZM153.961 32.7344C152.758 32.7344 151.719 32.4844 150.844 31.9844C149.975 31.4792 149.305 30.7656 148.836 29.8437C148.368 28.9167 148.133 27.8255 148.133 26.5703C148.133 25.3359 148.368 24.2526 148.836 23.3203C149.31 22.3828 149.972 21.6536 150.821 21.1328C151.67 20.6068 152.667 20.3438 153.813 20.3438C154.553 20.3438 155.251 20.4635 155.907 20.7031C156.568 20.9375 157.152 21.3021 157.657 21.7969C158.167 22.2917 158.568 22.9219 158.86 23.6875C159.152 24.4479 159.297 25.3542 159.297 26.4062V27.2734H149.461V25.3672H156.586C156.581 24.8255 156.464 24.3437 156.235 23.9219C156.006 23.4948 155.685 23.1589 155.274 22.9141C154.868 22.6693 154.394 22.5469 153.852 22.5469C153.274 22.5469 152.766 22.6875 152.329 22.9687C151.891 23.2448 151.55 23.6094 151.305 24.0625C151.066 24.5104 150.943 25.0026 150.938 25.5391V27.2031C150.938 27.901 151.066 28.5 151.321 29C151.576 29.4948 151.933 29.875 152.391 30.1406C152.85 30.401 153.386 30.5312 154.001 30.5312C154.412 30.5312 154.784 30.474 155.118 30.3594C155.451 30.2396 155.74 30.0651 155.985 29.8359C156.23 29.6068 156.415 29.3229 156.54 28.9844L159.18 29.2812C159.014 29.9792 158.696 30.5885 158.227 31.1094C157.764 31.625 157.17 32.026 156.446 32.3125C155.722 32.5937 154.894 32.7344 153.961 32.7344ZM161.805 32.5V16.5H164.633V22.4844H164.75C164.896 22.1927 165.102 21.8828 165.368 21.5547C165.633 21.2214 165.993 20.9375 166.446 20.7031C166.899 20.4635 167.477 20.3438 168.18 20.3438C169.107 20.3438 169.943 20.5807 170.688 21.0547C171.438 21.5234 172.032 22.2187 172.469 23.1406C172.912 24.0573 173.133 25.1823 173.133 26.5156C173.133 27.8333 172.917 28.9531 172.485 29.875C172.052 30.7969 171.464 31.5 170.719 31.9844C169.974 32.4688 169.131 32.7109 168.188 32.7109C167.5 32.7109 166.93 32.5964 166.477 32.3672C166.024 32.138 165.659 31.862 165.383 31.5391C165.112 31.2109 164.901 30.901 164.75 30.6094H164.586V32.5H161.805ZM164.578 26.5C164.578 27.276 164.688 27.9557 164.907 28.5391C165.131 29.1224 165.451 29.5781 165.868 29.9062C166.289 30.2292 166.8 30.3906 167.399 30.3906C168.024 30.3906 168.547 30.224 168.969 29.8906C169.391 29.5521 169.709 29.0911 169.922 28.5078C170.141 27.9193 170.25 27.25 170.25 26.5C170.25 25.7552 170.144 25.0937 169.93 24.5156C169.716 23.9375 169.399 23.4844 168.977 23.1562C168.555 22.8281 168.029 22.6641 167.399 22.6641C166.795 22.6641 166.282 22.8229 165.86 23.1406C165.438 23.4583 165.118 23.9036 164.899 24.4766C164.685 25.0495 164.578 25.724 164.578 26.5ZM181.099 32.5V16.5H187.224C188.381 16.5 189.342 16.6823 190.107 17.0469C190.878 17.4062 191.454 17.8984 191.834 18.5234C192.219 19.1484 192.412 19.8568 192.412 20.6484C192.412 21.2995 192.287 21.8568 192.037 22.3203C191.787 22.7786 191.451 23.151 191.029 23.4375C190.607 23.724 190.136 23.9297 189.615 24.0547V24.2109C190.183 24.2422 190.727 24.4167 191.248 24.7344C191.774 25.0469 192.204 25.4896 192.537 26.0625C192.87 26.6354 193.037 27.3281 193.037 28.1406C193.037 28.9687 192.836 29.7135 192.435 30.375C192.034 31.0312 191.43 31.5495 190.623 31.9297C189.816 32.3099 188.8 32.5 187.576 32.5H181.099ZM183.998 30.0781H187.115C188.167 30.0781 188.925 29.8776 189.389 29.4766C189.857 29.0703 190.092 28.5495 190.092 27.9141C190.092 27.4401 189.974 27.013 189.74 26.6328C189.506 26.2474 189.172 25.9453 188.74 25.7266C188.308 25.5026 187.792 25.3906 187.193 25.3906H183.998V30.0781ZM183.998 23.3047H186.865C187.365 23.3047 187.816 23.2135 188.217 23.0312C188.618 22.8437 188.933 22.5807 189.162 22.2422C189.396 21.8984 189.514 21.4922 189.514 21.0234C189.514 20.4036 189.295 19.8932 188.857 19.4922C188.425 19.0911 187.782 18.8906 186.928 18.8906H183.998V23.3047ZM195.423 32.5V20.5H198.166V22.5H198.291C198.509 21.8073 198.884 21.2734 199.416 20.8984C199.952 20.5182 200.564 20.3281 201.252 20.3281C201.408 20.3281 201.582 20.3359 201.775 20.3516C201.973 20.362 202.137 20.3802 202.267 20.4062V23.0078C202.147 22.9661 201.957 22.9297 201.697 22.8984C201.442 22.862 201.194 22.8437 200.955 22.8437C200.439 22.8437 199.976 22.9557 199.564 23.1797C199.158 23.3984 198.838 23.7031 198.603 24.0937C198.369 24.4844 198.252 24.9349 198.252 25.4453V32.5H195.423ZM208.876 32.7344C207.704 32.7344 206.689 32.4766 205.829 31.9609C204.97 31.4453 204.303 30.724 203.829 29.7969C203.361 28.8698 203.126 27.7865 203.126 26.5469C203.126 25.3073 203.361 24.2214 203.829 23.2891C204.303 22.3568 204.97 21.6328 205.829 21.1172C206.689 20.6016 207.704 20.3438 208.876 20.3438C210.048 20.3438 211.064 20.6016 211.923 21.1172C212.783 21.6328 213.447 22.3568 213.915 23.2891C214.389 24.2214 214.626 25.3073 214.626 26.5469C214.626 27.7865 214.389 28.8698 213.915 29.7969C213.447 30.724 212.783 31.4453 211.923 31.9609C211.064 32.4766 210.048 32.7344 208.876 32.7344ZM208.892 30.4687C209.527 30.4687 210.059 30.2943 210.486 29.9453C210.913 29.5911 211.23 29.1172 211.439 28.5234C211.652 27.9297 211.759 27.2682 211.759 26.5391C211.759 25.8047 211.652 25.1406 211.439 24.5469C211.23 23.9479 210.913 23.4714 210.486 23.1172C210.059 22.763 209.527 22.5859 208.892 22.5859C208.241 22.5859 207.699 22.763 207.267 23.1172C206.84 23.4714 206.52 23.9479 206.306 24.5469C206.098 25.1406 205.994 25.8047 205.994 26.5391C205.994 27.2682 206.098 27.9297 206.306 28.5234C206.52 29.1172 206.84 29.5911 207.267 29.9453C207.699 30.2943 208.241 30.4687 208.892 30.4687ZM219.15 32.5L215.759 20.5H218.642L220.751 28.9375H220.86L223.017 20.5H225.868L228.025 28.8906H228.142L230.22 20.5H233.11L229.712 32.5H226.767L224.517 24.3906H224.353L222.103 32.5H219.15ZM244.559 23.6719L241.981 23.9531C241.908 23.6927 241.781 23.4479 241.599 23.2188C241.421 22.9896 241.182 22.8047 240.88 22.6641C240.578 22.5234 240.208 22.4531 239.77 22.4531C239.182 22.4531 238.687 22.5807 238.286 22.8359C237.89 23.0911 237.695 23.4219 237.7 23.8281C237.695 24.1771 237.822 24.4609 238.083 24.6797C238.349 24.8984 238.786 25.0781 239.395 25.2188L241.442 25.6562C242.578 25.901 243.421 26.2891 243.974 26.8203C244.531 27.3516 244.812 28.0469 244.817 28.9062C244.812 29.6615 244.591 30.3281 244.153 30.9062C243.721 31.4792 243.119 31.9271 242.349 32.25C241.578 32.5729 240.692 32.7344 239.692 32.7344C238.224 32.7344 237.041 32.4271 236.145 31.8125C235.25 31.1927 234.716 30.3307 234.544 29.2266L237.302 28.9609C237.427 29.5026 237.692 29.9115 238.099 30.1875C238.505 30.4635 239.033 30.6016 239.684 30.6016C240.356 30.6016 240.895 30.4635 241.302 30.1875C241.713 29.9115 241.919 29.5703 241.919 29.1641C241.919 28.8203 241.786 28.5365 241.52 28.3125C241.26 28.0885 240.854 27.9167 240.302 27.7969L238.255 27.3672C237.104 27.1276 236.252 26.724 235.7 26.1562C235.148 25.5833 234.875 24.8594 234.88 23.9844C234.875 23.2448 235.075 22.6042 235.481 22.0625C235.893 21.5156 236.463 21.0937 237.192 20.7969C237.927 20.4948 238.773 20.3438 239.731 20.3438C241.138 20.3438 242.244 20.6432 243.052 21.2422C243.864 21.8411 244.367 22.651 244.559 23.6719ZM252.452 32.7344C251.249 32.7344 250.21 32.4844 249.335 31.9844C248.465 31.4792 247.796 30.7656 247.327 29.8437C246.858 28.9167 246.624 27.8255 246.624 26.5703C246.624 25.3359 246.858 24.2526 247.327 23.3203C247.801 22.3828 248.462 21.6536 249.311 21.1328C250.16 20.6068 251.158 20.3438 252.303 20.3438C253.043 20.3438 253.741 20.4635 254.397 20.7031C255.059 20.9375 255.642 21.3021 256.147 21.7969C256.658 22.2917 257.059 22.9219 257.35 23.6875C257.642 24.4479 257.788 25.3542 257.788 26.4062V27.2734H247.952V25.3672H255.077C255.072 24.8255 254.954 24.3437 254.725 23.9219C254.496 23.4948 254.176 23.1589 253.764 22.9141C253.358 22.6693 252.884 22.5469 252.342 22.5469C251.764 22.5469 251.256 22.6875 250.819 22.9687C250.381 23.2448 250.04 23.6094 249.796 24.0625C249.556 24.5104 249.434 25.0026 249.428 25.5391V27.2031C249.428 27.901 249.556 28.5 249.811 29C250.066 29.4948 250.423 29.875 250.881 30.1406C251.34 30.401 251.876 30.5312 252.491 30.5312C252.902 30.5312 253.275 30.474 253.608 30.3594C253.941 30.2396 254.23 30.0651 254.475 29.8359C254.72 29.6068 254.905 29.3229 255.03 28.9844L257.671 29.2812C257.504 29.9792 257.186 30.5885 256.717 31.1094C256.254 31.625 255.66 32.026 254.936 32.3125C254.212 32.5937 253.384 32.7344 252.452 32.7344ZM260.17 32.5V20.5H262.913V22.5H263.038C263.256 21.8073 263.631 21.2734 264.163 20.8984C264.699 20.5182 265.311 20.3281 265.998 20.3281C266.155 20.3281 266.329 20.3359 266.522 20.3516C266.72 20.362 266.884 20.3802 267.014 20.4062V23.0078C266.894 22.9661 266.704 22.9297 266.444 22.8984C266.189 22.862 265.941 22.8437 265.702 22.8437C265.186 22.8437 264.722 22.9557 264.311 23.1797C263.905 23.3984 263.584 23.7031 263.35 24.0937C263.116 24.4844 262.998 24.9349 262.998 25.4453V32.5H260.17Z" fill="#369EFF"/>
<defs>
<radialGradient id="paint0_radial_37_110" cx="0" cy="0" r="1" gradientUnits="userSpaceOnUse" gradientTransform="translate(4 4) rotate(90) scale(32)">
<stop stop-color="white"/>
<stop offset="1" stop-color="white" stop-opacity="0"/>
</radialGradient>
<clipPath id="clip0_37_110">
<rect width="48" height="48" rx="10" fill="white"/>
</clipPath>
</defs>
</svg>
