<svg width="218" height="48" viewBox="0 0 218 48" fill="none" xmlns="http://www.w3.org/2000/svg">
<g clip-path="url(#clip0_524_185)">
<rect width="48" height="48" rx="10" fill="#8445BC"/>
<g opacity="0.4">
<rect x="-28" y="-28" width="64" height="64" rx="10" fill="url(#paint0_radial_524_185)"/>
</g>
<path d="M24 14L26.012 19.2311C26.294 19.9643 26.435 20.3309 26.6542 20.6393C26.8486 20.9126 27.0874 21.1514 27.3607 21.3458C27.6691 21.565 28.0357 21.706 28.7689 21.988L34 24L28.7689 26.012C28.0357 26.294 27.6691 26.435 27.3607 26.6542C27.0874 26.8486 26.8486 27.0874 26.6542 27.3607C26.435 27.6691 26.294 28.0357 26.012 28.7689L24 34L21.988 28.7689C21.706 28.0357 21.565 27.6691 21.3458 27.3607C21.1514 27.0874 20.9126 26.8486 20.6393 26.6542C20.3309 26.435 19.9643 26.294 19.2311 26.012L14 24L19.2311 21.988C19.9643 21.706 20.3309 21.565 20.6393 21.3458C20.9126 21.1514 21.1514 20.9126 21.3458 20.6393C21.565 20.3309 21.706 19.9643 21.988 19.2311L24 14Z" stroke="white" stroke-width="2" stroke-linecap="round" stroke-linejoin="round"/>
</g>
<path d="M69.5781 32.5V16.5H79.9844V18.9297H72.4766V23.2734H79.4453V25.7031H72.4766V30.0703H80.0469V32.5H69.5781ZM85.1189 20.5L87.5408 24.9297L90.0017 20.5H92.9939L89.3767 26.5L93.0564 32.5H90.0798L87.5408 28.1797L85.0252 32.5H82.0252L85.6814 26.5L82.1189 20.5H85.1189ZM95.1714 37V20.5H97.9527V22.4844H98.1167C98.2626 22.1927 98.4683 21.8828 98.7339 21.5547C98.9995 21.2214 99.3589 20.9375 99.812 20.7031C100.265 20.4635 100.843 20.3438 101.546 20.3438C102.473 20.3438 103.309 20.5807 104.054 21.0547C104.804 21.5234 105.398 22.2187 105.835 23.1406C106.278 24.0573 106.5 25.1823 106.5 26.5156C106.5 27.8333 106.283 28.9531 105.851 29.875C105.419 30.7969 104.83 31.5 104.085 31.9844C103.341 32.4688 102.497 32.7109 101.554 32.7109C100.867 32.7109 100.296 32.5964 99.8433 32.3672C99.3902 32.138 99.0256 31.862 98.7495 31.5391C98.4787 31.2109 98.2678 30.901 98.1167 30.6094H97.9995V37H95.1714ZM97.9448 26.5C97.9448 27.276 98.0542 27.9557 98.273 28.5391C98.4969 29.1224 98.8172 29.5781 99.2339 29.9062C99.6558 30.2292 100.166 30.3906 100.765 30.3906C101.39 30.3906 101.914 30.224 102.335 29.8906C102.757 29.5521 103.075 29.0911 103.289 28.5078C103.507 27.9193 103.617 27.25 103.617 26.5C103.617 25.7552 103.51 25.0937 103.296 24.5156C103.083 23.9375 102.765 23.4844 102.343 23.1562C101.921 22.8281 101.395 22.6641 100.765 22.6641C100.161 22.6641 99.648 22.8229 99.2261 23.1406C98.8042 23.4583 98.4839 23.9036 98.2652 24.4766C98.0516 25.0495 97.9448 25.724 97.9448 26.5ZM114.146 32.7344C112.974 32.7344 111.958 32.4766 111.099 31.9609C110.24 31.4453 109.573 30.724 109.099 29.7969C108.63 28.8698 108.396 27.7865 108.396 26.5469C108.396 25.3073 108.63 24.2214 109.099 23.2891C109.573 22.3568 110.24 21.6328 111.099 21.1172C111.958 20.6016 112.974 20.3438 114.146 20.3438C115.318 20.3438 116.333 20.6016 117.193 21.1172C118.052 21.6328 118.716 22.3568 119.185 23.2891C119.659 24.2214 119.896 25.3073 119.896 26.5469C119.896 27.7865 119.659 28.8698 119.185 29.7969C118.716 30.724 118.052 31.4453 117.193 31.9609C116.333 32.4766 115.318 32.7344 114.146 32.7344ZM114.161 30.4687C114.797 30.4687 115.328 30.2943 115.755 29.9453C116.182 29.5911 116.5 29.1172 116.708 28.5234C116.922 27.9297 117.029 27.2682 117.029 26.5391C117.029 25.8047 116.922 25.1406 116.708 24.5469C116.5 23.9479 116.182 23.4714 115.755 23.1172C115.328 22.763 114.797 22.5859 114.161 22.5859C113.51 22.5859 112.969 22.763 112.536 23.1172C112.109 23.4714 111.789 23.9479 111.575 24.5469C111.367 25.1406 111.263 25.8047 111.263 26.5391C111.263 27.2682 111.367 27.9297 111.575 28.5234C111.789 29.1172 112.109 29.5911 112.536 29.9453C112.969 30.2943 113.51 30.4687 114.161 30.4687ZM136.554 20.8984C136.481 20.2161 136.173 19.6849 135.632 19.3047C135.095 18.9245 134.397 18.7344 133.538 18.7344C132.934 18.7344 132.415 18.8255 131.983 19.0078C131.551 19.1901 131.22 19.4375 130.991 19.75C130.762 20.0625 130.645 20.4193 130.639 20.8203C130.639 21.1536 130.715 21.4427 130.866 21.6875C131.022 21.9323 131.233 22.1406 131.499 22.3125C131.764 22.4792 132.059 22.6198 132.382 22.7344C132.705 22.849 133.03 22.9453 133.358 23.0234L134.858 23.3984C135.462 23.5391 136.043 23.7292 136.6 23.9687C137.163 24.2083 137.665 24.5104 138.108 24.875C138.556 25.2396 138.91 25.6797 139.171 26.1953C139.431 26.7109 139.561 27.3151 139.561 28.0078C139.561 28.9453 139.322 29.7708 138.843 30.4844C138.363 31.1927 137.671 31.7474 136.764 32.1484C135.863 32.5443 134.772 32.7422 133.491 32.7422C132.246 32.7422 131.165 32.5495 130.249 32.1641C129.337 31.7786 128.624 31.2161 128.108 30.4766C127.598 29.737 127.322 28.8359 127.28 27.7734H130.132C130.173 28.3307 130.345 28.7943 130.647 29.1641C130.949 29.5339 131.343 29.8099 131.827 29.9922C132.317 30.1745 132.863 30.2656 133.468 30.2656C134.098 30.2656 134.65 30.1719 135.124 29.9844C135.603 29.7917 135.978 29.526 136.249 29.1875C136.52 28.8437 136.658 28.4427 136.663 27.9844C136.658 27.5677 136.535 27.224 136.296 26.9531C136.056 26.6771 135.72 26.4479 135.288 26.2656C134.861 26.0781 134.361 25.9115 133.788 25.7656L131.968 25.2969C130.65 24.9583 129.608 24.4453 128.843 23.7578C128.082 23.0651 127.702 22.1458 127.702 21C127.702 20.0573 127.957 19.2318 128.468 18.5234C128.983 17.8151 129.684 17.2656 130.569 16.875C131.455 16.4792 132.457 16.2812 133.577 16.2812C134.712 16.2812 135.707 16.4792 136.561 16.875C137.421 17.2656 138.095 17.8099 138.585 18.5078C139.074 19.2005 139.327 19.9974 139.343 20.8984H136.554ZM143.768 37C143.383 37 143.026 36.9688 142.698 36.9063C142.375 36.849 142.117 36.7813 141.924 36.7031L142.581 34.5C142.992 34.6198 143.359 34.6771 143.682 34.6719C144.005 34.6667 144.289 34.5651 144.534 34.3672C144.784 34.1745 144.995 33.8516 145.167 33.3984L145.409 32.75L141.057 20.5H144.057L146.823 29.5625H146.948L149.721 20.5H152.729L147.924 33.9531C147.7 34.5885 147.404 35.1328 147.034 35.5859C146.664 36.0443 146.211 36.3932 145.674 36.6328C145.143 36.8776 144.508 37 143.768 37ZM154.676 32.5V20.5H157.379V22.5391H157.52C157.77 21.8516 158.184 21.3151 158.762 20.9297C159.34 20.5391 160.03 20.3438 160.832 20.3438C161.645 20.3438 162.33 20.5417 162.887 20.9375C163.45 21.3281 163.845 21.862 164.075 22.5391H164.2C164.465 21.8724 164.913 21.3411 165.543 20.9453C166.179 20.5443 166.931 20.3438 167.801 20.3438C168.905 20.3438 169.806 20.6927 170.504 21.3906C171.202 22.0885 171.551 23.1068 171.551 24.4453V32.5H168.715V24.8828C168.715 24.138 168.517 23.5937 168.121 23.25C167.726 22.901 167.241 22.7266 166.668 22.7266C165.986 22.7266 165.452 22.9401 165.067 23.3672C164.687 23.7891 164.496 24.3385 164.496 25.0156V32.5H161.723V24.7656C161.723 24.1458 161.535 23.651 161.16 23.2812C160.791 22.9115 160.306 22.7266 159.707 22.7266C159.301 22.7266 158.931 22.8307 158.598 23.0391C158.265 23.2422 157.999 23.5312 157.801 23.9062C157.603 24.276 157.504 24.7083 157.504 25.2031V32.5H154.676ZM174.535 32.5V16.5H177.363V22.4844H177.481C177.626 22.1927 177.832 21.8828 178.098 21.5547C178.363 21.2214 178.723 20.9375 179.176 20.7031C179.629 20.4635 180.207 20.3438 180.91 20.3438C181.837 20.3438 182.673 20.5807 183.418 21.0547C184.168 21.5234 184.762 22.2187 185.199 23.1406C185.642 24.0573 185.863 25.1823 185.863 26.5156C185.863 27.8333 185.647 28.9531 185.215 29.875C184.783 30.7969 184.194 31.5 183.449 31.9844C182.705 32.4688 181.861 32.7109 180.918 32.7109C180.231 32.7109 179.66 32.5964 179.207 32.3672C178.754 32.138 178.389 31.862 178.113 31.5391C177.843 31.2109 177.632 30.901 177.481 30.6094H177.316V32.5H174.535ZM177.309 26.5C177.309 27.276 177.418 27.9557 177.637 28.5391C177.861 29.1224 178.181 29.5781 178.598 29.9062C179.02 30.2292 179.53 30.3906 180.129 30.3906C180.754 30.3906 181.277 30.224 181.699 29.8906C182.121 29.5521 182.439 29.0911 182.652 28.5078C182.871 27.9193 182.981 27.25 182.981 26.5C182.981 25.7552 182.874 25.0937 182.66 24.5156C182.447 23.9375 182.129 23.4844 181.707 23.1562C181.285 22.8281 180.759 22.6641 180.129 22.6641C179.525 22.6641 179.012 22.8229 178.59 23.1406C178.168 23.4583 177.848 23.9036 177.629 24.4766C177.415 25.0495 177.309 25.724 177.309 26.5ZM193.492 32.7344C192.32 32.7344 191.305 32.4766 190.445 31.9609C189.586 31.4453 188.919 30.724 188.445 29.7969C187.976 28.8698 187.742 27.7865 187.742 26.5469C187.742 25.3073 187.976 24.2214 188.445 23.2891C188.919 22.3568 189.586 21.6328 190.445 21.1172C191.305 20.6016 192.32 20.3438 193.492 20.3438C194.664 20.3438 195.68 20.6016 196.539 21.1172C197.398 21.6328 198.062 22.3568 198.531 23.2891C199.005 24.2214 199.242 25.3073 199.242 26.5469C199.242 27.7865 199.005 28.8698 198.531 29.7969C198.062 30.724 197.398 31.4453 196.539 31.9609C195.68 32.4766 194.664 32.7344 193.492 32.7344ZM193.508 30.4687C194.143 30.4687 194.674 30.2943 195.101 29.9453C195.528 29.5911 195.846 29.1172 196.055 28.5234C196.268 27.9297 196.375 27.2682 196.375 26.5391C196.375 25.8047 196.268 25.1406 196.055 24.5469C195.846 23.9479 195.528 23.4714 195.101 23.1172C194.674 22.763 194.143 22.5859 193.508 22.5859C192.857 22.5859 192.315 22.763 191.883 23.1172C191.456 23.4714 191.135 23.9479 190.922 24.5469C190.713 25.1406 190.609 25.8047 190.609 26.5391C190.609 27.2682 190.713 27.9297 190.922 28.5234C191.135 29.1172 191.456 29.5911 191.883 29.9453C192.315 30.2943 192.857 30.4687 193.508 30.4687ZM204.461 16.5V32.5H201.632V16.5H204.461ZM216.843 23.6719L214.265 23.9531C214.192 23.6927 214.064 23.4479 213.882 23.2188C213.705 22.9896 213.466 22.8047 213.163 22.6641C212.861 22.5234 212.492 22.4531 212.054 22.4531C211.466 22.4531 210.971 22.5807 210.57 22.8359C210.174 23.0911 209.979 23.4219 209.984 23.8281C209.979 24.1771 210.106 24.4609 210.367 24.6797C210.632 24.8984 211.07 25.0781 211.679 25.2188L213.726 25.6562C214.861 25.901 215.705 26.2891 216.257 26.8203C216.814 27.3516 217.096 28.0469 217.101 28.9062C217.096 29.6615 216.874 30.3281 216.437 30.9062C216.005 31.4792 215.403 31.9271 214.632 32.25C213.861 32.5729 212.976 32.7344 211.976 32.7344C210.507 32.7344 209.325 32.4271 208.429 31.8125C207.533 31.1927 206.999 30.3307 206.827 29.2266L209.585 28.9609C209.71 29.5026 209.976 29.9115 210.382 30.1875C210.788 30.4635 211.317 30.6016 211.968 30.6016C212.64 30.6016 213.179 30.4635 213.585 30.1875C213.997 29.9115 214.202 29.5703 214.202 29.1641C214.202 28.8203 214.07 28.5365 213.804 28.3125C213.544 28.0885 213.137 27.9167 212.585 27.7969L210.538 27.3672C209.387 27.1276 208.536 26.724 207.984 26.1562C207.432 25.5833 207.158 24.8594 207.163 23.9844C207.158 23.2448 207.359 22.6042 207.765 22.0625C208.176 21.5156 208.747 21.0937 209.476 20.7969C210.21 20.4948 211.057 20.3438 212.015 20.3438C213.421 20.3438 214.528 20.6432 215.335 21.2422C216.148 21.8411 216.65 22.651 216.843 23.6719Z" fill="#8445BC"/>
<defs>
<radialGradient id="paint0_radial_524_185" cx="0" cy="0" r="1" gradientUnits="userSpaceOnUse" gradientTransform="translate(4 4) rotate(90) scale(32)">
<stop stop-color="white"/>
<stop offset="1" stop-color="white" stop-opacity="0"/>
</radialGradient>
<clipPath id="clip0_524_185">
<rect width="48" height="48" rx="10" fill="white"/>
</clipPath>
</defs>
</svg>
