<svg width="156" height="48" viewBox="0 0 156 48" fill="none" xmlns="http://www.w3.org/2000/svg">
<g clip-path="url(#clip0_37_191)">
<rect width="48" height="48" rx="10" fill="#CA3214"/>
<g opacity="0.4">
<rect x="-28" y="-28" width="64" height="64" rx="10" fill="url(#paint0_radial_37_191)"/>
</g>
<path opacity="0.4" d="M24 32.4722C25.0615 33.4223 26.4633 34 28 34C31.3137 34 34 31.3138 34 28C34 25.2331 32.1271 22.9036 29.5798 22.2102" stroke="white" stroke-width="2" stroke-linecap="round" stroke-linejoin="round"/>
<path d="M18.4202 22.2102C15.8729 22.9036 14 25.2331 14 28C14 31.3137 16.6863 34 20 34C23.3137 34 26 31.3137 26 28C26 27.2195 25.851 26.4738 25.5798 25.7898M30 20C30 23.3137 27.3137 26 24 26C20.6863 26 18 23.3137 18 20C18 16.6863 20.6863 14 24 14C27.3137 14 30 16.6863 30 20Z" stroke="white" stroke-width="2" stroke-linecap="round" stroke-linejoin="round"/>
</g>
<path d="M69.5781 32.5V16.5H79.9844V18.9297H72.4766V23.2734H79.4453V25.7031H72.4766V30.0703H80.0469V32.5H69.5781ZM85.1189 20.5L87.5408 24.9297L90.0017 20.5H92.9939L89.3767 26.5L93.0564 32.5H90.0798L87.5408 28.1797L85.0252 32.5H82.0252L85.6814 26.5L82.1189 20.5H85.1189ZM95.1714 37V20.5H97.9527V22.4844H98.1167C98.2626 22.1927 98.4683 21.8828 98.7339 21.5547C98.9995 21.2214 99.3589 20.9375 99.812 20.7031C100.265 20.4635 100.843 20.3438 101.546 20.3438C102.473 20.3438 103.309 20.5807 104.054 21.0547C104.804 21.5234 105.398 22.2187 105.835 23.1406C106.278 24.0573 106.5 25.1823 106.5 26.5156C106.5 27.8333 106.283 28.9531 105.851 29.875C105.419 30.7969 104.83 31.5 104.085 31.9844C103.341 32.4688 102.497 32.7109 101.554 32.7109C100.867 32.7109 100.296 32.5964 99.8433 32.3672C99.3902 32.138 99.0256 31.862 98.7495 31.5391C98.4787 31.2109 98.2678 30.901 98.1167 30.6094H97.9995V37H95.1714ZM97.9448 26.5C97.9448 27.276 98.0542 27.9557 98.273 28.5391C98.4969 29.1224 98.8172 29.5781 99.2339 29.9062C99.6558 30.2292 100.166 30.3906 100.765 30.3906C101.39 30.3906 101.914 30.224 102.335 29.8906C102.757 29.5521 103.075 29.0911 103.289 28.5078C103.507 27.9193 103.617 27.25 103.617 26.5C103.617 25.7552 103.51 25.0937 103.296 24.5156C103.083 23.9375 102.765 23.4844 102.343 23.1562C101.921 22.8281 101.395 22.6641 100.765 22.6641C100.161 22.6641 99.648 22.8229 99.2261 23.1406C98.8042 23.4583 98.4839 23.9036 98.2652 24.4766C98.0516 25.0495 97.9448 25.724 97.9448 26.5ZM114.146 32.7344C112.974 32.7344 111.958 32.4766 111.099 31.9609C110.24 31.4453 109.573 30.724 109.099 29.7969C108.63 28.8698 108.396 27.7865 108.396 26.5469C108.396 25.3073 108.63 24.2214 109.099 23.2891C109.573 22.3568 110.24 21.6328 111.099 21.1172C111.958 20.6016 112.974 20.3438 114.146 20.3438C115.318 20.3438 116.333 20.6016 117.193 21.1172C118.052 21.6328 118.716 22.3568 119.185 23.2891C119.659 24.2214 119.896 25.3073 119.896 26.5469C119.896 27.7865 119.659 28.8698 119.185 29.7969C118.716 30.724 118.052 31.4453 117.193 31.9609C116.333 32.4766 115.318 32.7344 114.146 32.7344ZM114.161 30.4687C114.797 30.4687 115.328 30.2943 115.755 29.9453C116.182 29.5911 116.5 29.1172 116.708 28.5234C116.922 27.9297 117.029 27.2682 117.029 26.5391C117.029 25.8047 116.922 25.1406 116.708 24.5469C116.5 23.9479 116.182 23.4714 115.755 23.1172C115.328 22.763 114.797 22.5859 114.161 22.5859C113.51 22.5859 112.969 22.763 112.536 23.1172C112.109 23.4714 111.789 23.9479 111.575 24.5469C111.367 25.1406 111.263 25.8047 111.263 26.5391C111.263 27.2682 111.367 27.9297 111.575 28.5234C111.789 29.1172 112.109 29.5911 112.536 29.9453C112.969 30.2943 113.51 30.4687 114.161 30.4687ZM138.577 21.6094C138.447 21.1875 138.267 20.8099 138.038 20.4766C137.814 20.138 137.543 19.849 137.225 19.6094C136.913 19.3698 136.554 19.1901 136.147 19.0703C135.741 18.9453 135.298 18.8828 134.819 18.8828C133.96 18.8828 133.194 19.099 132.522 19.5313C131.85 19.9635 131.322 20.599 130.936 21.4375C130.556 22.2708 130.366 23.2865 130.366 24.4844C130.366 25.6927 130.556 26.7161 130.936 27.5547C131.317 28.3932 131.845 29.0312 132.522 29.4687C133.199 29.901 133.986 30.1172 134.882 30.1172C135.694 30.1172 136.397 29.9609 136.991 29.6484C137.59 29.3359 138.051 28.8932 138.374 28.3203C138.697 27.7422 138.858 27.0651 138.858 26.2891L139.514 26.3906H135.171V24.125H141.663V26.0469C141.663 27.4167 141.371 28.6016 140.788 29.6016C140.205 30.6016 139.402 31.3724 138.382 31.9141C137.361 32.4505 136.189 32.7187 134.866 32.7187C133.392 32.7187 132.098 32.388 130.983 31.7266C129.874 31.0599 129.007 30.1146 128.382 28.8906C127.762 27.6615 127.452 26.2031 127.452 24.5156C127.452 23.224 127.634 22.0703 127.999 21.0547C128.369 20.0391 128.884 19.1771 129.546 18.4687C130.207 17.7552 130.983 17.2135 131.874 16.8437C132.764 16.4687 133.733 16.2812 134.78 16.2812C135.665 16.2812 136.491 16.4115 137.257 16.6719C138.022 16.9271 138.702 17.2917 139.296 17.7656C139.895 18.2396 140.387 18.8021 140.772 19.4531C141.158 20.1042 141.41 20.8229 141.53 21.6094H138.577ZM144.456 32.5V16.5H147.354V30.0703H154.401V32.5H144.456Z" fill="#CA3214"/>
<defs>
<radialGradient id="paint0_radial_37_191" cx="0" cy="0" r="1" gradientUnits="userSpaceOnUse" gradientTransform="translate(4 4) rotate(90) scale(32)">
<stop stop-color="white"/>
<stop offset="1" stop-color="white" stop-opacity="0"/>
</radialGradient>
<clipPath id="clip0_37_191">
<rect width="48" height="48" rx="10" fill="white"/>
</clipPath>
</defs>
</svg>
