<svg width="345" height="48" viewBox="0 0 345 48" fill="none" xmlns="http://www.w3.org/2000/svg">
<g clip-path="url(#clip0_45_131)">
<rect width="48" height="48" rx="10" fill="#697177"/>
<g opacity="0.4">
<rect x="-28" y="-28" width="64" height="64" rx="10" fill="url(#paint0_radial_45_131)"/>
</g>
<path opacity="0.4" d="M20.5 27.5L27.5 20.5M21 16V14M27 32V34M16 21H14M32 27H34M16.9142 16.9142L15.5 15.5M31.0858 31.0857L32.5 32.4999" stroke="white" stroke-width="2" stroke-linecap="round" stroke-linejoin="round"/>
<path d="M24 29.6568L21.8787 31.7781C20.3166 33.3402 17.784 33.3402 16.2219 31.7781C14.6598 30.216 14.6598 27.6833 16.2219 26.1212L18.3432 23.9999M29.6569 23.9999L31.7782 21.8786C33.3403 20.3165 33.3403 17.7838 31.7782 16.2217C30.2161 14.6596 27.6835 14.6596 26.1214 16.2217L24 18.3431" stroke="white" stroke-width="2" stroke-linecap="round" stroke-linejoin="round"/>
</g>
<path d="M69.5781 32.5V16.5H79.9844V18.9297H72.4766V23.2734H79.4453V25.7031H72.4766V30.0703H80.0469V32.5H69.5781ZM85.1189 20.5L87.5408 24.9297L90.0017 20.5H92.9939L89.3767 26.5L93.0564 32.5H90.0798L87.5408 28.1797L85.0252 32.5H82.0252L85.6814 26.5L82.1189 20.5H85.1189ZM95.1714 37V20.5H97.9527V22.4844H98.1167C98.2626 22.1927 98.4683 21.8828 98.7339 21.5547C98.9995 21.2214 99.3589 20.9375 99.812 20.7031C100.265 20.4635 100.843 20.3438 101.546 20.3438C102.473 20.3438 103.309 20.5807 104.054 21.0547C104.804 21.5234 105.398 22.2187 105.835 23.1406C106.278 24.0573 106.5 25.1823 106.5 26.5156C106.5 27.8333 106.283 28.9531 105.851 29.875C105.419 30.7969 104.83 31.5 104.085 31.9844C103.341 32.4688 102.497 32.7109 101.554 32.7109C100.867 32.7109 100.296 32.5964 99.8433 32.3672C99.3902 32.138 99.0256 31.862 98.7495 31.5391C98.4787 31.2109 98.2678 30.901 98.1167 30.6094H97.9995V37H95.1714ZM97.9448 26.5C97.9448 27.276 98.0542 27.9557 98.273 28.5391C98.4969 29.1224 98.8172 29.5781 99.2339 29.9062C99.6558 30.2292 100.166 30.3906 100.765 30.3906C101.39 30.3906 101.914 30.224 102.335 29.8906C102.757 29.5521 103.075 29.0911 103.289 28.5078C103.507 27.9193 103.617 27.25 103.617 26.5C103.617 25.7552 103.51 25.0937 103.296 24.5156C103.083 23.9375 102.765 23.4844 102.343 23.1562C101.921 22.8281 101.395 22.6641 100.765 22.6641C100.161 22.6641 99.648 22.8229 99.2261 23.1406C98.8042 23.4583 98.4839 23.9036 98.2652 24.4766C98.0516 25.0495 97.9448 25.724 97.9448 26.5ZM114.146 32.7344C112.974 32.7344 111.958 32.4766 111.099 31.9609C110.24 31.4453 109.573 30.724 109.099 29.7969C108.63 28.8698 108.396 27.7865 108.396 26.5469C108.396 25.3073 108.63 24.2214 109.099 23.2891C109.573 22.3568 110.24 21.6328 111.099 21.1172C111.958 20.6016 112.974 20.3438 114.146 20.3438C115.318 20.3438 116.333 20.6016 117.193 21.1172C118.052 21.6328 118.716 22.3568 119.185 23.2891C119.659 24.2214 119.896 25.3073 119.896 26.5469C119.896 27.7865 119.659 28.8698 119.185 29.7969C118.716 30.724 118.052 31.4453 117.193 31.9609C116.333 32.4766 115.318 32.7344 114.146 32.7344ZM114.161 30.4687C114.797 30.4687 115.328 30.2943 115.755 29.9453C116.182 29.5911 116.5 29.1172 116.708 28.5234C116.922 27.9297 117.029 27.2682 117.029 26.5391C117.029 25.8047 116.922 25.1406 116.708 24.5469C116.5 23.9479 116.182 23.4714 115.755 23.1172C115.328 22.763 114.797 22.5859 114.161 22.5859C113.51 22.5859 112.969 22.763 112.536 23.1172C112.109 23.4714 111.789 23.9479 111.575 24.5469C111.367 25.1406 111.263 25.8047 111.263 26.5391C111.263 27.2682 111.367 27.9297 111.575 28.5234C111.789 29.1172 112.109 29.5911 112.536 29.9453C112.969 30.2943 113.51 30.4687 114.161 30.4687ZM127.858 16.5H131.405L136.155 28.0937H136.343L141.093 16.5H144.639V32.5H141.858V21.5078H141.71L137.288 32.4531H135.21L130.788 21.4844H130.639V32.5H127.858V16.5ZM152.895 32.7344C151.723 32.7344 150.708 32.4766 149.848 31.9609C148.989 31.4453 148.322 30.724 147.848 29.7969C147.379 28.8698 147.145 27.7865 147.145 26.5469C147.145 25.3073 147.379 24.2214 147.848 23.2891C148.322 22.3568 148.989 21.6328 149.848 21.1172C150.708 20.6016 151.723 20.3438 152.895 20.3438C154.067 20.3438 155.083 20.6016 155.942 21.1172C156.801 21.6328 157.465 22.3568 157.934 23.2891C158.408 24.2214 158.645 25.3073 158.645 26.5469C158.645 27.7865 158.408 28.8698 157.934 29.7969C157.465 30.724 156.801 31.4453 155.942 31.9609C155.083 32.4766 154.067 32.7344 152.895 32.7344ZM152.911 30.4687C153.546 30.4687 154.077 30.2943 154.504 29.9453C154.932 29.5911 155.249 29.1172 155.458 28.5234C155.671 27.9297 155.778 27.2682 155.778 26.5391C155.778 25.8047 155.671 25.1406 155.458 24.5469C155.249 23.9479 154.932 23.4714 154.504 23.1172C154.077 22.763 153.546 22.5859 152.911 22.5859C152.26 22.5859 151.718 22.763 151.286 23.1172C150.859 23.4714 150.538 23.9479 150.325 24.5469C150.116 25.1406 150.012 25.8047 150.012 26.5391C150.012 27.2682 150.116 27.9297 150.325 28.5234C150.538 29.1172 150.859 29.5911 151.286 29.9453C151.718 30.2943 152.26 30.4687 152.911 30.4687ZM165.489 32.7109C164.546 32.7109 163.702 32.4688 162.957 31.9844C162.213 31.5 161.624 30.7969 161.192 29.875C160.759 28.9531 160.543 27.8333 160.543 26.5156C160.543 25.1823 160.762 24.0573 161.2 23.1406C161.642 22.2187 162.239 21.5234 162.989 21.0547C163.739 20.5807 164.575 20.3438 165.496 20.3438C166.2 20.3438 166.778 20.4635 167.231 20.7031C167.684 20.9375 168.043 21.2214 168.309 21.5547C168.575 21.8828 168.78 22.1927 168.926 22.4844H169.043V16.5H171.879V32.5H169.098V30.6094H168.926C168.78 30.901 168.569 31.2109 168.293 31.5391C168.017 31.862 167.653 32.138 167.2 32.3672C166.746 32.5964 166.176 32.7109 165.489 32.7109ZM166.278 30.3906C166.877 30.3906 167.387 30.2292 167.809 29.9062C168.231 29.5781 168.551 29.1224 168.77 28.5391C168.989 27.9557 169.098 27.276 169.098 26.5C169.098 25.724 168.989 25.0495 168.77 24.4766C168.556 23.9036 168.239 23.4583 167.817 23.1406C167.4 22.8229 166.887 22.6641 166.278 22.6641C165.647 22.6641 165.121 22.8281 164.7 23.1562C164.278 23.4844 163.96 23.9375 163.746 24.5156C163.533 25.0937 163.426 25.7552 163.426 26.5C163.426 27.25 163.533 27.9193 163.746 28.5078C163.965 29.0911 164.285 29.5521 164.707 29.8906C165.134 30.224 165.658 30.3906 166.278 30.3906ZM182.531 27.4531V20.5H185.359V32.5H182.617V30.3672H182.492C182.221 31.0391 181.776 31.5885 181.156 32.0156C180.542 32.4427 179.784 32.6563 178.883 32.6563C178.096 32.6563 177.401 32.4818 176.797 32.1328C176.198 31.7786 175.729 31.2656 175.391 30.5938C175.052 29.9167 174.883 29.099 174.883 28.1406V20.5H177.711V27.7031C177.711 28.4635 177.919 29.0677 178.336 29.5156C178.753 29.9635 179.3 30.1875 179.977 30.1875C180.393 30.1875 180.797 30.0859 181.188 29.8828C181.578 29.6797 181.899 29.3776 182.149 28.9766C182.404 28.5703 182.531 28.0625 182.531 27.4531ZM191.086 16.5V32.5H188.258V16.5H191.086ZM199.296 32.7344C198.093 32.7344 197.054 32.4844 196.179 31.9844C195.31 31.4792 194.64 30.7656 194.171 29.8437C193.703 28.9167 193.468 27.8255 193.468 26.5703C193.468 25.3359 193.703 24.2526 194.171 23.3203C194.645 22.3828 195.307 21.6536 196.156 21.1328C197.005 20.6068 198.002 20.3438 199.148 20.3438C199.888 20.3438 200.586 20.4635 201.242 20.7031C201.903 20.9375 202.487 21.3021 202.992 21.7969C203.502 22.2917 203.903 22.9219 204.195 23.6875C204.487 24.4479 204.632 25.3542 204.632 26.4062V27.2734H194.796V25.3672H201.921C201.916 24.8255 201.799 24.3437 201.57 23.9219C201.341 23.4948 201.02 23.1589 200.609 22.9141C200.203 22.6693 199.729 22.5469 199.187 22.5469C198.609 22.5469 198.101 22.6875 197.664 22.9687C197.226 23.2448 196.885 23.6094 196.64 24.0625C196.401 24.5104 196.278 25.0026 196.273 25.5391V27.2031C196.273 27.901 196.401 28.5 196.656 29C196.911 29.4948 197.268 29.875 197.726 30.1406C198.185 30.401 198.721 30.5312 199.336 30.5312C199.747 30.5312 200.119 30.474 200.453 30.3594C200.786 30.2396 201.075 30.0651 201.32 29.8359C201.565 29.6068 201.75 29.3229 201.875 28.9844L204.515 29.2812C204.349 29.9792 204.031 30.5885 203.562 31.1094C203.099 31.625 202.505 32.026 201.781 32.3125C201.057 32.5937 200.229 32.7344 199.296 32.7344ZM216.499 23.6719L213.921 23.9531C213.848 23.6927 213.721 23.4479 213.538 23.2188C213.361 22.9896 213.122 22.8047 212.82 22.6641C212.518 22.5234 212.148 22.4531 211.71 22.4531C211.122 22.4531 210.627 22.5807 210.226 22.8359C209.83 23.0911 209.635 23.4219 209.64 23.8281C209.635 24.1771 209.762 24.4609 210.023 24.6797C210.288 24.8984 210.726 25.0781 211.335 25.2188L213.382 25.6562C214.518 25.901 215.361 26.2891 215.913 26.8203C216.471 27.3516 216.752 28.0469 216.757 28.9062C216.752 29.6615 216.531 30.3281 216.093 30.9062C215.661 31.4792 215.059 31.9271 214.288 32.25C213.518 32.5729 212.632 32.7344 211.632 32.7344C210.163 32.7344 208.981 32.4271 208.085 31.8125C207.189 31.1927 206.656 30.3307 206.484 29.2266L209.242 28.9609C209.367 29.5026 209.632 29.9115 210.038 30.1875C210.445 30.4635 210.973 30.6016 211.624 30.6016C212.296 30.6016 212.835 30.4635 213.242 30.1875C213.653 29.9115 213.859 29.5703 213.859 29.1641C213.859 28.8203 213.726 28.5365 213.46 28.3125C213.2 28.0885 212.794 27.9167 212.242 27.7969L210.195 27.3672C209.044 27.1276 208.192 26.724 207.64 26.1562C207.088 25.5833 206.814 24.8594 206.82 23.9844C206.814 23.2448 207.015 22.6042 207.421 22.0625C207.833 21.5156 208.403 21.0937 209.132 20.7969C209.867 20.4948 210.713 20.3438 211.671 20.3438C213.077 20.3438 214.184 20.6432 214.992 21.2422C215.804 21.8411 216.307 22.651 216.499 23.6719ZM226.706 32.5H223.612L229.245 16.5H232.823L238.464 32.5H235.37L231.097 19.7812H230.972L226.706 32.5ZM226.807 26.2266H235.245V28.5547H226.807V26.2266ZM248.085 27.4531V20.5H250.913V32.5H248.171V30.3672H248.046C247.775 31.0391 247.329 31.5885 246.71 32.0156C246.095 32.4427 245.337 32.6563 244.436 32.6563C243.65 32.6563 242.954 32.4818 242.35 32.1328C241.751 31.7786 241.283 31.2656 240.944 30.5938C240.605 29.9167 240.436 29.099 240.436 28.1406V20.5H243.264V27.7031C243.264 28.4635 243.473 29.0677 243.889 29.5156C244.306 29.9635 244.853 30.1875 245.53 30.1875C245.947 30.1875 246.35 30.0859 246.741 29.8828C247.131 29.6797 247.452 29.3776 247.702 28.9766C247.957 28.5703 248.085 28.0625 248.085 27.4531ZM259.803 20.5V22.6875H252.905V20.5H259.803ZM254.608 17.625H257.436V28.8906C257.436 29.2708 257.493 29.5625 257.608 29.7656C257.728 29.9635 257.884 30.099 258.077 30.1719C258.269 30.2448 258.483 30.2812 258.717 30.2812C258.894 30.2812 259.056 30.2682 259.202 30.2422C259.353 30.2161 259.467 30.1927 259.545 30.1719L260.022 32.3828C259.871 32.4349 259.655 32.4922 259.373 32.5547C259.097 32.6172 258.759 32.6536 258.358 32.6641C257.649 32.6849 257.011 32.5781 256.444 32.3437C255.876 32.1042 255.426 31.7344 255.092 31.2344C254.764 30.7344 254.603 30.1094 254.608 29.3594V17.625ZM267.264 32.7344C266.092 32.7344 265.076 32.4766 264.217 31.9609C263.358 31.4453 262.691 30.724 262.217 29.7969C261.748 28.8698 261.514 27.7865 261.514 26.5469C261.514 25.3073 261.748 24.2214 262.217 23.2891C262.691 22.3568 263.358 21.6328 264.217 21.1172C265.076 20.6016 266.092 20.3438 267.264 20.3438C268.436 20.3438 269.451 20.6016 270.311 21.1172C271.17 21.6328 271.834 22.3568 272.303 23.2891C272.777 24.2214 273.014 25.3073 273.014 26.5469C273.014 27.7865 272.777 28.8698 272.303 29.7969C271.834 30.724 271.17 31.4453 270.311 31.9609C269.451 32.4766 268.436 32.7344 267.264 32.7344ZM267.279 30.4687C267.915 30.4687 268.446 30.2943 268.873 29.9453C269.3 29.5911 269.618 29.1172 269.826 28.5234C270.04 27.9297 270.147 27.2682 270.147 26.5391C270.147 25.8047 270.04 25.1406 269.826 24.5469C269.618 23.9479 269.3 23.4714 268.873 23.1172C268.446 22.763 267.915 22.5859 267.279 22.5859C266.628 22.5859 266.087 22.763 265.654 23.1172C265.227 23.4714 264.907 23.9479 264.694 24.5469C264.485 25.1406 264.381 25.8047 264.381 26.5391C264.381 27.2682 264.485 27.9297 264.694 28.5234C264.907 29.1172 265.227 29.5911 265.654 29.9453C266.087 30.2943 266.628 30.4687 267.279 30.4687ZM278.232 16.5V32.5H275.404V16.5H278.232ZM281.131 32.5V20.5H283.959V32.5H281.131ZM282.552 18.7969C282.105 18.7969 281.719 18.6484 281.396 18.3516C281.073 18.0495 280.912 17.6875 280.912 17.2656C280.912 16.8385 281.073 16.4766 281.396 16.1797C281.719 15.8776 282.105 15.7266 282.552 15.7266C283.006 15.7266 283.391 15.8776 283.709 16.1797C284.032 16.4766 284.193 16.8385 284.193 17.2656C284.193 17.6875 284.032 18.0495 283.709 18.3516C283.391 18.6484 283.006 18.7969 282.552 18.7969ZM289.685 25.4687V32.5H286.857V20.5H289.56V22.5391H289.701C289.977 21.8672 290.417 21.3333 291.021 20.9375C291.63 20.5417 292.383 20.3438 293.279 20.3438C294.107 20.3438 294.828 20.5208 295.443 20.875C296.063 21.2292 296.542 21.7422 296.88 22.4141C297.224 23.0859 297.393 23.901 297.388 24.8594V32.5H294.56V25.2969C294.56 24.4948 294.352 23.8672 293.935 23.4141C293.524 22.9609 292.953 22.7344 292.224 22.7344C291.729 22.7344 291.289 22.8437 290.904 23.0625C290.524 23.276 290.224 23.5859 290.005 23.9922C289.792 24.3984 289.685 24.8906 289.685 25.4687ZM302.831 28.7344L302.823 25.3203H303.277L307.589 20.5H310.894L305.589 26.4062H305.003L302.831 28.7344ZM300.253 32.5V16.5H303.081V32.5H300.253ZM307.784 32.5L303.878 27.0391L305.784 25.0469L311.167 32.5H307.784ZM312.769 32.5V20.5H315.597V32.5H312.769ZM314.19 18.7969C313.742 18.7969 313.357 18.6484 313.034 18.3516C312.711 18.0495 312.55 17.6875 312.55 17.2656C312.55 16.8385 312.711 16.4766 313.034 16.1797C313.357 15.8776 313.742 15.7266 314.19 15.7266C314.644 15.7266 315.029 15.8776 315.347 16.1797C315.67 16.4766 315.831 16.8385 315.831 17.2656C315.831 17.6875 315.67 18.0495 315.347 18.3516C315.029 18.6484 314.644 18.7969 314.19 18.7969ZM321.323 25.4687V32.5H318.495V20.5H321.198V22.5391H321.339C321.615 21.8672 322.055 21.3333 322.659 20.9375C323.268 20.5417 324.021 20.3438 324.917 20.3438C325.745 20.3438 326.466 20.5208 327.081 20.875C327.701 21.2292 328.18 21.7422 328.518 22.4141C328.862 23.0859 329.031 23.901 329.026 24.8594V32.5H326.198V25.2969C326.198 24.4948 325.99 23.8672 325.573 23.4141C325.162 22.9609 324.591 22.7344 323.862 22.7344C323.367 22.7344 322.927 22.8437 322.542 23.0625C322.162 23.276 321.862 23.5859 321.643 23.9922C321.43 24.3984 321.323 24.8906 321.323 25.4687ZM337.11 37.25C336.094 37.25 335.222 37.112 334.493 36.8359C333.763 36.5651 333.178 36.2005 332.735 35.7422C332.292 35.2839 331.985 34.776 331.813 34.2188L334.36 33.6016C334.474 33.8359 334.641 34.0677 334.86 34.2969C335.079 34.5313 335.373 34.724 335.743 34.875C336.118 35.0313 336.589 35.1094 337.157 35.1094C337.959 35.1094 338.623 34.9141 339.149 34.5234C339.675 34.138 339.938 33.5026 339.938 32.6172V30.3437H339.797C339.651 30.6354 339.438 30.9349 339.157 31.2422C338.881 31.5495 338.513 31.8073 338.055 32.0156C337.602 32.224 337.032 32.3281 336.344 32.3281C335.422 32.3281 334.586 32.112 333.836 31.6797C333.092 31.2422 332.498 30.5911 332.055 29.7266C331.618 28.8568 331.399 27.7682 331.399 26.4609C331.399 25.1432 331.618 24.0312 332.055 23.125C332.498 22.2135 333.094 21.5234 333.844 21.0547C334.594 20.5807 335.43 20.3438 336.352 20.3438C337.055 20.3438 337.633 20.4635 338.086 20.7031C338.545 20.9375 338.909 21.2214 339.18 21.5547C339.451 21.8828 339.657 22.1927 339.797 22.4844H339.954V20.5H342.743V32.6953C342.743 33.7214 342.498 34.5703 342.008 35.2422C341.519 35.9141 340.849 36.4167 340 36.75C339.151 37.0833 338.188 37.25 337.11 37.25ZM337.133 30.1094C337.732 30.1094 338.243 29.9635 338.665 29.6719C339.086 29.3802 339.407 28.9609 339.625 28.4141C339.844 27.8672 339.954 27.2109 339.954 26.4453C339.954 25.6901 339.844 25.0286 339.625 24.4609C339.412 23.8932 339.094 23.4531 338.672 23.1406C338.256 22.8229 337.743 22.6641 337.133 22.6641C336.503 22.6641 335.977 22.8281 335.555 23.1562C335.133 23.4844 334.816 23.9349 334.602 24.5078C334.388 25.0755 334.282 25.7214 334.282 26.4453C334.282 27.1797 334.388 27.8229 334.602 28.375C334.821 28.9219 335.141 29.349 335.563 29.6562C335.99 29.9583 336.513 30.1094 337.133 30.1094Z" fill="#697177"/>
<defs>
<radialGradient id="paint0_radial_45_131" cx="0" cy="0" r="1" gradientUnits="userSpaceOnUse" gradientTransform="translate(4 4) rotate(90) scale(32)">
<stop stop-color="white"/>
<stop offset="1" stop-color="white" stop-opacity="0"/>
</radialGradient>
<clipPath id="clip0_45_131">
<rect width="48" height="48" rx="10" fill="white"/>
</clipPath>
</defs>
</svg>
