<svg width="279" height="48" viewBox="0 0 279 48" fill="none" xmlns="http://www.w3.org/2000/svg">
<g clip-path="url(#clip0_301_194)">
<rect width="48" height="48" rx="10" fill="#10B3A3"/>
<g opacity="0.4">
<rect x="-28" y="-28" width="64" height="64" rx="10" fill="url(#paint0_radial_301_194)"/>
</g>
<path opacity="0.4" d="M23.2 28C22.0799 28 21.5198 28 21.092 27.782C20.7157 27.5903 20.4097 27.2843 20.218 26.908C20 26.4802 20 25.9201 20 24.8V17.2C20 16.0799 20 15.5198 20.218 15.092C20.4097 14.7157 20.7157 14.4097 21.092 14.218C21.5198 14 22.0799 14 23.2 14H30.8C31.9201 14 32.4802 14 32.908 14.218C33.2843 14.4097 33.5903 14.7157 33.782 15.092C34 15.5198 34 16.0799 34 17.2V24.8C34 25.9201 34 26.4802 33.782 26.908C33.5903 27.2843 33.2843 27.5903 32.908 27.782C32.4802 28 31.9201 28 30.8 28H23.2Z" stroke="white" stroke-width="2" stroke-linecap="round" stroke-linejoin="round"/>
<path d="M17.2 34C16.0799 34 15.5198 34 15.092 33.782C14.7157 33.5903 14.4097 33.2843 14.218 32.908C14 32.4802 14 31.9201 14 30.8V23.2C14 22.0799 14 21.5198 14.218 21.092C14.4097 20.7157 14.7157 20.4097 15.092 20.218C15.5198 20 16.0799 20 17.2 20H24.8C25.9201 20 26.4802 20 26.908 20.218C27.2843 20.4097 27.5903 20.7157 27.782 21.092C28 21.5198 28 22.0799 28 23.2V30.8C28 31.9201 28 32.4802 27.782 32.908C27.5903 33.2843 27.2843 33.5903 26.908 33.782C26.4802 34 25.9201 34 24.8 34H17.2Z" stroke="white" stroke-width="2" stroke-linecap="round" stroke-linejoin="round"/>
</g>
<path d="M69.5781 32.5V16.5H79.9844V18.9297H72.4766V23.2734H79.4453V25.7031H72.4766V30.0703H80.0469V32.5H69.5781ZM85.1189 20.5L87.5408 24.9297L90.0017 20.5H92.9939L89.3767 26.5L93.0564 32.5H90.0798L87.5408 28.1797L85.0252 32.5H82.0252L85.6814 26.5L82.1189 20.5H85.1189ZM95.1714 37V20.5H97.9527V22.4844H98.1167C98.2626 22.1927 98.4683 21.8828 98.7339 21.5547C98.9995 21.2214 99.3589 20.9375 99.812 20.7031C100.265 20.4635 100.843 20.3438 101.546 20.3438C102.473 20.3438 103.309 20.5807 104.054 21.0547C104.804 21.5234 105.398 22.2187 105.835 23.1406C106.278 24.0573 106.5 25.1823 106.5 26.5156C106.5 27.8333 106.283 28.9531 105.851 29.875C105.419 30.7969 104.83 31.5 104.085 31.9844C103.341 32.4688 102.497 32.7109 101.554 32.7109C100.867 32.7109 100.296 32.5964 99.8433 32.3672C99.3902 32.138 99.0256 31.862 98.7495 31.5391C98.4787 31.2109 98.2678 30.901 98.1167 30.6094H97.9995V37H95.1714ZM97.9448 26.5C97.9448 27.276 98.0542 27.9557 98.273 28.5391C98.4969 29.1224 98.8172 29.5781 99.2339 29.9062C99.6558 30.2292 100.166 30.3906 100.765 30.3906C101.39 30.3906 101.914 30.224 102.335 29.8906C102.757 29.5521 103.075 29.0911 103.289 28.5078C103.507 27.9193 103.617 27.25 103.617 26.5C103.617 25.7552 103.51 25.0937 103.296 24.5156C103.083 23.9375 102.765 23.4844 102.343 23.1562C101.921 22.8281 101.395 22.6641 100.765 22.6641C100.161 22.6641 99.648 22.8229 99.2261 23.1406C98.8042 23.4583 98.4839 23.9036 98.2652 24.4766C98.0516 25.0495 97.9448 25.724 97.9448 26.5ZM114.146 32.7344C112.974 32.7344 111.958 32.4766 111.099 31.9609C110.24 31.4453 109.573 30.724 109.099 29.7969C108.63 28.8698 108.396 27.7865 108.396 26.5469C108.396 25.3073 108.63 24.2214 109.099 23.2891C109.573 22.3568 110.24 21.6328 111.099 21.1172C111.958 20.6016 112.974 20.3438 114.146 20.3438C115.318 20.3438 116.333 20.6016 117.193 21.1172C118.052 21.6328 118.716 22.3568 119.185 23.2891C119.659 24.2214 119.896 25.3073 119.896 26.5469C119.896 27.7865 119.659 28.8698 119.185 29.7969C118.716 30.724 118.052 31.4453 117.193 31.9609C116.333 32.4766 115.318 32.7344 114.146 32.7344ZM114.161 30.4687C114.797 30.4687 115.328 30.2943 115.755 29.9453C116.182 29.5911 116.5 29.1172 116.708 28.5234C116.922 27.9297 117.029 27.2682 117.029 26.5391C117.029 25.8047 116.922 25.1406 116.708 24.5469C116.5 23.9479 116.182 23.4714 115.755 23.1172C115.328 22.763 114.797 22.5859 114.161 22.5859C113.51 22.5859 112.969 22.763 112.536 23.1172C112.109 23.4714 111.789 23.9479 111.575 24.5469C111.367 25.1406 111.263 25.8047 111.263 26.5391C111.263 27.2682 111.367 27.9297 111.575 28.5234C111.789 29.1172 112.109 29.5911 112.536 29.9453C112.969 30.2943 113.51 30.4687 114.161 30.4687ZM136.554 20.8984C136.481 20.2161 136.173 19.6849 135.632 19.3047C135.095 18.9245 134.397 18.7344 133.538 18.7344C132.934 18.7344 132.415 18.8255 131.983 19.0078C131.551 19.1901 131.22 19.4375 130.991 19.75C130.762 20.0625 130.645 20.4193 130.639 20.8203C130.639 21.1536 130.715 21.4427 130.866 21.6875C131.022 21.9323 131.233 22.1406 131.499 22.3125C131.764 22.4792 132.059 22.6198 132.382 22.7344C132.705 22.849 133.03 22.9453 133.358 23.0234L134.858 23.3984C135.462 23.5391 136.043 23.7292 136.6 23.9687C137.163 24.2083 137.665 24.5104 138.108 24.875C138.556 25.2396 138.91 25.6797 139.171 26.1953C139.431 26.7109 139.561 27.3151 139.561 28.0078C139.561 28.9453 139.322 29.7708 138.843 30.4844C138.363 31.1927 137.671 31.7474 136.764 32.1484C135.863 32.5443 134.772 32.7422 133.491 32.7422C132.246 32.7422 131.165 32.5495 130.249 32.1641C129.337 31.7786 128.624 31.2161 128.108 30.4766C127.598 29.737 127.322 28.8359 127.28 27.7734H130.132C130.173 28.3307 130.345 28.7943 130.647 29.1641C130.949 29.5339 131.343 29.8099 131.827 29.9922C132.317 30.1745 132.863 30.2656 133.468 30.2656C134.098 30.2656 134.65 30.1719 135.124 29.9844C135.603 29.7917 135.978 29.526 136.249 29.1875C136.52 28.8437 136.658 28.4427 136.663 27.9844C136.658 27.5677 136.535 27.224 136.296 26.9531C136.056 26.6771 135.72 26.4479 135.288 26.2656C134.861 26.0781 134.361 25.9115 133.788 25.7656L131.968 25.2969C130.65 24.9583 129.608 24.4453 128.843 23.7578C128.082 23.0651 127.702 22.1458 127.702 21C127.702 20.0573 127.957 19.2318 128.468 18.5234C128.983 17.8151 129.684 17.2656 130.569 16.875C131.455 16.4792 132.457 16.2812 133.577 16.2812C134.712 16.2812 135.707 16.4792 136.561 16.875C137.421 17.2656 138.095 17.8099 138.585 18.5078C139.074 19.2005 139.327 19.9974 139.343 20.8984H136.554ZM142.01 37V20.5H144.792V22.4844H144.956C145.101 22.1927 145.307 21.8828 145.573 21.5547C145.838 21.2214 146.198 20.9375 146.651 20.7031C147.104 20.4635 147.682 20.3438 148.385 20.3438C149.312 20.3438 150.148 20.5807 150.893 21.0547C151.643 21.5234 152.237 22.2187 152.674 23.1406C153.117 24.0573 153.338 25.1823 153.338 26.5156C153.338 27.8333 153.122 28.9531 152.69 29.875C152.258 30.7969 151.669 31.5 150.924 31.9844C150.18 32.4688 149.336 32.7109 148.393 32.7109C147.706 32.7109 147.135 32.5964 146.682 32.3672C146.229 32.138 145.864 31.862 145.588 31.5391C145.318 31.2109 145.107 30.901 144.956 30.6094H144.838V37H142.01ZM144.784 26.5C144.784 27.276 144.893 27.9557 145.112 28.5391C145.336 29.1224 145.656 29.5781 146.073 29.9062C146.495 30.2292 147.005 30.3906 147.604 30.3906C148.229 30.3906 148.753 30.224 149.174 29.8906C149.596 29.5521 149.914 29.0911 150.128 28.5078C150.346 27.9193 150.456 27.25 150.456 26.5C150.456 25.7552 150.349 25.0937 150.135 24.5156C149.922 23.9375 149.604 23.4844 149.182 23.1562C148.76 22.8281 148.234 22.6641 147.604 22.6641C147 22.6641 146.487 22.8229 146.065 23.1406C145.643 23.4583 145.323 23.9036 145.104 24.4766C144.891 25.0495 144.784 25.724 144.784 26.5ZM158.578 16.5V32.5H155.75V16.5H158.578ZM164.93 32.7422C164.169 32.7422 163.484 32.6068 162.875 32.3359C162.271 32.0599 161.792 31.6536 161.438 31.1172C161.089 30.5807 160.914 29.9193 160.914 29.1328C160.914 28.4557 161.039 27.8958 161.289 27.4531C161.539 27.0104 161.88 26.6562 162.313 26.3906C162.745 26.125 163.232 25.9245 163.774 25.7891C164.32 25.6484 164.885 25.5469 165.469 25.4844C166.172 25.4115 166.742 25.3464 167.18 25.2891C167.617 25.2266 167.935 25.1328 168.133 25.0078C168.336 24.8776 168.438 24.6771 168.438 24.4062V24.3594C168.438 23.7708 168.263 23.3151 167.914 22.9922C167.565 22.6693 167.063 22.5078 166.406 22.5078C165.714 22.5078 165.164 22.6589 164.758 22.9609C164.357 23.263 164.086 23.6198 163.945 24.0312L161.305 23.6562C161.513 22.9271 161.857 22.3177 162.336 21.8281C162.815 21.3333 163.401 20.9635 164.094 20.7187C164.787 20.4688 165.552 20.3438 166.391 20.3438C166.969 20.3438 167.544 20.4115 168.117 20.5469C168.69 20.6823 169.214 20.9062 169.688 21.2187C170.162 21.526 170.542 21.9453 170.828 22.4766C171.12 23.0078 171.266 23.6719 171.266 24.4687V32.5H168.547V30.8516H168.453C168.281 31.1849 168.039 31.4974 167.727 31.7891C167.419 32.0755 167.031 32.3073 166.563 32.4844C166.099 32.6563 165.555 32.7422 164.93 32.7422ZM165.664 30.6641C166.232 30.6641 166.724 30.5521 167.141 30.3281C167.557 30.099 167.878 29.7969 168.102 29.4219C168.331 29.0469 168.445 28.638 168.445 28.1953V26.7812C168.357 26.8542 168.206 26.9219 167.992 26.9844C167.784 27.0469 167.55 27.1016 167.289 27.1484C167.029 27.1953 166.771 27.237 166.516 27.2734C166.26 27.3099 166.039 27.3411 165.852 27.3672C165.43 27.4245 165.052 27.5182 164.719 27.6484C164.385 27.7786 164.122 27.9609 163.93 28.1953C163.737 28.4245 163.641 28.7214 163.641 29.0859C163.641 29.6068 163.831 30 164.211 30.2656C164.591 30.5312 165.076 30.6641 165.664 30.6641ZM183.584 23.6719L181.006 23.9531C180.933 23.6927 180.805 23.4479 180.623 23.2188C180.446 22.9896 180.206 22.8047 179.904 22.6641C179.602 22.5234 179.232 22.4531 178.795 22.4531C178.206 22.4531 177.711 22.5807 177.31 22.8359C176.915 23.0911 176.719 23.4219 176.724 23.8281C176.719 24.1771 176.847 24.4609 177.107 24.6797C177.373 24.8984 177.81 25.0781 178.42 25.2188L180.467 25.6562C181.602 25.901 182.446 26.2891 182.998 26.8203C183.555 27.3516 183.836 28.0469 183.842 28.9062C183.836 29.6615 183.615 30.3281 183.178 30.9062C182.745 31.4792 182.144 31.9271 181.373 32.25C180.602 32.5729 179.717 32.7344 178.717 32.7344C177.248 32.7344 176.066 32.4271 175.17 31.8125C174.274 31.1927 173.74 30.3307 173.568 29.2266L176.326 28.9609C176.451 29.5026 176.717 29.9115 177.123 30.1875C177.529 30.4635 178.058 30.6016 178.709 30.6016C179.381 30.6016 179.92 30.4635 180.326 30.1875C180.737 29.9115 180.943 29.5703 180.943 29.1641C180.943 28.8203 180.81 28.5365 180.545 28.3125C180.284 28.0885 179.878 27.9167 179.326 27.7969L177.279 27.3672C176.128 27.1276 175.277 26.724 174.724 26.1562C174.172 25.5833 173.899 24.8594 173.904 23.9844C173.899 23.2448 174.099 22.6042 174.506 22.0625C174.917 21.5156 175.487 21.0937 176.217 20.7969C176.951 20.4948 177.797 20.3438 178.756 20.3438C180.162 20.3438 181.269 20.6432 182.076 21.2422C182.889 21.8411 183.391 22.651 183.584 23.6719ZM188.992 25.4687V32.5H186.164V16.5H188.929V22.5391H189.07C189.351 21.862 189.786 21.3281 190.375 20.9375C190.968 20.5417 191.724 20.3438 192.64 20.3438C193.474 20.3438 194.2 20.5182 194.82 20.8672C195.44 21.2161 195.919 21.7266 196.257 22.3984C196.601 23.0703 196.773 23.8906 196.773 24.8594V32.5H193.945V25.2969C193.945 24.4896 193.737 23.862 193.32 23.4141C192.908 22.9609 192.33 22.7344 191.586 22.7344C191.086 22.7344 190.638 22.8437 190.242 23.0625C189.851 23.276 189.544 23.5859 189.32 23.9922C189.101 24.3984 188.992 24.8906 188.992 25.4687ZM213.913 20.8984C213.84 20.2161 213.533 19.6849 212.991 19.3047C212.455 18.9245 211.757 18.7344 210.898 18.7344C210.293 18.7344 209.775 18.8255 209.343 19.0078C208.911 19.1901 208.58 19.4375 208.351 19.75C208.122 20.0625 208.004 20.4193 207.999 20.8203C207.999 21.1536 208.075 21.4427 208.226 21.6875C208.382 21.9323 208.593 22.1406 208.859 22.3125C209.124 22.4792 209.418 22.6198 209.741 22.7344C210.064 22.849 210.39 22.9453 210.718 23.0234L212.218 23.3984C212.822 23.5391 213.403 23.7292 213.96 23.9687C214.523 24.2083 215.025 24.5104 215.468 24.875C215.916 25.2396 216.27 25.6797 216.53 26.1953C216.791 26.7109 216.921 27.3151 216.921 28.0078C216.921 28.9453 216.681 29.7708 216.202 30.4844C215.723 31.1927 215.03 31.7474 214.124 32.1484C213.223 32.5443 212.132 32.7422 210.851 32.7422C209.606 32.7422 208.525 32.5495 207.609 32.1641C206.697 31.7786 205.984 31.2161 205.468 30.4766C204.957 29.737 204.681 28.8359 204.64 27.7734H207.491C207.533 28.3307 207.705 28.7943 208.007 29.1641C208.309 29.5339 208.702 29.8099 209.187 29.9922C209.676 30.1745 210.223 30.2656 210.827 30.2656C211.457 30.2656 212.01 30.1719 212.484 29.9844C212.963 29.7917 213.338 29.526 213.609 29.1875C213.879 28.8437 214.017 28.4427 214.023 27.9844C214.017 27.5677 213.895 27.224 213.655 26.9531C213.416 26.6771 213.08 26.4479 212.648 26.2656C212.22 26.0781 211.72 25.9115 211.148 25.7656L209.327 25.2969C208.01 24.9583 206.968 24.4453 206.202 23.7578C205.442 23.0651 205.062 22.1458 205.062 21C205.062 20.0573 205.317 19.2318 205.827 18.5234C206.343 17.8151 207.043 17.2656 207.929 16.875C208.814 16.4792 209.817 16.2812 210.937 16.2812C212.072 16.2812 213.067 16.4792 213.921 16.875C214.78 17.2656 215.455 17.8099 215.944 18.5078C216.434 19.2005 216.687 19.9974 216.702 20.8984H213.913ZM224.604 32.7344C223.406 32.7344 222.378 32.4714 221.518 31.9453C220.664 31.4193 220.005 30.6927 219.542 29.7656C219.084 28.8333 218.854 27.7604 218.854 26.5469C218.854 25.3281 219.089 24.2526 219.557 23.3203C220.026 22.3828 220.688 21.6536 221.542 21.1328C222.401 20.6068 223.417 20.3438 224.589 20.3438C225.563 20.3438 226.425 20.5234 227.175 20.8828C227.93 21.237 228.531 21.7396 228.979 22.3906C229.427 23.0365 229.682 23.7917 229.745 24.6562H227.042C226.932 24.0781 226.672 23.5964 226.261 23.2109C225.854 22.8203 225.31 22.625 224.628 22.625C224.05 22.625 223.542 22.7812 223.104 23.0937C222.667 23.401 222.326 23.8437 222.081 24.4219C221.841 25 221.722 25.6927 221.722 26.5C221.722 27.3177 221.841 28.0208 222.081 28.6094C222.321 29.1927 222.656 29.6432 223.089 29.9609C223.526 30.2734 224.039 30.4297 224.628 30.4297C225.044 30.4297 225.417 30.3516 225.745 30.1953C226.078 30.0339 226.357 29.8021 226.581 29.5C226.805 29.1979 226.959 28.8307 227.042 28.3984H229.745C229.677 29.2474 229.427 30 228.995 30.6562C228.563 31.3073 227.974 31.8177 227.229 32.1875C226.485 32.5521 225.61 32.7344 224.604 32.7344ZM232.057 32.5V20.5H234.799V22.5H234.924C235.143 21.8073 235.518 21.2734 236.049 20.8984C236.586 20.5182 237.198 20.3281 237.885 20.3281C238.042 20.3281 238.216 20.3359 238.409 20.3516C238.607 20.362 238.771 20.3802 238.901 20.4062V23.0078C238.781 22.9661 238.591 22.9297 238.331 22.8984C238.075 22.862 237.828 22.8437 237.589 22.8437C237.073 22.8437 236.609 22.9557 236.198 23.1797C235.792 23.3984 235.471 23.7031 235.237 24.0937C235.003 24.4844 234.885 24.9349 234.885 25.4453V32.5H232.057ZM245.588 32.7344C244.385 32.7344 243.346 32.4844 242.471 31.9844C241.601 31.4792 240.932 30.7656 240.463 29.8437C239.995 28.9167 239.76 27.8255 239.76 26.5703C239.76 25.3359 239.995 24.2526 240.463 23.3203C240.937 22.3828 241.599 21.6536 242.448 21.1328C243.297 20.6068 244.294 20.3438 245.44 20.3438C246.179 20.3438 246.877 20.4635 247.534 20.7031C248.195 20.9375 248.778 21.3021 249.284 21.7969C249.794 22.2917 250.195 22.9219 250.487 23.6875C250.778 24.4479 250.924 25.3542 250.924 26.4062V27.2734H241.088V25.3672H248.213C248.208 24.8255 248.091 24.3437 247.862 23.9219C247.633 23.4948 247.312 23.1589 246.901 22.9141C246.495 22.6693 246.021 22.5469 245.479 22.5469C244.901 22.5469 244.393 22.6875 243.955 22.9687C243.518 23.2448 243.177 23.6094 242.932 24.0625C242.692 24.5104 242.57 25.0026 242.565 25.5391V27.2031C242.565 27.901 242.692 28.5 242.948 29C243.203 29.4948 243.56 29.875 244.018 30.1406C244.476 30.401 245.013 30.5312 245.627 30.5312C246.039 30.5312 246.411 30.474 246.745 30.3594C247.078 30.2396 247.367 30.0651 247.612 29.8359C247.857 29.6068 248.041 29.3229 248.166 28.9844L250.807 29.2812C250.64 29.9792 250.323 30.5885 249.854 31.1094C249.39 31.625 248.797 32.026 248.073 32.3125C247.349 32.5937 246.521 32.7344 245.588 32.7344ZM258.619 32.7344C257.416 32.7344 256.377 32.4844 255.502 31.9844C254.632 31.4792 253.963 30.7656 253.494 29.8437C253.026 28.9167 252.791 27.8255 252.791 26.5703C252.791 25.3359 253.026 24.2526 253.494 23.3203C253.968 22.3828 254.63 21.6536 255.479 21.1328C256.328 20.6068 257.325 20.3438 258.471 20.3438C259.21 20.3438 259.908 20.4635 260.565 20.7031C261.226 20.9375 261.809 21.3021 262.315 21.7969C262.825 22.2917 263.226 22.9219 263.518 23.6875C263.809 24.4479 263.955 25.3542 263.955 26.4062V27.2734H254.119V25.3672H261.244C261.239 24.8255 261.122 24.3437 260.893 23.9219C260.664 23.4948 260.343 23.1589 259.932 22.9141C259.526 22.6693 259.052 22.5469 258.51 22.5469C257.932 22.5469 257.424 22.6875 256.986 22.9687C256.549 23.2448 256.208 23.6094 255.963 24.0625C255.723 24.5104 255.601 25.0026 255.596 25.5391V27.2031C255.596 27.901 255.723 28.5 255.979 29C256.234 29.4948 256.591 29.875 257.049 30.1406C257.507 30.401 258.044 30.5312 258.658 30.5312C259.07 30.5312 259.442 30.474 259.776 30.3594C260.109 30.2396 260.398 30.0651 260.643 29.8359C260.888 29.6068 261.072 29.3229 261.197 28.9844L263.838 29.2812C263.671 29.9792 263.354 30.5885 262.885 31.1094C262.421 31.625 261.828 32.026 261.104 32.3125C260.38 32.5937 259.552 32.7344 258.619 32.7344ZM269.166 25.4687V32.5H266.338V20.5H269.041V22.5391H269.182C269.458 21.8672 269.898 21.3333 270.502 20.9375C271.111 20.5417 271.864 20.3438 272.76 20.3438C273.588 20.3438 274.309 20.5208 274.924 20.875C275.544 21.2292 276.023 21.7422 276.361 22.4141C276.705 23.0859 276.874 23.901 276.869 24.8594V32.5H274.041V25.2969C274.041 24.4948 273.833 23.8672 273.416 23.4141C273.004 22.9609 272.434 22.7344 271.705 22.7344C271.21 22.7344 270.77 22.8437 270.385 23.0625C270.004 23.276 269.705 23.5859 269.486 23.9922C269.273 24.3984 269.166 24.8906 269.166 25.4687Z" fill="#10B3A3"/>
<defs>
<radialGradient id="paint0_radial_301_194" cx="0" cy="0" r="1" gradientUnits="userSpaceOnUse" gradientTransform="translate(4 4) rotate(90) scale(32)">
<stop stop-color="white"/>
<stop offset="1" stop-color="white" stop-opacity="0"/>
</radialGradient>
<clipPath id="clip0_301_194">
<rect width="48" height="48" rx="10" fill="white"/>
</clipPath>
</defs>
</svg>
