<svg width="272" height="48" viewBox="0 0 272 48" fill="none" xmlns="http://www.w3.org/2000/svg">
<g clip-path="url(#clip0_45_146)">
<rect width="48" height="48" rx="10" fill="#EE9D2B"/>
<g opacity="0.4">
<rect x="-28" y="-28" width="64" height="64" rx="10" fill="url(#paint0_radial_45_146)"/>
</g>
<path opacity="0.4" d="M20.5 22.5C21.6046 22.5 22.5 21.6046 22.5 20.5C22.5 19.3954 21.6046 18.5 20.5 18.5C19.3954 18.5 18.5 19.3954 18.5 20.5C18.5 21.6046 19.3954 22.5 20.5 22.5Z" stroke="white" stroke-width="2" stroke-linecap="round" stroke-linejoin="round"/>
<path d="M17.9996 32.0004L26.8686 23.1314C27.2646 22.7354 27.4627 22.5373 27.691 22.4632C27.8918 22.3979 28.1082 22.3979 28.309 22.4632C28.5373 22.5373 28.7354 22.7354 29.1314 23.1314L33.4053 27.4053M34 24C34 29.5228 29.5228 34 24 34C18.4772 34 14 29.5228 14 24C14 18.4772 18.4772 14 24 14C29.5228 14 34 18.4772 34 24Z" stroke="white" stroke-width="2" stroke-linecap="round" stroke-linejoin="round"/>
</g>
<path d="M69.5781 32.5V16.5H79.9844V18.9297H72.4766V23.2734H79.4453V25.7031H72.4766V30.0703H80.0469V32.5H69.5781ZM85.1189 20.5L87.5408 24.9297L90.0017 20.5H92.9939L89.3767 26.5L93.0564 32.5H90.0798L87.5408 28.1797L85.0252 32.5H82.0252L85.6814 26.5L82.1189 20.5H85.1189ZM95.1714 37V20.5H97.9527V22.4844H98.1167C98.2626 22.1927 98.4683 21.8828 98.7339 21.5547C98.9995 21.2214 99.3589 20.9375 99.812 20.7031C100.265 20.4635 100.843 20.3438 101.546 20.3438C102.473 20.3438 103.309 20.5807 104.054 21.0547C104.804 21.5234 105.398 22.2187 105.835 23.1406C106.278 24.0573 106.5 25.1823 106.5 26.5156C106.5 27.8333 106.283 28.9531 105.851 29.875C105.419 30.7969 104.83 31.5 104.085 31.9844C103.341 32.4688 102.497 32.7109 101.554 32.7109C100.867 32.7109 100.296 32.5964 99.8433 32.3672C99.3902 32.138 99.0256 31.862 98.7495 31.5391C98.4787 31.2109 98.2678 30.901 98.1167 30.6094H97.9995V37H95.1714ZM97.9448 26.5C97.9448 27.276 98.0542 27.9557 98.273 28.5391C98.4969 29.1224 98.8172 29.5781 99.2339 29.9062C99.6558 30.2292 100.166 30.3906 100.765 30.3906C101.39 30.3906 101.914 30.224 102.335 29.8906C102.757 29.5521 103.075 29.0911 103.289 28.5078C103.507 27.9193 103.617 27.25 103.617 26.5C103.617 25.7552 103.51 25.0937 103.296 24.5156C103.083 23.9375 102.765 23.4844 102.343 23.1562C101.921 22.8281 101.395 22.6641 100.765 22.6641C100.161 22.6641 99.648 22.8229 99.2261 23.1406C98.8042 23.4583 98.4839 23.9036 98.2652 24.4766C98.0516 25.0495 97.9448 25.724 97.9448 26.5ZM114.146 32.7344C112.974 32.7344 111.958 32.4766 111.099 31.9609C110.24 31.4453 109.573 30.724 109.099 29.7969C108.63 28.8698 108.396 27.7865 108.396 26.5469C108.396 25.3073 108.63 24.2214 109.099 23.2891C109.573 22.3568 110.24 21.6328 111.099 21.1172C111.958 20.6016 112.974 20.3438 114.146 20.3438C115.318 20.3438 116.333 20.6016 117.193 21.1172C118.052 21.6328 118.716 22.3568 119.185 23.2891C119.659 24.2214 119.896 25.3073 119.896 26.5469C119.896 27.7865 119.659 28.8698 119.185 29.7969C118.716 30.724 118.052 31.4453 117.193 31.9609C116.333 32.4766 115.318 32.7344 114.146 32.7344ZM114.161 30.4687C114.797 30.4687 115.328 30.2943 115.755 29.9453C116.182 29.5911 116.5 29.1172 116.708 28.5234C116.922 27.9297 117.029 27.2682 117.029 26.5391C117.029 25.8047 116.922 25.1406 116.708 24.5469C116.5 23.9479 116.182 23.4714 115.755 23.1172C115.328 22.763 114.797 22.5859 114.161 22.5859C113.51 22.5859 112.969 22.763 112.536 23.1172C112.109 23.4714 111.789 23.9479 111.575 24.5469C111.367 25.1406 111.263 25.8047 111.263 26.5391C111.263 27.2682 111.367 27.9297 111.575 28.5234C111.789 29.1172 112.109 29.5911 112.536 29.9453C112.969 30.2943 113.51 30.4687 114.161 30.4687ZM127.858 16.5H131.405L136.155 28.0937H136.343L141.093 16.5H144.639V32.5H141.858V21.5078H141.71L137.288 32.4531H135.21L130.788 21.4844H130.639V32.5H127.858V16.5ZM152.973 32.7344C151.77 32.7344 150.731 32.4844 149.856 31.9844C148.986 31.4792 148.317 30.7656 147.848 29.8437C147.379 28.9167 147.145 27.8255 147.145 26.5703C147.145 25.3359 147.379 24.2526 147.848 23.3203C148.322 22.3828 148.984 21.6536 149.833 21.1328C150.682 20.6068 151.679 20.3438 152.825 20.3438C153.564 20.3438 154.262 20.4635 154.919 20.7031C155.58 20.9375 156.163 21.3021 156.669 21.7969C157.179 22.2917 157.58 22.9219 157.872 23.6875C158.163 24.4479 158.309 25.3542 158.309 26.4062V27.2734H148.473V25.3672H155.598C155.593 24.8255 155.476 24.3437 155.247 23.9219C155.017 23.4948 154.697 23.1589 154.286 22.9141C153.879 22.6693 153.405 22.5469 152.864 22.5469C152.286 22.5469 151.778 22.6875 151.34 22.9687C150.903 23.2448 150.562 23.6094 150.317 24.0625C150.077 24.5104 149.955 25.0026 149.95 25.5391V27.2031C149.95 27.901 150.077 28.5 150.333 29C150.588 29.4948 150.945 29.875 151.403 30.1406C151.861 30.401 152.398 30.5312 153.012 30.5312C153.424 30.5312 153.796 30.474 154.129 30.3594C154.463 30.2396 154.752 30.0651 154.997 29.8359C155.241 29.6068 155.426 29.3229 155.551 28.9844L158.192 29.2812C158.025 29.9792 157.708 30.5885 157.239 31.1094C156.775 31.625 156.182 32.026 155.458 32.3125C154.734 32.5937 153.905 32.7344 152.973 32.7344ZM165.145 32.7109C164.202 32.7109 163.358 32.4688 162.614 31.9844C161.869 31.5 161.28 30.7969 160.848 29.875C160.416 28.9531 160.2 27.8333 160.2 26.5156C160.2 25.1823 160.418 24.0573 160.856 23.1406C161.298 22.2187 161.895 21.5234 162.645 21.0547C163.395 20.5807 164.231 20.3438 165.153 20.3438C165.856 20.3438 166.434 20.4635 166.887 20.7031C167.34 20.9375 167.7 21.2214 167.965 21.5547C168.231 21.8828 168.437 22.1927 168.582 22.4844H168.7V16.5H171.535V32.5H168.754V30.6094H168.582C168.437 30.901 168.226 31.2109 167.95 31.5391C167.673 31.862 167.309 32.138 166.856 32.3672C166.403 32.5964 165.832 32.7109 165.145 32.7109ZM165.934 30.3906C166.533 30.3906 167.043 30.2292 167.465 29.9062C167.887 29.5781 168.207 29.1224 168.426 28.5391C168.645 27.9557 168.754 27.276 168.754 26.5C168.754 25.724 168.645 25.0495 168.426 24.4766C168.213 23.9036 167.895 23.4583 167.473 23.1406C167.056 22.8229 166.543 22.6641 165.934 22.6641C165.304 22.6641 164.778 22.8281 164.356 23.1562C163.934 23.4844 163.616 23.9375 163.403 24.5156C163.189 25.0937 163.082 25.7552 163.082 26.5C163.082 27.25 163.189 27.9193 163.403 28.5078C163.621 29.0911 163.942 29.5521 164.364 29.8906C164.791 30.224 165.314 30.3906 165.934 30.3906ZM174.539 32.5V20.5H177.367V32.5H174.539ZM175.961 18.7969C175.513 18.7969 175.128 18.6484 174.805 18.3516C174.482 18.0495 174.32 17.6875 174.32 17.2656C174.32 16.8385 174.482 16.4766 174.805 16.1797C175.128 15.8776 175.513 15.7266 175.961 15.7266C176.414 15.7266 176.8 15.8776 177.117 16.1797C177.44 16.4766 177.602 16.8385 177.602 17.2656C177.602 17.6875 177.44 18.0495 177.117 18.3516C176.8 18.6484 176.414 18.7969 175.961 18.7969ZM183.719 32.7422C182.958 32.7422 182.273 32.6068 181.664 32.3359C181.06 32.0599 180.581 31.6536 180.226 31.1172C179.877 30.5807 179.703 29.9193 179.703 29.1328C179.703 28.4557 179.828 27.8958 180.078 27.4531C180.328 27.0104 180.669 26.6562 181.101 26.3906C181.534 26.125 182.021 25.9245 182.562 25.7891C183.109 25.6484 183.674 25.5469 184.258 25.4844C184.961 25.4115 185.531 25.3464 185.969 25.2891C186.406 25.2266 186.724 25.1328 186.922 25.0078C187.125 24.8776 187.226 24.6771 187.226 24.4062V24.3594C187.226 23.7708 187.052 23.3151 186.703 22.9922C186.354 22.6693 185.851 22.5078 185.195 22.5078C184.502 22.5078 183.953 22.6589 183.547 22.9609C183.146 23.263 182.875 23.6198 182.734 24.0312L180.094 23.6562C180.302 22.9271 180.646 22.3177 181.125 21.8281C181.604 21.3333 182.19 20.9635 182.883 20.7187C183.575 20.4688 184.341 20.3438 185.18 20.3438C185.758 20.3438 186.333 20.4115 186.906 20.5469C187.479 20.6823 188.002 20.9062 188.476 21.2187C188.95 21.526 189.331 21.9453 189.617 22.4766C189.909 23.0078 190.055 23.6719 190.055 24.4687V32.5H187.336V30.8516H187.242C187.07 31.1849 186.828 31.4974 186.515 31.7891C186.208 32.0755 185.82 32.3073 185.351 32.4844C184.888 32.6563 184.344 32.7422 183.719 32.7422ZM184.453 30.6641C185.021 30.6641 185.513 30.5521 185.93 30.3281C186.346 30.099 186.667 29.7969 186.89 29.4219C187.12 29.0469 187.234 28.638 187.234 28.1953V26.7812C187.146 26.8542 186.995 26.9219 186.781 26.9844C186.573 27.0469 186.338 27.1016 186.078 27.1484C185.818 27.1953 185.56 27.237 185.305 27.2734C185.049 27.3099 184.828 27.3411 184.64 27.3672C184.219 27.4245 183.841 27.5182 183.508 27.6484C183.174 27.7786 182.911 27.9609 182.719 28.1953C182.526 28.4245 182.43 28.7214 182.43 29.0859C182.43 29.6068 182.62 30 183 30.2656C183.38 30.5312 183.864 30.6641 184.453 30.6641ZM198.46 32.5V16.5H201.359V30.0703H208.406V32.5H198.46ZM210.786 32.5V20.5H213.614V32.5H210.786ZM212.208 18.7969C211.76 18.7969 211.375 18.6484 211.052 18.3516C210.729 18.0495 210.568 17.6875 210.568 17.2656C210.568 16.8385 210.729 16.4766 211.052 16.1797C211.375 15.8776 211.76 15.7266 212.208 15.7266C212.661 15.7266 213.047 15.8776 213.364 16.1797C213.687 16.4766 213.849 16.8385 213.849 17.2656C213.849 17.6875 213.687 18.0495 213.364 18.3516C213.047 18.6484 212.661 18.7969 212.208 18.7969ZM216.638 32.5V16.5H219.466V22.4844H219.583C219.729 22.1927 219.934 21.8828 220.2 21.5547C220.466 21.2214 220.825 20.9375 221.278 20.7031C221.731 20.4635 222.309 20.3438 223.013 20.3438C223.94 20.3438 224.776 20.5807 225.52 21.0547C226.27 21.5234 226.864 22.2187 227.302 23.1406C227.744 24.0573 227.966 25.1823 227.966 26.5156C227.966 27.8333 227.75 28.9531 227.317 29.875C226.885 30.7969 226.296 31.5 225.552 31.9844C224.807 32.4688 223.963 32.7109 223.02 32.7109C222.333 32.7109 221.763 32.5964 221.309 32.3672C220.856 32.138 220.492 31.862 220.216 31.5391C219.945 31.2109 219.734 30.901 219.583 30.6094H219.419V32.5H216.638ZM219.411 26.5C219.411 27.276 219.52 27.9557 219.739 28.5391C219.963 29.1224 220.283 29.5781 220.7 29.9062C221.122 30.2292 221.632 30.3906 222.231 30.3906C222.856 30.3906 223.38 30.224 223.802 29.8906C224.224 29.5521 224.541 29.0911 224.755 28.5078C224.974 27.9193 225.083 27.25 225.083 26.5C225.083 25.7552 224.976 25.0937 224.763 24.5156C224.549 23.9375 224.231 23.4844 223.809 23.1562C223.388 22.8281 222.862 22.6641 222.231 22.6641C221.627 22.6641 221.114 22.8229 220.692 23.1406C220.27 23.4583 219.95 23.9036 219.731 24.4766C219.518 25.0495 219.411 25.724 219.411 26.5ZM230.36 32.5V20.5H233.102V22.5H233.227C233.446 21.8073 233.821 21.2734 234.352 20.8984C234.889 20.5182 235.501 20.3281 236.188 20.3281C236.344 20.3281 236.519 20.3359 236.712 20.3516C236.909 20.362 237.074 20.3802 237.204 20.4062V23.0078C237.084 22.9661 236.894 22.9297 236.633 22.8984C236.378 22.862 236.131 22.8437 235.891 22.8437C235.376 22.8437 234.912 22.9557 234.501 23.1797C234.094 23.3984 233.774 23.7031 233.54 24.0937C233.305 24.4844 233.188 24.9349 233.188 25.4453V32.5H230.36ZM242.311 32.7422C241.551 32.7422 240.866 32.6068 240.256 32.3359C239.652 32.0599 239.173 31.6536 238.819 31.1172C238.47 30.5807 238.295 29.9193 238.295 29.1328C238.295 28.4557 238.42 27.8958 238.67 27.4531C238.92 27.0104 239.261 26.6562 239.694 26.3906C240.126 26.125 240.613 25.9245 241.155 25.7891C241.702 25.6484 242.267 25.5469 242.85 25.4844C243.553 25.4115 244.123 25.3464 244.561 25.2891C244.998 25.2266 245.316 25.1328 245.514 25.0078C245.717 24.8776 245.819 24.6771 245.819 24.4062V24.3594C245.819 23.7708 245.644 23.3151 245.295 22.9922C244.946 22.6693 244.444 22.5078 243.788 22.5078C243.095 22.5078 242.545 22.6589 242.139 22.9609C241.738 23.263 241.467 23.6198 241.327 24.0312L238.686 23.6562C238.894 22.9271 239.238 22.3177 239.717 21.8281C240.196 21.3333 240.782 20.9635 241.475 20.7187C242.168 20.4688 242.933 20.3438 243.772 20.3438C244.35 20.3438 244.926 20.4115 245.498 20.5469C246.071 20.6823 246.595 20.9062 247.069 21.2187C247.543 21.526 247.923 21.9453 248.209 22.4766C248.501 23.0078 248.647 23.6719 248.647 24.4687V32.5H245.928V30.8516H245.834C245.663 31.1849 245.42 31.4974 245.108 31.7891C244.801 32.0755 244.413 32.3073 243.944 32.4844C243.48 32.6563 242.936 32.7422 242.311 32.7422ZM243.045 30.6641C243.613 30.6641 244.105 30.5521 244.522 30.3281C244.939 30.099 245.259 29.7969 245.483 29.4219C245.712 29.0469 245.827 28.638 245.827 28.1953V26.7812C245.738 26.8542 245.587 26.9219 245.373 26.9844C245.165 27.0469 244.931 27.1016 244.67 27.1484C244.41 27.1953 244.152 27.237 243.897 27.2734C243.642 27.3099 243.42 27.3411 243.233 27.3672C242.811 27.4245 242.433 27.5182 242.1 27.6484C241.767 27.7786 241.504 27.9609 241.311 28.1953C241.118 28.4245 241.022 28.7214 241.022 29.0859C241.022 29.6068 241.212 30 241.592 30.2656C241.972 30.5312 242.457 30.6641 243.045 30.6641ZM251.481 32.5V20.5H254.223V22.5H254.348C254.567 21.8073 254.942 21.2734 255.473 20.8984C256.009 20.5182 256.621 20.3281 257.309 20.3281C257.465 20.3281 257.639 20.3359 257.832 20.3516C258.03 20.362 258.194 20.3802 258.324 20.4062V23.0078C258.205 22.9661 258.014 22.9297 257.754 22.8984C257.499 22.862 257.251 22.8437 257.012 22.8437C256.496 22.8437 256.033 22.9557 255.621 23.1797C255.215 23.3984 254.895 23.7031 254.66 24.0937C254.426 24.4844 254.309 24.9349 254.309 25.4453V32.5H251.481ZM262.316 37C261.931 37 261.574 36.9688 261.246 36.9063C260.923 36.849 260.665 36.7813 260.473 36.7031L261.129 34.5C261.54 34.6198 261.907 34.6771 262.23 34.6719C262.553 34.6667 262.837 34.5651 263.082 34.3672C263.332 34.1745 263.543 33.8516 263.715 33.3984L263.957 32.75L259.605 20.5H262.605L265.371 29.5625H265.496L268.269 20.5H271.277L266.473 33.9531C266.249 34.5885 265.952 35.1328 265.582 35.5859C265.212 36.0443 264.759 36.3932 264.223 36.6328C263.691 36.8776 263.056 37 262.316 37Z" fill="#EE9D2B"/>
<defs>
<radialGradient id="paint0_radial_45_146" cx="0" cy="0" r="1" gradientUnits="userSpaceOnUse" gradientTransform="translate(4 4) rotate(90) scale(32)">
<stop stop-color="white"/>
<stop offset="1" stop-color="white" stop-opacity="0"/>
</radialGradient>
<clipPath id="clip0_45_146">
<rect width="48" height="48" rx="10" fill="white"/>
</clipPath>
</defs>
</svg>
