<svg width="325" height="48" viewBox="0 0 325 48" fill="none" xmlns="http://www.w3.org/2000/svg">
<g clip-path="url(#clip0_45_299)">
<rect width="48" height="48" rx="10" fill="#E03177"/>
<g opacity="0.4">
<rect x="-28" y="-28" width="64" height="64" rx="10" fill="url(#paint0_radial_45_299)"/>
</g>
<path opacity="0.4" d="M31.7142 18.9999L30.2856 28.9999M18.1429 19L16.3572 29M30 17L20 17M28 31L18 31" stroke="white" stroke-width="2" stroke-linecap="round" stroke-linejoin="round"/>
<path d="M16 16.6C16 16.0399 16 15.7599 16.109 15.546C16.2049 15.3578 16.3578 15.2049 16.546 15.109C16.7599 15 17.0399 15 17.6 15H18.4C18.9601 15 19.2401 15 19.454 15.109C19.6422 15.2049 19.7951 15.3578 19.891 15.546C20 15.7599 20 16.0399 20 16.6V17.4C20 17.9601 20 18.2401 19.891 18.454C19.7951 18.6422 19.6422 18.7951 19.454 18.891C19.2401 19 18.9601 19 18.4 19H17.6C17.0399 19 16.7599 19 16.546 18.891C16.3578 18.7951 16.2049 18.6422 16.109 18.454C16 18.2401 16 17.9601 16 17.4V16.6Z" stroke="white" stroke-width="2" stroke-linecap="round" stroke-linejoin="round"/>
<path d="M14 30.6C14 30.0399 14 29.7599 14.109 29.546C14.2049 29.3578 14.3578 29.2049 14.546 29.109C14.7599 29 15.0399 29 15.6 29H16.4C16.9601 29 17.2401 29 17.454 29.109C17.6422 29.2049 17.7951 29.3578 17.891 29.546C18 29.7599 18 30.0399 18 30.6V31.4C18 31.9601 18 32.2401 17.891 32.454C17.7951 32.6422 17.6422 32.7951 17.454 32.891C17.2401 33 16.9601 33 16.4 33H15.6C15.0399 33 14.7599 33 14.546 32.891C14.3578 32.7951 14.2049 32.6422 14.109 32.454C14 32.2401 14 31.9601 14 31.4V30.6Z" stroke="white" stroke-width="2" stroke-linecap="round" stroke-linejoin="round"/>
<path d="M30 16.6C30 16.0399 30 15.7599 30.109 15.546C30.2049 15.3578 30.3578 15.2049 30.546 15.109C30.7599 15 31.0399 15 31.6 15H32.4C32.9601 15 33.2401 15 33.454 15.109C33.6422 15.2049 33.7951 15.3578 33.891 15.546C34 15.7599 34 16.0399 34 16.6V17.4C34 17.9601 34 18.2401 33.891 18.454C33.7951 18.6422 33.6422 18.7951 33.454 18.891C33.2401 19 32.9601 19 32.4 19H31.6C31.0399 19 30.7599 19 30.546 18.891C30.3578 18.7951 30.2049 18.6422 30.109 18.454C30 18.2401 30 17.9601 30 17.4V16.6Z" stroke="white" stroke-width="2" stroke-linecap="round" stroke-linejoin="round"/>
<path d="M28 30.6C28 30.0399 28 29.7599 28.109 29.546C28.2049 29.3578 28.3578 29.2049 28.546 29.109C28.7599 29 29.0399 29 29.6 29H30.4C30.9601 29 31.2401 29 31.454 29.109C31.6422 29.2049 31.7951 29.3578 31.891 29.546C32 29.7599 32 30.0399 32 30.6V31.4C32 31.9601 32 32.2401 31.891 32.454C31.7951 32.6422 31.6422 32.7951 31.454 32.891C31.2401 33 30.9601 33 30.4 33H29.6C29.0399 33 28.7599 33 28.546 32.891C28.3578 32.7951 28.2049 32.6422 28.109 32.454C28 32.2401 28 31.9601 28 31.4V30.6Z" stroke="white" stroke-width="2" stroke-linecap="round" stroke-linejoin="round"/>
</g>
<path d="M69.5781 32.5V16.5H79.9844V18.9297H72.4766V23.2734H79.4453V25.7031H72.4766V30.0703H80.0469V32.5H69.5781ZM85.1189 20.5L87.5408 24.9297L90.0017 20.5H92.9939L89.3767 26.5L93.0564 32.5H90.0798L87.5408 28.1797L85.0252 32.5H82.0252L85.6814 26.5L82.1189 20.5H85.1189ZM95.1714 37V20.5H97.9527V22.4844H98.1167C98.2626 22.1927 98.4683 21.8828 98.7339 21.5547C98.9995 21.2214 99.3589 20.9375 99.812 20.7031C100.265 20.4635 100.843 20.3438 101.546 20.3438C102.473 20.3438 103.309 20.5807 104.054 21.0547C104.804 21.5234 105.398 22.2187 105.835 23.1406C106.278 24.0573 106.5 25.1823 106.5 26.5156C106.5 27.8333 106.283 28.9531 105.851 29.875C105.419 30.7969 104.83 31.5 104.085 31.9844C103.341 32.4688 102.497 32.7109 101.554 32.7109C100.867 32.7109 100.296 32.5964 99.8433 32.3672C99.3902 32.138 99.0256 31.862 98.7495 31.5391C98.4787 31.2109 98.2678 30.901 98.1167 30.6094H97.9995V37H95.1714ZM97.9448 26.5C97.9448 27.276 98.0542 27.9557 98.273 28.5391C98.4969 29.1224 98.8172 29.5781 99.2339 29.9062C99.6558 30.2292 100.166 30.3906 100.765 30.3906C101.39 30.3906 101.914 30.224 102.335 29.8906C102.757 29.5521 103.075 29.0911 103.289 28.5078C103.507 27.9193 103.617 27.25 103.617 26.5C103.617 25.7552 103.51 25.0937 103.296 24.5156C103.083 23.9375 102.765 23.4844 102.343 23.1562C101.921 22.8281 101.395 22.6641 100.765 22.6641C100.161 22.6641 99.648 22.8229 99.2261 23.1406C98.8042 23.4583 98.4839 23.9036 98.2652 24.4766C98.0516 25.0495 97.9448 25.724 97.9448 26.5ZM114.146 32.7344C112.974 32.7344 111.958 32.4766 111.099 31.9609C110.24 31.4453 109.573 30.724 109.099 29.7969C108.63 28.8698 108.396 27.7865 108.396 26.5469C108.396 25.3073 108.63 24.2214 109.099 23.2891C109.573 22.3568 110.24 21.6328 111.099 21.1172C111.958 20.6016 112.974 20.3438 114.146 20.3438C115.318 20.3438 116.333 20.6016 117.193 21.1172C118.052 21.6328 118.716 22.3568 119.185 23.2891C119.659 24.2214 119.896 25.3073 119.896 26.5469C119.896 27.7865 119.659 28.8698 119.185 29.7969C118.716 30.724 118.052 31.4453 117.193 31.9609C116.333 32.4766 115.318 32.7344 114.146 32.7344ZM114.161 30.4687C114.797 30.4687 115.328 30.2943 115.755 29.9453C116.182 29.5911 116.5 29.1172 116.708 28.5234C116.922 27.9297 117.029 27.2682 117.029 26.5391C117.029 25.8047 116.922 25.1406 116.708 24.5469C116.5 23.9479 116.182 23.4714 115.755 23.1172C115.328 22.763 114.797 22.5859 114.161 22.5859C113.51 22.5859 112.969 22.763 112.536 23.1172C112.109 23.4714 111.789 23.9479 111.575 24.5469C111.367 25.1406 111.263 25.8047 111.263 26.5391C111.263 27.2682 111.367 27.9297 111.575 28.5234C111.789 29.1172 112.109 29.5911 112.536 29.9453C112.969 30.2943 113.51 30.4687 114.161 30.4687ZM130.757 16.5V32.5H127.858V16.5H130.757ZM133.76 32.5V20.5H136.463V22.5391H136.604C136.854 21.8516 137.268 21.3151 137.846 20.9297C138.424 20.5391 139.114 20.3438 139.917 20.3438C140.729 20.3438 141.414 20.5417 141.971 20.9375C142.534 21.3281 142.93 21.862 143.159 22.5391H143.284C143.549 21.8724 143.997 21.3411 144.628 20.9453C145.263 20.5443 146.016 20.3438 146.885 20.3438C147.989 20.3438 148.891 20.6927 149.588 21.3906C150.286 22.0885 150.635 23.1068 150.635 24.4453V32.5H147.799V24.8828C147.799 24.138 147.601 23.5937 147.206 23.25C146.81 22.901 146.325 22.7266 145.753 22.7266C145.07 22.7266 144.536 22.9401 144.151 23.3672C143.771 23.7891 143.581 24.3385 143.581 25.0156V32.5H140.807V24.7656C140.807 24.1458 140.62 23.651 140.245 23.2812C139.875 22.9115 139.391 22.7266 138.792 22.7266C138.385 22.7266 138.016 22.8307 137.682 23.0391C137.349 23.2422 137.083 23.5312 136.885 23.9062C136.687 24.276 136.588 24.7083 136.588 25.2031V32.5H133.76ZM156.948 32.7422C156.187 32.7422 155.502 32.6068 154.893 32.3359C154.289 32.0599 153.81 31.6536 153.455 31.1172C153.106 30.5807 152.932 29.9193 152.932 29.1328C152.932 28.4557 153.057 27.8958 153.307 27.4531C153.557 27.0104 153.898 26.6562 154.33 26.3906C154.763 26.125 155.25 25.9245 155.791 25.7891C156.338 25.6484 156.903 25.5469 157.487 25.4844C158.19 25.4115 158.76 25.3464 159.198 25.2891C159.635 25.2266 159.953 25.1328 160.151 25.0078C160.354 24.8776 160.455 24.6771 160.455 24.4062V24.3594C160.455 23.7708 160.281 23.3151 159.932 22.9922C159.583 22.6693 159.08 22.5078 158.424 22.5078C157.731 22.5078 157.182 22.6589 156.776 22.9609C156.375 23.263 156.104 23.6198 155.963 24.0312L153.323 23.6562C153.531 22.9271 153.875 22.3177 154.354 21.8281C154.833 21.3333 155.419 20.9635 156.112 20.7187C156.804 20.4688 157.57 20.3438 158.409 20.3438C158.987 20.3438 159.562 20.4115 160.135 20.5469C160.708 20.6823 161.231 20.9062 161.705 21.2187C162.179 21.526 162.56 21.9453 162.846 22.4766C163.138 23.0078 163.284 23.6719 163.284 24.4687V32.5H160.565V30.8516H160.471C160.299 31.1849 160.057 31.4974 159.744 31.7891C159.437 32.0755 159.049 32.3073 158.58 32.4844C158.117 32.6563 157.573 32.7422 156.948 32.7422ZM157.682 30.6641C158.25 30.6641 158.742 30.5521 159.159 30.3281C159.575 30.099 159.895 29.7969 160.119 29.4219C160.349 29.0469 160.463 28.638 160.463 28.1953V26.7812C160.375 26.8542 160.224 26.9219 160.01 26.9844C159.802 27.0469 159.567 27.1016 159.307 27.1484C159.047 27.1953 158.789 27.237 158.534 27.2734C158.278 27.3099 158.057 27.3411 157.869 27.3672C157.448 27.4245 157.07 27.5182 156.737 27.6484C156.403 27.7786 156.14 27.9609 155.948 28.1953C155.755 28.4245 155.659 28.7214 155.659 29.0859C155.659 29.6068 155.849 30 156.229 30.2656C156.609 30.5312 157.093 30.6641 157.682 30.6641ZM171.336 37.25C170.32 37.25 169.448 37.112 168.719 36.8359C167.99 36.5651 167.404 36.2005 166.961 35.7422C166.518 35.2839 166.211 34.776 166.039 34.2188L168.586 33.6016C168.701 33.8359 168.867 34.0677 169.086 34.2969C169.305 34.5313 169.599 34.724 169.969 34.875C170.344 35.0313 170.815 35.1094 171.383 35.1094C172.185 35.1094 172.849 34.9141 173.375 34.5234C173.901 34.138 174.164 33.5026 174.164 32.6172V30.3437H174.024C173.878 30.6354 173.664 30.9349 173.383 31.2422C173.107 31.5495 172.74 31.8073 172.281 32.0156C171.828 32.224 171.258 32.3281 170.57 32.3281C169.649 32.3281 168.813 32.112 168.063 31.6797C167.318 31.2422 166.724 30.5911 166.281 29.7266C165.844 28.8568 165.625 27.7682 165.625 26.4609C165.625 25.1432 165.844 24.0312 166.281 23.125C166.724 22.2135 167.32 21.5234 168.07 21.0547C168.82 20.5807 169.656 20.3438 170.578 20.3438C171.281 20.3438 171.859 20.4635 172.313 20.7031C172.771 20.9375 173.135 21.2214 173.406 21.5547C173.677 21.8828 173.883 22.1927 174.024 22.4844H174.18V20.5H176.969V32.6953C176.969 33.7214 176.724 34.5703 176.234 35.2422C175.745 35.9141 175.076 36.4167 174.227 36.75C173.378 37.0833 172.414 37.25 171.336 37.25ZM171.359 30.1094C171.958 30.1094 172.469 29.9635 172.891 29.6719C173.313 29.3802 173.633 28.9609 173.852 28.4141C174.07 27.8672 174.18 27.2109 174.18 26.4453C174.18 25.6901 174.07 25.0286 173.852 24.4609C173.638 23.8932 173.32 23.4531 172.899 23.1406C172.482 22.8229 171.969 22.6641 171.359 22.6641C170.729 22.6641 170.203 22.8281 169.781 23.1562C169.359 23.4844 169.042 23.9349 168.828 24.5078C168.615 25.0755 168.508 25.7214 168.508 26.4453C168.508 27.1797 168.615 27.8229 168.828 28.375C169.047 28.9219 169.367 29.349 169.789 29.6562C170.216 29.9583 170.74 30.1094 171.359 30.1094ZM185.17 32.7344C183.967 32.7344 182.928 32.4844 182.053 31.9844C181.183 31.4792 180.514 30.7656 180.045 29.8437C179.576 28.9167 179.342 27.8255 179.342 26.5703C179.342 25.3359 179.576 24.2526 180.045 23.3203C180.519 22.3828 181.18 21.6536 182.029 21.1328C182.878 20.6068 183.875 20.3438 185.021 20.3438C185.761 20.3438 186.459 20.4635 187.115 20.7031C187.777 20.9375 188.36 21.3021 188.865 21.7969C189.375 22.2917 189.777 22.9219 190.068 23.6875C190.36 24.4479 190.506 25.3542 190.506 26.4062V27.2734H180.67V25.3672H187.795C187.79 24.8255 187.672 24.3437 187.443 23.9219C187.214 23.4948 186.894 23.1589 186.482 22.9141C186.076 22.6693 185.602 22.5469 185.06 22.5469C184.482 22.5469 183.974 22.6875 183.537 22.9687C183.099 23.2448 182.758 23.6094 182.514 24.0625C182.274 24.5104 182.152 25.0026 182.146 25.5391V27.2031C182.146 27.901 182.274 28.5 182.529 29C182.784 29.4948 183.141 29.875 183.599 30.1406C184.058 30.401 184.594 30.5312 185.209 30.5312C185.62 30.5312 185.993 30.474 186.326 30.3594C186.659 30.2396 186.948 30.0651 187.193 29.8359C187.438 29.6068 187.623 29.3229 187.748 28.9844L190.389 29.2812C190.222 29.9792 189.904 30.5885 189.435 31.1094C188.972 31.625 188.378 32.026 187.654 32.3125C186.93 32.5937 186.102 32.7344 185.17 32.7344ZM198.46 16.5H202.007L206.757 28.0937H206.945L211.695 16.5H215.242V32.5H212.46V21.5078H212.312L207.89 32.4531H205.812L201.39 21.4844H201.242V32.5H198.46V16.5ZM221.716 32.7422C220.956 32.7422 220.271 32.6068 219.661 32.3359C219.057 32.0599 218.578 31.6536 218.224 31.1172C217.875 30.5807 217.7 29.9193 217.7 29.1328C217.7 28.4557 217.825 27.8958 218.075 27.4531C218.325 27.0104 218.666 26.6562 219.099 26.3906C219.531 26.125 220.018 25.9245 220.56 25.7891C221.107 25.6484 221.672 25.5469 222.255 25.4844C222.958 25.4115 223.528 25.3464 223.966 25.2891C224.403 25.2266 224.721 25.1328 224.919 25.0078C225.122 24.8776 225.224 24.6771 225.224 24.4062V24.3594C225.224 23.7708 225.049 23.3151 224.7 22.9922C224.351 22.6693 223.849 22.5078 223.193 22.5078C222.5 22.5078 221.95 22.6589 221.544 22.9609C221.143 23.263 220.872 23.6198 220.732 24.0312L218.091 23.6562C218.299 22.9271 218.643 22.3177 219.122 21.8281C219.601 21.3333 220.187 20.9635 220.88 20.7187C221.573 20.4688 222.338 20.3438 223.177 20.3438C223.755 20.3438 224.331 20.4115 224.903 20.5469C225.476 20.6823 226 20.9062 226.474 21.2187C226.948 21.526 227.328 21.9453 227.614 22.4766C227.906 23.0078 228.052 23.6719 228.052 24.4687V32.5H225.333V30.8516H225.239C225.068 31.1849 224.825 31.4974 224.513 31.7891C224.206 32.0755 223.818 32.3073 223.349 32.4844C222.885 32.6563 222.341 32.7422 221.716 32.7422ZM222.45 30.6641C223.018 30.6641 223.51 30.5521 223.927 30.3281C224.344 30.099 224.664 29.7969 224.888 29.4219C225.117 29.0469 225.232 28.638 225.232 28.1953V26.7812C225.143 26.8542 224.992 26.9219 224.778 26.9844C224.57 27.0469 224.336 27.1016 224.075 27.1484C223.815 27.1953 223.557 27.237 223.302 27.2734C223.047 27.3099 222.825 27.3411 222.638 27.3672C222.216 27.4245 221.838 27.5182 221.505 27.6484C221.172 27.7786 220.909 27.9609 220.716 28.1953C220.523 28.4245 220.427 28.7214 220.427 29.0859C220.427 29.6068 220.617 30 220.997 30.2656C221.377 30.5312 221.862 30.6641 222.45 30.6641ZM233.714 25.4687V32.5H230.886V20.5H233.589V22.5391H233.729C234.005 21.8672 234.446 21.3333 235.05 20.9375C235.659 20.5417 236.412 20.3438 237.307 20.3438C238.136 20.3438 238.857 20.5208 239.472 20.875C240.091 21.2292 240.571 21.7422 240.909 22.4141C241.253 23.0859 241.422 23.901 241.417 24.8594V32.5H238.589V25.2969C238.589 24.4948 238.38 23.8672 237.964 23.4141C237.552 22.9609 236.982 22.7344 236.253 22.7344C235.758 22.7344 235.318 22.8437 234.932 23.0625C234.552 23.276 234.253 23.5859 234.034 23.9922C233.821 24.3984 233.714 24.8906 233.714 25.4687ZM244.282 32.5V20.5H247.11V32.5H244.282ZM245.704 18.7969C245.256 18.7969 244.87 18.6484 244.548 18.3516C244.225 18.0495 244.063 17.6875 244.063 17.2656C244.063 16.8385 244.225 16.4766 244.548 16.1797C244.87 15.8776 245.256 15.7266 245.704 15.7266C246.157 15.7266 246.542 15.8776 246.86 16.1797C247.183 16.4766 247.344 16.8385 247.344 17.2656C247.344 17.6875 247.183 18.0495 246.86 18.3516C246.542 18.6484 246.157 18.7969 245.704 18.7969ZM250.008 37V20.5H252.789V22.4844H252.954C253.099 22.1927 253.305 21.8828 253.571 21.5547C253.836 21.2214 254.196 20.9375 254.649 20.7031C255.102 20.4635 255.68 20.3438 256.383 20.3438C257.31 20.3438 258.146 20.5807 258.891 21.0547C259.641 21.5234 260.235 22.2187 260.672 23.1406C261.115 24.0573 261.336 25.1823 261.336 26.5156C261.336 27.8333 261.12 28.9531 260.688 29.875C260.256 30.7969 259.667 31.5 258.922 31.9844C258.177 32.4688 257.334 32.7109 256.391 32.7109C255.704 32.7109 255.133 32.5964 254.68 32.3672C254.227 32.138 253.862 31.862 253.586 31.5391C253.316 31.2109 253.105 30.901 252.954 30.6094H252.836V37H250.008ZM252.782 26.5C252.782 27.276 252.891 27.9557 253.11 28.5391C253.334 29.1224 253.654 29.5781 254.071 29.9062C254.493 30.2292 255.003 30.3906 255.602 30.3906C256.227 30.3906 256.75 30.224 257.172 29.8906C257.594 29.5521 257.912 29.0911 258.125 28.5078C258.344 27.9193 258.454 27.25 258.454 26.5C258.454 25.7552 258.347 25.0937 258.133 24.5156C257.92 23.9375 257.602 23.4844 257.18 23.1562C256.758 22.8281 256.232 22.6641 255.602 22.6641C254.998 22.6641 254.485 22.8229 254.063 23.1406C253.641 23.4583 253.321 23.9036 253.102 24.4766C252.888 25.0495 252.782 25.724 252.782 26.5ZM271.397 27.4531V20.5H274.225V32.5H271.483V30.3672H271.358C271.087 31.0391 270.641 31.5885 270.022 32.0156C269.407 32.4427 268.649 32.6563 267.748 32.6563C266.962 32.6563 266.266 32.4818 265.662 32.1328C265.063 31.7786 264.595 31.2656 264.256 30.5938C263.917 29.9167 263.748 29.099 263.748 28.1406V20.5H266.576V27.7031C266.576 28.4635 266.785 29.0677 267.201 29.5156C267.618 29.9635 268.165 30.1875 268.842 30.1875C269.259 30.1875 269.662 30.0859 270.053 29.8828C270.444 29.6797 270.764 29.3776 271.014 28.9766C271.269 28.5703 271.397 28.0625 271.397 27.4531ZM279.951 16.5V32.5H277.123V16.5H279.951ZM286.302 32.7422C285.542 32.7422 284.857 32.6068 284.248 32.3359C283.644 32.0599 283.164 31.6536 282.81 31.1172C282.461 30.5807 282.287 29.9193 282.287 29.1328C282.287 28.4557 282.412 27.8958 282.662 27.4531C282.912 27.0104 283.253 26.6562 283.685 26.3906C284.118 26.125 284.605 25.9245 285.146 25.7891C285.693 25.6484 286.258 25.5469 286.841 25.4844C287.545 25.4115 288.115 25.3464 288.552 25.2891C288.99 25.2266 289.308 25.1328 289.506 25.0078C289.709 24.8776 289.81 24.6771 289.81 24.4062V24.3594C289.81 23.7708 289.636 23.3151 289.287 22.9922C288.938 22.6693 288.435 22.5078 287.779 22.5078C287.086 22.5078 286.537 22.6589 286.131 22.9609C285.73 23.263 285.459 23.6198 285.318 24.0312L282.677 23.6562C282.886 22.9271 283.23 22.3177 283.709 21.8281C284.188 21.3333 284.774 20.9635 285.466 20.7187C286.159 20.4688 286.925 20.3438 287.763 20.3438C288.341 20.3438 288.917 20.4115 289.49 20.5469C290.063 20.6823 290.586 20.9062 291.06 21.2187C291.534 21.526 291.914 21.9453 292.201 22.4766C292.493 23.0078 292.638 23.6719 292.638 24.4687V32.5H289.92V30.8516H289.826C289.654 31.1849 289.412 31.4974 289.099 31.7891C288.792 32.0755 288.404 32.3073 287.935 32.4844C287.472 32.6563 286.927 32.7422 286.302 32.7422ZM287.037 30.6641C287.605 30.6641 288.097 30.5521 288.513 30.3281C288.93 30.099 289.25 29.7969 289.474 29.4219C289.703 29.0469 289.818 28.638 289.818 28.1953V26.7812C289.73 26.8542 289.578 26.9219 289.365 26.9844C289.157 27.0469 288.922 27.1016 288.662 27.1484C288.401 27.1953 288.144 27.237 287.888 27.2734C287.633 27.3099 287.412 27.3411 287.224 27.3672C286.802 27.4245 286.425 27.5182 286.091 27.6484C285.758 27.7786 285.495 27.9609 285.302 28.1953C285.11 28.4245 285.013 28.7214 285.013 29.0859C285.013 29.6068 285.203 30 285.584 30.2656C285.964 30.5312 286.448 30.6641 287.037 30.6641ZM301.464 20.5V22.6875H294.566V20.5H301.464ZM296.269 17.625H299.097V28.8906C299.097 29.2708 299.154 29.5625 299.269 29.7656C299.389 29.9635 299.545 30.099 299.738 30.1719C299.93 30.2448 300.144 30.2812 300.378 30.2812C300.555 30.2812 300.717 30.2682 300.863 30.2422C301.014 30.2161 301.128 30.1927 301.206 30.1719L301.683 32.3828C301.532 32.4349 301.316 32.4922 301.035 32.5547C300.759 32.6172 300.42 32.6536 300.019 32.6641C299.311 32.6849 298.673 32.5781 298.105 32.3437C297.537 32.1042 297.087 31.7344 296.753 31.2344C296.425 30.7344 296.264 30.1094 296.269 29.3594V17.625ZM308.925 32.7344C307.753 32.7344 306.738 32.4766 305.878 31.9609C305.019 31.4453 304.352 30.724 303.878 29.7969C303.409 28.8698 303.175 27.7865 303.175 26.5469C303.175 25.3073 303.409 24.2214 303.878 23.2891C304.352 22.3568 305.019 21.6328 305.878 21.1172C306.738 20.6016 307.753 20.3438 308.925 20.3438C310.097 20.3438 311.113 20.6016 311.972 21.1172C312.831 21.6328 313.495 22.3568 313.964 23.2891C314.438 24.2214 314.675 25.3073 314.675 26.5469C314.675 27.7865 314.438 28.8698 313.964 29.7969C313.495 30.724 312.831 31.4453 311.972 31.9609C311.113 32.4766 310.097 32.7344 308.925 32.7344ZM308.941 30.4687C309.576 30.4687 310.107 30.2943 310.534 29.9453C310.961 29.5911 311.279 29.1172 311.488 28.5234C311.701 27.9297 311.808 27.2682 311.808 26.5391C311.808 25.8047 311.701 25.1406 311.488 24.5469C311.279 23.9479 310.961 23.4714 310.534 23.1172C310.107 22.763 309.576 22.5859 308.941 22.5859C308.29 22.5859 307.748 22.763 307.316 23.1172C306.889 23.4714 306.568 23.9479 306.355 24.5469C306.146 25.1406 306.042 25.8047 306.042 26.5391C306.042 27.2682 306.146 27.9297 306.355 28.5234C306.568 29.1172 306.889 29.5911 307.316 29.9453C307.748 30.2943 308.29 30.4687 308.941 30.4687ZM317.065 32.5V20.5H319.808V22.5H319.933C320.151 21.8073 320.526 21.2734 321.058 20.8984C321.594 20.5182 322.206 20.3281 322.894 20.3281C323.05 20.3281 323.224 20.3359 323.417 20.3516C323.615 20.362 323.779 20.3802 323.909 20.4062V23.0078C323.789 22.9661 323.599 22.9297 323.339 22.8984C323.084 22.862 322.836 22.8437 322.597 22.8437C322.081 22.8437 321.617 22.9557 321.206 23.1797C320.8 23.3984 320.479 23.7031 320.245 24.0937C320.011 24.4844 319.894 24.9349 319.894 25.4453V32.5H317.065Z" fill="#E03177"/>
<defs>
<radialGradient id="paint0_radial_45_299" cx="0" cy="0" r="1" gradientUnits="userSpaceOnUse" gradientTransform="translate(4 4) rotate(90) scale(32)">
<stop stop-color="white"/>
<stop offset="1" stop-color="white" stop-opacity="0"/>
</radialGradient>
<clipPath id="clip0_45_299">
<rect width="48" height="48" rx="10" fill="white"/>
</clipPath>
</defs>
</svg>
