<svg width="219" height="48" viewBox="0 0 219 48" fill="none" xmlns="http://www.w3.org/2000/svg">
<g clip-path="url(#clip0_16_61)">
<rect width="48" height="48" rx="10" fill="#3A5CCC"/>
<g opacity="0.4">
<rect x="-28" y="-28" width="64" height="64" rx="10" fill="url(#paint0_radial_16_61)"/>
</g>
<path opacity="0.4" d="M17 26.2864C15.1486 27.1031 14 28.2412 14 29.5C14 31.9853 18.4772 34 24 34C29.5228 34 34 31.9853 34 29.5C34 28.2412 32.8514 27.1031 31 26.2864" stroke="white" stroke-width="2" stroke-linecap="round" stroke-linejoin="round"/>
<path d="M24 29C25.5 26 30 24.0637 30 20C30 16.6863 27.3137 14 24 14C20.6863 14 18 16.6863 18 20C18 24.0637 22.5 26 24 29Z" stroke="white" stroke-width="2" stroke-linecap="round" stroke-linejoin="round"/>
<path d="M24 21C24.5523 21 25 20.5523 25 20C25 19.4477 24.5523 19 24 19C23.4477 19 23 19.4477 23 20C23 20.5523 23.4477 21 24 21Z" stroke="white" stroke-width="2" stroke-linecap="round" stroke-linejoin="round"/>
</g>
<path d="M69.5781 32.5V16.5H79.9844V18.9297H72.4766V23.2734H79.4453V25.7031H72.4766V30.0703H80.0469V32.5H69.5781ZM85.1189 20.5L87.5408 24.9297L90.0017 20.5H92.9939L89.3767 26.5L93.0564 32.5H90.0798L87.5408 28.1797L85.0252 32.5H82.0252L85.6814 26.5L82.1189 20.5H85.1189ZM95.1714 37V20.5H97.9527V22.4844H98.1167C98.2626 22.1927 98.4683 21.8828 98.7339 21.5547C98.9995 21.2214 99.3589 20.9375 99.812 20.7031C100.265 20.4635 100.843 20.3438 101.546 20.3438C102.473 20.3438 103.309 20.5807 104.054 21.0547C104.804 21.5234 105.398 22.2187 105.835 23.1406C106.278 24.0573 106.5 25.1823 106.5 26.5156C106.5 27.8333 106.283 28.9531 105.851 29.875C105.419 30.7969 104.83 31.5 104.085 31.9844C103.341 32.4688 102.497 32.7109 101.554 32.7109C100.867 32.7109 100.296 32.5964 99.8433 32.3672C99.3902 32.138 99.0256 31.862 98.7495 31.5391C98.4787 31.2109 98.2678 30.901 98.1167 30.6094H97.9995V37H95.1714ZM97.9448 26.5C97.9448 27.276 98.0542 27.9557 98.273 28.5391C98.4969 29.1224 98.8172 29.5781 99.2339 29.9062C99.6558 30.2292 100.166 30.3906 100.765 30.3906C101.39 30.3906 101.914 30.224 102.335 29.8906C102.757 29.5521 103.075 29.0911 103.289 28.5078C103.507 27.9193 103.617 27.25 103.617 26.5C103.617 25.7552 103.51 25.0937 103.296 24.5156C103.083 23.9375 102.765 23.4844 102.343 23.1562C101.921 22.8281 101.395 22.6641 100.765 22.6641C100.161 22.6641 99.648 22.8229 99.2261 23.1406C98.8042 23.4583 98.4839 23.9036 98.2652 24.4766C98.0516 25.0495 97.9448 25.724 97.9448 26.5ZM114.146 32.7344C112.974 32.7344 111.958 32.4766 111.099 31.9609C110.24 31.4453 109.573 30.724 109.099 29.7969C108.63 28.8698 108.396 27.7865 108.396 26.5469C108.396 25.3073 108.63 24.2214 109.099 23.2891C109.573 22.3568 110.24 21.6328 111.099 21.1172C111.958 20.6016 112.974 20.3438 114.146 20.3438C115.318 20.3438 116.333 20.6016 117.193 21.1172C118.052 21.6328 118.716 22.3568 119.185 23.2891C119.659 24.2214 119.896 25.3073 119.896 26.5469C119.896 27.7865 119.659 28.8698 119.185 29.7969C118.716 30.724 118.052 31.4453 117.193 31.9609C116.333 32.4766 115.318 32.7344 114.146 32.7344ZM114.161 30.4687C114.797 30.4687 115.328 30.2943 115.755 29.9453C116.182 29.5911 116.5 29.1172 116.708 28.5234C116.922 27.9297 117.029 27.2682 117.029 26.5391C117.029 25.8047 116.922 25.1406 116.708 24.5469C116.5 23.9479 116.182 23.4714 115.755 23.1172C115.328 22.763 114.797 22.5859 114.161 22.5859C113.51 22.5859 112.969 22.763 112.536 23.1172C112.109 23.4714 111.789 23.9479 111.575 24.5469C111.367 25.1406 111.263 25.8047 111.263 26.5391C111.263 27.2682 111.367 27.9297 111.575 28.5234C111.789 29.1172 112.109 29.5911 112.536 29.9453C112.969 30.2943 113.51 30.4687 114.161 30.4687ZM127.858 32.5V16.5H130.757V30.0703H137.804V32.5H127.858ZM145.419 32.7344C144.247 32.7344 143.231 32.4766 142.372 31.9609C141.512 31.4453 140.846 30.724 140.372 29.7969C139.903 28.8698 139.669 27.7865 139.669 26.5469C139.669 25.3073 139.903 24.2214 140.372 23.2891C140.846 22.3568 141.512 21.6328 142.372 21.1172C143.231 20.6016 144.247 20.3438 145.419 20.3438C146.59 20.3438 147.606 20.6016 148.465 21.1172C149.325 21.6328 149.989 22.3568 150.458 23.2891C150.932 24.2214 151.169 25.3073 151.169 26.5469C151.169 27.7865 150.932 28.8698 150.458 29.7969C149.989 30.724 149.325 31.4453 148.465 31.9609C147.606 32.4766 146.59 32.7344 145.419 32.7344ZM145.434 30.4687C146.07 30.4687 146.601 30.2943 147.028 29.9453C147.455 29.5911 147.773 29.1172 147.981 28.5234C148.195 27.9297 148.301 27.2682 148.301 26.5391C148.301 25.8047 148.195 25.1406 147.981 24.5469C147.773 23.9479 147.455 23.4714 147.028 23.1172C146.601 22.763 146.07 22.5859 145.434 22.5859C144.783 22.5859 144.241 22.763 143.809 23.1172C143.382 23.4714 143.062 23.9479 142.848 24.5469C142.64 25.1406 142.536 25.8047 142.536 26.5391C142.536 27.2682 142.64 27.9297 142.848 28.5234C143.062 29.1172 143.382 29.5911 143.809 29.9453C144.241 30.2943 144.783 30.4687 145.434 30.4687ZM158.793 32.7344C157.595 32.7344 156.567 32.4714 155.707 31.9453C154.853 31.4193 154.194 30.6927 153.731 29.7656C153.272 28.8333 153.043 27.7604 153.043 26.5469C153.043 25.3281 153.278 24.2526 153.746 23.3203C154.215 22.3828 154.877 21.6536 155.731 21.1328C156.59 20.6068 157.606 20.3438 158.778 20.3438C159.752 20.3438 160.614 20.5234 161.364 20.8828C162.119 21.237 162.72 21.7396 163.168 22.3906C163.616 23.0365 163.871 23.7917 163.934 24.6562H161.231C161.121 24.0781 160.861 23.5964 160.45 23.2109C160.043 22.8203 159.499 22.625 158.817 22.625C158.239 22.625 157.731 22.7812 157.293 23.0937C156.856 23.401 156.515 23.8437 156.27 24.4219C156.03 25 155.91 25.6927 155.91 26.5C155.91 27.3177 156.03 28.0208 156.27 28.6094C156.509 29.1927 156.845 29.6432 157.278 29.9609C157.715 30.2734 158.228 30.4297 158.817 30.4297C159.233 30.4297 159.606 30.3516 159.934 30.1953C160.267 30.0339 160.546 29.8021 160.77 29.5C160.994 29.1979 161.147 28.8307 161.231 28.3984H163.934C163.866 29.2474 163.616 30 163.184 30.6562C162.752 31.3073 162.163 31.8177 161.418 32.1875C160.673 32.5521 159.798 32.7344 158.793 32.7344ZM169.699 32.7422C168.939 32.7422 168.254 32.6068 167.645 32.3359C167.04 32.0599 166.561 31.6536 166.207 31.1172C165.858 30.5807 165.684 29.9193 165.684 29.1328C165.684 28.4557 165.809 27.8958 166.059 27.4531C166.309 27.0104 166.65 26.6562 167.082 26.3906C167.514 26.125 168.001 25.9245 168.543 25.7891C169.09 25.6484 169.655 25.5469 170.238 25.4844C170.941 25.4115 171.512 25.3464 171.949 25.2891C172.387 25.2266 172.705 25.1328 172.902 25.0078C173.106 24.8776 173.207 24.6771 173.207 24.4062V24.3594C173.207 23.7708 173.033 23.3151 172.684 22.9922C172.335 22.6693 171.832 22.5078 171.176 22.5078C170.483 22.5078 169.934 22.6589 169.527 22.9609C169.126 23.263 168.856 23.6198 168.715 24.0312L166.074 23.6562C166.283 22.9271 166.626 22.3177 167.106 21.8281C167.585 21.3333 168.171 20.9635 168.863 20.7187C169.556 20.4688 170.322 20.3438 171.16 20.3438C171.738 20.3438 172.314 20.4115 172.887 20.5469C173.46 20.6823 173.983 20.9062 174.457 21.2187C174.931 21.526 175.311 21.9453 175.598 22.4766C175.889 23.0078 176.035 23.6719 176.035 24.4687V32.5H173.316V30.8516H173.223C173.051 31.1849 172.809 31.4974 172.496 31.7891C172.189 32.0755 171.801 32.3073 171.332 32.4844C170.869 32.6563 170.324 32.7422 169.699 32.7422ZM170.434 30.6641C171.001 30.6641 171.494 30.5521 171.91 30.3281C172.327 30.099 172.647 29.7969 172.871 29.4219C173.1 29.0469 173.215 28.638 173.215 28.1953V26.7812C173.126 26.8542 172.975 26.9219 172.762 26.9844C172.553 27.0469 172.319 27.1016 172.059 27.1484C171.798 27.1953 171.54 27.237 171.285 27.2734C171.03 27.3099 170.809 27.3411 170.621 27.3672C170.199 27.4245 169.822 27.5182 169.488 27.6484C169.155 27.7786 168.892 27.9609 168.699 28.1953C168.507 28.4245 168.41 28.7214 168.41 29.0859C168.41 29.6068 168.6 30 168.981 30.2656C169.361 30.5312 169.845 30.6641 170.434 30.6641ZM184.861 20.5V22.6875H177.963V20.5H184.861ZM179.666 17.625H182.494V28.8906C182.494 29.2708 182.551 29.5625 182.666 29.7656C182.786 29.9635 182.942 30.099 183.135 30.1719C183.327 30.2448 183.541 30.2812 183.775 30.2812C183.952 30.2812 184.114 30.2682 184.26 30.2422C184.411 30.2161 184.525 30.1927 184.603 30.1719L185.08 32.3828C184.929 32.4349 184.713 32.4922 184.431 32.5547C184.155 32.6172 183.817 32.6536 183.416 32.6641C182.708 32.6849 182.07 32.5781 181.502 32.3437C180.934 32.1042 180.484 31.7344 180.15 31.2344C179.822 30.7344 179.661 30.1094 179.666 29.3594V17.625ZM187.216 32.5V20.5H190.045V32.5H187.216ZM188.638 18.7969C188.19 18.7969 187.805 18.6484 187.482 18.3516C187.159 18.0495 186.998 17.6875 186.998 17.2656C186.998 16.8385 187.159 16.4766 187.482 16.1797C187.805 15.8776 188.19 15.7266 188.638 15.7266C189.091 15.7266 189.477 15.8776 189.795 16.1797C190.117 16.4766 190.279 16.8385 190.279 17.2656C190.279 17.6875 190.117 18.0495 189.795 18.3516C189.477 18.6484 189.091 18.7969 188.638 18.7969ZM198.177 32.7344C197.005 32.7344 195.99 32.4766 195.13 31.9609C194.271 31.4453 193.604 30.724 193.13 29.7969C192.661 28.8698 192.427 27.7865 192.427 26.5469C192.427 25.3073 192.661 24.2214 193.13 23.2891C193.604 22.3568 194.271 21.6328 195.13 21.1172C195.99 20.6016 197.005 20.3438 198.177 20.3438C199.349 20.3438 200.365 20.6016 201.224 21.1172C202.083 21.6328 202.747 22.3568 203.216 23.2891C203.69 24.2214 203.927 25.3073 203.927 26.5469C203.927 27.7865 203.69 28.8698 203.216 29.7969C202.747 30.724 202.083 31.4453 201.224 31.9609C200.365 32.4766 199.349 32.7344 198.177 32.7344ZM198.193 30.4687C198.828 30.4687 199.359 30.2943 199.786 29.9453C200.214 29.5911 200.531 29.1172 200.74 28.5234C200.953 27.9297 201.06 27.2682 201.06 26.5391C201.06 25.8047 200.953 25.1406 200.74 24.5469C200.531 23.9479 200.214 23.4714 199.786 23.1172C199.359 22.763 198.828 22.5859 198.193 22.5859C197.542 22.5859 197 22.763 196.568 23.1172C196.141 23.4714 195.82 23.9479 195.607 24.5469C195.398 25.1406 195.294 25.8047 195.294 26.5391C195.294 27.2682 195.398 27.9297 195.607 28.5234C195.82 29.1172 196.141 29.5911 196.568 29.9453C197 30.2943 197.542 30.4687 198.193 30.4687ZM209.146 25.4687V32.5H206.318V20.5H209.021V22.5391H209.161C209.437 21.8672 209.877 21.3333 210.482 20.9375C211.091 20.5417 211.844 20.3438 212.739 20.3438C213.568 20.3438 214.289 20.5208 214.903 20.875C215.523 21.2292 216.002 21.7422 216.341 22.4141C216.685 23.0859 216.854 23.901 216.849 24.8594V32.5H214.021V25.2969C214.021 24.4948 213.812 23.8672 213.396 23.4141C212.984 22.9609 212.414 22.7344 211.685 22.7344C211.19 22.7344 210.75 22.8437 210.364 23.0625C209.984 23.276 209.685 23.5859 209.466 23.9922C209.252 24.3984 209.146 24.8906 209.146 25.4687Z" fill="#3A5CCC"/>
<defs>
<radialGradient id="paint0_radial_16_61" cx="0" cy="0" r="1" gradientUnits="userSpaceOnUse" gradientTransform="translate(4 4) rotate(90) scale(32)">
<stop stop-color="white"/>
<stop offset="1" stop-color="white" stop-opacity="0"/>
</radialGradient>
<clipPath id="clip0_16_61">
<rect width="48" height="48" rx="10" fill="white"/>
</clipPath>
</defs>
</svg>
