<svg width="185" height="48" viewBox="0 0 185 48" fill="none" xmlns="http://www.w3.org/2000/svg">
<g clip-path="url(#clip0_566_121)">
<rect width="48" height="48" rx="10" fill="#0091FF"/>
<g opacity="0.4">
<rect x="-28" y="-28" width="64" height="64" rx="10" fill="url(#paint0_radial_566_121)"/>
</g>
<path opacity="0.4" d="M14.6868 27.6451L16.595 26.5435C16.6983 26.4839 16.8196 26.4631 16.9369 26.4851L20.6914 27.1878C21 27.2455 21.2848 27.008 21.2834 26.6941L21.2688 23.4045C21.2684 23.3151 21.292 23.2272 21.337 23.15L23.2318 19.9062C23.3304 19.7374 23.3215 19.5266 23.2091 19.3666L20.0189 14.8257M33.9877 24.5C33.9877 24.5 31.3773 24.4384 29.5002 23.5C28.5001 23 25.5002 19.5 31.0002 16.8591" stroke="white" stroke-width="2" stroke-linecap="round" stroke-linejoin="round"/>
<path d="M24.5 33.9877C24.3344 33.9959 24.1677 34 24 34C18.4772 34 14 29.5228 14 24C14 18.4772 18.4772 14 24 14C29.5228 14 34 18.4772 34 24C34 24.1677 33.9959 24.3344 33.9877 24.5M28.7578 33.9398L25.591 25.591L33.9398 28.7578L30.2376 30.2376L28.7578 33.9398Z" stroke="white" stroke-width="2" stroke-linecap="round" stroke-linejoin="round"/>
</g>
<path d="M69.5781 32.5V16.5H79.9844V18.9297H72.4766V23.2734H79.4453V25.7031H72.4766V30.0703H80.0469V32.5H69.5781ZM85.1189 20.5L87.5408 24.9297L90.0017 20.5H92.9939L89.3767 26.5L93.0564 32.5H90.0798L87.5408 28.1797L85.0252 32.5H82.0252L85.6814 26.5L82.1189 20.5H85.1189ZM95.1714 37V20.5H97.9527V22.4844H98.1167C98.2626 22.1927 98.4683 21.8828 98.7339 21.5547C98.9995 21.2214 99.3589 20.9375 99.812 20.7031C100.265 20.4635 100.843 20.3438 101.546 20.3438C102.473 20.3438 103.309 20.5807 104.054 21.0547C104.804 21.5234 105.398 22.2187 105.835 23.1406C106.278 24.0573 106.5 25.1823 106.5 26.5156C106.5 27.8333 106.283 28.9531 105.851 29.875C105.419 30.7969 104.83 31.5 104.085 31.9844C103.341 32.4688 102.497 32.7109 101.554 32.7109C100.867 32.7109 100.296 32.5964 99.8433 32.3672C99.3902 32.138 99.0256 31.862 98.7495 31.5391C98.4787 31.2109 98.2678 30.901 98.1167 30.6094H97.9995V37H95.1714ZM97.9448 26.5C97.9448 27.276 98.0542 27.9557 98.273 28.5391C98.4969 29.1224 98.8172 29.5781 99.2339 29.9062C99.6558 30.2292 100.166 30.3906 100.765 30.3906C101.39 30.3906 101.914 30.224 102.335 29.8906C102.757 29.5521 103.075 29.0911 103.289 28.5078C103.507 27.9193 103.617 27.25 103.617 26.5C103.617 25.7552 103.51 25.0937 103.296 24.5156C103.083 23.9375 102.765 23.4844 102.343 23.1562C101.921 22.8281 101.395 22.6641 100.765 22.6641C100.161 22.6641 99.648 22.8229 99.2261 23.1406C98.8042 23.4583 98.4839 23.9036 98.2652 24.4766C98.0516 25.0495 97.9448 25.724 97.9448 26.5ZM114.146 32.7344C112.974 32.7344 111.958 32.4766 111.099 31.9609C110.24 31.4453 109.573 30.724 109.099 29.7969C108.63 28.8698 108.396 27.7865 108.396 26.5469C108.396 25.3073 108.63 24.2214 109.099 23.2891C109.573 22.3568 110.24 21.6328 111.099 21.1172C111.958 20.6016 112.974 20.3438 114.146 20.3438C115.318 20.3438 116.333 20.6016 117.193 21.1172C118.052 21.6328 118.716 22.3568 119.185 23.2891C119.659 24.2214 119.896 25.3073 119.896 26.5469C119.896 27.7865 119.659 28.8698 119.185 29.7969C118.716 30.724 118.052 31.4453 117.193 31.9609C116.333 32.4766 115.318 32.7344 114.146 32.7344ZM114.161 30.4687C114.797 30.4687 115.328 30.2943 115.755 29.9453C116.182 29.5911 116.5 29.1172 116.708 28.5234C116.922 27.9297 117.029 27.2682 117.029 26.5391C117.029 25.8047 116.922 25.1406 116.708 24.5469C116.5 23.9479 116.182 23.4714 115.755 23.1172C115.328 22.763 114.797 22.5859 114.161 22.5859C113.51 22.5859 112.969 22.763 112.536 23.1172C112.109 23.4714 111.789 23.9479 111.575 24.5469C111.367 25.1406 111.263 25.8047 111.263 26.5391C111.263 27.2682 111.367 27.9297 111.575 28.5234C111.789 29.1172 112.109 29.5911 112.536 29.9453C112.969 30.2943 113.51 30.4687 114.161 30.4687ZM127.858 16.5H131.405L136.155 28.0937H136.343L141.093 16.5H144.639V32.5H141.858V21.5078H141.71L137.288 32.4531H135.21L130.788 21.4844H130.639V32.5H127.858V16.5ZM151.114 32.7422C150.353 32.7422 149.669 32.6068 149.059 32.3359C148.455 32.0599 147.976 31.6536 147.622 31.1172C147.273 30.5807 147.098 29.9193 147.098 29.1328C147.098 28.4557 147.223 27.8958 147.473 27.4531C147.723 27.0104 148.064 26.6562 148.497 26.3906C148.929 26.125 149.416 25.9245 149.958 25.7891C150.504 25.6484 151.07 25.5469 151.653 25.4844C152.356 25.4115 152.926 25.3464 153.364 25.2891C153.801 25.2266 154.119 25.1328 154.317 25.0078C154.52 24.8776 154.622 24.6771 154.622 24.4062V24.3594C154.622 23.7708 154.447 23.3151 154.098 22.9922C153.749 22.6693 153.247 22.5078 152.59 22.5078C151.898 22.5078 151.348 22.6589 150.942 22.9609C150.541 23.263 150.27 23.6198 150.129 24.0312L147.489 23.6562C147.697 22.9271 148.041 22.3177 148.52 21.8281C148.999 21.3333 149.585 20.9635 150.278 20.7187C150.971 20.4688 151.736 20.3438 152.575 20.3438C153.153 20.3438 153.728 20.4115 154.301 20.5469C154.874 20.6823 155.398 20.9062 155.872 21.2187C156.346 21.526 156.726 21.9453 157.012 22.4766C157.304 23.0078 157.45 23.6719 157.45 24.4687V32.5H154.731V30.8516H154.637C154.465 31.1849 154.223 31.4974 153.911 31.7891C153.603 32.0755 153.215 32.3073 152.747 32.4844C152.283 32.6563 151.739 32.7422 151.114 32.7422ZM151.848 30.6641C152.416 30.6641 152.908 30.5521 153.325 30.3281C153.741 30.099 154.062 29.7969 154.286 29.4219C154.515 29.0469 154.629 28.638 154.629 28.1953V26.7812C154.541 26.8542 154.39 26.9219 154.176 26.9844C153.968 27.0469 153.734 27.1016 153.473 27.1484C153.213 27.1953 152.955 27.237 152.7 27.2734C152.445 27.3099 152.223 27.3411 152.036 27.3672C151.614 27.4245 151.236 27.5182 150.903 27.6484C150.57 27.7786 150.307 27.9609 150.114 28.1953C149.921 28.4245 149.825 28.7214 149.825 29.0859C149.825 29.6068 150.015 30 150.395 30.2656C150.775 30.5312 151.26 30.6641 151.848 30.6641ZM160.284 37V20.5H163.065V22.4844H163.229C163.375 22.1927 163.58 21.8828 163.846 21.5547C164.112 21.2214 164.471 20.9375 164.924 20.7031C165.377 20.4635 165.955 20.3438 166.659 20.3438C167.586 20.3438 168.422 20.5807 169.166 21.0547C169.916 21.5234 170.51 22.2187 170.948 23.1406C171.39 24.0573 171.612 25.1823 171.612 26.5156C171.612 27.8333 171.395 28.9531 170.963 29.875C170.531 30.7969 169.942 31.5 169.198 31.9844C168.453 32.4688 167.609 32.7109 166.666 32.7109C165.979 32.7109 165.409 32.5964 164.955 32.3672C164.502 32.138 164.138 31.862 163.862 31.5391C163.591 31.2109 163.38 30.901 163.229 30.6094H163.112V37H160.284ZM163.057 26.5C163.057 27.276 163.166 27.9557 163.385 28.5391C163.609 29.1224 163.929 29.5781 164.346 29.9062C164.768 30.2292 165.278 30.3906 165.877 30.3906C166.502 30.3906 167.026 30.224 167.448 29.8906C167.869 29.5521 168.187 29.0911 168.401 28.5078C168.619 27.9193 168.729 27.25 168.729 26.5C168.729 25.7552 168.622 25.0937 168.409 24.5156C168.195 23.9375 167.877 23.4844 167.455 23.1562C167.034 22.8281 166.507 22.6641 165.877 22.6641C165.273 22.6641 164.76 22.8229 164.338 23.1406C163.916 23.4583 163.596 23.9036 163.377 24.4766C163.164 25.0495 163.057 25.724 163.057 26.5ZM183.508 23.6719L180.93 23.9531C180.857 23.6927 180.729 23.4479 180.547 23.2188C180.37 22.9896 180.13 22.8047 179.828 22.6641C179.526 22.5234 179.156 22.4531 178.719 22.4531C178.13 22.4531 177.635 22.5807 177.234 22.8359C176.839 23.0911 176.643 23.4219 176.649 23.8281C176.643 24.1771 176.771 24.4609 177.031 24.6797C177.297 24.8984 177.734 25.0781 178.344 25.2188L180.391 25.6562C181.526 25.901 182.37 26.2891 182.922 26.8203C183.479 27.3516 183.76 28.0469 183.766 28.9062C183.76 29.6615 183.539 30.3281 183.102 30.9062C182.669 31.4792 182.068 31.9271 181.297 32.25C180.526 32.5729 179.641 32.7344 178.641 32.7344C177.172 32.7344 175.99 32.4271 175.094 31.8125C174.198 31.1927 173.664 30.3307 173.492 29.2266L176.25 28.9609C176.375 29.5026 176.641 29.9115 177.047 30.1875C177.453 30.4635 177.982 30.6016 178.633 30.6016C179.305 30.6016 179.844 30.4635 180.25 30.1875C180.662 29.9115 180.867 29.5703 180.867 29.1641C180.867 28.8203 180.734 28.5365 180.469 28.3125C180.208 28.0885 179.802 27.9167 179.25 27.7969L177.203 27.3672C176.052 27.1276 175.201 26.724 174.649 26.1562C174.096 25.5833 173.823 24.8594 173.828 23.9844C173.823 23.2448 174.024 22.6042 174.43 22.0625C174.841 21.5156 175.412 21.0937 176.141 20.7969C176.875 20.4948 177.721 20.3438 178.68 20.3438C180.086 20.3438 181.193 20.6432 182 21.2422C182.813 21.8411 183.315 22.651 183.508 23.6719Z" fill="#0091FF"/>
<defs>
<radialGradient id="paint0_radial_566_121" cx="0" cy="0" r="1" gradientUnits="userSpaceOnUse" gradientTransform="translate(4 4) rotate(90) scale(32)">
<stop stop-color="white"/>
<stop offset="1" stop-color="white" stop-opacity="0"/>
</radialGradient>
<clipPath id="clip0_566_121">
<rect width="48" height="48" rx="10" fill="white"/>
</clipPath>
</defs>
</svg>
