<svg width="224" height="48" viewBox="0 0 224 48" fill="none" xmlns="http://www.w3.org/2000/svg">
<g clip-path="url(#clip0_105_81)">
<rect width="48" height="48" rx="10" fill="#9C2BAD"/>
<g opacity="0.4">
<rect x="-28" y="-28" width="64" height="64" rx="10" fill="url(#paint0_radial_105_81)"/>
</g>
<path opacity="0.4" d="M34 33V31C34 29.1362 32.7252 27.5701 31 27.126M27.5 15.2908C28.9659 15.8842 30 17.3213 30 19C30 20.6787 28.9659 22.1159 27.5 22.7093" stroke="white" stroke-width="2" stroke-linecap="round" stroke-linejoin="round"/>
<path d="M29 33C29 31.1362 29 30.2044 28.6955 29.4693C28.2895 28.4892 27.5108 27.7105 26.5307 27.3045C25.7956 27 24.8638 27 23 27H20C18.1362 27 17.2044 27 16.4693 27.3045C15.4892 27.7105 14.7105 28.4892 14.3045 29.4693C14 30.2044 14 31.1362 14 33M25.5 19C25.5 21.2091 23.7091 23 21.5 23C19.2909 23 17.5 21.2091 17.5 19C17.5 16.7909 19.2909 15 21.5 15C23.7091 15 25.5 16.7909 25.5 19Z" stroke="white" stroke-width="2" stroke-linecap="round" stroke-linejoin="round"/>
</g>
<path d="M69.5781 32.5V16.5H79.9844V18.9297H72.4766V23.2734H79.4453V25.7031H72.4766V30.0703H80.0469V32.5H69.5781ZM85.1189 20.5L87.5408 24.9297L90.0017 20.5H92.9939L89.3767 26.5L93.0564 32.5H90.0798L87.5408 28.1797L85.0252 32.5H82.0252L85.6814 26.5L82.1189 20.5H85.1189ZM95.1714 37V20.5H97.9527V22.4844H98.1167C98.2626 22.1927 98.4683 21.8828 98.7339 21.5547C98.9995 21.2214 99.3589 20.9375 99.812 20.7031C100.265 20.4635 100.843 20.3438 101.546 20.3438C102.473 20.3438 103.309 20.5807 104.054 21.0547C104.804 21.5234 105.398 22.2187 105.835 23.1406C106.278 24.0573 106.5 25.1823 106.5 26.5156C106.5 27.8333 106.283 28.9531 105.851 29.875C105.419 30.7969 104.83 31.5 104.085 31.9844C103.341 32.4688 102.497 32.7109 101.554 32.7109C100.867 32.7109 100.296 32.5964 99.8433 32.3672C99.3902 32.138 99.0256 31.862 98.7495 31.5391C98.4787 31.2109 98.2678 30.901 98.1167 30.6094H97.9995V37H95.1714ZM97.9448 26.5C97.9448 27.276 98.0542 27.9557 98.273 28.5391C98.4969 29.1224 98.8172 29.5781 99.2339 29.9062C99.6558 30.2292 100.166 30.3906 100.765 30.3906C101.39 30.3906 101.914 30.224 102.335 29.8906C102.757 29.5521 103.075 29.0911 103.289 28.5078C103.507 27.9193 103.617 27.25 103.617 26.5C103.617 25.7552 103.51 25.0937 103.296 24.5156C103.083 23.9375 102.765 23.4844 102.343 23.1562C101.921 22.8281 101.395 22.6641 100.765 22.6641C100.161 22.6641 99.648 22.8229 99.2261 23.1406C98.8042 23.4583 98.4839 23.9036 98.2652 24.4766C98.0516 25.0495 97.9448 25.724 97.9448 26.5ZM114.146 32.7344C112.974 32.7344 111.958 32.4766 111.099 31.9609C110.24 31.4453 109.573 30.724 109.099 29.7969C108.63 28.8698 108.396 27.7865 108.396 26.5469C108.396 25.3073 108.63 24.2214 109.099 23.2891C109.573 22.3568 110.24 21.6328 111.099 21.1172C111.958 20.6016 112.974 20.3438 114.146 20.3438C115.318 20.3438 116.333 20.6016 117.193 21.1172C118.052 21.6328 118.716 22.3568 119.185 23.2891C119.659 24.2214 119.896 25.3073 119.896 26.5469C119.896 27.7865 119.659 28.8698 119.185 29.7969C118.716 30.724 118.052 31.4453 117.193 31.9609C116.333 32.4766 115.318 32.7344 114.146 32.7344ZM114.161 30.4687C114.797 30.4687 115.328 30.2943 115.755 29.9453C116.182 29.5911 116.5 29.1172 116.708 28.5234C116.922 27.9297 117.029 27.2682 117.029 26.5391C117.029 25.8047 116.922 25.1406 116.708 24.5469C116.5 23.9479 116.182 23.4714 115.755 23.1172C115.328 22.763 114.797 22.5859 114.161 22.5859C113.51 22.5859 112.969 22.763 112.536 23.1172C112.109 23.4714 111.789 23.9479 111.575 24.5469C111.367 25.1406 111.263 25.8047 111.263 26.5391C111.263 27.2682 111.367 27.9297 111.575 28.5234C111.789 29.1172 112.109 29.5911 112.536 29.9453C112.969 30.2943 113.51 30.4687 114.161 30.4687ZM141.554 21.8984H138.632C138.548 21.4193 138.395 20.9948 138.171 20.625C137.947 20.25 137.668 19.9323 137.335 19.6719C137.001 19.4115 136.621 19.2161 136.194 19.0859C135.772 18.9505 135.317 18.8828 134.827 18.8828C133.957 18.8828 133.186 19.1016 132.514 19.5391C131.843 19.9714 131.317 20.6068 130.936 21.4453C130.556 22.2786 130.366 23.2969 130.366 24.5C130.366 25.724 130.556 26.7552 130.936 27.5937C131.322 28.4271 131.848 29.0573 132.514 29.4844C133.186 29.9062 133.955 30.1172 134.819 30.1172C135.298 30.1172 135.746 30.0547 136.163 29.9297C136.585 29.7995 136.962 29.6094 137.296 29.3594C137.634 29.1094 137.918 28.8021 138.147 28.4375C138.382 28.0729 138.543 27.6562 138.632 27.1875L141.554 27.2031C141.444 27.9635 141.207 28.6771 140.843 29.3438C140.483 30.0104 140.012 30.599 139.429 31.1094C138.845 31.6146 138.163 32.0104 137.382 32.2969C136.6 32.5781 135.733 32.7187 134.78 32.7187C133.374 32.7187 132.119 32.3932 131.014 31.7422C129.91 31.0911 129.04 30.151 128.405 28.9219C127.77 27.6927 127.452 26.2187 127.452 24.5C127.452 22.776 127.772 21.3021 128.413 20.0781C129.054 18.849 129.926 17.9089 131.03 17.2578C132.134 16.6068 133.384 16.2812 134.78 16.2812C135.671 16.2812 136.499 16.4062 137.264 16.6562C138.03 16.9062 138.712 17.2734 139.311 17.7578C139.91 18.237 140.402 18.8255 140.788 19.5234C141.179 20.2161 141.434 21.0078 141.554 21.8984ZM149.307 32.7344C148.135 32.7344 147.12 32.4766 146.26 31.9609C145.401 31.4453 144.734 30.724 144.26 29.7969C143.792 28.8698 143.557 27.7865 143.557 26.5469C143.557 25.3073 143.792 24.2214 144.26 23.2891C144.734 22.3568 145.401 21.6328 146.26 21.1172C147.12 20.6016 148.135 20.3438 149.307 20.3438C150.479 20.3438 151.495 20.6016 152.354 21.1172C153.213 21.6328 153.878 22.3568 154.346 23.2891C154.82 24.2214 155.057 25.3073 155.057 26.5469C155.057 27.7865 154.82 28.8698 154.346 29.7969C153.878 30.724 153.213 31.4453 152.354 31.9609C151.495 32.4766 150.479 32.7344 149.307 32.7344ZM149.323 30.4687C149.958 30.4687 150.489 30.2943 150.917 29.9453C151.344 29.5911 151.661 29.1172 151.87 28.5234C152.083 27.9297 152.19 27.2682 152.19 26.5391C152.19 25.8047 152.083 25.1406 151.87 24.5469C151.661 23.9479 151.344 23.4714 150.917 23.1172C150.489 22.763 149.958 22.5859 149.323 22.5859C148.672 22.5859 148.13 22.763 147.698 23.1172C147.271 23.4714 146.95 23.9479 146.737 24.5469C146.529 25.1406 146.424 25.8047 146.424 26.5391C146.424 27.2682 146.529 27.9297 146.737 28.5234C146.95 29.1172 147.271 29.5911 147.698 29.9453C148.13 30.2943 148.672 30.4687 149.323 30.4687ZM160.276 25.4687V32.5H157.448V20.5H160.151V22.5391H160.291C160.567 21.8672 161.007 21.3333 161.612 20.9375C162.221 20.5417 162.974 20.3438 163.869 20.3438C164.698 20.3438 165.419 20.5208 166.034 20.875C166.653 21.2292 167.132 21.7422 167.471 22.4141C167.815 23.0859 167.984 23.901 167.979 24.8594V32.5H165.151V25.2969C165.151 24.4948 164.942 23.8672 164.526 23.4141C164.114 22.9609 163.544 22.7344 162.815 22.7344C162.32 22.7344 161.88 22.8437 161.494 23.0625C161.114 23.276 160.815 23.5859 160.596 23.9922C160.382 24.3984 160.276 24.8906 160.276 25.4687ZM176.836 20.5V22.6875H169.938V20.5H176.836ZM171.641 17.625H174.469V28.8906C174.469 29.2708 174.526 29.5625 174.641 29.7656C174.76 29.9635 174.917 30.099 175.109 30.1719C175.302 30.2448 175.516 30.2812 175.75 30.2812C175.927 30.2812 176.089 30.2682 176.234 30.2422C176.385 30.2161 176.5 30.1927 176.578 30.1719L177.055 32.3828C176.904 32.4349 176.688 32.4922 176.406 32.5547C176.13 32.6172 175.792 32.6536 175.391 32.6641C174.682 32.6849 174.044 32.5781 173.477 32.3437C172.909 32.1042 172.458 31.7344 172.125 31.2344C171.797 30.7344 171.635 30.1094 171.641 29.3594V17.625ZM182.644 32.7422C181.884 32.7422 181.199 32.6068 180.59 32.3359C179.986 32.0599 179.506 31.6536 179.152 31.1172C178.803 30.5807 178.629 29.9193 178.629 29.1328C178.629 28.4557 178.754 27.8958 179.004 27.4531C179.254 27.0104 179.595 26.6562 180.027 26.3906C180.459 26.125 180.946 25.9245 181.488 25.7891C182.035 25.6484 182.6 25.5469 183.183 25.4844C183.887 25.4115 184.457 25.3464 184.894 25.2891C185.332 25.2266 185.65 25.1328 185.848 25.0078C186.051 24.8776 186.152 24.6771 186.152 24.4062V24.3594C186.152 23.7708 185.978 23.3151 185.629 22.9922C185.28 22.6693 184.777 22.5078 184.121 22.5078C183.428 22.5078 182.879 22.6589 182.473 22.9609C182.071 23.263 181.801 23.6198 181.66 24.0312L179.019 23.6562C179.228 22.9271 179.571 22.3177 180.051 21.8281C180.53 21.3333 181.116 20.9635 181.808 20.7187C182.501 20.4688 183.267 20.3438 184.105 20.3438C184.683 20.3438 185.259 20.4115 185.832 20.5469C186.405 20.6823 186.928 20.9062 187.402 21.2187C187.876 21.526 188.256 21.9453 188.543 22.4766C188.834 23.0078 188.98 23.6719 188.98 24.4687V32.5H186.262V30.8516H186.168C185.996 31.1849 185.754 31.4974 185.441 31.7891C185.134 32.0755 184.746 32.3073 184.277 32.4844C183.814 32.6563 183.269 32.7422 182.644 32.7422ZM183.379 30.6641C183.946 30.6641 184.439 30.5521 184.855 30.3281C185.272 30.099 185.592 29.7969 185.816 29.4219C186.045 29.0469 186.16 28.638 186.16 28.1953V26.7812C186.071 26.8542 185.92 26.9219 185.707 26.9844C185.499 27.0469 185.264 27.1016 185.004 27.1484C184.743 27.1953 184.486 27.237 184.23 27.2734C183.975 27.3099 183.754 27.3411 183.566 27.3672C183.144 27.4245 182.767 27.5182 182.433 27.6484C182.1 27.7786 181.837 27.9609 181.644 28.1953C181.452 28.4245 181.355 28.7214 181.355 29.0859C181.355 29.6068 181.545 30 181.926 30.2656C182.306 30.5312 182.79 30.6641 183.379 30.6641ZM197.048 32.7344C195.851 32.7344 194.822 32.4714 193.963 31.9453C193.108 31.4193 192.449 30.6927 191.986 29.7656C191.528 28.8333 191.298 27.7604 191.298 26.5469C191.298 25.3281 191.533 24.2526 192.002 23.3203C192.47 22.3828 193.132 21.6536 193.986 21.1328C194.845 20.6068 195.861 20.3438 197.033 20.3438C198.007 20.3438 198.869 20.5234 199.619 20.8828C200.374 21.237 200.976 21.7396 201.423 22.3906C201.871 23.0365 202.127 23.7917 202.189 24.6562H199.486C199.377 24.0781 199.116 23.5964 198.705 23.2109C198.298 22.8203 197.754 22.625 197.072 22.625C196.494 22.625 195.986 22.7812 195.548 23.0937C195.111 23.401 194.77 23.8437 194.525 24.4219C194.285 25 194.166 25.6927 194.166 26.5C194.166 27.3177 194.285 28.0208 194.525 28.6094C194.765 29.1927 195.101 29.6432 195.533 29.9609C195.97 30.2734 196.483 30.4297 197.072 30.4297C197.489 30.4297 197.861 30.3516 198.189 30.1953C198.522 30.0339 198.801 29.8021 199.025 29.5C199.249 29.1979 199.403 28.8307 199.486 28.3984H202.189C202.121 29.2474 201.871 30 201.439 30.6562C201.007 31.3073 200.418 31.8177 199.673 32.1875C198.929 32.5521 198.054 32.7344 197.048 32.7344ZM210.494 20.5V22.6875H203.595V20.5H210.494ZM205.298 17.625H208.126V28.8906C208.126 29.2708 208.184 29.5625 208.298 29.7656C208.418 29.9635 208.574 30.099 208.767 30.1719C208.96 30.2448 209.173 30.2812 209.408 30.2812C209.585 30.2812 209.746 30.2682 209.892 30.2422C210.043 30.2161 210.158 30.1927 210.236 30.1719L210.712 32.3828C210.561 32.4349 210.345 32.4922 210.064 32.5547C209.788 32.6172 209.449 32.6536 209.048 32.6641C208.34 32.6849 207.702 32.5781 207.134 32.3437C206.566 32.1042 206.116 31.7344 205.783 31.2344C205.454 30.7344 205.293 30.1094 205.298 29.3594V17.625ZM222.161 23.6719L219.583 23.9531C219.51 23.6927 219.383 23.4479 219.2 23.2188C219.023 22.9896 218.784 22.8047 218.482 22.6641C218.179 22.5234 217.81 22.4531 217.372 22.4531C216.784 22.4531 216.289 22.5807 215.888 22.8359C215.492 23.0911 215.297 23.4219 215.302 23.8281C215.297 24.1771 215.424 24.4609 215.685 24.6797C215.95 24.8984 216.388 25.0781 216.997 25.2188L219.044 25.6562C220.179 25.901 221.023 26.2891 221.575 26.8203C222.133 27.3516 222.414 28.0469 222.419 28.9062C222.414 29.6615 222.193 30.3281 221.755 30.9062C221.323 31.4792 220.721 31.9271 219.95 32.25C219.179 32.5729 218.294 32.7344 217.294 32.7344C215.825 32.7344 214.643 32.4271 213.747 31.8125C212.851 31.1927 212.318 30.3307 212.146 29.2266L214.903 28.9609C215.028 29.5026 215.294 29.9115 215.7 30.1875C216.107 30.4635 216.635 30.6016 217.286 30.6016C217.958 30.6016 218.497 30.4635 218.903 30.1875C219.315 29.9115 219.521 29.5703 219.521 29.1641C219.521 28.8203 219.388 28.5365 219.122 28.3125C218.862 28.0885 218.456 27.9167 217.903 27.7969L215.857 27.3672C214.706 27.1276 213.854 26.724 213.302 26.1562C212.75 25.5833 212.476 24.8594 212.482 23.9844C212.476 23.2448 212.677 22.6042 213.083 22.0625C213.495 21.5156 214.065 21.0937 214.794 20.7969C215.528 20.4948 216.375 20.3438 217.333 20.3438C218.739 20.3438 219.846 20.6432 220.653 21.2422C221.466 21.8411 221.969 22.651 222.161 23.6719Z" fill="#9C2BAD"/>
<defs>
<radialGradient id="paint0_radial_105_81" cx="0" cy="0" r="1" gradientUnits="userSpaceOnUse" gradientTransform="translate(4 4) rotate(90) scale(32)">
<stop stop-color="white"/>
<stop offset="1" stop-color="white" stop-opacity="0"/>
</radialGradient>
<clipPath id="clip0_105_81">
<rect width="48" height="48" rx="10" fill="white"/>
</clipPath>
</defs>
</svg>
