<svg width="189" height="48" viewBox="0 0 189 48" fill="none" xmlns="http://www.w3.org/2000/svg">
<g clip-path="url(#clip0_501_113)">
<rect width="48" height="48" rx="10" fill="#2EBDE5"/>
<g opacity="0.4">
<rect x="-28" y="-28" width="64" height="64" rx="10" fill="url(#paint0_radial_501_113)"/>
</g>
<path opacity="0.4" d="M24 34C29.5228 34 34 29.5228 34 24C34 18.4772 29.5228 14 24 14C18.4772 14 14 18.4772 14 24C14 29.5228 18.4772 34 24 34Z" stroke="white" stroke-width="2" stroke-linecap="round" stroke-linejoin="round"/>
<path d="M21.5 20.9652C21.5 20.488 21.5 20.2493 21.5997 20.1161C21.6867 20 21.8197 19.9273 21.9644 19.917C22.1304 19.9052 22.3311 20.0342 22.7326 20.2923L27.4532 23.327C27.8016 23.5509 27.9758 23.6629 28.0359 23.8053C28.0885 23.9297 28.0885 24.0701 28.0359 24.1945C27.9758 24.3369 27.8016 24.4489 27.4532 24.6728L22.7326 27.7075C22.3311 27.9656 22.1304 28.0947 21.9644 28.0828C21.8197 28.0725 21.6867 27.9998 21.5997 27.8837C21.5 27.7505 21.5 27.5119 21.5 27.0346V20.9652Z" stroke="white" stroke-width="2" stroke-linecap="round" stroke-linejoin="round"/>
</g>
<path d="M69.5781 32.5V16.5H79.9844V18.9297H72.4766V23.2734H79.4453V25.7031H72.4766V30.0703H80.0469V32.5H69.5781ZM85.1189 20.5L87.5408 24.9297L90.0017 20.5H92.9939L89.3767 26.5L93.0564 32.5H90.0798L87.5408 28.1797L85.0252 32.5H82.0252L85.6814 26.5L82.1189 20.5H85.1189ZM95.1714 37V20.5H97.9527V22.4844H98.1167C98.2626 22.1927 98.4683 21.8828 98.7339 21.5547C98.9995 21.2214 99.3589 20.9375 99.812 20.7031C100.265 20.4635 100.843 20.3438 101.546 20.3438C102.473 20.3438 103.309 20.5807 104.054 21.0547C104.804 21.5234 105.398 22.2187 105.835 23.1406C106.278 24.0573 106.5 25.1823 106.5 26.5156C106.5 27.8333 106.283 28.9531 105.851 29.875C105.419 30.7969 104.83 31.5 104.085 31.9844C103.341 32.4688 102.497 32.7109 101.554 32.7109C100.867 32.7109 100.296 32.5964 99.8433 32.3672C99.3902 32.138 99.0256 31.862 98.7495 31.5391C98.4787 31.2109 98.2678 30.901 98.1167 30.6094H97.9995V37H95.1714ZM97.9448 26.5C97.9448 27.276 98.0542 27.9557 98.273 28.5391C98.4969 29.1224 98.8172 29.5781 99.2339 29.9062C99.6558 30.2292 100.166 30.3906 100.765 30.3906C101.39 30.3906 101.914 30.224 102.335 29.8906C102.757 29.5521 103.075 29.0911 103.289 28.5078C103.507 27.9193 103.617 27.25 103.617 26.5C103.617 25.7552 103.51 25.0937 103.296 24.5156C103.083 23.9375 102.765 23.4844 102.343 23.1562C101.921 22.8281 101.395 22.6641 100.765 22.6641C100.161 22.6641 99.648 22.8229 99.2261 23.1406C98.8042 23.4583 98.4839 23.9036 98.2652 24.4766C98.0516 25.0495 97.9448 25.724 97.9448 26.5ZM114.146 32.7344C112.974 32.7344 111.958 32.4766 111.099 31.9609C110.24 31.4453 109.573 30.724 109.099 29.7969C108.63 28.8698 108.396 27.7865 108.396 26.5469C108.396 25.3073 108.63 24.2214 109.099 23.2891C109.573 22.3568 110.24 21.6328 111.099 21.1172C111.958 20.6016 112.974 20.3438 114.146 20.3438C115.318 20.3438 116.333 20.6016 117.193 21.1172C118.052 21.6328 118.716 22.3568 119.185 23.2891C119.659 24.2214 119.896 25.3073 119.896 26.5469C119.896 27.7865 119.659 28.8698 119.185 29.7969C118.716 30.724 118.052 31.4453 117.193 31.9609C116.333 32.4766 115.318 32.7344 114.146 32.7344ZM114.161 30.4687C114.797 30.4687 115.328 30.2943 115.755 29.9453C116.182 29.5911 116.5 29.1172 116.708 28.5234C116.922 27.9297 117.029 27.2682 117.029 26.5391C117.029 25.8047 116.922 25.1406 116.708 24.5469C116.5 23.9479 116.182 23.4714 115.755 23.1172C115.328 22.763 114.797 22.5859 114.161 22.5859C113.51 22.5859 112.969 22.763 112.536 23.1172C112.109 23.4714 111.789 23.9479 111.575 24.5469C111.367 25.1406 111.263 25.8047 111.263 26.5391C111.263 27.2682 111.367 27.9297 111.575 28.5234C111.789 29.1172 112.109 29.5911 112.536 29.9453C112.969 30.2943 113.51 30.4687 114.161 30.4687ZM129.999 16.5L134.163 29.0937H134.327L138.483 16.5H141.671L136.03 32.5H132.452L126.819 16.5H129.999ZM143.643 32.5V20.5H146.471V32.5H143.643ZM145.065 18.7969C144.617 18.7969 144.232 18.6484 143.909 18.3516C143.586 18.0495 143.424 17.6875 143.424 17.2656C143.424 16.8385 143.586 16.4766 143.909 16.1797C144.232 15.8776 144.617 15.7266 145.065 15.7266C145.518 15.7266 145.904 15.8776 146.221 16.1797C146.544 16.4766 146.706 16.8385 146.706 17.2656C146.706 17.6875 146.544 18.0495 146.221 18.3516C145.904 18.6484 145.518 18.7969 145.065 18.7969ZM153.823 32.7109C152.88 32.7109 152.036 32.4688 151.291 31.9844C150.547 31.5 149.958 30.7969 149.526 29.875C149.093 28.9531 148.877 27.8333 148.877 26.5156C148.877 25.1823 149.096 24.0573 149.534 23.1406C149.976 22.2187 150.573 21.5234 151.323 21.0547C152.073 20.5807 152.909 20.3438 153.83 20.3438C154.534 20.3438 155.112 20.4635 155.565 20.7031C156.018 20.9375 156.377 21.2214 156.643 21.5547C156.909 21.8828 157.114 22.1927 157.26 22.4844H157.377V16.5H160.213V32.5H157.432V30.6094H157.26C157.114 30.901 156.903 31.2109 156.627 31.5391C156.351 31.862 155.987 32.138 155.534 32.3672C155.08 32.5964 154.51 32.7109 153.823 32.7109ZM154.612 30.3906C155.211 30.3906 155.721 30.2292 156.143 29.9062C156.565 29.5781 156.885 29.1224 157.104 28.5391C157.323 27.9557 157.432 27.276 157.432 26.5C157.432 25.724 157.323 25.0495 157.104 24.4766C156.89 23.9036 156.573 23.4583 156.151 23.1406C155.734 22.8229 155.221 22.6641 154.612 22.6641C153.981 22.6641 153.455 22.8281 153.034 23.1562C152.612 23.4844 152.294 23.9375 152.08 24.5156C151.867 25.0937 151.76 25.7552 151.76 26.5C151.76 27.25 151.867 27.9193 152.08 28.5078C152.299 29.0911 152.619 29.5521 153.041 29.8906C153.468 30.224 153.992 30.3906 154.612 30.3906ZM168.529 32.7344C167.326 32.7344 166.287 32.4844 165.412 31.9844C164.542 31.4792 163.873 30.7656 163.404 29.8437C162.936 28.9167 162.701 27.8255 162.701 26.5703C162.701 25.3359 162.936 24.2526 163.404 23.3203C163.878 22.3828 164.54 21.6536 165.389 21.1328C166.238 20.6068 167.235 20.3438 168.381 20.3438C169.121 20.3438 169.818 20.4635 170.475 20.7031C171.136 20.9375 171.719 21.3021 172.225 21.7969C172.735 22.2917 173.136 22.9219 173.428 23.6875C173.719 24.4479 173.865 25.3542 173.865 26.4062V27.2734H164.029V25.3672H171.154C171.149 24.8255 171.032 24.3437 170.803 23.9219C170.574 23.4948 170.253 23.1589 169.842 22.9141C169.436 22.6693 168.962 22.5469 168.42 22.5469C167.842 22.5469 167.334 22.6875 166.897 22.9687C166.459 23.2448 166.118 23.6094 165.873 24.0625C165.634 24.5104 165.511 25.0026 165.506 25.5391V27.2031C165.506 27.901 165.634 28.5 165.889 29C166.144 29.4948 166.501 29.875 166.959 30.1406C167.417 30.401 167.954 30.5312 168.568 30.5312C168.98 30.5312 169.352 30.474 169.686 30.3594C170.019 30.2396 170.308 30.0651 170.553 29.8359C170.798 29.6068 170.982 29.3229 171.107 28.9844L173.748 29.2812C173.581 29.9792 173.264 30.5885 172.795 31.1094C172.331 31.625 171.738 32.026 171.014 32.3125C170.29 32.5937 169.462 32.7344 168.529 32.7344ZM181.482 32.7344C180.31 32.7344 179.295 32.4766 178.435 31.9609C177.576 31.4453 176.909 30.724 176.435 29.7969C175.967 28.8698 175.732 27.7865 175.732 26.5469C175.732 25.3073 175.967 24.2214 176.435 23.2891C176.909 22.3568 177.576 21.6328 178.435 21.1172C179.295 20.6016 180.31 20.3438 181.482 20.3438C182.654 20.3438 183.67 20.6016 184.529 21.1172C185.389 21.6328 186.053 22.3568 186.521 23.2891C186.995 24.2214 187.232 25.3073 187.232 26.5469C187.232 27.7865 186.995 28.8698 186.521 29.7969C186.053 30.724 185.389 31.4453 184.529 31.9609C183.67 32.4766 182.654 32.7344 181.482 32.7344ZM181.498 30.4687C182.133 30.4687 182.665 30.2943 183.092 29.9453C183.519 29.5911 183.836 29.1172 184.045 28.5234C184.258 27.9297 184.365 27.2682 184.365 26.5391C184.365 25.8047 184.258 25.1406 184.045 24.5469C183.836 23.9479 183.519 23.4714 183.092 23.1172C182.665 22.763 182.133 22.5859 181.498 22.5859C180.847 22.5859 180.305 22.763 179.873 23.1172C179.446 23.4714 179.125 23.9479 178.912 24.5469C178.704 25.1406 178.599 25.8047 178.599 26.5391C178.599 27.2682 178.704 27.9297 178.912 28.5234C179.125 29.1172 179.446 29.5911 179.873 29.9453C180.305 30.2943 180.847 30.4687 181.498 30.4687Z" fill="#2EBDE5"/>
<defs>
<radialGradient id="paint0_radial_501_113" cx="0" cy="0" r="1" gradientUnits="userSpaceOnUse" gradientTransform="translate(4 4) rotate(90) scale(32)">
<stop stop-color="white"/>
<stop offset="1" stop-color="white" stop-opacity="0"/>
</radialGradient>
<clipPath id="clip0_501_113">
<rect width="48" height="48" rx="10" fill="white"/>
</clipPath>
</defs>
</svg>
