<svg width="200" height="48" viewBox="0 0 200 48" fill="none" xmlns="http://www.w3.org/2000/svg">
<g clip-path="url(#clip0_110_85)">
<rect width="48" height="48" rx="10" fill="#BD8B60"/>
<g opacity="0.4">
<rect x="-28" y="-28" width="64" height="64" rx="10" fill="url(#paint0_radial_110_85)"/>
</g>
<path d="M27.8 34H20.2C19.0799 34 18.5198 34 18.092 33.782C17.7157 33.5903 17.4097 33.2843 17.218 32.908C17 32.4802 17 31.9201 17 30.8V17.2C17 16.0799 17 15.5198 17.218 15.092C17.4097 14.7157 17.7157 14.4097 18.092 14.218C18.5198 14 19.0799 14 20.2 14H27.8C28.9201 14 29.4802 14 29.908 14.218C30.2843 14.4097 30.5903 14.7157 30.782 15.092C31 15.5198 31 16.0799 31 17.2V30.8C31 31.9201 31 32.4802 30.782 32.908C30.5903 33.2843 30.2843 33.5903 29.908 33.782C29.4802 34 28.9201 34 27.8 34Z" stroke="white" stroke-width="2" stroke-linecap="round" stroke-linejoin="round"/>
<path d="M21 17.0947C21 16.5424 21.4477 16.0947 22 16.0947H26C26.5523 16.0947 27 16.5424 27 17.0947C27 17.647 26.5523 18.0947 26 18.0947H22C21.4477 18.0947 21 17.647 21 17.0947Z" fill="white"/>
<rect x="20" y="19.8838" width="2" height="2" rx="0.5" fill="white"/>
<rect x="20" y="19.8838" width="2" height="2" rx="0.5" fill="white"/>
<rect x="20" y="19.8838" width="2" height="2" rx="0.5" fill="white"/>
<rect x="23" y="19.8838" width="2" height="2" rx="0.5" fill="white"/>
<rect x="23" y="19.8838" width="2" height="2" rx="0.5" fill="white"/>
<rect x="23" y="19.8838" width="2" height="2" rx="0.5" fill="white"/>
<rect x="26" y="19.8838" width="2" height="2" rx="0.5" fill="white"/>
<rect x="26" y="19.8838" width="2" height="2" rx="0.5" fill="white"/>
<rect x="26" y="19.8838" width="2" height="2" rx="0.5" fill="white"/>
<rect x="20" y="22.8838" width="2" height="2" rx="0.5" fill="white"/>
<rect x="20" y="22.8838" width="2" height="2" rx="0.5" fill="white"/>
<rect x="20" y="22.8838" width="2" height="2" rx="0.5" fill="white"/>
<rect x="23" y="22.8838" width="2" height="2" rx="0.5" fill="white"/>
<rect x="23" y="22.8838" width="2" height="2" rx="0.5" fill="white"/>
<rect x="23" y="22.8838" width="2" height="2" rx="0.5" fill="white"/>
<rect x="26" y="22.8838" width="2" height="2" rx="0.5" fill="white"/>
<rect x="26" y="22.8838" width="2" height="2" rx="0.5" fill="white"/>
<rect x="26" y="22.8838" width="2" height="2" rx="0.5" fill="white"/>
<rect x="20" y="25.8838" width="2" height="2" rx="0.5" fill="white"/>
<rect x="20" y="25.8838" width="2" height="2" rx="0.5" fill="white"/>
<rect x="20" y="25.8838" width="2" height="2" rx="0.5" fill="white"/>
<rect x="23" y="25.8838" width="2" height="2" rx="0.5" fill="white"/>
<rect x="23" y="25.8838" width="2" height="2" rx="0.5" fill="white"/>
<rect x="23" y="25.8838" width="2" height="2" rx="0.5" fill="white"/>
<rect x="26" y="25.8838" width="2" height="2" rx="0.5" fill="white"/>
<rect x="26" y="25.8838" width="2" height="2" rx="0.5" fill="white"/>
<rect x="26" y="25.8838" width="2" height="2" rx="0.5" fill="white"/>
<rect x="20" y="28.8838" width="2" height="2" rx="0.5" fill="white"/>
<rect x="20" y="28.8838" width="2" height="2" rx="0.5" fill="white"/>
<rect x="20" y="28.8838" width="2" height="2" rx="0.5" fill="white"/>
<rect x="23" y="28.8838" width="2" height="2" rx="0.5" fill="white"/>
<rect x="23" y="28.8838" width="2" height="2" rx="0.5" fill="white"/>
<rect x="23" y="28.8838" width="2" height="2" rx="0.5" fill="white"/>
</g>
<path d="M69.5781 32.5V16.5H79.9844V18.9297H72.4766V23.2734H79.4453V25.7031H72.4766V30.0703H80.0469V32.5H69.5781ZM85.1189 20.5L87.5408 24.9297L90.0017 20.5H92.9939L89.3767 26.5L93.0564 32.5H90.0798L87.5408 28.1797L85.0252 32.5H82.0252L85.6814 26.5L82.1189 20.5H85.1189ZM95.1714 37V20.5H97.9527V22.4844H98.1167C98.2626 22.1927 98.4683 21.8828 98.7339 21.5547C98.9995 21.2214 99.3589 20.9375 99.812 20.7031C100.265 20.4635 100.843 20.3438 101.546 20.3438C102.473 20.3438 103.309 20.5807 104.054 21.0547C104.804 21.5234 105.398 22.2187 105.835 23.1406C106.278 24.0573 106.5 25.1823 106.5 26.5156C106.5 27.8333 106.283 28.9531 105.851 29.875C105.419 30.7969 104.83 31.5 104.085 31.9844C103.341 32.4688 102.497 32.7109 101.554 32.7109C100.867 32.7109 100.296 32.5964 99.8433 32.3672C99.3902 32.138 99.0256 31.862 98.7495 31.5391C98.4787 31.2109 98.2678 30.901 98.1167 30.6094H97.9995V37H95.1714ZM97.9448 26.5C97.9448 27.276 98.0542 27.9557 98.273 28.5391C98.4969 29.1224 98.8172 29.5781 99.2339 29.9062C99.6558 30.2292 100.166 30.3906 100.765 30.3906C101.39 30.3906 101.914 30.224 102.335 29.8906C102.757 29.5521 103.075 29.0911 103.289 28.5078C103.507 27.9193 103.617 27.25 103.617 26.5C103.617 25.7552 103.51 25.0937 103.296 24.5156C103.083 23.9375 102.765 23.4844 102.343 23.1562C101.921 22.8281 101.395 22.6641 100.765 22.6641C100.161 22.6641 99.648 22.8229 99.2261 23.1406C98.8042 23.4583 98.4839 23.9036 98.2652 24.4766C98.0516 25.0495 97.9448 25.724 97.9448 26.5ZM114.146 32.7344C112.974 32.7344 111.958 32.4766 111.099 31.9609C110.24 31.4453 109.573 30.724 109.099 29.7969C108.63 28.8698 108.396 27.7865 108.396 26.5469C108.396 25.3073 108.63 24.2214 109.099 23.2891C109.573 22.3568 110.24 21.6328 111.099 21.1172C111.958 20.6016 112.974 20.3438 114.146 20.3438C115.318 20.3438 116.333 20.6016 117.193 21.1172C118.052 21.6328 118.716 22.3568 119.185 23.2891C119.659 24.2214 119.896 25.3073 119.896 26.5469C119.896 27.7865 119.659 28.8698 119.185 29.7969C118.716 30.724 118.052 31.4453 117.193 31.9609C116.333 32.4766 115.318 32.7344 114.146 32.7344ZM114.161 30.4687C114.797 30.4687 115.328 30.2943 115.755 29.9453C116.182 29.5911 116.5 29.1172 116.708 28.5234C116.922 27.9297 117.029 27.2682 117.029 26.5391C117.029 25.8047 116.922 25.1406 116.708 24.5469C116.5 23.9479 116.182 23.4714 115.755 23.1172C115.328 22.763 114.797 22.5859 114.161 22.5859C113.51 22.5859 112.969 22.763 112.536 23.1172C112.109 23.4714 111.789 23.9479 111.575 24.5469C111.367 25.1406 111.263 25.8047 111.263 26.5391C111.263 27.2682 111.367 27.9297 111.575 28.5234C111.789 29.1172 112.109 29.5911 112.536 29.9453C112.969 30.2943 113.51 30.4687 114.161 30.4687ZM133.28 32.5H127.858V16.5H133.389C134.978 16.5 136.343 16.8203 137.483 17.4609C138.629 18.0964 139.509 19.0104 140.124 20.2031C140.738 21.3958 141.046 22.8229 141.046 24.4844C141.046 26.151 140.736 27.5833 140.116 28.7812C139.501 29.9792 138.613 30.8984 137.452 31.5391C136.296 32.1797 134.905 32.5 133.28 32.5ZM130.757 29.9922H133.139C134.254 29.9922 135.184 29.7891 135.929 29.3828C136.673 28.9714 137.233 28.3594 137.608 27.5469C137.983 26.7292 138.171 25.7083 138.171 24.4844C138.171 23.2604 137.983 22.2448 137.608 21.4375C137.233 20.625 136.679 20.0182 135.944 19.6172C135.215 19.2109 134.309 19.0078 133.225 19.0078H130.757V29.9922ZM148.977 32.7344C147.774 32.7344 146.735 32.4844 145.86 31.9844C144.99 31.4792 144.321 30.7656 143.852 29.8437C143.383 28.9167 143.149 27.8255 143.149 26.5703C143.149 25.3359 143.383 24.2526 143.852 23.3203C144.326 22.3828 144.988 21.6536 145.836 21.1328C146.685 20.6068 147.683 20.3438 148.829 20.3438C149.568 20.3438 150.266 20.4635 150.922 20.7031C151.584 20.9375 152.167 21.3021 152.672 21.7969C153.183 22.2917 153.584 22.9219 153.876 23.6875C154.167 24.4479 154.313 25.3542 154.313 26.4062V27.2734H144.477V25.3672H151.602C151.597 24.8255 151.48 24.3437 151.251 23.9219C151.021 23.4948 150.701 23.1589 150.29 22.9141C149.883 22.6693 149.409 22.5469 148.868 22.5469C148.29 22.5469 147.782 22.6875 147.344 22.9687C146.907 23.2448 146.566 23.6094 146.321 24.0625C146.081 24.5104 145.959 25.0026 145.954 25.5391V27.2031C145.954 27.901 146.081 28.5 146.336 29C146.592 29.4948 146.948 29.875 147.407 30.1406C147.865 30.401 148.402 30.5312 149.016 30.5312C149.428 30.5312 149.8 30.474 150.133 30.3594C150.467 30.2396 150.756 30.0651 151.001 29.8359C151.245 29.6068 151.43 29.3229 151.555 28.9844L154.196 29.2812C154.029 29.9792 153.711 30.5885 153.243 31.1094C152.779 31.625 152.185 32.026 151.461 32.3125C150.738 32.5937 149.909 32.7344 148.977 32.7344ZM167.071 20.5L162.797 32.5H159.672L155.399 20.5H158.414L161.172 29.4141H161.297L164.063 20.5H167.071ZM169.018 32.5V20.5H171.846V32.5H169.018ZM170.44 18.7969C169.992 18.7969 169.606 18.6484 169.283 18.3516C168.96 18.0495 168.799 17.6875 168.799 17.2656C168.799 16.8385 168.96 16.4766 169.283 16.1797C169.606 15.8776 169.992 15.7266 170.44 15.7266C170.893 15.7266 171.278 15.8776 171.596 16.1797C171.919 16.4766 172.08 16.8385 172.08 17.2656C172.08 17.6875 171.919 18.0495 171.596 18.3516C171.278 18.6484 170.893 18.7969 170.44 18.7969ZM179.978 32.7344C178.78 32.7344 177.752 32.4714 176.892 31.9453C176.038 31.4193 175.379 30.6927 174.916 29.7656C174.458 28.8333 174.228 27.7604 174.228 26.5469C174.228 25.3281 174.463 24.2526 174.931 23.3203C175.4 22.3828 176.062 21.6536 176.916 21.1328C177.775 20.6068 178.791 20.3438 179.963 20.3438C180.937 20.3438 181.799 20.5234 182.549 20.8828C183.304 21.237 183.905 21.7396 184.353 22.3906C184.801 23.0365 185.056 23.7917 185.119 24.6562H182.416C182.306 24.0781 182.046 23.5964 181.635 23.2109C181.228 22.8203 180.684 22.625 180.002 22.625C179.424 22.625 178.916 22.7812 178.478 23.0937C178.041 23.401 177.7 23.8437 177.455 24.4219C177.215 25 177.096 25.6927 177.096 26.5C177.096 27.3177 177.215 28.0208 177.455 28.6094C177.695 29.1927 178.03 29.6432 178.463 29.9609C178.9 30.2734 179.413 30.4297 180.002 30.4297C180.418 30.4297 180.791 30.3516 181.119 30.1953C181.452 30.0339 181.731 29.8021 181.955 29.5C182.179 29.1979 182.333 28.8307 182.416 28.3984H185.119C185.051 29.2474 184.801 30 184.369 30.6562C183.937 31.3073 183.348 31.8177 182.603 32.1875C181.859 32.5521 180.984 32.7344 179.978 32.7344ZM192.744 32.7344C191.541 32.7344 190.502 32.4844 189.627 31.9844C188.757 31.4792 188.088 30.7656 187.619 29.8437C187.15 28.9167 186.916 27.8255 186.916 26.5703C186.916 25.3359 187.15 24.2526 187.619 23.3203C188.093 22.3828 188.754 21.6536 189.603 21.1328C190.452 20.6068 191.449 20.3438 192.595 20.3438C193.335 20.3438 194.033 20.4635 194.689 20.7031C195.351 20.9375 195.934 21.3021 196.439 21.7969C196.949 22.2917 197.351 22.9219 197.642 23.6875C197.934 24.4479 198.08 25.3542 198.08 26.4062V27.2734H188.244V25.3672H195.369C195.364 24.8255 195.246 24.3437 195.017 23.9219C194.788 23.4948 194.468 23.1589 194.056 22.9141C193.65 22.6693 193.176 22.5469 192.634 22.5469C192.056 22.5469 191.548 22.6875 191.111 22.9687C190.673 23.2448 190.332 23.6094 190.088 24.0625C189.848 24.5104 189.726 25.0026 189.72 25.5391V27.2031C189.72 27.901 189.848 28.5 190.103 29C190.358 29.4948 190.715 29.875 191.173 30.1406C191.632 30.401 192.168 30.5312 192.783 30.5312C193.194 30.5312 193.567 30.474 193.9 30.3594C194.233 30.2396 194.522 30.0651 194.767 29.8359C195.012 29.6068 195.197 29.3229 195.322 28.9844L197.963 29.2812C197.796 29.9792 197.478 30.5885 197.009 31.1094C196.546 31.625 195.952 32.026 195.228 32.3125C194.504 32.5937 193.676 32.7344 192.744 32.7344Z" fill="#BD8B60"/>
<defs>
<radialGradient id="paint0_radial_110_85" cx="0" cy="0" r="1" gradientUnits="userSpaceOnUse" gradientTransform="translate(4 4) rotate(90) scale(32)">
<stop stop-color="white"/>
<stop offset="1" stop-color="white" stop-opacity="0"/>
</radialGradient>
<clipPath id="clip0_110_85">
<rect width="48" height="48" rx="10" fill="white"/>
</clipPath>
</defs>
</svg>
