<svg width="257" height="48" viewBox="0 0 257 48" fill="none" xmlns="http://www.w3.org/2000/svg">
<g clip-path="url(#clip0_301_149)">
<rect width="48" height="48" rx="10" fill="#DBA16E"/>
<g opacity="0.4">
<rect x="-28" y="-28" width="64" height="64" rx="10" fill="url(#paint0_radial_301_149)"/>
</g>
<path opacity="0.4" d="M26 29.6587V32.0001C26 33.1047 25.1046 34.0001 24 34.0001V34.0001C22.8954 34.0001 22 33.1047 22 32.0001V29.6587" stroke="white" stroke-width="2" stroke-linecap="round" stroke-linejoin="round"/>
<path opacity="0.4" d="M24 14V15M15 24H14M17.5 17.5L16.8999 16.8999M30.5 17.5L31.1002 16.8999M34 24H33" stroke="white" stroke-width="2" stroke-linecap="round" stroke-linejoin="round"/>
<path d="M24 30C27.3137 30 30 27.3137 30 24C30 20.6863 27.3137 18 24 18C20.6863 18 18 20.6863 18 24C18 27.3137 20.6863 30 24 30Z" stroke="white" stroke-width="2" stroke-linecap="round" stroke-linejoin="round"/>
</g>
<path d="M69.5781 32.5V16.5H79.9844V18.9297H72.4766V23.2734H79.4453V25.7031H72.4766V30.0703H80.0469V32.5H69.5781ZM85.1189 20.5L87.5408 24.9297L90.0017 20.5H92.9939L89.3767 26.5L93.0564 32.5H90.0798L87.5408 28.1797L85.0252 32.5H82.0252L85.6814 26.5L82.1189 20.5H85.1189ZM95.1714 37V20.5H97.9527V22.4844H98.1167C98.2626 22.1927 98.4683 21.8828 98.7339 21.5547C98.9995 21.2214 99.3589 20.9375 99.812 20.7031C100.265 20.4635 100.843 20.3438 101.546 20.3438C102.473 20.3438 103.309 20.5807 104.054 21.0547C104.804 21.5234 105.398 22.2187 105.835 23.1406C106.278 24.0573 106.5 25.1823 106.5 26.5156C106.5 27.8333 106.283 28.9531 105.851 29.875C105.419 30.7969 104.83 31.5 104.085 31.9844C103.341 32.4688 102.497 32.7109 101.554 32.7109C100.867 32.7109 100.296 32.5964 99.8433 32.3672C99.3902 32.138 99.0256 31.862 98.7495 31.5391C98.4787 31.2109 98.2678 30.901 98.1167 30.6094H97.9995V37H95.1714ZM97.9448 26.5C97.9448 27.276 98.0542 27.9557 98.273 28.5391C98.4969 29.1224 98.8172 29.5781 99.2339 29.9062C99.6558 30.2292 100.166 30.3906 100.765 30.3906C101.39 30.3906 101.914 30.224 102.335 29.8906C102.757 29.5521 103.075 29.0911 103.289 28.5078C103.507 27.9193 103.617 27.25 103.617 26.5C103.617 25.7552 103.51 25.0937 103.296 24.5156C103.083 23.9375 102.765 23.4844 102.343 23.1562C101.921 22.8281 101.395 22.6641 100.765 22.6641C100.161 22.6641 99.648 22.8229 99.2261 23.1406C98.8042 23.4583 98.4839 23.9036 98.2652 24.4766C98.0516 25.0495 97.9448 25.724 97.9448 26.5ZM114.146 32.7344C112.974 32.7344 111.958 32.4766 111.099 31.9609C110.24 31.4453 109.573 30.724 109.099 29.7969C108.63 28.8698 108.396 27.7865 108.396 26.5469C108.396 25.3073 108.63 24.2214 109.099 23.2891C109.573 22.3568 110.24 21.6328 111.099 21.1172C111.958 20.6016 112.974 20.3438 114.146 20.3438C115.318 20.3438 116.333 20.6016 117.193 21.1172C118.052 21.6328 118.716 22.3568 119.185 23.2891C119.659 24.2214 119.896 25.3073 119.896 26.5469C119.896 27.7865 119.659 28.8698 119.185 29.7969C118.716 30.724 118.052 31.4453 117.193 31.9609C116.333 32.4766 115.318 32.7344 114.146 32.7344ZM114.161 30.4687C114.797 30.4687 115.328 30.2943 115.755 29.9453C116.182 29.5911 116.5 29.1172 116.708 28.5234C116.922 27.9297 117.029 27.2682 117.029 26.5391C117.029 25.8047 116.922 25.1406 116.708 24.5469C116.5 23.9479 116.182 23.4714 115.755 23.1172C115.328 22.763 114.797 22.5859 114.161 22.5859C113.51 22.5859 112.969 22.763 112.536 23.1172C112.109 23.4714 111.789 23.9479 111.575 24.5469C111.367 25.1406 111.263 25.8047 111.263 26.5391C111.263 27.2682 111.367 27.9297 111.575 28.5234C111.789 29.1172 112.109 29.5911 112.536 29.9453C112.969 30.2943 113.51 30.4687 114.161 30.4687ZM127.858 32.5V16.5H130.757V23.8516H130.952L137.194 16.5H140.733L134.546 23.6797L140.788 32.5H137.304L132.53 25.6406L130.757 27.7344V32.5H127.858ZM147.044 32.7344C145.84 32.7344 144.801 32.4844 143.926 31.9844C143.057 31.4792 142.387 30.7656 141.919 29.8437C141.45 28.9167 141.215 27.8255 141.215 26.5703C141.215 25.3359 141.45 24.2526 141.919 23.3203C142.392 22.3828 143.054 21.6536 143.903 21.1328C144.752 20.6068 145.749 20.3438 146.895 20.3438C147.635 20.3438 148.333 20.4635 148.989 20.7031C149.65 20.9375 150.234 21.3021 150.739 21.7969C151.249 22.2917 151.65 22.9219 151.942 23.6875C152.234 24.4479 152.379 25.3542 152.379 26.4062V27.2734H142.544V25.3672H149.669C149.663 24.8255 149.546 24.3437 149.317 23.9219C149.088 23.4948 148.767 23.1589 148.356 22.9141C147.95 22.6693 147.476 22.5469 146.934 22.5469C146.356 22.5469 145.848 22.6875 145.411 22.9687C144.973 23.2448 144.632 23.6094 144.387 24.0625C144.148 24.5104 144.025 25.0026 144.02 25.5391V27.2031C144.02 27.901 144.148 28.5 144.403 29C144.658 29.4948 145.015 29.875 145.473 30.1406C145.932 30.401 146.468 30.5312 147.083 30.5312C147.494 30.5312 147.866 30.474 148.2 30.3594C148.533 30.2396 148.822 30.0651 149.067 29.8359C149.312 29.6068 149.497 29.3229 149.622 28.9844L152.262 29.2812C152.096 29.9792 151.778 30.5885 151.309 31.1094C150.846 31.625 150.252 32.026 149.528 32.3125C148.804 32.5937 147.976 32.7344 147.044 32.7344ZM160.075 32.7344C158.871 32.7344 157.832 32.4844 156.957 31.9844C156.088 31.4792 155.418 30.7656 154.95 29.8437C154.481 28.9167 154.246 27.8255 154.246 26.5703C154.246 25.3359 154.481 24.2526 154.95 23.3203C155.423 22.3828 156.085 21.6536 156.934 21.1328C157.783 20.6068 158.78 20.3438 159.926 20.3438C160.666 20.3438 161.364 20.4635 162.02 20.7031C162.681 20.9375 163.265 21.3021 163.77 21.7969C164.28 22.2917 164.681 22.9219 164.973 23.6875C165.265 24.4479 165.41 25.3542 165.41 26.4062V27.2734H155.575V25.3672H162.7C162.694 24.8255 162.577 24.3437 162.348 23.9219C162.119 23.4948 161.798 23.1589 161.387 22.9141C160.981 22.6693 160.507 22.5469 159.965 22.5469C159.387 22.5469 158.879 22.6875 158.442 22.9687C158.004 23.2448 157.663 23.6094 157.418 24.0625C157.179 24.5104 157.056 25.0026 157.051 25.5391V27.2031C157.051 27.901 157.179 28.5 157.434 29C157.689 29.4948 158.046 29.875 158.504 30.1406C158.963 30.401 159.499 30.5312 160.114 30.5312C160.525 30.5312 160.897 30.474 161.231 30.3594C161.564 30.2396 161.853 30.0651 162.098 29.8359C162.343 29.6068 162.528 29.3229 162.653 28.9844L165.293 29.2812C165.127 29.9792 164.809 30.5885 164.34 31.1094C163.877 31.625 163.283 32.026 162.559 32.3125C161.835 32.5937 161.007 32.7344 160.075 32.7344ZM167.793 37V20.5H170.574V22.4844H170.738C170.884 22.1927 171.09 21.8828 171.356 21.5547C171.621 21.2214 171.981 20.9375 172.434 20.7031C172.887 20.4635 173.465 20.3438 174.168 20.3438C175.095 20.3438 175.931 20.5807 176.676 21.0547C177.426 21.5234 178.02 22.2187 178.457 23.1406C178.9 24.0573 179.121 25.1823 179.121 26.5156C179.121 27.8333 178.905 28.9531 178.473 29.875C178.04 30.7969 177.452 31.5 176.707 31.9844C175.962 32.4688 175.119 32.7109 174.176 32.7109C173.488 32.7109 172.918 32.5964 172.465 32.3672C172.012 32.138 171.647 31.862 171.371 31.5391C171.1 31.2109 170.889 30.901 170.738 30.6094H170.621V37H167.793ZM170.566 26.5C170.566 27.276 170.676 27.9557 170.895 28.5391C171.119 29.1224 171.439 29.5781 171.856 29.9062C172.277 30.2292 172.788 30.3906 173.387 30.3906C174.012 30.3906 174.535 30.224 174.957 29.8906C175.379 29.5521 175.697 29.0911 175.91 28.5078C176.129 27.9193 176.238 27.25 176.238 26.5C176.238 25.7552 176.132 25.0937 175.918 24.5156C175.705 23.9375 175.387 23.4844 174.965 23.1562C174.543 22.8281 174.017 22.6641 173.387 22.6641C172.783 22.6641 172.27 22.8229 171.848 23.1406C171.426 23.4583 171.106 23.9036 170.887 24.4766C170.673 25.0495 170.566 25.724 170.566 26.5ZM189.16 32.5H186.066L191.699 16.5H195.277L200.918 32.5H197.824L193.55 19.7812H193.425L189.16 32.5ZM189.261 26.2266H197.699V28.5547H189.261V26.2266ZM203.863 32.5L200.472 20.5H203.355L205.464 28.9375H205.574L207.73 20.5H210.581L212.738 28.8906H212.855L214.933 20.5H217.824L214.425 32.5H211.48L209.23 24.3906H209.066L206.816 32.5H203.863ZM223.241 32.7422C222.481 32.7422 221.796 32.6068 221.187 32.3359C220.582 32.0599 220.103 31.6536 219.749 31.1172C219.4 30.5807 219.226 29.9193 219.226 29.1328C219.226 28.4557 219.351 27.8958 219.601 27.4531C219.851 27.0104 220.192 26.6562 220.624 26.3906C221.056 26.125 221.543 25.9245 222.085 25.7891C222.632 25.6484 223.197 25.5469 223.78 25.4844C224.484 25.4115 225.054 25.3464 225.491 25.2891C225.929 25.2266 226.247 25.1328 226.444 25.0078C226.648 24.8776 226.749 24.6771 226.749 24.4062V24.3594C226.749 23.7708 226.575 23.3151 226.226 22.9922C225.877 22.6693 225.374 22.5078 224.718 22.5078C224.025 22.5078 223.476 22.6589 223.069 22.9609C222.668 23.263 222.398 23.6198 222.257 24.0312L219.616 23.6562C219.825 22.9271 220.168 22.3177 220.648 21.8281C221.127 21.3333 221.713 20.9635 222.405 20.7187C223.098 20.4688 223.864 20.3438 224.702 20.3438C225.28 20.3438 225.856 20.4115 226.429 20.5469C227.002 20.6823 227.525 20.9062 227.999 21.2187C228.473 21.526 228.853 21.9453 229.14 22.4766C229.431 23.0078 229.577 23.6719 229.577 24.4687V32.5H226.859V30.8516H226.765C226.593 31.1849 226.351 31.4974 226.038 31.7891C225.731 32.0755 225.343 32.3073 224.874 32.4844C224.411 32.6563 223.866 32.7422 223.241 32.7422ZM223.976 30.6641C224.543 30.6641 225.036 30.5521 225.452 30.3281C225.869 30.099 226.189 29.7969 226.413 29.4219C226.642 29.0469 226.757 28.638 226.757 28.1953V26.7812C226.668 26.8542 226.517 26.9219 226.304 26.9844C226.095 27.0469 225.861 27.1016 225.601 27.1484C225.34 27.1953 225.082 27.237 224.827 27.2734C224.572 27.3099 224.351 27.3411 224.163 27.3672C223.741 27.4245 223.364 27.5182 223.03 27.6484C222.697 27.7786 222.434 27.9609 222.241 28.1953C222.049 28.4245 221.952 28.7214 221.952 29.0859C221.952 29.6068 222.142 30 222.523 30.2656C222.903 30.5312 223.387 30.6641 223.976 30.6641ZM234.989 28.7344L234.981 25.3203H235.434L239.747 20.5H243.052L237.747 26.4062H237.161L234.989 28.7344ZM232.411 32.5V16.5H235.239V32.5H232.411ZM239.942 32.5L236.036 27.0391L237.942 25.0469L243.325 32.5H239.942ZM249.745 32.7344C248.542 32.7344 247.503 32.4844 246.628 31.9844C245.758 31.4792 245.089 30.7656 244.62 29.8437C244.151 28.9167 243.917 27.8255 243.917 26.5703C243.917 25.3359 244.151 24.2526 244.62 23.3203C245.094 22.3828 245.755 21.6536 246.604 21.1328C247.453 20.6068 248.45 20.3438 249.596 20.3438C250.336 20.3438 251.034 20.4635 251.69 20.7031C252.352 20.9375 252.935 21.3021 253.44 21.7969C253.95 22.2917 254.352 22.9219 254.643 23.6875C254.935 24.4479 255.081 25.3542 255.081 26.4062V27.2734H245.245V25.3672H252.37C252.365 24.8255 252.247 24.3437 252.018 23.9219C251.789 23.4948 251.469 23.1589 251.057 22.9141C250.651 22.6693 250.177 22.5469 249.635 22.5469C249.057 22.5469 248.549 22.6875 248.112 22.9687C247.674 23.2448 247.333 23.6094 247.089 24.0625C246.849 24.5104 246.727 25.0026 246.721 25.5391V27.2031C246.721 27.901 246.849 28.5 247.104 29C247.359 29.4948 247.716 29.875 248.174 30.1406C248.633 30.401 249.169 30.5312 249.784 30.5312C250.195 30.5312 250.568 30.474 250.901 30.3594C251.234 30.2396 251.523 30.0651 251.768 29.8359C252.013 29.6068 252.198 29.3229 252.323 28.9844L254.964 29.2812C254.797 29.9792 254.479 30.5885 254.01 31.1094C253.547 31.625 252.953 32.026 252.229 32.3125C251.505 32.5937 250.677 32.7344 249.745 32.7344Z" fill="#DBA16E"/>
<defs>
<radialGradient id="paint0_radial_301_149" cx="0" cy="0" r="1" gradientUnits="userSpaceOnUse" gradientTransform="translate(4 4) rotate(90) scale(32)">
<stop stop-color="white"/>
<stop offset="1" stop-color="white" stop-opacity="0"/>
</radialGradient>
<clipPath id="clip0_301_149">
<rect width="48" height="48" rx="10" fill="white"/>
</clipPath>
</defs>
</svg>
