<svg width="174" height="48" viewBox="0 0 174 48" fill="none" xmlns="http://www.w3.org/2000/svg">
<g clip-path="url(#clip0_107_180)">
<rect width="48" height="48" rx="10" fill="#55B467"/>
<g opacity="0.4">
<rect x="-28" y="-28" width="64" height="64" rx="10" fill="url(#paint0_radial_107_180)"/>
</g>
<path opacity="0.4" d="M22.25 16V32" stroke="white" stroke-width="2" stroke-linecap="round" stroke-linejoin="round"/>
<path d="M16 19C16 18.0681 16 17.6022 16.1522 17.2346C16.3552 16.7446 16.7446 16.3552 17.2346 16.1522C17.6022 16 18.0681 16 19 16H29C29.9319 16 30.3978 16 30.7654 16.1522C31.2554 16.3552 31.6448 16.7446 31.8478 17.2346C32 17.6022 32 18.0681 32 19M20 32H28M25.75 16V32" stroke="white" stroke-width="2" stroke-linecap="round" stroke-linejoin="round"/>
</g>
<path d="M69.5781 32.5V16.5H79.9844V18.9297H72.4766V23.2734H79.4453V25.7031H72.4766V30.0703H80.0469V32.5H69.5781ZM85.1189 20.5L87.5408 24.9297L90.0017 20.5H92.9939L89.3767 26.5L93.0564 32.5H90.0798L87.5408 28.1797L85.0252 32.5H82.0252L85.6814 26.5L82.1189 20.5H85.1189ZM95.1714 37V20.5H97.9527V22.4844H98.1167C98.2626 22.1927 98.4683 21.8828 98.7339 21.5547C98.9995 21.2214 99.3589 20.9375 99.812 20.7031C100.265 20.4635 100.843 20.3438 101.546 20.3438C102.473 20.3438 103.309 20.5807 104.054 21.0547C104.804 21.5234 105.398 22.2187 105.835 23.1406C106.278 24.0573 106.5 25.1823 106.5 26.5156C106.5 27.8333 106.283 28.9531 105.851 29.875C105.419 30.7969 104.83 31.5 104.085 31.9844C103.341 32.4688 102.497 32.7109 101.554 32.7109C100.867 32.7109 100.296 32.5964 99.8433 32.3672C99.3902 32.138 99.0256 31.862 98.7495 31.5391C98.4787 31.2109 98.2678 30.901 98.1167 30.6094H97.9995V37H95.1714ZM97.9448 26.5C97.9448 27.276 98.0542 27.9557 98.273 28.5391C98.4969 29.1224 98.8172 29.5781 99.2339 29.9062C99.6558 30.2292 100.166 30.3906 100.765 30.3906C101.39 30.3906 101.914 30.224 102.335 29.8906C102.757 29.5521 103.075 29.0911 103.289 28.5078C103.507 27.9193 103.617 27.25 103.617 26.5C103.617 25.7552 103.51 25.0937 103.296 24.5156C103.083 23.9375 102.765 23.4844 102.343 23.1562C101.921 22.8281 101.395 22.6641 100.765 22.6641C100.161 22.6641 99.648 22.8229 99.2261 23.1406C98.8042 23.4583 98.4839 23.9036 98.2652 24.4766C98.0516 25.0495 97.9448 25.724 97.9448 26.5ZM114.146 32.7344C112.974 32.7344 111.958 32.4766 111.099 31.9609C110.24 31.4453 109.573 30.724 109.099 29.7969C108.63 28.8698 108.396 27.7865 108.396 26.5469C108.396 25.3073 108.63 24.2214 109.099 23.2891C109.573 22.3568 110.24 21.6328 111.099 21.1172C111.958 20.6016 112.974 20.3438 114.146 20.3438C115.318 20.3438 116.333 20.6016 117.193 21.1172C118.052 21.6328 118.716 22.3568 119.185 23.2891C119.659 24.2214 119.896 25.3073 119.896 26.5469C119.896 27.7865 119.659 28.8698 119.185 29.7969C118.716 30.724 118.052 31.4453 117.193 31.9609C116.333 32.4766 115.318 32.7344 114.146 32.7344ZM114.161 30.4687C114.797 30.4687 115.328 30.2943 115.755 29.9453C116.182 29.5911 116.5 29.1172 116.708 28.5234C116.922 27.9297 117.029 27.2682 117.029 26.5391C117.029 25.8047 116.922 25.1406 116.708 24.5469C116.5 23.9479 116.182 23.4714 115.755 23.1172C115.328 22.763 114.797 22.5859 114.161 22.5859C113.51 22.5859 112.969 22.763 112.536 23.1172C112.109 23.4714 111.789 23.9479 111.575 24.5469C111.367 25.1406 111.263 25.8047 111.263 26.5391C111.263 27.2682 111.367 27.9297 111.575 28.5234C111.789 29.1172 112.109 29.5911 112.536 29.9453C112.969 30.2943 113.51 30.4687 114.161 30.4687ZM127.858 32.5V16.5H138.108V18.9297H130.757V23.2734H137.405V25.7031H130.757V32.5H127.858ZM144.967 32.7344C143.795 32.7344 142.78 32.4766 141.92 31.9609C141.061 31.4453 140.394 30.724 139.92 29.7969C139.452 28.8698 139.217 27.7865 139.217 26.5469C139.217 25.3073 139.452 24.2214 139.92 23.2891C140.394 22.3568 141.061 21.6328 141.92 21.1172C142.78 20.6016 143.795 20.3438 144.967 20.3438C146.139 20.3438 147.155 20.6016 148.014 21.1172C148.874 21.6328 149.538 22.3568 150.006 23.2891C150.48 24.2214 150.717 25.3073 150.717 26.5469C150.717 27.7865 150.48 28.8698 150.006 29.7969C149.538 30.724 148.874 31.4453 148.014 31.9609C147.155 32.4766 146.139 32.7344 144.967 32.7344ZM144.983 30.4687C145.618 30.4687 146.15 30.2943 146.577 29.9453C147.004 29.5911 147.322 29.1172 147.53 28.5234C147.743 27.9297 147.85 27.2682 147.85 26.5391C147.85 25.8047 147.743 25.1406 147.53 24.5469C147.322 23.9479 147.004 23.4714 146.577 23.1172C146.15 22.763 145.618 22.5859 144.983 22.5859C144.332 22.5859 143.79 22.763 143.358 23.1172C142.931 23.4714 142.611 23.9479 142.397 24.5469C142.189 25.1406 142.085 25.8047 142.085 26.5391C142.085 27.2682 142.189 27.9297 142.397 28.5234C142.611 29.1172 142.931 29.5911 143.358 29.9453C143.79 30.2943 144.332 30.4687 144.983 30.4687ZM155.936 25.4687V32.5H153.108V20.5H155.811V22.5391H155.951C156.228 21.8672 156.668 21.3333 157.272 20.9375C157.881 20.5417 158.634 20.3438 159.53 20.3438C160.358 20.3438 161.079 20.5208 161.694 20.875C162.313 21.2292 162.793 21.7422 163.131 22.4141C163.475 23.0859 163.644 23.901 163.639 24.8594V32.5H160.811V25.2969C160.811 24.4948 160.603 23.8672 160.186 23.4141C159.774 22.9609 159.204 22.7344 158.475 22.7344C157.98 22.7344 157.54 22.8437 157.155 23.0625C156.774 23.276 156.475 23.5859 156.256 23.9922C156.043 24.3984 155.936 24.8906 155.936 25.4687ZM172.496 20.5V22.6875H165.598V20.5H172.496ZM167.301 17.625H170.129V28.8906C170.129 29.2708 170.186 29.5625 170.301 29.7656C170.421 29.9635 170.577 30.099 170.77 30.1719C170.962 30.2448 171.176 30.2812 171.41 30.2812C171.587 30.2812 171.749 30.2682 171.895 30.2422C172.046 30.2161 172.16 30.1927 172.238 30.1719L172.715 32.3828C172.564 32.4349 172.348 32.4922 172.066 32.5547C171.79 32.6172 171.452 32.6536 171.051 32.6641C170.343 32.6849 169.705 32.5781 169.137 32.3437C168.569 32.1042 168.119 31.7344 167.785 31.2344C167.457 30.7344 167.296 30.1094 167.301 29.3594V17.625Z" fill="#55B467"/>
<defs>
<radialGradient id="paint0_radial_107_180" cx="0" cy="0" r="1" gradientUnits="userSpaceOnUse" gradientTransform="translate(4 4) rotate(90) scale(32)">
<stop stop-color="white"/>
<stop offset="1" stop-color="white" stop-opacity="0"/>
</radialGradient>
<clipPath id="clip0_107_180">
<rect width="48" height="48" rx="10" fill="white"/>
</clipPath>
</defs>
</svg>
