<svg width="237" height="48" viewBox="0 0 237 48" fill="none" xmlns="http://www.w3.org/2000/svg">
<g clip-path="url(#clip0_303_110)">
<rect width="48" height="48" rx="10" fill="#65BA75"/>
<g opacity="0.4">
<rect x="-28" y="-28" width="64" height="64" rx="10" fill="url(#paint0_radial_303_110)"/>
</g>
<path opacity="0.4" d="M28.2 15H19.8C18.1198 15 17.2798 15 16.638 15.327C16.0735 15.6146 15.6146 16.0735 15.327 16.638C15 17.2798 15 18.1198 15 19.8V28.2C15 29.8802 15 30.7202 15.327 31.362C15.6146 31.9265 16.0735 32.3854 16.638 32.673C17.2798 33 18.1198 33 19.8 33H28.2C29.8802 33 30.7202 33 31.362 32.673C31.9265 32.3854 32.3854 31.9265 32.673 31.362C33 30.7202 33 29.8802 33 28.2V19.8C33 18.1198 33 17.2798 32.673 16.638C32.3854 16.0735 31.9265 15.6146 31.362 15.327C30.7202 15 29.8802 15 28.2 15Z" stroke="white" stroke-width="2" stroke-linecap="round" stroke-linejoin="round"/>
<path d="M29.5 18.5L18.5 18.5" stroke="white" stroke-width="2" stroke-linecap="round" stroke-linejoin="round"/>
</g>
<path d="M69.5781 32.5V16.5H79.9844V18.9297H72.4766V23.2734H79.4453V25.7031H72.4766V30.0703H80.0469V32.5H69.5781ZM85.1189 20.5L87.5408 24.9297L90.0017 20.5H92.9939L89.3767 26.5L93.0564 32.5H90.0798L87.5408 28.1797L85.0252 32.5H82.0252L85.6814 26.5L82.1189 20.5H85.1189ZM95.1714 37V20.5H97.9527V22.4844H98.1167C98.2626 22.1927 98.4683 21.8828 98.7339 21.5547C98.9995 21.2214 99.3589 20.9375 99.812 20.7031C100.265 20.4635 100.843 20.3438 101.546 20.3438C102.473 20.3438 103.309 20.5807 104.054 21.0547C104.804 21.5234 105.398 22.2187 105.835 23.1406C106.278 24.0573 106.5 25.1823 106.5 26.5156C106.5 27.8333 106.283 28.9531 105.851 29.875C105.419 30.7969 104.83 31.5 104.085 31.9844C103.341 32.4688 102.497 32.7109 101.554 32.7109C100.867 32.7109 100.296 32.5964 99.8433 32.3672C99.3902 32.138 99.0256 31.862 98.7495 31.5391C98.4787 31.2109 98.2678 30.901 98.1167 30.6094H97.9995V37H95.1714ZM97.9448 26.5C97.9448 27.276 98.0542 27.9557 98.273 28.5391C98.4969 29.1224 98.8172 29.5781 99.2339 29.9062C99.6558 30.2292 100.166 30.3906 100.765 30.3906C101.39 30.3906 101.914 30.224 102.335 29.8906C102.757 29.5521 103.075 29.0911 103.289 28.5078C103.507 27.9193 103.617 27.25 103.617 26.5C103.617 25.7552 103.51 25.0937 103.296 24.5156C103.083 23.9375 102.765 23.4844 102.343 23.1562C101.921 22.8281 101.395 22.6641 100.765 22.6641C100.161 22.6641 99.648 22.8229 99.2261 23.1406C98.8042 23.4583 98.4839 23.9036 98.2652 24.4766C98.0516 25.0495 97.9448 25.724 97.9448 26.5ZM114.146 32.7344C112.974 32.7344 111.958 32.4766 111.099 31.9609C110.24 31.4453 109.573 30.724 109.099 29.7969C108.63 28.8698 108.396 27.7865 108.396 26.5469C108.396 25.3073 108.63 24.2214 109.099 23.2891C109.573 22.3568 110.24 21.6328 111.099 21.1172C111.958 20.6016 112.974 20.3438 114.146 20.3438C115.318 20.3438 116.333 20.6016 117.193 21.1172C118.052 21.6328 118.716 22.3568 119.185 23.2891C119.659 24.2214 119.896 25.3073 119.896 26.5469C119.896 27.7865 119.659 28.8698 119.185 29.7969C118.716 30.724 118.052 31.4453 117.193 31.9609C116.333 32.4766 115.318 32.7344 114.146 32.7344ZM114.161 30.4687C114.797 30.4687 115.328 30.2943 115.755 29.9453C116.182 29.5911 116.5 29.1172 116.708 28.5234C116.922 27.9297 117.029 27.2682 117.029 26.5391C117.029 25.8047 116.922 25.1406 116.708 24.5469C116.5 23.9479 116.182 23.4714 115.755 23.1172C115.328 22.763 114.797 22.5859 114.161 22.5859C113.51 22.5859 112.969 22.763 112.536 23.1172C112.109 23.4714 111.789 23.9479 111.575 24.5469C111.367 25.1406 111.263 25.8047 111.263 26.5391C111.263 27.2682 111.367 27.9297 111.575 28.5234C111.789 29.1172 112.109 29.5911 112.536 29.9453C112.969 30.2943 113.51 30.4687 114.161 30.4687ZM136.554 20.8984C136.481 20.2161 136.173 19.6849 135.632 19.3047C135.095 18.9245 134.397 18.7344 133.538 18.7344C132.934 18.7344 132.415 18.8255 131.983 19.0078C131.551 19.1901 131.22 19.4375 130.991 19.75C130.762 20.0625 130.645 20.4193 130.639 20.8203C130.639 21.1536 130.715 21.4427 130.866 21.6875C131.022 21.9323 131.233 22.1406 131.499 22.3125C131.764 22.4792 132.059 22.6198 132.382 22.7344C132.705 22.849 133.03 22.9453 133.358 23.0234L134.858 23.3984C135.462 23.5391 136.043 23.7292 136.6 23.9687C137.163 24.2083 137.665 24.5104 138.108 24.875C138.556 25.2396 138.91 25.6797 139.171 26.1953C139.431 26.7109 139.561 27.3151 139.561 28.0078C139.561 28.9453 139.322 29.7708 138.843 30.4844C138.363 31.1927 137.671 31.7474 136.764 32.1484C135.863 32.5443 134.772 32.7422 133.491 32.7422C132.246 32.7422 131.165 32.5495 130.249 32.1641C129.337 31.7786 128.624 31.2161 128.108 30.4766C127.598 29.737 127.322 28.8359 127.28 27.7734H130.132C130.173 28.3307 130.345 28.7943 130.647 29.1641C130.949 29.5339 131.343 29.8099 131.827 29.9922C132.317 30.1745 132.863 30.2656 133.468 30.2656C134.098 30.2656 134.65 30.1719 135.124 29.9844C135.603 29.7917 135.978 29.526 136.249 29.1875C136.52 28.8437 136.658 28.4427 136.663 27.9844C136.658 27.5677 136.535 27.224 136.296 26.9531C136.056 26.6771 135.72 26.4479 135.288 26.2656C134.861 26.0781 134.361 25.9115 133.788 25.7656L131.968 25.2969C130.65 24.9583 129.608 24.4453 128.843 23.7578C128.082 23.0651 127.702 22.1458 127.702 21C127.702 20.0573 127.957 19.2318 128.468 18.5234C128.983 17.8151 129.684 17.2656 130.569 16.875C131.455 16.4792 132.457 16.2812 133.577 16.2812C134.712 16.2812 135.707 16.4792 136.561 16.875C137.421 17.2656 138.095 17.8099 138.585 18.5078C139.074 19.2005 139.327 19.9974 139.343 20.8984H136.554ZM148.003 20.5V22.6875H141.104V20.5H148.003ZM142.807 17.625H145.635V28.8906C145.635 29.2708 145.693 29.5625 145.807 29.7656C145.927 29.9635 146.083 30.099 146.276 30.1719C146.469 30.2448 146.682 30.2812 146.917 30.2812C147.094 30.2812 147.255 30.2682 147.401 30.2422C147.552 30.2161 147.667 30.1927 147.745 30.1719L148.221 32.3828C148.07 32.4349 147.854 32.4922 147.573 32.5547C147.297 32.6172 146.958 32.6536 146.557 32.6641C145.849 32.6849 145.211 32.5781 144.643 32.3437C144.075 32.1042 143.625 31.7344 143.292 31.2344C142.963 30.7344 142.802 30.1094 142.807 29.3594V17.625ZM153.811 32.7422C153.05 32.7422 152.366 32.6068 151.756 32.3359C151.152 32.0599 150.673 31.6536 150.319 31.1172C149.97 30.5807 149.795 29.9193 149.795 29.1328C149.795 28.4557 149.92 27.8958 150.17 27.4531C150.42 27.0104 150.761 26.6562 151.194 26.3906C151.626 26.125 152.113 25.9245 152.655 25.7891C153.201 25.6484 153.767 25.5469 154.35 25.4844C155.053 25.4115 155.623 25.3464 156.061 25.2891C156.498 25.2266 156.816 25.1328 157.014 25.0078C157.217 24.8776 157.319 24.6771 157.319 24.4062V24.3594C157.319 23.7708 157.144 23.3151 156.795 22.9922C156.446 22.6693 155.944 22.5078 155.287 22.5078C154.595 22.5078 154.045 22.6589 153.639 22.9609C153.238 23.263 152.967 23.6198 152.826 24.0312L150.186 23.6562C150.394 22.9271 150.738 22.3177 151.217 21.8281C151.696 21.3333 152.282 20.9635 152.975 20.7187C153.668 20.4688 154.433 20.3438 155.272 20.3438C155.85 20.3438 156.425 20.4115 156.998 20.5469C157.571 20.6823 158.095 20.9062 158.569 21.2187C159.043 21.526 159.423 21.9453 159.709 22.4766C160.001 23.0078 160.147 23.6719 160.147 24.4687V32.5H157.428V30.8516H157.334C157.162 31.1849 156.92 31.4974 156.608 31.7891C156.3 32.0755 155.912 32.3073 155.444 32.4844C154.98 32.6563 154.436 32.7422 153.811 32.7422ZM154.545 30.6641C155.113 30.6641 155.605 30.5521 156.022 30.3281C156.438 30.099 156.759 29.7969 156.983 29.4219C157.212 29.0469 157.326 28.638 157.326 28.1953V26.7812C157.238 26.8542 157.087 26.9219 156.873 26.9844C156.665 27.0469 156.431 27.1016 156.17 27.1484C155.91 27.1953 155.652 27.237 155.397 27.2734C155.142 27.3099 154.92 27.3411 154.733 27.3672C154.311 27.4245 153.933 27.5182 153.6 27.6484C153.267 27.7786 153.004 27.9609 152.811 28.1953C152.618 28.4245 152.522 28.7214 152.522 29.0859C152.522 29.6068 152.712 30 153.092 30.2656C153.472 30.5312 153.957 30.6641 154.545 30.6641ZM168.973 20.5V22.6875H162.074V20.5H168.973ZM163.777 17.625H166.606V28.8906C166.606 29.2708 166.663 29.5625 166.777 29.7656C166.897 29.9635 167.053 30.099 167.246 30.1719C167.439 30.2448 167.652 30.2812 167.887 30.2812C168.064 30.2812 168.225 30.2682 168.371 30.2422C168.522 30.2161 168.637 30.1927 168.715 30.1719L169.191 32.3828C169.04 32.4349 168.824 32.4922 168.543 32.5547C168.267 32.6172 167.928 32.6536 167.527 32.6641C166.819 32.6849 166.181 32.5781 165.613 32.3437C165.046 32.1042 164.595 31.7344 164.262 31.2344C163.934 30.7344 163.772 30.1094 163.777 29.3594V17.625ZM178.976 27.4531V20.5H181.805V32.5H179.062V30.3672H178.937C178.667 31.0391 178.221 31.5885 177.601 32.0156C176.987 32.4427 176.229 32.6563 175.328 32.6563C174.542 32.6563 173.846 32.4818 173.242 32.1328C172.643 31.7786 172.174 31.2656 171.836 30.5938C171.497 29.9167 171.328 29.099 171.328 28.1406V20.5H174.156V27.7031C174.156 28.4635 174.364 29.0677 174.781 29.5156C175.198 29.9635 175.745 30.1875 176.422 30.1875C176.838 30.1875 177.242 30.0859 177.633 29.8828C178.023 29.6797 178.344 29.3776 178.594 28.9766C178.849 28.5703 178.976 28.0625 178.976 27.4531ZM194.187 23.6719L191.609 23.9531C191.536 23.6927 191.408 23.4479 191.226 23.2188C191.049 22.9896 190.81 22.8047 190.507 22.6641C190.205 22.5234 189.836 22.4531 189.398 22.4531C188.81 22.4531 188.315 22.5807 187.914 22.8359C187.518 23.0911 187.323 23.4219 187.328 23.8281C187.323 24.1771 187.45 24.4609 187.711 24.6797C187.976 24.8984 188.414 25.0781 189.023 25.2188L191.07 25.6562C192.205 25.901 193.049 26.2891 193.601 26.8203C194.158 27.3516 194.44 28.0469 194.445 28.9062C194.44 29.6615 194.218 30.3281 193.781 30.9062C193.349 31.4792 192.747 31.9271 191.976 32.25C191.205 32.5729 190.32 32.7344 189.32 32.7344C187.851 32.7344 186.669 32.4271 185.773 31.8125C184.877 31.1927 184.343 30.3307 184.171 29.2266L186.929 28.9609C187.054 29.5026 187.32 29.9115 187.726 30.1875C188.132 30.4635 188.661 30.6016 189.312 30.6016C189.984 30.6016 190.523 30.4635 190.929 30.1875C191.341 29.9115 191.546 29.5703 191.546 29.1641C191.546 28.8203 191.414 28.5365 191.148 28.3125C190.888 28.0885 190.481 27.9167 189.929 27.7969L187.882 27.3672C186.731 27.1276 185.88 26.724 185.328 26.1562C184.776 25.5833 184.502 24.8594 184.507 23.9844C184.502 23.2448 184.703 22.6042 185.109 22.0625C185.52 21.5156 186.091 21.0937 186.82 20.7969C187.554 20.4948 188.401 20.3438 189.359 20.3438C190.765 20.3438 191.872 20.6432 192.679 21.2422C193.492 21.8411 193.994 22.651 194.187 23.6719ZM202.339 32.5V16.5H208.464C209.62 16.5 210.581 16.6823 211.347 17.0469C212.118 17.4062 212.693 17.8984 213.073 18.5234C213.459 19.1484 213.651 19.8568 213.651 20.6484C213.651 21.2995 213.526 21.8568 213.276 22.3203C213.026 22.7786 212.691 23.151 212.269 23.4375C211.847 23.724 211.375 23.9297 210.855 24.0547V24.2109C211.422 24.2422 211.967 24.4167 212.487 24.7344C213.013 25.0469 213.443 25.4896 213.776 26.0625C214.11 26.6354 214.276 27.3281 214.276 28.1406C214.276 28.9687 214.076 29.7135 213.675 30.375C213.274 31.0312 212.67 31.5495 211.862 31.9297C211.055 32.3099 210.04 32.5 208.816 32.5H202.339ZM205.237 30.0781H208.355C209.407 30.0781 210.165 29.8776 210.628 29.4766C211.097 29.0703 211.331 28.5495 211.331 27.9141C211.331 27.4401 211.214 27.013 210.98 26.6328C210.745 26.2474 210.412 25.9453 209.98 25.7266C209.547 25.5026 209.032 25.3906 208.433 25.3906H205.237V30.0781ZM205.237 23.3047H208.105C208.605 23.3047 209.055 23.2135 209.456 23.0312C209.857 22.8437 210.172 22.5807 210.401 22.2422C210.636 21.8984 210.753 21.4922 210.753 21.0234C210.753 20.4036 210.534 19.8932 210.097 19.4922C209.665 19.0911 209.021 18.8906 208.167 18.8906H205.237V23.3047ZM220.116 32.7422C219.356 32.7422 218.671 32.6068 218.061 32.3359C217.457 32.0599 216.978 31.6536 216.624 31.1172C216.275 30.5807 216.1 29.9193 216.1 29.1328C216.1 28.4557 216.225 27.8958 216.475 27.4531C216.725 27.0104 217.067 26.6562 217.499 26.3906C217.931 26.125 218.418 25.9245 218.96 25.7891C219.507 25.6484 220.072 25.5469 220.655 25.4844C221.358 25.4115 221.929 25.3464 222.366 25.2891C222.804 25.2266 223.121 25.1328 223.319 25.0078C223.522 24.8776 223.624 24.6771 223.624 24.4062V24.3594C223.624 23.7708 223.449 23.3151 223.1 22.9922C222.752 22.6693 222.249 22.5078 221.593 22.5078C220.9 22.5078 220.35 22.6589 219.944 22.9609C219.543 23.263 219.272 23.6198 219.132 24.0312L216.491 23.6562C216.699 22.9271 217.043 22.3177 217.522 21.8281C218.002 21.3333 218.587 20.9635 219.28 20.7187C219.973 20.4688 220.738 20.3438 221.577 20.3438C222.155 20.3438 222.731 20.4115 223.304 20.5469C223.877 20.6823 224.4 20.9062 224.874 21.2187C225.348 21.526 225.728 21.9453 226.015 22.4766C226.306 23.0078 226.452 23.6719 226.452 24.4687V32.5H223.733V30.8516H223.64C223.468 31.1849 223.225 31.4974 222.913 31.7891C222.606 32.0755 222.218 32.3073 221.749 32.4844C221.285 32.6563 220.741 32.7422 220.116 32.7422ZM220.85 30.6641C221.418 30.6641 221.91 30.5521 222.327 30.3281C222.744 30.099 223.064 29.7969 223.288 29.4219C223.517 29.0469 223.632 28.638 223.632 28.1953V26.7812C223.543 26.8542 223.392 26.9219 223.179 26.9844C222.97 27.0469 222.736 27.1016 222.475 27.1484C222.215 27.1953 221.957 27.237 221.702 27.2734C221.447 27.3099 221.225 27.3411 221.038 27.3672C220.616 27.4245 220.238 27.5182 219.905 27.6484C219.572 27.7786 219.309 27.9609 219.116 28.1953C218.923 28.4245 218.827 28.7214 218.827 29.0859C218.827 29.6068 219.017 30 219.397 30.2656C219.778 30.5312 220.262 30.6641 220.85 30.6641ZM229.286 32.5V20.5H232.028V22.5H232.153C232.372 21.8073 232.747 21.2734 233.278 20.8984C233.814 20.5182 234.426 20.3281 235.114 20.3281C235.27 20.3281 235.445 20.3359 235.637 20.3516C235.835 20.362 235.999 20.3802 236.13 20.4062V23.0078C236.01 22.9661 235.82 22.9297 235.559 22.8984C235.304 22.862 235.057 22.8437 234.817 22.8437C234.301 22.8437 233.838 22.9557 233.426 23.1797C233.02 23.3984 232.7 23.7031 232.465 24.0937C232.231 24.4844 232.114 24.9349 232.114 25.4453V32.5H229.286Z" fill="#65BA75"/>
<defs>
<radialGradient id="paint0_radial_303_110" cx="0" cy="0" r="1" gradientUnits="userSpaceOnUse" gradientTransform="translate(4 4) rotate(90) scale(32)">
<stop stop-color="white"/>
<stop offset="1" stop-color="white" stop-opacity="0"/>
</radialGradient>
<clipPath id="clip0_303_110">
<rect width="48" height="48" rx="10" fill="white"/>
</clipPath>
</defs>
</svg>
