<svg width="210" height="48" viewBox="0 0 210 48" fill="none" xmlns="http://www.w3.org/2000/svg">
<g clip-path="url(#clip0_22_18)">
<rect width="48" height="48" rx="10" fill="#DB4324"/>
<g opacity="0.4">
<rect x="-28" y="-28" width="64" height="64" rx="10" fill="url(#paint0_radial_22_18)"/>
</g>
<path opacity="0.4" d="M31 20V14M28 17H34" stroke="white" stroke-width="2" stroke-linecap="round" stroke-linejoin="round"/>
<path d="M34 23.5V26.6C34 28.8402 34 29.9603 33.564 30.816C33.1805 31.5686 32.5686 32.1805 31.816 32.564C30.9603 33 29.8402 33 27.6 33H20.4C18.1598 33 17.0397 33 16.184 32.564C15.4314 32.1805 14.8195 31.5686 14.436 30.816C14 29.9603 14 28.8402 14 26.6V21.4C14 19.1598 14 18.0397 14.436 17.184C14.8195 16.4314 15.4314 15.8195 16.184 15.436C17.0397 15 18.1598 15 20.4 15H24.5M28 24C28 26.2091 26.2091 28 24 28C21.7909 28 20 26.2091 20 24C20 21.7909 21.7909 20 24 20C26.2091 20 28 21.7909 28 24Z" stroke="white" stroke-width="2" stroke-linecap="round" stroke-linejoin="round"/>
</g>
<path d="M69.5781 32.5V16.5H79.9844V18.9297H72.4766V23.2734H79.4453V25.7031H72.4766V30.0703H80.0469V32.5H69.5781ZM85.1189 20.5L87.5408 24.9297L90.0017 20.5H92.9939L89.3767 26.5L93.0564 32.5H90.0798L87.5408 28.1797L85.0252 32.5H82.0252L85.6814 26.5L82.1189 20.5H85.1189ZM95.1714 37V20.5H97.9527V22.4844H98.1167C98.2626 22.1927 98.4683 21.8828 98.7339 21.5547C98.9995 21.2214 99.3589 20.9375 99.812 20.7031C100.265 20.4635 100.843 20.3438 101.546 20.3438C102.473 20.3438 103.309 20.5807 104.054 21.0547C104.804 21.5234 105.398 22.2187 105.835 23.1406C106.278 24.0573 106.5 25.1823 106.5 26.5156C106.5 27.8333 106.283 28.9531 105.851 29.875C105.419 30.7969 104.83 31.5 104.085 31.9844C103.341 32.4688 102.497 32.7109 101.554 32.7109C100.867 32.7109 100.296 32.5964 99.8433 32.3672C99.3902 32.138 99.0256 31.862 98.7495 31.5391C98.4787 31.2109 98.2678 30.901 98.1167 30.6094H97.9995V37H95.1714ZM97.9448 26.5C97.9448 27.276 98.0542 27.9557 98.273 28.5391C98.4969 29.1224 98.8172 29.5781 99.2339 29.9062C99.6558 30.2292 100.166 30.3906 100.765 30.3906C101.39 30.3906 101.914 30.224 102.335 29.8906C102.757 29.5521 103.075 29.0911 103.289 28.5078C103.507 27.9193 103.617 27.25 103.617 26.5C103.617 25.7552 103.51 25.0937 103.296 24.5156C103.083 23.9375 102.765 23.4844 102.343 23.1562C101.921 22.8281 101.395 22.6641 100.765 22.6641C100.161 22.6641 99.648 22.8229 99.2261 23.1406C98.8042 23.4583 98.4839 23.9036 98.2652 24.4766C98.0516 25.0495 97.9448 25.724 97.9448 26.5ZM114.146 32.7344C112.974 32.7344 111.958 32.4766 111.099 31.9609C110.24 31.4453 109.573 30.724 109.099 29.7969C108.63 28.8698 108.396 27.7865 108.396 26.5469C108.396 25.3073 108.63 24.2214 109.099 23.2891C109.573 22.3568 110.24 21.6328 111.099 21.1172C111.958 20.6016 112.974 20.3438 114.146 20.3438C115.318 20.3438 116.333 20.6016 117.193 21.1172C118.052 21.6328 118.716 22.3568 119.185 23.2891C119.659 24.2214 119.896 25.3073 119.896 26.5469C119.896 27.7865 119.659 28.8698 119.185 29.7969C118.716 30.724 118.052 31.4453 117.193 31.9609C116.333 32.4766 115.318 32.7344 114.146 32.7344ZM114.161 30.4687C114.797 30.4687 115.328 30.2943 115.755 29.9453C116.182 29.5911 116.5 29.1172 116.708 28.5234C116.922 27.9297 117.029 27.2682 117.029 26.5391C117.029 25.8047 116.922 25.1406 116.708 24.5469C116.5 23.9479 116.182 23.4714 115.755 23.1172C115.328 22.763 114.797 22.5859 114.161 22.5859C113.51 22.5859 112.969 22.763 112.536 23.1172C112.109 23.4714 111.789 23.9479 111.575 24.5469C111.367 25.1406 111.263 25.8047 111.263 26.5391C111.263 27.2682 111.367 27.9297 111.575 28.5234C111.789 29.1172 112.109 29.5911 112.536 29.9453C112.969 30.2943 113.51 30.4687 114.161 30.4687ZM141.554 21.8984H138.632C138.548 21.4193 138.395 20.9948 138.171 20.625C137.947 20.25 137.668 19.9323 137.335 19.6719C137.001 19.4115 136.621 19.2161 136.194 19.0859C135.772 18.9505 135.317 18.8828 134.827 18.8828C133.957 18.8828 133.186 19.1016 132.514 19.5391C131.843 19.9714 131.317 20.6068 130.936 21.4453C130.556 22.2786 130.366 23.2969 130.366 24.5C130.366 25.724 130.556 26.7552 130.936 27.5937C131.322 28.4271 131.848 29.0573 132.514 29.4844C133.186 29.9062 133.955 30.1172 134.819 30.1172C135.298 30.1172 135.746 30.0547 136.163 29.9297C136.585 29.7995 136.962 29.6094 137.296 29.3594C137.634 29.1094 137.918 28.8021 138.147 28.4375C138.382 28.0729 138.543 27.6562 138.632 27.1875L141.554 27.2031C141.444 27.9635 141.207 28.6771 140.843 29.3438C140.483 30.0104 140.012 30.599 139.429 31.1094C138.845 31.6146 138.163 32.0104 137.382 32.2969C136.6 32.5781 135.733 32.7187 134.78 32.7187C133.374 32.7187 132.119 32.3932 131.014 31.7422C129.91 31.0911 129.04 30.151 128.405 28.9219C127.77 27.6927 127.452 26.2187 127.452 24.5C127.452 22.776 127.772 21.3021 128.413 20.0781C129.054 18.849 129.926 17.9089 131.03 17.2578C132.134 16.6068 133.384 16.2812 134.78 16.2812C135.671 16.2812 136.499 16.4062 137.264 16.6562C138.03 16.9062 138.712 17.2734 139.311 17.7578C139.91 18.237 140.402 18.8255 140.788 19.5234C141.179 20.2161 141.434 21.0078 141.554 21.8984ZM147.526 32.7422C146.766 32.7422 146.081 32.6068 145.471 32.3359C144.867 32.0599 144.388 31.6536 144.034 31.1172C143.685 30.5807 143.51 29.9193 143.51 29.1328C143.51 28.4557 143.635 27.8958 143.885 27.4531C144.135 27.0104 144.476 26.6562 144.909 26.3906C145.341 26.125 145.828 25.9245 146.37 25.7891C146.917 25.6484 147.482 25.5469 148.065 25.4844C148.768 25.4115 149.338 25.3464 149.776 25.2891C150.213 25.2266 150.531 25.1328 150.729 25.0078C150.932 24.8776 151.034 24.6771 151.034 24.4062V24.3594C151.034 23.7708 150.859 23.3151 150.51 22.9922C150.161 22.6693 149.659 22.5078 149.003 22.5078C148.31 22.5078 147.76 22.6589 147.354 22.9609C146.953 23.263 146.682 23.6198 146.542 24.0312L143.901 23.6562C144.109 22.9271 144.453 22.3177 144.932 21.8281C145.411 21.3333 145.997 20.9635 146.69 20.7187C147.383 20.4688 148.148 20.3438 148.987 20.3438C149.565 20.3438 150.141 20.4115 150.713 20.5469C151.286 20.6823 151.81 20.9062 152.284 21.2187C152.758 21.526 153.138 21.9453 153.424 22.4766C153.716 23.0078 153.862 23.6719 153.862 24.4687V32.5H151.143V30.8516H151.049C150.878 31.1849 150.635 31.4974 150.323 31.7891C150.016 32.0755 149.628 32.3073 149.159 32.4844C148.695 32.6563 148.151 32.7422 147.526 32.7422ZM148.26 30.6641C148.828 30.6641 149.32 30.5521 149.737 30.3281C150.154 30.099 150.474 29.7969 150.698 29.4219C150.927 29.0469 151.042 28.638 151.042 28.1953V26.7812C150.953 26.8542 150.802 26.9219 150.588 26.9844C150.38 27.0469 150.146 27.1016 149.885 27.1484C149.625 27.1953 149.367 27.237 149.112 27.2734C148.857 27.3099 148.635 27.3411 148.448 27.3672C148.026 27.4245 147.648 27.5182 147.315 27.6484C146.982 27.7786 146.719 27.9609 146.526 28.1953C146.333 28.4245 146.237 28.7214 146.237 29.0859C146.237 29.6068 146.427 30 146.807 30.2656C147.187 30.5312 147.672 30.6641 148.26 30.6641ZM156.696 32.5V20.5H159.399V22.5391H159.539C159.789 21.8516 160.203 21.3151 160.782 20.9297C161.36 20.5391 162.05 20.3438 162.852 20.3438C163.664 20.3438 164.349 20.5417 164.907 20.9375C165.469 21.3281 165.865 21.862 166.094 22.5391H166.219C166.485 21.8724 166.933 21.3411 167.563 20.9453C168.198 20.5443 168.951 20.3438 169.821 20.3438C170.925 20.3438 171.826 20.6927 172.524 21.3906C173.222 22.0885 173.571 23.1068 173.571 24.4453V32.5H170.735V24.8828C170.735 24.138 170.537 23.5937 170.141 23.25C169.745 22.901 169.261 22.7266 168.688 22.7266C168.006 22.7266 167.472 22.9401 167.086 23.3672C166.706 23.7891 166.516 24.3385 166.516 25.0156V32.5H163.743V24.7656C163.743 24.1458 163.555 23.651 163.18 23.2812C162.81 22.9115 162.326 22.7266 161.727 22.7266C161.321 22.7266 160.951 22.8307 160.618 23.0391C160.284 23.2422 160.019 23.5312 159.821 23.9062C159.623 24.276 159.524 24.7083 159.524 25.2031V32.5H156.696ZM181.742 32.7344C180.539 32.7344 179.5 32.4844 178.625 31.9844C177.755 31.4792 177.086 30.7656 176.617 29.8437C176.149 28.9167 175.914 27.8255 175.914 26.5703C175.914 25.3359 176.149 24.2526 176.617 23.3203C177.091 22.3828 177.753 21.6536 178.602 21.1328C179.451 20.6068 180.448 20.3438 181.594 20.3438C182.333 20.3438 183.031 20.4635 183.688 20.7031C184.349 20.9375 184.932 21.3021 185.438 21.7969C185.948 22.2917 186.349 22.9219 186.641 23.6875C186.932 24.4479 187.078 25.3542 187.078 26.4062V27.2734H177.242V25.3672H184.367C184.362 24.8255 184.245 24.3437 184.016 23.9219C183.787 23.4948 183.466 23.1589 183.055 22.9141C182.649 22.6693 182.175 22.5469 181.633 22.5469C181.055 22.5469 180.547 22.6875 180.109 22.9687C179.672 23.2448 179.331 23.6094 179.086 24.0625C178.846 24.5104 178.724 25.0026 178.719 25.5391V27.2031C178.719 27.901 178.846 28.5 179.102 29C179.357 29.4948 179.714 29.875 180.172 30.1406C180.63 30.401 181.167 30.5312 181.781 30.5312C182.193 30.5312 182.565 30.474 182.899 30.3594C183.232 30.2396 183.521 30.0651 183.766 29.8359C184.01 29.6068 184.195 29.3229 184.32 28.9844L186.961 29.2812C186.794 29.9792 186.477 30.5885 186.008 31.1094C185.544 31.625 184.951 32.026 184.227 32.3125C183.503 32.5937 182.675 32.7344 181.742 32.7344ZM189.461 32.5V20.5H192.203V22.5H192.328C192.547 21.8073 192.922 21.2734 193.453 20.8984C193.989 20.5182 194.601 20.3281 195.289 20.3281C195.445 20.3281 195.62 20.3359 195.812 20.3516C196.01 20.362 196.174 20.3802 196.305 20.4062V23.0078C196.185 22.9661 195.995 22.9297 195.734 22.8984C195.479 22.862 195.232 22.8437 194.992 22.8437C194.476 22.8437 194.013 22.9557 193.601 23.1797C193.195 23.3984 192.875 23.7031 192.64 24.0937C192.406 24.4844 192.289 24.9349 192.289 25.4453V32.5H189.461ZM201.412 32.7422C200.651 32.7422 199.966 32.6068 199.357 32.3359C198.753 32.0599 198.274 31.6536 197.92 31.1172C197.571 30.5807 197.396 29.9193 197.396 29.1328C197.396 28.4557 197.521 27.8958 197.771 27.4531C198.021 27.0104 198.362 26.6562 198.795 26.3906C199.227 26.125 199.714 25.9245 200.255 25.7891C200.802 25.6484 201.367 25.5469 201.951 25.4844C202.654 25.4115 203.224 25.3464 203.662 25.2891C204.099 25.2266 204.417 25.1328 204.615 25.0078C204.818 24.8776 204.92 24.6771 204.92 24.4062V24.3594C204.92 23.7708 204.745 23.3151 204.396 22.9922C204.047 22.6693 203.545 22.5078 202.888 22.5078C202.196 22.5078 201.646 22.6589 201.24 22.9609C200.839 23.263 200.568 23.6198 200.427 24.0312L197.787 23.6562C197.995 22.9271 198.339 22.3177 198.818 21.8281C199.297 21.3333 199.883 20.9635 200.576 20.7187C201.268 20.4688 202.034 20.3438 202.873 20.3438C203.451 20.3438 204.026 20.4115 204.599 20.5469C205.172 20.6823 205.696 20.9062 206.17 21.2187C206.643 21.526 207.024 21.9453 207.31 22.4766C207.602 23.0078 207.748 23.6719 207.748 24.4687V32.5H205.029V30.8516H204.935C204.763 31.1849 204.521 31.4974 204.209 31.7891C203.901 32.0755 203.513 32.3073 203.045 32.4844C202.581 32.6563 202.037 32.7422 201.412 32.7422ZM202.146 30.6641C202.714 30.6641 203.206 30.5521 203.623 30.3281C204.039 30.099 204.36 29.7969 204.584 29.4219C204.813 29.0469 204.927 28.638 204.927 28.1953V26.7812C204.839 26.8542 204.688 26.9219 204.474 26.9844C204.266 27.0469 204.032 27.1016 203.771 27.1484C203.511 27.1953 203.253 27.237 202.998 27.2734C202.742 27.3099 202.521 27.3411 202.334 27.3672C201.912 27.4245 201.534 27.5182 201.201 27.6484C200.867 27.7786 200.604 27.9609 200.412 28.1953C200.219 28.4245 200.123 28.7214 200.123 29.0859C200.123 29.6068 200.313 30 200.693 30.2656C201.073 30.5312 201.558 30.6641 202.146 30.6641Z" fill="#DB4324"/>
<defs>
<radialGradient id="paint0_radial_22_18" cx="0" cy="0" r="1" gradientUnits="userSpaceOnUse" gradientTransform="translate(4 4) rotate(90) scale(32)">
<stop stop-color="white"/>
<stop offset="1" stop-color="white" stop-opacity="0"/>
</radialGradient>
<clipPath id="clip0_22_18">
<rect width="48" height="48" rx="10" fill="white"/>
</clipPath>
</defs>
</svg>
