<svg width="290" height="48" viewBox="0 0 290 48" fill="none" xmlns="http://www.w3.org/2000/svg">
<g clip-path="url(#clip0_37_230)">
<rect width="48" height="48" rx="10" fill="#E93D82"/>
<g opacity="0.4">
<rect x="-28" y="-28" width="64" height="64" rx="10" fill="url(#paint0_radial_37_230)"/>
</g>
<path opacity="0.4" d="M28 23L14 23M34 28C34 29.1046 33.1046 30 32 30C30.8954 30 30 29.1046 30 28C30 26.8954 32 25 32 25C32 25 34 26.8954 34 28Z" stroke="white" stroke-width="2" stroke-linecap="round" stroke-linejoin="round"/>
<path d="M21.9999 16L19.9999 14M25.9999 34L13.9999 34M20.9999 15L27.8686 21.8686C28.2646 22.2646 28.4626 22.4627 28.5368 22.691C28.602 22.8918 28.602 23.1082 28.5368 23.309C28.4626 23.5373 28.2646 23.7354 27.8686 24.1314L23.2627 28.7373C22.4706 29.5293 22.0746 29.9253 21.618 30.0737C21.2163 30.2042 20.7836 30.2042 20.3819 30.0737C19.9253 29.9253 19.5292 29.5293 18.7372 28.7373L15.2627 25.2627C14.4706 24.4707 14.0746 24.0747 13.9263 23.618C13.7957 23.2163 13.7957 22.7837 13.9263 22.382C14.0746 21.9253 14.4707 21.5293 15.2627 20.7373L20.9999 15Z" stroke="white" stroke-width="2" stroke-linecap="round" stroke-linejoin="round"/>
</g>
<path d="M69.5781 32.5V16.5H79.9844V18.9297H72.4766V23.2734H79.4453V25.7031H72.4766V30.0703H80.0469V32.5H69.5781ZM85.1189 20.5L87.5408 24.9297L90.0017 20.5H92.9939L89.3767 26.5L93.0564 32.5H90.0798L87.5408 28.1797L85.0252 32.5H82.0252L85.6814 26.5L82.1189 20.5H85.1189ZM95.1714 37V20.5H97.9527V22.4844H98.1167C98.2626 22.1927 98.4683 21.8828 98.7339 21.5547C98.9995 21.2214 99.3589 20.9375 99.812 20.7031C100.265 20.4635 100.843 20.3438 101.546 20.3438C102.473 20.3438 103.309 20.5807 104.054 21.0547C104.804 21.5234 105.398 22.2187 105.835 23.1406C106.278 24.0573 106.5 25.1823 106.5 26.5156C106.5 27.8333 106.283 28.9531 105.851 29.875C105.419 30.7969 104.83 31.5 104.085 31.9844C103.341 32.4688 102.497 32.7109 101.554 32.7109C100.867 32.7109 100.296 32.5964 99.8433 32.3672C99.3902 32.138 99.0256 31.862 98.7495 31.5391C98.4787 31.2109 98.2678 30.901 98.1167 30.6094H97.9995V37H95.1714ZM97.9448 26.5C97.9448 27.276 98.0542 27.9557 98.273 28.5391C98.4969 29.1224 98.8172 29.5781 99.2339 29.9062C99.6558 30.2292 100.166 30.3906 100.765 30.3906C101.39 30.3906 101.914 30.224 102.335 29.8906C102.757 29.5521 103.075 29.0911 103.289 28.5078C103.507 27.9193 103.617 27.25 103.617 26.5C103.617 25.7552 103.51 25.0937 103.296 24.5156C103.083 23.9375 102.765 23.4844 102.343 23.1562C101.921 22.8281 101.395 22.6641 100.765 22.6641C100.161 22.6641 99.648 22.8229 99.2261 23.1406C98.8042 23.4583 98.4839 23.9036 98.2652 24.4766C98.0516 25.0495 97.9448 25.724 97.9448 26.5ZM114.146 32.7344C112.974 32.7344 111.958 32.4766 111.099 31.9609C110.24 31.4453 109.573 30.724 109.099 29.7969C108.63 28.8698 108.396 27.7865 108.396 26.5469C108.396 25.3073 108.63 24.2214 109.099 23.2891C109.573 22.3568 110.24 21.6328 111.099 21.1172C111.958 20.6016 112.974 20.3438 114.146 20.3438C115.318 20.3438 116.333 20.6016 117.193 21.1172C118.052 21.6328 118.716 22.3568 119.185 23.2891C119.659 24.2214 119.896 25.3073 119.896 26.5469C119.896 27.7865 119.659 28.8698 119.185 29.7969C118.716 30.724 118.052 31.4453 117.193 31.9609C116.333 32.4766 115.318 32.7344 114.146 32.7344ZM114.161 30.4687C114.797 30.4687 115.328 30.2943 115.755 29.9453C116.182 29.5911 116.5 29.1172 116.708 28.5234C116.922 27.9297 117.029 27.2682 117.029 26.5391C117.029 25.8047 116.922 25.1406 116.708 24.5469C116.5 23.9479 116.182 23.4714 115.755 23.1172C115.328 22.763 114.797 22.5859 114.161 22.5859C113.51 22.5859 112.969 22.763 112.536 23.1172C112.109 23.4714 111.789 23.9479 111.575 24.5469C111.367 25.1406 111.263 25.8047 111.263 26.5391C111.263 27.2682 111.367 27.9297 111.575 28.5234C111.789 29.1172 112.109 29.5911 112.536 29.9453C112.969 30.2943 113.51 30.4687 114.161 30.4687ZM127.858 32.5V16.5H130.757V30.0703H137.804V32.5H127.858ZM140.184 32.5V20.5H143.012V32.5H140.184ZM141.606 18.7969C141.158 18.7969 140.773 18.6484 140.45 18.3516C140.127 18.0495 139.965 17.6875 139.965 17.2656C139.965 16.8385 140.127 16.4766 140.45 16.1797C140.773 15.8776 141.158 15.7266 141.606 15.7266C142.059 15.7266 142.445 15.8776 142.762 16.1797C143.085 16.4766 143.247 16.8385 143.247 17.2656C143.247 17.6875 143.085 18.0495 142.762 18.3516C142.445 18.6484 142.059 18.7969 141.606 18.7969ZM148.739 25.4687V32.5H145.91V20.5H148.614V22.5391H148.754C149.03 21.8672 149.47 21.3333 150.075 20.9375C150.684 20.5417 151.437 20.3438 152.332 20.3438C153.16 20.3438 153.882 20.5208 154.496 20.875C155.116 21.2292 155.595 21.7422 155.934 22.4141C156.278 23.0859 156.447 23.901 156.442 24.8594V32.5H153.614V25.2969C153.614 24.4948 153.405 23.8672 152.989 23.4141C152.577 22.9609 152.007 22.7344 151.278 22.7344C150.783 22.7344 150.343 22.8437 149.957 23.0625C149.577 23.276 149.278 23.5859 149.059 23.9922C148.845 24.3984 148.739 24.8906 148.739 25.4687ZM164.619 32.7344C163.416 32.7344 162.377 32.4844 161.502 31.9844C160.632 31.4792 159.963 30.7656 159.494 29.8437C159.025 28.9167 158.791 27.8255 158.791 26.5703C158.791 25.3359 159.025 24.2526 159.494 23.3203C159.968 22.3828 160.63 21.6536 161.479 21.1328C162.328 20.6068 163.325 20.3438 164.471 20.3438C165.21 20.3438 165.908 20.4635 166.565 20.7031C167.226 20.9375 167.809 21.3021 168.315 21.7969C168.825 22.2917 169.226 22.9219 169.518 23.6875C169.809 24.4479 169.955 25.3542 169.955 26.4062V27.2734H160.119V25.3672H167.244C167.239 24.8255 167.122 24.3437 166.893 23.9219C166.663 23.4948 166.343 23.1589 165.932 22.9141C165.525 22.6693 165.052 22.5469 164.51 22.5469C163.932 22.5469 163.424 22.6875 162.986 22.9687C162.549 23.2448 162.208 23.6094 161.963 24.0625C161.723 24.5104 161.601 25.0026 161.596 25.5391V27.2031C161.596 27.901 161.723 28.5 161.979 29C162.234 29.4948 162.591 29.875 163.049 30.1406C163.507 30.401 164.044 30.5312 164.658 30.5312C165.07 30.5312 165.442 30.474 165.775 30.3594C166.109 30.2396 166.398 30.0651 166.643 29.8359C166.887 29.6068 167.072 29.3229 167.197 28.9844L169.838 29.2812C169.671 29.9792 169.354 30.5885 168.885 31.1094C168.421 31.625 167.828 32.026 167.104 32.3125C166.38 32.5937 165.552 32.7344 164.619 32.7344ZM175.791 32.7422C175.03 32.7422 174.346 32.6068 173.736 32.3359C173.132 32.0599 172.653 31.6536 172.299 31.1172C171.95 30.5807 171.775 29.9193 171.775 29.1328C171.775 28.4557 171.9 27.8958 172.15 27.4531C172.4 27.0104 172.741 26.6562 173.174 26.3906C173.606 26.125 174.093 25.9245 174.635 25.7891C175.181 25.6484 175.747 25.5469 176.33 25.4844C177.033 25.4115 177.603 25.3464 178.041 25.2891C178.478 25.2266 178.796 25.1328 178.994 25.0078C179.197 24.8776 179.299 24.6771 179.299 24.4062V24.3594C179.299 23.7708 179.124 23.3151 178.775 22.9922C178.426 22.6693 177.924 22.5078 177.267 22.5078C176.575 22.5078 176.025 22.6589 175.619 22.9609C175.218 23.263 174.947 23.6198 174.806 24.0312L172.166 23.6562C172.374 22.9271 172.718 22.3177 173.197 21.8281C173.676 21.3333 174.262 20.9635 174.955 20.7187C175.648 20.4688 176.413 20.3438 177.252 20.3438C177.83 20.3438 178.405 20.4115 178.978 20.5469C179.551 20.6823 180.075 20.9062 180.549 21.2187C181.023 21.526 181.403 21.9453 181.689 22.4766C181.981 23.0078 182.127 23.6719 182.127 24.4687V32.5H179.408V30.8516H179.314C179.142 31.1849 178.9 31.4974 178.588 31.7891C178.28 32.0755 177.892 32.3073 177.424 32.4844C176.96 32.6563 176.416 32.7422 175.791 32.7422ZM176.525 30.6641C177.093 30.6641 177.585 30.5521 178.002 30.3281C178.418 30.099 178.739 29.7969 178.963 29.4219C179.192 29.0469 179.306 28.638 179.306 28.1953V26.7812C179.218 26.8542 179.067 26.9219 178.853 26.9844C178.645 27.0469 178.411 27.1016 178.15 27.1484C177.89 27.1953 177.632 27.237 177.377 27.2734C177.122 27.3099 176.9 27.3411 176.713 27.3672C176.291 27.4245 175.913 27.5182 175.58 27.6484C175.247 27.7786 174.984 27.9609 174.791 28.1953C174.598 28.4245 174.502 28.7214 174.502 29.0859C174.502 29.6068 174.692 30 175.072 30.2656C175.452 30.5312 175.937 30.6641 176.525 30.6641ZM184.961 32.5V20.5H187.703V22.5H187.828C188.046 21.8073 188.421 21.2734 188.953 20.8984C189.489 20.5182 190.101 20.3281 190.789 20.3281C190.945 20.3281 191.119 20.3359 191.312 20.3516C191.51 20.362 191.674 20.3802 191.804 20.4062V23.0078C191.685 22.9661 191.494 22.9297 191.234 22.8984C190.979 22.862 190.731 22.8437 190.492 22.8437C189.976 22.8437 189.513 22.9557 189.101 23.1797C188.695 23.3984 188.375 23.7031 188.14 24.0937C187.906 24.4844 187.789 24.9349 187.789 25.4453V32.5H184.961ZM209.964 21.6094C209.834 21.1875 209.654 20.8099 209.425 20.4766C209.201 20.138 208.93 19.849 208.612 19.6094C208.3 19.3698 207.941 19.1901 207.534 19.0703C207.128 18.9453 206.685 18.8828 206.206 18.8828C205.347 18.8828 204.581 19.099 203.909 19.5313C203.237 19.9635 202.709 20.599 202.323 21.4375C201.943 22.2708 201.753 23.2865 201.753 24.4844C201.753 25.6927 201.943 26.7161 202.323 27.5547C202.704 28.3932 203.232 29.0312 203.909 29.4687C204.586 29.901 205.373 30.1172 206.269 30.1172C207.081 30.1172 207.784 29.9609 208.378 29.6484C208.977 29.3359 209.438 28.8932 209.761 28.3203C210.084 27.7422 210.245 27.0651 210.245 26.2891L210.901 26.3906H206.558V24.125H213.05V26.0469C213.05 27.4167 212.758 28.6016 212.175 29.6016C211.592 30.6016 210.79 31.3724 209.769 31.9141C208.748 32.4505 207.576 32.7187 206.253 32.7187C204.779 32.7187 203.485 32.388 202.37 31.7266C201.261 31.0599 200.394 30.1146 199.769 28.8906C199.149 27.6615 198.839 26.2031 198.839 24.5156C198.839 23.224 199.021 22.0703 199.386 21.0547C199.756 20.0391 200.271 19.1771 200.933 18.4687C201.594 17.7552 202.37 17.2135 203.261 16.8437C204.151 16.4687 205.12 16.2812 206.167 16.2812C207.053 16.2812 207.878 16.4115 208.644 16.6719C209.409 16.9271 210.089 17.2917 210.683 17.7656C211.282 18.2396 211.774 18.8021 212.159 19.4531C212.545 20.1042 212.797 20.8229 212.917 21.6094H209.964ZM215.718 32.5V20.5H218.46V22.5H218.585C218.804 21.8073 219.179 21.2734 219.71 20.8984C220.246 20.5182 220.858 20.3281 221.546 20.3281C221.702 20.3281 221.877 20.3359 222.069 20.3516C222.267 20.362 222.431 20.3802 222.561 20.4062V23.0078C222.442 22.9661 222.252 22.9297 221.991 22.8984C221.736 22.862 221.488 22.8437 221.249 22.8437C220.733 22.8437 220.27 22.9557 219.858 23.1797C219.452 23.3984 219.132 23.7031 218.897 24.0937C218.663 24.4844 218.546 24.9349 218.546 25.4453V32.5H215.718ZM227.669 32.7422C226.908 32.7422 226.223 32.6068 225.614 32.3359C225.01 32.0599 224.531 31.6536 224.176 31.1172C223.827 30.5807 223.653 29.9193 223.653 29.1328C223.653 28.4557 223.778 27.8958 224.028 27.4531C224.278 27.0104 224.619 26.6562 225.051 26.3906C225.484 26.125 225.971 25.9245 226.512 25.7891C227.059 25.6484 227.624 25.5469 228.208 25.4844C228.911 25.4115 229.481 25.3464 229.919 25.2891C230.356 25.2266 230.674 25.1328 230.872 25.0078C231.075 24.8776 231.176 24.6771 231.176 24.4062V24.3594C231.176 23.7708 231.002 23.3151 230.653 22.9922C230.304 22.6693 229.801 22.5078 229.145 22.5078C228.452 22.5078 227.903 22.6589 227.497 22.9609C227.096 23.263 226.825 23.6198 226.684 24.0312L224.044 23.6562C224.252 22.9271 224.596 22.3177 225.075 21.8281C225.554 21.3333 226.14 20.9635 226.833 20.7187C227.525 20.4688 228.291 20.3438 229.13 20.3438C229.708 20.3438 230.283 20.4115 230.856 20.5469C231.429 20.6823 231.952 20.9062 232.426 21.2187C232.9 21.526 233.281 21.9453 233.567 22.4766C233.859 23.0078 234.005 23.6719 234.005 24.4687V32.5H231.286V30.8516H231.192C231.02 31.1849 230.778 31.4974 230.465 31.7891C230.158 32.0755 229.77 32.3073 229.301 32.4844C228.838 32.6563 228.294 32.7422 227.669 32.7422ZM228.403 30.6641C228.971 30.6641 229.463 30.5521 229.88 30.3281C230.296 30.099 230.617 29.7969 230.84 29.4219C231.07 29.0469 231.184 28.638 231.184 28.1953V26.7812C231.096 26.8542 230.945 26.9219 230.731 26.9844C230.523 27.0469 230.288 27.1016 230.028 27.1484C229.768 27.1953 229.51 27.237 229.255 27.2734C228.999 27.3099 228.778 27.3411 228.59 27.3672C228.169 27.4245 227.791 27.5182 227.458 27.6484C227.124 27.7786 226.861 27.9609 226.669 28.1953C226.476 28.4245 226.38 28.7214 226.38 29.0859C226.38 29.6068 226.57 30 226.95 30.2656C227.33 30.5312 227.814 30.6641 228.403 30.6641ZM241.291 32.7109C240.349 32.7109 239.505 32.4688 238.76 31.9844C238.015 31.5 237.427 30.7969 236.995 29.875C236.562 28.9531 236.346 27.8333 236.346 26.5156C236.346 25.1823 236.565 24.0573 237.002 23.1406C237.445 22.2187 238.041 21.5234 238.791 21.0547C239.541 20.5807 240.377 20.3438 241.299 20.3438C242.002 20.3438 242.58 20.4635 243.034 20.7031C243.487 20.9375 243.846 21.2214 244.112 21.5547C244.377 21.8828 244.583 22.1927 244.729 22.4844H244.846V16.5H247.682V32.5H244.901V30.6094H244.729C244.583 30.901 244.372 31.2109 244.096 31.5391C243.82 31.862 243.455 32.138 243.002 32.3672C242.549 32.5964 241.979 32.7109 241.291 32.7109ZM242.08 30.3906C242.679 30.3906 243.19 30.2292 243.612 29.9062C244.034 29.5781 244.354 29.1224 244.573 28.5391C244.791 27.9557 244.901 27.276 244.901 26.5C244.901 25.724 244.791 25.0495 244.573 24.4766C244.359 23.9036 244.041 23.4583 243.62 23.1406C243.203 22.8229 242.69 22.6641 242.08 22.6641C241.45 22.6641 240.924 22.8281 240.502 23.1562C240.08 23.4844 239.763 23.9375 239.549 24.5156C239.336 25.0937 239.229 25.7552 239.229 26.5C239.229 27.25 239.336 27.9193 239.549 28.5078C239.768 29.0911 240.088 29.5521 240.51 29.8906C240.937 30.224 241.461 30.3906 242.08 30.3906ZM250.686 32.5V20.5H253.514V32.5H250.686ZM252.108 18.7969C251.66 18.7969 251.274 18.6484 250.951 18.3516C250.628 18.0495 250.467 17.6875 250.467 17.2656C250.467 16.8385 250.628 16.4766 250.951 16.1797C251.274 15.8776 251.66 15.7266 252.108 15.7266C252.561 15.7266 252.946 15.8776 253.264 16.1797C253.587 16.4766 253.748 16.8385 253.748 17.2656C253.748 17.6875 253.587 18.0495 253.264 18.3516C252.946 18.6484 252.561 18.7969 252.108 18.7969ZM261.725 32.7344C260.521 32.7344 259.482 32.4844 258.607 31.9844C257.738 31.4792 257.068 30.7656 256.6 29.8437C256.131 28.9167 255.896 27.8255 255.896 26.5703C255.896 25.3359 256.131 24.2526 256.6 23.3203C257.073 22.3828 257.735 21.6536 258.584 21.1328C259.433 20.6068 260.43 20.3438 261.576 20.3438C262.316 20.3438 263.014 20.4635 263.67 20.7031C264.331 20.9375 264.915 21.3021 265.42 21.7969C265.93 22.2917 266.331 22.9219 266.623 23.6875C266.915 24.4479 267.06 25.3542 267.06 26.4062V27.2734H257.225V25.3672H264.35C264.344 24.8255 264.227 24.3437 263.998 23.9219C263.769 23.4948 263.448 23.1589 263.037 22.9141C262.631 22.6693 262.157 22.5469 261.615 22.5469C261.037 22.5469 260.529 22.6875 260.092 22.9687C259.654 23.2448 259.313 23.6094 259.068 24.0625C258.829 24.5104 258.706 25.0026 258.701 25.5391V27.2031C258.701 27.901 258.829 28.5 259.084 29C259.339 29.4948 259.696 29.875 260.154 30.1406C260.613 30.401 261.149 30.5312 261.764 30.5312C262.175 30.5312 262.547 30.474 262.881 30.3594C263.214 30.2396 263.503 30.0651 263.748 29.8359C263.993 29.6068 264.178 29.3229 264.303 28.9844L266.943 29.2812C266.777 29.9792 266.459 30.5885 265.99 31.1094C265.527 31.625 264.933 32.026 264.209 32.3125C263.485 32.5937 262.657 32.7344 261.725 32.7344ZM272.271 25.4687V32.5H269.443V20.5H272.146V22.5391H272.287C272.563 21.8672 273.003 21.3333 273.607 20.9375C274.216 20.5417 274.969 20.3438 275.865 20.3438C276.693 20.3438 277.414 20.5208 278.029 20.875C278.649 21.2292 279.128 21.7422 279.466 22.4141C279.81 23.0859 279.98 23.901 279.974 24.8594V32.5H277.146V25.2969C277.146 24.4948 276.938 23.8672 276.521 23.4141C276.11 22.9609 275.539 22.7344 274.81 22.7344C274.315 22.7344 273.875 22.8437 273.49 23.0625C273.11 23.276 272.81 23.5859 272.591 23.9922C272.378 24.3984 272.271 24.8906 272.271 25.4687ZM288.831 20.5V22.6875H281.933V20.5H288.831ZM283.636 17.625H286.464V28.8906C286.464 29.2708 286.522 29.5625 286.636 29.7656C286.756 29.9635 286.912 30.099 287.105 30.1719C287.298 30.2448 287.511 30.2812 287.746 30.2812C287.923 30.2812 288.084 30.2682 288.23 30.2422C288.381 30.2161 288.496 30.1927 288.574 30.1719L289.05 32.3828C288.899 32.4349 288.683 32.4922 288.402 32.5547C288.126 32.6172 287.787 32.6536 287.386 32.6641C286.678 32.6849 286.04 32.5781 285.472 32.3437C284.904 32.1042 284.454 31.7344 284.121 31.2344C283.792 30.7344 283.631 30.1094 283.636 29.3594V17.625Z" fill="#E93D82"/>
<defs>
<radialGradient id="paint0_radial_37_230" cx="0" cy="0" r="1" gradientUnits="userSpaceOnUse" gradientTransform="translate(4 4) rotate(90) scale(32)">
<stop stop-color="white"/>
<stop offset="1" stop-color="white" stop-opacity="0"/>
</radialGradient>
<clipPath id="clip0_37_230">
<rect width="48" height="48" rx="10" fill="white"/>
</clipPath>
</defs>
</svg>
