<svg width="198" height="48" viewBox="0 0 198 48" fill="none" xmlns="http://www.w3.org/2000/svg">
<g clip-path="url(#clip0_107_109)">
<rect width="48" height="48" rx="10" fill="#AB4ABA"/>
<g opacity="0.4">
<rect x="-28" y="-28" width="64" height="64" rx="10" fill="url(#paint0_radial_107_109)"/>
</g>
<path opacity="0.4" d="M33 21.7202C33 23.3802 29 24.7202 24 24.7202C19 24.7202 15 23.3802 15 21.7202M33 26.44C33 28.1 29 29.44 24 29.44C19 29.44 15 28.1 15 26.44" stroke="white" stroke-width="2" stroke-linecap="round" stroke-linejoin="round"/>
<path d="M33 17C33 18.6569 28.9706 20 24 20C19.0294 20 15 18.6569 15 17M33 17C33 15.3431 28.9706 14 24 14C19.0294 14 15 15.3431 15 17M33 17V31C33 32.66 29 34 24 34C19 34 15 32.66 15 31V17" stroke="white" stroke-width="2" stroke-linecap="round" stroke-linejoin="round"/>
</g>
<path d="M69.5781 32.5V16.5H79.9844V18.9297H72.4766V23.2734H79.4453V25.7031H72.4766V30.0703H80.0469V32.5H69.5781ZM85.1189 20.5L87.5408 24.9297L90.0017 20.5H92.9939L89.3767 26.5L93.0564 32.5H90.0798L87.5408 28.1797L85.0252 32.5H82.0252L85.6814 26.5L82.1189 20.5H85.1189ZM95.1714 37V20.5H97.9527V22.4844H98.1167C98.2626 22.1927 98.4683 21.8828 98.7339 21.5547C98.9995 21.2214 99.3589 20.9375 99.812 20.7031C100.265 20.4635 100.843 20.3438 101.546 20.3438C102.473 20.3438 103.309 20.5807 104.054 21.0547C104.804 21.5234 105.398 22.2187 105.835 23.1406C106.278 24.0573 106.5 25.1823 106.5 26.5156C106.5 27.8333 106.283 28.9531 105.851 29.875C105.419 30.7969 104.83 31.5 104.085 31.9844C103.341 32.4688 102.497 32.7109 101.554 32.7109C100.867 32.7109 100.296 32.5964 99.8433 32.3672C99.3902 32.138 99.0256 31.862 98.7495 31.5391C98.4787 31.2109 98.2678 30.901 98.1167 30.6094H97.9995V37H95.1714ZM97.9448 26.5C97.9448 27.276 98.0542 27.9557 98.273 28.5391C98.4969 29.1224 98.8172 29.5781 99.2339 29.9062C99.6558 30.2292 100.166 30.3906 100.765 30.3906C101.39 30.3906 101.914 30.224 102.335 29.8906C102.757 29.5521 103.075 29.0911 103.289 28.5078C103.507 27.9193 103.617 27.25 103.617 26.5C103.617 25.7552 103.51 25.0937 103.296 24.5156C103.083 23.9375 102.765 23.4844 102.343 23.1562C101.921 22.8281 101.395 22.6641 100.765 22.6641C100.161 22.6641 99.648 22.8229 99.2261 23.1406C98.8042 23.4583 98.4839 23.9036 98.2652 24.4766C98.0516 25.0495 97.9448 25.724 97.9448 26.5ZM114.146 32.7344C112.974 32.7344 111.958 32.4766 111.099 31.9609C110.24 31.4453 109.573 30.724 109.099 29.7969C108.63 28.8698 108.396 27.7865 108.396 26.5469C108.396 25.3073 108.63 24.2214 109.099 23.2891C109.573 22.3568 110.24 21.6328 111.099 21.1172C111.958 20.6016 112.974 20.3438 114.146 20.3438C115.318 20.3438 116.333 20.6016 117.193 21.1172C118.052 21.6328 118.716 22.3568 119.185 23.2891C119.659 24.2214 119.896 25.3073 119.896 26.5469C119.896 27.7865 119.659 28.8698 119.185 29.7969C118.716 30.724 118.052 31.4453 117.193 31.9609C116.333 32.4766 115.318 32.7344 114.146 32.7344ZM114.161 30.4687C114.797 30.4687 115.328 30.2943 115.755 29.9453C116.182 29.5911 116.5 29.1172 116.708 28.5234C116.922 27.9297 117.029 27.2682 117.029 26.5391C117.029 25.8047 116.922 25.1406 116.708 24.5469C116.5 23.9479 116.182 23.4714 115.755 23.1172C115.328 22.763 114.797 22.5859 114.161 22.5859C113.51 22.5859 112.969 22.763 112.536 23.1172C112.109 23.4714 111.789 23.9479 111.575 24.5469C111.367 25.1406 111.263 25.8047 111.263 26.5391C111.263 27.2682 111.367 27.9297 111.575 28.5234C111.789 29.1172 112.109 29.5911 112.536 29.9453C112.969 30.2943 113.51 30.4687 114.161 30.4687ZM136.554 20.8984C136.481 20.2161 136.173 19.6849 135.632 19.3047C135.095 18.9245 134.397 18.7344 133.538 18.7344C132.934 18.7344 132.415 18.8255 131.983 19.0078C131.551 19.1901 131.22 19.4375 130.991 19.75C130.762 20.0625 130.645 20.4193 130.639 20.8203C130.639 21.1536 130.715 21.4427 130.866 21.6875C131.022 21.9323 131.233 22.1406 131.499 22.3125C131.764 22.4792 132.059 22.6198 132.382 22.7344C132.705 22.849 133.03 22.9453 133.358 23.0234L134.858 23.3984C135.462 23.5391 136.043 23.7292 136.6 23.9687C137.163 24.2083 137.665 24.5104 138.108 24.875C138.556 25.2396 138.91 25.6797 139.171 26.1953C139.431 26.7109 139.561 27.3151 139.561 28.0078C139.561 28.9453 139.322 29.7708 138.843 30.4844C138.363 31.1927 137.671 31.7474 136.764 32.1484C135.863 32.5443 134.772 32.7422 133.491 32.7422C132.246 32.7422 131.165 32.5495 130.249 32.1641C129.337 31.7786 128.624 31.2161 128.108 30.4766C127.598 29.737 127.322 28.8359 127.28 27.7734H130.132C130.173 28.3307 130.345 28.7943 130.647 29.1641C130.949 29.5339 131.343 29.8099 131.827 29.9922C132.317 30.1745 132.863 30.2656 133.468 30.2656C134.098 30.2656 134.65 30.1719 135.124 29.9844C135.603 29.7917 135.978 29.526 136.249 29.1875C136.52 28.8437 136.658 28.4427 136.663 27.9844C136.658 27.5677 136.535 27.224 136.296 26.9531C136.056 26.6771 135.72 26.4479 135.288 26.2656C134.861 26.0781 134.361 25.9115 133.788 25.7656L131.968 25.2969C130.65 24.9583 129.608 24.4453 128.843 23.7578C128.082 23.0651 127.702 22.1458 127.702 21C127.702 20.0573 127.957 19.2318 128.468 18.5234C128.983 17.8151 129.684 17.2656 130.569 16.875C131.455 16.4792 132.457 16.2812 133.577 16.2812C134.712 16.2812 135.707 16.4792 136.561 16.875C137.421 17.2656 138.095 17.8099 138.585 18.5078C139.074 19.2005 139.327 19.9974 139.343 20.8984H136.554ZM148.096 27.125H150.721L152.276 29.1406L153.385 30.4531L156.049 33.875H153.237L151.424 31.5781L150.651 30.4844L148.096 27.125ZM156.432 24.5C156.432 26.224 156.109 27.7005 155.463 28.9297C154.823 30.1536 153.948 31.0911 152.838 31.7422C151.734 32.3932 150.482 32.7187 149.081 32.7187C147.68 32.7187 146.424 32.3932 145.315 31.7422C144.211 31.0859 143.336 30.1458 142.69 28.9219C142.049 27.6927 141.729 26.2187 141.729 24.5C141.729 22.776 142.049 21.3021 142.69 20.0781C143.336 18.849 144.211 17.9089 145.315 17.2578C146.424 16.6068 147.68 16.2812 149.081 16.2812C150.482 16.2812 151.734 16.6068 152.838 17.2578C153.948 17.9089 154.823 18.849 155.463 20.0781C156.109 21.3021 156.432 22.776 156.432 24.5ZM153.518 24.5C153.518 23.2865 153.328 22.263 152.948 21.4297C152.573 20.5911 152.052 19.9583 151.385 19.5313C150.719 19.099 149.95 18.8828 149.081 18.8828C148.211 18.8828 147.443 19.099 146.776 19.5313C146.109 19.9583 145.586 20.5911 145.206 21.4297C144.831 22.263 144.643 23.2865 144.643 24.5C144.643 25.7135 144.831 26.7396 145.206 27.5781C145.586 28.4115 146.109 29.0443 146.776 29.4766C147.443 29.9036 148.211 30.1172 149.081 30.1172C149.95 30.1172 150.719 29.9036 151.385 29.4766C152.052 29.0443 152.573 28.4115 152.948 27.5781C153.328 26.7396 153.518 25.7135 153.518 24.5ZM159.184 32.5V16.5H162.082V30.0703H169.129V32.5H159.184ZM171.51 32.5V20.5H174.338V32.5H171.51ZM172.932 18.7969C172.484 18.7969 172.098 18.6484 171.775 18.3516C171.453 18.0495 171.291 17.6875 171.291 17.2656C171.291 16.8385 171.453 16.4766 171.775 16.1797C172.098 15.8776 172.484 15.7266 172.932 15.7266C173.385 15.7266 173.77 15.8776 174.088 16.1797C174.411 16.4766 174.572 16.8385 174.572 17.2656C174.572 17.6875 174.411 18.0495 174.088 18.3516C173.77 18.6484 173.385 18.7969 172.932 18.7969ZM183.228 20.5V22.6875H176.33V20.5H183.228ZM178.033 17.625H180.861V28.8906C180.861 29.2708 180.918 29.5625 181.033 29.7656C181.153 29.9635 181.309 30.099 181.502 30.1719C181.695 30.2448 181.908 30.2812 182.142 30.2812C182.32 30.2812 182.481 30.2682 182.627 30.2422C182.778 30.2161 182.892 30.1927 182.971 30.1719L183.447 32.3828C183.296 32.4349 183.08 32.4922 182.799 32.5547C182.523 32.6172 182.184 32.6536 181.783 32.6641C181.075 32.6849 180.437 32.5781 179.869 32.3437C179.301 32.1042 178.851 31.7344 178.517 31.2344C178.189 30.7344 178.028 30.1094 178.033 29.3594V17.625ZM190.767 32.7344C189.564 32.7344 188.525 32.4844 187.65 31.9844C186.78 31.4792 186.111 30.7656 185.642 29.8437C185.173 28.9167 184.939 27.8255 184.939 26.5703C184.939 25.3359 185.173 24.2526 185.642 23.3203C186.116 22.3828 186.778 21.6536 187.627 21.1328C188.476 20.6068 189.473 20.3438 190.619 20.3438C191.358 20.3438 192.056 20.4635 192.713 20.7031C193.374 20.9375 193.957 21.3021 194.463 21.7969C194.973 22.2917 195.374 22.9219 195.666 23.6875C195.957 24.4479 196.103 25.3542 196.103 26.4062V27.2734H186.267V25.3672H193.392C193.387 24.8255 193.27 24.3437 193.041 23.9219C192.811 23.4948 192.491 23.1589 192.08 22.9141C191.673 22.6693 191.199 22.5469 190.658 22.5469C190.08 22.5469 189.572 22.6875 189.134 22.9687C188.697 23.2448 188.356 23.6094 188.111 24.0625C187.871 24.5104 187.749 25.0026 187.744 25.5391V27.2031C187.744 27.901 187.871 28.5 188.127 29C188.382 29.4948 188.739 29.875 189.197 30.1406C189.655 30.401 190.192 30.5312 190.806 30.5312C191.218 30.5312 191.59 30.474 191.923 30.3594C192.257 30.2396 192.546 30.0651 192.791 29.8359C193.035 29.6068 193.22 29.3229 193.345 28.9844L195.986 29.2812C195.819 29.9792 195.502 30.5885 195.033 31.1094C194.569 31.625 193.976 32.026 193.252 32.3125C192.528 32.5937 191.699 32.7344 190.767 32.7344Z" fill="#AB4ABA"/>
<defs>
<radialGradient id="paint0_radial_107_109" cx="0" cy="0" r="1" gradientUnits="userSpaceOnUse" gradientTransform="translate(4 4) rotate(90) scale(32)">
<stop stop-color="white"/>
<stop offset="1" stop-color="white" stop-opacity="0"/>
</radialGradient>
<clipPath id="clip0_107_109">
<rect width="48" height="48" rx="10" fill="white"/>
</clipPath>
</defs>
</svg>
