<svg width="347" height="48" viewBox="0 0 347 48" fill="none" xmlns="http://www.w3.org/2000/svg">
<g clip-path="url(#clip0_22_34)">
<rect width="48" height="48" rx="10" fill="#05A2C2"/>
<g opacity="0.4">
<rect x="-28" y="-28" width="64" height="64" rx="10" fill="url(#paint0_radial_22_34)"/>
</g>
<path opacity="0.4" d="M17.8069 30.5304C17.8246 30.5005 17.8427 30.4709 17.8613 30.4413C19.2158 28.2881 19.9999 25.7418 19.9999 23C19.9999 20.7909 21.7908 19 23.9999 19C26.209 19 27.9999 20.7909 27.9999 23C27.9999 24.017 27.9307 25.0186 27.7966 26M25.6792 32.8436C26.2909 31.6226 26.7924 30.3369 27.1707 29" stroke="white" stroke-width="2" stroke-linecap="round" stroke-linejoin="round"/>
<path d="M31.0097 30.132C31.6547 27.8657 32 25.4732 32 23C32 18.5817 28.4183 15 24 15C22.5429 15 21.1767 15.3896 20 16.0703M15 27.3641C15.6407 26.0454 16 24.5646 16 23C16 21.5429 16.3896 20.1767 17.0703 19M23.9999 23C23.9999 26.5172 22.9911 29.7988 21.2471 32.5712" stroke="white" stroke-width="2" stroke-linecap="round" stroke-linejoin="round"/>
</g>
<path d="M69.5781 32.5V16.5H79.9844V18.9297H72.4766V23.2734H79.4453V25.7031H72.4766V30.0703H80.0469V32.5H69.5781ZM85.1189 20.5L87.5408 24.9297L90.0017 20.5H92.9939L89.3767 26.5L93.0564 32.5H90.0798L87.5408 28.1797L85.0252 32.5H82.0252L85.6814 26.5L82.1189 20.5H85.1189ZM95.1714 37V20.5H97.9527V22.4844H98.1167C98.2626 22.1927 98.4683 21.8828 98.7339 21.5547C98.9995 21.2214 99.3589 20.9375 99.812 20.7031C100.265 20.4635 100.843 20.3438 101.546 20.3438C102.473 20.3438 103.309 20.5807 104.054 21.0547C104.804 21.5234 105.398 22.2187 105.835 23.1406C106.278 24.0573 106.5 25.1823 106.5 26.5156C106.5 27.8333 106.283 28.9531 105.851 29.875C105.419 30.7969 104.83 31.5 104.085 31.9844C103.341 32.4688 102.497 32.7109 101.554 32.7109C100.867 32.7109 100.296 32.5964 99.8433 32.3672C99.3902 32.138 99.0256 31.862 98.7495 31.5391C98.4787 31.2109 98.2678 30.901 98.1167 30.6094H97.9995V37H95.1714ZM97.9448 26.5C97.9448 27.276 98.0542 27.9557 98.273 28.5391C98.4969 29.1224 98.8172 29.5781 99.2339 29.9062C99.6558 30.2292 100.166 30.3906 100.765 30.3906C101.39 30.3906 101.914 30.224 102.335 29.8906C102.757 29.5521 103.075 29.0911 103.289 28.5078C103.507 27.9193 103.617 27.25 103.617 26.5C103.617 25.7552 103.51 25.0937 103.296 24.5156C103.083 23.9375 102.765 23.4844 102.343 23.1562C101.921 22.8281 101.395 22.6641 100.765 22.6641C100.161 22.6641 99.648 22.8229 99.2261 23.1406C98.8042 23.4583 98.4839 23.9036 98.2652 24.4766C98.0516 25.0495 97.9448 25.724 97.9448 26.5ZM114.146 32.7344C112.974 32.7344 111.958 32.4766 111.099 31.9609C110.24 31.4453 109.573 30.724 109.099 29.7969C108.63 28.8698 108.396 27.7865 108.396 26.5469C108.396 25.3073 108.63 24.2214 109.099 23.2891C109.573 22.3568 110.24 21.6328 111.099 21.1172C111.958 20.6016 112.974 20.3438 114.146 20.3438C115.318 20.3438 116.333 20.6016 117.193 21.1172C118.052 21.6328 118.716 22.3568 119.185 23.2891C119.659 24.2214 119.896 25.3073 119.896 26.5469C119.896 27.7865 119.659 28.8698 119.185 29.7969C118.716 30.724 118.052 31.4453 117.193 31.9609C116.333 32.4766 115.318 32.7344 114.146 32.7344ZM114.161 30.4687C114.797 30.4687 115.328 30.2943 115.755 29.9453C116.182 29.5911 116.5 29.1172 116.708 28.5234C116.922 27.9297 117.029 27.2682 117.029 26.5391C117.029 25.8047 116.922 25.1406 116.708 24.5469C116.5 23.9479 116.182 23.4714 115.755 23.1172C115.328 22.763 114.797 22.5859 114.161 22.5859C113.51 22.5859 112.969 22.763 112.536 23.1172C112.109 23.4714 111.789 23.9479 111.575 24.5469C111.367 25.1406 111.263 25.8047 111.263 26.5391C111.263 27.2682 111.367 27.9297 111.575 28.5234C111.789 29.1172 112.109 29.5911 112.536 29.9453C112.969 30.2943 113.51 30.4687 114.161 30.4687ZM127.858 32.5V16.5H130.757V30.0703H137.804V32.5H127.858ZM145.419 32.7344C144.247 32.7344 143.231 32.4766 142.372 31.9609C141.512 31.4453 140.846 30.724 140.372 29.7969C139.903 28.8698 139.669 27.7865 139.669 26.5469C139.669 25.3073 139.903 24.2214 140.372 23.2891C140.846 22.3568 141.512 21.6328 142.372 21.1172C143.231 20.6016 144.247 20.3438 145.419 20.3438C146.59 20.3438 147.606 20.6016 148.465 21.1172C149.325 21.6328 149.989 22.3568 150.458 23.2891C150.932 24.2214 151.169 25.3073 151.169 26.5469C151.169 27.7865 150.932 28.8698 150.458 29.7969C149.989 30.724 149.325 31.4453 148.465 31.9609C147.606 32.4766 146.59 32.7344 145.419 32.7344ZM145.434 30.4687C146.07 30.4687 146.601 30.2943 147.028 29.9453C147.455 29.5911 147.773 29.1172 147.981 28.5234C148.195 27.9297 148.301 27.2682 148.301 26.5391C148.301 25.8047 148.195 25.1406 147.981 24.5469C147.773 23.9479 147.455 23.4714 147.028 23.1172C146.601 22.763 146.07 22.5859 145.434 22.5859C144.783 22.5859 144.241 22.763 143.809 23.1172C143.382 23.4714 143.062 23.9479 142.848 24.5469C142.64 25.1406 142.536 25.8047 142.536 26.5391C142.536 27.2682 142.64 27.9297 142.848 28.5234C143.062 29.1172 143.382 29.5911 143.809 29.9453C144.241 30.2943 144.783 30.4687 145.434 30.4687ZM158.793 32.7344C157.595 32.7344 156.567 32.4714 155.707 31.9453C154.853 31.4193 154.194 30.6927 153.731 29.7656C153.272 28.8333 153.043 27.7604 153.043 26.5469C153.043 25.3281 153.278 24.2526 153.746 23.3203C154.215 22.3828 154.877 21.6536 155.731 21.1328C156.59 20.6068 157.606 20.3438 158.778 20.3438C159.752 20.3438 160.614 20.5234 161.364 20.8828C162.119 21.237 162.72 21.7396 163.168 22.3906C163.616 23.0365 163.871 23.7917 163.934 24.6562H161.231C161.121 24.0781 160.861 23.5964 160.45 23.2109C160.043 22.8203 159.499 22.625 158.817 22.625C158.239 22.625 157.731 22.7812 157.293 23.0937C156.856 23.401 156.515 23.8437 156.27 24.4219C156.03 25 155.91 25.6927 155.91 26.5C155.91 27.3177 156.03 28.0208 156.27 28.6094C156.509 29.1927 156.845 29.6432 157.278 29.9609C157.715 30.2734 158.228 30.4297 158.817 30.4297C159.233 30.4297 159.606 30.3516 159.934 30.1953C160.267 30.0339 160.546 29.8021 160.77 29.5C160.994 29.1979 161.147 28.8307 161.231 28.3984H163.934C163.866 29.2474 163.616 30 163.184 30.6562C162.752 31.3073 162.163 31.8177 161.418 32.1875C160.673 32.5521 159.798 32.7344 158.793 32.7344ZM169.699 32.7422C168.939 32.7422 168.254 32.6068 167.645 32.3359C167.04 32.0599 166.561 31.6536 166.207 31.1172C165.858 30.5807 165.684 29.9193 165.684 29.1328C165.684 28.4557 165.809 27.8958 166.059 27.4531C166.309 27.0104 166.65 26.6562 167.082 26.3906C167.514 26.125 168.001 25.9245 168.543 25.7891C169.09 25.6484 169.655 25.5469 170.238 25.4844C170.941 25.4115 171.512 25.3464 171.949 25.2891C172.387 25.2266 172.705 25.1328 172.902 25.0078C173.106 24.8776 173.207 24.6771 173.207 24.4062V24.3594C173.207 23.7708 173.033 23.3151 172.684 22.9922C172.335 22.6693 171.832 22.5078 171.176 22.5078C170.483 22.5078 169.934 22.6589 169.527 22.9609C169.126 23.263 168.856 23.6198 168.715 24.0312L166.074 23.6562C166.283 22.9271 166.626 22.3177 167.106 21.8281C167.585 21.3333 168.171 20.9635 168.863 20.7187C169.556 20.4688 170.322 20.3438 171.16 20.3438C171.738 20.3438 172.314 20.4115 172.887 20.5469C173.46 20.6823 173.983 20.9062 174.457 21.2187C174.931 21.526 175.311 21.9453 175.598 22.4766C175.889 23.0078 176.035 23.6719 176.035 24.4687V32.5H173.316V30.8516H173.223C173.051 31.1849 172.809 31.4974 172.496 31.7891C172.189 32.0755 171.801 32.3073 171.332 32.4844C170.869 32.6563 170.324 32.7422 169.699 32.7422ZM170.434 30.6641C171.001 30.6641 171.494 30.5521 171.91 30.3281C172.327 30.099 172.647 29.7969 172.871 29.4219C173.1 29.0469 173.215 28.638 173.215 28.1953V26.7812C173.126 26.8542 172.975 26.9219 172.762 26.9844C172.553 27.0469 172.319 27.1016 172.059 27.1484C171.798 27.1953 171.54 27.237 171.285 27.2734C171.03 27.3099 170.809 27.3411 170.621 27.3672C170.199 27.4245 169.822 27.5182 169.488 27.6484C169.155 27.7786 168.892 27.9609 168.699 28.1953C168.507 28.4245 168.41 28.7214 168.41 29.0859C168.41 29.6068 168.6 30 168.981 30.2656C169.361 30.5312 169.845 30.6641 170.434 30.6641ZM181.697 16.5V32.5H178.869V16.5H181.697ZM192.222 32.5H189.128L194.761 16.5H198.339L203.98 32.5H200.886L196.613 19.7812H196.488L192.222 32.5ZM192.324 26.2266H200.761V28.5547H192.324V26.2266ZM213.601 27.4531V20.5H216.429V32.5H213.687V30.3672H213.562C213.291 31.0391 212.845 31.5885 212.226 32.0156C211.611 32.4427 210.853 32.6563 209.952 32.6563C209.166 32.6563 208.47 32.4818 207.866 32.1328C207.267 31.7786 206.799 31.2656 206.46 30.5938C206.122 29.9167 205.952 29.099 205.952 28.1406V20.5H208.78V27.7031C208.78 28.4635 208.989 29.0677 209.405 29.5156C209.822 29.9635 210.369 30.1875 211.046 30.1875C211.463 30.1875 211.866 30.0859 212.257 29.8828C212.648 29.6797 212.968 29.3776 213.218 28.9766C213.473 28.5703 213.601 28.0625 213.601 27.4531ZM225.319 20.5V22.6875H218.421V20.5H225.319ZM220.124 17.625H222.952V28.8906C222.952 29.2708 223.009 29.5625 223.124 29.7656C223.244 29.9635 223.4 30.099 223.593 30.1719C223.785 30.2448 223.999 30.2812 224.233 30.2812C224.41 30.2812 224.572 30.2682 224.718 30.2422C224.869 30.2161 224.983 30.1927 225.061 30.1719L225.538 32.3828C225.387 32.4349 225.171 32.4922 224.89 32.5547C224.613 32.6172 224.275 32.6536 223.874 32.6641C223.166 32.6849 222.528 32.5781 221.96 32.3437C221.392 32.1042 220.942 31.7344 220.608 31.2344C220.28 30.7344 220.119 30.1094 220.124 29.3594V17.625ZM230.76 25.4687V32.5H227.932V16.5H230.698V22.5391H230.839C231.12 21.862 231.555 21.3281 232.143 20.9375C232.737 20.5417 233.492 20.3438 234.409 20.3438C235.242 20.3438 235.969 20.5182 236.589 20.8672C237.208 21.2161 237.687 21.7266 238.026 22.3984C238.37 23.0703 238.542 23.8906 238.542 24.8594V32.5H235.714V25.2969C235.714 24.4896 235.505 23.862 235.089 23.4141C234.677 22.9609 234.099 22.7344 233.354 22.7344C232.854 22.7344 232.406 22.8437 232.01 23.0625C231.62 23.276 231.312 23.5859 231.089 23.9922C230.87 24.3984 230.76 24.8906 230.76 25.4687ZM246.727 32.7344C245.524 32.7344 244.485 32.4844 243.61 31.9844C242.74 31.4792 242.071 30.7656 241.602 29.8437C241.133 28.9167 240.899 27.8255 240.899 26.5703C240.899 25.3359 241.133 24.2526 241.602 23.3203C242.076 22.3828 242.737 21.6536 243.586 21.1328C244.435 20.6068 245.433 20.3438 246.579 20.3438C247.318 20.3438 248.016 20.4635 248.672 20.7031C249.334 20.9375 249.917 21.3021 250.422 21.7969C250.933 22.2917 251.334 22.9219 251.625 23.6875C251.917 24.4479 252.063 25.3542 252.063 26.4062V27.2734H242.227V25.3672H249.352C249.347 24.8255 249.23 24.3437 249 23.9219C248.771 23.4948 248.451 23.1589 248.039 22.9141C247.633 22.6693 247.159 22.5469 246.618 22.5469C246.039 22.5469 245.532 22.6875 245.094 22.9687C244.657 23.2448 244.316 23.6094 244.071 24.0625C243.831 24.5104 243.709 25.0026 243.704 25.5391V27.2031C243.704 27.901 243.831 28.5 244.086 29C244.342 29.4948 244.698 29.875 245.157 30.1406C245.615 30.401 246.151 30.5312 246.766 30.5312C247.177 30.5312 247.55 30.474 247.883 30.3594C248.217 30.2396 248.506 30.0651 248.75 29.8359C248.995 29.6068 249.18 29.3229 249.305 28.9844L251.946 29.2812C251.779 29.9792 251.461 30.5885 250.993 31.1094C250.529 31.625 249.935 32.026 249.211 32.3125C248.487 32.5937 247.659 32.7344 246.727 32.7344ZM257.274 25.4687V32.5H254.445V20.5H257.149V22.5391H257.289C257.565 21.8672 258.005 21.3333 258.61 20.9375C259.219 20.5417 259.972 20.3438 260.867 20.3438C261.695 20.3438 262.417 20.5208 263.031 20.875C263.651 21.2292 264.13 21.7422 264.469 22.4141C264.813 23.0859 264.982 23.901 264.977 24.8594V32.5H262.149V25.2969C262.149 24.4948 261.94 23.8672 261.524 23.4141C261.112 22.9609 260.542 22.7344 259.813 22.7344C259.318 22.7344 258.878 22.8437 258.492 23.0625C258.112 23.276 257.813 23.5859 257.594 23.9922C257.38 24.3984 257.274 24.8906 257.274 25.4687ZM273.834 20.5V22.6875H266.935V20.5H273.834ZM268.639 17.625H271.467V28.8906C271.467 29.2708 271.524 29.5625 271.639 29.7656C271.758 29.9635 271.915 30.099 272.107 30.1719C272.3 30.2448 272.514 30.2812 272.748 30.2812C272.925 30.2812 273.087 30.2682 273.232 30.2422C273.383 30.2161 273.498 30.1927 273.576 30.1719L274.053 32.3828C273.902 32.4349 273.685 32.4922 273.404 32.5547C273.128 32.6172 272.79 32.6536 272.389 32.6641C271.68 32.6849 271.042 32.5781 270.475 32.3437C269.907 32.1042 269.456 31.7344 269.123 31.2344C268.795 30.7344 268.633 30.1094 268.639 29.3594V17.625ZM276.189 32.5V20.5H279.017V32.5H276.189ZM277.611 18.7969C277.163 18.7969 276.778 18.6484 276.455 18.3516C276.132 18.0495 275.97 17.6875 275.97 17.2656C275.97 16.8385 276.132 16.4766 276.455 16.1797C276.778 15.8776 277.163 15.7266 277.611 15.7266C278.064 15.7266 278.45 15.8776 278.767 16.1797C279.09 16.4766 279.252 16.8385 279.252 17.2656C279.252 17.6875 279.09 18.0495 278.767 18.3516C278.45 18.6484 278.064 18.7969 277.611 18.7969ZM287.15 32.7344C285.952 32.7344 284.923 32.4714 284.064 31.9453C283.21 31.4193 282.551 30.6927 282.087 29.7656C281.629 28.8333 281.4 27.7604 281.4 26.5469C281.4 25.3281 281.634 24.2526 282.103 23.3203C282.572 22.3828 283.233 21.6536 284.087 21.1328C284.947 20.6068 285.962 20.3438 287.134 20.3438C288.108 20.3438 288.97 20.5234 289.72 20.8828C290.475 21.237 291.077 21.7396 291.525 22.3906C291.973 23.0365 292.228 23.7917 292.29 24.6562H289.587C289.478 24.0781 289.218 23.5964 288.806 23.2109C288.4 22.8203 287.856 22.625 287.173 22.625C286.595 22.625 286.087 22.7812 285.65 23.0937C285.212 23.401 284.871 23.8437 284.626 24.4219C284.387 25 284.267 25.6927 284.267 26.5C284.267 27.3177 284.387 28.0208 284.626 28.6094C284.866 29.1927 285.202 29.6432 285.634 29.9609C286.072 30.2734 286.585 30.4297 287.173 30.4297C287.59 30.4297 287.962 30.3516 288.29 30.1953C288.624 30.0339 288.902 29.8021 289.126 29.5C289.35 29.1979 289.504 28.8307 289.587 28.3984H292.29C292.223 29.2474 291.973 30 291.54 30.6562C291.108 31.3073 290.52 31.8177 289.775 32.1875C289.03 32.5521 288.155 32.7344 287.15 32.7344ZM298.056 32.7422C297.295 32.7422 296.611 32.6068 296.001 32.3359C295.397 32.0599 294.918 31.6536 294.564 31.1172C294.215 30.5807 294.04 29.9193 294.04 29.1328C294.04 28.4557 294.165 27.8958 294.415 27.4531C294.665 27.0104 295.006 26.6562 295.439 26.3906C295.871 26.125 296.358 25.9245 296.9 25.7891C297.446 25.6484 298.012 25.5469 298.595 25.4844C299.298 25.4115 299.868 25.3464 300.306 25.2891C300.743 25.2266 301.061 25.1328 301.259 25.0078C301.462 24.8776 301.564 24.6771 301.564 24.4062V24.3594C301.564 23.7708 301.389 23.3151 301.04 22.9922C300.691 22.6693 300.189 22.5078 299.532 22.5078C298.84 22.5078 298.29 22.6589 297.884 22.9609C297.483 23.263 297.212 23.6198 297.071 24.0312L294.431 23.6562C294.639 22.9271 294.983 22.3177 295.462 21.8281C295.941 21.3333 296.527 20.9635 297.22 20.7187C297.913 20.4688 298.678 20.3438 299.517 20.3438C300.095 20.3438 300.67 20.4115 301.243 20.5469C301.816 20.6823 302.34 20.9062 302.814 21.2187C303.288 21.526 303.668 21.9453 303.954 22.4766C304.246 23.0078 304.392 23.6719 304.392 24.4687V32.5H301.673V30.8516H301.579C301.407 31.1849 301.165 31.4974 300.853 31.7891C300.545 32.0755 300.157 32.3073 299.689 32.4844C299.225 32.6563 298.681 32.7422 298.056 32.7422ZM298.79 30.6641C299.358 30.6641 299.85 30.5521 300.267 30.3281C300.683 30.099 301.004 29.7969 301.228 29.4219C301.457 29.0469 301.571 28.638 301.571 28.1953V26.7812C301.483 26.8542 301.332 26.9219 301.118 26.9844C300.91 27.0469 300.676 27.1016 300.415 27.1484C300.155 27.1953 299.897 27.237 299.642 27.2734C299.387 27.3099 299.165 27.3411 298.978 27.3672C298.556 27.4245 298.178 27.5182 297.845 27.6484C297.512 27.7786 297.249 27.9609 297.056 28.1953C296.863 28.4245 296.767 28.7214 296.767 29.0859C296.767 29.6068 296.957 30 297.337 30.2656C297.717 30.5312 298.202 30.6641 298.79 30.6641ZM313.218 20.5V22.6875H306.319V20.5H313.218ZM308.022 17.625H310.851V28.8906C310.851 29.2708 310.908 29.5625 311.022 29.7656C311.142 29.9635 311.298 30.099 311.491 30.1719C311.684 30.2448 311.897 30.2812 312.132 30.2812C312.309 30.2812 312.47 30.2682 312.616 30.2422C312.767 30.2161 312.882 30.1927 312.96 30.1719L313.436 32.3828C313.285 32.4349 313.069 32.4922 312.788 32.5547C312.512 32.6172 312.173 32.6536 311.772 32.6641C311.064 32.6849 310.426 32.5781 309.858 32.3437C309.291 32.1042 308.84 31.7344 308.507 31.2344C308.179 30.7344 308.017 30.1094 308.022 29.3594V17.625ZM315.573 32.5V20.5H318.401V32.5H315.573ZM316.995 18.7969C316.547 18.7969 316.162 18.6484 315.839 18.3516C315.516 18.0495 315.354 17.6875 315.354 17.2656C315.354 16.8385 315.516 16.4766 315.839 16.1797C316.162 15.8776 316.547 15.7266 316.995 15.7266C317.448 15.7266 317.833 15.8776 318.151 16.1797C318.474 16.4766 318.635 16.8385 318.635 17.2656C318.635 17.6875 318.474 18.0495 318.151 18.3516C317.833 18.6484 317.448 18.7969 316.995 18.7969ZM326.534 32.7344C325.362 32.7344 324.346 32.4766 323.487 31.9609C322.627 31.4453 321.961 30.724 321.487 29.7969C321.018 28.8698 320.784 27.7865 320.784 26.5469C320.784 25.3073 321.018 24.2214 321.487 23.2891C321.961 22.3568 322.627 21.6328 323.487 21.1172C324.346 20.6016 325.362 20.3438 326.534 20.3438C327.706 20.3438 328.721 20.6016 329.581 21.1172C330.44 21.6328 331.104 22.3568 331.573 23.2891C332.047 24.2214 332.284 25.3073 332.284 26.5469C332.284 27.7865 332.047 28.8698 331.573 29.7969C331.104 30.724 330.44 31.4453 329.581 31.9609C328.721 32.4766 327.706 32.7344 326.534 32.7344ZM326.549 30.4687C327.185 30.4687 327.716 30.2943 328.143 29.9453C328.57 29.5911 328.888 29.1172 329.096 28.5234C329.31 27.9297 329.416 27.2682 329.416 26.5391C329.416 25.8047 329.31 25.1406 329.096 24.5469C328.888 23.9479 328.57 23.4714 328.143 23.1172C327.716 22.763 327.185 22.5859 326.549 22.5859C325.898 22.5859 325.357 22.763 324.924 23.1172C324.497 23.4714 324.177 23.9479 323.963 24.5469C323.755 25.1406 323.651 25.8047 323.651 26.5391C323.651 27.2682 323.755 27.9297 323.963 28.5234C324.177 29.1172 324.497 29.5911 324.924 29.9453C325.357 30.2943 325.898 30.4687 326.549 30.4687ZM337.502 25.4687V32.5H334.674V20.5H337.377V22.5391H337.518C337.794 21.8672 338.234 21.3333 338.838 20.9375C339.448 20.5417 340.2 20.3438 341.096 20.3438C341.924 20.3438 342.645 20.5208 343.26 20.875C343.88 21.2292 344.359 21.7422 344.698 22.4141C345.041 23.0859 345.211 23.901 345.205 24.8594V32.5H342.377V25.2969C342.377 24.4948 342.169 23.8672 341.752 23.4141C341.341 22.9609 340.77 22.7344 340.041 22.7344C339.546 22.7344 339.106 22.8437 338.721 23.0625C338.341 23.276 338.041 23.5859 337.823 23.9922C337.609 24.3984 337.502 24.8906 337.502 25.4687Z" fill="#05A2C2"/>
<defs>
<radialGradient id="paint0_radial_22_34" cx="0" cy="0" r="1" gradientUnits="userSpaceOnUse" gradientTransform="translate(4 4) rotate(90) scale(32)">
<stop stop-color="white"/>
<stop offset="1" stop-color="white" stop-opacity="0"/>
</radialGradient>
<clipPath id="clip0_22_34">
<rect width="48" height="48" rx="10" fill="white"/>
</clipPath>
</defs>
</svg>
