<svg width="217" height="48" viewBox="0 0 217 48" fill="none" xmlns="http://www.w3.org/2000/svg">
<g clip-path="url(#clip0_45_328)">
<rect width="48" height="48" rx="10" fill="#40C4AA"/>
<g opacity="0.4">
<rect x="-28" y="-28" width="64" height="64" rx="10" fill="url(#paint0_radial_45_328)"/>
</g>
<path opacity="0.4" d="M28.2427 17.7573C30.5858 20.1005 30.5858 23.8995 28.2427 26.2426M19.7573 26.2426C17.4142 23.8995 17.4142 20.1005 19.7573 17.7573M16.9287 29.0711C13.0234 25.1658 13.0234 18.8342 16.9287 14.929M31.0713 14.929C34.9765 18.8342 34.9765 25.1658 31.0713 29.0711" stroke="white" stroke-width="2" stroke-linecap="round" stroke-linejoin="round"/>
<path d="M24 24C25.1046 24 26 23.1046 26 22C26 20.8954 25.1046 20 24 20C22.8954 20 22 20.8954 22 22C22 23.1046 22.8954 24 24 24ZM24 24V33" stroke="white" stroke-width="2" stroke-linecap="round" stroke-linejoin="round"/>
</g>
<path d="M69.5781 32.5V16.5H79.9844V18.9297H72.4766V23.2734H79.4453V25.7031H72.4766V30.0703H80.0469V32.5H69.5781ZM85.1189 20.5L87.5408 24.9297L90.0017 20.5H92.9939L89.3767 26.5L93.0564 32.5H90.0798L87.5408 28.1797L85.0252 32.5H82.0252L85.6814 26.5L82.1189 20.5H85.1189ZM95.1714 37V20.5H97.9527V22.4844H98.1167C98.2626 22.1927 98.4683 21.8828 98.7339 21.5547C98.9995 21.2214 99.3589 20.9375 99.812 20.7031C100.265 20.4635 100.843 20.3438 101.546 20.3438C102.473 20.3438 103.309 20.5807 104.054 21.0547C104.804 21.5234 105.398 22.2187 105.835 23.1406C106.278 24.0573 106.5 25.1823 106.5 26.5156C106.5 27.8333 106.283 28.9531 105.851 29.875C105.419 30.7969 104.83 31.5 104.085 31.9844C103.341 32.4688 102.497 32.7109 101.554 32.7109C100.867 32.7109 100.296 32.5964 99.8433 32.3672C99.3902 32.138 99.0256 31.862 98.7495 31.5391C98.4787 31.2109 98.2678 30.901 98.1167 30.6094H97.9995V37H95.1714ZM97.9448 26.5C97.9448 27.276 98.0542 27.9557 98.273 28.5391C98.4969 29.1224 98.8172 29.5781 99.2339 29.9062C99.6558 30.2292 100.166 30.3906 100.765 30.3906C101.39 30.3906 101.914 30.224 102.335 29.8906C102.757 29.5521 103.075 29.0911 103.289 28.5078C103.507 27.9193 103.617 27.25 103.617 26.5C103.617 25.7552 103.51 25.0937 103.296 24.5156C103.083 23.9375 102.765 23.4844 102.343 23.1562C101.921 22.8281 101.395 22.6641 100.765 22.6641C100.161 22.6641 99.648 22.8229 99.2261 23.1406C98.8042 23.4583 98.4839 23.9036 98.2652 24.4766C98.0516 25.0495 97.9448 25.724 97.9448 26.5ZM114.146 32.7344C112.974 32.7344 111.958 32.4766 111.099 31.9609C110.24 31.4453 109.573 30.724 109.099 29.7969C108.63 28.8698 108.396 27.7865 108.396 26.5469C108.396 25.3073 108.63 24.2214 109.099 23.2891C109.573 22.3568 110.24 21.6328 111.099 21.1172C111.958 20.6016 112.974 20.3438 114.146 20.3438C115.318 20.3438 116.333 20.6016 117.193 21.1172C118.052 21.6328 118.716 22.3568 119.185 23.2891C119.659 24.2214 119.896 25.3073 119.896 26.5469C119.896 27.7865 119.659 28.8698 119.185 29.7969C118.716 30.724 118.052 31.4453 117.193 31.9609C116.333 32.4766 115.318 32.7344 114.146 32.7344ZM114.161 30.4687C114.797 30.4687 115.328 30.2943 115.755 29.9453C116.182 29.5911 116.5 29.1172 116.708 28.5234C116.922 27.9297 117.029 27.2682 117.029 26.5391C117.029 25.8047 116.922 25.1406 116.708 24.5469C116.5 23.9479 116.182 23.4714 115.755 23.1172C115.328 22.763 114.797 22.5859 114.161 22.5859C113.51 22.5859 112.969 22.763 112.536 23.1172C112.109 23.4714 111.789 23.9479 111.575 24.5469C111.367 25.1406 111.263 25.8047 111.263 26.5391C111.263 27.2682 111.367 27.9297 111.575 28.5234C111.789 29.1172 112.109 29.5911 112.536 29.9453C112.969 30.2943 113.51 30.4687 114.161 30.4687ZM141.007 16.5V32.5H138.429L130.889 21.6016H130.757V32.5H127.858V16.5H130.452L137.983 27.4062H138.124V16.5H141.007ZM149.342 32.7344C148.139 32.7344 147.1 32.4844 146.225 31.9844C145.355 31.4792 144.686 30.7656 144.217 29.8437C143.749 28.9167 143.514 27.8255 143.514 26.5703C143.514 25.3359 143.749 24.2526 144.217 23.3203C144.691 22.3828 145.353 21.6536 146.202 21.1328C147.051 20.6068 148.048 20.3438 149.194 20.3438C149.933 20.3438 150.631 20.4635 151.288 20.7031C151.949 20.9375 152.532 21.3021 153.038 21.7969C153.548 22.2917 153.949 22.9219 154.241 23.6875C154.532 24.4479 154.678 25.3542 154.678 26.4062V27.2734H144.842V25.3672H151.967C151.962 24.8255 151.845 24.3437 151.616 23.9219C151.387 23.4948 151.066 23.1589 150.655 22.9141C150.249 22.6693 149.775 22.5469 149.233 22.5469C148.655 22.5469 148.147 22.6875 147.71 22.9687C147.272 23.2448 146.931 23.6094 146.686 24.0625C146.447 24.5104 146.324 25.0026 146.319 25.5391V27.2031C146.319 27.901 146.447 28.5 146.702 29C146.957 29.4948 147.314 29.875 147.772 30.1406C148.23 30.401 148.767 30.5312 149.381 30.5312C149.793 30.5312 150.165 30.474 150.499 30.3594C150.832 30.2396 151.121 30.0651 151.366 29.8359C151.611 29.6068 151.795 29.3229 151.92 28.9844L154.561 29.2812C154.394 29.9792 154.077 30.5885 153.608 31.1094C153.144 31.625 152.551 32.026 151.827 32.3125C151.103 32.5937 150.275 32.7344 149.342 32.7344ZM163.053 20.5V22.6875H156.155V20.5H163.053ZM157.858 17.625H160.686V28.8906C160.686 29.2708 160.743 29.5625 160.858 29.7656C160.978 29.9635 161.134 30.099 161.326 30.1719C161.519 30.2448 161.733 30.2812 161.967 30.2812C162.144 30.2812 162.306 30.2682 162.451 30.2422C162.603 30.2161 162.717 30.1927 162.795 30.1719L163.272 32.3828C163.121 32.4349 162.905 32.4922 162.623 32.5547C162.347 32.6172 162.009 32.6536 161.608 32.6641C160.899 32.6849 160.261 32.5781 159.694 32.3437C159.126 32.1042 158.675 31.7344 158.342 31.2344C158.014 30.7344 157.853 30.1094 157.858 29.3594V17.625ZM167.885 32.5L164.494 20.5H167.377L169.486 28.9375H169.596L171.752 20.5H174.604L176.76 28.8906H176.877L178.955 20.5H181.846L178.447 32.5H175.502L173.252 24.3906H173.088L170.838 32.5H167.885ZM188.701 32.7344C187.529 32.7344 186.514 32.4766 185.654 31.9609C184.795 31.4453 184.128 30.724 183.654 29.7969C183.185 28.8698 182.951 27.7865 182.951 26.5469C182.951 25.3073 183.185 24.2214 183.654 23.2891C184.128 22.3568 184.795 21.6328 185.654 21.1172C186.514 20.6016 187.529 20.3438 188.701 20.3438C189.873 20.3438 190.889 20.6016 191.748 21.1172C192.607 21.6328 193.271 22.3568 193.74 23.2891C194.214 24.2214 194.451 25.3073 194.451 26.5469C194.451 27.7865 194.214 28.8698 193.74 29.7969C193.271 30.724 192.607 31.4453 191.748 31.9609C190.889 32.4766 189.873 32.7344 188.701 32.7344ZM188.717 30.4687C189.352 30.4687 189.883 30.2943 190.31 29.9453C190.737 29.5911 191.055 29.1172 191.264 28.5234C191.477 27.9297 191.584 27.2682 191.584 26.5391C191.584 25.8047 191.477 25.1406 191.264 24.5469C191.055 23.9479 190.737 23.4714 190.31 23.1172C189.883 22.763 189.352 22.5859 188.717 22.5859C188.066 22.5859 187.524 22.763 187.092 23.1172C186.665 23.4714 186.344 23.9479 186.131 24.5469C185.922 25.1406 185.818 25.8047 185.818 26.5391C185.818 27.2682 185.922 27.9297 186.131 28.5234C186.344 29.1172 186.665 29.5911 187.092 29.9453C187.524 30.2943 188.066 30.4687 188.717 30.4687ZM196.841 32.5V20.5H199.584V22.5H199.709C199.927 21.8073 200.302 21.2734 200.834 20.8984C201.37 20.5182 201.982 20.3281 202.67 20.3281C202.826 20.3281 203 20.3359 203.193 20.3516C203.391 20.362 203.555 20.3802 203.685 20.4062V23.0078C203.565 22.9661 203.375 22.9297 203.115 22.8984C202.86 22.862 202.612 22.8437 202.373 22.8437C201.857 22.8437 201.393 22.9557 200.982 23.1797C200.576 23.3984 200.255 23.7031 200.021 24.0937C199.787 24.4844 199.67 24.9349 199.67 25.4453V32.5H196.841ZM208.132 28.7344L208.124 25.3203H208.577L212.89 20.5H216.195L210.89 26.4062H210.304L208.132 28.7344ZM205.554 32.5V16.5H208.382V32.5H205.554ZM213.085 32.5L209.179 27.0391L211.085 25.0469L216.468 32.5H213.085Z" fill="#40C4AA"/>
<defs>
<radialGradient id="paint0_radial_45_328" cx="0" cy="0" r="1" gradientUnits="userSpaceOnUse" gradientTransform="translate(4 4) rotate(90) scale(32)">
<stop stop-color="white"/>
<stop offset="1" stop-color="white" stop-opacity="0"/>
</radialGradient>
<clipPath id="clip0_45_328">
<rect width="48" height="48" rx="10" fill="white"/>
</clipPath>
</defs>
</svg>
