<svg width="283" height="48" viewBox="0 0 283 48" fill="none" xmlns="http://www.w3.org/2000/svg">
<g clip-path="url(#clip0_561_117)">
<rect width="48" height="48" rx="10" fill="#E93D82"/>
<g opacity="0.4">
<rect x="-28" y="-28" width="64" height="64" rx="10" fill="url(#paint0_radial_561_117)"/>
</g>
<path opacity="0.4" d="M28 17L28 31M22 16L22 32" stroke="white" stroke-width="2" stroke-linecap="round" stroke-linejoin="round"/>
<path d="M15 24.0001H33M15 17.9892L15 30.0109C15 31.3749 15 32.0569 15.2813 32.5297C15.528 32.9442 15.9162 33.2556 16.3743 33.4065C16.8968 33.5785 17.5626 33.4306 18.8942 33.1347L30.4942 30.5569C31.3883 30.3582 31.8354 30.2589 32.1691 30.0185C32.4634 29.8064 32.6945 29.5183 32.8377 29.1849C33 28.807 33 28.3491 33 27.4331V20.567C33 19.6511 33 19.1931 32.8377 18.8152C32.6945 18.4819 32.4634 18.1937 32.1691 17.9817C31.8354 17.7413 31.3883 17.6419 30.4942 17.4432L18.8942 14.8654C17.5626 14.5695 16.8968 14.4216 16.3743 14.5937C15.9162 14.7446 15.528 15.056 15.2813 15.4705C15 15.9432 15 16.6252 15 17.9892Z" stroke="white" stroke-width="2" stroke-linecap="round" stroke-linejoin="round"/>
</g>
<path d="M69.5781 32.5V16.5H79.9844V18.9297H72.4766V23.2734H79.4453V25.7031H72.4766V30.0703H80.0469V32.5H69.5781ZM85.1189 20.5L87.5408 24.9297L90.0017 20.5H92.9939L89.3767 26.5L93.0564 32.5H90.0798L87.5408 28.1797L85.0252 32.5H82.0252L85.6814 26.5L82.1189 20.5H85.1189ZM95.1714 37V20.5H97.9527V22.4844H98.1167C98.2626 22.1927 98.4683 21.8828 98.7339 21.5547C98.9995 21.2214 99.3589 20.9375 99.812 20.7031C100.265 20.4635 100.843 20.3438 101.546 20.3438C102.473 20.3438 103.309 20.5807 104.054 21.0547C104.804 21.5234 105.398 22.2187 105.835 23.1406C106.278 24.0573 106.5 25.1823 106.5 26.5156C106.5 27.8333 106.283 28.9531 105.851 29.875C105.419 30.7969 104.83 31.5 104.085 31.9844C103.341 32.4688 102.497 32.7109 101.554 32.7109C100.867 32.7109 100.296 32.5964 99.8433 32.3672C99.3902 32.138 99.0256 31.862 98.7495 31.5391C98.4787 31.2109 98.2678 30.901 98.1167 30.6094H97.9995V37H95.1714ZM97.9448 26.5C97.9448 27.276 98.0542 27.9557 98.273 28.5391C98.4969 29.1224 98.8172 29.5781 99.2339 29.9062C99.6558 30.2292 100.166 30.3906 100.765 30.3906C101.39 30.3906 101.914 30.224 102.335 29.8906C102.757 29.5521 103.075 29.0911 103.289 28.5078C103.507 27.9193 103.617 27.25 103.617 26.5C103.617 25.7552 103.51 25.0937 103.296 24.5156C103.083 23.9375 102.765 23.4844 102.343 23.1562C101.921 22.8281 101.395 22.6641 100.765 22.6641C100.161 22.6641 99.648 22.8229 99.2261 23.1406C98.8042 23.4583 98.4839 23.9036 98.2652 24.4766C98.0516 25.0495 97.9448 25.724 97.9448 26.5ZM114.146 32.7344C112.974 32.7344 111.958 32.4766 111.099 31.9609C110.24 31.4453 109.573 30.724 109.099 29.7969C108.63 28.8698 108.396 27.7865 108.396 26.5469C108.396 25.3073 108.63 24.2214 109.099 23.2891C109.573 22.3568 110.24 21.6328 111.099 21.1172C111.958 20.6016 112.974 20.3438 114.146 20.3438C115.318 20.3438 116.333 20.6016 117.193 21.1172C118.052 21.6328 118.716 22.3568 119.185 23.2891C119.659 24.2214 119.896 25.3073 119.896 26.5469C119.896 27.7865 119.659 28.8698 119.185 29.7969C118.716 30.724 118.052 31.4453 117.193 31.9609C116.333 32.4766 115.318 32.7344 114.146 32.7344ZM114.161 30.4687C114.797 30.4687 115.328 30.2943 115.755 29.9453C116.182 29.5911 116.5 29.1172 116.708 28.5234C116.922 27.9297 117.029 27.2682 117.029 26.5391C117.029 25.8047 116.922 25.1406 116.708 24.5469C116.5 23.9479 116.182 23.4714 115.755 23.1172C115.328 22.763 114.797 22.5859 114.161 22.5859C113.51 22.5859 112.969 22.763 112.536 23.1172C112.109 23.4714 111.789 23.9479 111.575 24.5469C111.367 25.1406 111.263 25.8047 111.263 26.5391C111.263 27.2682 111.367 27.9297 111.575 28.5234C111.789 29.1172 112.109 29.5911 112.536 29.9453C112.969 30.2943 113.51 30.4687 114.161 30.4687ZM127.858 16.5H131.405L136.155 28.0937H136.343L141.093 16.5H144.639V32.5H141.858V21.5078H141.71L137.288 32.4531H135.21L130.788 21.4844H130.639V32.5H127.858V16.5ZM152.973 32.7344C151.77 32.7344 150.731 32.4844 149.856 31.9844C148.986 31.4792 148.317 30.7656 147.848 29.8437C147.379 28.9167 147.145 27.8255 147.145 26.5703C147.145 25.3359 147.379 24.2526 147.848 23.3203C148.322 22.3828 148.984 21.6536 149.833 21.1328C150.682 20.6068 151.679 20.3438 152.825 20.3438C153.564 20.3438 154.262 20.4635 154.919 20.7031C155.58 20.9375 156.163 21.3021 156.669 21.7969C157.179 22.2917 157.58 22.9219 157.872 23.6875C158.163 24.4479 158.309 25.3542 158.309 26.4062V27.2734H148.473V25.3672H155.598C155.593 24.8255 155.476 24.3437 155.247 23.9219C155.017 23.4948 154.697 23.1589 154.286 22.9141C153.879 22.6693 153.405 22.5469 152.864 22.5469C152.286 22.5469 151.778 22.6875 151.34 22.9687C150.903 23.2448 150.562 23.6094 150.317 24.0625C150.077 24.5104 149.955 25.0026 149.95 25.5391V27.2031C149.95 27.901 150.077 28.5 150.333 29C150.588 29.4948 150.945 29.875 151.403 30.1406C151.861 30.401 152.398 30.5312 153.012 30.5312C153.424 30.5312 153.796 30.474 154.129 30.3594C154.463 30.2396 154.752 30.0651 154.997 29.8359C155.241 29.6068 155.426 29.3229 155.551 28.9844L158.192 29.2812C158.025 29.9792 157.708 30.5885 157.239 31.1094C156.775 31.625 156.182 32.026 155.458 32.3125C154.734 32.5937 153.905 32.7344 152.973 32.7344ZM170.176 23.6719L167.598 23.9531C167.525 23.6927 167.397 23.4479 167.215 23.2188C167.038 22.9896 166.798 22.8047 166.496 22.6641C166.194 22.5234 165.825 22.4531 165.387 22.4531C164.798 22.4531 164.304 22.5807 163.903 22.8359C163.507 23.0911 163.312 23.4219 163.317 23.8281C163.312 24.1771 163.439 24.4609 163.7 24.6797C163.965 24.8984 164.403 25.0781 165.012 25.2188L167.059 25.6562C168.194 25.901 169.038 26.2891 169.59 26.8203C170.147 27.3516 170.429 28.0469 170.434 28.9062C170.429 29.6615 170.207 30.3281 169.77 30.9062C169.338 31.4792 168.736 31.9271 167.965 32.25C167.194 32.5729 166.309 32.7344 165.309 32.7344C163.84 32.7344 162.658 32.4271 161.762 31.8125C160.866 31.1927 160.332 30.3307 160.16 29.2266L162.918 28.9609C163.043 29.5026 163.309 29.9115 163.715 30.1875C164.121 30.4635 164.65 30.6016 165.301 30.6016C165.973 30.6016 166.512 30.4635 166.918 30.1875C167.33 29.9115 167.535 29.5703 167.535 29.1641C167.535 28.8203 167.403 28.5365 167.137 28.3125C166.877 28.0885 166.47 27.9167 165.918 27.7969L163.871 27.3672C162.72 27.1276 161.869 26.724 161.317 26.1562C160.765 25.5833 160.491 24.8594 160.496 23.9844C160.491 23.2448 160.692 22.6042 161.098 22.0625C161.509 21.5156 162.08 21.0937 162.809 20.7969C163.543 20.4948 164.39 20.3438 165.348 20.3438C166.754 20.3438 167.861 20.6432 168.668 21.2422C169.481 21.8411 169.983 22.651 170.176 23.6719ZM175.584 25.4687V32.5H172.756V16.5H175.522V22.5391H175.662C175.943 21.862 176.378 21.3281 176.967 20.9375C177.561 20.5417 178.316 20.3438 179.232 20.3438C180.066 20.3438 180.792 20.5182 181.412 20.8672C182.032 21.2161 182.511 21.7266 182.85 22.3984C183.193 23.0703 183.365 23.8906 183.365 24.8594V32.5H180.537V25.2969C180.537 24.4896 180.329 23.862 179.912 23.4141C179.501 22.9609 178.923 22.7344 178.178 22.7344C177.678 22.7344 177.23 22.8437 176.834 23.0625C176.443 23.276 176.136 23.5859 175.912 23.9922C175.693 24.3984 175.584 24.8906 175.584 25.4687ZM202.529 21.6094C202.399 21.1875 202.219 20.8099 201.99 20.4766C201.766 20.138 201.495 19.849 201.177 19.6094C200.865 19.3698 200.505 19.1901 200.099 19.0703C199.693 18.9453 199.25 18.8828 198.771 18.8828C197.912 18.8828 197.146 19.099 196.474 19.5313C195.802 19.9635 195.274 20.599 194.888 21.4375C194.508 22.2708 194.318 23.2865 194.318 24.4844C194.318 25.6927 194.508 26.7161 194.888 27.5547C195.268 28.3932 195.797 29.0312 196.474 29.4687C197.151 29.901 197.938 30.1172 198.834 30.1172C199.646 30.1172 200.349 29.9609 200.943 29.6484C201.542 29.3359 202.003 28.8932 202.326 28.3203C202.649 27.7422 202.81 27.0651 202.81 26.2891L203.466 26.3906H199.123V24.125H205.615V26.0469C205.615 27.4167 205.323 28.6016 204.74 29.6016C204.157 30.6016 203.354 31.3724 202.334 31.9141C201.313 32.4505 200.141 32.7187 198.818 32.7187C197.344 32.7187 196.05 32.388 194.935 31.7266C193.826 31.0599 192.959 30.1146 192.334 28.8906C191.714 27.6615 191.404 26.2031 191.404 24.5156C191.404 23.224 191.586 22.0703 191.951 21.0547C192.321 20.0391 192.836 19.1771 193.498 18.4687C194.159 17.7552 194.935 17.2135 195.826 16.8437C196.716 16.4687 197.685 16.2812 198.732 16.2812C199.617 16.2812 200.443 16.4115 201.209 16.6719C201.974 16.9271 202.654 17.2917 203.248 17.7656C203.847 18.2396 204.339 18.8021 204.724 19.4531C205.11 20.1042 205.362 20.8229 205.482 21.6094H202.529ZM208.283 32.5V20.5H211.025V22.5H211.15C211.369 21.8073 211.744 21.2734 212.275 20.8984C212.811 20.5182 213.423 20.3281 214.111 20.3281C214.267 20.3281 214.441 20.3359 214.634 20.3516C214.832 20.362 214.996 20.3802 215.126 20.4062V23.0078C215.007 22.9661 214.816 22.9297 214.556 22.8984C214.301 22.862 214.053 22.8437 213.814 22.8437C213.298 22.8437 212.835 22.9557 212.423 23.1797C212.017 23.3984 211.697 23.7031 211.462 24.0937C211.228 24.4844 211.111 24.9349 211.111 25.4453V32.5H208.283ZM220.234 32.7422C219.473 32.7422 218.788 32.6068 218.179 32.3359C217.575 32.0599 217.095 31.6536 216.741 31.1172C216.392 30.5807 216.218 29.9193 216.218 29.1328C216.218 28.4557 216.343 27.8958 216.593 27.4531C216.843 27.0104 217.184 26.6562 217.616 26.3906C218.049 26.125 218.536 25.9245 219.077 25.7891C219.624 25.6484 220.189 25.5469 220.773 25.4844C221.476 25.4115 222.046 25.3464 222.484 25.2891C222.921 25.2266 223.239 25.1328 223.437 25.0078C223.64 24.8776 223.741 24.6771 223.741 24.4062V24.3594C223.741 23.7708 223.567 23.3151 223.218 22.9922C222.869 22.6693 222.366 22.5078 221.71 22.5078C221.017 22.5078 220.468 22.6589 220.062 22.9609C219.661 23.263 219.39 23.6198 219.249 24.0312L216.609 23.6562C216.817 22.9271 217.161 22.3177 217.64 21.8281C218.119 21.3333 218.705 20.9635 219.398 20.7187C220.09 20.4688 220.856 20.3438 221.694 20.3438C222.273 20.3438 222.848 20.4115 223.421 20.5469C223.994 20.6823 224.517 20.9062 224.991 21.2187C225.465 21.526 225.846 21.9453 226.132 22.4766C226.424 23.0078 226.569 23.6719 226.569 24.4687V32.5H223.851V30.8516H223.757C223.585 31.1849 223.343 31.4974 223.03 31.7891C222.723 32.0755 222.335 32.3073 221.866 32.4844C221.403 32.6563 220.859 32.7422 220.234 32.7422ZM220.968 30.6641C221.536 30.6641 222.028 30.5521 222.444 30.3281C222.861 30.099 223.181 29.7969 223.405 29.4219C223.635 29.0469 223.749 28.638 223.749 28.1953V26.7812C223.661 26.8542 223.51 26.9219 223.296 26.9844C223.088 27.0469 222.853 27.1016 222.593 27.1484C222.332 27.1953 222.075 27.237 221.819 27.2734C221.564 27.3099 221.343 27.3411 221.155 27.3672C220.734 27.4245 220.356 27.5182 220.023 27.6484C219.689 27.7786 219.426 27.9609 219.234 28.1953C219.041 28.4245 218.944 28.7214 218.944 29.0859C218.944 29.6068 219.135 30 219.515 30.2656C219.895 30.5312 220.379 30.6641 220.968 30.6641ZM233.856 32.7109C232.914 32.7109 232.07 32.4688 231.325 31.9844C230.58 31.5 229.992 30.7969 229.559 29.875C229.127 28.9531 228.911 27.8333 228.911 26.5156C228.911 25.1823 229.13 24.0573 229.567 23.1406C230.01 22.2187 230.606 21.5234 231.356 21.0547C232.106 20.5807 232.942 20.3438 233.864 20.3438C234.567 20.3438 235.145 20.4635 235.599 20.7031C236.052 20.9375 236.411 21.2214 236.677 21.5547C236.942 21.8828 237.148 22.1927 237.294 22.4844H237.411V16.5H240.247V32.5H237.466V30.6094H237.294C237.148 30.901 236.937 31.2109 236.661 31.5391C236.385 31.862 236.02 32.138 235.567 32.3672C235.114 32.5964 234.544 32.7109 233.856 32.7109ZM234.645 30.3906C235.244 30.3906 235.755 30.2292 236.177 29.9062C236.599 29.5781 236.919 29.1224 237.138 28.5391C237.356 27.9557 237.466 27.276 237.466 26.5C237.466 25.724 237.356 25.0495 237.138 24.4766C236.924 23.9036 236.606 23.4583 236.184 23.1406C235.768 22.8229 235.255 22.6641 234.645 22.6641C234.015 22.6641 233.489 22.8281 233.067 23.1562C232.645 23.4844 232.328 23.9375 232.114 24.5156C231.901 25.0937 231.794 25.7552 231.794 26.5C231.794 27.25 231.901 27.9193 232.114 28.5078C232.333 29.0911 232.653 29.5521 233.075 29.8906C233.502 30.224 234.026 30.3906 234.645 30.3906ZM243.251 32.5V20.5H246.079V32.5H243.251ZM244.673 18.7969C244.225 18.7969 243.839 18.6484 243.516 18.3516C243.193 18.0495 243.032 17.6875 243.032 17.2656C243.032 16.8385 243.193 16.4766 243.516 16.1797C243.839 15.8776 244.225 15.7266 244.673 15.7266C245.126 15.7266 245.511 15.8776 245.829 16.1797C246.152 16.4766 246.313 16.8385 246.313 17.2656C246.313 17.6875 246.152 18.0495 245.829 18.3516C245.511 18.6484 245.126 18.7969 244.673 18.7969ZM254.289 32.7344C253.086 32.7344 252.047 32.4844 251.172 31.9844C250.302 31.4792 249.633 30.7656 249.164 29.8437C248.696 28.9167 248.461 27.8255 248.461 26.5703C248.461 25.3359 248.696 24.2526 249.164 23.3203C249.638 22.3828 250.3 21.6536 251.149 21.1328C251.998 20.6068 252.995 20.3438 254.141 20.3438C254.881 20.3438 255.579 20.4635 256.235 20.7031C256.896 20.9375 257.48 21.3021 257.985 21.7969C258.495 22.2917 258.896 22.9219 259.188 23.6875C259.48 24.4479 259.625 25.3542 259.625 26.4062V27.2734H249.789V25.3672H256.914C256.909 24.8255 256.792 24.3437 256.563 23.9219C256.334 23.4948 256.013 23.1589 255.602 22.9141C255.196 22.6693 254.722 22.5469 254.18 22.5469C253.602 22.5469 253.094 22.6875 252.657 22.9687C252.219 23.2448 251.878 23.6094 251.633 24.0625C251.394 24.5104 251.271 25.0026 251.266 25.5391V27.2031C251.266 27.901 251.394 28.5 251.649 29C251.904 29.4948 252.261 29.875 252.719 30.1406C253.177 30.401 253.714 30.5312 254.329 30.5312C254.74 30.5312 255.112 30.474 255.446 30.3594C255.779 30.2396 256.068 30.0651 256.313 29.8359C256.558 29.6068 256.743 29.3229 256.868 28.9844L259.508 29.2812C259.342 29.9792 259.024 30.5885 258.555 31.1094C258.092 31.625 257.498 32.026 256.774 32.3125C256.05 32.5937 255.222 32.7344 254.289 32.7344ZM264.836 25.4687V32.5H262.008V20.5H264.711V22.5391H264.852C265.128 21.8672 265.568 21.3333 266.172 20.9375C266.781 20.5417 267.534 20.3438 268.43 20.3438C269.258 20.3438 269.979 20.5208 270.594 20.875C271.214 21.2292 271.693 21.7422 272.031 22.4141C272.375 23.0859 272.544 23.901 272.539 24.8594V32.5H269.711V25.2969C269.711 24.4948 269.503 23.8672 269.086 23.4141C268.675 22.9609 268.104 22.7344 267.375 22.7344C266.88 22.7344 266.44 22.8437 266.055 23.0625C265.675 23.276 265.375 23.5859 265.156 23.9922C264.943 24.3984 264.836 24.8906 264.836 25.4687ZM281.396 20.5V22.6875H274.498V20.5H281.396ZM276.201 17.625H279.029V28.8906C279.029 29.2708 279.087 29.5625 279.201 29.7656C279.321 29.9635 279.477 30.099 279.67 30.1719C279.863 30.2448 280.076 30.2812 280.31 30.2812C280.488 30.2812 280.649 30.2682 280.795 30.2422C280.946 30.2161 281.06 30.1927 281.139 30.1719L281.615 32.3828C281.464 32.4349 281.248 32.4922 280.967 32.5547C280.691 32.6172 280.352 32.6536 279.951 32.6641C279.243 32.6849 278.605 32.5781 278.037 32.3437C277.469 32.1042 277.019 31.7344 276.685 31.2344C276.357 30.7344 276.196 30.1094 276.201 29.3594V17.625Z" fill="#E93D82"/>
<defs>
<radialGradient id="paint0_radial_561_117" cx="0" cy="0" r="1" gradientUnits="userSpaceOnUse" gradientTransform="translate(4 4) rotate(90) scale(32)">
<stop stop-color="white"/>
<stop offset="1" stop-color="white" stop-opacity="0"/>
</radialGradient>
<clipPath id="clip0_561_117">
<rect width="48" height="48" rx="10" fill="white"/>
</clipPath>
</defs>
</svg>
