<svg width="287" height="48" viewBox="0 0 287 48" fill="none" xmlns="http://www.w3.org/2000/svg">
<g clip-path="url(#clip0_45_202)">
<rect width="48" height="48" rx="10" fill="#0091FF"/>
<g opacity="0.4">
<rect x="-28" y="-28" width="64" height="64" rx="10" fill="url(#paint0_radial_45_202)"/>
</g>
<path opacity="0.4" d="M33 15L22.5 25.5" stroke="white" stroke-width="2" stroke-linecap="round" stroke-linejoin="round"/>
<path d="M15.4139 22.7442C14.8186 22.5127 14.5209 22.3969 14.434 22.2301C14.3587 22.0855 14.3586 21.9133 14.4337 21.7686C14.5205 21.6017 14.818 21.4856 15.4131 21.2534L32.3008 14.663C32.838 14.4534 33.1066 14.3486 33.2782 14.4059C33.4273 14.4557 33.5442 14.5727 33.594 14.7217C33.6514 14.8934 33.5465 15.1619 33.3369 15.6991L26.7466 32.5869C26.5143 33.1819 26.3982 33.4795 26.2313 33.5662C26.0866 33.6414 25.9144 33.6413 25.7698 33.5659C25.603 33.479 25.4872 33.1813 25.2557 32.586L22.6276 25.828C22.5806 25.7071 22.5571 25.6467 22.5208 25.5958C22.4886 25.5507 22.4492 25.5113 22.4041 25.4791C22.3532 25.4428 22.2928 25.4193 22.1719 25.3723L15.4139 22.7442Z" stroke="white" stroke-width="2" stroke-linecap="round" stroke-linejoin="round"/>
</g>
<path d="M69.5781 32.5V16.5H79.9844V18.9297H72.4766V23.2734H79.4453V25.7031H72.4766V30.0703H80.0469V32.5H69.5781ZM85.1189 20.5L87.5408 24.9297L90.0017 20.5H92.9939L89.3767 26.5L93.0564 32.5H90.0798L87.5408 28.1797L85.0252 32.5H82.0252L85.6814 26.5L82.1189 20.5H85.1189ZM95.1714 37V20.5H97.9527V22.4844H98.1167C98.2626 22.1927 98.4683 21.8828 98.7339 21.5547C98.9995 21.2214 99.3589 20.9375 99.812 20.7031C100.265 20.4635 100.843 20.3438 101.546 20.3438C102.473 20.3438 103.309 20.5807 104.054 21.0547C104.804 21.5234 105.398 22.2187 105.835 23.1406C106.278 24.0573 106.5 25.1823 106.5 26.5156C106.5 27.8333 106.283 28.9531 105.851 29.875C105.419 30.7969 104.83 31.5 104.085 31.9844C103.341 32.4688 102.497 32.7109 101.554 32.7109C100.867 32.7109 100.296 32.5964 99.8433 32.3672C99.3902 32.138 99.0256 31.862 98.7495 31.5391C98.4787 31.2109 98.2678 30.901 98.1167 30.6094H97.9995V37H95.1714ZM97.9448 26.5C97.9448 27.276 98.0542 27.9557 98.273 28.5391C98.4969 29.1224 98.8172 29.5781 99.2339 29.9062C99.6558 30.2292 100.166 30.3906 100.765 30.3906C101.39 30.3906 101.914 30.224 102.335 29.8906C102.757 29.5521 103.075 29.0911 103.289 28.5078C103.507 27.9193 103.617 27.25 103.617 26.5C103.617 25.7552 103.51 25.0937 103.296 24.5156C103.083 23.9375 102.765 23.4844 102.343 23.1562C101.921 22.8281 101.395 22.6641 100.765 22.6641C100.161 22.6641 99.648 22.8229 99.2261 23.1406C98.8042 23.4583 98.4839 23.9036 98.2652 24.4766C98.0516 25.0495 97.9448 25.724 97.9448 26.5ZM114.146 32.7344C112.974 32.7344 111.958 32.4766 111.099 31.9609C110.24 31.4453 109.573 30.724 109.099 29.7969C108.63 28.8698 108.396 27.7865 108.396 26.5469C108.396 25.3073 108.63 24.2214 109.099 23.2891C109.573 22.3568 110.24 21.6328 111.099 21.1172C111.958 20.6016 112.974 20.3438 114.146 20.3438C115.318 20.3438 116.333 20.6016 117.193 21.1172C118.052 21.6328 118.716 22.3568 119.185 23.2891C119.659 24.2214 119.896 25.3073 119.896 26.5469C119.896 27.7865 119.659 28.8698 119.185 29.7969C118.716 30.724 118.052 31.4453 117.193 31.9609C116.333 32.4766 115.318 32.7344 114.146 32.7344ZM114.161 30.4687C114.797 30.4687 115.328 30.2943 115.755 29.9453C116.182 29.5911 116.5 29.1172 116.708 28.5234C116.922 27.9297 117.029 27.2682 117.029 26.5391C117.029 25.8047 116.922 25.1406 116.708 24.5469C116.5 23.9479 116.182 23.4714 115.755 23.1172C115.328 22.763 114.797 22.5859 114.161 22.5859C113.51 22.5859 112.969 22.763 112.536 23.1172C112.109 23.4714 111.789 23.9479 111.575 24.5469C111.367 25.1406 111.263 25.8047 111.263 26.5391C111.263 27.2682 111.367 27.9297 111.575 28.5234C111.789 29.1172 112.109 29.5911 112.536 29.9453C112.969 30.2943 113.51 30.4687 114.161 30.4687ZM127.858 16.5H131.405L136.155 28.0937H136.343L141.093 16.5H144.639V32.5H141.858V21.5078H141.71L137.288 32.4531H135.21L130.788 21.4844H130.639V32.5H127.858V16.5ZM151.114 32.7422C150.353 32.7422 149.669 32.6068 149.059 32.3359C148.455 32.0599 147.976 31.6536 147.622 31.1172C147.273 30.5807 147.098 29.9193 147.098 29.1328C147.098 28.4557 147.223 27.8958 147.473 27.4531C147.723 27.0104 148.064 26.6562 148.497 26.3906C148.929 26.125 149.416 25.9245 149.958 25.7891C150.504 25.6484 151.07 25.5469 151.653 25.4844C152.356 25.4115 152.926 25.3464 153.364 25.2891C153.801 25.2266 154.119 25.1328 154.317 25.0078C154.52 24.8776 154.622 24.6771 154.622 24.4062V24.3594C154.622 23.7708 154.447 23.3151 154.098 22.9922C153.749 22.6693 153.247 22.5078 152.59 22.5078C151.898 22.5078 151.348 22.6589 150.942 22.9609C150.541 23.263 150.27 23.6198 150.129 24.0312L147.489 23.6562C147.697 22.9271 148.041 22.3177 148.52 21.8281C148.999 21.3333 149.585 20.9635 150.278 20.7187C150.971 20.4688 151.736 20.3438 152.575 20.3438C153.153 20.3438 153.728 20.4115 154.301 20.5469C154.874 20.6823 155.398 20.9062 155.872 21.2187C156.346 21.526 156.726 21.9453 157.012 22.4766C157.304 23.0078 157.45 23.6719 157.45 24.4687V32.5H154.731V30.8516H154.637C154.465 31.1849 154.223 31.4974 153.911 31.7891C153.603 32.0755 153.215 32.3073 152.747 32.4844C152.283 32.6563 151.739 32.7422 151.114 32.7422ZM151.848 30.6641C152.416 30.6641 152.908 30.5521 153.325 30.3281C153.741 30.099 154.062 29.7969 154.286 29.4219C154.515 29.0469 154.629 28.638 154.629 28.1953V26.7812C154.541 26.8542 154.39 26.9219 154.176 26.9844C153.968 27.0469 153.734 27.1016 153.473 27.1484C153.213 27.1953 152.955 27.237 152.7 27.2734C152.445 27.3099 152.223 27.3411 152.036 27.3672C151.614 27.4245 151.236 27.5182 150.903 27.6484C150.57 27.7786 150.307 27.9609 150.114 28.1953C149.921 28.4245 149.825 28.7214 149.825 29.0859C149.825 29.6068 150.015 30 150.395 30.2656C150.775 30.5312 151.26 30.6641 151.848 30.6641ZM160.284 32.5V20.5H163.112V32.5H160.284ZM161.705 18.7969C161.257 18.7969 160.872 18.6484 160.549 18.3516C160.226 18.0495 160.065 17.6875 160.065 17.2656C160.065 16.8385 160.226 16.4766 160.549 16.1797C160.872 15.8776 161.257 15.7266 161.705 15.7266C162.159 15.7266 162.544 15.8776 162.862 16.1797C163.185 16.4766 163.346 16.8385 163.346 17.2656C163.346 17.6875 163.185 18.0495 162.862 18.3516C162.544 18.6484 162.159 18.7969 161.705 18.7969ZM168.838 16.5V32.5H166.01V16.5H168.838ZM191.004 21.8984H188.082C187.998 21.4193 187.845 20.9948 187.621 20.625C187.397 20.25 187.118 19.9323 186.785 19.6719C186.451 19.4115 186.071 19.2161 185.644 19.0859C185.222 18.9505 184.767 18.8828 184.277 18.8828C183.407 18.8828 182.636 19.1016 181.964 19.5391C181.293 19.9714 180.767 20.6068 180.386 21.4453C180.006 22.2786 179.816 23.2969 179.816 24.5C179.816 25.724 180.006 26.7552 180.386 27.5937C180.772 28.4271 181.298 29.0573 181.964 29.4844C182.636 29.9062 183.405 30.1172 184.269 30.1172C184.748 30.1172 185.196 30.0547 185.613 29.9297C186.035 29.7995 186.412 29.6094 186.746 29.3594C187.084 29.1094 187.368 28.8021 187.597 28.4375C187.832 28.0729 187.993 27.6562 188.082 27.1875L191.004 27.2031C190.894 27.9635 190.657 28.6771 190.293 29.3438C189.933 30.0104 189.462 30.599 188.879 31.1094C188.295 31.6146 187.613 32.0104 186.832 32.2969C186.05 32.5781 185.183 32.7187 184.23 32.7187C182.824 32.7187 181.569 32.3932 180.464 31.7422C179.36 31.0911 178.49 30.151 177.855 28.9219C177.22 27.6927 176.902 26.2187 176.902 24.5C176.902 22.776 177.222 21.3021 177.863 20.0781C178.504 18.849 179.376 17.9089 180.48 17.2578C181.584 16.6068 182.834 16.2812 184.23 16.2812C185.121 16.2812 185.949 16.4062 186.714 16.6562C187.48 16.9062 188.162 17.2734 188.761 17.7578C189.36 18.237 189.852 18.8255 190.238 19.5234C190.629 20.2161 190.884 21.0078 191.004 21.8984ZM198.757 32.7344C197.585 32.7344 196.57 32.4766 195.71 31.9609C194.851 31.4453 194.184 30.724 193.71 29.7969C193.242 28.8698 193.007 27.7865 193.007 26.5469C193.007 25.3073 193.242 24.2214 193.71 23.2891C194.184 22.3568 194.851 21.6328 195.71 21.1172C196.57 20.6016 197.585 20.3438 198.757 20.3438C199.929 20.3438 200.945 20.6016 201.804 21.1172C202.663 21.6328 203.327 22.3568 203.796 23.2891C204.27 24.2214 204.507 25.3073 204.507 26.5469C204.507 27.7865 204.27 28.8698 203.796 29.7969C203.327 30.724 202.663 31.4453 201.804 31.9609C200.945 32.4766 199.929 32.7344 198.757 32.7344ZM198.773 30.4687C199.408 30.4687 199.939 30.2943 200.367 29.9453C200.794 29.5911 201.111 29.1172 201.32 28.5234C201.533 27.9297 201.64 27.2682 201.64 26.5391C201.64 25.8047 201.533 25.1406 201.32 24.5469C201.111 23.9479 200.794 23.4714 200.367 23.1172C199.939 22.763 199.408 22.5859 198.773 22.5859C198.122 22.5859 197.58 22.763 197.148 23.1172C196.721 23.4714 196.4 23.9479 196.187 24.5469C195.979 25.1406 195.874 25.8047 195.874 26.5391C195.874 27.2682 195.979 27.9297 196.187 28.5234C196.4 29.1172 196.721 29.5911 197.148 29.9453C197.58 30.2943 198.122 30.4687 198.773 30.4687ZM206.898 32.5V20.5H209.601V22.5391H209.741C209.991 21.8516 210.405 21.3151 210.984 20.9297C211.562 20.5391 212.252 20.3438 213.054 20.3438C213.866 20.3438 214.551 20.5417 215.109 20.9375C215.671 21.3281 216.067 21.862 216.296 22.5391H216.421C216.687 21.8724 217.135 21.3411 217.765 20.9453C218.4 20.5443 219.153 20.3438 220.023 20.3438C221.127 20.3438 222.028 20.6927 222.726 21.3906C223.424 22.0885 223.773 23.1068 223.773 24.4453V32.5H220.937V24.8828C220.937 24.138 220.739 23.5937 220.343 23.25C219.947 22.901 219.463 22.7266 218.89 22.7266C218.207 22.7266 217.674 22.9401 217.288 23.3672C216.908 23.7891 216.718 24.3385 216.718 25.0156V32.5H213.944V24.7656C213.944 24.1458 213.757 23.651 213.382 23.2812C213.012 22.9115 212.528 22.7266 211.929 22.7266C211.523 22.7266 211.153 22.8307 210.819 23.0391C210.486 23.2422 210.22 23.5312 210.023 23.9062C209.825 24.276 209.726 24.7083 209.726 25.2031V32.5H206.898ZM226.632 37V20.5H229.413V22.4844H229.577C229.723 22.1927 229.929 21.8828 230.194 21.5547C230.46 21.2214 230.819 20.9375 231.272 20.7031C231.725 20.4635 232.304 20.3438 233.007 20.3438C233.934 20.3438 234.77 20.5807 235.515 21.0547C236.265 21.5234 236.858 22.2187 237.296 23.1406C237.738 24.0573 237.96 25.1823 237.96 26.5156C237.96 27.8333 237.744 28.9531 237.311 29.875C236.879 30.7969 236.291 31.5 235.546 31.9844C234.801 32.4688 233.957 32.7109 233.015 32.7109C232.327 32.7109 231.757 32.5964 231.304 32.3672C230.85 32.138 230.486 31.862 230.21 31.5391C229.939 31.2109 229.728 30.901 229.577 30.6094H229.46V37H226.632ZM229.405 26.5C229.405 27.276 229.515 27.9557 229.733 28.5391C229.957 29.1224 230.278 29.5781 230.694 29.9062C231.116 30.2292 231.627 30.3906 232.225 30.3906C232.85 30.3906 233.374 30.224 233.796 29.8906C234.218 29.5521 234.535 29.0911 234.749 28.5078C234.968 27.9193 235.077 27.25 235.077 26.5C235.077 25.7552 234.97 25.0937 234.757 24.5156C234.543 23.9375 234.225 23.4844 233.804 23.1562C233.382 22.8281 232.856 22.6641 232.225 22.6641C231.621 22.6641 231.108 22.8229 230.686 23.1406C230.265 23.4583 229.944 23.9036 229.725 24.4766C229.512 25.0495 229.405 25.724 229.405 26.5ZM245.606 32.7344C244.434 32.7344 243.419 32.4766 242.559 31.9609C241.7 31.4453 241.033 30.724 240.559 29.7969C240.09 28.8698 239.856 27.7865 239.856 26.5469C239.856 25.3073 240.09 24.2214 240.559 23.2891C241.033 22.3568 241.7 21.6328 242.559 21.1172C243.419 20.6016 244.434 20.3438 245.606 20.3438C246.778 20.3438 247.794 20.6016 248.653 21.1172C249.512 21.6328 250.176 22.3568 250.645 23.2891C251.119 24.2214 251.356 25.3073 251.356 26.5469C251.356 27.7865 251.119 28.8698 250.645 29.7969C250.176 30.724 249.512 31.4453 248.653 31.9609C247.794 32.4766 246.778 32.7344 245.606 32.7344ZM245.622 30.4687C246.257 30.4687 246.788 30.2943 247.215 29.9453C247.643 29.5911 247.96 29.1172 248.169 28.5234C248.382 27.9297 248.489 27.2682 248.489 26.5391C248.489 25.8047 248.382 25.1406 248.169 24.5469C247.96 23.9479 247.643 23.4714 247.215 23.1172C246.788 22.763 246.257 22.5859 245.622 22.5859C244.971 22.5859 244.429 22.763 243.997 23.1172C243.57 23.4714 243.249 23.9479 243.036 24.5469C242.827 25.1406 242.723 25.8047 242.723 26.5391C242.723 27.2682 242.827 27.9297 243.036 28.5234C243.249 29.1172 243.57 29.5911 243.997 29.9453C244.429 30.2943 244.971 30.4687 245.622 30.4687ZM263.231 23.6719L260.653 23.9531C260.58 23.6927 260.452 23.4479 260.27 23.2188C260.093 22.9896 259.853 22.8047 259.551 22.6641C259.249 22.5234 258.879 22.4531 258.442 22.4531C257.853 22.4531 257.358 22.5807 256.957 22.8359C256.562 23.0911 256.366 23.4219 256.371 23.8281C256.366 24.1771 256.494 24.4609 256.754 24.6797C257.02 24.8984 257.457 25.0781 258.067 25.2188L260.114 25.6562C261.249 25.901 262.093 26.2891 262.645 26.8203C263.202 27.3516 263.483 28.0469 263.489 28.9062C263.483 29.6615 263.262 30.3281 262.825 30.9062C262.392 31.4792 261.791 31.9271 261.02 32.25C260.249 32.5729 259.364 32.7344 258.364 32.7344C256.895 32.7344 255.713 32.4271 254.817 31.8125C253.921 31.1927 253.387 30.3307 253.215 29.2266L255.973 28.9609C256.098 29.5026 256.364 29.9115 256.77 30.1875C257.176 30.4635 257.705 30.6016 258.356 30.6016C259.028 30.6016 259.567 30.4635 259.973 30.1875C260.385 29.9115 260.59 29.5703 260.59 29.1641C260.59 28.8203 260.457 28.5365 260.192 28.3125C259.931 28.0885 259.525 27.9167 258.973 27.7969L256.926 27.3672C255.775 27.1276 254.924 26.724 254.371 26.1562C253.819 25.5833 253.546 24.8594 253.551 23.9844C253.546 23.2448 253.746 22.6042 254.153 22.0625C254.564 21.5156 255.135 21.0937 255.864 20.7969C256.598 20.4948 257.444 20.3438 258.403 20.3438C259.809 20.3438 260.916 20.6432 261.723 21.2422C262.536 21.8411 263.038 22.651 263.231 23.6719ZM271.123 32.7344C269.92 32.7344 268.881 32.4844 268.006 31.9844C267.136 31.4792 266.467 30.7656 265.998 29.8437C265.529 28.9167 265.295 27.8255 265.295 26.5703C265.295 25.3359 265.529 24.2526 265.998 23.3203C266.472 22.3828 267.134 21.6536 267.983 21.1328C268.832 20.6068 269.829 20.3438 270.975 20.3438C271.714 20.3438 272.412 20.4635 273.069 20.7031C273.73 20.9375 274.313 21.3021 274.819 21.7969C275.329 22.2917 275.73 22.9219 276.022 23.6875C276.313 24.4479 276.459 25.3542 276.459 26.4062V27.2734H266.623V25.3672H273.748C273.743 24.8255 273.626 24.3437 273.397 23.9219C273.167 23.4948 272.847 23.1589 272.436 22.9141C272.029 22.6693 271.555 22.5469 271.014 22.5469C270.436 22.5469 269.928 22.6875 269.49 22.9687C269.053 23.2448 268.712 23.6094 268.467 24.0625C268.227 24.5104 268.105 25.0026 268.1 25.5391V27.2031C268.1 27.901 268.227 28.5 268.483 29C268.738 29.4948 269.095 29.875 269.553 30.1406C270.011 30.401 270.548 30.5312 271.162 30.5312C271.574 30.5312 271.946 30.474 272.279 30.3594C272.613 30.2396 272.902 30.0651 273.147 29.8359C273.391 29.6068 273.576 29.3229 273.701 28.9844L276.342 29.2812C276.175 29.9792 275.858 30.5885 275.389 31.1094C274.925 31.625 274.332 32.026 273.608 32.3125C272.884 32.5937 272.055 32.7344 271.123 32.7344ZM278.842 32.5V20.5H281.584V22.5H281.709C281.928 21.8073 282.303 21.2734 282.834 20.8984C283.37 20.5182 283.982 20.3281 284.67 20.3281C284.826 20.3281 285.001 20.3359 285.193 20.3516C285.391 20.362 285.555 20.3802 285.685 20.4062V23.0078C285.566 22.9661 285.376 22.9297 285.115 22.8984C284.86 22.862 284.613 22.8437 284.373 22.8437C283.857 22.8437 283.394 22.9557 282.982 23.1797C282.576 23.3984 282.256 23.7031 282.021 24.0937C281.787 24.4844 281.67 24.9349 281.67 25.4453V32.5H278.842Z" fill="#0091FF"/>
<defs>
<radialGradient id="paint0_radial_45_202" cx="0" cy="0" r="1" gradientUnits="userSpaceOnUse" gradientTransform="translate(4 4) rotate(90) scale(32)">
<stop stop-color="white"/>
<stop offset="1" stop-color="white" stop-opacity="0"/>
</radialGradient>
<clipPath id="clip0_45_202">
<rect width="48" height="48" rx="10" fill="white"/>
</clipPath>
</defs>
</svg>
